<svg xmlns="http://www.w3.org/2000/svg" xmlns:xlink="http://www.w3.org/1999/xlink" width="400" height="293.497" viewBox="0 0 400 293.497">
  <defs>
    <clipPath id="clip-path">
      <rect id="Rectángulo_385678" data-name="Rectángulo 385678" width="399.414" height="293.497" transform="translate(0 0)" fill="none"/>
    </clipPath>
  </defs>
  <g id="Grupo_1084182" data-name="Grupo 1084182" transform="translate(-915 -3839.441)">
    <rect id="Rectángulo_385663" data-name="Rectángulo 385663" width="400" height="289" transform="translate(915 3842)" fill="none"/>
    <g id="Grupo_1084076" data-name="Grupo 1084076" transform="translate(915 3839.446)">
      <g id="Grupo_1084075" data-name="Grupo 1084075" transform="translate(0 -0.005)" clip-path="url(#clip-path)">
        <path id="Trazado_835157" data-name="Trazado 835157" d="M348.289,231.362s4.13-16.319-8.688-19.02c0,0-8.747-.733-14.067,2.32,0,0,14.24,9.173,12.369,11.717s-15.13-11.365-15.13-11.365-16.042,6.114-19.791,10.925c0,0,18.4,4.212,15.961,6.218s-21.789-1.488-21.789-1.488-13.042,9.5-7.968,17.808,11.314,8.56,13.357,7.258,12.271-12.384,13.423-10.753-3.576,11.179-8.761,14.09c0,0,15.541,6.09,20.629-.42s3.142-11.86,6.359-15.826,6.771-5.724,6.016-2.933-7.35,8.413-7.641,13.8-1.016,9.288,5.374,4.821,15.106-15.093,12.727-21.123Z" transform="translate(-214.618 -158.171)" fill="#8bc0cc"/>
        <path id="Trazado_835158" data-name="Trazado 835158" d="M320.535,297.045s37.95-20.7,51.988-13.875a31.24,31.24,0,0,0,13.072,6.988l2.133,2.02s-10.214-3.741-12.825-2.977c0,0-3.053-15.571-54.367,7.844" transform="translate(-238.852 -209.98)" fill="#8bc0cc"/>
        <path id="Trazado_835159" data-name="Trazado 835159" d="M568.137,314.428s11.354,2.019,17.378,12.706l-1.44.883s-8.285-10.03-15.282-12.087-.656-1.5-.656-1.5" transform="translate(-421.395 -234.249)" fill="#599dad"/>
        <path id="Trazado_835160" data-name="Trazado 835160" d="M318.71,47.9s19.791-17.365,5.671-32.21c0,0-10.62-8.7-20.182-9.483,0,0,10.213,24.445,5.548,26.064s-9.417-28.059-9.417-28.059S274.239-2.133,265.143.743c0,0,19.972,21.741,15.051,22.162S253.44,1.668,253.44,1.668s-25.223.671-26.057,15.88,6.988,21.06,10.774,21.194,26.791-5.076,26.829-1.953S250.467,48.022,241.2,47.175c0,0,14.624,21.627,26.952,17.75s14.564-12.495,22.226-14.752,13.8-1.372,10.352,1.554-16.93,4.322-22.083,11.01S269.107,73.8,281.3,73.714s32.846-6.052,35.127-15.932Z" transform="translate(-169.393 0.005)" fill="#bcecf7"/>
        <path id="Trazado_835161" data-name="Trazado 835161" d="M274.814,77.252s67.249,6.981,79.286,28.219c0,0,1.868,10.25,10.646,20.595l.957,4.493s-9.843-13.876-13.884-15.208c0,0,9.872-22.77-77-38.1" transform="translate(-204.783 -57.564)" fill="#8bc0cc"/>
        <path id="Trazado_835162" data-name="Trazado 835162" d="M617.308,262.38s12.838,12.668,11.124,31.78l-2.639-.139s-1.782-20.27-8.972-29.124.487-2.517.487-2.517" transform="translate(-457.344 -193.879)" fill="#6bb7bf"/>
        <path id="Trazado_835163" data-name="Trazado 835163" d="M362.648,592s25.684-5.794,20.376-25.582c0,0-5.17-12.718-13.195-17.976,0,0-2.712,26.353-7.584,25.546s5.139-29.147,5.139-29.147S347.5,526.8,338.135,524.979c0,0,7.152,28.643,2.629,26.661s-13.35-31.442-13.35-31.442-22.476-11.466-30.478,1.5-3.928,21.839-.666,23.766,25.958,8.346,24.5,11.108-18.122,2.927-25.853-2.244c0,0,2.509,25.986,15.19,28.473s18.765-4.014,26.574-2.334,12.777,5.391,8.35,6.313-16.937-4.3-24.659-.884-13.673,5.159-2.919,10.908,31.744,10.383,38.47,2.795Z" transform="translate(-217.803 -384.146)" fill="#bcecf7"/>
        <path id="Trazado_835164" data-name="Trazado 835164" d="M348.029,569.691s55.734,38.274,56.156,62.682c0,0-3.258,9.9-.492,23.178l-1.307,4.4s-2.014-16.893-4.927-19.994c0,0,19.554-15.282-49.43-70.271" transform="translate(-259.34 -424.514)" fill="#8bc0cc"/>
        <path id="Trazado_835165" data-name="Trazado 835165" d="M544.037,896.163s5.222,17.263-5.418,33.232l-2.252-1.384s8.123-18.656,6.039-29.87,1.63-1.978,1.63-1.978" transform="translate(-399.684 -665.125)" fill="#6bb7bf"/>
        <rect id="Rectángulo_385664" data-name="Rectángulo 385664" width="186.921" height="262.49" transform="translate(128.213 29.96)" fill="#24555e"/>
        <rect id="Rectángulo_385665" data-name="Rectángulo 385665" width="173.784" height="250.36" transform="translate(134.781 37.23)" fill="#dcf6f9"/>
        <rect id="Rectángulo_385666" data-name="Rectángulo 385666" width="141.874" height="8.114" transform="translate(152.678 67.949)" fill="#636363"/>
        <rect id="Rectángulo_385667" data-name="Rectángulo 385667" width="141.874" height="3.722" transform="translate(152.678 117.472)" fill="#49adb7"/>
        <rect id="Rectángulo_385668" data-name="Rectángulo 385668" width="141.874" height="3.722" transform="translate(152.678 126.229)" fill="#49adb7"/>
        <rect id="Rectángulo_385669" data-name="Rectángulo 385669" width="141.874" height="3.722" transform="translate(152.678 134.987)" fill="#49adb7"/>
        <rect id="Rectángulo_385670" data-name="Rectángulo 385670" width="141.874" height="3.722" transform="translate(152.678 143.745)" fill="#49adb7"/>
        <rect id="Rectángulo_385671" data-name="Rectángulo 385671" width="141.874" height="3.722" transform="translate(152.678 152.502)" fill="#49adb7"/>
        <rect id="Rectángulo_385672" data-name="Rectángulo 385672" width="141.874" height="3.722" transform="translate(152.678 161.26)" fill="#49adb7"/>
        <path id="Trazado_835166" data-name="Trazado 835166" d="M698.135,800.384a10.947,10.947,0,1,1-10.947-10.947,10.947,10.947,0,0,1,10.947,10.947" transform="translate(-503.913 -588.262)" fill="#c1cdf5"/>
        <path id="Trazado_835167" data-name="Trazado 835167" d="M940.408,813.978a.555.555,0,0,1-.093-.008.547.547,0,0,1-.448-.631c.1-.6,2.593-14.764,10.448-19.584a.848.848,0,0,1,1.07-.027c.69.59.165,2.093-2.2,7.765-.943,2.261-2.06,4.94-2.52,6.569.837-1.1,2.089-2.975,3.083-4.468,3.107-4.664,3.712-5.425,4.318-5.425a.664.664,0,0,1,.553.287c.33.474.081,1.265-.778,3.59a26.272,26.272,0,0,0-.979,2.989,16.067,16.067,0,0,0,1.5-1.77c1.076-1.4,1.622-2.07,2.265-1.97a.786.786,0,0,1,.619.551,3.2,3.2,0,0,1,.128.6,1.881,1.881,0,0,0,.855,1.577c1.364.769,5.294.724,16.271-3.852a.547.547,0,0,1,.421,1.011c-9.269,3.864-14.905,5.105-17.229,3.8a2.91,2.91,0,0,1-1.4-2.352c-.312.329-.745.894-1.063,1.307-1.188,1.547-1.969,2.478-2.765,2.412a.749.749,0,0,1-.58-.352c-.38-.6-.008-1.778.932-4.325.15-.407.323-.875.474-1.31-.76,1.039-1.792,2.589-2.629,3.844-3.48,5.224-4.109,5.982-4.811,5.79a.681.681,0,0,1-.49-.672c-.07-1.222,1.07-4.059,2.816-8.248a59.006,59.006,0,0,0,2.336-6.142c-7.144,4.8-9.542,18.453-9.565,18.593a.547.547,0,0,1-.539.456" transform="translate(-700.353 -591.332)" fill="#49adb7"/>
        <path id="Trazado_835168" data-name="Trazado 835168" d="M827.378,53.921H805.337a11.859,11.859,0,1,0-22.186,0h-22.04a3.211,3.211,0,0,0-3.211,3.211v8.9a3.211,3.211,0,0,0,3.211,3.211h66.267a3.211,3.211,0,0,0,3.211-3.211v-8.9a3.211,3.211,0,0,0-3.211-3.211m-33.133.182a4.379,4.379,0,1,1,4.379-4.379,4.379,4.379,0,0,1-4.379,4.379" transform="translate(-564.763 -28.214)" fill="#98b974"/>
        <path id="Trazado_835169" data-name="Trazado 835169" d="M73.154,954.2c4.418-4.513,12.2-7.619,21.189-7.984v-13.3H78.835c-.344,0-.651-.3-.846-.763a3.055,3.055,0,0,1-.217-1.165v-.673c0-1.06.478-1.927,1.063-1.927H94.343V891.231a1.784,1.784,0,0,1,3.569,0v37.158H113.42c.585,0,1.063.867,1.063,1.927v.673a3.022,3.022,0,0,1-.231,1.2c-.195.445-.5.731-.832.731H97.912v13.3c8.989.365,16.772,3.472,21.189,7.984q.482.491.907,1H72.247c.282-.342.586-.676.907-1" transform="translate(-53.836 -662.786)" fill="#1c3a3e"/>
        <path id="Trazado_835170" data-name="Trazado 835170" d="M158.955,1112.189a20.488,20.488,0,0,1,14.783,7.919c.238.328.461.662.671,1h4.419c-.21-.342-.433-.676-.671-1-3.482-4.809-9.789-8.021-16.992-8.021q-1.122,0-2.21.1" transform="translate(-118.448 -828.69)" fill="#24555e"/>
        <path id="Trazado_835171" data-name="Trazado 835171" d="M350.806,1104.547s.54,8.715,2.226,8.84c.224.017,8.552.017,8.552.017l10.631-.062a3.449,3.449,0,0,0-3.177-3.1c-3.107-.542-8.309-2.725-10.191-6.832-1.98-4.321-8.041,1.14-8.041,1.14" transform="translate(-261.409 -820.982)" fill="#163560"/>
        <path id="Trazado_835172" data-name="Trazado 835172" d="M166.168,797.982a64.826,64.826,0,0,0,5.082,7.271c5.592,7.059,11.678,12.879,12.739,18.381a24.912,24.912,0,0,0,.983,3.521c.443,1.26.99,2.585,1.622,3.955a121.878,121.878,0,0,0,9.464,16.179c6.125,9.075,11.137,15.164,11.137,15.164s1.606,1.253,6.2,1.251c1.278,0,5.582-.7,5.582-.7-.423-1.059-5.5-13.106-11.664-28.419l-7.73-19.2q-.513-1.277-1.023-2.54c-.785-1.952-1.557-3.872-2.311-5.743-5.786-14.379-10.395-25.828-10.395-25.828s-23.126-8.76-25.527-3.084c-1.981,4.681-.367,9.266,5.843,19.8" transform="translate(-118.873 -578.451)" fill="#1c3a3e"/>
        <rect id="Rectángulo_385673" data-name="Rectángulo 385673" width="35.024" height="96.926" transform="translate(86.647 195.495)" fill="#49adb7"/>
        <rect id="Rectángulo_385674" data-name="Rectángulo 385674" width="25.054" height="96.926" transform="translate(120.214 195.495)" fill="#8bc0cc"/>
        <rect id="Rectángulo_385675" data-name="Rectángulo 385675" width="36.186" height="1.954" transform="translate(84.271 193.541)" fill="#24555e"/>
        <rect id="Rectángulo_385676" data-name="Rectángulo 385676" width="27.402" height="1.954" transform="translate(120.456 193.541)" fill="#49adb7"/>
        <path id="Trazado_835173" data-name="Trazado 835173" d="M323.046,708.293s5.019,2.854,6.424,2.853,6.919-1.066,8.457-.28a17.977,17.977,0,0,1,4.842,4.978c.939,1.856-3.779,1.036-6.009-.545a1.4,1.4,0,0,0-1.114-.23c-1.155.252-3.555.688-4.713.259-1.558-.577-9.765-1.217-9.765-1.217Z" transform="translate(-239.322 -527.796)" fill="#f9a6a0"/>
        <path id="Trazado_835174" data-name="Trazado 835174" d="M178.71,540.681s5.2,36.975,13.817,40.287c4.251,1.634,23.036,5.338,28.593,5.71,0,0,1.361-1.1,1.03-5.6,0,0-19.681-7.226-22.478-11.156-4.161-5.848,2.583-23.892-2.638-29.384s-14.016-7.854-18.324.141" transform="translate(-133.169 -399.05)" fill="#ff4b42"/>
        <path id="Trazado_835175" data-name="Trazado 835175" d="M235.3,1015.045s-7.346,4.72-6.633,6.253c.095.2,4.154,7.475,4.154,7.475l5.236,9.252a3.449,3.449,0,0,0,1.16-4.286c-1.042-2.977-1.671-8.583,1-12.229,2.807-3.835-4.915-6.465-4.915-6.465" transform="translate(-170.36 -756.377)" fill="#ff4b42"/>
        <path id="Trazado_835176" data-name="Trazado 835176" d="M187.859,849.383s-5.171-4.8-5.98-7.773c0,0,18.917-22.666,23.021-27.746.188-.233.14-.489-.109-.77-3.1-3.493-37.517-10.594-42.016-17.593a21.686,21.686,0,0,1-2.906-6.7,15.844,15.844,0,0,1-.214-7.221l34.376-.994s28.62,17.821,31.862,29.972-38.033,38.826-38.033,38.826" transform="translate(-118.744 -581.665)" fill="#24555e"/>
        <path id="Trazado_835177" data-name="Trazado 835177" d="M206.3,817.676c-3.1-3.493-37.518-10.594-42.017-17.594a21.689,21.689,0,0,1-2.907-6.7v-4.35l14.61-2.3s4.143,12.749,16.414,17.529c11.493,4.478,13.67,12.424,13.9,13.413" transform="translate(-120.253 -586.247)" fill="#1c3a3e"/>
        <path id="Trazado_835178" data-name="Trazado 835178" d="M204.477,499.716c-6.954,1.8-18.482-4.645-18.482-4.645a17.067,17.067,0,0,0,6.135-9.617c.085-.333.16-.674.228-1.025l3.571-.757,5.311,4.758a45.712,45.712,0,0,1-.785,5.372q-.172.889-.4,1.906a16.383,16.383,0,0,1,4.422,4.008" transform="translate(-138.597 -360.415)" fill="#fcbdb6"/>
        <path id="Trazado_835179" data-name="Trazado 835179" d="M156.556,553.824c1,13.4-.314,33.772.815,37.3.975,3.044,12.087,1.235,16.522.218,1.642-.376,3.63-.913,5.684-1.549,5.728-1.774,11.97-4.306,12.64-6.187a1.616,1.616,0,0,0,.062-.216,1.722,1.722,0,0,0-.012-.789c-.223-.958-1.084-1.995-1.185-4.368-.113-2.65-.1-5.769-.2-9.125-.005-.378-.01-.79-.051-1.166l0-.137c0-.073,0-.143-.005-.215-.1-3.741-.292-7.676-.519-11.577-.144-2.45-.311-4.877-.5-7.2a96.251,96.251,0,0,0-2.064-14.712,23.624,23.624,0,0,0-7.59-11.716l-2.114-1.813a12.221,12.221,0,0,1-7.67-1.022c-2.73-1.3-3.673-2.225-4.149-1.875-6.305,4.865-10.84,19.771-9.664,36.149" transform="translate(-116.522 -385.698)" fill="#ff7b69"/>
        <path id="Trazado_835180" data-name="Trazado 835180" d="M199.776,649.7c5.728-1.774,11.97-4.306,12.64-6.187a1.644,1.644,0,0,0,.062-.217c0-.262-.007-.526-.012-.788-.223-.958-1.084-2-1.185-4.368-.113-2.65-.1-5.77-.2-9.125-.005-.378-.01-.79-.051-1.166l0-.137c0-.072,0-.143-.005-.215l-23.158-29.5S172.3,630.411,199.776,649.7" transform="translate(-136.72 -445.605)" fill="#ff4b42"/>
        <path id="Trazado_835181" data-name="Trazado 835181" d="M219.181,488.429a45.721,45.721,0,0,1-.785,5.372c-5.187-1.676-7.539-6.361-8.325-8.349.085-.333.16-.674.228-1.025l3.571-.757Z" transform="translate(-156.537 -360.415)" fill="#f9a6a0"/>
        <path id="Trazado_835182" data-name="Trazado 835182" d="M218.94,455.279s-11.311-1.888-10.027-8.914.689-12,7.965-11.094,8.185,3.845,8.327,6.294-3.29,14.023-6.265,13.713" transform="translate(-155.6 -324.269)" fill="#fcbdb6"/>
        <path id="Trazado_835183" data-name="Trazado 835183" d="M345.746,680.127l28.249,0,7.676-24.819,1,.31-8.115,26.238H345.734Z" transform="translate(-257.63 -488.31)" fill="#1c3a3e"/>
        <path id="Trazado_835184" data-name="Trazado 835184" d="M316.392,740.208s9.258,2.441,12.73,2.185,6.36-1.907,6.8-2.769,1.355-2.391-1.009-2.109-5.591.785-5.691.331,1.927-.411,1.927-.411.613-.891-.159-.923-3.021-.643-3.857-.225-1.607,1.961-2.219,1.9-7.747-3.215-7.747-3.215Z" transform="translate(-235.765 -547.673)" fill="#fcbdb6"/>
        <path id="Trazado_835185" data-name="Trazado 835185" d="M187.72,550.412s1.094,37.324,9.291,41.565c4.044,2.093,22.307,7.846,27.789,8.828,0,0,1.475-.947,1.641-5.452,0,0-18.765-9.351-21.111-13.565-3.491-6.271,5.2-23.461.617-29.5s-13.065-9.351-18.227-1.88" transform="translate(-139.883 -406.939)" fill="#ff7b69"/>
        <path id="Trazado_835186" data-name="Trazado 835186" d="M203.1,435.44a5.35,5.35,0,0,1,1.358-3.791s-.518-2.417.438-2.815,1.155,1.633,1.593,1.315a9.765,9.765,0,0,0,3.227-4.064c.837-2.231,8.494.471,9.386.873s3.761-1.072,4.319-2.268a16.784,16.784,0,0,1-2.311-2.231c-.717-.956-5.737-7.41-12.749-5.578s-7.968,5.179-7.57,8.048-.564,9.549,2.308,10.511" transform="translate(-149.565 -310.403)" fill="#501506"/>
        <path id="Trazado_835187" data-name="Trazado 835187" d="M116.613,814.063h0a78.782,78.782,0,0,1-30.932-6.326l-6.346-2.709a8.732,8.732,0,0,0-12.16,8.031V825.17a2.149,2.149,0,0,0,2.143,2.143h47.3a2.149,2.149,0,0,0,2.143-2.143v-8.964a2.149,2.149,0,0,0-2.143-2.143" transform="translate(-50.056 -599.349)" fill="#8bc0cc"/>
        <path id="Trazado_835188" data-name="Trazado 835188" d="M871.9,806.952a113.62,113.62,0,0,1-26.986,1.505c-7.43-.583-11.772-2.875-12.221-5.493-.407-2.372,2.344-5.09,7.957-7.86-5.379,2.655-7.985,5.645-7.615,7.8.411,2.393,4.746,4.088,11.894,4.648,7.329.575,16.838-.047,26.775-1.753s19.109-4.289,25.827-7.275c6.552-2.912,10.074-5.955,9.663-8.348-.435-2.534-5.112-4.974-12.207-6.366-8.067-1.584-17.585-1.052-26.961.558-17.6,3.021-24.5,6.32-30.344,9.974,5.871-3.67,12.525-7.83,30.191-10.862a77.264,77.264,0,0,1,27.167-.038c7.244,1.422,12.032,3.98,12.495,6.676.449,2.617-3.054,5.726-9.865,8.753a110.735,110.735,0,0,1-25.769,8.079" transform="translate(-620.467 -582.914)" fill="#ff4b42"/>
        <path id="Trazado_835189" data-name="Trazado 835189" d="M1421.3,747.685s-.578,5.613-1.211,6.675-3.331,4.455-4.48,5.121.7-4.47.467-5.47-.946,1.824-1.452,1.891-.375-2.475-.394-3.4,2.464-3.208,3.339-5.177,3.73.361,3.73.361" transform="translate(-1053.839 -556.291)" fill="#fcbdb6"/>
        <path id="Trazado_835190" data-name="Trazado 835190" d="M1143.827,519.462l-1.29-2.434s.64-4.338-4.8-7.082a2.652,2.652,0,0,0-3.108.812c-1.033,1.493,1.968,1.222,1.807,3.775a4.694,4.694,0,0,0,2.737,4.882l1.394,1.615Z" transform="translate(-845.331 -379.843)" fill="#fcbdb6"/>
        <path id="Trazado_835191" data-name="Trazado 835191" d="M1207.439,522.587s-4.668,22.909-30.354,30.394c-8.018,2.337-26.233-24.06-26.233-24.06s.64-2.434,4.652-1.875c0,0,17.736,11.742,19.969,13.017,1.981,1.132,15.011-14.549,20.951-17.079a15.161,15.161,0,0,1,11.015-.4" transform="translate(-857.578 -388.787)" fill="#49adb7"/>
        <rect id="Rectángulo_385677" data-name="Rectángulo 385677" width="4.798" height="24.132" transform="translate(280.784 134.036) rotate(-81.268)" fill="#ff4b42"/>
        <path id="Trazado_835192" data-name="Trazado 835192" d="M1081.507,508.882l5.181,3.223.728-4.742Z" transform="translate(-805.904 -378.069)" fill="#1c3a3e"/>
        <path id="Trazado_835193" data-name="Trazado 835193" d="M1198.7,523.738l-.23,1.5a1.689,1.689,0,0,1-1.926,1.413l-1.1-.169.729-4.742,1.2.184a1.591,1.591,0,0,1,1.332,1.814" transform="translate(-890.803 -388.782)" fill="#1c3a3e"/>
        <path id="Trazado_835194" data-name="Trazado 835194" d="M1459.486,1086.145s3.187,2.908,2.565,4.974-3.5,3.444-3.886,5.969-1.943,3.9-3.342,3.9h-6.669s-1.03-1.777,1.457-2.313,3.425-3.5,3.269-6.258a48.521,48.521,0,0,1,.233-6.428l5.285-1.224Z" transform="translate(-1078.96 -808.333)" fill="#ff4b42"/>
        <path id="Trazado_835195" data-name="Trazado 835195" d="M1285.068,1112.2s.572,6.618-.827,7.307l-17.9-.036s0-2.066,2.875-2.526,7.927-2.143,8.782-5.893,7.072,1.148,7.072,1.148" transform="translate(-943.634 -826.863)" fill="#ff4b42"/>
        <path id="Trazado_835196" data-name="Trazado 835196" d="M1280.524,748.141s.944,11.6,2.054,25.545c1.509,18.942,3.323,42.21,3.5,46.618.31,7.654,1.556,19.9,1.556,19.9s2.952,2.909,8.86,1.683a197.594,197.594,0,0,0,6.768-35.97c.023-.3.046-.609.07-.914,1.4-18.825,3.574-58.466,3.574-58.466Z" transform="translate(-954.205 -556.292)" fill="#24555e"/>
        <path id="Trazado_835197" data-name="Trazado 835197" d="M1280.524,748.141s.944,11.6,2.054,25.545l20.686,32.228c.023-.3.046-.609.07-.914,1.4-18.825,3.574-58.466,3.574-58.466Z" transform="translate(-954.205 -556.292)" fill="#1c3a3e"/>
        <path id="Trazado_835198" data-name="Trazado 835198" d="M1297.446,736.092s17.02,42.013,28.212,61.756,14.689,25.253,14.689,25.253,6.411-2.525,6.994-4.247c0,0-4.28-38.116-11.774-47.407-4.235-5.25-9.21-21.006-9.443-26.516s-1.516-16.415-1.516-16.415Z" transform="translate(-966.815 -542.865)" fill="#24555e"/>
        <path id="Trazado_835199" data-name="Trazado 835199" d="M1332.234,463.374s-11.516,5.557-18.156,3.495a15.672,15.672,0,0,1,4.494-3.6c-.23-1.333-.409-2.489-.511-3.47a32.067,32.067,0,0,1-.281-3.545l4.443-3.495,4.213-3.344c-.332,9.4,5.8,13.954,5.8,13.954" transform="translate(-979.208 -334.892)" fill="#fcbdb6"/>
        <path id="Trazado_835200" data-name="Trazado 835200" d="M1310.5,555.861c.026.7-1.481,1.508-2.145,1.81a47.041,47.041,0,0,1-14.733,4.174c-6.154.628-13.431-.755-15.934-.7a1.041,1.041,0,0,1-.689-.277c-.179-.126-.306-7.543-.179-16.871,0-.377,0-.755.025-1.132v-.126c.051-3.646.179-7.467.357-11.289.358-8.4,1.021-16.494,2.145-20.969a22.734,22.734,0,0,1,7.2-11.314l2.3-2.012a11.041,11.041,0,0,0,7.15-.854c2.656-1.283,5.515-2.666,5.975-2.314,3.473,2.54,5.822,8.247,7.073,15.539a80.8,80.8,0,0,1,1.047,13.828c0,1.81-.051,3.671-.153,5.507a173.64,173.64,0,0,0,.358,23.609c.1,1.459.179,2.59.2,3.395" transform="translate(-951.406 -368.058)" fill="#8bc0cc"/>
        <path id="Trazado_835201" data-name="Trazado 835201" d="M1349.626,601c-40.327-.081-7.438-43.759-7.438-43.759l6.533-2.122a127.083,127.083,0,0,1,.757,14.774c0,1.935-.037,3.922-.111,5.883-.443,10.637,0,19.878.258,25.224" transform="translate(-990.736 -413.658)" fill="#49adb7"/>
        <path id="Trazado_835202" data-name="Trazado 835202" d="M1337.341,462.793s-2.911,5.305-8.452,6.789a32.067,32.067,0,0,1-.281-3.545l4.443-3.495Z" transform="translate(-990.036 -344.67)" fill="#f9a6a0"/>
        <path id="Trazado_835203" data-name="Trazado 835203" d="M1314.389,423.323s10.986,1.8,12.017-4.956,3.144-11.071-3.827-12.5-8.73.942-9.631,3.114-1.39,13.7,1.441,14.346" transform="translate(-977.843 -302.11)" fill="#fcbdb6"/>
        <path id="Trazado_835204" data-name="Trazado 835204" d="M1320.018,393.057c.1-.114.33-.206.842-.234a2.078,2.078,0,0,0-.956-.27,2.576,2.576,0,0,0-1.711-2.278,1.535,1.535,0,0,1,.744,1.108c-1.419-1.457-4.459-2.518-12.879-1.854-11.1.876-7.439,7.98-6,8.827s5.053-1.475,7.729-1.262,3.185,4.08,4.093,4.61.551-.407,1.779-.963,1.345,1.481.991,2.8,1.333,3.069,1.333,3.069l1.706-1.837c1.706-1.837,3.314-9.618,2.538-11.277-.068-.147-.136-.3-.206-.444" transform="translate(-967.461 -290.112)" fill="#501506"/>
        <path id="Trazado_835205" data-name="Trazado 835205" d="M1360.266,493.928s6.951,3.292,10.284,8.352c5.17,7.849,11.162,36.456,11.273,39.1s-4.374,21.351-4.374,21.351-4.548-.3-5.721-2.6c0,0,.909-19.215.333-20.451s-18.961-25.776-16.894-31.013,5.1-14.749,5.1-14.749" transform="translate(-1009.705 -368.058)" fill="#8bc0cc"/>
        <path id="Trazado_835206" data-name="Trazado 835206" d="M1156.27,524.9s.378-1.493-.658-2.164-1.989-2.5-2.426-2.249c-.9.512.5,2.1.239,4.091-.09.7,1.53,2.518,2.844.322" transform="translate(-859.088 -387.833)" fill="#fcbdb6"/>
        <path id="Trazado_835207" data-name="Trazado 835207" d="M.356,1148.583h398.7c.2,0,.356-.241.356-.536s-.16-.536-.356-.536H.356c-.2,0-.356.242-.356.536s.16.536.356.536" transform="translate(0 -855.086)" fill="#1c3a3e"/>
      </g>
    </g>
  </g>
</svg>
