<svg xmlns="http://www.w3.org/2000/svg" xmlns:xlink="http://www.w3.org/1999/xlink" width="610" height="430" viewBox="0 0 610 430">
  <defs>
    <clipPath id="clip-path">
      <rect id="Rectángulo_384855" data-name="Rectángulo 384855" width="295" height="407" transform="translate(390 1552)" fill="#fff" stroke="#707070" stroke-width="1"/>
    </clipPath>
    <clipPath id="clip-path-2">
      <rect id="Rectángulo_384854" data-name="Rectángulo 384854" width="296" height="632.406" fill="none"/>
    </clipPath>
    <clipPath id="clip-path-4">
      <rect id="Rectángulo_384849" data-name="Rectángulo 384849" width="4.592" height="4.655" fill="none"/>
    </clipPath>
    <clipPath id="clip-path-5">
      <rect id="Rectángulo_384850" data-name="Rectángulo 384850" width="33.028" height="25.316" fill="none"/>
    </clipPath>
    <clipPath id="clip-path-6">
      <rect id="Rectángulo_384852" data-name="Rectángulo 384852" width="4.332" height="88.73" fill="none"/>
    </clipPath>
  </defs>
  <g id="Grupo_1084191" data-name="Grupo 1084191" transform="translate(-495 -11169)">
    <path id="Trazado_835295" data-name="Trazado 835295" d="M0,0H610V430H0Z" transform="translate(495 11169)" fill="#fff"/>
    <path id="Trazado_834958" data-name="Trazado 834958" d="M336.929,272a75.806,75.806,0,0,1-68.547-43.6,74.531,74.531,0,0,1-66.667,45.553v.06a62.627,62.627,0,0,0-.87,125.248c.291,0,.578.022.87.022,1.144,0,2.278-.035,3.407-.1a199.713,199.713,0,0,0,189-153.367A75.545,75.545,0,0,1,336.929,272" transform="translate(705.436 11183.716)" fill="#d2e1f1"/>
    <path id="Trazado_834959" data-name="Trazado 834959" d="M245.176,339.191a46.1,46.1,0,1,1-46.1-46.095,46.1,46.1,0,0,1,46.1,46.095" transform="translate(705.479 11183.919)" fill="#fefefe"/>
    <path id="Trazado_834960" data-name="Trazado 834960" d="M264.256,199.007a65.191,65.191,0,1,1-65.191-65.191,65.19,65.19,0,0,1,65.191,65.191" transform="translate(705.42 11183.419)" fill="#f1ece6"/>
    <path id="Trazado_834961" data-name="Trazado 834961" d="M126.434,336.936a75.8,75.8,0,0,1,44-68.729,74.617,74.617,0,0,1-45.167-68.636A62.635,62.635,0,0,0,0,199.571,199.784,199.784,0,0,0,152.269,393.826a75.541,75.541,0,0,1-25.835-56.891" transform="translate(705 11183.43)" fill="#f9bcab"/>
    <path id="Trazado_834962" data-name="Trazado 834962" d="M108.194,196.527a46.1,46.1,0,1,1-46.1-46.1,46.1,46.1,0,0,1,46.1,46.1" transform="translate(705.05 11183.471)" fill="#fefefe"/>
    <path id="Trazado_834963" data-name="Trazado 834963" d="M399.161,193.278A199.85,199.85,0,0,0,251.233,6.808a75.648,75.648,0,0,1-20.884,125.207c1.19.546,2.369,1.109,3.525,1.713a74.532,74.532,0,0,1,40.049,63.249h.085a62.625,62.625,0,0,0,125.238,1.231c.008-.411.031-.819.031-1.231,0-1.243-.046-2.475-.117-3.7" transform="translate(705.722 11183.021)" fill="#cadeb4"/>
    <path id="Trazado_834964" data-name="Trazado 834964" d="M383.509,199.519a46.1,46.1,0,1,1-46.1-46.1,46.1,46.1,0,0,1,46.1,46.1" transform="translate(705.913 11183.48)" fill="#fefefe"/>
    <path id="Trazado_834965" data-name="Trazado 834965" d="M202.425.04l-.294-.007c-.437-.009-.87-.033-1.308-.033-.112,0-.223.008-.334.008-.171,0-.339-.008-.51-.008A199.729,199.729,0,0,0,6.487,149.236a75.648,75.648,0,0,1,125.336,20.106,74.667,74.667,0,0,1,68.157-44.073c.722,0,1.434.038,2.152.059v-.092A62.615,62.615,0,0,0,202.425.04" transform="translate(705.021 11183)" fill="#c1cdf5"/>
    <path id="Trazado_834966" data-name="Trazado 834966" d="M249.447,61.564a46.1,46.1,0,1,1-46.1-46.1,46.1,46.1,0,0,1,46.1,46.1" transform="translate(705.493 11183.049)" fill="#fefefe"/>
    <path id="Trazado_835296" data-name="Trazado 835296" d="M0,0H400V400H0Z" transform="translate(705 11183)" fill="none"/>
    <path id="Trazado_835297" data-name="Trazado 835297" d="M15.067,12.667a4.673,4.673,0,0,1-.721,2.36,4.35,4.35,0,0,1-1.85,1.586,6.3,6.3,0,0,1-2.72.563A5.025,5.025,0,0,1,5.8,15.532a6.786,6.786,0,0,1-1.45-4.641v-.633a7.746,7.746,0,0,1,.655-3.292,4.961,4.961,0,0,1,1.885-2.18,5.26,5.26,0,0,1,2.848-.769,5.516,5.516,0,0,1,3.744,1.226,4.844,4.844,0,0,1,1.608,3.379H12.017a2.292,2.292,0,0,0-.589-1.679,2.422,2.422,0,0,0-1.687-.51A1.843,1.843,0,0,0,8.053,7.3a5.536,5.536,0,0,0-.562,2.751v.905A6.125,6.125,0,0,0,8,13.88a1.882,1.882,0,0,0,1.771.879,2.369,2.369,0,0,0,1.626-.5,2.126,2.126,0,0,0,.6-1.591ZM19.514,17H16.543V7.49h2.971ZM16.368,5.038A1.322,1.322,0,0,1,16.825,4,1.943,1.943,0,0,1,19.2,4a1.322,1.322,0,0,1,.457,1.037A1.322,1.322,0,0,1,19.2,6.075a1.943,1.943,0,0,1-2.373,0A1.322,1.322,0,0,1,16.368,5.038Zm8.991,9.853a1.317,1.317,0,0,0,.967-.338,1.241,1.241,0,0,0,.334-.945h2.777a3.288,3.288,0,0,1-1.121,2.566,4.168,4.168,0,0,1-2.887,1,4.22,4.22,0,0,1-3.27-1.3,5.125,5.125,0,0,1-1.2-3.6v-.123A5.792,5.792,0,0,1,21.5,9.6a3.872,3.872,0,0,1,1.534-1.7A4.573,4.573,0,0,1,25.4,7.314a4.116,4.116,0,0,1,2.944,1.028,3.647,3.647,0,0,1,1.09,2.786H26.66A1.626,1.626,0,0,0,26.3,10a1.244,1.244,0,0,0-.967-.4q-1.151,0-1.345,1.468a10.357,10.357,0,0,0-.062,1.283,4.068,4.068,0,0,0,.343,1.986A1.187,1.187,0,0,0,25.359,14.891ZM33.814,17H30.843V3.5h2.971Zm1.45-4.843a5.613,5.613,0,0,1,.554-2.536,3.96,3.96,0,0,1,1.591-1.709,4.791,4.791,0,0,1,2.435-.6,4.373,4.373,0,0,1,3.366,1.323,5.076,5.076,0,0,1,1.23,3.6v.105a4.925,4.925,0,0,1-1.235,3.529,4.384,4.384,0,0,1-3.344,1.305A4.434,4.434,0,0,1,36.6,15.958a4.761,4.761,0,0,1-1.327-3.3Zm2.962.185a3.538,3.538,0,0,0,.413,1.934,1.376,1.376,0,0,0,1.222.615q1.582,0,1.617-2.435v-.3q0-2.558-1.635-2.558-1.485,0-1.608,2.206Zm15.223.316V17H50.364V4.2H55.47a5.948,5.948,0,0,1,2.6.541,4.074,4.074,0,0,1,1.749,1.538,4.2,4.2,0,0,1,.62,2.263,3.7,3.7,0,0,1-1.34,2.993,5.561,5.561,0,0,1-3.678,1.121Zm0-2.382H55.47a1.906,1.906,0,0,0,1.367-.448,1.665,1.665,0,0,0,.47-1.266,2.059,2.059,0,0,0-.483-1.433,1.712,1.712,0,0,0-1.318-.545H53.449ZM72.776,17H69.708V11.656H65.165V17H62.08V4.2h3.085v5.08h4.544V4.2h3.067Zm6.917-3.48L82.242,4.2h3.445L81.38,17H78.005L73.734,4.2h3.419Zm13.535,1.09H89L88.262,17h-3.3L89.66,4.2h2.9L97.289,17H93.975Zm-3.489-2.382H92.49L91.11,7.789Z" transform="translate(855 11371)" fill="#12263f"/>
    <path id="Trazado_835298" data-name="Trazado 835298" d="M3,11.269V16H1.4V3.914H5.86A4.478,4.478,0,0,1,8.969,4.927a3.433,3.433,0,0,1,1.125,2.681,3.388,3.388,0,0,1-1.1,2.71,4.678,4.678,0,0,1-3.15.95Zm0-1.3H5.86a2.863,2.863,0,0,0,1.959-.6A2.2,2.2,0,0,0,8.5,7.62a2.277,2.277,0,0,0-.681-1.73,2.682,2.682,0,0,0-1.868-.674H3ZM13.555,16H12.02V3.25h1.536Zm8,0a3.226,3.226,0,0,1-.216-.946,3.426,3.426,0,0,1-2.557,1.112,3.17,3.17,0,0,1-2.179-.751,2.43,2.43,0,0,1-.851-1.905,2.539,2.539,0,0,1,1.067-2.179,5.029,5.029,0,0,1,3-.776h1.494V9.849a1.725,1.725,0,0,0-.481-1.282,1.935,1.935,0,0,0-1.419-.477,2.239,2.239,0,0,0-1.378.415,1.223,1.223,0,0,0-.556,1H15.938a2.119,2.119,0,0,1,.477-1.3,3.258,3.258,0,0,1,1.295-.992,4.356,4.356,0,0,1,1.8-.365,3.551,3.551,0,0,1,2.432.776,2.8,2.8,0,0,1,.913,2.137V13.9a5.054,5.054,0,0,0,.315,1.967V16Zm-2.548-1.17a2.7,2.7,0,0,0,1.37-.374,2.259,2.259,0,0,0,.938-.971V11.642h-1.2q-2.822,0-2.822,1.652a1.4,1.4,0,0,0,.481,1.129A1.85,1.85,0,0,0,19.009,14.83Zm7.7-7.811.05,1.129a3.273,3.273,0,0,1,2.689-1.295q2.847,0,2.872,3.212V16H30.788V10.057a2.068,2.068,0,0,0-.444-1.436,1.78,1.78,0,0,0-1.357-.465,2.216,2.216,0,0,0-1.312.4,2.706,2.706,0,0,0-.88,1.046V16H25.259V7.019Zm11.654,9.147a3.924,3.924,0,0,1-2.972-1.2,4.452,4.452,0,0,1-1.146-3.208v-.282a5.39,5.39,0,0,1,.51-2.386,3.982,3.982,0,0,1,1.428-1.644,3.59,3.59,0,0,1,1.988-.594A3.364,3.364,0,0,1,40.9,8.006a5,5,0,0,1,.971,3.3v.639H35.785a3.193,3.193,0,0,0,.776,2.146,2.44,2.44,0,0,0,1.888.818,2.675,2.675,0,0,0,1.378-.332,3.462,3.462,0,0,0,.988-.88l.938.73A3.772,3.772,0,0,1,38.366,16.166Zm-.191-8.052a2.048,2.048,0,0,0-1.561.677,3.288,3.288,0,0,0-.78,1.9h4.5v-.116A2.925,2.925,0,0,0,39.7,8.758,1.928,1.928,0,0,0,38.175,8.114ZM49.19,16a3.226,3.226,0,0,1-.216-.946,3.426,3.426,0,0,1-2.557,1.112,3.17,3.17,0,0,1-2.179-.751,2.43,2.43,0,0,1-.851-1.905,2.539,2.539,0,0,1,1.067-2.179,5.029,5.029,0,0,1,3-.776H48.95V9.849a1.725,1.725,0,0,0-.481-1.282,1.935,1.935,0,0,0-1.419-.477,2.239,2.239,0,0,0-1.378.415,1.223,1.223,0,0,0-.556,1H43.571a2.119,2.119,0,0,1,.477-1.3,3.258,3.258,0,0,1,1.295-.992,4.356,4.356,0,0,1,1.8-.365,3.551,3.551,0,0,1,2.432.776,2.8,2.8,0,0,1,.913,2.137V13.9a5.054,5.054,0,0,0,.315,1.967V16Zm-2.548-1.17a2.7,2.7,0,0,0,1.37-.374,2.259,2.259,0,0,0,.938-.971V11.642h-1.2q-2.822,0-2.822,1.652a1.4,1.4,0,0,0,.481,1.129A1.85,1.85,0,0,0,46.642,14.83ZM57.234,8.4a4.6,4.6,0,0,0-.755-.058,2.024,2.024,0,0,0-2.05,1.287V16H52.893V7.019h1.494l.025,1.038a2.391,2.391,0,0,1,2.142-1.2,1.569,1.569,0,0,1,.681.116Z" transform="translate(790 11268)" fill="#12263f"/>
    <path id="Trazado_835299" data-name="Trazado 835299" d="M10.691,16h-1.6V10.414H3V16H1.4V3.914H3v5.2H9.089v-5.2h1.6Zm8.135,0a3.226,3.226,0,0,1-.216-.946,3.426,3.426,0,0,1-2.557,1.112,3.17,3.17,0,0,1-2.179-.751,2.43,2.43,0,0,1-.851-1.905,2.539,2.539,0,0,1,1.067-2.179,5.029,5.029,0,0,1,3-.776h1.494V9.849A1.725,1.725,0,0,0,18.1,8.567a1.935,1.935,0,0,0-1.419-.477,2.239,2.239,0,0,0-1.378.415,1.223,1.223,0,0,0-.556,1H13.207a2.119,2.119,0,0,1,.477-1.3,3.258,3.258,0,0,1,1.295-.992,4.356,4.356,0,0,1,1.8-.365,3.551,3.551,0,0,1,2.432.776,2.8,2.8,0,0,1,.913,2.137V13.9a5.054,5.054,0,0,0,.315,1.967V16Zm-2.548-1.17a2.7,2.7,0,0,0,1.37-.374,2.259,2.259,0,0,0,.938-.971V11.642h-1.2q-2.822,0-2.822,1.652a1.4,1.4,0,0,0,.481,1.129A1.85,1.85,0,0,0,16.278,14.83Zm9.853.083a2.212,2.212,0,0,0,1.436-.5,1.752,1.752,0,0,0,.681-1.245H29.7a2.785,2.785,0,0,1-.531,1.469,3.5,3.5,0,0,1-1.307,1.112,3.772,3.772,0,0,1-1.731.415,3.7,3.7,0,0,1-2.918-1.224,4.877,4.877,0,0,1-1.083-3.349v-.257A5.407,5.407,0,0,1,22.611,9a3.667,3.667,0,0,1,1.382-1.585,3.926,3.926,0,0,1,2.129-.564,3.6,3.6,0,0,1,2.511.9A3.234,3.234,0,0,1,29.7,10.106H28.248a2.116,2.116,0,0,0-.66-1.432,2.053,2.053,0,0,0-1.465-.56,2.149,2.149,0,0,0-1.814.843,3.957,3.957,0,0,0-.643,2.436v.291a3.878,3.878,0,0,0,.639,2.391A2.16,2.16,0,0,0,26.131,14.913Zm9.023,1.253a3.924,3.924,0,0,1-2.972-1.2,4.452,4.452,0,0,1-1.146-3.208v-.282a5.39,5.39,0,0,1,.51-2.386,3.982,3.982,0,0,1,1.428-1.644,3.59,3.59,0,0,1,1.988-.594,3.364,3.364,0,0,1,2.723,1.154,5,5,0,0,1,.971,3.3v.639H32.572a3.193,3.193,0,0,0,.776,2.146,2.44,2.44,0,0,0,1.888.818,2.675,2.675,0,0,0,1.378-.332,3.462,3.462,0,0,0,.988-.88l.938.73A3.772,3.772,0,0,1,35.154,16.166Zm-.191-8.052a2.048,2.048,0,0,0-1.561.677,3.288,3.288,0,0,0-.78,1.9h4.5v-.116a2.925,2.925,0,0,0-.631-1.814A1.928,1.928,0,0,0,34.963,8.114Zm9.812.282a4.6,4.6,0,0,0-.755-.058,2.024,2.024,0,0,0-2.05,1.287V16H40.433V7.019h1.494l.025,1.038a2.391,2.391,0,0,1,2.142-1.2,1.569,1.569,0,0,1,.681.116Z" transform="translate(997 11291)" fill="#12263f"/>
    <path id="Trazado_835300" data-name="Trazado 835300" d="M5.4,13.883,8.857,3.914H10.6L6.118,16H4.707L.232,3.914H1.967Zm9.936,2.283a3.924,3.924,0,0,1-2.972-1.2,4.452,4.452,0,0,1-1.146-3.208v-.282a5.39,5.39,0,0,1,.51-2.386,3.982,3.982,0,0,1,1.428-1.644,3.59,3.59,0,0,1,1.988-.594,3.364,3.364,0,0,1,2.723,1.154,5,5,0,0,1,.971,3.3v.639H12.758a3.193,3.193,0,0,0,.776,2.146,2.44,2.44,0,0,0,1.888.818,2.675,2.675,0,0,0,1.378-.332,3.462,3.462,0,0,0,.988-.88l.938.73A3.772,3.772,0,0,1,15.34,16.166Zm-.191-8.052a2.048,2.048,0,0,0-1.561.677,3.288,3.288,0,0,0-.78,1.9h4.5v-.116a2.925,2.925,0,0,0-.631-1.814A1.928,1.928,0,0,0,15.149,8.114ZM24.96,8.4a4.6,4.6,0,0,0-.755-.058,2.024,2.024,0,0,0-2.05,1.287V16H20.619V7.019h1.494l.025,1.038a2.391,2.391,0,0,1,2.142-1.2,1.569,1.569,0,0,1,.681.116ZM28.04,16H26.5V7.019H28.04ZM26.38,4.636a.917.917,0,0,1,.228-.631.857.857,0,0,1,.677-.257.87.87,0,0,1,.681.257.907.907,0,0,1,.232.631.877.877,0,0,1-.232.623.886.886,0,0,1-.681.249.872.872,0,0,1-.677-.249A.886.886,0,0,1,26.38,4.636ZM31.012,16V8.206H29.592V7.019h1.419V6.255a3.12,3.12,0,0,1,.859-2.341A3.332,3.332,0,0,1,34.3,3.076a7.311,7.311,0,0,1,2.349.506l-.257,1.295a5.321,5.321,0,0,0-1.976-.415,1.933,1.933,0,0,0-1.424.444,1.831,1.831,0,0,0-.436,1.332v.78H34.39V8.206H32.556V16Zm6.4,0H35.868V7.019h1.544Zm6.1-1.087a2.212,2.212,0,0,0,1.436-.5,1.752,1.752,0,0,0,.681-1.245h1.453a2.785,2.785,0,0,1-.531,1.469,3.5,3.5,0,0,1-1.307,1.112,3.772,3.772,0,0,1-1.731.415,3.7,3.7,0,0,1-2.918-1.224,4.877,4.877,0,0,1-1.083-3.349v-.257A5.407,5.407,0,0,1,39.993,9a3.667,3.667,0,0,1,1.382-1.585A3.926,3.926,0,0,1,43.5,6.853a3.6,3.6,0,0,1,2.511.9,3.234,3.234,0,0,1,1.067,2.349H45.629a2.116,2.116,0,0,0-.66-1.432,2.053,2.053,0,0,0-1.465-.56,2.149,2.149,0,0,0-1.814.843,3.957,3.957,0,0,0-.643,2.436v.291a3.878,3.878,0,0,0,.639,2.391A2.16,2.16,0,0,0,43.513,14.913ZM54.354,16a3.226,3.226,0,0,1-.216-.946,3.426,3.426,0,0,1-2.557,1.112,3.17,3.17,0,0,1-2.179-.751,2.43,2.43,0,0,1-.851-1.905,2.539,2.539,0,0,1,1.067-2.179,5.029,5.029,0,0,1,3-.776h1.494V9.849a1.725,1.725,0,0,0-.481-1.282,1.935,1.935,0,0,0-1.419-.477,2.239,2.239,0,0,0-1.378.415,1.223,1.223,0,0,0-.556,1H48.734a2.119,2.119,0,0,1,.477-1.3,3.258,3.258,0,0,1,1.295-.992,4.356,4.356,0,0,1,1.8-.365,3.551,3.551,0,0,1,2.432.776,2.8,2.8,0,0,1,.913,2.137V13.9a5.054,5.054,0,0,0,.315,1.967V16Zm-2.548-1.17a2.7,2.7,0,0,0,1.37-.374,2.259,2.259,0,0,0,.938-.971V11.642h-1.2q-2.822,0-2.822,1.652a1.4,1.4,0,0,0,.481,1.129A1.85,1.85,0,0,0,51.805,14.83ZM62.4,8.4a4.6,4.6,0,0,0-.755-.058,2.024,2.024,0,0,0-2.05,1.287V16H58.056V7.019H59.55l.025,1.038a2.391,2.391,0,0,1,2.142-1.2,1.569,1.569,0,0,1,.681.116Z" transform="translate(967 11490)" fill="#12263f"/>
    <path id="Trazado_835301" data-name="Trazado 835301" d="M8.077,12.837H3.013L1.876,16H.232L4.848,3.914H6.242L10.866,16H9.23Zm-4.582-1.3H7.6L5.545,5.881Zm12.36,3.378a2.212,2.212,0,0,0,1.436-.5,1.752,1.752,0,0,0,.681-1.245h1.453a2.785,2.785,0,0,1-.531,1.469,3.5,3.5,0,0,1-1.307,1.112,3.772,3.772,0,0,1-1.731.415,3.7,3.7,0,0,1-2.918-1.224,4.877,4.877,0,0,1-1.083-3.349v-.257A5.407,5.407,0,0,1,12.335,9a3.667,3.667,0,0,1,1.382-1.585,3.926,3.926,0,0,1,2.129-.564,3.6,3.6,0,0,1,2.511.9,3.234,3.234,0,0,1,1.067,2.349H17.971a2.116,2.116,0,0,0-.66-1.432,2.053,2.053,0,0,0-1.465-.56,2.149,2.149,0,0,0-1.814.843,3.957,3.957,0,0,0-.643,2.436v.291a3.878,3.878,0,0,0,.639,2.391A2.16,2.16,0,0,0,15.854,14.913ZM23.234,4.844V7.019h1.677V8.206H23.234v5.577a1.247,1.247,0,0,0,.224.81.943.943,0,0,0,.764.27,3.718,3.718,0,0,0,.73-.1V16a4.478,4.478,0,0,1-1.179.165,1.912,1.912,0,0,1-1.552-.623,2.675,2.675,0,0,1-.523-1.768V8.206H20.063V7.019H21.7V4.844Zm9.015,10.268a3.262,3.262,0,0,1-2.631,1.054,2.792,2.792,0,0,1-2.187-.834,3.611,3.611,0,0,1-.76-2.469V7.019h1.536v5.8q0,2.042,1.66,2.042a2.3,2.3,0,0,0,2.341-1.312V7.019h1.536V16H32.282ZM41.62,16a3.226,3.226,0,0,1-.216-.946,3.426,3.426,0,0,1-2.557,1.112,3.17,3.17,0,0,1-2.179-.751,2.43,2.43,0,0,1-.851-1.905,2.539,2.539,0,0,1,1.067-2.179,5.029,5.029,0,0,1,3-.776h1.494V9.849A1.725,1.725,0,0,0,40.9,8.567a1.935,1.935,0,0,0-1.419-.477A2.239,2.239,0,0,0,38.1,8.5a1.223,1.223,0,0,0-.556,1H36a2.119,2.119,0,0,1,.477-1.3,3.258,3.258,0,0,1,1.295-.992,4.356,4.356,0,0,1,1.8-.365A3.551,3.551,0,0,1,42,7.629a2.8,2.8,0,0,1,.913,2.137V13.9a5.054,5.054,0,0,0,.315,1.967V16Zm-2.548-1.17a2.7,2.7,0,0,0,1.37-.374,2.259,2.259,0,0,0,.938-.971V11.642h-1.2q-2.822,0-2.822,1.652a1.4,1.4,0,0,0,.481,1.129A1.85,1.85,0,0,0,39.072,14.83ZM49.664,8.4a4.6,4.6,0,0,0-.755-.058,2.024,2.024,0,0,0-2.05,1.287V16H45.322V7.019h1.494l.025,1.038a2.391,2.391,0,0,1,2.142-1.2,1.569,1.569,0,0,1,.681.116Z" transform="translate(769 11465)" fill="#12263f"/>
    <g id="Grupo_1083984" data-name="Grupo 1083984" transform="translate(-359.259 9429.416)">
      <g id="Grupo_1082828" data-name="Grupo 1082828" transform="translate(1090.426 1920)">
        <path id="Trazado_832293" data-name="Trazado 832293" d="M233.247,0a25.1,25.1,0,0,1,3.227.995,10.594,10.594,0,0,1,6.034,11.717c-.01.063-.015.126-.045.392.307-.08.654-.061.768-.215,2.178-2.962,5.133-3.519,8.467-2.663,1.508.388,2.948,1.041,4.165,1.481.695-.578,1.346-1.2,2.081-1.7a5.315,5.315,0,0,1,1.908-.923c1.439-.268,2.246.363,2.977,2.1.264-.242.511-.481.771-.7a5.306,5.306,0,0,1,3.558-1.449,2.642,2.642,0,0,1,2.9,2.568c.024.188.041.376.053.483a17.916,17.916,0,0,1,2.575-1.066,2.5,2.5,0,0,1,3.105,2.348,6.51,6.51,0,0,1-.939,3.5,25.145,25.145,0,0,1-3.6,5.059,1.3,1.3,0,0,0-.309.855c.145,2.114.347,4.224.5,6.337a.778.778,0,0,0,.62.821,4.4,4.4,0,0,1,.09,8.308.763.763,0,0,0-.618.874,10.133,10.133,0,0,1-2.233,6.956c-.688.805-1.52,1.488-2.275,2.215.65.609,1.389,1.247,2.063,1.949a.959.959,0,0,1-.25,1.628c-.5.222-.851-.012-1.23-.333-.813-.686-1.645-1.355-2.52-1.957a1.684,1.684,0,0,0-1.036-.135c-.823.083-1.639.232-2.525.365.078.184.167.39.252.6a6.408,6.408,0,0,1-.056,5.157c-.342.784-.7,1-1.492.742-1.486-.472-2.947-1.018-4.414-1.531v6.656c2.255-1.966,4.927-1.142,7.493-1.388,0-1.055-.011-2.1,0-3.139.01-.678.378-1.12.94-1.127a.919.919,0,0,1,1.006.832,7.211,7.211,0,0,1,.047.819h4.357c-.1-.83-.18-1.66-.3-2.484-.076-.5-.118-.965.364-1.291a.953.953,0,0,1,1.492.6,10.231,10.231,0,0,1,.33,2.194c.045,2.317.035,4.634.022,6.952a3.633,3.633,0,0,1-3.817,3.776q-9.968.009-19.937,0c-1.99,0-3.979.005-5.968,0a3.677,3.677,0,0,1-3.867-3.874c-.007-2.055-.011-4.11,0-6.165a10.193,10.193,0,0,1,4.41-8.63c.085-.061.163-.133.29-.237-.13-.1-.225-.176-.324-.246a9.67,9.67,0,0,1-4.274-7.8,2.083,2.083,0,0,1-.009-.262,1.737,1.737,0,0,0-1.206-2,4.224,4.224,0,0,1-1.673-6.148,1.906,1.906,0,0,0,.173-2c-1.789,0-3.557-.071-5.316.016a3.567,3.567,0,0,1-3.515-5.162.325.325,0,0,0,.008-.127c-2.363-1.686-2.781-3.368-1.358-5.629l-.5-.479A10.659,10.659,0,0,1,223.328,4.5c.466-.646,1.048-.806,1.551-.426a1.014,1.014,0,0,1,.09,1.511,8.469,8.469,0,0,0-1.62,4.567,8.5,8.5,0,0,0,3.293,7.353.859.859,0,0,0,.449.237c1.284.019,2.568.011,3.9.011V14.876a3.842,3.842,0,0,1-2.639-2.743,3.683,3.683,0,0,1-.1-.971.875.875,0,0,1,.83-.93.911.911,0,0,1,1.075.738,5.09,5.09,0,0,1,.079.517,1.823,1.823,0,0,0,3.562.154c.043-.168.061-.344.092-.516a.953.953,0,0,1,1.071-.9,1,1,0,0,1,.88,1.17,3.669,3.669,0,0,1-2.221,3.232.836.836,0,0,0-.62.952c.046.67.011,1.345.011,2.108a21.32,21.32,0,0,1,2.984.03,2.455,2.455,0,0,0,2.267-.957A8.705,8.705,0,0,0,228.078,2.917c-.156.079-.3.173-.463.245a.969.969,0,0,1-1.351-.4.9.9,0,0,1,.449-1.32c1.2-.492,2.448-.884,3.677-1.313.162-.057.331-.089.5-.133Zm35.86,24.167c-7.508,6.237-15.339,6.119-23.5,1.793-.217.5-.437,1.1-.725,1.658a6.815,6.815,0,0,1-4.571,3.907c-.161.037-.348.405-.347.619.01,2.643.011,5.287.1,7.928a7.723,7.723,0,0,0,7.731,7.655q7.009.109,14.022,0a7.654,7.654,0,0,0,7.657-7.235,90.407,90.407,0,0,0-.079-12.9c-.077-1.129-.186-2.256-.283-3.421M254.886,13.556a12.409,12.409,0,0,0-5.685-1.711,4.9,4.9,0,0,0-4.567,2.554c-.654,1.107-.8,1.147-2.053.7-.236-.084-.486-.13-.73-.193l.112.169-3,3.965c1.2,1.621,1.067,4.1-1.5,5.492a3.333,3.333,0,0,1,.068,3.256,2.191,2.191,0,0,0-.059,2.065,9.978,9.978,0,0,1,1.391-.182,4.1,4.1,0,0,0,3.848-2.289,18,18,0,0,0,1.3-3.332c.353-1.155.995-1.345,1.964-.612a14.11,14.11,0,0,0,3.29,2.1c6.586,2.508,12.8,2.163,18.281-2.768a23.443,23.443,0,0,0,5.776-7.305,5.6,5.6,0,0,0,.473-1.622c.114-.83-.33-1.152-1.111-.823a4.481,4.481,0,0,0-1.281.775c-.853.78-1.66,1.61-2.458,2.447a1.027,1.027,0,0,1-1.339.309,1,1,0,0,1-.356-1.369,6.3,6.3,0,0,0,.3-.726,20.224,20.224,0,0,0,.54-2.287c.128-.908-.2-1.207-1.1-1.163a2.964,2.964,0,0,0-2.226,1.115,34.77,34.77,0,0,0-2.219,3.292c-.373.6-.751.877-1.3.7-.522-.165-.7-.643-.6-1.339a24.6,24.6,0,0,0,.262-2.729c.009-.33-.183-.891-.392-.948a1.392,1.392,0,0,0-1.118.279,18.3,18.3,0,0,0-1.834,1.951c-.9,1.071-1.683,2.247-2.655,3.243a12.8,12.8,0,0,1-2.506,1.848.909.909,0,0,1-1.276-.447.958.958,0,0,1,.49-1.319,9.354,9.354,0,0,0,3.276-3.1m-1.1,41.2c-1.528.532-3.015,1.077-4.521,1.561a.937.937,0,0,1-1.354-.651,11.441,11.441,0,0,1-.607-2.391,6.12,6.12,0,0,1,.746-3.478c-.88-.13-1.7-.275-2.52-.359a2.01,2.01,0,0,0-1.044.115,8.258,8.258,0,0,0-4.513,7.86h4.274c.011-.115.02-.181.023-.246.025-.955.344-1.408.991-1.407s.98.473.981,1.412,0,1.906,0,2.866c2.594.234,5.278-.581,7.544,1.407Zm-.1,10.439a3.569,3.569,0,0,0-3.566-3.14c-1.53-.013-3.06,0-4.589,0-.918,0-1.25-.347-1.258-1.275,0-.43,0-.86,0-1.289h-4.322c0,1.254,0,2.454,0,3.654,0,1.409.639,2.053,2.03,2.054q4.885,0,9.769,0Zm11.6-5.743c0,.45,0,.839,0,1.226,0,1.069-.3,1.37-1.349,1.372-1.484,0-2.974-.071-4.451.031a5.108,5.108,0,0,0-2.134.674,3.06,3.06,0,0,0-1.464,2.437c4.079,0,8.071.008,12.064-.007a1.523,1.523,0,0,0,1.588-1.3c.08-1.468.024-2.944.024-4.436Zm-33.213-39.79c-1.333,0-2.666-.006-4,0a1.56,1.56,0,0,0-1.717,1.5,1.536,1.536,0,0,0,1.635,1.583q4.03.031,8.06,0a1.537,1.537,0,0,0,1.652-1.565,1.553,1.553,0,0,0-1.7-1.515c-1.311-.008-2.622,0-3.932,0m-.087,8.164c.787,0,1.574.014,2.361,0a1.521,1.521,0,0,0,1.582-1.5,1.491,1.491,0,0,0-1.5-1.573q-2.393-.051-4.787,0a1.493,1.493,0,0,0-1.515,1.554,1.514,1.514,0,0,0,1.562,1.515c.765.02,1.53,0,2.3,0M258.2,49.9h-6.88c1.427,2.339,5.851,2.086,6.88,0M271.617,36.26a2.34,2.34,0,0,0,1.463-2.321,2.124,2.124,0,0,0-1.463-1.969ZM237.95,31.91a2.313,2.313,0,0,0-1.437,2.5,2.032,2.032,0,0,0,1.437,1.806Zm14.219,21.323-2.578-2.011a4.211,4.211,0,0,0-.112,3.074l2.691-1.063m7.808-2.019-2.57,2.013,2.676,1.07a4.373,4.373,0,0,0-.106-3.083" transform="translate(-212.468)" fill="#e9bbaa"/>
        <path id="Trazado_832294" data-name="Trazado 832294" d="M214.624,25.487a5.29,5.29,0,0,1-.534.855q-1.271,1.318-2.587,2.592a.986.986,0,0,1-1.5.076,1,1,0,0,1,.1-1.456c.868-.888,1.753-1.761,2.635-2.637a.9.9,0,0,1,1.178-.242,3.978,3.978,0,0,1,.707.812" transform="translate(-206.949 -11.664)" fill="#e9bbaa"/>
        <path id="Trazado_832295" data-name="Trazado 832295" d="M207.335,19c-.632,0-1.264.016-1.895,0a.948.948,0,0,1-1.014-.963.962.962,0,0,1,1-.991q1.959-.038,3.92,0a.978.978,0,1,1-.048,1.954c-.653.02-1.307,0-1.96,0" transform="translate(-204.426 -8.088)" fill="#e9bbaa"/>
        <path id="Trazado_832296" data-name="Trazado 832296" d="M214.557,8.079c-.211.253-.376.626-.643.725a1.187,1.187,0,0,1-1.013-.085c-1.031-.936-2.014-1.928-2.968-2.944a.869.869,0,0,1,.077-1.292.874.874,0,0,1,1.294-.051c1,.942,1.957,1.924,2.912,2.909a2.839,2.839,0,0,1,.342.738" transform="translate(-206.923 -1.982)" fill="#e9bbaa"/>
      </g>
      <path id="Trazado_832297" data-name="Trazado 832297" d="M281.248,75.881a4.58,4.58,0,0,1-4-2.435.991.991,0,0,1,.276-1.435,1,1,0,0,1,1.434.459,2.567,2.567,0,0,0,4.614-.008.992.992,0,1,1,1.7,1,4.594,4.594,0,0,1-4.022,2.418" transform="translate(851.477 1885.847)" fill="#e9bbaa"/>
      <path id="Trazado_832298" data-name="Trazado 832298" d="M299.308,60.792a8.909,8.909,0,0,1-.662,1.567,1.05,1.05,0,0,1-1.808.029,2.821,2.821,0,0,1-.035-3.234,1.076,1.076,0,0,1,1.89.042,8.859,8.859,0,0,1,.614,1.6" transform="translate(842.329 1892.142)" fill="#e9bbaa"/>
      <path id="Trazado_832299" data-name="Trazado 832299" d="M271.4,60.728a9.973,9.973,0,0,1-.77,1.7,1,1,0,0,1-1.639.058,2.783,2.783,0,0,1,0-3.5,1,1,0,0,1,1.6.015,10.1,10.1,0,0,1,.813,1.72" transform="translate(855.61 1892.148)" fill="#e9bbaa"/>
    </g>
    <g id="Grupo_1083985" data-name="Grupo 1083985" transform="translate(0 9661)">
      <g id="Enmascarar_grupo_73" data-name="Enmascarar grupo 73" transform="translate(105 -34)" clip-path="url(#clip-path)">
        <g id="Grupo_1082826" data-name="Grupo 1082826" transform="translate(390 1629.004)">
          <g id="Grupo_1082825" data-name="Grupo 1082825" clip-path="url(#clip-path-2)">
            <g id="Grupo_1082824" data-name="Grupo 1082824">
              <g id="Grupo_1082823" data-name="Grupo 1082823" clip-path="url(#clip-path-2)">
                <path id="Trazado_832212" data-name="Trazado 832212" d="M93.693,371.424l-1.8,32.911s32.847,12.885,33.106,19l-63.938-1.2.7-51.394Z" transform="translate(30.863 187.4)" fill="#263238"/>
                <path id="Trazado_832213" data-name="Trazado 832213" d="M69.079,391a2.61,2.61,0,0,0-1.861,2.946,2.508,2.508,0,0,0,2.9,1.87,2.754,2.754,0,0,0,1.956-3.13c-.4-1.218-2.094-2.2-3.237-1.611" transform="translate(33.954 197.592)" fill="#e0e0e0"/>
                <path id="Trazado_832214" data-name="Trazado 832214" d="M61.057,406.612l.274-5.177,61.2,3.091s2.823,1.292,2.463,3.291Z" transform="translate(30.863 202.917)" fill="#455a64"/>
                <path id="Trazado_832215" data-name="Trazado 832215" d="M84.208,392.954c-.017.312-1.581.425-3.134,1.4-1.581.935-2.4,2.273-2.684,2.144-.286-.066.215-1.924,2.118-3.071,1.892-1.165,3.774-.756,3.7-.471" transform="translate(39.586 198.474)" fill="#fff"/>
                <path id="Trazado_832216" data-name="Trazado 832216" d="M88.1,394.822c.066.3-1.3.81-2.382,2.111-1.123,1.268-1.418,2.69-1.728,2.671-.3.044-.476-1.789.9-3.38s3.205-1.7,3.207-1.4" transform="translate(42.35 199.507)" fill="#fff"/>
                <path id="Trazado_832217" data-name="Trazado 832217" d="M89.2,401.95c-.285.06-.69-1.507.143-3.2s2.308-2.347,2.434-2.085c.172.26-.793,1.159-1.456,2.562-.7,1.385-.81,2.7-1.122,2.725" transform="translate(44.909 200.477)" fill="#fff"/>
                <path id="Trazado_832218" data-name="Trazado 832218" d="M84.184,388.235c-.135.281-1.56-.176-3.327-.089-1.769.051-3.154.617-3.312.346-.176-.23,1.188-1.359,3.27-1.433,2.081-.089,3.527.933,3.369,1.176" transform="translate(39.19 195.648)" fill="#fff"/>
                <path id="Trazado_832219" data-name="Trazado 832219" d="M41.486,369.039l-3.463,39.727,6.322,32.211a4.086,4.086,0,0,1-7.011,3.559c-5.7-6.215-26.552-29.178-26.135-32.07.482-3.351.87-42.147.87-42.147Z" transform="translate(5.658 186.542)" fill="#263238"/>
                <path id="Trazado_832220" data-name="Trazado 832220" d="M40.829,432.138,11.352,396.1l-.108,1.688a6.149,6.149,0,0,0,1.2,4.072c2.337,3.131,8.977,11.637,24.752,28.99a4.078,4.078,0,0,0,3.634,1.289" transform="translate(5.677 200.221)" fill="#455a64"/>
                <g id="Grupo_1082816" data-name="Grupo 1082816" transform="translate(22.314 583.539)" opacity="0.6">
                  <g id="Grupo_1082815" data-name="Grupo 1082815">
                    <g id="Grupo_1082814" data-name="Grupo 1082814" clip-path="url(#clip-path-4)">
                      <path id="Trazado_832221" data-name="Trazado 832221" d="M18.527,388.078A2.471,2.471,0,0,1,19,391.344a2.376,2.376,0,0,1-3.232.492,2.607,2.607,0,0,1-.477-3.46c.819-.9,2.657-1.087,3.419-.14" transform="translate(-14.822 -387.61)" fill="#fff"/>
                    </g>
                  </g>
                </g>
                <path id="Trazado_832222" data-name="Trazado 832222" d="M25.6,409.507c.218.125,1.25-1.9,3.688-2.871,2.409-1.043,4.571-.34,4.637-.583.041-.1-.443-.438-1.365-.628a6.512,6.512,0,0,0-6.44,2.671c-.516.789-.616,1.372-.519,1.411" transform="translate(12.925 204.881)" fill="#fff"/>
                <path id="Trazado_832223" data-name="Trazado 832223" d="M27.253,412.6c.178.184,1.539-1.028,3.634-1.484,2.087-.5,3.839-.009,3.919-.253.128-.2-1.733-1.162-4.114-.6-2.386.534-3.639,2.218-3.439,2.338" transform="translate(13.765 207.294)" fill="#fff"/>
                <path id="Trazado_832224" data-name="Trazado 832224" d="M22.381,404.717c.175.2,2.257-1.674,5.454-2.671,3.183-1.048,5.966-.733,5.992-1,.078-.209-2.844-.951-6.258.163-3.426,1.079-5.373,3.38-5.188,3.5" transform="translate(11.307 202.502)" fill="#fff"/>
                <path id="Trazado_832225" data-name="Trazado 832225" d="M22.407,395.706c.09.245,2.349-.533,5.215-.452,2.869.041,5.092.912,5.192.671.122-.188-2.091-1.5-5.173-1.548-3.082-.078-5.349,1.135-5.235,1.328" transform="translate(11.324 199.349)" fill="#fff"/>
                <path id="Trazado_832226" data-name="Trazado 832226" d="M22.886,388.008c.108.238,2.4-.945,5.417-.614,3.02.266,5.039,1.876,5.191,1.663.071-.08-.331-.605-1.215-1.194a8.9,8.9,0,0,0-7.967-.789c-.982.405-1.48.843-1.426.933" transform="translate(11.567 195.358)" fill="#fff"/>
                <path id="Trazado_832227" data-name="Trazado 832227" d="M28.3,388.309a3.431,3.431,0,0,0,.151-1.5,10.449,10.449,0,0,0-.942-4.018,4.662,4.662,0,0,0-1.847-2.343,1.642,1.642,0,0,0-1.87.247,2.675,2.675,0,0,0-.745,1.757,5.775,5.775,0,0,0,4.709,5.656,6.7,6.7,0,0,0,6.791-3.076,2.331,2.331,0,0,0,.233-1.922,1.613,1.613,0,0,0-1.629-.959,5.718,5.718,0,0,0-2.708,1.194,11.727,11.727,0,0,0-2.915,2.918,3.574,3.574,0,0,0-.7,1.337,18.627,18.627,0,0,1,3.958-3.738,5.342,5.342,0,0,1,2.388-.985.859.859,0,0,1,.89.518,1.594,1.594,0,0,1-.227,1.254,5.978,5.978,0,0,1-5.918,2.6,5.014,5.014,0,0,1-4.066-4.744,1.931,1.931,0,0,1,.468-1.248.887.887,0,0,1,1.03-.151,4.2,4.2,0,0,1,1.6,1.954,15.481,15.481,0,0,1,1.35,5.253" transform="translate(11.645 192.214)" fill="#fff"/>
                <path id="Trazado_832228" data-name="Trazado 832228" d="M150.982,190.554a141.555,141.555,0,0,1,3.089,41.645c-.68,8.849-30.545,253.681-30.545,253.681H83.2L94.538,255.771l-3.3.717S69.225,354.628,67.429,370.519C65.815,384.8,47.253,488.561,47.253,488.561l-36.868.423L22.159,351.739l13.7-131.69,5.155-38.334Z" transform="translate(5.249 91.853)" fill="#263238"/>
                <path id="Trazado_832229" data-name="Trazado 832229" d="M62.061,226.18a7.75,7.75,0,0,0,1.683.948,19.381,19.381,0,0,0,4.992,1.748,10.488,10.488,0,0,0,3.714.026,7.636,7.636,0,0,0,3.884-1.864,9.228,9.228,0,0,0,2.356-4.118c.477-1.567.748-3.2,1.081-4.852,1.286-6.641,2.156-12.7,2.663-17.105.254-2.2.423-3.985.516-5.221a8.391,8.391,0,0,0,.05-1.929,8.382,8.382,0,0,0-.381,1.889c-.212,1.4-.474,3.133-.783,5.18-.659,4.372-1.623,10.4-2.9,17.024-.653,3.273-1.1,6.608-3.142,8.56a8.371,8.371,0,0,1-6.961,1.813,22.733,22.733,0,0,1-4.956-1.456,9.1,9.1,0,0,0-1.814-.644" transform="translate(31.37 97.969)" fill="#263238"/>
                <path id="Trazado_832230" data-name="Trazado 832230" d="M71.729,194.667c.014-.038-.262-.211-.828-.245a3.611,3.611,0,0,0-2.257.724,4.029,4.029,0,0,0-1.7,3.115,4,4,0,0,0,6.806,2.553,4.027,4.027,0,0,0,.768-3.464,3.606,3.606,0,0,0-1.222-2.029c-.452-.346-.771-.4-.786-.36a4.542,4.542,0,0,1,1.415,2.5,3.522,3.522,0,0,1-.766,2.83,3.268,3.268,0,0,1-5.429-2.037,3.52,3.52,0,0,1,1.284-2.636,4.544,4.544,0,0,1,2.713-.954" transform="translate(33.838 98.273)" fill="#263238"/>
                <path id="Trazado_832231" data-name="Trazado 832231" d="M27.679,210.023a4.36,4.36,0,0,0,1.373.215,25.853,25.853,0,0,0,3.782.042,36.62,36.62,0,0,0,22.639-9.536,25.773,25.773,0,0,0,2.611-2.735c.563-.694.851-1.093.805-1.132-.114-.1-1.409,1.384-3.815,3.414a40.67,40.67,0,0,1-22.286,9.388c-3.136.3-5.1.191-5.11.343" transform="translate(13.991 99.515)" fill="#263238"/>
                <path id="Trazado_832232" data-name="Trazado 832232" d="M92.789,195.077a18.1,18.1,0,0,0,1.864,4.111,45.7,45.7,0,0,0,6.23,8.675,41.914,41.914,0,0,0,7.9,6.749,14.662,14.662,0,0,0,3.713,1.977,38.136,38.136,0,0,0-3.431-2.49,52.934,52.934,0,0,1-7.651-6.848,56.616,56.616,0,0,1-6.309-8.393,43.9,43.9,0,0,0-2.314-3.78" transform="translate(46.9 98.606)" fill="#263238"/>
                <path id="Trazado_832233" data-name="Trazado 832233" d="M183.128,141.627c4.26-1.618,9.092-3.241,9.092-3.241l4.215-1.671a5.108,5.108,0,0,1-.047.909,3.411,3.411,0,0,0,.071,1.7,2.709,2.709,0,0,0,2.8,1.263,6.623,6.623,0,0,0,5.4-3.69,6.536,6.536,0,0,0-.464-6.258,4.778,4.778,0,0,0-.065-1.864c-.958-4.148-6.742-6.341-6.742-6.341l1.391-.789s4.926-.584,9.388,6.352a5.081,5.081,0,0,0,2.871,2.175,2.581,2.581,0,0,0,2.187-.233c1.661-1.126,1.284-2.588-1.444-6.955s-6.812-7.682-10.264-7.969a34.5,34.5,0,0,0-4.818-.176s12.151-7.862,12.9-8.39c2.166-1.528,3.292-3.771,2.407-5.308-.571-.986-2.02-1.81-4.6-.108C205.18,102.506,180.4,114.7,180.4,114.7l-10.645,6.037-7.971,6.406,10.428,14.171,1.219.428a14.174,14.174,0,0,0,9.7-.119" transform="translate(81.776 50.573)" fill="#ffc09d"/>
                <path id="Trazado_832234" data-name="Trazado 832234" d="M168.5,116.845c.5,1.486,2.288,2.165,3.863,2.1s3.085-.646,4.653-.817c4.687-.513,9.245,2.705,13.9,1.969.649-.1,1.417-.431,1.453-1.082.033-.6-.589-1.013-1.129-1.292l-13.872-7.151" transform="translate(85.175 55.894)" fill="#ffc09d"/>
                <path id="Trazado_832235" data-name="Trazado 832235" d="M177.378,110.579a6.3,6.3,0,0,1,1.579.62c.991.452,2.41,1.129,4.157,1.984l6.109,3.044q.865.436,1.761.891c.536.324,1.382.512,1.781,1.51a1.3,1.3,0,0,1-.477,1.388,2.732,2.732,0,0,1-1.174.5,10.329,10.329,0,0,1-2.3.11c-3.1-.215-5.734-1.388-8.206-1.864a11.864,11.864,0,0,0-3.511-.266c-1.093.1-2.121.39-3.1.559a5.538,5.538,0,0,1-4.6-.753c-.9-.747-.935-1.472-.9-1.456.08-.042.233.6,1.1,1.177a5.357,5.357,0,0,0,4.267.419c.933-.2,1.956-.528,3.14-.676a12.2,12.2,0,0,1,3.749.2c2.58.461,5.236,1.591,8.1,1.779a9.678,9.678,0,0,0,2.079-.09c.64-.111,1.123-.471.982-.789-.1-.369-.736-.7-1.332-1l-1.748-.917-6.022-3.213c-1.709-.924-3.083-1.688-4.026-2.233a6.268,6.268,0,0,1-1.42-.926" transform="translate(85.172 55.891)" fill="#ff9b6c"/>
                <path id="Trazado_832236" data-name="Trazado 832236" d="M185.321,115.226a6.473,6.473,0,0,1,2.853-.745,5.014,5.014,0,0,1,2.922,1.084,12.716,12.716,0,0,1,2.644,2.931,20.185,20.185,0,0,0,2.567,3.19,6.567,6.567,0,0,0,2.955,1.685,2.567,2.567,0,0,0,2.24-.5c.411-.367.53-.65.51-.662-.042-.036-.226.2-.646.485a2.42,2.42,0,0,1-2.013.285,6.5,6.5,0,0,1-2.68-1.671,22.381,22.381,0,0,1-2.466-3.14,12.311,12.311,0,0,0-2.8-3.025,5.236,5.236,0,0,0-3.237-1.063,4.646,4.646,0,0,0-2.207.617c-.467.279-.665.5-.644.53" transform="translate(93.675 57.662)" fill="#ff9b6c"/>
                <path id="Trazado_832237" data-name="Trazado 832237" d="M199.578,103.9a16.237,16.237,0,0,0-2.427,1.548l-5.74,3.869-5.8,3.785a16.251,16.251,0,0,0-2.368,1.632,12.909,12.909,0,0,0,2.58-1.289c1.549-.875,3.646-2.156,5.909-3.654s4.254-2.933,5.661-4.018a12.853,12.853,0,0,0,2.186-1.873" transform="translate(92.625 52.518)" fill="#ff9b6c"/>
                <path id="Trazado_832238" data-name="Trazado 832238" d="M185.4,117.831c-.021.038.26.2.739.518a2.663,2.663,0,0,1,1.325,1.784,1.416,1.416,0,0,1-.589,1.281,7.6,7.6,0,0,1-1.637.917,3.214,3.214,0,0,0-1.7,1.53,2.712,2.712,0,0,0,.269,2.457,3.132,3.132,0,0,0,2.076,1.338,3.95,3.95,0,0,0,2.275-.221,12.643,12.643,0,0,0,3.059-2.082,7.388,7.388,0,0,0,1.581-1.919,1.635,1.635,0,0,0,.26-.875c-.05-.014-.141.292-.453.762a8.773,8.773,0,0,1-1.656,1.728,13.539,13.539,0,0,1-3,1.9,3.113,3.113,0,0,1-3.657-.938,2.18,2.18,0,0,1-.235-1.939,2.755,2.755,0,0,1,1.421-1.275,7.7,7.7,0,0,0,1.715-1.031,1.835,1.835,0,0,0,.671-1.688,2.788,2.788,0,0,0-1.612-1.923,2.345,2.345,0,0,0-.854-.327" transform="translate(92.684 59.558)" fill="#ff9b6c"/>
                <path id="Trazado_832239" data-name="Trazado 832239" d="M185.554,125.82c-.01-.026-.312.078-.638.516a2.475,2.475,0,0,0-.307,2.209,3.353,3.353,0,0,0,2.577,2.088,5.512,5.512,0,0,0,3.965-.921,6.555,6.555,0,0,0,2.538-3.149,6.236,6.236,0,0,0,.3-3.279,5.942,5.942,0,0,0-.772-2.07c-.28-.444-.489-.646-.516-.626a10.342,10.342,0,0,1,.887,2.755,6.142,6.142,0,0,1-.387,3.031,6.257,6.257,0,0,1-2.362,2.863,5.12,5.12,0,0,1-3.553.881,2.973,2.973,0,0,1-2.29-1.71,2.346,2.346,0,0,1,.114-1.953c.236-.429.48-.595.449-.634" transform="translate(93.25 60.954)" fill="#ff9b6c"/>
                <path id="Trazado_832240" data-name="Trazado 832240" d="M177.721,125.221c.045-.026-.157-.515-.784-1.135a5.468,5.468,0,0,0-3.195-1.495l.151.48a15.958,15.958,0,0,0,1.433-1.325,12.245,12.245,0,0,0,3.386-5.793,31.03,31.03,0,0,1-3.8,5.4c-.458.477-.924.915-1.37,1.3l-.494.426.646.054a5.747,5.747,0,0,1,3.018,1.209c.65.51.95.921,1.012.878" transform="translate(87.471 58.611)" fill="#ff9b6c"/>
                <path id="Trazado_832241" data-name="Trazado 832241" d="M190.079,113.266c-.132-.075-.688.957-.437,2.311s1.126,2.133,1.222,2.017c.129-.105-.455-.936-.656-2.117-.226-1.177.029-2.157-.129-2.212" transform="translate(95.828 57.252)" fill="#ff9b6c"/>
                <path id="Trazado_832242" data-name="Trazado 832242" d="M54.511,14.584c.7-6.118,4.684-9.679,10.15-12.512a19.209,19.209,0,0,1,17.742.2c3.612,1.978,6.689,5.18,10.737,5.938C99.8,9.459,106.513,3.6,113.014,5.527a9.029,9.029,0,0,1,6.222,9.208,9.03,9.03,0,0,1-7.835,7.881c4.361.887,6.534,6.589,4.674,10.632s-6.611,6.178-11.059,6.023S96.4,37.059,92.688,34.611s-7.151-5.334-11.05-7.479S73.192,23.6,68.834,24.5c-5.9,1.218-10.329,6.471-12.176,12.206s-1.542,11.919-.976,17.917,1.37,12.062.465,18.018a2.235,2.235,0,0,1-.945,1.8c-.921.443-1.9-.459-2.51-1.277a88.4,88.4,0,0,1-14.888-31c-1.667-6.49-2.433-12.759.355-18.852s11.33-11.559,16.351-8.733" transform="translate(18.353 0)" fill="#263238"/>
                <path id="Trazado_832243" data-name="Trazado 832243" d="M43.645,41.121l6.385,61.187C51.224,113.734,61.8,133.4,79.775,130.693l-.452-.982c15.421-3.527,11.529-21.834,10.316-35.4h0s16.937-3.393,16.405-20.452c-.257-8.243-2.168-25.179-4.075-40.479A31.787,31.787,0,0,0,69.034,5.569l-1.645.071C49.7,7.448,41.348,23.484,43.645,41.121" transform="translate(21.873 2.8)" fill="#ffc09d"/>
                <path id="Trazado_832244" data-name="Trazado 832244" d="M81.62,66.382a41.23,41.23,0,0,1-22.483-5.6S65.076,73.774,82.022,71.5Z" transform="translate(29.893 30.726)" fill="#ff9b6c"/>
                <path id="Trazado_832245" data-name="Trazado 832245" d="M79.43,35.8a2.434,2.434,0,0,1-2.24,2.558,2.328,2.328,0,0,1-2.606-2.084,2.441,2.441,0,0,1,2.239-2.562A2.333,2.333,0,0,1,79.43,35.8" transform="translate(37.697 17.033)" fill="#263238"/>
                <path id="Trazado_832246" data-name="Trazado 832246" d="M83.3,30.486c-.288.33-2.192-.954-4.812-.833-2.62.083-4.483,1.515-4.781,1.206-.146-.135.137-.723.947-1.368a6.683,6.683,0,0,1,3.81-1.358,6.411,6.411,0,0,1,3.848,1.06c.833.583,1.129,1.144.988,1.293" transform="translate(37.241 14.218)" fill="#263238"/>
                <path id="Trazado_832247" data-name="Trazado 832247" d="M63.989,36.421a2.436,2.436,0,0,1-2.24,2.558,2.33,2.33,0,0,1-2.606-2.085,2.437,2.437,0,0,1,2.239-2.559,2.331,2.331,0,0,1,2.607,2.087" transform="translate(29.892 17.349)" fill="#263238"/>
                <path id="Trazado_832248" data-name="Trazado 832248" d="M66.211,31.555c-.289.331-2.195-.953-4.813-.833-2.618.083-4.482,1.515-4.78,1.206-.146-.135.134-.721.947-1.367a6.683,6.683,0,0,1,3.81-1.359,6.439,6.439,0,0,1,3.848,1.058c.83.584,1.129,1.147.988,1.295" transform="translate(28.601 14.758)" fill="#263238"/>
                <path id="Trazado_832249" data-name="Trazado 832249" d="M70.586,50.706c-.02-.148,1.6-.5,4.221-.953.667-.1,1.293-.259,1.387-.72a3.408,3.408,0,0,0-.533-1.965q-1.05-2.387-2.2-5.007c-3.064-7.134-5.313-13.01-5.024-13.132s3,5.563,6.069,12.7q1.109,2.64,2.118,5.042a3.876,3.876,0,0,1,.461,2.611,1.679,1.679,0,0,1-1.057,1.027,4.587,4.587,0,0,1-1.129.208c-2.65.257-4.3.342-4.313.193" transform="translate(34.581 14.622)" fill="#263238"/>
                <path id="Trazado_832250" data-name="Trazado 832250" d="M67.129,24.512c-.227.724-2.859.5-5.915,1-3.068.443-5.509,1.451-5.944.83-.2-.3.208-.986,1.18-1.719a10.423,10.423,0,0,1,9.034-1.4c1.149.4,1.74.939,1.644,1.283" transform="translate(27.914 11.504)" fill="#263238"/>
                <path id="Trazado_832251" data-name="Trazado 832251" d="M82.213,25.532c-.435.616-2.266.077-4.438.142-2.174-.011-3.991.574-4.441-.03-.2-.294.065-.9.843-1.5a6.428,6.428,0,0,1,7.156-.089c.793.577,1.072,1.179.881,1.478" transform="translate(37.037 11.631)" fill="#263238"/>
                <path id="Trazado_832252" data-name="Trazado 832252" d="M48.514,37.648c-.3-.113-11.865-2.955-10.985,8.685s12.384,8.355,12.38,8.02-1.394-16.7-1.394-16.7" transform="translate(18.946 18.836)" fill="#ffc09d"/>
                <path id="Trazado_832253" data-name="Trazado 832253" d="M45.015,48.9c-.054-.033-.193.157-.524.34a2.037,2.037,0,0,1-1.513.146c-1.263-.358-2.446-2.233-2.662-4.325a6.7,6.7,0,0,1,.349-2.946,2.347,2.347,0,0,1,1.408-1.673,1.036,1.036,0,0,1,1.238.465c.181.315.125.551.188.568.035.027.235-.214.1-.688a1.289,1.289,0,0,0-.512-.694,1.54,1.54,0,0,0-1.144-.212,2.855,2.855,0,0,0-1.981,1.965,6.9,6.9,0,0,0-.458,3.3c.251,2.34,1.618,4.443,3.338,4.8a2.182,2.182,0,0,0,1.831-.449c.339-.315.381-.58.339-.6" transform="translate(19.951 20.145)" fill="#ff9b6c"/>
                <path id="Trazado_832254" data-name="Trazado 832254" d="M102.12,18.469A22.259,22.259,0,0,0,94.6,10.535,38.029,38.029,0,0,0,72.234,3.617,30.964,30.964,0,0,0,50.9,12.76a32.678,32.678,0,0,0-8.253,16.867,48,48,0,0,0,.711,18.91c.61,2.72,1.481,5.533,3.493,7.463,1.257,1.2,3.357,1.944,4.69.824a4.636,4.636,0,0,0,1.241-2.748c1.852-9.093,3.643-18.861-.029-27.382a26.789,26.789,0,0,1,7.707-7.728,13.862,13.862,0,0,1,10.528-1.909c5.266,1.373,8.687,6.288,12.986,9.625a24.645,24.645,0,0,0,22.088,3.974Z" transform="translate(21.236 1.822)" fill="#263238"/>
                <path id="Trazado_832255" data-name="Trazado 832255" d="M73.825,48.81a11.572,11.572,0,0,1-1.046,3.134,3.917,3.917,0,0,1-2.508,2.01A3.512,3.512,0,0,1,67.094,52.8a5.61,5.61,0,0,1-1.32-3.214c-.111-1.06.182-2.388,1.209-2.669a2.652,2.652,0,0,1,1.311.09l5.834,1.4" transform="translate(33.236 23.688)" fill="#ff9b6c"/>
                <path id="Trazado_832256" data-name="Trazado 832256" d="M72.542,53.831a8.047,8.047,0,0,1-2.987.08,4.245,4.245,0,0,1-2.519-1.68,4.458,4.458,0,0,1-.614-3.583,4.013,4.013,0,0,1,.355-.9c.184-.26.145-.245.387-.245.233.026.62.142.933.212l.957.233c1.25.3,2.377.553,3.327.753a10.165,10.165,0,0,0,3.128.453c.035-.134-1.1-.557-2.952-1.132-.927-.288-2.037-.611-3.273-.96l-.95-.262a9.589,9.589,0,0,0-1.066-.263,1.3,1.3,0,0,0-.811.148,1.51,1.51,0,0,0-.534.571,4.705,4.705,0,0,0-.461,1.135,5.214,5.214,0,0,0,.83,4.372,4.763,4.763,0,0,0,3.13,1.837,4.531,4.531,0,0,0,2.4-.266c.524-.227.753-.452.723-.5" transform="translate(33.006 23.519)" fill="#263238"/>
                <path id="Trazado_832257" data-name="Trazado 832257" d="M110.4,5.384a3.086,3.086,0,0,1,.185.772,7.725,7.725,0,0,1-.053,2.284A10.683,10.683,0,0,1,105.94,15.3c-2.97,2.094-7.515,2.746-12.106,1.775-4.656-.909-9.215-3.428-14.005-5.725-4.765-2.3-9.737-3.944-14.295-3.374A18.265,18.265,0,0,0,54.9,13.283a24.411,24.411,0,0,0-4.793,6.644c-.842,1.76-1.159,2.8-1.233,2.776a3.079,3.079,0,0,1,.188-.768A19.263,19.263,0,0,1,49.84,19.8a23.188,23.188,0,0,1,4.684-6.9,18.583,18.583,0,0,1,10.93-5.621c4.765-.632,9.9,1.067,14.7,3.383,4.828,2.318,9.313,4.812,13.82,5.725,4.455.979,8.812.4,11.667-1.537a10.591,10.591,0,0,0,4.6-6.469,11.664,11.664,0,0,0,.157-3" transform="translate(24.703 2.721)" fill="#455a64"/>
                <path id="Trazado_832258" data-name="Trazado 832258" d="M38.036,30.726a8.219,8.219,0,0,1,.634-3.166,20.057,20.057,0,0,1,7.08-9.685,7.307,7.307,0,0,1,3.264-1.483,3.867,3.867,0,0,1,2.4.409c.5.3.68.577.65.607a4.442,4.442,0,0,0-2.96-.488c-1.843.363-4,2.2-5.963,4.379a23.076,23.076,0,0,0-3.967,6.446c-.751,1.805-1.01,3.006-1.135,2.979" transform="translate(19.213 8.267)" fill="#455a64"/>
                <path id="Trazado_832259" data-name="Trazado 832259" d="M39.69,37.854a8.92,8.92,0,0,1,.837-3.143A21.578,21.578,0,0,1,51.1,23.432a8.908,8.908,0,0,1,3.083-1.037,31.339,31.339,0,0,1-2.836,1.513A24.764,24.764,0,0,0,41.016,34.926a30.97,30.97,0,0,1-1.326,2.928" transform="translate(20.054 11.313)" fill="#455a64"/>
                <path id="Trazado_832260" data-name="Trazado 832260" d="M50.333,66.085l20.432,16,12.94,16.429,4.732-17.033,3.389-13.358,5.566,5.519,14.1,30.034,15.863,145.167s-27.669,8.1-42,9.086-37.172-2.946-37.172-2.946V178.609l-8.134-75.641,9.813-28.985Z" transform="translate(20.245 33.405)" fill="#f5f5f5"/>
                <path id="Trazado_832261" data-name="Trazado 832261" d="M77.05,245.836a2.029,2.029,0,0,1-.041-.406c-.015-.3-.033-.7-.059-1.2-.039-1.087-.1-2.63-.167-4.6-.137-4.03-.331-9.8-.571-16.916-.5-14.284-1.281-34.012-2.4-55.787s-2.386-41.488-3.368-55.746c-.5-7.1-.9-12.861-1.179-16.884-.131-1.966-.235-3.506-.307-4.592-.027-.5-.05-.9-.065-1.2a2.2,2.2,0,0,1,0-.408,2.016,2.016,0,0,1,.063.4c.032.3.072.693.123,1.191.1,1.084.241,2.621.42,4.583.355,3.98.825,9.745,1.367,16.872,1.09,14.252,2.412,33.958,3.542,55.745s1.843,41.517,2.231,55.805c.2,7.144.322,12.926.381,16.923.024,1.971.042,3.514.056,4.6v1.2a2.119,2.119,0,0,1-.021.408" transform="translate(34.818 44.535)" fill="#263238"/>
                <path id="Trazado_832262" data-name="Trazado 832262" d="M59.349,72.836l-4.729,6.51L15.928,99.712l21.534,65.674,5.8,36.835L21.51,289.72S47.9,298.8,50.223,295.9c.977-1.219,3.747-7.515,6.63-14.4a154.411,154.411,0,0,0,11.08-42.972c1.615-14.9,3.1-33.885,2.013-46.747-2.031-24.073-5.221-63.808-5.512-74.249S62.3,67.666,62.3,67.666Z" transform="translate(8.051 34.204)" fill="#c1cdf5"/>
                <path id="Trazado_832263" data-name="Trazado 832263" d="M76.259,68.53l12.806,7.478L130.52,89.631l-3.32,29.321-1.9,75.872,13.051,91.069s-13.921,4.93-19.433,2.9-13.051-14.5-13.342-22.042-11.02-80.629-11.02-80.629L84.113,87.8Z" transform="translate(38.547 34.641)" fill="#c1cdf5"/>
                <path id="Trazado_832264" data-name="Trazado 832264" d="M85.289,73.469a4.56,4.56,0,0,1,.519.584l1.433,1.757c1.268,1.585,3.065,3.837,5.322,6.665l.113.142-.148.111c-1.346,1.022-2.866,2.178-4.509,3.423l-.062-.372,5.292,1.674.167.053,0,.178c-.1,9.432-.227,21.307-.364,34.179-.229,15.713-.437,29.933-.587,40.285-.1,5.117-.187,9.275-.247,12.206-.041,1.4-.074,2.513-.1,3.318-.017.351-.03.634-.041.864a1.049,1.049,0,0,1-.035.294,1.175,1.175,0,0,1-.027-.3c0-.229-.011-.513-.018-.864,0-.805-.009-1.915-.015-3.32.014-2.931.033-7.091.057-12.208.107-10.352.251-24.574.412-40.287.184-12.873.352-24.749.485-34.179l.166.229-5.277-1.722-.393-.128.331-.245c1.656-1.227,3.19-2.364,4.55-3.369l-.035.253c-2.2-2.869-3.955-5.156-5.189-6.767l-1.359-1.813a4.689,4.689,0,0,1-.443-.646" transform="translate(43.112 37.137)" fill="#263238"/>
                <path id="Trazado_832265" data-name="Trazado 832265" d="M57.237,177.909a1.25,1.25,0,0,1-.111-.283c-.072-.224-.163-.5-.276-.846-.256-.786-.608-1.873-1.055-3.25-.926-2.818-2.3-6.888-4.063-11.892l-2.924-8.173a98.306,98.306,0,0,1-2.973-9.533,215.644,215.644,0,0,1-4.157-22.471c-1.435-10.456-2.364-20.313-2.928-28.794l-.009-.12.086-.083q2.4-2.312,4.56-4.4l.023.361-4.322-3.289-.17-.129.125-.169c3.276-4.44,5.935-8.045,7.807-10.584L49,71.4c.233-.3.42-.542.571-.735a1.22,1.22,0,0,1,.212-.238,1.311,1.311,0,0,1-.161.274c-.139.2-.31.456-.522.771-.5.706-1.183,1.685-2.055,2.927-1.835,2.564-4.441,6.209-7.652,10.7l-.044-.3L43.7,88.048l.223.166-.2.194-4.53,4.428.078-.2c.613,8.459,1.569,18.31,3,28.746a223.724,223.724,0,0,0,4.1,22.418q1.3,5.095,2.906,9.5l2.856,8.2c1.713,5.025,3.028,9.117,3.887,11.961.431,1.421.747,2.531.95,3.286.089.351.161.634.218.863a1.1,1.1,0,0,1,.053.3" transform="translate(19.583 35.598)" fill="#263238"/>
                <g id="Grupo_1082819" data-name="Grupo 1082819" transform="translate(43.592 253.174)" opacity="0.3">
                  <g id="Grupo_1082818" data-name="Grupo 1082818">
                    <g id="Grupo_1082817" data-name="Grupo 1082817" clip-path="url(#clip-path-5)">
                      <path id="Trazado_832266" data-name="Trazado 832266" d="M28.956,182.677l22.51,8.828,1.5-5.015,7.646,6.993,1.371-12.157-7.056-13.158L30.6,176.048Z" transform="translate(-28.956 -168.168)"/>
                    </g>
                  </g>
                </g>
                <path id="Trazado_832267" data-name="Trazado 832267" d="M98.721,187.289l-9.135-5.545-8.026-7.273a20.262,20.262,0,0,0,6.243,3.4c3.762,1.254,5.883-2.2,5.883-2.2s-3.292-2.076-4.42-2.7-12.52-9.122-15.4-9.749-21.927-4.51-21.927-4.51l-.3.985L42.222,179.75,50.586,182a55.674,55.674,0,0,1,4.264,7.022c1.88,3.762,11.008,7.47,14.523,9.316s7.487-1.385,7.487-1.385c4.036.924,5.034-3.414,5.034-3.414,4.64-.626,5.036-5.679,5.036-5.679s8.423,3.265,11.02,3.723a1.583,1.583,0,0,0,1.913-1.006,2.669,2.669,0,0,0-1.143-3.283" transform="translate(21.342 80.221)" fill="#ffc09d"/>
                <path id="Trazado_832268" data-name="Trazado 832268" d="M75.3,180.017a23.1,23.1,0,0,1-5.325-2.392c-2.845-1.551-4.854-3.282-4.745-3.408s2.225,1.356,5.034,2.888,5.114,2.754,5.036,2.913" transform="translate(32.971 88.059)" fill="#ff9b6c"/>
                <path id="Trazado_832269" data-name="Trazado 832269" d="M62.085,177.576c.089-.152,2.492,1.185,5.25,3.112a48.965,48.965,0,0,1,4.939,3.562c-.083.151-2.511-1.144-5.277-3.071a44.327,44.327,0,0,1-4.912-3.6" transform="translate(31.382 89.755)" fill="#ff9b6c"/>
                <path id="Trazado_832270" data-name="Trazado 832270" d="M59.677,180.149c.11-.107,1.87,1.361,4.232,2.948s4.23,2.972,4.131,3.118a21.927,21.927,0,0,1-4.47-2.627c-2.388-1.6-4.021-3.318-3.893-3.439" transform="translate(30.162 91.059)" fill="#ff9b6c"/>
                <path id="Trazado_832271" data-name="Trazado 832271" d="M61.231,163.869a5.152,5.152,0,0,1,2.035.44,15.579,15.579,0,0,1,4.387,2.451,20.586,20.586,0,0,1,3.524,3.569,6.025,6.025,0,0,1,1.108,1.755c-.16.128-1.987-2.475-5-4.855a27.566,27.566,0,0,0-6.055-3.36" transform="translate(30.951 82.822)" fill="#ff9b6c"/>
                <path id="Trazado_832272" data-name="Trazado 832272" d="M4.057,199a8.572,8.572,0,0,1-4.029-6.975,78.026,78.026,0,0,1,.685-11.883c1.608-13.394,23.535-91.17,23.535-91.17L46.3,149.584l-7.571,26.388,38.582,18.474L66.566,224.76S15.3,206,4.057,199" transform="translate(0 44.974)" fill="#c1cdf5"/>
                <path id="Trazado_832273" data-name="Trazado 832273" d="M115.932,82.545l35.41,67.322.951,1.382,38.617-19.713,12.718,25.724-51.962,31.55a12.96,12.96,0,0,1-17.406-3.916L111.3,150.618l-6.177-28.172Z" transform="translate(53.135 41.725)" fill="#c1cdf5"/>
                <path id="Trazado_832274" data-name="Trazado 832274" d="M109.655,95.3a4.516,4.516,0,0,1,.069.848c.02.614.047,1.424.08,2.434.041,2.178.1,5.221.164,8.952.1,7.559.135,18,.026,29.538s-.354,21.982-.6,29.538c-.14,3.728-.253,6.767-.336,8.946-.053,1.01-.095,1.819-.128,2.431a4.4,4.4,0,0,1-.084.846,4.513,4.513,0,0,1-.035-.849c0-.614.009-1.424.015-2.434.036-2.18.086-5.221.148-8.95.134-7.557.307-18,.42-29.533s.137-21.971.149-29.53c.011-3.731.02-6.772.026-8.952.014-1.01.024-1.82.032-2.434a4.482,4.482,0,0,1,.051-.849" transform="translate(55.004 48.173)" fill="#263238"/>
                <path id="Trazado_832275" data-name="Trazado 832275" d="M21.786,100.156a3.289,3.289,0,0,1,.245.679c.152.513.348,1.17.59,1.98.509,1.8,1.212,4.276,2.07,7.306,1.722,6.175,4.083,14.715,6.483,24.2s4.3,18.153,5.494,24.457c.6,3.151,1.051,5.707,1.323,7.481.125.836.226,1.513.306,2.041a3.219,3.219,0,0,1,.066.72,3.435,3.435,0,0,1-.185-.7c-.107-.524-.245-1.194-.416-2.022-.37-1.832-.882-4.354-1.507-7.439-1.3-6.276-3.262-14.909-5.658-24.393s-4.7-18.034-6.312-24.238c-.783-3.05-1.423-5.545-1.888-7.356l-.482-2.008a3.33,3.33,0,0,1-.129-.711" transform="translate(11.01 50.627)" fill="#263238"/>
                <path id="Trazado_832276" data-name="Trazado 832276" d="M11.182,176.4a1.066,1.066,0,0,1,.251.072c.188.066.426.151.721.257l2.779,1.04L25.3,181.755l35.718,13.914-.373.17c2.243-6.346,4.675-13.22,7.193-20.341,1.2-3.4,2.389-6.736,3.538-9.977l.151.364L33.392,147.474l.027.011a22.1,22.1,0,0,0-15.671.664,28.2,28.2,0,0,0-3.869,2.034l-.953.628a2.073,2.073,0,0,1-.337.2,1.9,1.9,0,0,1,.3-.248l.921-.677a25.4,25.4,0,0,1,3.843-2.148,22.211,22.211,0,0,1,6.725-1.813,22.761,22.761,0,0,1,9.167.961l.014,0,.015.008,38.208,18.258.238.114-.089.25C70.785,168.96,69.6,172.3,68.4,175.7c-2.526,7.118-4.967,13.989-7.217,20.333l-.1.279-.274-.108L25.171,182.088l-10.308-4.137-2.744-1.129-.7-.3a1.031,1.031,0,0,1-.233-.119" transform="translate(5.652 73.8)" fill="#263238"/>
                <path id="Trazado_832277" data-name="Trazado 832277" d="M137.592,127.724a8.869,8.869,0,0,1,.095,2.65,41.323,41.323,0,0,1-.9,6.325c-.51,2.437-1.031,4.62-1.379,6.209a13.485,13.485,0,0,1-.649,2.558,10.262,10.262,0,0,1,.235-2.636c.242-1.615.7-3.824,1.209-6.251s.884-4.629,1.06-6.239a17.055,17.055,0,0,1,.325-2.615" transform="translate(68.105 64.562)" fill="#263238"/>
                <path id="Trazado_832278" data-name="Trazado 832278" d="M138.08,128.8c.161.05-.61,2.82-1.867,6.115a45.692,45.692,0,0,1-2.425,5.907c-.161-.05.61-2.82,1.867-6.117a45.472,45.472,0,0,1,2.425-5.906" transform="translate(67.617 65.108)" fill="#263238"/>
                <path id="Trazado_832279" data-name="Trazado 832279" d="M79.85,93.921a7.889,7.889,0,0,1-1.087-.983c-.739-.735-1.7-1.692-2.877-2.859-2.489-2.543-5.856-5.984-9.715-9.924l.423-.015a12.512,12.512,0,0,0-2.746,8.447l.039.671-.515-.419c-4.917-3.983-8.9-7.89-11.875-10.556-1.475-1.346-2.674-2.416-3.5-3.143a11.261,11.261,0,0,1-1.263-1.162,9.492,9.492,0,0,1,1.4,1c.878.677,2.115,1.7,3.63,3.012,3.052,2.591,7.092,6.454,11.979,10.388l-.48.253a12.976,12.976,0,0,1,2.9-8.869l.208-.239.217.226c3.8,4,7.115,7.491,9.567,10.07C77.271,91.033,78.2,92.031,78.9,92.8a8.534,8.534,0,0,1,.947,1.125" transform="translate(23.62 37.393)" fill="#263238"/>
                <path id="Trazado_832280" data-name="Trazado 832280" d="M81.444,72.808a3.342,3.342,0,0,1,.047.915c0,.592-.035,1.459-.119,2.547a53.464,53.464,0,0,1-1.439,8.759l-.179.72-.34-.662a21.383,21.383,0,0,0-3.765-5.194c-.429-.438-.875-.851-1.307-1.224l.482-.161a81.209,81.209,0,0,1-3.512,11.6c-.557,1.429-1.046,2.561-1.4,3.332a5.751,5.751,0,0,1-.614,1.168,6.214,6.214,0,0,1,.411-1.253c.33-.9.741-2.037,1.23-3.386A100.936,100.936,0,0,0,74.245,78.38l.105-.483.376.322c.446.382.9.805,1.346,1.256a21.181,21.181,0,0,1,3.839,5.36l-.519.057a65.065,65.065,0,0,0,1.638-8.655c.26-2.156.342-3.431.414-3.428" transform="translate(35.023 36.803)" fill="#263238"/>
                <path id="Trazado_832281" data-name="Trazado 832281" d="M100.763,174.631l3.457,10.745,19.571-1.808-6.1-10.266Z" transform="translate(50.934 87.601)" fill="#c1cdf5"/>
                <path id="Trazado_832282" data-name="Trazado 832282" d="M100.764,174.726a9.234,9.234,0,0,1,1.167-.149l3.425-.339c2.963-.285,7.234-.688,12.313-1.11l.166-.014.086.145,6.127,10.251.242.4-.471.044c-.318.029-.661.06-1,.093l-18.573,1.65-.187.017-.056-.178c-1.051-3.356-1.868-6.093-2.424-7.958-.256-.87-.464-1.579-.628-2.139a4.412,4.412,0,0,1-.184-.718,7.467,7.467,0,0,1,.3.787c.2.566.449,1.283.756,2.162.65,1.918,1.542,4.542,2.621,7.725l-.242-.161,18.56-1.78c.345-.033.688-.065,1.006-.093l-.229.449-6.078-10.281.253.131c-4.953.366-9.146.628-12.139.81l-3.506.206c-.823.044-1.278.062-1.3.045" transform="translate(50.933 87.506)" fill="#263238"/>
                <rect id="Rectángulo_384851" data-name="Rectángulo 384851" width="21.029" height="6.785" transform="translate(139.519 177.025)" fill="#a0901c"/>
                <path id="Trazado_832283" data-name="Trazado 832283" d="M113.8,124.481a2.891,2.891,0,0,1-.041-.5c-.012-.373-.029-.819-.047-1.355-.027-1.239-.063-2.894-.107-4.933l.194.194c-5.009.065-12.578.1-21.027.1.132-.132-.3.3.3-.3h0v.876l0,.872q0,.869,0,1.719c0,1.134,0,2.242-.006,3.315l-.289-.289c5.989.015,11.2.077,14.952.134l4.426.081a16.26,16.26,0,0,1,1.65.074,11.763,11.763,0,0,1-1.518.074l-4.36.081c-3.737.057-9.039.119-15.151.134h-.289v-.289c0-1.073,0-2.181-.008-3.315q0-.849,0-1.719V117.7h0c.595-.6.166-.166.3-.3,8.449,0,16.018.041,21.027.1l.2,0,0,.191c-.044,2.087-.08,3.782-.107,5.049a14.785,14.785,0,0,1-.087,1.736" transform="translate(46.745 59.329)" fill="#263238"/>
                <g id="Grupo_1082822" data-name="Grupo 1082822" transform="translate(135.187 124.816)" opacity="0.3">
                  <g id="Grupo_1082821" data-name="Grupo 1082821">
                    <g id="Grupo_1082820" data-name="Grupo 1082820" clip-path="url(#clip-path-6)">
                      <path id="Trazado_832284" data-name="Trazado 832284" d="M90.9,82.909l3.229,4.452s-.9,67.513-4.331,84.278Z" transform="translate(-89.796 -82.907)"/>
                    </g>
                  </g>
                </g>
              </g>
            </g>
          </g>
        </g>
      </g>
      <path id="Trazado_832285" data-name="Trazado 832285" d="M1456-9741h295" transform="translate(-961 11666)" fill="none" stroke="#707070" stroke-width="1"/>
    </g>
    <g id="Grupo_1083986" data-name="Grupo 1083986" transform="translate(-183.737 9126.674)">
      <path id="Trazado_832286" data-name="Trazado 832286" d="M188.21,167.6h40.41a11.26,11.26,0,0,1,1.674.537,5.292,5.292,0,0,1,3.065,5.119q0,16.579-.008,33.158a1.436,1.436,0,0,0,.4,1.051,11.869,11.869,0,0,1,2.815,5.391c.127.555.234,1.114.35,1.671v2.37c-.091.482-.168.967-.275,1.444a12.5,12.5,0,0,1-12.413,9.93q-17.535.012-35.071,0a5.454,5.454,0,0,1-5.686-5.655c0-.507,0-1.015,0-1.572a14.067,14.067,0,0,1-1.706-.013,8.891,8.891,0,0,1-2.3-.459,5.288,5.288,0,0,1,1.49-10.114,21.59,21.59,0,0,1,2.477-.015V203.27c-.608,0-1.178.008-1.748,0a5.267,5.267,0,0,1-3.673-1.4,5.067,5.067,0,0,1-1.544-5.329,5.009,5.009,0,0,1,4.274-3.828,24.759,24.759,0,0,1,2.73-.16v-7.062c-.683,0-1.274.015-1.865,0a5.322,5.322,0,0,1-5.008-7.2,5.39,5.39,0,0,1,5.1-3.461c.583-.009,1.166,0,1.771,0,0-.663-.011-1.234,0-1.806a5.068,5.068,0,0,1,2.213-4.357,14.125,14.125,0,0,1,2.525-1.066m27.481,57.118c-4.205-5.017-5.174-10.447-1.465-15.912,3.808-5.61,9.3-6.707,15.578-4.428v-.592q0-15.194,0-30.388c0-1.624-.624-2.243-2.261-2.243H189.277c-.158,0-.316,0-.474,0a1.776,1.776,0,0,0-1.772,1.775c-.02.572.014,1.146-.012,1.717a.638.638,0,0,0,.456.7,5.305,5.305,0,0,1-.019,9.643.616.616,0,0,0-.439.645q.027,3.406,0,6.812a.617.617,0,0,0,.421.657,5.305,5.305,0,0,1,0,9.667.617.617,0,0,0-.419.659c.014,2.211.021,4.423,0,6.635a.815.815,0,0,0,.546.88,5.049,5.049,0,0,1,2.985,4.376,4.7,4.7,0,0,1-2.328,4.73,2.042,2.042,0,0,0-1.193,2.36.951.951,0,0,1,0,.118,1.932,1.932,0,0,0,2.174,2.19h26.492m8.792-17.892a8.945,8.945,0,1,0,8.875,8.914,8.915,8.915,0,0,0-8.875-8.914m-41.115-24.889c.612,0,1.225.013,1.836,0a1.772,1.772,0,1,0,.026-3.543c-1.2-.022-2.409-.02-3.613,0a1.774,1.774,0,1,0,.034,3.546c.572.012,1.145,0,1.718,0m.046,17.774c.612,0,1.225.017,1.836,0a1.77,1.77,0,1,0-.006-3.541q-1.836-.035-3.672,0a1.77,1.77,0,1,0,.006,3.541c.611.02,1.224,0,1.836,0m-.017,17.776c.612,0,1.225.016,1.836,0a1.77,1.77,0,1,0,.028-3.541c-1.223-.026-2.449-.024-3.672,0a1.772,1.772,0,1,0,.031,3.543c.592.016,1.185,0,1.777,0" transform="translate(886 1920)" fill="#c3ccf3"/>
      <path id="Trazado_832287" data-name="Trazado 832287" d="M221.247,198.246c1.919-1.929,3.786-3.8,5.647-5.678a1.818,1.818,0,0,1,1.97-.6,1.75,1.75,0,0,1,.875,2.736,4.063,4.063,0,0,1-.4.438q-3.3,3.309-6.613,6.614a1.847,1.847,0,0,1-3.013.013c-1.23-1.225-2.452-2.459-3.686-3.682a1.811,1.811,0,0,1-.566-1.878,1.756,1.756,0,0,1,2.944-.756c.8.738,1.542,1.527,2.312,2.292.152.15.309.294.525.5" transform="translate(864.251 1906.512)" fill="#c3ccf3"/>
      <path id="Trazado_832288" data-name="Trazado 832288" d="M221.243,230.3c.47-.5.865-.937,1.281-1.355q2.212-2.224,4.44-4.434a1.778,1.778,0,1,1,2.526,2.488q-3.441,3.466-6.906,6.907a1.76,1.76,0,0,1-2.714.012q-1.942-1.908-3.851-3.85a1.778,1.778,0,1,1,2.5-2.51c.886.87,1.75,1.762,2.721,2.743" transform="translate(864.249 1888.735)" fill="#c3ccf3"/>
      <path id="Trazado_832289" data-name="Trazado 832289" d="M221.21,262.224c.177-.166.336-.307.486-.457,1.76-1.756,3.508-3.524,5.281-5.268a1.766,1.766,0,0,1,3.051.714,1.655,1.655,0,0,1-.449,1.689q-3.545,3.571-7.117,7.115a1.693,1.693,0,0,1-2.5.008q-2.062-2-4.06-4.06a1.766,1.766,0,1,1,2.5-2.5c.8.758,1.57,1.556,2.353,2.334.137.136.283.264.451.421" transform="translate(864.26 1870.941)" fill="#c3ccf3"/>
      <path id="Trazado_832290" data-name="Trazado 832290" d="M263.945,199.866c1.678,0,3.357,0,5.036,0a1.79,1.79,0,1,1,0,3.552q-5.094.006-10.189,0a1.79,1.79,0,1,1,0-3.552c1.718,0,3.436,0,5.154,0" transform="translate(841.254 1902.073)" fill="#c3ccf3"/>
      <path id="Trazado_832291" data-name="Trazado 832291" d="M263.837,235.422c-1.678,0-3.357,0-5.036,0a1.79,1.79,0,1,1-.02-3.552q5.094-.006,10.189,0a1.79,1.79,0,1,1,.02,3.552c-1.718.005-3.436,0-5.154,0" transform="translate(841.254 1884.293)" fill="#c3ccf3"/>
      <path id="Trazado_832292" data-name="Trazado 832292" d="M284.311,267.432c.638,0,1.189-.012,1.739,0a1.772,1.772,0,1,1,.026,3.543c-1.183.022-2.368.025-3.551,0a1.745,1.745,0,0,1-1.759-1.778q-.035-1.774,0-3.551a1.77,1.77,0,1,1,3.541.006c.02.568,0,1.137,0,1.778" transform="translate(827.937 1866.505)" fill="#c3ccf3"/>
    </g>
    <g id="Grupo_1083987" data-name="Grupo 1083987" transform="translate(-17.055 9328.268)">
      <path id="Trazado_832300" data-name="Trazado 832300" d="M44.894,245.372c.269.088.539.169.806.264a4.5,4.5,0,0,1,2.965,4.178c.01.261,0,.522,0,.852h.717l9.806.009a3.043,3.043,0,0,1,3.353,3.335q0,16.3,0,32.6a3.372,3.372,0,0,1-.026.61,1.217,1.217,0,0,1-2.412-.092,6.168,6.168,0,0,1-.012-.674q0-16.118,0-32.236c0-1.024-.074-1.1-1.124-1.1q-1.9,0-3.8.012a1.117,1.117,0,0,0-.209.069c0,.405,0,.845,0,1.285a3.649,3.649,0,0,1-3.756,3.753q-11.89.009-23.779,0a3.649,3.649,0,0,1-3.746-3.761c0-.425,0-.851,0-1.358-1.151,0-2.247,0-3.343,0-1.973-.008-1.792-.111-1.792,1.778q0,4.29,0,8.58v.7c.226-.179.362-.286.5-.395,3.9-3.152,8.235-4.045,12.892-2.114a12.047,12.047,0,0,1,7.825,10.608A12.425,12.425,0,0,1,26,285.707a30.477,30.477,0,0,1-3.725-.912c-.186-.045-.472-.081-.58.019-.876.824-1.72,1.681-2.591,2.544.091.118.148.2.211.274a1.187,1.187,0,0,1-.041,1.881,2.206,2.206,0,0,0-.744,1.869c.035,4.412.017,8.825.017,13.238,0,.987.071,1.061,1.027,1.061H59.1c.894,0,.992-.1.992-.973q0-3.218,0-6.435c0-.163-.006-.328,0-.49a1.2,1.2,0,0,1,1.209-1.2,1.167,1.167,0,0,1,1.227,1.182c.019,2.533.047,5.067-.013,7.6a2.931,2.931,0,0,1-2.844,2.768c-.183.008-.368,0-.552,0H19.532c-2.266,0-3.44-1.169-3.441-3.425q0-5.577,0-11.154v-.783c-.238.216-.4.352-.549.5-1.547,1.544-3.074,3.11-4.642,4.632a5.759,5.759,0,0,1-9.419-1.784,5.419,5.419,0,0,1,1.07-6.147c2.809-2.937,5.721-5.776,8.6-8.644.632-.629,1.192-.563,2.08.186.858-.858,1.727-1.713,2.572-2.592a.546.546,0,0,0,.023-.474,12.607,12.607,0,0,1,.141-10.676,1.906,1.906,0,0,0,.116-.771q.01-6.5.005-12.992a3.042,3.042,0,0,1,3.352-3.335l9.806-.009h.683c.026-.471.025-.877.075-1.276a4.433,4.433,0,0,1,3.456-3.9,2.064,2.064,0,0,0,.277-.113ZM27.246,283.313a10.016,10.016,0,0,0,10.127-10.095,10.09,10.09,0,1,0-20.18.132,9.985,9.985,0,0,0,10.054,9.963m25.247-30.2h-.705c-1.429,0-2.858.009-4.288,0a1.164,1.164,0,0,1-1.276-1.25c-.019-.632,0-1.266-.009-1.9a2.026,2.026,0,0,0-2.165-2.138q-4.747-.01-9.495,0a2.014,2.014,0,0,0-2.135,2.1c-.017.632.007,1.266-.009,1.9a1.177,1.177,0,0,1-1.306,1.284c-1.429.012-2.858,0-4.288,0h-.69c0,.372,0,.656,0,.94,0,1.412.323,1.739,1.718,1.739h22.97a5.661,5.661,0,0,0,.612-.011,1.146,1.146,0,0,0,1.056-1.021c.041-.523.009-1.051.009-1.646M12,283.907c-2.607,2.633-5.3,5.256-7.867,7.987a3.166,3.166,0,0,0,.3,4.339,3.333,3.333,0,0,0,4.777-.117c2.422-2.4,4.825-4.818,7.234-7.23.1-.1.181-.208.243-.279L12,283.907m3.151-.718,2.223,2.227,2.091-2.064-2.2-2.254-2.111,2.091" transform="translate(886 1920)" fill="#d5e0f0"/>
      <path id="Trazado_832301" data-name="Trazado 832301" d="M47.549,340.574a6.665,6.665,0,0,1,6.164-6.964c.992-.033,1.539.349,1.588,1.11.051.8-.465,1.277-1.462,1.338a4.092,4.092,0,1,0,3.765,6.2c.1-.174.186-.362.281-.542a1.224,1.224,0,1,1,2.207,1.051,6.081,6.081,0,0,1-2.21,2.717,6.311,6.311,0,0,1-6.78.458,6.238,6.238,0,0,1-3.552-5.37" transform="translate(862.262 1875.026)" fill="#d5e0f0"/>
      <path id="Trazado_832302" data-name="Trazado 832302" d="M89.258,338.263c1.774,0,3.548-.016,5.321.007a1.213,1.213,0,0,1,1.171,1.8,1.326,1.326,0,0,1-1.294.647H91.032q-3.364,0-6.728,0a4.485,4.485,0,0,1-.731-.042,1.188,1.188,0,0,1-1.018-1.249,1.158,1.158,0,0,1,1.078-1.13c.65-.046,1.3-.026,1.956-.028q1.835,0,3.67,0" transform="translate(844.421 1872.656)" fill="#d5e0f0"/>
      <path id="Trazado_832303" data-name="Trazado 832303" d="M90.545,293.114c1.592,0,3.185,0,4.777,0,.9,0,1.455.466,1.466,1.205.01.757-.566,1.243-1.494,1.244q-4.747,0-9.493,0c-.963,0-1.508-.441-1.517-1.212-.009-.8.528-1.237,1.546-1.238q2.358,0,4.716,0" transform="translate(843.539 1895.667)" fill="#d5e0f0"/>
      <path id="Trazado_832304" data-name="Trazado 832304" d="M58.752,341.073c1.268-1.269,2.369-2.416,3.527-3.5a1.708,1.708,0,0,1,1.161-.5,1.624,1.624,0,0,1,.995.751,1.043,1.043,0,0,1-.262,1.288c-.6.614-1.209,1.217-1.815,1.824q-1.212,1.213-2.427,2.425a1.31,1.31,0,0,1-2.157-.017q-.631-.625-1.256-1.256a1.289,1.289,0,0,1-.183-1.933c.555-.538,1.247-.466,1.926.226a5.442,5.442,0,0,1,.492.694" transform="translate(857.967 1873.263)" fill="#d5e0f0"/>
      <path id="Trazado_832305" data-name="Trazado 832305" d="M87.269,352.565c-1.1,0-2.2,0-3.307,0a1.254,1.254,0,0,1-1.41-1.2c-.016-.75.536-1.246,1.419-1.248q3.368-.009,6.736,0a1.233,1.233,0,1,1-.009,2.447c-1.143.008-2.286,0-3.429,0" transform="translate(844.421 1866.615)" fill="#d5e0f0"/>
      <path id="Trazado_832306" data-name="Trazado 832306" d="M88.6,307.4c-.978,0-1.956.009-2.934,0-.868-.011-1.383-.47-1.39-1.2a1.227,1.227,0,0,1,1.366-1.238q2.964-.023,5.929,0a1.259,1.259,0,0,1,1.4,1.216c.008.737-.545,1.219-1.439,1.229-.978.01-1.956,0-2.934,0" transform="translate(843.54 1889.635)" fill="#d5e0f0"/>
      <path id="Trazado_832307" data-name="Trazado 832307" d="M122.825,338.857A1.215,1.215,0,0,1,124,340.1a1.219,1.219,0,1,1-2.437-.092,1.21,1.21,0,0,1,1.264-1.147" transform="translate(824.539 1872.351)" fill="#d5e0f0"/>
      <path id="Trazado_832308" data-name="Trazado 832308" d="M75.53,258.459h2.076c.041,0,.082,0,.122,0a1.258,1.258,0,0,0,1.343-1.21,1.236,1.236,0,0,0-1.369-1.234q-2.076-.024-4.153,0c-.86.008-1.392.48-1.4,1.2-.011.738.54,1.226,1.43,1.243.651.013,1.3,0,1.954,0" transform="translate(849.725 1914.582)" fill="#d5e0f0"/>
      <path id="Trazado_832309" data-name="Trazado 832309" d="M46.905,299.949c1.767-1.77,3.52-3.535,5.288-5.286a2.047,2.047,0,0,1,.793-.535,1.1,1.1,0,0,1,1.319.522,1.129,1.129,0,0,1-.133,1.464c-.525.57-1.087,1.106-1.634,1.654q-2.271,2.273-4.544,4.544c-.838.836-1.416.842-2.24.022q-1.323-1.316-2.64-2.64c-.706-.709-.8-1.423-.264-1.972s1.287-.466,2.021.264q.932.929,1.863,1.859a1.243,1.243,0,0,0,.171.1" transform="translate(864.832 1895.177)" fill="#d5e0f0"/>
      <path id="Trazado_832310" data-name="Trazado 832310" d="M75.53,258.459c-.652,0-1.3.01-1.954,0-.89-.018-1.441-.506-1.43-1.244.011-.72.544-1.192,1.4-1.2,1.384-.013,2.769-.015,4.153,0a1.235,1.235,0,0,1,1.369,1.234,1.258,1.258,0,0,1-1.343,1.21c-.04,0-.081,0-.122,0H75.53" transform="translate(849.725 1914.582)" fill="#d5e0f0"/>
    </g>
    <g id="Grupo_1083988" data-name="Grupo 1083988" transform="translate(128 9347.646)">
      <path id="Trazado_832311" data-name="Trazado 832311" d="M17.025,158.944a6.249,6.249,0,0,1-3.17-2.093c-.58-.627-1.21-1.206-1.805-1.818a1.259,1.259,0,1,1,1.769-1.776c.851.828,1.677,1.682,2.524,2.514a1.721,1.721,0,0,0,2.726-.011c.61-.6,1.211-1.2,1.813-1.811.978-.986.956-1.777-.024-2.763-2.244-2.26-4.469-4.54-6.713-6.8q-2.95-2.972-5.926-5.917a10.657,10.657,0,0,0-.932-.826,1.561,1.561,0,0,0-1.912.133c-.838.78-1.658,1.583-2.433,2.425a1.625,1.625,0,0,0,.168,2.353c.872.9,1.769,1.766,2.647,2.656a1.2,1.2,0,0,1,.281,1.431,1.11,1.11,0,0,1-1.2.715,1.644,1.644,0,0,1-.871-.411c-.966-.918-1.919-1.853-2.832-2.824a4.131,4.131,0,0,1-.019-5.671c.793-.854,1.615-1.687,2.477-2.471a4.141,4.141,0,0,1,4.189-.9.818.818,0,0,0,.655-.049c1.247-1.2,2.462-2.427,3.686-3.649.086-.086.162-.181.241-.27a4.486,4.486,0,0,1,1.451-7.48,4.471,4.471,0,0,1,2.738-6.741,4.521,4.521,0,0,1,.479-3.411,4.414,4.414,0,0,1,2.708-2.028,13.257,13.257,0,0,1,.12-2.267,4.336,4.336,0,0,1,5.266-3.227,1.086,1.086,0,0,0,.762-.154,4.372,4.372,0,0,1,3.494-.44c2.7.489,5.4,1.026,8.1,1.522.507.093,1.041.037,1.551.123a4.314,4.314,0,0,1,3.644,5.082c-.019.123-.027.248-.046.429a4.443,4.443,0,0,1,3.282,5.451,4.571,4.571,0,0,1,3.329,5.545,4.342,4.342,0,0,1,3.252,3.2,4.4,4.4,0,0,1-1.319,4.382l3.062,3.059a2.9,2.9,0,0,1,.307.311,1.3,1.3,0,0,0,1.726.484,3.754,3.754,0,0,1,3.888.88c.877.8,1.721,1.638,2.523,2.512a4.091,4.091,0,0,1-.063,5.714q-6.773,6.838-13.618,13.6a4.129,4.129,0,0,1-5.857-.041c-.75-.723-1.493-1.454-2.211-2.209a4.062,4.062,0,0,1-.909-4.605.582.582,0,0,0-.174-.746c-1.511-1.493-3.007-3-4.522-4.493a.971.971,0,0,0-.576-.28c-1.351-.056-2.7-.081-4.056-.109a5.6,5.6,0,0,0-1.368.034,2.914,2.914,0,0,0-1.311.6c-1.423,1.344-2.781,2.757-4.178,4.129a.574.574,0,0,0-.142.792,4.1,4.1,0,0,1-.774,4.736,22.6,22.6,0,0,1-2.269,2.233,15.171,15.171,0,0,1-2.255,1.25Zm-6.7-22.206,11.563,11.622c1.432-1.437,2.912-2.9,4.367-4.39a3.976,3.976,0,0,1,2.826-1.278,31.281,31.281,0,0,1,3.492.065c2.033.181,3.845-.076,5.2-1.841a1.205,1.205,0,0,1,1.868-.121,1.282,1.282,0,0,1-.1,1.887c-.538.608-1.04,1.249-1.5,1.808l3.83,3.865,11.363-11.4-3.948-3.984c-.257.244-.54.553-.863.811a1.222,1.222,0,0,1-1.811-.251,1.263,1.263,0,0,1,.228-1.694c.918-.936,1.872-1.84,2.772-2.794a1.8,1.8,0,0,0-.021-2.54,1.824,1.824,0,0,0-2.541-.078c-.363.311-.685.67-1.029,1a1.283,1.283,0,0,1-1.929.144,1.305,1.305,0,0,1,.161-1.93c.687-.7,1.4-1.369,2.064-2.089a1.837,1.837,0,0,0-2.613-2.582c-.387.347-.741.731-1.113,1.1a1.316,1.316,0,0,1-1.976.162A1.3,1.3,0,0,1,40.8,120.3c.744-.757,1.521-1.485,2.237-2.268a1.8,1.8,0,0,0-.1-2.581,1.835,1.835,0,0,0-2.545.037c-.4.368-.764.768-1.154,1.143a1.271,1.271,0,1,1-1.758-1.8c.716-.727,1.444-1.442,2.166-2.165a1.8,1.8,0,0,0,.568-1.584,1.841,1.841,0,0,0-3.133-1.068c-1.075,1.046-2.118,2.124-3.194,3.168a.649.649,0,0,0-.173.893A4.327,4.327,0,0,1,31.141,120a12.665,12.665,0,0,1-1.362.288c-.024.1-.06.217-.077.338a4.251,4.251,0,0,1-3.974,3.96c-.373.053-.41.237-.442.534a4.285,4.285,0,0,1-3.808,3.855c-.179.023-.355.065-.489.09a13.281,13.281,0,0,1-.281,1.336,4.377,4.377,0,0,1-5.978,2.617c-.187-.082-.53-.129-.637-.024-1.3,1.257-2.571,2.547-3.767,3.746m51.1,4.416a7.472,7.472,0,0,0-.74-1.258c-.638-.711-1.336-1.37-2.024-2.036a1.685,1.685,0,0,0-2.592.012q-6.634,6.609-13.251,13.236a1.686,1.686,0,0,0-.029,2.588q1,1.03,2.034,2.027a1.661,1.661,0,0,0,2.541.029q6.684-6.648,13.333-13.331a5.907,5.907,0,0,0,.729-1.268M25.1,122.111c1.068-.059,1.652-.4,1.946-1.135a1.762,1.762,0,0,0-.388-2.019c-1.507-1.525-3.02-3.046-4.556-4.541a1.838,1.838,0,1,0-2.567,2.629c1.473,1.5,2.952,3,4.47,4.45a4.205,4.205,0,0,0,1.094.617m4.568-4.3a1.993,1.993,0,0,0,1.926-1.958,1.206,1.206,0,0,0-.82-1.224,10.234,10.234,0,0,1-5.564-5.6,1.162,1.162,0,0,0-.629-.578,1.759,1.759,0,0,0-2.056.768,1.81,1.81,0,0,0,.268,2.292c1.871,1.894,3.75,3.78,5.659,5.634a5.156,5.156,0,0,0,1.216.666m-6.791,6.779a3.506,3.506,0,0,0-.474-1.05c-1.235-1.3-2.489-2.575-3.8-3.8a1.764,1.764,0,0,0-2.393.12,1.722,1.722,0,0,0-.2,2.379c1.241,1.344,2.545,2.635,3.883,3.884a1.623,1.623,0,0,0,1.938.135,1.969,1.969,0,0,0,1.041-1.67m-4.463,4.325a1.608,1.608,0,0,0-.222-.695,15.5,15.5,0,0,0-2.062-2.042,1.686,1.686,0,0,0-2.24.422,1.81,1.81,0,0,0-.041,2.3,13.257,13.257,0,0,0,1.639,1.614,1.678,1.678,0,0,0,1.933.149,1.853,1.853,0,0,0,.993-1.748m9.2-21.295-.114.283a7.915,7.915,0,0,0,3.7,4.192l3.248-3.245-6.829-1.23" transform="translate(886 1909.748)" fill="#cfddb4"/>
      <path id="Trazado_832312" data-name="Trazado 832312" d="M19.881,86.665c.334-.394.553-.867.9-1.007a1.945,1.945,0,0,1,1.27.109c.3.114.525.456.775.705q1.9,1.891,3.795,3.787a1.3,1.3,0,0,1,.174,1.93,1.313,1.313,0,0,1-1.972-.168c-1.416-1.406-2.835-2.808-4.229-4.235a7.032,7.032,0,0,1-.717-1.123" transform="translate(876.06 1919.552)" fill="#cfddb4"/>
      <path id="Trazado_832313" data-name="Trazado 832313" d="M98.349,85.4a1.277,1.277,0,0,1,1.346.735,1.225,1.225,0,0,1-.281,1.436q-1.409,1.419-2.827,2.83c-.545.545-1.082,1.1-1.639,1.631a1.272,1.272,0,0,1-1.842.086,1.252,1.252,0,0,1,.046-1.839q2.216-2.247,4.471-4.455a2.837,2.837,0,0,1,.725-.425" transform="translate(839.637 1919.649)" fill="#cfddb4"/>
      <path id="Trazado_832314" data-name="Trazado 832314" d="M63.56,88.759c0,.895.009,1.79,0,2.684a1.243,1.243,0,0,1-1.22,1.371,1.262,1.262,0,0,1-1.284-1.377q-.017-2.684,0-5.368a1.258,1.258,0,1,1,2.5.007c.011.895,0,1.789,0,2.684" transform="translate(855.478 1920)" fill="#cfddb4"/>
      <path id="Trazado_832315" data-name="Trazado 832315" d="M16.071,194.736a1.233,1.233,0,0,1-1.274-1.25,1.251,1.251,0,1,1,2.5.016,1.229,1.229,0,0,1-1.227,1.234" transform="translate(878.602 1866.231)" fill="#cfddb4"/>
      <path id="Trazado_832316" data-name="Trazado 832316" d="M84.224,170.218a1.223,1.223,0,0,1-1.265-1.192,1.256,1.256,0,0,1,1.226-1.311,1.287,1.287,0,0,1,1.28,1.27,1.258,1.258,0,0,1-1.24,1.234" transform="translate(844.522 1878.49)" fill="#cfddb4"/>
    </g>
  </g>
</svg>
