<svg xmlns="http://www.w3.org/2000/svg" xmlns:xlink="http://www.w3.org/1999/xlink" width="400" height="236" viewBox="0 0 400 236">
  <defs>
    <clipPath id="clip-path">
      <rect id="Rectángulo_385349" data-name="Rectángulo 385349" width="333.916" height="198.312" fill="none"/>
    </clipPath>
    <clipPath id="clip-path-5">
      <rect id="Rectángulo_385337" data-name="Rectángulo 385337" width="266.764" height="84.493" fill="none"/>
    </clipPath>
    <clipPath id="clip-path-8">
      <rect id="Rectángulo_385342" data-name="Rectángulo 385342" width="34.709" height="40.078" fill="none"/>
    </clipPath>
    <clipPath id="clip-path-9">
      <rect id="Rectángulo_385340" data-name="Rectángulo 385340" width="17.267" height="29.589" fill="none"/>
    </clipPath>
    <clipPath id="clip-path-10">
      <rect id="Rectángulo_385341" data-name="Rectángulo 385341" width="0.479" height="25.234" fill="none"/>
    </clipPath>
    <clipPath id="clip-path-13">
      <rect id="Rectángulo_385347" data-name="Rectángulo 385347" width="21.426" height="33.225" fill="none"/>
    </clipPath>
  </defs>
  <g id="Grupo_1083640" data-name="Grupo 1083640" transform="translate(-180 -11990)">
    <g id="Grupo_1083639" data-name="Grupo 1083639" transform="translate(223 12008.895)">
      <g id="Grupo_1083638" data-name="Grupo 1083638" clip-path="url(#clip-path)">
        <g id="Grupo_1083610" data-name="Grupo 1083610">
          <g id="Grupo_1083609" data-name="Grupo 1083609" clip-path="url(#clip-path)">
            <path id="Trazado_834330" data-name="Trazado 834330" d="M556.109,111.816l4.268-7.021.024.1-2.261-1.378a2.008,2.008,0,0,1-.786-1.115,2.13,2.13,0,0,1-.076-.689l.016-.657.014-.657a2.127,2.127,0,0,1,.112-.689,2.066,2.066,0,0,1,.85-1.094l2.328-1.269-.062.206-3.921-7.223.263.079-2.338,1.263a2.122,2.122,0,0,1-2.1-.174l-.554-.339-.552-.342a2.152,2.152,0,0,1-.573-.46,2.174,2.174,0,0,1-.531-1.346l.075-2.658.222.237-8.212-.241.251-.236-.08,2.659a2.174,2.174,0,0,1-.62,1.326,2.221,2.221,0,0,1-.6.431l-.581.293-.564.323a2.206,2.206,0,0,1-.694.267,2.174,2.174,0,0,1-1.453-.217l-2.265-1.393.359-.084L531.722,96.7l-.079-.34,2.251,1.407a2.139,2.139,0,0,1,.832,1.2,2.244,2.244,0,0,1,.075.731l-.024.654-.022.655a2.281,2.281,0,0,1-.124.722,2.17,2.17,0,0,1-.9,1.142l-2.341,1.256.094-.311,3.864,7.253-.28-.085,2.348-1.238a2.124,2.124,0,0,1,1.418-.107,2.226,2.226,0,0,1,.653.294l.556.348.557.346a2.193,2.193,0,0,1,.548.456,2.066,2.066,0,0,1,.511,1.314l-.091,2.649-.148-.158,8.21.312-.1.093.11-2.643a1.977,1.977,0,0,1,.585-1.2,12.132,12.132,0,0,1,2.347-1.232,1.953,1.953,0,0,1,1.3.2Zm0,0-2.258-1.367a1.89,1.89,0,0,0-1.263-.169,12.371,12.371,0,0,0-2.276,1.246,1.848,1.848,0,0,0-.526,1.133l-.062,2.635,0,.1-.1,0-8.213-.2-.152,0,0-.154.064-2.632a1.725,1.725,0,0,0-.439-1.094,1.825,1.825,0,0,0-.466-.38l-.568-.345-.567-.347a1.858,1.858,0,0,0-.549-.24,1.741,1.741,0,0,0-1.164.1l-2.312,1.251-.181.1-.1-.183-3.9-7.232-.109-.2.2-.11,2.31-1.249a1.7,1.7,0,0,0,.7-.9,1.8,1.8,0,0,0,.1-.574l.02-.665.023-.666a1.775,1.775,0,0,0-.061-.577,1.654,1.654,0,0,0-.646-.926l-2.233-1.385-.21-.13.13-.211,4.319-6.989.137-.221.222.137,2.235,1.385a1.657,1.657,0,0,0,1.11.17,1.714,1.714,0,0,0,.535-.2l.584-.332.6-.3a1.735,1.735,0,0,0,.468-.332,1.68,1.68,0,0,0,.481-1.02l.087-2.627.008-.244.242.008,8.211.269.23.008-.008.229L550.68,89a1.688,1.688,0,0,0,.868,1.433l.571.355.57.357a1.72,1.72,0,0,0,.527.247,1.74,1.74,0,0,0,1.151-.094l2.326-1.228.172-.091.09.17,3.848,7.262.072.135-.134.071-2.323,1.236a1.8,1.8,0,0,0-.748.944,10.086,10.086,0,0,0-.1,2.551,1.8,1.8,0,0,0,.687,1.012l2.226,1.412.063.04-.039.062Z" transform="translate(-253.694 -41.022)" fill="#ebebeb"/>
            <path id="Trazado_834331" data-name="Trazado 834331" d="M557.285,113.379a6.859,6.859,0,0,1-10.779-6.595,6.837,6.837,0,0,1,7.981-5.727,6.9,6.9,0,0,1,4.443,2.859,7.149,7.149,0,0,1,1.063,2.445,6.678,6.678,0,0,1,.04,2.648,6.77,6.77,0,0,1-2.748,4.371m0,0A6.731,6.731,0,0,0,559.958,109a6.6,6.6,0,0,0-10.374-6.341,6.611,6.611,0,0,0-1.582,9.1,6.635,6.635,0,0,0,4.272,2.755,6.786,6.786,0,0,0,5.01-1.131" transform="translate(-261.076 -48.234)" fill="#ebebeb"/>
            <path id="Trazado_834332" data-name="Trazado 834332" d="M34.9,183.995a1.371,1.371,0,0,1,.67,1.271c-.007.14-.01.282-.01.424s0,.286.01.427a1.367,1.367,0,0,1-.667,1.266l-1.531.883,2.876,4.986,1.53-.883a1.369,1.369,0,0,1,1.435.051,8.091,8.091,0,0,0,.742.43,1.368,1.368,0,0,1,.756,1.216v1.762h5.757v-1.762a1.367,1.367,0,0,1,.756-1.216,8.233,8.233,0,0,0,.742-.43,1.368,1.368,0,0,1,1.435-.051l1.53.883,2.876-4.986-1.537-.888a1.364,1.364,0,0,1-.666-1.264c.007-.14.01-.282.01-.424s0-.284-.01-.424a1.37,1.37,0,0,1,.67-1.269l1.533-.883-2.876-4.985-1.526.881a1.368,1.368,0,0,1-1.435-.049,8.1,8.1,0,0,0-.746-.43,1.368,1.368,0,0,1-.757-1.216v-1.762H40.707v1.762a1.368,1.368,0,0,1-.757,1.216,8.1,8.1,0,0,0-.745.43,1.369,1.369,0,0,1-1.435.049l-1.525-.881-2.876,4.985Zm8.687-3.023a4.715,4.715,0,1,1-4.712,4.717,4.719,4.719,0,0,1,4.712-4.717" transform="translate(-15.943 -83.877)" fill="#ebebeb"/>
            <path id="Trazado_834333" data-name="Trazado 834333" d="M577.889,158.953a1.37,1.37,0,0,1,.67,1.271c-.007.14-.01.281-.01.424s0,.285.01.427a1.365,1.365,0,0,1-.667,1.265l-1.531.884,2.876,4.986,1.53-.883a1.365,1.365,0,0,1,1.435.051,7.968,7.968,0,0,0,.742.429,1.369,1.369,0,0,1,.756,1.216v1.761h5.757v-1.761a1.368,1.368,0,0,1,.756-1.216,8.1,8.1,0,0,0,.742-.429,1.365,1.365,0,0,1,1.435-.051l1.53.883,2.876-4.986-1.537-.888a1.365,1.365,0,0,1-.666-1.264c.007-.14.01-.283.01-.423s0-.284-.01-.424a1.368,1.368,0,0,1,.67-1.27l1.533-.883-2.876-4.986-1.526.882a1.369,1.369,0,0,1-1.435-.049,8.1,8.1,0,0,0-.746-.43,1.368,1.368,0,0,1-.757-1.216V150.51H583.7v1.762a1.369,1.369,0,0,1-.757,1.216,8.087,8.087,0,0,0-.745.43,1.37,1.37,0,0,1-1.435.049l-1.525-.882-2.876,4.986Zm8.687-3.023a4.714,4.714,0,1,1-4.712,4.718,4.719,4.719,0,0,1,4.712-4.718" transform="translate(-275.381 -71.913)" fill="#ebebeb"/>
            <path id="Trazado_834334" data-name="Trazado 834334" d="M71.6,66.716l-45.75-.07s2.278-2.958,4.788-3.324c0,0,4.9-14.513,13.065-14.6,7.592-.085,10.621,8.946,10.621,8.946s3.523-4.043,6.88-2.186,5.252,7.158,5.252,7.158,3.776,2.042,5.144,4.081" transform="translate(-12.35 -23.277)" fill="#ebebeb"/>
            <path id="Trazado_834335" data-name="Trazado 834335" d="M502.8,18.555l57.855.089s.006-3.7-7.964-4.433c0,0-7.252-16.168-18.364-14.014-6.921,1.341-10.472,10.835-10.472,10.835s-5.216-7.483-9.4-6.043-6.68,9.395-6.68,9.395-4.316,2.083-4.973,4.172" transform="translate(-240.233 0)" fill="#ebebeb"/>
            <path id="Trazado_834336" data-name="Trazado 834336" d="M156.17,18.412l39.339.061s-3.707-3.461-5.357-3.464S183.7,3.4,177.55,3.883,168.118,13,168.118,13s-7.476-2.356-11.948,5.412" transform="translate(-74.617 -1.848)" fill="#ebebeb"/>
            <path id="Trazado_834337" data-name="Trazado 834337" d="M395.041,66.461l33.642.052s-1.669-2.181-3.513-2.456c0,0-3.57-10.683-9.575-10.768-5.582-.079-7.83,6.554-7.83,6.554s-2.581-2.98-5.054-1.623-3.878,5.252-3.878,5.252a13.269,13.269,0,0,0-3.792,2.989" transform="translate(-188.748 -25.461)" fill="#ebebeb"/>
          </g>
        </g>
        <g id="Grupo_1083612" data-name="Grupo 1083612">
          <g id="Grupo_1083611" data-name="Grupo 1083611" clip-path="url(#clip-path)">
            <path id="Trazado_834338" data-name="Trazado 834338" d="M177.565,45.707a17.053,17.053,0,1,0,22.209,9.4,17.05,17.05,0,0,0-22.209-9.4m9.4,23.182a7.964,7.964,0,1,1,4.391-10.371,7.962,7.962,0,0,1-4.391,10.371" transform="translate(-79.75 -21.24)" fill="#ffc727"/>
            <path id="Trazado_834339" data-name="Trazado 834339" d="M186.79,41.939,180.712,44.4,179.3,39.965l5.405-2.191Z" transform="translate(-85.67 -18.048)" fill="#ffc727"/>
            <path id="Trazado_834340" data-name="Trazado 834340" d="M166.956,57.3,164.4,63.34,160.267,61.2l2.273-5.372Z" transform="translate(-76.574 -26.673)" fill="#ffc727"/>
            <path id="Trazado_834341" data-name="Trazado 834341" d="M163.847,82.311l2.463,6.077L161.872,89.8l-2.191-5.405Z" transform="translate(-76.295 -39.328)" fill="#ffc727"/>
            <path id="Trazado_834342" data-name="Trazado 834342" d="M179.209,102.873l6.039,2.556-2.143,4.134-5.372-2.273Z" transform="translate(-84.92 -49.152)" fill="#ffc727"/>
            <path id="Trazado_834343" data-name="Trazado 834343" d="M204.219,106.038l6.077-2.463,1.408,4.438L206.3,110.2Z" transform="translate(-97.575 -49.487)" fill="#ffc727"/>
            <path id="Trazado_834344" data-name="Trazado 834344" d="M224.781,89.866l2.556-6.039,4.134,2.143L229.2,91.341Z" transform="translate(-107.399 -40.052)" fill="#ffc727"/>
            <path id="Trazado_834345" data-name="Trazado 834345" d="M227.946,64.882,225.482,58.8,229.92,57.4l2.191,5.405Z" transform="translate(-107.734 -27.424)" fill="#ffc727"/>
            <path id="Trazado_834346" data-name="Trazado 834346" d="M211.774,45.048l-6.039-2.556,2.143-4.133,5.371,2.273Z" transform="translate(-98.298 -18.328)" fill="#ffc727"/>
            <path id="Trazado_834347" data-name="Trazado 834347" d="M265.257,97.345a20.406,20.406,0,1,0,20.4,20.408,20.429,20.429,0,0,0-20.4-20.408m0,36.469a16.063,16.063,0,1,1,16.053-16.062,16.059,16.059,0,0,1-16.053,16.062m0-36.469a20.406,20.406,0,1,0,20.4,20.408,20.429,20.429,0,0,0-20.4-20.408m0,36.469a16.063,16.063,0,1,1,16.053-16.062,16.059,16.059,0,0,1-16.053,16.062m0-50.463a34.4,34.4,0,1,0,34.389,34.4,34.4,34.4,0,0,0-34.389-34.4m0,56.763a22.364,22.364,0,1,1,22.354-22.362,22.391,22.391,0,0,1-22.354,22.362m0-42.77a20.406,20.406,0,1,0,20.4,20.408,20.429,20.429,0,0,0-20.4-20.408m0,36.469a16.063,16.063,0,1,1,16.053-16.062,16.059,16.059,0,0,1-16.053,16.062" transform="translate(-110.301 -39.825)" fill="#ffc727"/>
            <path id="Trazado_834348" data-name="Trazado 834348" d="M297.249,77.355h-7.875l.784-7.861h6.307Z" transform="translate(-138.261 -33.204)" fill="#ffc727"/>
            <path id="Trazado_834349" data-name="Trazado 834349" d="M261.864,83.475l-6.821,3.938-3.251-7.2,5.462-3.154Z" transform="translate(-120.305 -36.818)" fill="#ffc727"/>
            <path id="Trazado_834350" data-name="Trazado 834350" d="M235.1,107.212l-3.938,6.821-6.416-4.61,3.154-5.462Z" transform="translate(-107.383 -49.672)" fill="#ffc727"/>
            <path id="Trazado_834351" data-name="Trazado 834351" d="M224.85,141.489v7.875l-7.861-.784v-6.307Z" transform="translate(-103.676 -67.603)" fill="#ffc727"/>
            <path id="Trazado_834352" data-name="Trazado 834352" d="M230.969,174.864l3.938,6.821-7.2,3.251-3.154-5.462Z" transform="translate(-107.29 -83.549)" fill="#ffc727"/>
            <path id="Trazado_834353" data-name="Trazado 834353" d="M254.707,201.369l6.821,3.938-4.61,6.416-5.462-3.154Z" transform="translate(-120.144 -96.213)" fill="#ffc727"/>
            <path id="Trazado_834354" data-name="Trazado 834354" d="M288.984,213.9h7.875l-.784,7.861h-6.308Z" transform="translate(-138.074 -102.201)" fill="#ffc727"/>
            <path id="Trazado_834355" data-name="Trazado 834355" d="M322.358,205.5l6.821-3.938,3.251,7.2-5.462,3.154Z" transform="translate(-154.021 -96.306)" fill="#ffc727"/>
            <path id="Trazado_834356" data-name="Trazado 834356" d="M348.863,182.022,352.8,175.2l6.416,4.61-3.154,5.462Z" transform="translate(-166.684 -83.71)" fill="#ffc727"/>
            <path id="Trazado_834357" data-name="Trazado 834357" d="M361.4,149.755v-7.875l7.861.784v6.307Z" transform="translate(-172.672 -67.789)" fill="#ffc727"/>
            <path id="Trazado_834358" data-name="Trazado 834358" d="M353,114.37l-3.938-6.821,7.2-3.251,3.154,5.462Z" transform="translate(-166.777 -49.833)" fill="#ffc727"/>
            <path id="Trazado_834359" data-name="Trazado 834359" d="M329.516,87.607,322.7,83.669l4.61-6.416,5.462,3.154Z" transform="translate(-154.182 -36.911)" fill="#ffc727"/>
            <path id="Trazado_834360" data-name="Trazado 834360" d="M427.911,113.945a21.836,21.836,0,1,0-8.33,29.736,21.838,21.838,0,0,0,8.33-29.736m-27.919,15.7a10.2,10.2,0,1,1,13.883,3.888,10.195,10.195,0,0,1-13.883-3.888" transform="translate(-184.924 -49.121)" fill="#ffc727"/>
            <path id="Trazado_834361" data-name="Trazado 834361" d="M463.964,123l-4.117-7.318,5.409-2.509,3.661,6.509Z" transform="translate(-219.712 -54.072)" fill="#ffc727"/>
            <path id="Trazado_834362" data-name="Trazado 834362" d="M440.608,100.777l-8.085-2.264,2.05-5.6,7.191,2.014Z" transform="translate(-206.656 -44.394)" fill="#ffc727"/>
            <path id="Trazado_834363" data-name="Trazado 834363" d="M408.083,100.4l-7.318,4.117-2.509-5.408,6.509-3.661Z" transform="translate(-190.284 -45.606)" fill="#ffc727"/>
            <path id="Trazado_834364" data-name="Trazado 834364" d="M385.862,123.6l-2.264,8.086-5.6-2.05,2.014-7.191Z" transform="translate(-180.606 -58.504)" fill="#ffc727"/>
            <path id="Trazado_834365" data-name="Trazado 834365" d="M385.488,155.592l4.117,7.318-5.408,2.509-3.661-6.509Z" transform="translate(-181.817 -74.341)" fill="#ffc727"/>
            <path id="Trazado_834366" data-name="Trazado 834366" d="M408.688,179.61l8.086,2.264-2.05,5.6-7.191-2.014Z" transform="translate(-194.716 -85.816)" fill="#ffc727"/>
            <path id="Trazado_834367" data-name="Trazado 834367" d="M440.676,178.88l7.318-4.117,2.509,5.408-6.509,3.661Z" transform="translate(-210.552 -83.501)" fill="#ffc727"/>
            <path id="Trazado_834368" data-name="Trazado 834368" d="M464.7,155.523l2.264-8.086,5.6,2.05-2.014,7.191Z" transform="translate(-222.028 -70.444)" fill="#ffc727"/>
          </g>
        </g>
        <path id="Trazado_834369" data-name="Trazado 834369" d="M339.4,206.882v84.493H72.637V270.233h66.691V249.116h66.686V228h66.7V206.882Z" transform="translate(-34.705 -98.847)" fill="#ffc727"/>
        <g id="Grupo_1083617" data-name="Grupo 1083617">
          <g id="Grupo_1083616" data-name="Grupo 1083616" clip-path="url(#clip-path)">
            <g id="Grupo_1083615" data-name="Grupo 1083615" transform="translate(37.931 108.035)" opacity="0.1">
              <g id="Grupo_1083614" data-name="Grupo 1083614">
                <g id="Grupo_1083613" data-name="Grupo 1083613" clip-path="url(#clip-path-5)">
                  <path id="Trazado_834370" data-name="Trazado 834370" d="M339.4,206.882v84.493H72.637V270.233h66.691V249.116h66.686V228h66.7V206.882Z" transform="translate(-72.637 -206.882)"/>
                </g>
              </g>
            </g>
          </g>
        </g>
        <path id="Trazado_834371" data-name="Trazado 834371" d="M370.987,206.882v84.493H104.223V270.233h66.691V249.116H237.6V228h66.7V206.882Z" transform="translate(-49.797 -98.847)" fill="#ffc727"/>
        <path id="Trazado_834372" data-name="Trazado 834372" d="M107.654,296.926l-.879-2.459L141.106,282.2l.193-.01,31.535-1.558L206.711,261.7l31.743,2.218,31.379-21.986,35.554,1.616,26.082-24.271,1.779,1.911L306.364,246.2,270.6,244.577l-31.409,22.007-31.889-2.229-33.732,18.853-31.953,1.58Z" transform="translate(-51.016 -104.767)" fill="#263238"/>
        <path id="Trazado_834373" data-name="Trazado 834373" d="M536.466,221.328l3.818-12.445L527.6,211.8Z" transform="translate(-252.082 -99.803)" fill="#263238"/>
        <g id="Grupo_1083619" data-name="Grupo 1083619">
          <g id="Grupo_1083618" data-name="Grupo 1083618" clip-path="url(#clip-path)">
            <path id="Trazado_834374" data-name="Trazado 834374" d="M173.336,339.443a3.844,3.844,0,1,1-3.844-3.844,3.844,3.844,0,0,1,3.844,3.844" transform="translate(-79.145 -160.347)" fill="#fff"/>
            <path id="Trazado_834375" data-name="Trazado 834375" d="M168.3,343.4a5.15,5.15,0,1,1,5.15-5.15,5.156,5.156,0,0,1-5.15,5.15m0-7.689a2.539,2.539,0,1,0,2.539,2.539,2.542,2.542,0,0,0-2.539-2.539" transform="translate(-77.95 -159.152)" fill="#263238"/>
            <path id="Trazado_834376" data-name="Trazado 834376" d="M420.217,261.69a3.844,3.844,0,1,1-3.844-3.844,3.844,3.844,0,0,1,3.844,3.844" transform="translate(-197.103 -123.197)" fill="#fff"/>
            <path id="Trazado_834377" data-name="Trazado 834377" d="M415.178,265.646a5.15,5.15,0,1,1,5.149-5.151,5.156,5.156,0,0,1-5.149,5.151m0-7.689a2.539,2.539,0,1,0,2.538,2.538,2.542,2.542,0,0,0-2.538-2.538" transform="translate(-195.908 -122.002)" fill="#263238"/>
            <path id="Trazado_834378" data-name="Trazado 834378" d="M299.172,299.538a3.844,3.844,0,1,1-3.845-3.844,3.844,3.844,0,0,1,3.845,3.844" transform="translate(-139.268 -141.28)" fill="#fff"/>
            <path id="Trazado_834379" data-name="Trazado 834379" d="M294.133,303.495a5.15,5.15,0,1,1,5.15-5.151,5.156,5.156,0,0,1-5.15,5.151m0-7.689a2.539,2.539,0,1,0,2.539,2.539,2.542,2.542,0,0,0-2.539-2.539" transform="translate(-138.074 -140.086)" fill="#263238"/>
          </g>
        </g>
        <g id="Grupo_1083630" data-name="Grupo 1083630">
          <g id="Grupo_1083629" data-name="Grupo 1083629" clip-path="url(#clip-path)">
            <g id="Grupo_1083628" data-name="Grupo 1083628" transform="translate(251.042 12.12)" style="isolation: isolate">
              <g id="Grupo_1083627" data-name="Grupo 1083627">
                <g id="Grupo_1083626" data-name="Grupo 1083626" clip-path="url(#clip-path-8)">
                  <path id="Trazado_834380" data-name="Trazado 834380" d="M497.979,65.391,498,43.3a3.413,3.413,0,0,1-.182,1.109,4.008,4.008,0,0,1-.589,1.107c-1.935,2.606-7.461,4.376-16.476,5.278l-.02,22.095c9.014-.9,14.54-2.672,16.475-5.278a4.008,4.008,0,0,0,.59-1.107,3.441,3.441,0,0,0,.182-1.109" transform="translate(-480.732 -32.806)" fill="#ffc727"/>
                  <g id="Grupo_1083622" data-name="Grupo 1083622" transform="translate(0 10.49)" opacity="0.1">
                    <g id="Grupo_1083621" data-name="Grupo 1083621">
                      <g id="Grupo_1083620" data-name="Grupo 1083620" clip-path="url(#clip-path-9)">
                        <path id="Trazado_834381" data-name="Trazado 834381" d="M497.979,65.391,498,43.3a3.413,3.413,0,0,1-.182,1.109,4.008,4.008,0,0,1-.589,1.107c-1.935,2.606-7.461,4.376-16.476,5.278l-.02,22.095c9.014-.9,14.54-2.672,16.475-5.278a4.008,4.008,0,0,0,.59-1.107,3.441,3.441,0,0,0,.182-1.109" transform="translate(-480.732 -43.296)"/>
                      </g>
                    </g>
                  </g>
                  <path id="Trazado_834382" data-name="Trazado 834382" d="M512.88,59.38a7.233,7.233,0,0,0,.232,1.6,6.942,6.942,0,0,1,.227,1.54l.02-22.095a6.91,6.91,0,0,0-.227-1.54,7.233,7.233,0,0,1-.232-1.6c-.006,6.628-.014,15.466-.02,22.095" transform="translate(-496.092 -29.934)" fill="#ffc727"/>
                  <g id="Grupo_1083625" data-name="Grupo 1083625" transform="translate(16.788 7.351)" opacity="0.4">
                    <g id="Grupo_1083624" data-name="Grupo 1083624">
                      <g id="Grupo_1083623" data-name="Grupo 1083623" clip-path="url(#clip-path-10)">
                        <path id="Trazado_834383" data-name="Trazado 834383" d="M512.88,59.38a7.233,7.233,0,0,0,.232,1.6,6.942,6.942,0,0,1,.227,1.54l.02-22.095a6.91,6.91,0,0,0-.227-1.54,7.233,7.233,0,0,1-.232-1.6c-.006,6.628-.014,15.466-.02,22.095" transform="translate(-512.88 -37.285)"/>
                      </g>
                    </g>
                  </g>
                  <path id="Trazado_834384" data-name="Trazado 834384" d="M512.9,30.56l-.02,22.095a3.615,3.615,0,0,1,.226-1.268,4.306,4.306,0,0,1,.591-1.079c2.01-2.707,7.626-4.351,17.085-5l.02-22.095c-9.458.653-15.074,2.3-17.085,5a4.319,4.319,0,0,0-.591,1.079,3.626,3.626,0,0,0-.226,1.268" transform="translate(-496.092 -23.209)" fill="#ffc727"/>
                </g>
              </g>
            </g>
          </g>
        </g>
        <rect id="Rectángulo_385344" data-name="Rectángulo 385344" width="2.036" height="96.118" transform="translate(285.564 11.917)" fill="#263238"/>
        <path id="Trazado_834385" data-name="Trazado 834385" d="M537.874,195.654h11.4l-1.31-12.272h-8.78Z" transform="translate(-256.992 -87.619)" fill="#c7c7c7"/>
        <rect id="Rectángulo_385345" data-name="Rectángulo 385345" width="333.916" height="5.523" transform="translate(0 192.528)" fill="#c7c7c7"/>
        <g id="Grupo_1083632" data-name="Grupo 1083632">
          <g id="Grupo_1083631" data-name="Grupo 1083631" clip-path="url(#clip-path)">
            <path id="Trazado_834386" data-name="Trazado 834386" d="M32.661,368.682a13.121,13.121,0,0,1,.261,2.761,12.988,12.988,0,0,1-.261,2.761,12.987,12.987,0,0,1-.261-2.761,13.121,13.121,0,0,1,.261-2.761" transform="translate(-15.48 -176.154)" fill="#263238"/>
            <path id="Trazado_834387" data-name="Trazado 834387" d="M70.9,368.682a13.12,13.12,0,0,1,.261,2.761A12.987,12.987,0,0,1,70.9,374.2a12.987,12.987,0,0,1-.261-2.761,13.121,13.121,0,0,1,.261-2.761" transform="translate(-33.752 -176.154)" fill="#263238"/>
            <path id="Trazado_834388" data-name="Trazado 834388" d="M109.145,368.682a13.121,13.121,0,0,1,.261,2.761,12.987,12.987,0,0,1-.261,2.761,12.987,12.987,0,0,1-.261-2.761,13.121,13.121,0,0,1,.261-2.761" transform="translate(-52.024 -176.154)" fill="#263238"/>
            <path id="Trazado_834389" data-name="Trazado 834389" d="M147.387,368.682a13.122,13.122,0,0,1,.261,2.761,12.988,12.988,0,0,1-.261,2.761,12.954,12.954,0,0,1-.261-2.761,13.12,13.12,0,0,1,.261-2.761" transform="translate(-70.296 -176.154)" fill="#263238"/>
            <path id="Trazado_834390" data-name="Trazado 834390" d="M185.629,368.682a13.121,13.121,0,0,1,.261,2.761,12.985,12.985,0,0,1-.261,2.761,12.988,12.988,0,0,1-.261-2.761,13.121,13.121,0,0,1,.261-2.761" transform="translate(-88.567 -176.154)" fill="#263238"/>
            <path id="Trazado_834391" data-name="Trazado 834391" d="M223.872,368.682a13.12,13.12,0,0,1,.261,2.761,12.953,12.953,0,0,1-.261,2.761,12.988,12.988,0,0,1-.261-2.761,13.121,13.121,0,0,1,.261-2.761" transform="translate(-106.84 -176.154)" fill="#263238"/>
            <path id="Trazado_834392" data-name="Trazado 834392" d="M262.114,368.682a13.121,13.121,0,0,1,.261,2.761,12.988,12.988,0,0,1-.261,2.761,12.953,12.953,0,0,1-.261-2.761,13.121,13.121,0,0,1,.261-2.761" transform="translate(-125.111 -176.154)" fill="#263238"/>
            <path id="Trazado_834393" data-name="Trazado 834393" d="M300.356,368.682a13.117,13.117,0,0,1,.261,2.761,12.984,12.984,0,0,1-.261,2.761,12.953,12.953,0,0,1-.261-2.761,13.121,13.121,0,0,1,.261-2.761" transform="translate(-143.383 -176.154)" fill="#263238"/>
            <path id="Trazado_834394" data-name="Trazado 834394" d="M338.6,368.682a13.119,13.119,0,0,1,.261,2.761,12.988,12.988,0,0,1-.261,2.761,12.988,12.988,0,0,1-.261-2.761,13.123,13.123,0,0,1,.261-2.761" transform="translate(-161.655 -176.154)" fill="#263238"/>
            <path id="Trazado_834395" data-name="Trazado 834395" d="M376.84,368.682a13.119,13.119,0,0,1,.261,2.761,12.986,12.986,0,0,1-.261,2.761,12.955,12.955,0,0,1-.261-2.761,13.123,13.123,0,0,1,.261-2.761" transform="translate(-179.927 -176.154)" fill="#263238"/>
            <path id="Trazado_834396" data-name="Trazado 834396" d="M415.083,368.682a13.119,13.119,0,0,1,.261,2.761,12.951,12.951,0,0,1-.261,2.761,12.99,12.99,0,0,1-.261-2.761,13.123,13.123,0,0,1,.261-2.761" transform="translate(-198.199 -176.154)" fill="#263238"/>
            <path id="Trazado_834397" data-name="Trazado 834397" d="M453.325,368.682a13.119,13.119,0,0,1,.261,2.761,12.986,12.986,0,0,1-.261,2.761,12.957,12.957,0,0,1-.261-2.761,13.125,13.125,0,0,1,.261-2.761" transform="translate(-216.471 -176.154)" fill="#263238"/>
            <path id="Trazado_834398" data-name="Trazado 834398" d="M491.567,368.682a13.119,13.119,0,0,1,.261,2.761,12.986,12.986,0,0,1-.261,2.761,12.953,12.953,0,0,1-.261-2.761,13.119,13.119,0,0,1,.261-2.761" transform="translate(-234.742 -176.154)" fill="#263238"/>
            <path id="Trazado_834399" data-name="Trazado 834399" d="M529.809,368.682a13.123,13.123,0,0,1,.261,2.761,12.986,12.986,0,0,1-.261,2.761,12.951,12.951,0,0,1-.261-2.761,13.123,13.123,0,0,1,.261-2.761" transform="translate(-253.014 -176.154)" fill="#263238"/>
            <path id="Trazado_834400" data-name="Trazado 834400" d="M568.052,368.682a13.127,13.127,0,0,1,.261,2.761,12.99,12.99,0,0,1-.261,2.761,14.733,14.733,0,0,1,0-5.523" transform="translate(-271.286 -176.154)" fill="#263238"/>
            <path id="Trazado_834401" data-name="Trazado 834401" d="M606.294,368.682a14.733,14.733,0,0,1,0,5.523,12.986,12.986,0,0,1-.261-2.761,13.127,13.127,0,0,1,.261-2.761" transform="translate(-289.558 -176.154)" fill="#263238"/>
            <path id="Trazado_834402" data-name="Trazado 834402" d="M1.112,379.02l41.667-.127,41.667-.046,83.334-.088,83.334.087,41.667.046,41.667.128-41.667.128-41.667.046-83.334.087-83.334-.088-41.667-.046Z" transform="translate(-0.531 -180.968)" fill="#263238"/>
          </g>
        </g>
        <g id="Grupo_1083637" data-name="Grupo 1083637">
          <g id="Grupo_1083636" data-name="Grupo 1083636" clip-path="url(#clip-path)">
            <path id="Trazado_834403" data-name="Trazado 834403" d="M68.52,91.327c-9.489,7.439-17.93,16.454-17.582,20.127.468,4.942,6.745,14.848,10.479,19.689,1.1,1.423,12-7.339,10.824-8.861-1.415-1.839-8.889-11.238-8.969-11.457-.172-.469,6.295-12.74,7.911-15.635,2.7-4.834,1.549-7.166-2.663-3.864" transform="translate(-24.333 -42.899)" fill="#eb9481"/>
            <path id="Trazado_834404" data-name="Trazado 834404" d="M76.254,167.14c-2.507-1.625-6.334-6.954-6.763-8.594s8.415-8.448,10.1-8.007,9.7,6.566,10.66,9.46-11.4,8.825-14,7.142" transform="translate(-33.195 -71.916)" fill="#eb9481"/>
            <path id="Trazado_834405" data-name="Trazado 834405" d="M94.043,160.629c-1.582-.05-.735,1.843-.735,1.843s-1.876-2.431-3.527-1.851c-1.59.563-.486,2.814-.409,2.976-.1-.128-1.883-2.316-3.482-1.563-1.661.784-.165,2.853-.067,2.987-.133-.09-1.907-1.262-2.992-.414-1.863,1.46,2.591,4.58,2.844,6.479,0,0-3.17.8-3.258.838,0,0,4.177,3.055,6.72,2.572a1.653,1.653,0,0,0,1.367-1.555,2.592,2.592,0,0,0,2.515.581c.655-.286.781-1.588.781-1.588a2.07,2.07,0,0,0,2.135.3,1.991,1.991,0,0,0,.872-1.683,2.467,2.467,0,0,0,2.129-.376c1.526-1.509-1.506-9.44-4.894-9.549" transform="translate(-39.359 -76.701)" fill="#eb9481"/>
            <path id="Trazado_834406" data-name="Trazado 834406" d="M106.657,172.01A.022.022,0,0,0,106.7,172a14.726,14.726,0,0,0-3.607-7.985c-.065-.069-.205.006-.148.1a30.17,30.17,0,0,1,3.711,7.9" transform="translate(-49.18 -78.353)" fill="#263238"/>
            <path id="Trazado_834407" data-name="Trazado 834407" d="M100.108,174.626c.009.032.062.017.057-.018a13.8,13.8,0,0,0-4.476-8.467c-.088-.074-.241-.052-.146.041,1.6,1.569,3.808,5.806,4.565,8.444" transform="translate(-45.635 -79.36)" fill="#263238"/>
            <path id="Trazado_834408" data-name="Trazado 834408" d="M88.518,168.874a18.96,18.96,0,0,1,4.9,7.887c.014.039.068.015.065-.021a12.42,12.42,0,0,0-1.831-4.828,8.5,8.5,0,0,0-3.063-3.121c-.051-.03-.126.037-.076.083" transform="translate(-42.285 -80.643)" fill="#263238"/>
            <path id="Trazado_834409" data-name="Trazado 834409" d="M93.153,162.275a9.649,9.649,0,0,0-1.319-1.18,3.235,3.235,0,0,0-1.548-.681,1.066,1.066,0,0,0-.737.2,1.549,1.549,0,0,0-.484.618,1.891,1.891,0,0,0,.142,1.535l.587,1.157-.954-.883a5.316,5.316,0,0,0-1.427-.961,1.9,1.9,0,0,0-1.549-.1,1.086,1.086,0,0,0-.683,1.183,3.28,3.28,0,0,0,.686,1.495l.93,1.225-1.274-.849a5.022,5.022,0,0,0-1.14-.567,2.059,2.059,0,0,0-1.182-.1.976.976,0,0,0-.709.747,2.157,2.157,0,0,0,.272,1.178,17.023,17.023,0,0,0,1.447,2.239c.261.367.522.736.767,1.117a3.216,3.216,0,0,1,.545,1.234,3.47,3.47,0,0,0-.647-1.163c-.27-.358-.557-.7-.844-1.049a14.47,14.47,0,0,1-1.6-2.21,2.526,2.526,0,0,1-.371-1.4,1.386,1.386,0,0,1,1-1.143,2.52,2.52,0,0,1,1.471.078,5.5,5.5,0,0,1,1.279.613l-.344.375a3.766,3.766,0,0,1-.828-1.758,1.57,1.57,0,0,1,.205-1.044,1.775,1.775,0,0,1,.8-.678,2.4,2.4,0,0,1,1.962.127,5.771,5.771,0,0,1,1.553,1.082l-.367.274a2.259,2.259,0,0,1-.074-1.907,1.907,1.907,0,0,1,.638-.734,1.375,1.375,0,0,1,.95-.22,3.323,3.323,0,0,1,1.618.841,7.929,7.929,0,0,1,1.222,1.3" transform="translate(-39.204 -76.504)" fill="#263238"/>
            <path id="Trazado_834410" data-name="Trazado 834410" d="M90.8,152.094s12.491,2.152,9.258,6.622c-.961,1.328-6.492,5.636-7.379,4.542-1.145-1.413.828-3.642,2.289-4.845,0,0-4.352-.134-5.162-3.192a3.142,3.142,0,0,1,.994-3.128" transform="translate(-42.86 -72.669)" fill="#eb9481"/>
            <path id="Trazado_834411" data-name="Trazado 834411" d="M100.627,161.786a6.611,6.611,0,0,1-1.176,1.532A14.256,14.256,0,0,1,98,164.611a22.306,22.306,0,0,1-3.23,2.164,3.64,3.64,0,0,1-.965.361,1.357,1.357,0,0,1-.589,0,.954.954,0,0,1-.3-.124,1.013,1.013,0,0,1-.238-.216,1.629,1.629,0,0,1-.345-1.077,3.042,3.042,0,0,1,.246-1.029,5.853,5.853,0,0,1,1.127-1.654,13.29,13.29,0,0,1,1.437-1.332l.141.4a7.861,7.861,0,0,1-1.468-.24,7.234,7.234,0,0,1-1.386-.507,5,5,0,0,1-1.208-.842,3.8,3.8,0,0,1-.852-1.176,4.289,4.289,0,0,0,.954,1.058,5.15,5.15,0,0,0,1.224.7,6.864,6.864,0,0,0,1.349.408,7.452,7.452,0,0,0,1.391.147l.577,0-.436.395a14.179,14.179,0,0,0-1.343,1.325,5.707,5.707,0,0,0-1.013,1.524,1.587,1.587,0,0,0,.016,1.556c.249.359.915.131,1.455-.132a18.714,18.714,0,0,0,1.649-.933c.544-.334,1.083-.675,1.6-1.044a12.3,12.3,0,0,0,2.824-2.555" transform="translate(-43.181 -76.128)" fill="#263238"/>
            <path id="Trazado_834412" data-name="Trazado 834412" d="M67.066,115.342l-12.576,7.42s-4.465-9.191-3.719-12.437S59.822,97.2,66.554,92.188s7.96-2.652,3.873,4.833-6.884,13.362-6.769,13.565,3.408,4.757,3.408,4.757" transform="translate(-24.218 -42.78)" fill="#ffc727"/>
            <path id="Trazado_834413" data-name="Trazado 834413" d="M69.563,91.9a.184.184,0,1,1-.184-.184.184.184,0,0,1,.184.184m1.76-2.241h-.006a.165.165,0,0,1-.12.047.065.065,0,0,1-.042-.01M62.1,96.677a.184.184,0,1,0,.184.184.184.184,0,0,0-.184-.184m3.641,0a.184.184,0,1,0,.184.184.184.184,0,0,0-.184-.184m3.641,0a.184.184,0,1,0,.184.184.184.184,0,0,0-.184-.184m-5.315-2.3c-.093.078-.182.156-.271.24a.193.193,0,0,0,.125.047.185.185,0,0,0,.183-.183.16.16,0,0,0-.037-.1m3.495-.081a.184.184,0,1,0,.184.184.184.184,0,0,0-.184-.184m3.641,0a.184.184,0,1,0,.184.184A.184.184,0,0,0,71.2,94.3m-12.743,7.337a.184.184,0,1,0,.184.184.185.185,0,0,0-.184-.184m3.641,0a.184.184,0,1,0,.184.184.185.185,0,0,0-.184-.184m3.641,0a.184.184,0,1,0,.184.184.185.185,0,0,0-.184-.184M60.276,99.26a.184.184,0,1,0,.184.184.184.184,0,0,0-.184-.184m3.641,0a.184.184,0,1,0,.184.184.184.184,0,0,0-.184-.184m3.641,0a.184.184,0,1,0,.184.184.184.184,0,0,0-.184-.184M54.814,106.6a.184.184,0,1,0,.184.184.184.184,0,0,0-.184-.184m3.641,0a.184.184,0,1,0,.184.184.184.184,0,0,0-.184-.184m3.641,0a.184.184,0,1,0,.184.184.184.184,0,0,0-.184-.184m-5.462-2.377a.184.184,0,1,0,.184.184.184.184,0,0,0-.184-.184m3.641,0a.184.184,0,1,0,.184.184.184.184,0,0,0-.184-.184m3.641,0a.184.184,0,1,0,.184.184.184.184,0,0,0-.184-.184m-12.743,7.338a.184.184,0,1,0,.184.184.184.184,0,0,0-.184-.184m3.641,0a.184.184,0,1,0,.184.184.184.184,0,0,0-.184-.184m3.641,0a.184.184,0,1,0,.184.184.184.184,0,0,0-.184-.184m3.641,0a.184.184,0,1,0,.184.184.184.184,0,0,0-.184-.184m-9.1-2.377a.184.184,0,1,0,.184.184.184.184,0,0,0-.184-.184m3.641,0a.184.184,0,1,0,.184.184.184.184,0,0,0-.184-.184m3.641,0a.184.184,0,1,0,.184.184.184.184,0,0,0-.184-.184m3.641,0a.184.184,0,1,0,.184.184.184.184,0,0,0-.184-.184m-9.1,7.337A.184.184,0,1,0,55,116.7a.184.184,0,0,0-.184-.184m3.641,0a.184.184,0,1,0,.184.184.184.184,0,0,0-.184-.184m3.641,0a.184.184,0,1,0,.184.184.184.184,0,0,0-.184-.184m-9.1-2.377a.184.184,0,1,0,.184.184.185.185,0,0,0-.184-.184m3.641,0a.184.184,0,1,0,.184.184.185.185,0,0,0-.184-.184m3.641,0a.184.184,0,1,0,.184.184.185.185,0,0,0-.184-.184m3.641,0a.184.184,0,1,0,.184.184.185.185,0,0,0-.184-.184m-9.1,7.338a.184.184,0,1,0,.184.184.184.184,0,0,0-.184-.184M53,119.1l.125.313a.186.186,0,0,0,.053-.131A.18.18,0,0,0,53,119.1m3.637,0a.184.184,0,1,0,.184.184.184.184,0,0,0-.184-.184m3.641,0a.184.184,0,1,0,.184.184.184.184,0,0,0-.184-.184" transform="translate(-24.362 -42.839)" fill="#fff"/>
            <path id="Trazado_834414" data-name="Trazado 834414" d="M67.722,135.6c.04-.023,0-.09-.039-.071a114.268,114.268,0,0,0-11.053,5.693c-.04.023,0,.09.039.071A113.974,113.974,0,0,0,67.722,135.6" transform="translate(-27.049 -64.753)" fill="#263238"/>
            <g id="Grupo_1083635" data-name="Grupo 1083635" transform="translate(27.132 46.757)" opacity="0.1">
              <g id="Grupo_1083634" data-name="Grupo 1083634">
                <g id="Grupo_1083633" data-name="Grupo 1083633" clip-path="url(#clip-path-13)">
                  <path id="Trazado_834415" data-name="Trazado 834415" d="M71.032,97.022c-4.084,7.483-6.883,13.358-6.768,13.562s3.41,4.757,3.41,4.757l-12.58,7.421a59.935,59.935,0,0,1-3.138-7.953V114.8L69.742,90.469c4.4-2.5,4.789.151,1.29,6.554" transform="translate(-51.956 -89.537)"/>
                </g>
              </g>
            </g>
            <path id="Trazado_834416" data-name="Trazado 834416" d="M145.508,302.58c-1.058.347-31.263.111-32.407-.63-.44-.273,2.808-27.109,2.808-27.109l19.3.832-3.41,16.37s11.521,5.262,12.694,6.209,2.072,3.985,1.013,4.328" transform="translate(-54.019 -131.317)" fill="#eb9481"/>
            <path id="Trazado_834417" data-name="Trazado 834417" d="M145.478,320.407c-.466.152-6.556.192-13.339.127l-1.346-.017c-1.158-.009-2.326-.027-3.485-.046-.451-.011-.9-.021-1.347-.027h-.021c-.446-.011-.891-.022-1.326-.028-.676-.011-1.337-.028-1.982-.046-.42-.013-.834-.026-1.238-.035h-.016c-.4-.014-.8-.028-1.186-.038h-.016c-.582-.017-1.138-.037-1.669-.063-.357-.012-.708-.024-1.044-.043-.656-.028-1.255-.06-1.786-.1-.268-.013-.521-.032-.752-.053-.579-.044-1.043-.09-1.36-.142a1.577,1.577,0,0,1-.5-.128,59.892,59.892,0,0,1,.133-7.61c2.916.682,8.25,1.753,16.409,2.926,13.413,1.93,9.416-1.678,7.138-2.9-.022-.015-.043-.023-.065-.038.14.064.286.132.427.2a.487.487,0,0,1,.071.032l.779.37c.281.132.568.269.85.407.471.224.942.448,1.392.674s.888.43,1.3.637c.244.125.483.244.71.354.114.055.223.115.332.171.146.074.292.147.429.221q.456.236.8.432a1.661,1.661,0,0,1,.158.088,4.84,4.84,0,0,1,.531.34c1.165.94,2.071,3.981,1.017,4.326" transform="translate(-53.987 -149.145)" fill="#263238"/>
            <path id="Trazado_834418" data-name="Trazado 834418" d="M111.9,218.566l-18.5.245s4.434-35.524,3.912-37.26c-.2-.679-22.274-22.1-22.274-22.1-8.8-8.672-6.157-22.66-6.157-22.66H88.014s26.251,27.458,29.638,36.4c3.328,8.79-5.749,45.377-5.749,45.377" transform="translate(-32.736 -65.356)" fill="#eb9481"/>
            <path id="Trazado_834419" data-name="Trazado 834419" d="M55.891,335.368c-1.106.128-30.649-6.169-31.621-7.123-.375-.357.291-4.715,1.248-9.958l.031-.163c.195-1.081,5.4-19.162,5.4-19.162L50.2,303.5l-5.548,18.476-.076.322s10.23,7.468,11.189,8.63,1.229,4.32.124,4.443" transform="translate(-11.546 -142.841)" fill="#eb9481"/>
            <path id="Trazado_834420" data-name="Trazado 834420" d="M25.052,340.961c-.69,4.017-1.1,7.055-.781,7.351.972.956,30.514,7.252,31.621,7.123s.826-3.285-.126-4.444c-.583-.706-4.608-3.756-7.669-6.034,2.05,1.659,5,5.629-7.646,1.566-7.8-2.507-12.677-4.408-15.4-5.562" transform="translate(-11.545 -162.909)" fill="#263238"/>
            <path id="Trazado_834421" data-name="Trazado 834421" d="M71.047,136.787s1.65,14.123-1.265,17.339c0,0-6.209,32-8.055,41.368-2.437,12.367-12.864,43.283-12.864,43.283L30.1,234.256s11.582-40.114,11.685-40.921c.587-4.574,5.747-36.311,5.483-37.1-2.7-8.067,1.193-19.449,1.193-19.449Z" transform="translate(-14.382 -65.356)" fill="#eb9481"/>
            <path id="Trazado_834422" data-name="Trazado 834422" d="M58.375,136.787h22.72s22.212,24.411,25.913,31.184c0,0-2.742.021-11.177,5.421-6.684,4.278-15.9,18.147-28.642,20.416a60.646,60.646,0,0,1-16.34.423s4.776-30.285,6.136-37.48c.053-.283-2.874-11.163,1.39-19.962" transform="translate(-24.295 -65.356)" fill="#263238"/>
            <path id="Trazado_834423" data-name="Trazado 834423" d="M89.269,110.629l-.652,3.524a39.687,39.687,0,0,1-23.356-.911s2.879-17.726,10.7-23.837c3.913-3.056,7.766-2.145,9.834.784.523.742,6.388,10.086,6.554,14,.138,3.454-3.083,6.437-3.083,6.437" transform="translate(-31.181 -41.811)" fill="#ffc727"/>
            <path id="Trazado_834424" data-name="Trazado 834424" d="M77.89,91.608a.184.184,0,1,1-.184-.184.184.184,0,0,1,.184.184m3.457-.184a.184.184,0,1,0,.184.184.184.184,0,0,0-.184-.184m3.641,0a.184.184,0,1,0,.184.184.184.184,0,0,0-.184-.184m-5.461-2.377a.184.184,0,1,0,.184.184.184.184,0,0,0-.184-.184m3.641,0a.184.184,0,1,0,.184.184.184.184,0,0,0-.184-.184m-9.1,7.337a.184.184,0,1,0,.184.184.185.185,0,0,0-.184-.184m3.641,0a.184.184,0,1,0,.184.184.185.185,0,0,0-.184-.184m3.641,0a.184.184,0,1,0,.184.184.185.185,0,0,0-.184-.184m3.641,0a.184.184,0,1,0,.184.184.185.185,0,0,0-.184-.184m3.641,0a.184.184,0,1,0,.184.184.185.185,0,0,0-.184-.184M75.886,94.007a.184.184,0,1,0,.184.184.184.184,0,0,0-.184-.184m3.641,0a.184.184,0,1,0,.184.184.184.184,0,0,0-.184-.184m3.641,0a.184.184,0,1,0,.184.184.184.184,0,0,0-.184-.184m3.641,0a.184.184,0,1,0,.184.184.184.184,0,0,0-.184-.184m-16.385,7.337a.184.184,0,1,0,.184.184.184.184,0,0,0-.184-.184m3.641,0a.184.184,0,1,0,.184.184.184.184,0,0,0-.184-.184m3.641,0a.184.184,0,1,0,.184.184.184.184,0,0,0-.184-.184m3.641,0a.184.184,0,1,0,.184.184.184.184,0,0,0-.184-.184m3.641,0a.184.184,0,1,0,.184.184.184.184,0,0,0-.184-.184m3.641,0a.184.184,0,1,0,.184.184.184.184,0,0,0-.184-.184m3.641,0a.184.184,0,1,0,.184.184.184.184,0,0,0-.184-.184M72.245,98.967a.184.184,0,1,0,.184.184.184.184,0,0,0-.184-.184m3.641,0a.184.184,0,1,0,.184.184.184.184,0,0,0-.184-.184m3.641,0a.184.184,0,1,0,.184.184.184.184,0,0,0-.184-.184m3.641,0a.184.184,0,1,0,.184.184.184.184,0,0,0-.184-.184m3.641,0a.184.184,0,1,0,.184.184.184.184,0,0,0-.184-.184m3.641,0a.184.184,0,1,0,.184.184.184.184,0,0,0-.184-.184M70.424,106.3a.184.184,0,1,0,.184.184.184.184,0,0,0-.184-.184m3.641,0a.184.184,0,1,0,.184.184.184.184,0,0,0-.184-.184m3.641,0a.184.184,0,1,0,.184.184.184.184,0,0,0-.184-.184m3.641,0a.184.184,0,1,0,.184.184.184.184,0,0,0-.184-.184m3.641,0a.184.184,0,1,0,.184.184.184.184,0,0,0-.184-.184m3.641,0a.184.184,0,1,0,.184.184.184.184,0,0,0-.184-.184m3.641,0a.184.184,0,1,0,.184.184.184.184,0,0,0-.184-.184m-20.026-2.377a.184.184,0,1,0,.184.184.184.184,0,0,0-.184-.184m3.641,0a.184.184,0,1,0,.184.184.184.184,0,0,0-.184-.184m3.641,0a.184.184,0,1,0,.184.184.184.184,0,0,0-.184-.184m3.641,0a.184.184,0,1,0,.184.184.184.184,0,0,0-.184-.184m3.641,0a.184.184,0,1,0,.184.184.184.184,0,0,0-.184-.184m3.641,0a.184.184,0,1,0,.184.184.184.184,0,0,0-.184-.184m-20.026,7.337a.184.184,0,1,0,.184.184.184.184,0,0,0-.184-.184m3.641,0a.184.184,0,1,0,.184.184.184.184,0,0,0-.184-.184m3.641,0a.184.184,0,1,0,.184.184.184.184,0,0,0-.184-.184m3.641,0a.184.184,0,1,0,.184.184.184.184,0,0,0-.184-.184m3.641,0a.184.184,0,1,0,.184.184.184.184,0,0,0-.184-.184m3.641,0a.184.184,0,1,0,.184.184.184.184,0,0,0-.184-.184M68.6,108.888a.184.184,0,1,0,.184.184.184.184,0,0,0-.184-.184m3.641,0a.184.184,0,1,0,.184.184.184.184,0,0,0-.184-.184m3.641,0a.184.184,0,1,0,.184.184.184.184,0,0,0-.184-.184m3.641,0a.184.184,0,1,0,.184.184.184.184,0,0,0-.184-.184m3.641,0a.184.184,0,1,0,.184.184.184.184,0,0,0-.184-.184m3.641,0a.184.184,0,1,0,.184.184.184.184,0,0,0-.184-.184m3.641,0a.184.184,0,1,0,.184.184.184.184,0,0,0-.184-.184M68.6,113.848a.184.184,0,1,0,.184.184.184.184,0,0,0-.184-.184m3.641,0a.184.184,0,1,0,.184.184.184.184,0,0,0-.184-.184m3.641,0a.184.184,0,1,0,.184.184.184.184,0,0,0-.184-.184m3.641,0a.184.184,0,1,0,.184.184.184.184,0,0,0-.184-.184m3.641,0a.184.184,0,1,0,.184.184.184.184,0,0,0-.184-.184m3.641,0a.184.184,0,1,0,.184.184.184.184,0,0,0-.184-.184m3.458.183a.056.056,0,0,0,.01.042l.026-.146a.168.168,0,0,0-.037.1" transform="translate(-32.69 -42.546)" fill="#fff"/>
            <path id="Trazado_834425" data-name="Trazado 834425" d="M101.665,96.645a36.711,36.711,0,0,1,1.994,4.689A33.424,33.424,0,0,1,105,106.266a18.6,18.6,0,0,1,.339,5.123,7.633,7.633,0,0,1-1.9,4.745l.035-.074c-.095.539-.214,1.073-.326,1.608s-.236,1.068-.387,1.594c.17-1.079.3-2.162.437-3.244l0-.039.031-.035a7.75,7.75,0,0,0,1.636-4.593,21.544,21.544,0,0,0-.358-5,46.093,46.093,0,0,0-1.2-4.909c-.493-1.616-1.038-3.219-1.653-4.8" transform="translate(-48.575 -46.176)" fill="#263238"/>
            <path id="Trazado_834426" data-name="Trazado 834426" d="M101.982,102.708a.478.478,0,1,1-.493-.463.478.478,0,0,1,.493.463" transform="translate(-48.269 -48.852)" fill="#263238"/>
            <path id="Trazado_834427" data-name="Trazado 834427" d="M104.115,111.021a.478.478,0,1,1-.493-.463.479.479,0,0,1,.493.463" transform="translate(-49.288 -52.824)" fill="#263238"/>
            <path id="Trazado_834428" data-name="Trazado 834428" d="M105.52,119.066a.478.478,0,1,1-.493-.463.478.478,0,0,1,.493.463" transform="translate(-49.96 -56.668)" fill="#263238"/>
            <path id="Trazado_834429" data-name="Trazado 834429" d="M104.66,127.231a.478.478,0,1,1-.493-.463.478.478,0,0,1,.493.463" transform="translate(-49.549 -60.569)" fill="#263238"/>
            <path id="Trazado_834430" data-name="Trazado 834430" d="M102.9,135.851a.478.478,0,1,1-.493-.463.478.478,0,0,1,.493.463" transform="translate(-48.707 -64.687)" fill="#263238"/>
            <path id="Trazado_834431" data-name="Trazado 834431" d="M70.774,103.391c-.6,1.054-1.121,2.161-1.636,3.259-.506,1.079-.981,2.17-1.4,3.287a47.805,47.805,0,0,0-2.008,6.953,26.532,26.532,0,0,0-.606,3.985c0,.049.073.055.084.009.295-1.157.488-2.341.765-3.5q.41-1.718.887-3.418c.642-2.281,1.424-4.528,2.277-6.737.5-1.3,1.093-2.55,1.672-3.815a.022.022,0,0,0-.039-.022" transform="translate(-31.118 -49.394)" fill="#263238"/>
            <path id="Trazado_834432" data-name="Trazado 834432" d="M84.866,99.316c3.089,11.172,9.556,20.694,12.976,21.215,4.907.747,17.667-1.676,23.386-3.839,1.68-.636-3.53-13.611-5.327-12.934-2.172.819-14.838,4.778-15.07,4.791-.5.029-9-9.689-11.056-12.214-3.762-4.63-6.588-3.095-4.908,2.981" transform="translate(-40.312 -44.737)" fill="#eb9481"/>
            <path id="Trazado_834433" data-name="Trazado 834433" d="M161.732,101.8a2.139,2.139,0,0,1,.132,2.439,3.172,3.172,0,0,1,1.7,1.326c.644,1.137-.857,2.646-.857,2.646a3.914,3.914,0,0,1,1.573,1.685c.507,1.151-.792,2.889-.792,2.889a3.432,3.432,0,0,1,.45,2.353c-.454,2.157-3.615,3.314-5.616,4.07s-8.388,1.027-9.6,1.2l-4.964-12.8s8.011-5.945,10.491-6.5c2.089-.467,6.4-.583,7.481.7" transform="translate(-68.687 -48.151)" fill="#eb9481"/>
            <path id="Trazado_834434" data-name="Trazado 834434" d="M171.838,107.074a27.962,27.962,0,0,0-6.821,1.153.04.04,0,0,0,.019.078c2.238-.554,4.557-.656,6.813-1.12a.056.056,0,0,0-.012-.111" transform="translate(-78.83 -51.158)" fill="#263238"/>
            <path id="Trazado_834435" data-name="Trazado 834435" d="M173.975,114.72a6.108,6.108,0,0,0-1.56.336q-.815.236-1.621.5c-1.077.35-2.146.724-3.2,1.129-.047.018-.031.094.019.078,1.074-.346,2.153-.677,3.24-.978q.816-.226,1.636-.439a7.256,7.256,0,0,0,1.525-.473.081.081,0,0,0-.037-.15" transform="translate(-80.06 -54.812)" fill="#263238"/>
            <path id="Trazado_834436" data-name="Trazado 834436" d="M176.123,123.795a4.251,4.251,0,0,0-1.388.378q-.731.254-1.465.5c-.978.328-1.956.655-2.945.949-.049.015-.031.092.019.078,1.006-.293,2.016-.573,3.02-.875q.739-.222,1.476-.453a3.994,3.994,0,0,0,1.3-.528.028.028,0,0,0-.018-.049" transform="translate(-81.366 -59.148)" fill="#263238"/>
            <path id="Trazado_834437" data-name="Trazado 834437" d="M106.219,106.537l1.968,13.982s-9.163,1.933-11.875,0-9.378-11.907-11.428-20.045.828-9.615,6.176-2.972,9.516,10.666,9.748,10.637,5.412-1.6,5.412-1.6" transform="translate(-40.24 -44.587)" fill="#ffc727"/>
            <path id="Trazado_834438" data-name="Trazado 834438" d="M86.22,93.783a.184.184,0,1,1-.184-.184.184.184,0,0,1,.184.184" transform="translate(-41.019 -44.721)" fill="#fff"/>
            <path id="Trazado_834439" data-name="Trazado 834439" d="M86.22,103.281a.184.184,0,1,1-.184-.184.184.184,0,0,1,.184.184" transform="translate(-41.019 -49.259)" fill="#fff"/>
            <path id="Trazado_834440" data-name="Trazado 834440" d="M93.192,103.281a.184.184,0,1,1-.184-.184.184.184,0,0,1,.184.184" transform="translate(-44.35 -49.259)" fill="#fff"/>
            <path id="Trazado_834441" data-name="Trazado 834441" d="M89.706,98.73a.184.184,0,1,1-.184-.184.184.184,0,0,1,.184.184" transform="translate(-42.685 -47.085)" fill="#fff"/>
            <path id="Trazado_834442" data-name="Trazado 834442" d="M93.192,112.78a.184.184,0,1,1-.184-.184.184.184,0,0,1,.184.184" transform="translate(-44.35 -53.798)" fill="#fff"/>
            <path id="Trazado_834443" data-name="Trazado 834443" d="M100.165,112.78a.184.184,0,1,1-.184-.184.184.184,0,0,1,.184.184" transform="translate(-47.682 -53.798)" fill="#fff"/>
            <path id="Trazado_834444" data-name="Trazado 834444" d="M107.1,112.917a.186.186,0,0,1-.334-.11.165.165,0,0,1,.094-.157c.084.089.162.178.24.266" transform="translate(-51.012 -53.824)" fill="#fff"/>
            <path id="Trazado_834445" data-name="Trazado 834445" d="M89.706,108.228a.184.184,0,1,1-.184-.184.184.184,0,0,1,.184.184" transform="translate(-42.685 -51.623)" fill="#fff"/>
            <path id="Trazado_834446" data-name="Trazado 834446" d="M96.678,108.228a.184.184,0,1,1-.184-.184.184.184,0,0,1,.184.184" transform="translate(-46.016 -51.623)" fill="#fff"/>
            <path id="Trazado_834447" data-name="Trazado 834447" d="M93.192,122.278a.184.184,0,1,1-.184-.184.184.184,0,0,1,.184.184" transform="translate(-44.35 -58.336)" fill="#fff"/>
            <path id="Trazado_834448" data-name="Trazado 834448" d="M100.165,122.278a.184.184,0,1,1-.184-.184.184.184,0,0,1,.184.184" transform="translate(-47.682 -58.336)" fill="#fff"/>
            <path id="Trazado_834449" data-name="Trazado 834449" d="M107.137,122.278a.184.184,0,1,1-.184-.184.184.184,0,0,1,.184.184" transform="translate(-51.013 -58.336)" fill="#fff"/>
            <path id="Trazado_834450" data-name="Trazado 834450" d="M114.11,122.278a.184.184,0,1,1-.185-.184.185.185,0,0,1,.185.184" transform="translate(-54.345 -58.336)" fill="#fff"/>
            <path id="Trazado_834451" data-name="Trazado 834451" d="M121.082,122.278a.184.184,0,1,1-.184-.184.184.184,0,0,1,.184.184" transform="translate(-57.676 -58.336)" fill="#fff"/>
            <path id="Trazado_834452" data-name="Trazado 834452" d="M89.706,117.727a.184.184,0,1,1-.184-.184.184.184,0,0,1,.184.184" transform="translate(-42.685 -56.161)" fill="#fff"/>
            <path id="Trazado_834453" data-name="Trazado 834453" d="M96.678,117.727a.184.184,0,1,1-.184-.184.184.184,0,0,1,.184.184" transform="translate(-46.016 -56.161)" fill="#fff"/>
            <path id="Trazado_834454" data-name="Trazado 834454" d="M103.651,117.727a.184.184,0,1,1-.184-.184.184.184,0,0,1,.184.184" transform="translate(-49.347 -56.161)" fill="#fff"/>
            <path id="Trazado_834455" data-name="Trazado 834455" d="M110.623,117.727a.184.184,0,1,1-.184-.184.184.184,0,0,1,.184.184" transform="translate(-52.679 -56.161)" fill="#fff"/>
            <path id="Trazado_834456" data-name="Trazado 834456" d="M100.165,131.777a.184.184,0,1,1-.184-.184.184.184,0,0,1,.184.184" transform="translate(-47.682 -62.874)" fill="#fff"/>
            <path id="Trazado_834457" data-name="Trazado 834457" d="M107.137,131.777a.184.184,0,1,1-.184-.184.184.184,0,0,1,.184.184" transform="translate(-51.013 -62.874)" fill="#fff"/>
            <path id="Trazado_834458" data-name="Trazado 834458" d="M114.11,131.777a.184.184,0,1,1-.185-.184.185.185,0,0,1,.185.184" transform="translate(-54.345 -62.874)" fill="#fff"/>
            <path id="Trazado_834459" data-name="Trazado 834459" d="M121.082,131.777a.184.184,0,1,1-.184-.184.184.184,0,0,1,.184.184" transform="translate(-57.676 -62.874)" fill="#fff"/>
            <path id="Trazado_834460" data-name="Trazado 834460" d="M127.984,131.92a.182.182,0,0,1-.115.042.185.185,0,0,1,0-.371.167.167,0,0,1,.073.016Z" transform="translate(-61.007 -62.873)" fill="#fff"/>
            <path id="Trazado_834461" data-name="Trazado 834461" d="M96.678,127.225a.184.184,0,1,1-.184-.184.184.184,0,0,1,.184.184" transform="translate(-46.016 -60.699)" fill="#fff"/>
            <path id="Trazado_834462" data-name="Trazado 834462" d="M103.651,127.225a.184.184,0,1,1-.184-.184.184.184,0,0,1,.184.184" transform="translate(-49.347 -60.699)" fill="#fff"/>
            <path id="Trazado_834463" data-name="Trazado 834463" d="M110.623,127.225a.184.184,0,1,1-.184-.184.184.184,0,0,1,.184.184" transform="translate(-52.679 -60.699)" fill="#fff"/>
            <path id="Trazado_834464" data-name="Trazado 834464" d="M117.6,127.225a.184.184,0,1,1-.184-.184.184.184,0,0,1,.184.184" transform="translate(-56.01 -60.699)" fill="#fff"/>
            <path id="Trazado_834465" data-name="Trazado 834465" d="M124.568,127.225a.184.184,0,1,1-.184-.184.184.184,0,0,1,.184.184" transform="translate(-59.341 -60.699)" fill="#fff"/>
            <path id="Trazado_834466" data-name="Trazado 834466" d="M107.137,141.276a.184.184,0,1,1-.184-.184.184.184,0,0,1,.184.184" transform="translate(-51.013 -67.413)" fill="#fff"/>
            <path id="Trazado_834467" data-name="Trazado 834467" d="M114.11,141.276a.184.184,0,1,1-.185-.184.185.185,0,0,1,.185.184" transform="translate(-54.345 -67.413)" fill="#fff"/>
            <path id="Trazado_834468" data-name="Trazado 834468" d="M121.082,141.276a.184.184,0,1,1-.184-.184.184.184,0,0,1,.184.184" transform="translate(-57.676 -67.413)" fill="#fff"/>
            <path id="Trazado_834469" data-name="Trazado 834469" d="M128.054,141.276a.184.184,0,1,1-.184-.184.184.184,0,0,1,.184.184" transform="translate(-61.007 -67.413)" fill="#fff"/>
            <path id="Trazado_834470" data-name="Trazado 834470" d="M103.651,136.724a.184.184,0,1,1-.184-.184.184.184,0,0,1,.184.184" transform="translate(-49.347 -65.238)" fill="#fff"/>
            <path id="Trazado_834471" data-name="Trazado 834471" d="M110.623,136.724a.184.184,0,1,1-.184-.184.184.184,0,0,1,.184.184" transform="translate(-52.679 -65.238)" fill="#fff"/>
            <path id="Trazado_834472" data-name="Trazado 834472" d="M117.6,136.724a.184.184,0,1,1-.184-.184.184.184,0,0,1,.184.184" transform="translate(-56.01 -65.238)" fill="#fff"/>
            <path id="Trazado_834473" data-name="Trazado 834473" d="M124.568,136.724a.184.184,0,1,1-.184-.184.184.184,0,0,1,.184.184" transform="translate(-59.341 -65.238)" fill="#fff"/>
            <path id="Trazado_834474" data-name="Trazado 834474" d="M110.622,146.224a.169.169,0,0,1-.084.151c-.084-.016-.167-.031-.251-.052a.161.161,0,0,1-.031-.1.185.185,0,0,1,.183-.183.182.182,0,0,1,.183.183" transform="translate(-52.68 -69.777)" fill="#fff"/>
            <path id="Trazado_834475" data-name="Trazado 834475" d="M117.6,146.222a.184.184,0,1,1-.184-.184.184.184,0,0,1,.184.184" transform="translate(-56.01 -69.776)" fill="#fff"/>
            <path id="Trazado_834476" data-name="Trazado 834476" d="M124.556,146.172c-.115.021-.235.037-.36.052a.186.186,0,0,1,.188-.183.18.18,0,0,1,.172.131" transform="translate(-59.34 -69.777)" fill="#fff"/>
            <path id="Trazado_834477" data-name="Trazado 834477" d="M94.6,126.081q-1.768-2.906-3.456-5.862c-1.125-1.97-2.135-4-3.215-5.99-.609-1.124-1.154-2.287-1.679-3.452-.011-.025-.054-.006-.044.02.578,1.48,1.17,2.958,1.826,4.405-.1-.14-.2-.279-.3-.418-.362-.51-.736-1.01-1.111-1.51a.057.057,0,0,0-.1.06,13.335,13.335,0,0,0,1.021,1.6c.26.346.538.672.822.993.172.364.343.728.526,1.087a64.5,64.5,0,0,0,3.371,5.909c.716,1.1,1.468,2.159,2.263,3.2.031.041.1,0,.069-.043" transform="translate(-41.187 -52.923)" fill="#263238"/>
            <path id="Trazado_834478" data-name="Trazado 834478" d="M109.638,114.345c-.333.05-.52.118-.606.049-.174-.141-2.578-2.562-3.288-3.279-.606-.61-1.2-1.232-1.792-1.855-.345-.58-.688-1.162-1.084-1.71a.039.039,0,0,0-.066.041,10.66,10.66,0,0,0,.7,1.2c-.647-.684-1.291-1.37-1.938-2.052-.013-.013-.037.006-.026.02,1.263,1.613,7.154,7.988,7.271,7.964.163-.034.659-.278.849-.325.046-.011.022-.061-.021-.054" transform="translate(-48.513 -50.997)" fill="#263238"/>
            <path id="Trazado_834479" data-name="Trazado 834479" d="M121.659,121.113c-.008-.045-.083-.034-.08.012a114.067,114.067,0,0,0,1.572,12.333c.008.045.084.033.08-.012a114.13,114.13,0,0,0-1.572-12.333" transform="translate(-58.089 -57.853)" fill="#263238"/>
            <path id="Trazado_834480" data-name="Trazado 834480" d="M93,81.2c.122.493,2.53,3.677,4.791,3.54.737-.045.667-4.077.667-4.077l.063-.3.877-4.183-4.942-3.078-.714-.407s-.164,1.161-.355,2.607c-.009.067-.019.135-.027.206s-.026.159-.035.235c-.031.216-.062.437-.088.657-.02.167-.041.33-.057.507s-.035.349-.055.526A27.511,27.511,0,0,0,93,81.2" transform="translate(-44.424 -34.735)" fill="#eb9481"/>
            <path id="Trazado_834481" data-name="Trazado 834481" d="M93.768,75.306A8.574,8.574,0,0,0,98.9,80.368l.877-4.183-4.942-3.078-.714-.407s-.164,1.16-.355,2.607" transform="translate(-44.802 -34.735)" fill="#263238"/>
            <path id="Trazado_834482" data-name="Trazado 834482" d="M104.425,58.238c1.3,7.388-2.976,9-4.569,9.282-1.447.253-6.4.932-8.463-6.282s.965-10.155,4.242-10.909,7.487.521,8.79,7.909" transform="translate(-43.345 -23.956)" fill="#eb9481"/>
            <path id="Trazado_834483" data-name="Trazado 834483" d="M112.64,61.454a5.039,5.039,0,0,1-.518-.017.84.84,0,0,1-.525-.118.269.269,0,0,1-.056-.321.661.661,0,0,1,.616-.266.972.972,0,0,1,.661.232.285.285,0,0,1-.177.49" transform="translate(-53.279 -29.017)" fill="#263238"/>
            <path id="Trazado_834484" data-name="Trazado 834484" d="M104.3,64.379a4.868,4.868,0,0,0,.516-.048.84.84,0,0,0,.517-.148.267.267,0,0,0,.038-.324.662.662,0,0,0-.63-.229.97.97,0,0,0-.646.271.285.285,0,0,0,.206.478" transform="translate(-49.697 -30.401)" fill="#263238"/>
            <path id="Trazado_834485" data-name="Trazado 834485" d="M106.932,67.862c-.008-.018-.034.031-.03.052.117.5.167,1.087-.253,1.344-.013.008-.007.033.009.027.537-.189.463-.971.273-1.424" transform="translate(-50.953 -32.422)" fill="#263238"/>
            <path id="Trazado_834486" data-name="Trazado 834486" d="M105.679,67.034c-.818.1-.556,1.729.2,1.636s.483-1.72-.2-1.636" transform="translate(-50.253 -32.027)" fill="#263238"/>
            <path id="Trazado_834487" data-name="Trazado 834487" d="M104.672,67.287c-.127.115-.24.3-.409.345-.2.052-.372-.1-.528-.238-.016-.015-.028,0-.025.024.045.313.217.613.559.606.312-.006.487-.318.514-.644.005-.061-.059-.138-.11-.092" transform="translate(-49.551 -32.142)" fill="#263238"/>
            <path id="Trazado_834488" data-name="Trazado 834488" d="M112.448,66.669c0-.02.043.018.045.039.061.508.217,1.078.7,1.176.015,0,.018.028,0,.029-.569.007-.768-.753-.745-1.243" transform="translate(-53.726 -31.851)" fill="#263238"/>
            <path id="Trazado_834489" data-name="Trazado 834489" d="M112.82,65.519c.8-.186,1.115,1.433.372,1.605s-1.044-1.45-.372-1.605" transform="translate(-53.727 -31.298)" fill="#263238"/>
            <path id="Trazado_834490" data-name="Trazado 834490" d="M113.782,65.382c.145.061.3.193.456.173.18-.023.277-.224.357-.413.008-.019.024-.008.029.013.068.308.028.65-.257.767-.261.107-.511-.121-.644-.415-.025-.054,0-.15.06-.125" transform="translate(-54.331 -31.12)" fill="#263238"/>
            <path id="Trazado_834491" data-name="Trazado 834491" d="M108.424,75.485c.135.1.275.255.461.249a1.362,1.362,0,0,0,.531-.19.017.017,0,0,1,.025.023.688.688,0,0,1-.613.35.544.544,0,0,1-.45-.4c-.011-.029.026-.044.046-.029" transform="translate(-51.781 -36.063)" fill="#263238"/>
            <path id="Trazado_834492" data-name="Trazado 834492" d="M110.365,66.855s.234.734.3,1.088c.005.033-.078.064-.2.092-.005,0-.008.005-.014,0a1.71,1.71,0,0,1-1.746-.346c-.031-.03.008-.075.044-.058a2.576,2.576,0,0,0,1.615.175c.008-.1-.442-1.243-.387-1.257a3.125,3.125,0,0,1,.837.043c-.443-1.543-1.13-3-1.548-4.544a.049.049,0,0,1,.089-.039,25.986,25.986,0,0,1,1.875,4.824c.064.2-.712.056-.864.021" transform="translate(-51.933 -29.617)" fill="#263238"/>
            <path id="Trazado_834493" data-name="Trazado 834493" d="M84.6,44.509c-.816,1.206-7,4.127-10.227-1.149-3.18-5.2,3.452-11.917,8.662-8.205A6.752,6.752,0,0,1,84.6,44.509" transform="translate(-35.14 -16.285)" fill="#263238"/>
            <path id="Trazado_834494" data-name="Trazado 834494" d="M89.8,60.673c.82-.231,2.483-2.991,1.671-7.018a30.175,30.175,0,0,1,.324,4.254c-.155.587.928-1.551.318-4.808a13.424,13.424,0,0,0,3.7.995,5.181,5.181,0,0,0,2.639-.26c.085-.135-2.319-.351-3.08-.919,0,0,4.478,1,6.383.733.22-.031-.5-4.544-3.807-5.8s-7.452,1.79-8.425,3.251c0,0-1.4.523-2.509,3.011s1.907,6.812,2.79,6.563" transform="translate(-41.458 -22.719)" fill="#263238"/>
            <path id="Trazado_834495" data-name="Trazado 834495" d="M102.983,69.077a2.456,2.456,0,1,1,.6-.13,2.461,2.461,0,0,1-.6.13m-.41-4.564a2.127,2.127,0,1,0,2.2,1.412,2.134,2.134,0,0,0-2.2-1.412" transform="translate(-47.926 -30.663)" fill="#455a64"/>
            <path id="Trazado_834496" data-name="Trazado 834496" d="M113.963,66.847a2.29,2.29,0,0,1-2.133-2.052,2.933,2.933,0,0,1,.156-1.786,1.53,1.53,0,0,1,2.563-.537,2.933,2.933,0,0,1,.859,1.573c.277,1.325-.3,2.571-1.285,2.778a1.4,1.4,0,0,1-.159.024m-.657-4.526a1.1,1.1,0,0,0-.123.018,1.309,1.309,0,0,0-.9.8,2.612,2.612,0,0,0-.134,1.585c.241,1.148,1.092,1.945,1.9,1.774s1.272-1.241,1.031-2.389a2.606,2.606,0,0,0-.759-1.4,1.354,1.354,0,0,0-1.021-.395" transform="translate(-53.397 -29.617)" fill="#455a64"/>
            <path id="Trazado_834497" data-name="Trazado 834497" d="M109.165,67.089l-.258-.2c.3-.383,1.057-.971,1.775-.466l-.189.268c-.642-.453-1.3.366-1.328.4" transform="translate(-52.035 -31.642)" fill="#455a64"/>
            <path id="Trazado_834498" data-name="Trazado 834498" d="M88.857,71.007l-.316-.088c.041-.147.42-1.449,1.113-1.715.649-.247,5.039-.746,5.225-.767l.037.326c-1.259.142-4.644.554-5.144.747-.457.176-.815,1.14-.914,1.5" transform="translate(-42.304 -32.699)" fill="#455a64"/>
            <path id="Trazado_834499" data-name="Trazado 834499" d="M92.03,70.242s-1.73-2.274-2.768-1.648.327,3.968,1.592,4.383a1.268,1.268,0,0,0,1.671-.749Z" transform="translate(-42.473 -32.722)" fill="#eb9481"/>
            <path id="Trazado_834500" data-name="Trazado 834500" d="M90.377,70.51a.017.017,0,0,0-.006.034,3.206,3.206,0,0,1,1.736,1.938.7.7,0,0,0-1.054-.149c-.022.017,0,.052.025.045a.78.78,0,0,1,.869.238,3.781,3.781,0,0,1,.439.677c.044.077.183.029.15-.06l-.008-.02c-.022-1.115-.951-2.64-2.151-2.7" transform="translate(-43.173 -33.689)" fill="#263238"/>
            <path id="Trazado_834501" data-name="Trazado 834501" d="M97.438,87.4,96.18,90.755l-4.222-4.107L90.82,88.023s4.189,6.582,4.207,6.281l1.3-2.894,2.021,1.946-.275-5Z" transform="translate(-43.393 -41.4)" fill="#ffc727"/>
            <path id="Trazado_834502" data-name="Trazado 834502" d="M98.516,92.416c-.073-.823-.123-1.654-.234-2.473,0-.029-.05-.041-.056-.007a45.653,45.653,0,0,0,.162,4.7l-.008-.008c-.085-.084-1.871-1.71-1.888-1.684-.287.462-1.243,2.569-1.308,2.76-.663-1.046-3.2-4.845-3.976-5.829a.028.028,0,0,0-.049.029c.589,1.107,3.945,6.224,3.995,6.208a32.4,32.4,0,0,0,1.362-3.059,21.843,21.843,0,0,0,2.115,2.073,25.852,25.852,0,0,0-.115-2.713" transform="translate(-43.553 -42.937)" fill="#263238"/>
          </g>
        </g>
      </g>
    </g>
    <rect id="Rectángulo_385350" data-name="Rectángulo 385350" width="400" height="236" transform="translate(180 11990)" fill="none"/>
  </g>
</svg>
