<svg xmlns="http://www.w3.org/2000/svg" width="192" height="194" viewBox="0 0 192 194">
  <g id="Grupo_1084193" data-name="Grupo 1084193" transform="translate(-285 -15274.221)">
    <path id="Trazado_834940" data-name="Trazado 834940" d="M-11959.333-9593v112.283" transform="translate(12340.333 24906.662)" fill="none" stroke="#12263f" stroke-width="2"/>
    <path id="Trazado_834941" data-name="Trazado 834941" d="M-11959.333-9593v112.283" transform="translate(9910.001 3411.887) rotate(-90)" fill="none" stroke="#12263f" stroke-width="2"/>
    <g id="Trazado_835308" data-name="Trazado 835308" transform="translate(357 15274.221)" fill="#cadeb4">
      <path d="M 24 47.5 C 20.82729911804199 47.5 17.74976921081543 46.87873077392578 14.85289001464844 45.65346145629883 C 12.05459022521973 44.46987915039062 9.541350364685059 42.77537155151367 7.382989883422852 40.61700820922852 C 5.224629878997803 38.45864868164062 3.530119895935059 35.94541168212891 2.346539974212646 33.14710998535156 C 1.121269941329956 30.25023078918457 0.5 27.17270088195801 0.5 24 C 0.5 20.82729911804199 1.121269941329956 17.74976921081543 2.346539974212646 14.85289001464844 C 3.530119895935059 12.05459022521973 5.224629878997803 9.541350364685059 7.382989883422852 7.382989883422852 C 9.541350364685059 5.224629878997803 12.05459022521973 3.530119895935059 14.85289001464844 2.346539974212646 C 17.74976921081543 1.121269941329956 20.82729911804199 0.5 24 0.5 C 27.17270088195801 0.5 30.25023078918457 1.121269941329956 33.14710998535156 2.346539974212646 C 35.94541168212891 3.530119895935059 38.45864868164062 5.224629878997803 40.61700820922852 7.382989883422852 C 42.77537155151367 9.541350364685059 44.46987915039062 12.05459022521973 45.65346145629883 14.85289001464844 C 46.87873077392578 17.74976921081543 47.5 20.82729911804199 47.5 24 C 47.5 27.17270088195801 46.87873077392578 30.25023078918457 45.65346145629883 33.14710998535156 C 44.46987915039062 35.94541168212891 42.77537155151367 38.45864868164062 40.61700820922852 40.61700820922852 C 38.45864868164062 42.77537155151367 35.94541168212891 44.46987915039062 33.14710998535156 45.65346145629883 C 30.25023078918457 46.87873077392578 27.17270088195801 47.5 24 47.5 Z" stroke="none"/>
      <path d="M 24 1 C 20.89458084106445 1 17.8825798034668 1.607978820800781 15.04766845703125 2.807041168212891 C 12.3089714050293 3.965419769287109 9.849151611328125 5.623939514160156 7.736549377441406 7.736549377441406 C 5.623939514160156 9.849151611328125 3.965419769287109 12.3089714050293 2.807041168212891 15.04766845703125 C 1.607978820800781 17.8825798034668 1 20.89458084106445 1 24 C 1 27.10541915893555 1.607978820800781 30.1174201965332 2.807041168212891 32.95233154296875 C 3.965419769287109 35.6910285949707 5.623939514160156 38.15084838867188 7.736549377441406 40.26345062255859 C 9.849151611328125 42.37606048583984 12.3089714050293 44.03458023071289 15.04766845703125 45.19295883178711 C 17.8825798034668 46.39202117919922 20.89458084106445 47 24 47 C 27.10541915893555 47 30.1174201965332 46.39202117919922 32.95233154296875 45.19295883178711 C 35.6910285949707 44.03458023071289 38.15084838867188 42.37606048583984 40.26345062255859 40.26345062255859 C 42.37606048583984 38.15084838867188 44.03458023071289 35.6910285949707 45.19295883178711 32.95233154296875 C 46.39202117919922 30.1174201965332 47 27.10541915893555 47 24 C 47 20.89458084106445 46.39202117919922 17.8825798034668 45.19295883178711 15.04766845703125 C 44.03458023071289 12.3089714050293 42.37606048583984 9.849151611328125 40.26345062255859 7.736549377441406 C 38.15084838867188 5.623939514160156 35.6910285949707 3.965419769287109 32.95233154296875 2.807041168212891 C 30.1174201965332 1.607978820800781 27.10541915893555 1 24 1 M 24 0 C 37.25482940673828 0 48 10.74517059326172 48 24 C 48 37.25482940673828 37.25482940673828 48 24 48 C 10.74517059326172 48 0 37.25482940673828 0 24 C 0 10.74517059326172 10.74517059326172 0 24 0 Z" stroke="none" fill="#707070"/>
    </g>
    <g id="Trazado_835309" data-name="Trazado 835309" transform="translate(357 15347.221)" fill="#cadeb4">
      <path d="M 24 47.5 C 20.82729911804199 47.5 17.74976921081543 46.87873077392578 14.85289001464844 45.65346145629883 C 12.05459022521973 44.46987915039062 9.541350364685059 42.77537155151367 7.382989883422852 40.61700820922852 C 5.224629878997803 38.45864868164062 3.530119895935059 35.94541168212891 2.346539974212646 33.14710998535156 C 1.121269941329956 30.25023078918457 0.5 27.17270088195801 0.5 24 C 0.5 20.82729911804199 1.121269941329956 17.74976921081543 2.346539974212646 14.85289001464844 C 3.530119895935059 12.05459022521973 5.224629878997803 9.541350364685059 7.382989883422852 7.382989883422852 C 9.541350364685059 5.224629878997803 12.05459022521973 3.530119895935059 14.85289001464844 2.346539974212646 C 17.74976921081543 1.121269941329956 20.82729911804199 0.5 24 0.5 C 27.17270088195801 0.5 30.25023078918457 1.121269941329956 33.14710998535156 2.346539974212646 C 35.94541168212891 3.530119895935059 38.45864868164062 5.224629878997803 40.61700820922852 7.382989883422852 C 42.77537155151367 9.541350364685059 44.46987915039062 12.05459022521973 45.65346145629883 14.85289001464844 C 46.87873077392578 17.74976921081543 47.5 20.82729911804199 47.5 24 C 47.5 27.17270088195801 46.87873077392578 30.25023078918457 45.65346145629883 33.14710998535156 C 44.46987915039062 35.94541168212891 42.77537155151367 38.45864868164062 40.61700820922852 40.61700820922852 C 38.45864868164062 42.77537155151367 35.94541168212891 44.46987915039062 33.14710998535156 45.65346145629883 C 30.25023078918457 46.87873077392578 27.17270088195801 47.5 24 47.5 Z" stroke="none"/>
      <path d="M 24 1 C 20.89458084106445 1 17.8825798034668 1.607978820800781 15.04766845703125 2.807041168212891 C 12.3089714050293 3.965419769287109 9.849151611328125 5.623939514160156 7.736549377441406 7.736549377441406 C 5.623939514160156 9.849151611328125 3.965419769287109 12.3089714050293 2.807041168212891 15.04766845703125 C 1.607978820800781 17.8825798034668 1 20.89458084106445 1 24 C 1 27.10541915893555 1.607978820800781 30.1174201965332 2.807041168212891 32.95233154296875 C 3.965419769287109 35.6910285949707 5.623939514160156 38.15084838867188 7.736549377441406 40.26345062255859 C 9.849151611328125 42.37606048583984 12.3089714050293 44.03458023071289 15.04766845703125 45.19295883178711 C 17.8825798034668 46.39202117919922 20.89458084106445 47 24 47 C 27.10541915893555 47 30.1174201965332 46.39202117919922 32.95233154296875 45.19295883178711 C 35.6910285949707 44.03458023071289 38.15084838867188 42.37606048583984 40.26345062255859 40.26345062255859 C 42.37606048583984 38.15084838867188 44.03458023071289 35.6910285949707 45.19295883178711 32.95233154296875 C 46.39202117919922 30.1174201965332 47 27.10541915893555 47 24 C 47 20.89458084106445 46.39202117919922 17.8825798034668 45.19295883178711 15.04766845703125 C 44.03458023071289 12.3089714050293 42.37606048583984 9.849151611328125 40.26345062255859 7.736549377441406 C 38.15084838867188 5.623939514160156 35.6910285949707 3.965419769287109 32.95233154296875 2.807041168212891 C 30.1174201965332 1.607978820800781 27.10541915893555 1 24 1 M 24 0 C 37.25482940673828 0 48 10.74517059326172 48 24 C 48 37.25482940673828 37.25482940673828 48 24 48 C 10.74517059326172 48 0 37.25482940673828 0 24 C 0 10.74517059326172 10.74517059326172 0 24 0 Z" stroke="none" fill="#707070"/>
    </g>
    <g id="Trazado_835310" data-name="Trazado 835310" transform="translate(429 15347.221)" fill="#cadeb4">
      <path d="M 24 47.5 C 20.82729911804199 47.5 17.74976921081543 46.87873077392578 14.85289001464844 45.65346145629883 C 12.05459022521973 44.46987915039062 9.541350364685059 42.77537155151367 7.382989883422852 40.61700820922852 C 5.224629878997803 38.45864868164062 3.530119895935059 35.94541168212891 2.346539974212646 33.14710998535156 C 1.121269941329956 30.25023078918457 0.5 27.17270088195801 0.5 24 C 0.5 20.82729911804199 1.121269941329956 17.74976921081543 2.346539974212646 14.85289001464844 C 3.530119895935059 12.05459022521973 5.224629878997803 9.541350364685059 7.382989883422852 7.382989883422852 C 9.541350364685059 5.224629878997803 12.05459022521973 3.530119895935059 14.85289001464844 2.346539974212646 C 17.74976921081543 1.121269941329956 20.82729911804199 0.5 24 0.5 C 27.17270088195801 0.5 30.25023078918457 1.121269941329956 33.14710998535156 2.346539974212646 C 35.94541168212891 3.530119895935059 38.45864868164062 5.224629878997803 40.61700820922852 7.382989883422852 C 42.77537155151367 9.541350364685059 44.46987915039062 12.05459022521973 45.65346145629883 14.85289001464844 C 46.87873077392578 17.74976921081543 47.5 20.82729911804199 47.5 24 C 47.5 27.17270088195801 46.87873077392578 30.25023078918457 45.65346145629883 33.14710998535156 C 44.46987915039062 35.94541168212891 42.77537155151367 38.45864868164062 40.61700820922852 40.61700820922852 C 38.45864868164062 42.77537155151367 35.94541168212891 44.46987915039062 33.14710998535156 45.65346145629883 C 30.25023078918457 46.87873077392578 27.17270088195801 47.5 24 47.5 Z" stroke="none"/>
      <path d="M 24 1 C 20.89458084106445 1 17.8825798034668 1.607978820800781 15.04766845703125 2.807041168212891 C 12.3089714050293 3.965419769287109 9.849151611328125 5.623939514160156 7.736549377441406 7.736549377441406 C 5.623939514160156 9.849151611328125 3.965419769287109 12.3089714050293 2.807041168212891 15.04766845703125 C 1.607978820800781 17.8825798034668 1 20.89458084106445 1 24 C 1 27.10541915893555 1.607978820800781 30.1174201965332 2.807041168212891 32.95233154296875 C 3.965419769287109 35.6910285949707 5.623939514160156 38.15084838867188 7.736549377441406 40.26345062255859 C 9.849151611328125 42.37606048583984 12.3089714050293 44.03458023071289 15.04766845703125 45.19295883178711 C 17.8825798034668 46.39202117919922 20.89458084106445 47 24 47 C 27.10541915893555 47 30.1174201965332 46.39202117919922 32.95233154296875 45.19295883178711 C 35.6910285949707 44.03458023071289 38.15084838867188 42.37606048583984 40.26345062255859 40.26345062255859 C 42.37606048583984 38.15084838867188 44.03458023071289 35.6910285949707 45.19295883178711 32.95233154296875 C 46.39202117919922 30.1174201965332 47 27.10541915893555 47 24 C 47 20.89458084106445 46.39202117919922 17.8825798034668 45.19295883178711 15.04766845703125 C 44.03458023071289 12.3089714050293 42.37606048583984 9.849151611328125 40.26345062255859 7.736549377441406 C 38.15084838867188 5.623939514160156 35.6910285949707 3.965419769287109 32.95233154296875 2.807041168212891 C 30.1174201965332 1.607978820800781 27.10541915893555 1 24 1 M 24 0 C 37.25482940673828 0 48 10.74517059326172 48 24 C 48 37.25482940673828 37.25482940673828 48 24 48 C 10.74517059326172 48 0 37.25482940673828 0 24 C 0 10.74517059326172 10.74517059326172 0 24 0 Z" stroke="none" fill="#707070"/>
    </g>
    <g id="Trazado_835311" data-name="Trazado 835311" transform="translate(285 15347.221)" fill="#cadeb4">
      <path d="M 24 47.5 C 20.82729911804199 47.5 17.74976921081543 46.87873077392578 14.85289001464844 45.65346145629883 C 12.05459022521973 44.46987915039062 9.541350364685059 42.77537155151367 7.382989883422852 40.61700820922852 C 5.224629878997803 38.45864868164062 3.530119895935059 35.94541168212891 2.346539974212646 33.14710998535156 C 1.121269941329956 30.25023078918457 0.5 27.17270088195801 0.5 24 C 0.5 20.82729911804199 1.121269941329956 17.74976921081543 2.346539974212646 14.85289001464844 C 3.530119895935059 12.05459022521973 5.224629878997803 9.541350364685059 7.382989883422852 7.382989883422852 C 9.541350364685059 5.224629878997803 12.05459022521973 3.530119895935059 14.85289001464844 2.346539974212646 C 17.74976921081543 1.121269941329956 20.82729911804199 0.5 24 0.5 C 27.17270088195801 0.5 30.25023078918457 1.121269941329956 33.14710998535156 2.346539974212646 C 35.94541168212891 3.530119895935059 38.45864868164062 5.224629878997803 40.61700820922852 7.382989883422852 C 42.77537155151367 9.541350364685059 44.46987915039062 12.05459022521973 45.65346145629883 14.85289001464844 C 46.87873077392578 17.74976921081543 47.5 20.82729911804199 47.5 24 C 47.5 27.17270088195801 46.87873077392578 30.25023078918457 45.65346145629883 33.14710998535156 C 44.46987915039062 35.94541168212891 42.77537155151367 38.45864868164062 40.61700820922852 40.61700820922852 C 38.45864868164062 42.77537155151367 35.94541168212891 44.46987915039062 33.14710998535156 45.65346145629883 C 30.25023078918457 46.87873077392578 27.17270088195801 47.5 24 47.5 Z" stroke="none"/>
      <path d="M 24 1 C 20.89458084106445 1 17.8825798034668 1.607978820800781 15.04766845703125 2.807041168212891 C 12.3089714050293 3.965419769287109 9.849151611328125 5.623939514160156 7.736549377441406 7.736549377441406 C 5.623939514160156 9.849151611328125 3.965419769287109 12.3089714050293 2.807041168212891 15.04766845703125 C 1.607978820800781 17.8825798034668 1 20.89458084106445 1 24 C 1 27.10541915893555 1.607978820800781 30.1174201965332 2.807041168212891 32.95233154296875 C 3.965419769287109 35.6910285949707 5.623939514160156 38.15084838867188 7.736549377441406 40.26345062255859 C 9.849151611328125 42.37606048583984 12.3089714050293 44.03458023071289 15.04766845703125 45.19295883178711 C 17.8825798034668 46.39202117919922 20.89458084106445 47 24 47 C 27.10541915893555 47 30.1174201965332 46.39202117919922 32.95233154296875 45.19295883178711 C 35.6910285949707 44.03458023071289 38.15084838867188 42.37606048583984 40.26345062255859 40.26345062255859 C 42.37606048583984 38.15084838867188 44.03458023071289 35.6910285949707 45.19295883178711 32.95233154296875 C 46.39202117919922 30.1174201965332 47 27.10541915893555 47 24 C 47 20.89458084106445 46.39202117919922 17.8825798034668 45.19295883178711 15.04766845703125 C 44.03458023071289 12.3089714050293 42.37606048583984 9.849151611328125 40.26345062255859 7.736549377441406 C 38.15084838867188 5.623939514160156 35.6910285949707 3.965419769287109 32.95233154296875 2.807041168212891 C 30.1174201965332 1.607978820800781 27.10541915893555 1 24 1 M 24 0 C 37.25482940673828 0 48 10.74517059326172 48 24 C 48 37.25482940673828 37.25482940673828 48 24 48 C 10.74517059326172 48 0 37.25482940673828 0 24 C 0 10.74517059326172 10.74517059326172 0 24 0 Z" stroke="none" fill="#707070"/>
    </g>
    <g id="Trazado_835312" data-name="Trazado 835312" transform="translate(357 15420.221)" fill="#cadeb4">
      <path d="M 24 47.5 C 20.82729911804199 47.5 17.74976921081543 46.87873077392578 14.85289001464844 45.65346145629883 C 12.05459022521973 44.46987915039062 9.541350364685059 42.77537155151367 7.382989883422852 40.61700820922852 C 5.224629878997803 38.45864868164062 3.530119895935059 35.94541168212891 2.346539974212646 33.14710998535156 C 1.121269941329956 30.25023078918457 0.5 27.17270088195801 0.5 24 C 0.5 20.82729911804199 1.121269941329956 17.74976921081543 2.346539974212646 14.85289001464844 C 3.530119895935059 12.05459022521973 5.224629878997803 9.541350364685059 7.382989883422852 7.382989883422852 C 9.541350364685059 5.224629878997803 12.05459022521973 3.530119895935059 14.85289001464844 2.346539974212646 C 17.74976921081543 1.121269941329956 20.82729911804199 0.5 24 0.5 C 27.17270088195801 0.5 30.25023078918457 1.121269941329956 33.14710998535156 2.346539974212646 C 35.94541168212891 3.530119895935059 38.45864868164062 5.224629878997803 40.61700820922852 7.382989883422852 C 42.77537155151367 9.541350364685059 44.46987915039062 12.05459022521973 45.65346145629883 14.85289001464844 C 46.87873077392578 17.74976921081543 47.5 20.82729911804199 47.5 24 C 47.5 27.17270088195801 46.87873077392578 30.25023078918457 45.65346145629883 33.14710998535156 C 44.46987915039062 35.94541168212891 42.77537155151367 38.45864868164062 40.61700820922852 40.61700820922852 C 38.45864868164062 42.77537155151367 35.94541168212891 44.46987915039062 33.14710998535156 45.65346145629883 C 30.25023078918457 46.87873077392578 27.17270088195801 47.5 24 47.5 Z" stroke="none"/>
      <path d="M 24 1 C 20.89458084106445 1 17.8825798034668 1.607978820800781 15.04766845703125 2.807041168212891 C 12.3089714050293 3.965419769287109 9.849151611328125 5.623939514160156 7.736549377441406 7.736549377441406 C 5.623939514160156 9.849151611328125 3.965419769287109 12.3089714050293 2.807041168212891 15.04766845703125 C 1.607978820800781 17.8825798034668 1 20.89458084106445 1 24 C 1 27.10541915893555 1.607978820800781 30.1174201965332 2.807041168212891 32.95233154296875 C 3.965419769287109 35.6910285949707 5.623939514160156 38.15084838867188 7.736549377441406 40.26345062255859 C 9.849151611328125 42.37606048583984 12.3089714050293 44.03458023071289 15.04766845703125 45.19295883178711 C 17.8825798034668 46.39202117919922 20.89458084106445 47 24 47 C 27.10541915893555 47 30.1174201965332 46.39202117919922 32.95233154296875 45.19295883178711 C 35.6910285949707 44.03458023071289 38.15084838867188 42.37606048583984 40.26345062255859 40.26345062255859 C 42.37606048583984 38.15084838867188 44.03458023071289 35.6910285949707 45.19295883178711 32.95233154296875 C 46.39202117919922 30.1174201965332 47 27.10541915893555 47 24 C 47 20.89458084106445 46.39202117919922 17.8825798034668 45.19295883178711 15.04766845703125 C 44.03458023071289 12.3089714050293 42.37606048583984 9.849151611328125 40.26345062255859 7.736549377441406 C 38.15084838867188 5.623939514160156 35.6910285949707 3.965419769287109 32.95233154296875 2.807041168212891 C 30.1174201965332 1.607978820800781 27.10541915893555 1 24 1 M 24 0 C 37.25482940673828 0 48 10.74517059326172 48 24 C 48 37.25482940673828 37.25482940673828 48 24 48 C 10.74517059326172 48 0 37.25482940673828 0 24 C 0 10.74517059326172 10.74517059326172 0 24 0 Z" stroke="none" fill="#707070"/>
    </g>
    <path id="Trazado_835313" data-name="Trazado 835313" d="M7.348,0H4.377V-9.457L1.459-8.6v-2.25L7.075-12.8h.272Z" transform="translate(376 15304.221)" fill="#12263f"/>
    <path id="Trazado_835314" data-name="Trazado 835314" d="M3.489-7.638h1.4A1.453,1.453,0,0,0,6.548-9.264a1.406,1.406,0,0,0-.4-1.033,1.5,1.5,0,0,0-1.116-.4,1.606,1.606,0,0,0-1.024.343,1.046,1.046,0,0,0-.435.853H.615a3.032,3.032,0,0,1,.563-1.8,3.715,3.715,0,0,1,1.56-1.235,5.334,5.334,0,0,1,2.193-.444,5.241,5.241,0,0,1,3.357.976A3.243,3.243,0,0,1,9.51-9.325,2.7,2.7,0,0,1,9-7.765,3.6,3.6,0,0,1,7.532-6.574a3.441,3.441,0,0,1,1.6,1.121,2.951,2.951,0,0,1,.58,1.859A3.3,3.3,0,0,1,8.394-.853,5.472,5.472,0,0,1,4.931.176,5.675,5.675,0,0,1,2.6-.3,3.656,3.656,0,0,1,.967-1.63,3.45,3.45,0,0,1,.413-3.56H3.393a1.334,1.334,0,0,0,.475,1.02,1.676,1.676,0,0,0,1.169.431,1.755,1.755,0,0,0,1.248-.435A1.454,1.454,0,0,0,6.75-3.656a1.7,1.7,0,0,0-.483-1.371,2.021,2.021,0,0,0-1.336-.4H3.489Z" transform="translate(376 15377.221)" fill="#12263f"/>
    <path id="Trazado_835315" data-name="Trazado 835315" d="M9.712,0H.782V-1.934L4.9-6.258A4.909,4.909,0,0,0,6.416-9.009a1.913,1.913,0,0,0-.36-1.257A1.287,1.287,0,0,0,5.01-10.7a1.3,1.3,0,0,0-1.1.576,2.366,2.366,0,0,0-.422,1.437H.519a4.2,4.2,0,0,1,.589-2.175,4.129,4.129,0,0,1,1.635-1.56,4.856,4.856,0,0,1,2.338-.562,4.777,4.777,0,0,1,3.195.958A3.42,3.42,0,0,1,9.4-9.272,4,4,0,0,1,9.114-7.8,6.456,6.456,0,0,1,8.24-6.3a22.029,22.029,0,0,1-1.912,2.1L4.676-2.285H9.712Z" transform="translate(448 15377.221)" fill="#12263f"/>
    <path id="Trazado_835316" data-name="Trazado 835316" d="M.958-6.251,1.74-12.8H9.22v2.3H4.148l-.29,2.542a3.493,3.493,0,0,1,.831-.327A3.79,3.79,0,0,1,5.7-8.42,3.754,3.754,0,0,1,8.626-7.291,4.549,4.549,0,0,1,9.65-4.122,4.541,4.541,0,0,1,9.1-1.894,3.776,3.776,0,0,1,7.559-.36,4.87,4.87,0,0,1,5.212.176a5.24,5.24,0,0,1-2.259-.5A4.052,4.052,0,0,1,1.3-1.682,3.308,3.308,0,0,1,.712-3.636H3.683a1.68,1.68,0,0,0,.448,1.114,1.423,1.423,0,0,0,1.063.412q1.494,0,1.494-2.21,0-2.044-1.828-2.044A1.824,1.824,0,0,0,3.313-5.7Z" transform="translate(304 15377.221)" fill="#12263f"/>
    <path id="Trazado_835317" data-name="Trazado 835317" d="M8.6-5h1.3v2.285H8.6V0H5.643V-2.716H.694L.519-4.526l5.124-8.244V-12.8H8.6ZM3.34-5h2.3V-8.938l-.185.3Z" transform="translate(376 15450.221)" fill="#12263f"/>
  </g>
</svg>
