<svg xmlns="http://www.w3.org/2000/svg" xmlns:xlink="http://www.w3.org/1999/xlink" width="400" height="456.162" viewBox="0 0 400 456.162">
  <defs>
    <clipPath id="clip-path">
      <rect id="Rectángulo_385111" data-name="Rectángulo 385111" width="257.601" height="436.362" fill="none"/>
    </clipPath>
    <clipPath id="clip-path-3">
      <rect id="Rectángulo_385106" data-name="Rectángulo 385106" width="3.138" height="3.182" fill="none"/>
    </clipPath>
    <clipPath id="clip-path-4">
      <rect id="Rectángulo_385107" data-name="Rectángulo 385107" width="16.097" height="51.546" fill="none"/>
    </clipPath>
  </defs>
  <g id="Grupo_1083317" data-name="Grupo 1083317" transform="translate(-180 -448.838)">
    <path id="Trazado_834977" data-name="Trazado 834977" d="M20,0H380a20,20,0,0,1,20,20V362a20,20,0,0,1-20,20H20A20,20,0,0,1,0,362V20A20,20,0,0,1,20,0Z" transform="translate(180 523)" fill="#cadeb4"/>
    <g id="Grupo_1083316" data-name="Grupo 1083316" transform="translate(237.399 448.838)">
      <g id="Grupo_1083315" data-name="Grupo 1083315" clip-path="url(#clip-path)">
        <g id="Grupo_1083314" data-name="Grupo 1083314">
          <g id="Grupo_1083313" data-name="Grupo 1083313" clip-path="url(#clip-path)">
            <path id="Trazado_833249" data-name="Trazado 833249" d="M255.767,405.236c0,.149-46.492.27-103.831.27-57.357,0-103.841-.12-103.841-.27s46.484-.27,103.841-.27c57.338,0,103.831.12,103.831.27" transform="translate(1.832 15.428)" fill="#263238"/>
            <path id="Trazado_833250" data-name="Trazado 833250" d="M125.479,371.918l1.233,22.495s-22.451,8.807-22.628,12.987l43.7-.823-.483-35.128Z" transform="translate(3.965 14.151)" fill="#263238"/>
            <path id="Trazado_833251" data-name="Trazado 833251" d="M138.941,391.5a1.785,1.785,0,0,1,1.273,2.013,1.717,1.717,0,0,1-1.985,1.279,1.882,1.882,0,0,1-1.336-2.138,1.78,1.78,0,0,1,2.212-1.1" transform="translate(5.213 14.913)" fill="#e0e0e0"/>
            <path id="Trazado_833252" data-name="Trazado 833252" d="M147.787,405.416l-.188-3.539L105.77,403.99s-1.93.883-1.684,2.25Z" transform="translate(3.965 15.311)" fill="#455a64"/>
            <path id="Trazado_833253" data-name="Trazado 833253" d="M125.2,393.376c.011.214,1.08.29,2.143.956,1.081.639,1.639,1.553,1.834,1.465.2-.045-.146-1.315-1.448-2.1s-2.579-.517-2.529-.322" transform="translate(4.77 14.979)" fill="#fff"/>
            <path id="Trazado_833254" data-name="Trazado 833254" d="M120.814,395.281c-.045.208.887.553,1.628,1.442.768.867.97,1.839,1.181,1.826.2.03.326-1.222-.618-2.31s-2.19-1.162-2.191-.958" transform="translate(4.603 15.056)" fill="#fff"/>
            <path id="Trazado_833255" data-name="Trazado 833255" d="M118.471,400.743c.194.042.47-1.03-.1-2.188s-1.578-1.6-1.664-1.425c-.117.179.542.793,1,1.751.475.947.554,1.846.767,1.862" transform="translate(4.446 15.128)" fill="#fff"/>
            <path id="Trazado_833256" data-name="Trazado 833256" d="M125.472,388.43c.093.193,1.066-.12,2.275-.06,1.208.034,2.155.422,2.263.236.12-.157-.811-.929-2.235-.979s-2.41.637-2.3.8" transform="translate(4.78 14.768)" fill="#fff"/>
            <path id="Trazado_833257" data-name="Trazado 833257" d="M175.736,369.765l2.367,27.152-4.321,22.017a2.792,2.792,0,0,0,4.792,2.431c3.9-4.247,18.148-19.942,17.864-21.919-.33-2.29-.6-28.807-.6-28.807Z" transform="translate(6.619 14.087)" fill="#263238"/>
            <path id="Trazado_833258" data-name="Trazado 833258" d="M176.082,421.221l20.147-24.631.074,1.152a4.2,4.2,0,0,1-.82,2.783c-1.6,2.141-6.135,7.955-16.917,19.815a2.792,2.792,0,0,1-2.484.88" transform="translate(6.708 15.109)" fill="#455a64"/>
            <g id="Grupo_1083309" data-name="Grupo 1083309" transform="translate(196.187 402.962)" opacity="0.6">
              <g id="Grupo_1083308" data-name="Grupo 1083308">
                <g id="Grupo_1083307" data-name="Grupo 1083307" clip-path="url(#clip-path-3)">
                  <path id="Trazado_833259" data-name="Trazado 833259" d="M189.592,388.494a1.69,1.69,0,0,0-.321,2.232,1.626,1.626,0,0,0,2.21.336,1.782,1.782,0,0,0,.327-2.365,1.686,1.686,0,0,0-2.338-.1" transform="translate(-188.987 -388.174)" fill="#fff"/>
                </g>
              </g>
            </g>
            <path id="Trazado_833260" data-name="Trazado 833260" d="M181.545,408.589a6.028,6.028,0,0,0-5.691-2.361c-.028-.065.3-.3.933-.43a4.455,4.455,0,0,1,4.4,1.826c.353.539.421.938.355.964" transform="translate(6.7 15.457)" fill="#fff"/>
            <path id="Trazado_833261" data-name="Trazado 833261" d="M179.885,412.176a22.593,22.593,0,0,0-2.484-1.015,22.531,22.531,0,0,0-2.678-.171c-.087-.134,1.184-.8,2.812-.412,1.632.367,2.487,1.517,2.35,1.6" transform="translate(6.656 15.638)" fill="#fff"/>
            <path id="Trazado_833262" data-name="Trazado 833262" d="M184.809,403.868c-.119.137-1.543-1.144-3.728-1.825-2.176-.716-4.079-.5-4.1-.682a7.637,7.637,0,0,1,7.823,2.507" transform="translate(6.743 15.28)" fill="#fff"/>
            <path id="Trazado_833263" data-name="Trazado 833263" d="M184.754,395.788c-.062.167-1.6-.364-3.565-.309-1.961.028-3.48.625-3.549.46a6.932,6.932,0,0,1,7.114-.151" transform="translate(6.768 15.044)" fill="#fff"/>
            <path id="Trazado_833264" data-name="Trazado 833264" d="M184.284,388.1a13.681,13.681,0,0,0-3.7-.42c-2.064.182-3.443,1.283-3.548,1.137-.048-.053.227-.414.83-.817a6.085,6.085,0,0,1,5.446-.538c.671.276,1.011.576.975.638" transform="translate(6.744 14.746)" fill="#fff"/>
            <path id="Trazado_833265" data-name="Trazado 833265" d="M180.57,386.391a2.357,2.357,0,0,1-.1-1.027,7.148,7.148,0,0,1,.645-2.747,3.174,3.174,0,0,1,1.262-1.6,1.123,1.123,0,0,1,1.278.168,1.825,1.825,0,0,1,.509,1.2,3.946,3.946,0,0,1-3.218,3.866,4.578,4.578,0,0,1-4.641-2.1,1.589,1.589,0,0,1-.16-1.314,1.1,1.1,0,0,1,1.113-.655,3.906,3.906,0,0,1,1.852.816,7.994,7.994,0,0,1,1.991,1.994,2.447,2.447,0,0,1,.479.914,12.729,12.729,0,0,0-2.705-2.555,3.638,3.638,0,0,0-1.631-.673.587.587,0,0,0-.608.354,1.09,1.09,0,0,0,.155.858,4.086,4.086,0,0,0,4.045,1.775,3.427,3.427,0,0,0,2.779-3.242,1.322,1.322,0,0,0-.32-.853.609.609,0,0,0-.7-.1,2.87,2.87,0,0,0-1.094,1.335,10.6,10.6,0,0,0-.923,3.591" transform="translate(6.707 14.511)" fill="#fff"/>
            <path id="Trazado_833266" data-name="Trazado 833266" d="M103.925,190.128a96.779,96.779,0,0,0-2.111,28.464c.465,6.048,20.877,173.388,20.877,173.388H150.25L142.5,234.7l2.256.489s15.045,67.079,16.272,77.939c1.1,9.761,13.791,80.68,13.791,80.68l25.2.29L191.973,300.3l-9.365-90.008-3.523-26.2Z" transform="translate(3.869 7.013)" fill="#263238"/>
            <path id="Trazado_833267" data-name="Trazado 833267" d="M145.713,218.2a5.291,5.291,0,0,1-1.15.648,13.251,13.251,0,0,1-3.413,1.195,7.157,7.157,0,0,1-2.539.018,5.21,5.21,0,0,1-2.654-1.274,6.308,6.308,0,0,1-1.61-2.814c-.325-1.071-.511-2.185-.738-3.316-.879-4.54-1.474-8.685-1.821-11.692-.174-1.5-.29-2.724-.352-3.569a5.647,5.647,0,0,1-.035-1.317,5.754,5.754,0,0,1,.261,1.291c.145.958.324,2.142.536,3.54.451,2.989,1.109,7.11,1.985,11.636.444,2.237.747,4.516,2.146,5.851a5.726,5.726,0,0,0,4.758,1.24,15.541,15.541,0,0,0,3.387-1,6.186,6.186,0,0,1,1.242-.44" transform="translate(5.005 7.47)" fill="#455a64"/>
            <path id="Trazado_833268" data-name="Trazado 833268" d="M137.269,196.848c-.009-.025.179-.143.567-.168a2.471,2.471,0,0,1,1.542.5,2.753,2.753,0,0,1,1.162,2.128,2.732,2.732,0,0,1-4.653,1.745,2.756,2.756,0,0,1-.525-2.367,2.472,2.472,0,0,1,.836-1.388c.308-.237.527-.271.538-.246a3.1,3.1,0,0,0-.968,1.711,2.407,2.407,0,0,0,.523,1.935A2.234,2.234,0,0,0,140,199.3a2.408,2.408,0,0,0-.878-1.8,3.109,3.109,0,0,0-1.854-.653" transform="translate(5.154 7.493)" fill="#455a64"/>
            <path id="Trazado_833269" data-name="Trazado 833269" d="M115.637,7.258c4.447-1.057,8.745,3.137,13.276,2.544,2.753-.359,4.943-2.4,7.447-3.6a13.984,13.984,0,0,1,12.453.32c3.574,2.109,5.827,4.263,6.069,8.407,3.484-1.715,8.823,2.873,10.473,7.078s.9,8.394-.46,12.7A59.585,59.585,0,0,1,153.727,55.02c-.443.527-1.133,1.1-1.737.766a1.5,1.5,0,0,1-.57-1.247c-.387-4.042.379-8.093.982-12.109s1.038-8.168.007-12.1-3.816-7.628-7.742-8.666a12.868,12.868,0,0,0-8.715,1.295c-2.7,1.3-5.122,3.114-7.714,4.624a16.541,16.541,0,0,1-8.471,2.678c-3-.06-6.116-1.674-7.219-4.464s.572-6.547,3.54-6.982a6.087,6.087,0,0,1-4.981-5.6,6.087,6.087,0,0,1,4.529-5.966" transform="translate(4.233 0.187)" fill="#263238"/>
            <path id="Trazado_833270" data-name="Trazado 833270" d="M115.168,55.05c.479-5.534,2.391-16.849,4.241-27.07a21.435,21.435,0,0,1,23.2-17.517l1.1.109c11.841,1.874,15.432,13.3,13.233,25.084l-3.761,39.579-24.68,17.1-3.389-8.462V69.324s-10.939-2.813-9.949-14.274" transform="translate(4.385 0.395)" fill="#ffc09d"/>
            <path id="Trazado_833271" data-name="Trazado 833271" d="M124.75,67.258a27.189,27.189,0,0,0,15.663-2.675s-4.342,7.68-15.663,5.52Z" transform="translate(4.753 2.46)" fill="#ff9b6c"/>
            <path id="Trazado_833272" data-name="Trazado 833272" d="M120.6,38.164a1.641,1.641,0,0,0,1.413,1.805,1.572,1.572,0,0,0,1.831-1.307,1.644,1.644,0,0,0-1.412-1.806,1.574,1.574,0,0,0-1.832,1.308" transform="translate(4.594 1.403)" fill="#263238"/>
            <path id="Trazado_833273" data-name="Trazado 833273" d="M121.09,33.009c.182.233,1.51-.561,3.269-.382,1.76.153,2.961,1.186,3.173.989.1-.086-.065-.492-.588-.957a4.5,4.5,0,0,0-2.513-1.055,4.326,4.326,0,0,0-2.628.57c-.582.361-.8.729-.713.835" transform="translate(4.613 1.203)" fill="#263238"/>
            <path id="Trazado_833274" data-name="Trazado 833274" d="M135.566,39.683a1.643,1.643,0,0,0,1.413,1.805,1.571,1.571,0,0,0,1.831-1.307,1.644,1.644,0,0,0-1.412-1.806,1.572,1.572,0,0,0-1.832,1.308" transform="translate(5.164 1.461)" fill="#263238"/>
            <path id="Trazado_833275" data-name="Trazado 833275" d="M137.715,34.972c.182.234,1.513-.561,3.27-.382,1.759.154,2.961,1.186,3.172.989.1-.086-.063-.491-.587-.956a4.514,4.514,0,0,0-2.514-1.056,4.336,4.336,0,0,0-2.629.57c-.58.362-.8.73-.713.835" transform="translate(5.246 1.278)" fill="#263238"/>
            <path id="Trazado_833276" data-name="Trazado 833276" d="M130.481,47.414a11.653,11.653,0,0,0-2.806-.8c-.444-.09-.861-.222-.906-.536a2.3,2.3,0,0,1,.432-1.3q.794-1.568,1.666-3.29c2.326-4.687,4.058-8.559,3.868-8.652s-2.229,3.633-4.555,8.32q-.844,1.735-1.612,3.315a2.609,2.609,0,0,0-.408,1.74,1.134,1.134,0,0,0,.674.73,3.067,3.067,0,0,0,.753.182,11.506,11.506,0,0,0,2.9.291" transform="translate(4.805 1.251)" fill="#263238"/>
            <path id="Trazado_833277" data-name="Trazado 833277" d="M138.4,26.258c.127.5,1.9.442,3.944.895,2.049.412,3.653,1.181,3.97.78.142-.194-.1-.672-.731-1.2a7.031,7.031,0,0,0-6.028-1.275c-.788.23-1.206.568-1.154.8" transform="translate(5.273 0.962)" fill="#263238"/>
            <path id="Trazado_833278" data-name="Trazado 833278" d="M122.2,28.171c.27.43,1.523.135,2.982.26,1.463.074,2.664.535,2.99.145.144-.191-.01-.61-.512-1.042a4.337,4.337,0,0,0-4.813-.326c-.555.36-.765.755-.648.963" transform="translate(4.654 1.015)" fill="#263238"/>
            <path id="Trazado_833279" data-name="Trazado 833279" d="M154.241,42.349c.2-.065,9-1.4,7.972,6.406s-8.645,5.165-8.629,4.938.657-11.344.657-11.344" transform="translate(5.851 1.609)" fill="#ffc09d"/>
            <path id="Trazado_833280" data-name="Trazado 833280" d="M156.252,50.946c.037-.021.124.113.339.248a1.372,1.372,0,0,0,1.013.155c.864-.194,1.729-1.412,1.952-2.813a4.532,4.532,0,0,0-.125-2,1.585,1.585,0,0,0-.885-1.177.7.7,0,0,0-.851.267c-.133.2-.1.366-.147.375-.024.017-.149-.153-.045-.467a.876.876,0,0,1,.371-.448,1.038,1.038,0,0,1,.778-.1,1.926,1.926,0,0,1,1.261,1.4,4.66,4.66,0,0,1,.186,2.236c-.256,1.565-1.254,2.931-2.425,3.108a1.467,1.467,0,0,1-1.216-.369c-.216-.225-.235-.4-.206-.415" transform="translate(5.952 1.713)" fill="#ff9b6c"/>
            <path id="Trazado_833281" data-name="Trazado 833281" d="M120.252,17.358a15.006,15.006,0,0,1,5.353-5.061,25.623,25.623,0,0,1,15.311-3.825,20.863,20.863,0,0,1,14.02,6.944,22.028,22.028,0,0,1,4.93,11.658,39.055,39.055,0,0,1-.768,14c-.512,1.807-1.614,2.371-3.04,3.595-.891.764-2.332,1.183-3.187.38a3.125,3.125,0,0,1-.733-1.9c-.908-6.188-1.752-12.828,1.035-18.427a18.041,18.041,0,0,0-4.9-5.486,9.345,9.345,0,0,0-7.013-1.677c-3.6.73-6.08,3.911-9.1,6a16.616,16.616,0,0,1-15.014,1.856Z" transform="translate(4.463 0.32)" fill="#263238"/>
            <path id="Trazado_833282" data-name="Trazado 833282" d="M164.147,31.273c0-.087-.841-.067-2.155-.288a14.132,14.132,0,0,1-8.726-5.168c-.823-1.047-1.209-1.792-1.287-1.752a5.739,5.739,0,0,0,1,1.962,12.716,12.716,0,0,0,8.962,5.308,5.744,5.744,0,0,0,2.2-.062" transform="translate(5.79 0.917)" fill="#e0e0e0"/>
            <path id="Trazado_833283" data-name="Trazado 833283" d="M163.69,35.062c.015-.085-.879-.247-2.245-.733a17.43,17.43,0,0,1-8.724-6.849c-.8-1.211-1.166-2.041-1.245-2.007a6.88,6.88,0,0,0,.944,2.192,15.507,15.507,0,0,0,8.916,7,6.918,6.918,0,0,0,2.354.4" transform="translate(5.771 0.97)" fill="#e0e0e0"/>
            <path id="Trazado_833284" data-name="Trazado 833284" d="M113.848,20.625a2.5,2.5,0,0,0,.313,1.354,6.336,6.336,0,0,0,5.254,3.793,2.516,2.516,0,0,0,1.384-.129,8.485,8.485,0,0,0-1.336-.222,7.069,7.069,0,0,1-4.985-3.6,8.475,8.475,0,0,0-.63-1.2" transform="translate(4.336 0.786)" fill="#e0e0e0"/>
            <path id="Trazado_833285" data-name="Trazado 833285" d="M112.817,22.1a2.531,2.531,0,0,0,.321,1.3,7.351,7.351,0,0,0,4.785,4.1,2.54,2.54,0,0,0,1.33.117,12.478,12.478,0,0,1-3.859-2.007,12.5,12.5,0,0,1-2.577-3.5" transform="translate(4.297 0.842)" fill="#e0e0e0"/>
            <path id="Trazado_833286" data-name="Trazado 833286" d="M135.21,49.37a30.305,30.305,0,0,0-5.051,1.889l-1.725.789c.653.958,1.33,2.538,2.291,3.009a3.5,3.5,0,0,0,3.443-.234A4.013,4.013,0,0,0,135.3,52.3a13.323,13.323,0,0,0-.088-2.931" transform="translate(4.893 1.881)" fill="#ff9b6c"/>
            <path id="Trazado_833287" data-name="Trazado 833287" d="M129.142,53.216c.048-.021.152.236.433.617a2.954,2.954,0,0,0,1.573,1.108,3.7,3.7,0,0,0,2.781-.348,3.583,3.583,0,0,0,1.253-3.1,8.943,8.943,0,0,0-.339-2.137l.352.172c-1.978.786-3.707,1.449-4.949,1.9a9.569,9.569,0,0,1-2.018.635,9.513,9.513,0,0,1,1.891-.948c1.207-.539,2.911-1.265,4.877-2.077l.271-.112.082.284a8.928,8.928,0,0,1,.373,2.27,3.445,3.445,0,0,1-4.689,3.818,2.959,2.959,0,0,1-1.634-1.358,1.491,1.491,0,0,1-.256-.731" transform="translate(4.885 1.864)" fill="#263238"/>
            <path id="Trazado_833288" data-name="Trazado 833288" d="M216.385,199.859a3.053,3.053,0,0,1-.436,2.133c-1.5,2.355-5.18,8.262-5.329,9.67-.187,1.769-.373,5.774,0,6.519s4.1,1.3,4.1,1.3-.465,2.98.931,4.191,7.544-1.3,7.544-1.3a42.036,42.036,0,0,0,5.309-1.118s3.632.466,4.191-2.7-1.677-13.6-1.77-16.2-1.954-9.031-1.954-9.031l-13.278,2.289Z" transform="translate(8.016 7.365)" fill="#ffc09d"/>
            <path id="Trazado_833289" data-name="Trazado 833289" d="M219.271,212.748c.082.141-1.381,1.014-2.71,2.582-1.348,1.551-1.989,3.128-2.141,3.068a8.028,8.028,0,0,1,4.851-5.649" transform="translate(8.168 8.105)" fill="#ff9b6c"/>
            <path id="Trazado_833290" data-name="Trazado 833290" d="M217.783,214.905c.007-.051.4-.064,1.055.113a5.815,5.815,0,0,1,2.375,1.345l1.6,1.486-1.9-1.086a1.784,1.784,0,0,0-2.619,1.189l-.325,1.552-.182-1.566a3.214,3.214,0,0,0-.431-1.387,1.388,1.388,0,0,0-.864-.626,1.62,1.62,0,0,0-.992.142c-.019-.016.022-.125.187-.253a1.214,1.214,0,0,1,.857-.2,1.676,1.676,0,0,1,1.168.689,3.43,3.43,0,0,1,.583,1.572l-.506-.015a2.251,2.251,0,0,1,3.378-1.528l-.3.4a9.6,9.6,0,0,0-3.079-1.822" transform="translate(8.21 8.186)" fill="#ff9b6c"/>
            <path id="Trazado_833291" data-name="Trazado 833291" d="M228.986,216.315c.073-.008.18.252.274.7a4.4,4.4,0,0,1,.018,1.807,2.565,2.565,0,0,1-1,1.563c-.414.274-.736.262-.749.2-.024-.079.225-.2.5-.493a2.968,2.968,0,0,0,.72-1.387c.231-1.234.047-2.374.236-2.386" transform="translate(8.668 8.241)" fill="#ff9b6c"/>
            <path id="Trazado_833292" data-name="Trazado 833292" d="M43.488,69.909a31.986,31.986,0,0,0,5.021,9.881l3.771,2.654.489,8.033L67.159,84.33l-.415-7.994L65.832,65.61l-9.361-8.033Z" transform="translate(1.657 2.194)" fill="#ffc09d"/>
            <path id="Trazado_833293" data-name="Trazado 833293" d="M85.028,47.392,78.254,63.458l-4.032-.809L49.946,85.529,41.7,71.936s14.772-7.684,17.2-13.329-.12-5.349-.12-5.349l5.777-9.973Z" transform="translate(1.589 1.649)" fill="#263238"/>
            <path id="Trazado_833294" data-name="Trazado 833294" d="M75.123,28.674s-8.1-1.889-21.328-10.137A116.836,116.836,0,0,1,32.972,1.587a4.388,4.388,0,0,0-6.111-.219C24.18,3.853,20.623,9.924,17.2,25.052c-6.033,26.674-.438,31.388,1.776,30.872s16.67-6.1,26.328-7.023,24.562,1.14,24.562,1.14Z" transform="translate(0.552 0.009)" fill="#e0e0e0"/>
            <path id="Trazado_833295" data-name="Trazado 833295" d="M75.133,28.683a2.563,2.563,0,0,1-.07.353c-.059.262-.14.615-.244,1.068l-.985,4.179c-.887,3.7-2.172,9.059-3.79,15.807l-.035.149-.155-.02c-4.236-.534-9.076-1.011-14.408-1.234-2.666-.1-5.457-.145-8.344.021a52.131,52.131,0,0,0-8.866,1.386c-6.059,1.389-12.283,3.552-18.871,5.71l-.321.088-.382.029a2.674,2.674,0,0,1-.73-.124c-.211-.112-.432-.216-.631-.344l-.53-.46A7.072,7.072,0,0,1,15.4,52.953a18.4,18.4,0,0,1-1.05-5.285,55.851,55.851,0,0,1,.482-10.952q.167-1.224.334-2.44c.122-.809.277-1.609.413-2.41.263-1.6.589-3.184.928-4.749.634-3.14,1.4-6.2,2.239-9.192A74.579,74.579,0,0,1,21.7,9.275a26.181,26.181,0,0,1,4.476-7.559A5.327,5.327,0,0,1,27.932.389,4.541,4.541,0,0,1,30.088.012,4.679,4.679,0,0,1,32.15.647a7.532,7.532,0,0,1,1.579,1.37c1.89,1.913,3.793,3.706,5.679,5.384a116.1,116.1,0,0,0,11.019,8.7,113.33,113.33,0,0,0,17.722,9.95c2.2.964,3.951,1.616,5.147,2.027.6.209,1.059.351,1.368.448a4.392,4.392,0,0,1,.467.153,2.728,2.728,0,0,1-.482-.1c-.316-.08-.783-.206-1.387-.4-1.21-.379-2.977-1-5.2-1.938A109.328,109.328,0,0,1,50.211,16.42a115.089,115.089,0,0,1-11.1-8.683c-1.9-1.678-3.815-3.469-5.72-5.386a7.121,7.121,0,0,0-1.484-1.288,4.176,4.176,0,0,0-5.369.994,25.826,25.826,0,0,0-4.363,7.418,74.532,74.532,0,0,0-2.923,8.593c-.833,2.974-1.592,6.029-2.224,9.159-.337,1.56-.661,3.135-.921,4.732-.136.8-.29,1.595-.412,2.4s-.221,1.614-.332,2.426a55.587,55.587,0,0,0-.482,10.842,17.872,17.872,0,0,0,1.01,5.132,6.574,6.574,0,0,0,1.259,2.164l.456.4c.165.1.343.183.511.28a1.662,1.662,0,0,0,1.11-.007c6.528-2.129,12.817-4.3,18.9-5.675a52.353,52.353,0,0,1,8.949-1.369c2.912-.158,5.715-.1,8.389.012,5.349.248,10.189.754,14.437,1.318l-.19.129c1.686-6.685,3.025-12,3.949-15.662.465-1.814.825-3.219,1.075-4.2.121-.462.217-.822.287-1.089a3.506,3.506,0,0,1,.111-.378" transform="translate(0.543 0)" fill="#263238"/>
            <path id="Trazado_833296" data-name="Trazado 833296" d="M94.283,48.273l-5.221-.507,2.616-6.949,4.478,2.065Z" transform="translate(3.393 1.555)" fill="#ff725e"/>
            <path id="Trazado_833297" data-name="Trazado 833297" d="M93.484,40.784,91.446,46.2,90.333,49.15a8.138,8.138,0,0,1-10.08,4.89L58.918,49.47l7.145-26.782,21.7,6.639a9.417,9.417,0,0,1,5.718,11.457" transform="translate(2.245 0.864)" fill="#ff725e"/>
            <g id="Grupo_1083312" data-name="Grupo 1083312" transform="translate(17.259 1.865)" opacity="0.3">
              <g id="Grupo_1083311" data-name="Grupo 1083311">
                <g id="Grupo_1083310" data-name="Grupo 1083310" clip-path="url(#clip-path-4)">
                  <path id="Trazado_833298" data-name="Trazado 833298" d="M18.935,26.312c-3.116,14.217-3.073,26.3.1,27S27.3,43.045,30.414,28.828s3.073-26.3-.1-27S22.051,12.095,18.935,26.312" transform="translate(-16.626 -1.797)"/>
                </g>
              </g>
            </g>
            <path id="Trazado_833299" data-name="Trazado 833299" d="M31.746,19.819S24.065,17.045,22.29,27s5.689,9.957,5.689,9.957a62.47,62.47,0,0,0,3.767-17.143" transform="translate(0.839 0.742)" fill="#fff"/>
            <path id="Trazado_833300" data-name="Trazado 833300" d="M70.378,32.341a71.356,71.356,0,0,0,8.22,2.517,71.227,71.227,0,0,0,8.357,2.015,71.4,71.4,0,0,0-8.22-2.516,71.316,71.316,0,0,0-8.357-2.016" transform="translate(2.681 1.232)" fill="#263238"/>
            <path id="Trazado_833301" data-name="Trazado 833301" d="M69.631,35.181a71.323,71.323,0,0,0,8.22,2.516,71.122,71.122,0,0,0,8.357,2.016,71.4,71.4,0,0,0-8.22-2.516,71.321,71.321,0,0,0-8.357-2.016" transform="translate(2.653 1.34)" fill="#263238"/>
            <path id="Trazado_833302" data-name="Trazado 833302" d="M68.884,38.022a71.319,71.319,0,0,0,8.22,2.516,70.874,70.874,0,0,0,8.357,2.016,71.4,71.4,0,0,0-8.22-2.516,71.319,71.319,0,0,0-8.357-2.016" transform="translate(2.624 1.448)" fill="#263238"/>
            <path id="Trazado_833303" data-name="Trazado 833303" d="M68.137,40.862a71.318,71.318,0,0,0,8.22,2.516,71.122,71.122,0,0,0,8.357,2.016,71.4,71.4,0,0,0-8.22-2.516,71.319,71.319,0,0,0-8.357-2.016" transform="translate(2.596 1.556)" fill="#263238"/>
            <path id="Trazado_833304" data-name="Trazado 833304" d="M61.875,64.929l-2.9-6.5a3.161,3.161,0,0,0-4.485-1.5,2.368,2.368,0,0,0-1.133,2.3s-4.706-1.219-3.929,3.2c0,0-3.436-.149-3.122,3.007,0,0-4.215-.7-3.663,3.385s5.793,5.919,7.151,5.349c0,0,1.436-.481.681-2.76,0,0,3.7,4.416,5.8,3.347s.12-3.031.12-3.031,1.438,1.277,2.7.648-.561-5.126-.561-5.126a3.663,3.663,0,0,0,2.531.087c1.107-.5.813-2.415.813-2.415" transform="translate(1.623 2.152)" fill="#ffc09d"/>
            <path id="Trazado_833305" data-name="Trazado 833305" d="M50.343,71.085c-.139.067-.958-1.316-2.244-2.832a10.4,10.4,0,0,1-2.092-2.987,15.615,15.615,0,0,1,2.509,2.643,7.356,7.356,0,0,1,1.827,3.176" transform="translate(1.752 2.486)" fill="#ff9b6c"/>
            <path id="Trazado_833306" data-name="Trazado 833306" d="M49.359,62.048a20.951,20.951,0,0,1,4,4.522A20.963,20.963,0,0,1,56.373,71.8c-.138.076-1.517-2.234-3.453-4.916s-3.677-4.731-3.561-4.838" transform="translate(1.88 2.364)" fill="#ff9b6c"/>
            <path id="Trazado_833307" data-name="Trazado 833307" d="M58.433,67.637a37.118,37.118,0,0,0-2.225-4.575,37.37,37.37,0,0,0-3.267-3.9,9.491,9.491,0,0,1,3.721,3.607,9.48,9.48,0,0,1,1.771,4.869" transform="translate(2.017 2.254)" fill="#ff9b6c"/>
            <path id="Trazado_833308" data-name="Trazado 833308" d="M72.333,64.687l-1.86-1.86a2.634,2.634,0,0,0-2.378-.724,26.84,26.84,0,0,0-6.622,2.209c-.974.824-.3,2.846,3.371,2.7s.375.008.375.008S57.394,70.55,59.747,77.5l6.066-.464s6.6-8.307,7.045-9.8a2.745,2.745,0,0,0-.524-2.546" transform="translate(2.259 2.364)" fill="#ffc09d"/>
            <path id="Trazado_833309" data-name="Trazado 833309" d="M66.668,66.466c.02.09-.814.244-2,.839a9.149,9.149,0,0,0-5.153,8.307c0,1.331.229,2.146.14,2.169a4.555,4.555,0,0,1-.522-2.157A8.758,8.758,0,0,1,64.5,66.957a4.557,4.557,0,0,1,2.164-.491" transform="translate(2.252 2.531)" fill="#ff9b6c"/>
            <path id="Trazado_833310" data-name="Trazado 833310" d="M27.175,34.539c.032.08-3.886,1.748-8.75,3.724S9.588,41.777,9.556,41.7s3.885-1.747,8.75-3.724,8.836-3.513,8.868-3.433" transform="translate(0.364 1.316)" fill="#263238"/>
            <path id="Trazado_833311" data-name="Trazado 833311" d="M28.659,25.635c-.008.086-6.431-.453-14.343-1.2S-.008,23,0,22.913s6.429.453,14.344,1.2,14.323,1.432,14.314,1.518" transform="translate(0 0.873)" fill="#263238"/>
            <path id="Trazado_833312" data-name="Trazado 833312" d="M28.864,16.619c-.055.066-2.394-1.784-5.223-4.134S18.564,8.177,18.619,8.11s2.393,1.783,5.223,4.134,5.077,4.309,5.022,4.376" transform="translate(0.709 0.309)" fill="#263238"/>
            <path id="Trazado_833313" data-name="Trazado 833313" d="M31.7,3.217a1.839,1.839,0,0,1,.1.5c.05.4.111.876.186,1.457.081.633.164,1.409.214,2.314s.149,1.935.156,3.077a75.432,75.432,0,0,1-.2,8.016,84.1,84.1,0,0,1-1.386,9.725A83.8,83.8,0,0,1,28.16,37.78a75.083,75.083,0,0,1-3.02,7.43c-.461,1.044-.959,1.951-1.371,2.758s-.792,1.489-1.119,2.037L21.9,51.266a1.858,1.858,0,0,1-.294.42,1.841,1.841,0,0,1,.2-.474l.661-1.308c.3-.563.656-1.253,1.036-2.073s.855-1.731,1.292-2.78c.937-2.07,1.927-4.589,2.9-7.431A90.161,90.161,0,0,0,30.243,28.2a90.418,90.418,0,0,0,1.419-9.655c.245-2.991.345-5.7.311-7.968.018-1.137-.05-2.162-.076-3.066s-.073-1.68-.121-2.314c-.034-.583-.061-1.066-.085-1.464a1.845,1.845,0,0,1,.007-.515" transform="translate(0.823 0.123)" fill="#263238"/>
            <path id="Trazado_833314" data-name="Trazado 833314" d="M69.815,81.763l1.041,22.007.723,3.413,20.243-10.55s4.961-9,7.489-13.317,5.244-5.567,5.244-5.567l-6.708,46.9S77.25,133.36,71.9,134.7s-17.248,6.1-18.586-7.285S48.1,90.833,48.1,90.833Z" transform="translate(1.833 2.962)" fill="#263238"/>
            <path id="Trazado_833315" data-name="Trazado 833315" d="M66.391,124.44c-.072-.07.745-.884,1.771-2.406a19.5,19.5,0,0,0,3.1-13.641c-.268-1.817-.652-2.9-.558-2.936.035-.012.156.249.344.737a12.484,12.484,0,0,1,.592,2.134,17.019,17.019,0,0,1,.317,3.279,18.19,18.19,0,0,1-1.777,7.826,16.972,16.972,0,0,1-1.7,2.819,12.442,12.442,0,0,1-1.455,1.669c-.381.359-.6.544-.628.517" transform="translate(2.529 4.018)" fill="#455a64"/>
            <path id="Trazado_833316" data-name="Trazado 833316" d="M155.367,129.934c.118-2.839,4.495-23.185,4.495-23.54s-4.329-30.245-4.329-30.245l-.96-9.361L133.567,79.382s-8.932-6.718-8.721-7.075l-4.927,29.626-10.009,92.6s3.433,4.178,16.536,6.1c16.339,2.391,39.928-6.1,39.928-6.1s-11.125-61.761-11.007-64.6" transform="translate(4.187 2.545)" fill="#e0e0e0"/>
            <path id="Trazado_833317" data-name="Trazado 833317" d="M106.832,226.445s3.086,2.334,4.972-11.708,7.457-72.927,7.457-72.927l4.023-60.956-12.016,35.5Z" transform="translate(4.07 3.08)"/>
            <path id="Trazado_833318" data-name="Trazado 833318" d="M151.91,177.045s5.516,53.886,7.61,52.839,22.245-8.992,22.245-8.992l-2.028-17.42Z" transform="translate(5.787 6.745)"/>
            <path id="Trazado_833319" data-name="Trazado 833319" d="M153.685,67.617c.731.567,9.047,8.613,9.047,8.613s19.029,2.127,19.577,2.695-1.12,80.087-1.12,80.087l12.495,57.223-32.715,13.438s-6.644-33.545-9.751-51.683-2.191-23.275-1.826-40.846,4.2-60.915,4.2-60.915Z" transform="translate(5.676 2.576)" fill="#263238"/>
            <path id="Trazado_833320" data-name="Trazado 833320" d="M151.136,154.662a5.044,5.044,0,0,1,.071-.854c.071-.556.151-1.383.323-2.435.328-2.107.86-5.149,1.6-8.889,1.463-7.484,3.679-17.78,6.251-29.121,2.061-9.095,4.03-17.483,5.646-24.2l.071.216-3.866-3.294-.162-.138.154-.144,3.914-3.687-.034.162c-.78-1.979-1.4-3.552-1.846-4.684l-.468-1.243a2,2,0,0,1-.136-.437,2.021,2.021,0,0,1,.21.407c.139.315.318.715.539,1.214l1.973,4.631.038.091-.073.072c-1.117,1.085-2.4,2.329-3.855,3.749l-.008-.281,3.9,3.25.1.085-.03.132c-1.546,6.756-3.465,15.143-5.542,24.22-2.571,11.339-4.847,21.618-6.4,29.077-.785,3.729-1.372,6.754-1.764,8.849-.2,1.045-.317,1.863-.423,2.415a5.191,5.191,0,0,1-.179.84" transform="translate(5.758 2.892)" fill="#455a64"/>
            <path id="Trazado_833321" data-name="Trazado 833321" d="M180.08,78.219s7.539,1.616,11.282,10.469c1.644,3.89,20.816,45.3,24.809,53.563S233.3,197.169,233.3,197.169l-22.369,3.857-12.359-47.3-20.452-37.072,1.963-18.45Z" transform="translate(6.786 2.98)" fill="#263238"/>
            <path id="Trazado_833322" data-name="Trazado 833322" d="M183.447,95.375c.148.013-.369,6.89-1.155,15.356s-1.546,15.321-1.694,15.308.368-6.889,1.155-15.358,1.546-15.319,1.694-15.306" transform="translate(6.879 3.634)" fill="#455a64"/>
            <path id="Trazado_833323" data-name="Trazado 833323" d="M210.934,196.438l.568,2.613,20.258-3.6-.589-2.5Z" transform="translate(8.036 7.351)" fill="#e0e0e0"/>
            <path id="Trazado_833324" data-name="Trazado 833324" d="M193.643,212.446a3.978,3.978,0,0,1-.616.3c-.452.2-1.052.46-1.81.79l-6.794,2.875-23.395,9.713-.3.124-.058-.318c-.7-3.78-1.453-7.827-2.226-12-2.353-12.908-4.481-24.589-6.032-33.1-.74-4.2-1.341-7.623-1.767-10.043q-.288-1.728-.454-2.734c-.043-.287-.077-.521-.1-.714a.788.788,0,0,1-.018-.246.871.871,0,0,1,.072.236c.043.191.093.421.157.7q.2,1,.554,2.717c.465,2.411,1.125,5.819,1.935,10.01,1.591,8.5,3.775,20.175,6.187,33.072.769,4.177,1.513,8.227,2.207,12.007l-.355-.194L184.3,216.1l6.854-2.732,1.844-.71a3.785,3.785,0,0,1,.649-.217" transform="translate(5.717 6.366)" fill="#455a64"/>
            <path id="Trazado_833325" data-name="Trazado 833325" d="M127.675,86.654l2.615,3.852h3.919l2.095-3.852-2.309-4.875-3.106.167Z" transform="translate(4.864 3.116)" fill="#b6c19d"/>
            <path id="Trazado_833326" data-name="Trazado 833326" d="M153.06,78.92a4.863,4.863,0,0,1-.924.7l-2.627,1.75c-2.232,1.457-5.334,3.44-8.777,5.6L137.5,88.994l-.223.139-.135-.218a44.551,44.551,0,0,1-3.389-7.079c-.357-.9-.63-1.628-.812-2.127a2.91,2.91,0,0,1-.238-.789,19.955,19.955,0,0,1,1.355,2.787,55.226,55.226,0,0,0,3.522,6.924l-.357-.079,3.225-2.036c3.443-2.16,6.578-4.091,8.861-5.467l2.719-1.6a4.88,4.88,0,0,1,1.036-.526" transform="translate(5.055 3.007)" fill="#455a64"/>
            <path id="Trazado_833327" data-name="Trazado 833327" d="M123.348,82.84a7.064,7.064,0,0,1,1.144,1.374c.671.9,1.589,2.172,2.632,3.661l-.424-.007c.428-.591.872-1.244,1.329-1.922,1.323-1.978,2.508-3.786,3.423-5.058a9.746,9.746,0,0,1,1.6-1.969,15.03,15.03,0,0,1-1.286,2.182c-.83,1.322-1.962,3.159-3.292,5.147-.459.681-.914,1.335-1.359,1.929l-.22.294-.2-.3c-1.016-1.508-1.878-2.823-2.474-3.77a7.024,7.024,0,0,1-.873-1.56" transform="translate(4.699 3.007)" fill="#455a64"/>
            <path id="Trazado_833328" data-name="Trazado 833328" d="M130.628,90.186l-11.823,89.266,7.519,15.592,12.7-16.428-4.477-88.43Z" transform="translate(4.526 3.436)" fill="#b6c19d"/>
            <path id="Trazado_833329" data-name="Trazado 833329" d="M104.022,225.027a3.34,3.34,0,0,0,4.972-2.616l6.5-66.685,9.814-82.376-3.458,2.931s-18.438,1.338-18.884,1.636-4.137,11.594-5.773,25.571-.382,57.424-.382,57.424L89.86,215.626Z" transform="translate(3.423 2.794)" fill="#263238"/>
            <path id="Trazado_833330" data-name="Trazado 833330" d="M95.84,90.745a7.557,7.557,0,0,1,.116,1.453c.031,1.039.071,2.368.117,3.959.075,3.343.141,7.958.182,13.056s.046,9.717.023,13.059c-.022,1.591-.04,2.92-.055,3.958a7.539,7.539,0,0,1-.093,1.453,7.483,7.483,0,0,1-.116-1.449c-.031-1.039-.071-2.367-.117-3.958-.075-3.342-.141-7.961-.182-13.063s-.046-9.72-.023-13.061c.022-1.591.04-2.919.055-3.958a7.458,7.458,0,0,1,.093-1.449" transform="translate(3.645 3.457)" fill="#455a64"/>
            <path id="Trazado_833331" data-name="Trazado 833331" d="M112.91,157.283a5.576,5.576,0,0,1,0-.9c.005-.59.068-1.455.071-2.574.037-2.237.066-5.474.036-9.476-.038-8-.236-19.057-.508-31.266-.2-8.333-.394-16.126-.555-22.722l0-.144.125-.067,4.471-2.409-.073.3c-1.108-1.62-2.117-3.095-3.036-4.439l-.086-.126.109-.1,5.9-5.585,1.6-1.476a4.392,4.392,0,0,1,.575-.486,4.171,4.171,0,0,1-.506.557l-1.53,1.544-5.788,5.7.023-.229,3.088,4.4.134.19-.206.113-4.449,2.449.12-.21c.223,6.584.444,14.383.633,22.725.272,12.211.409,23.271.349,31.279-.019,4-.106,7.244-.208,9.482-.035,1.119-.132,1.987-.173,2.575a5.555,5.555,0,0,1-.1.894" transform="translate(4.265 2.888)" fill="#455a64"/>
            <path id="Trazado_833332" data-name="Trazado 833332" d="M111.578,190.877a1.791,1.791,0,0,1-.012.506c-.038.391-.084.866-.14,1.438-.155,1.33-.362,3.11-.614,5.273-.543,4.449-1.329,10.591-2.23,17.368-.321,2.384-.631,4.689-.919,6.827l-.051.38-.332-.187-11.165-6.3L92.9,214.307a7.588,7.588,0,0,1-1.127-.727,7.656,7.656,0,0,1,1.212.573l3.289,1.738,11.258,6.135-.382.193c.28-2.138.583-4.443.9-6.83.9-6.778,1.747-12.911,2.387-17.347.322-2.153.587-3.927.784-5.251.1-.567.175-1.036.241-1.423a1.809,1.809,0,0,1,.12-.492" transform="translate(3.496 7.272)" fill="#455a64"/>
            <path id="Trazado_833333" data-name="Trazado 833333" d="M49.359,90.208l.244-3.938L67.57,79.883l1,2.3Z" transform="translate(1.88 3.043)" fill="#e0e0e0"/>
            <rect id="Rectángulo_385108" data-name="Rectángulo 385108" width="15.429" height="10.345" transform="translate(162.908 113.022)" fill="#ff725e"/>
            <rect id="Rectángulo_385109" data-name="Rectángulo 385109" width="15.499" height="5.309" transform="translate(162.908 118.058)" fill="#fff"/>
            <path id="Trazado_833334" data-name="Trazado 833334" d="M172.371,119.23a5.437,5.437,0,0,1-.052-.776c-.016-.563-.036-1.259-.06-2.1-.031-1.879-.073-4.414-.124-7.464l.236.236-15.428.059c-.065.063.556-.558.294-.294v1.371q0,.682,0,1.354,0,1.345-.005,2.645c-.006,1.728-.012,3.393-.018,4.974l-.27-.27c4.488.022,8.307.082,11.036.133l3.2.073a9.74,9.74,0,0,1,1.19.064,6.543,6.543,0,0,1-1.074.064l-3.142.073c-2.713.051-6.607.111-11.213.133h-.269v-.271c-.006-1.581-.012-3.245-.019-4.974q0-1.3-.005-2.645,0-.671,0-1.354v-1.371c-.264.263.358-.36.3-.3l15.428.059h.238l0,.235c-.027,3.206-.081,5.821-.124,7.61-.025.824-.045,1.5-.06,2.051a3.292,3.292,0,0,1-.052.683" transform="translate(5.965 4.137)" fill="#455a64"/>
          </g>
        </g>
      </g>
    </g>
  </g>
</svg>
