<svg xmlns="http://www.w3.org/2000/svg" xmlns:xlink="http://www.w3.org/1999/xlink" width="295" height="326.297" viewBox="0 0 295 326.297">
  <defs>
    <clipPath id="clip-path">
      <rect id="Rectángulo_385390" data-name="Rectángulo 385390" width="217.538" height="325.815" fill="none"/>
    </clipPath>
    <clipPath id="clip-path-3">
      <path id="Trazado_834514" data-name="Trazado 834514" d="M225.027,295.725l33.019,18.085c-.013-2.2-.881-3.806-2.236-4.547l-33.02-18.086c1.352.743,2.223,2.347,2.236,4.549" transform="translate(-222.791 -291.176)" fill="none"/>
    </clipPath>
    <clipPath id="clip-path-5">
      <path id="Trazado_834524" data-name="Trazado 834524" d="M156.58,400.88l33.02,18.086a4.476,4.476,0,0,0,3.966-.007l-33.021-18.086a4.466,4.466,0,0,1-3.965.007" transform="translate(-156.58 -400.873)" fill="none"/>
    </clipPath>
    <clipPath id="clip-path-6">
      <path id="Trazado_834533" data-name="Trazado 834533" d="M215.668,291.345l33.019,18.086a4.474,4.474,0,0,1,3.965-.008L219.633,291.34a3.818,3.818,0,0,0-1.854-.458,5.414,5.414,0,0,0-2.111.463" transform="translate(-215.668 -290.882)" fill="none"/>
    </clipPath>
    <clipPath id="clip-path-8">
      <path id="Trazado_834548" data-name="Trazado 834548" d="M204.69,301.481l33.019,18.085c-.026-3.949,2.71-8.323,6.107-9.765L210.8,291.715c-3.4,1.443-6.134,5.818-6.107,9.766" transform="translate(-204.69 -291.715)" fill="none"/>
    </clipPath>
    <clipPath id="clip-path-10">
      <path id="Trazado_834564" data-name="Trazado 834564" d="M152.878,384.787c.016,2.2.884,3.806,2.238,4.549l33.02,18.085c-1.355-.741-2.223-2.347-2.237-4.547-.026-3.949,2.709-8.324,6.107-9.766l-33.02-18.085c-3.4,1.442-6.135,5.816-6.109,9.765" transform="translate(-152.878 -375.022)" fill="none"/>
    </clipPath>
    <clipPath id="clip-path-12">
      <path id="Trazado_834588" data-name="Trazado 834588" d="M128.437,328.371l33.021,18.086a4.482,4.482,0,0,1,3.974-.008l-33.02-18.085a3.831,3.831,0,0,0-1.856-.458,5.441,5.441,0,0,0-2.119.465" transform="translate(-128.437 -327.906)" fill="none"/>
    </clipPath>
    <clipPath id="clip-path-13">
      <path id="Trazado_834602" data-name="Trazado 834602" d="M152.207,282.8c.015,2.2.883,3.805,2.236,4.547l33.02,18.085c-1.354-.741-2.222-2.347-2.235-4.547-.027-3.949,2.708-8.323,6.107-9.766l-33.02-18.085c-3.4,1.442-6.135,5.816-6.109,9.766" transform="translate(-152.207 -273.035)" fill="none"/>
    </clipPath>
    <clipPath id="clip-path-15">
      <path id="Trazado_834617" data-name="Trazado 834617" d="M117.473,338.505l33.019,18.084c-.025-3.948,2.7-8.32,6.1-9.761l-33.021-18.086c-3.4,1.443-6.125,5.814-6.1,9.764" transform="translate(-117.473 -328.741)" fill="none"/>
    </clipPath>
    <clipPath id="clip-path-17">
      <rect id="Rectángulo_385361" data-name="Rectángulo 385361" width="0.568" height="0.569" fill="none"/>
    </clipPath>
    <clipPath id="clip-path-19">
      <rect id="Rectángulo_385363" data-name="Rectángulo 385363" width="0.569" height="0.566" fill="none"/>
    </clipPath>
    <clipPath id="clip-path-20">
      <rect id="Rectángulo_385364" data-name="Rectángulo 385364" width="0.57" height="0.569" fill="none"/>
    </clipPath>
    <clipPath id="clip-path-22">
      <rect id="Rectángulo_385366" data-name="Rectángulo 385366" width="0.567" height="0.569" fill="none"/>
    </clipPath>
    <clipPath id="clip-path-23">
      <rect id="Rectángulo_385367" data-name="Rectángulo 385367" width="9.048" height="4.94" fill="none"/>
    </clipPath>
    <clipPath id="clip-path-24">
      <rect id="Rectángulo_385368" data-name="Rectángulo 385368" width="0.567" height="0.57" fill="none"/>
    </clipPath>
    <clipPath id="clip-path-25">
      <rect id="Rectángulo_385369" data-name="Rectángulo 385369" width="0.569" height="0.568" fill="none"/>
    </clipPath>
    <clipPath id="clip-path-26">
      <rect id="Rectángulo_385370" data-name="Rectángulo 385370" width="0.569" height="0.567" fill="none"/>
    </clipPath>
    <clipPath id="clip-path-27">
      <rect id="Rectángulo_385371" data-name="Rectángulo 385371" width="0.568" height="0.568" fill="none"/>
    </clipPath>
    <clipPath id="clip-path-37">
      <rect id="Rectángulo_385381" data-name="Rectángulo 385381" width="12.782" height="21.883" fill="none"/>
    </clipPath>
    <clipPath id="clip-path-38">
      <rect id="Rectángulo_385383" data-name="Rectángulo 385383" width="5.566" height="5.949" fill="none"/>
    </clipPath>
    <clipPath id="clip-path-39">
      <rect id="Rectángulo_385384" data-name="Rectángulo 385384" width="22.737" height="40.972" fill="none"/>
    </clipPath>
    <clipPath id="clip-path-40">
      <rect id="Rectángulo_385385" data-name="Rectángulo 385385" width="13.911" height="20.406" fill="none"/>
    </clipPath>
    <clipPath id="clip-path-41">
      <rect id="Rectángulo_385386" data-name="Rectángulo 385386" width="15.363" height="41.853" fill="none"/>
    </clipPath>
    <clipPath id="clip-path-43">
      <rect id="Rectángulo_385388" data-name="Rectángulo 385388" width="13.435" height="48.099" fill="none"/>
    </clipPath>
  </defs>
  <g id="Grupo_1083758" data-name="Grupo 1083758" transform="translate(-180 -25603.702)">
    <g id="Grupo_1083757" data-name="Grupo 1083757" transform="translate(228 25603.701)">
      <g id="Grupo_1083756" data-name="Grupo 1083756" clip-path="url(#clip-path)">
        <g id="Grupo_1083646" data-name="Grupo 1083646">
          <g id="Grupo_1083645" data-name="Grupo 1083645" clip-path="url(#clip-path)">
            <path id="Trazado_834503" data-name="Trazado 834503" d="M333.016,550.675c0,7.443-16.282,13.476-36.368,13.476s-36.366-6.034-36.366-13.476S276.564,537.2,296.648,537.2s36.368,6.034,36.368,13.477" transform="translate(-115.478 -238.336)" fill="#98a7d3"/>
            <path id="Trazado_834504" data-name="Trazado 834504" d="M84.951,477.619,181.823,436.5l33.02,18.084L117.972,495.7Z" transform="translate(-37.69 -193.66)" fill="#98a7d3"/>
            <path id="Trazado_834505" data-name="Trazado 834505" d="M298.653,348.021c.06-.01.116-.019.175-.027.144-.019.286-.031.427-.038.057,0,.114-.008.171-.008.114,0,.224.008.334.016.058,0,.119,0,.176.011.086.01.167.028.251.043s.147.024.219.041.122.037.184.056c.086.025.173.051.256.082.058.021.113.049.17.074.093.041.189.081.278.131l-33.02-18.085c-.027-.016-.056-.032-.083-.046-.061-.031-.128-.055-.191-.083s-.114-.054-.174-.077c-.012,0-.022-.011-.034-.016-.073-.027-.15-.045-.223-.067s-.12-.04-.182-.055l-.024-.007c-.07-.017-.142-.025-.215-.037s-.149-.031-.228-.04l-.027-.006c-.057-.005-.116,0-.172-.007-.1-.008-.209-.016-.314-.014-.016,0-.029,0-.046,0-.041,0-.085.01-.126.012-.141.006-.282.016-.428.034-.031.006-.059,0-.09.009s-.055.015-.083.021a5.4,5.4,0,0,0-.806.2c-.008,0-.016,0-.024.006-.163.053-.328.116-.494.187l-4.981,2.115,33.02,18.085,4.982-2.115c.175-.074.348-.137.518-.192a5.481,5.481,0,0,1,.805-.2" transform="translate(-115.055 -146.347)" fill="#22437a"/>
            <path id="Trazado_834506" data-name="Trazado 834506" d="M258.719,415.8c-.015-2.2-.883-3.806-2.237-4.547l-33.021-18.086c1.354.742,2.223,2.348,2.237,4.547l.038,5.8,33.02,18.086Z" transform="translate(-99.142 -174.432)" fill="#1f3c6c"/>
            <path id="Trazado_834507" data-name="Trazado 834507" d="M205.477,453.145l-33.019-18.085.252-.107,33.021,18.085Z" transform="translate(-76.513 -192.973)" fill="#688931"/>
            <path id="Trazado_834508" data-name="Trazado 834508" d="M259.9,322.308l-33.021-18.085,17.912-7.6,33.02,18.085Z" transform="translate(-100.659 -131.6)" fill="#22437a"/>
            <path id="Trazado_834509" data-name="Trazado 834509" d="M259.869,323.228l-33.02-18.088-.038-5.788,33.02,18.085Z" transform="translate(-100.628 -132.812)" fill="#292652"/>
            <path id="Trazado_834510" data-name="Trazado 834510" d="M205.366,436.425l-33.019-18.085-.139-21.073,33.02,18.086Z" transform="translate(-76.402 -176.253)" fill="#1c355f"/>
            <path id="Trazado_834511" data-name="Trazado 834511" d="M251.691,258.227l-4.982,2.115c-.174.074-.347.137-.519.193a5.579,5.579,0,0,1-.8.195c-.059.011-.12.022-.179.029-.145.018-.286.029-.428.036-.055,0-.111.008-.164.009-.112,0-.22-.008-.33-.016-.061,0-.125,0-.185-.012-.086-.011-.168-.028-.251-.043s-.147-.024-.217-.04-.139-.043-.209-.063-.154-.046-.229-.073a2.077,2.077,0,0,1-.191-.085c-.09-.039-.179-.075-.263-.121l33.02,18.085c.028.016.057.032.085.045.062.033.127.057.19.085s.117.054.178.077a.188.188,0,0,0,.032.014c.066.025.137.041.206.062s.131.045.2.061c.009,0,.016.005.025.006.065.016.135.023.2.035.082.016.16.033.245.043a.185.185,0,0,0,.026,0c.052.006.107,0,.161.008.107.008.217.016.328.016l.043,0c.04,0,.081-.009.123-.01.14-.007.283-.017.428-.037.032,0,.061,0,.093-.009s.057-.015.086-.021a5.337,5.337,0,0,0,.8-.195l.026-.006c.162-.055.326-.117.491-.187l4.982-2.114Z" transform="translate(-107.697 -114.566)" fill="#282652"/>
            <path id="Trazado_834512" data-name="Trazado 834512" d="M196.728,417.359l-33.02-18.086,4.729-2.007,33.02,18.086Z" transform="translate(-72.631 -176.253)" fill="#688931"/>
          </g>
        </g>
        <g id="Grupo_1083648" data-name="Grupo 1083648" transform="translate(123.946 161.991)">
          <g id="Grupo_1083647" data-name="Grupo 1083647" clip-path="url(#clip-path-3)">
            <path id="Trazado_834513" data-name="Trazado 834513" d="M258.047,313.81l-33.02-18.085c-.014-2.2-.883-3.806-2.236-4.549l33.019,18.086c1.355.741,2.224,2.347,2.236,4.547" transform="translate(-222.791 -291.176)" fill="#282651"/>
          </g>
        </g>
        <g id="Grupo_1083650" data-name="Grupo 1083650">
          <g id="Grupo_1083649" data-name="Grupo 1083649" clip-path="url(#clip-path)">
            <path id="Trazado_834515" data-name="Trazado 834515" d="M237.775,337.53l-33.021-18.086,0-.292,33.02,18.084Z" transform="translate(-90.841 -141.596)" fill="#1c355f"/>
          </g>
        </g>
        <g id="Grupo_1083652" data-name="Grupo 1083652" transform="translate(87.111 223.02)">
          <g id="Grupo_1083651" data-name="Grupo 1083651" clip-path="url(#clip-path-5)">
            <path id="Trazado_834516" data-name="Trazado 834516" d="M189.6,418.971,156.58,400.885c.028.016.058.032.086.044l33.02,18.086-.086-.045" transform="translate(-156.58 -400.878)" fill="#57732a"/>
            <path id="Trazado_834517" data-name="Trazado 834517" d="M189.755,419.051l-33.021-18.086a3.256,3.256,0,0,0,.4.176l33.02,18.085a3.549,3.549,0,0,1-.4-.175" transform="translate(-156.648 -400.914)" fill="#59752a"/>
            <path id="Trazado_834518" data-name="Trazado 834518" d="M190.473,419.367l-33.02-18.085a3.43,3.43,0,0,0,.428.13L190.9,419.5a3.95,3.95,0,0,1-.429-.13" transform="translate(-156.967 -401.054)" fill="#5a782b"/>
            <path id="Trazado_834519" data-name="Trazado 834519" d="M191.243,419.6l-33.021-18.086a3.729,3.729,0,0,0,.471.082l33.021,18.087a4.473,4.473,0,0,1-.471-.082" transform="translate(-157.309 -401.157)" fill="#5c7a2c"/>
            <path id="Trazado_834520" data-name="Trazado 834520" d="M192.089,419.748,159.068,401.66a4.108,4.108,0,0,0,.533.026l33.021,18.085a4.3,4.3,0,0,1-.534-.024" transform="translate(-157.684 -401.222)" fill="#5e7c2d"/>
            <path id="Trazado_834521" data-name="Trazado 834521" d="M193.047,419.748l-33.021-18.085a4.807,4.807,0,0,0,.644-.055L193.69,419.7a4.69,4.69,0,0,1-.643.053" transform="translate(-158.109 -401.199)" fill="#607f2d"/>
            <path id="Trazado_834522" data-name="Trazado 834522" d="M194.2,419.519l-33.021-18.088a5.483,5.483,0,0,0,.912-.221L195.116,419.3a5.725,5.725,0,0,1-.912.224" transform="translate(-158.622 -401.023)" fill="#61812e"/>
            <path id="Trazado_834523" data-name="Trazado 834523" d="M195.843,419.145,162.822,401.06c.162-.054.327-.116.492-.187l33.021,18.086q-.25.106-.492.186" transform="translate(-159.349 -400.873)" fill="#63832f"/>
          </g>
        </g>
        <g id="Grupo_1083654" data-name="Grupo 1083654" transform="translate(119.984 161.828)">
          <g id="Grupo_1083653" data-name="Grupo 1083653" clip-path="url(#clip-path-6)">
            <path id="Trazado_834525" data-name="Trazado 834525" d="M248.688,309.653l-33.02-18.086c.164-.071.329-.132.491-.186l33.021,18.085c-.163.055-.327.116-.492.187" transform="translate(-215.668 -291.103)" fill="#214175"/>
            <path id="Trazado_834526" data-name="Trazado 834526" d="M249.571,309.289,216.55,291.2a5.667,5.667,0,0,1,.913-.223l33.02,18.085a5.558,5.558,0,0,0-.912.223" transform="translate(-216.059 -290.926)" fill="#204073"/>
            <path id="Trazado_834527" data-name="Trazado 834527" d="M251.211,309.023l-33.02-18.085a4.852,4.852,0,0,1,.645-.054l33.019,18.085a4.781,4.781,0,0,0-.644.055" transform="translate(-216.787 -290.883)" fill="#203f71"/>
            <path id="Trazado_834528" data-name="Trazado 834528" d="M252.369,308.968l-33.02-18.085a4.094,4.094,0,0,1,.532.025l33.02,18.085a4.087,4.087,0,0,0-.532-.025" transform="translate(-217.301 -290.882)" fill="#1f3e6f"/>
            <path id="Trazado_834529" data-name="Trazado 834529" d="M253.325,309.013,220.3,290.928a4.008,4.008,0,0,1,.472.082L253.8,309.1a3.906,3.906,0,0,0-.472-.082" transform="translate(-217.725 -290.902)" fill="#1f3d6d"/>
            <path id="Trazado_834530" data-name="Trazado 834530" d="M254.172,309.16l-33.02-18.086a3.573,3.573,0,0,1,.428.131L254.6,309.29a3.643,3.643,0,0,0-.429-.129" transform="translate(-218.101 -290.967)" fill="#1e3c6b"/>
            <path id="Trazado_834531" data-name="Trazado 834531" d="M254.942,309.394l-33.02-18.085a3.376,3.376,0,0,1,.4.175l33.02,18.085a3.71,3.71,0,0,0-.4-.175" transform="translate(-218.443 -291.071)" fill="#1e3b69"/>
            <path id="Trazado_834532" data-name="Trazado 834532" d="M255.662,309.708l-33.02-18.085.085.046,33.019,18.084-.085-.044" transform="translate(-218.762 -291.211)" fill="#1e3967"/>
          </g>
        </g>
        <g id="Grupo_1083656" data-name="Grupo 1083656">
          <g id="Grupo_1083655" data-name="Grupo 1083655" clip-path="url(#clip-path)">
            <path id="Trazado_834534" data-name="Trazado 834534" d="M237.745,332.851l-33.021-18.084-.035-5.5,33.019,18.085Z" transform="translate(-90.814 -137.212)" fill="#1c355f"/>
          </g>
        </g>
        <g id="Grupo_1083658" data-name="Grupo 1083658" transform="translate(113.876 162.291)">
          <g id="Grupo_1083657" data-name="Grupo 1083657" clip-path="url(#clip-path-8)">
            <path id="Trazado_834535" data-name="Trazado 834535" d="M237.709,326.408,204.69,308.323a9.026,9.026,0,0,1,.071-1.188l33.021,18.085a9.111,9.111,0,0,0-.073,1.188" transform="translate(-204.69 -298.556)" fill="#1b345d"/>
            <path id="Trazado_834536" data-name="Trazado 834536" d="M237.839,324.482,204.818,306.4c.038-.309.093-.618.161-.926L238,323.556c-.068.309-.123.617-.161.926" transform="translate(-204.747 -297.818)" fill="#1c355f"/>
            <path id="Trazado_834537" data-name="Trazado 834537" d="M238.128,322.946l-33.021-18.085q.085-.383.2-.765l33.02,18.086c-.077.253-.142.508-.2.764" transform="translate(-204.875 -297.208)" fill="#1c3661"/>
            <path id="Trazado_834538" data-name="Trazado 834538" d="M238.485,321.643l-33.02-18.086c.067-.226.142-.452.225-.676l33.019,18.084c-.081.224-.157.451-.224.678" transform="translate(-205.034 -296.669)" fill="#1d3763"/>
            <path id="Trazado_834539" data-name="Trazado 834539" d="M238.889,320.465l-33.02-18.084c.077-.211.161-.421.25-.627l33.02,18.086c-.09.206-.172.415-.251.625" transform="translate(-205.213 -296.169)" fill="#1d3865"/>
            <path id="Trazado_834540" data-name="Trazado 834540" d="M239.339,319.366l-33.021-18.086c.087-.2.18-.4.278-.6l33.02,18.085c-.1.2-.191.394-.277.6" transform="translate(-205.412 -295.694)" fill="#1e3967"/>
            <path id="Trazado_834541" data-name="Trazado 834541" d="M239.838,318.307l-33.019-18.085c.1-.2.2-.39.307-.58l33.021,18.085c-.109.19-.211.383-.309.58" transform="translate(-205.634 -295.231)" fill="#1e3b69"/>
            <path id="Trazado_834542" data-name="Trazado 834542" d="M240.392,317.267l-33.021-18.085c.111-.195.226-.387.347-.576l33.019,18.086c-.121.188-.236.379-.345.575" transform="translate(-205.879 -294.772)" fill="#1e3c6b"/>
            <path id="Trazado_834543" data-name="Trazado 834543" d="M241.014,316.231l-33.02-18.086c.126-.2.259-.39.394-.579l33.022,18.084q-.207.285-.4.581" transform="translate(-206.156 -294.31)" fill="#1f3d6d"/>
            <path id="Trazado_834544" data-name="Trazado 834544" d="M241.725,315.171,208.7,297.087q.223-.31.465-.6l33.02,18.085c-.16.193-.315.394-.463.6" transform="translate(-206.471 -293.832)" fill="#1f3e6f"/>
            <path id="Trazado_834545" data-name="Trazado 834545" d="M242.559,314.062l-33.02-18.085q.276-.334.572-.64l33.02,18.085c-.2.2-.388.418-.572.64" transform="translate(-206.841 -293.322)" fill="#203f71"/>
            <path id="Trazado_834546" data-name="Trazado 834546" d="M243.587,312.794l-33.02-18.085a9.8,9.8,0,0,1,.851-.787l33.019,18.084a10.356,10.356,0,0,0-.85.788" transform="translate(-207.297 -292.694)" fill="#204073"/>
            <path id="Trazado_834547" data-name="Trazado 834547" d="M245.115,311.027,212.1,292.943a8.12,8.12,0,0,1,1.988-1.228L247.1,309.8a8.207,8.207,0,0,0-1.987,1.226" transform="translate(-207.975 -291.715)" fill="#214175"/>
          </g>
        </g>
        <g id="Grupo_1083660" data-name="Grupo 1083660">
          <g id="Grupo_1083659" data-name="Grupo 1083659" clip-path="url(#clip-path)">
            <path id="Trazado_834549" data-name="Trazado 834549" d="M196.879,391.566l-33.02-18.085,4.55-1.933,33.021,18.087Z" transform="translate(-72.699 -164.843)" fill="#22437a"/>
            <path id="Trazado_834550" data-name="Trazado 834550" d="M151.267,481.871l-.037-5.615-33.02-18.086.036,5.616c.016,2.2.883,3.805,2.236,4.547L153.5,486.418c-1.355-.741-2.223-2.347-2.237-4.547" transform="translate(-52.446 -203.274)" fill="#4f6a26"/>
          </g>
        </g>
        <g id="Grupo_1083662" data-name="Grupo 1083662" transform="translate(85.051 208.638)">
          <g id="Grupo_1083661" data-name="Grupo 1083661" clip-path="url(#clip-path-10)">
            <path id="Trazado_834551" data-name="Trazado 834551" d="M188.137,414.261l-33.021-18.085c-1.354-.742-2.222-2.348-2.237-4.549a9.108,9.108,0,0,1,.072-1.187l33.02,18.086a9,9,0,0,0-.071,1.188c.014,2.2.882,3.806,2.237,4.547" transform="translate(-152.878 -381.862)" fill="#1b345d"/>
            <path id="Trazado_834552" data-name="Trazado 834552" d="M186.028,407.789,153.007,389.7q.059-.462.161-.925l33.02,18.085c-.067.308-.123.617-.161.926" transform="translate(-152.935 -381.125)" fill="#1c355f"/>
            <path id="Trazado_834553" data-name="Trazado 834553" d="M186.317,406.254,153.3,388.169c.058-.255.124-.511.2-.764l33.02,18.084q-.113.38-.2.765" transform="translate(-153.063 -380.516)" fill="#1c3661"/>
            <path id="Trazado_834554" data-name="Trazado 834554" d="M186.675,404.948l-33.021-18.084c.069-.228.144-.454.226-.678L186.9,404.272c-.081.224-.157.449-.225.676" transform="translate(-153.222 -379.975)" fill="#1d3763"/>
            <path id="Trazado_834555" data-name="Trazado 834555" d="M187.08,403.773l-33.02-18.086c.076-.21.161-.419.249-.626l33.02,18.086c-.089.206-.171.414-.25.626" transform="translate(-153.402 -379.476)" fill="#1d3865"/>
            <path id="Trazado_834556" data-name="Trazado 834556" d="M187.528,402.672l-33.021-18.086q.133-.3.278-.6l33.021,18.085c-.1.2-.19.4-.278.6" transform="translate(-153.601 -379)" fill="#1e3967"/>
            <path id="Trazado_834557" data-name="Trazado 834557" d="M188.027,401.612l-33.021-18.085c.1-.2.2-.39.309-.58l33.021,18.085q-.164.287-.309.58" transform="translate(-153.822 -378.538)" fill="#1e3b69"/>
            <path id="Trazado_834558" data-name="Trazado 834558" d="M188.583,400.572l-33.021-18.085c.111-.194.226-.387.347-.576L188.928,400c-.12.187-.236.379-.345.574" transform="translate(-154.069 -378.078)" fill="#1e3c6b"/>
            <path id="Trazado_834559" data-name="Trazado 834559" d="M189.2,399.536l-33.02-18.088c.125-.2.258-.39.4-.579l33.02,18.085c-.137.189-.269.383-.4.581" transform="translate(-154.345 -377.616)" fill="#1f3d6d"/>
            <path id="Trazado_834560" data-name="Trazado 834560" d="M189.915,398.475,156.9,380.39q.223-.308.465-.6l33.02,18.088c-.161.193-.315.393-.464.6" transform="translate(-154.66 -377.137)" fill="#1f3e6f"/>
            <path id="Trazado_834561" data-name="Trazado 834561" d="M190.75,397.367,157.73,379.28c.182-.221.375-.434.572-.639l33.019,18.085c-.2.2-.388.418-.571.641" transform="translate(-155.03 -376.628)" fill="#203f71"/>
            <path id="Trazado_834562" data-name="Trazado 834562" d="M191.777,396.1l-33.02-18.085a10.181,10.181,0,0,1,.851-.788l33.019,18.086a10.623,10.623,0,0,0-.851.787" transform="translate(-155.486 -375.999)" fill="#204073"/>
            <path id="Trazado_834563" data-name="Trazado 834563" d="M193.307,394.334l-33.02-18.086a8.144,8.144,0,0,1,1.988-1.226l33.019,18.085a8.156,8.156,0,0,0-1.987,1.227" transform="translate(-156.165 -375.022)" fill="#214175"/>
          </g>
        </g>
        <g id="Grupo_1083664" data-name="Grupo 1083664">
          <g id="Grupo_1083663" data-name="Grupo 1083663" clip-path="url(#clip-path)">
            <path id="Trazado_834565" data-name="Trazado 834565" d="M204.809,345.547l-33.021-18.084,18.341-7.786,33.021,18.086Z" transform="translate(-76.217 -141.829)" fill="#22437a"/>
            <path id="Trazado_834566" data-name="Trazado 834566" d="M204.947,372.831l-33.021-18.088-.138-21.071,33.021,18.084Z" transform="translate(-76.217 -148.039)" fill="#1c355f"/>
            <path id="Trazado_834567" data-name="Trazado 834567" d="M247.163,323.855c3.4-1.443,6.176.591,6.2,4.541l.04,5.789,17.911-7.6.138,21.072,4.982-2.114c3.4-1.445,6.175.593,6.2,4.542s-2.7,8.321-6.108,9.766l-4.981,2.115.139,21.073-17.911,7.6-.038-5.8c-.027-3.949-2.8-5.984-6.2-4.542s-6.134,5.816-6.108,9.768l.039,5.8-18.089,7.677-.254.108-.138-21.072-4.551,1.931c-3.4,1.443-6.176-.591-6.2-4.541s2.709-8.324,6.107-9.766l4.551-1.931-.138-21.075,18.341-7.784,0-.294-.036-5.5c-.026-3.95,2.71-8.323,6.108-9.765" transform="translate(-94.16 -143.477)" fill="#254d8c"/>
            <path id="Trazado_834568" data-name="Trazado 834568" d="M204.805,351.145l-33.021-18.086.253-.106,33.02,18.085Z" transform="translate(-76.215 -147.719)" fill="#302e64"/>
            <path id="Trazado_834569" data-name="Trazado 834569" d="M259.231,220.321l-33.021-18.086,17.912-7.6,33.02,18.085Z" transform="translate(-100.362 -86.352)" fill="#302e64"/>
            <path id="Trazado_834570" data-name="Trazado 834570" d="M251.194,233.362c.007-.041,0-.082.009-.125a9.271,9.271,0,0,0,.064-1.064l-.038-5.789L218.209,208.3l.038,5.79a9.028,9.028,0,0,1-.063,1.063c-.01.085-.021.169-.032.255q-.043.31-.108.619c-.015.079-.027.159-.046.238-.032.139-.07.276-.107.415-.032.115-.06.233-.093.347-.031.093-.062.185-.092.277-.05.145-.1.289-.152.432-.03.086-.066.17-.1.252-.059.146-.118.292-.183.435-.038.083-.077.166-.117.25-.065.14-.136.277-.206.414-.041.081-.082.16-.127.238-.082.149-.167.293-.254.438-.039.064-.076.13-.116.193-.1.159-.205.312-.312.464-.037.053-.071.107-.107.159-.09.124-.186.243-.28.364-.063.081-.123.164-.189.244-.039.048-.082.092-.122.139-.138.16-.275.318-.418.467-.043.046-.09.087-.134.132q-.318.32-.654.605c-.054.047-.107.095-.164.14a9.088,9.088,0,0,1-.833.6c-.059.037-.118.071-.179.108a7.426,7.426,0,0,1-.916.477c-.174.073-.347.136-.518.194a5.846,5.846,0,0,1-.8.195c-.061.011-.12.022-.179.029-.145.018-.289.029-.428.035-.056,0-.112.008-.167.008-.112,0-.22-.007-.328-.015-.063-.006-.126-.006-.187-.012-.082-.01-.163-.028-.244-.043s-.151-.024-.225-.042-.131-.04-.2-.061-.161-.046-.238-.075c-.061-.024-.118-.052-.177-.08-.093-.04-.187-.079-.276-.127L241.2,241.945c.027.016.055.031.084.046.063.032.129.056.192.086s.116.053.175.076l.032.014c.07.026.145.043.215.065s.124.041.187.057l.027.009c.071.016.146.024.218.037s.149.029.225.039a.248.248,0,0,0,.027,0c.052.007.106,0,.16.008.108.008.218.016.33.016l.042,0c.04,0,.082-.01.122-.01.14-.006.283-.018.428-.038.031,0,.061,0,.093-.008s.057-.015.085-.021a5.442,5.442,0,0,0,.8-.2l.026-.006c.162-.055.327-.116.493-.187a7.464,7.464,0,0,0,.915-.477c.061-.036.12-.071.179-.109a8.349,8.349,0,0,0,.831-.6c.021-.015.041-.027.062-.043.037-.031.071-.068.108-.1.224-.189.442-.39.652-.6.029-.029.061-.053.089-.082s.027-.033.042-.048c.139-.146.275-.3.409-.456.039-.046.082-.088.121-.136a.127.127,0,0,1,.014-.017c.052-.065.1-.134.153-.2.1-.127.2-.252.3-.384.007-.008.012-.018.019-.027l.093-.14c.1-.136.192-.273.283-.413.012-.021.024-.042.038-.063.043-.067.082-.137.123-.205.061-.1.125-.2.185-.307.022-.039.041-.08.063-.121.043-.078.084-.156.125-.235s.082-.15.12-.225.061-.132.092-.2.077-.162.114-.244c.023-.052.049-.1.071-.153.04-.093.075-.188.112-.282s.07-.166.1-.251c.012-.032.026-.062.038-.093.042-.113.076-.228.114-.342.032-.092.065-.184.092-.276.006-.019.013-.04.019-.059.029-.1.051-.2.077-.3.036-.134.074-.265.1-.4.005-.023.014-.044.017-.068.014-.063.022-.127.033-.19.042-.2.076-.4.106-.6.007-.044.016-.086.022-.13" transform="translate(-92.36 -92.414)" fill="#282652"/>
            <path id="Trazado_834571" data-name="Trazado 834571" d="M205.148,334.237l-33.021-18.085-.138-21.066,33.021,18.086Z" transform="translate(-76.306 -130.92)" fill="#292652"/>
            <path id="Trazado_834572" data-name="Trazado 834572" d="M172.686,359.343l-33.021-18.085,17.871-7.586,33.021,18.084Z" transform="translate(-61.965 -148.039)" fill="#688931"/>
            <path id="Trazado_834573" data-name="Trazado 834573" d="M196.056,315.286,163.037,297.2l4.981-2.116,33.02,18.086Z" transform="translate(-72.334 -130.919)" fill="#007da0"/>
            <path id="Trazado_834574" data-name="Trazado 834574" d="M172.653,360.247l-33.021-18.086-.039-5.789,33.021,18.085Z" transform="translate(-61.933 -149.236)" fill="#00607a"/>
            <path id="Trazado_834575" data-name="Trazado 834575" d="M118.531,473.284,85.512,455.2l-.14-21.073,33.019,18.086Z" transform="translate(-37.876 -192.606)" fill="#4f6a26"/>
            <path id="Trazado_834576" data-name="Trazado 834576" d="M129.407,428.418c.007-.044,0-.088.009-.131a9.177,9.177,0,0,0,.064-1.058c-.014-2.2-.883-3.806-2.236-4.547L94.223,404.6c1.354.741,2.222,2.348,2.236,4.547a9.055,9.055,0,0,1-.063,1.064c-.01.083-.019.168-.032.253-.028.206-.065.415-.108.623-.015.078-.027.157-.045.236-.033.14-.071.278-.11.417-.031.115-.059.23-.092.345-.031.093-.063.185-.093.277-.049.145-.1.288-.15.431-.031.087-.07.173-.1.26-.058.142-.116.284-.179.423-.039.087-.08.171-.12.259-.067.137-.134.273-.2.408-.043.081-.086.162-.129.241-.08.143-.163.284-.248.423-.042.071-.083.142-.126.212-.1.149-.195.295-.294.439-.041.06-.081.121-.123.179-.083.117-.174.227-.26.34-.071.089-.138.182-.209.268-.034.044-.075.083-.11.124-.139.166-.283.328-.431.483-.043.043-.087.085-.13.127q-.32.324-.66.611c-.053.046-.1.091-.16.136a8.665,8.665,0,0,1-.837.6c-.057.037-.115.071-.174.106a7.414,7.414,0,0,1-.919.479l-4.981,2.114L118.39,439.11,123.373,437a7.66,7.66,0,0,0,.917-.478c.058-.036.117-.068.175-.106a8.593,8.593,0,0,0,.84-.6c.017-.014.037-.025.055-.04.033-.027.063-.061.1-.09q.345-.289.666-.615c.028-.029.058-.052.087-.08s.028-.032.042-.047c.148-.156.292-.319.432-.485.032-.038.067-.071.1-.11,0,0,.006-.008.01-.013.071-.086.138-.177.206-.265.082-.107.169-.211.248-.322a.138.138,0,0,0,.016-.023c.042-.057.08-.118.121-.177.087-.126.175-.251.259-.379.012-.019.023-.039.034-.058.048-.075.091-.151.138-.226.057-.1.118-.193.175-.29.022-.038.04-.077.061-.115.044-.082.088-.166.132-.251s.078-.142.114-.215.058-.126.089-.189c.041-.088.083-.176.122-.265.022-.047.044-.095.066-.142.039-.089.072-.179.108-.269s.073-.175.106-.264c.012-.031.026-.061.037-.092.04-.111.074-.224.111-.335.033-.095.067-.19.1-.286.006-.018.012-.037.018-.056.027-.092.047-.186.073-.278.037-.14.076-.279.11-.421,0-.022.012-.043.015-.065.014-.063.021-.126.033-.188.041-.2.076-.4.1-.6.007-.044.017-.09.023-.135" transform="translate(-37.876 -179.505)" fill="#62822f"/>
            <path id="Trazado_834577" data-name="Trazado 834577" d="M204.386,287.562l-33.02-18.085.253-.107,33.02,18.086Z" transform="translate(-76.029 -119.51)" fill="#302e64"/>
            <path id="Trazado_834578" data-name="Trazado 834578" d="M196.207,289.58,163.187,271.5l4.551-1.932,33.02,18.085Z" transform="translate(-72.4 -119.596)" fill="#302e64"/>
            <path id="Trazado_834579" data-name="Trazado 834579" d="M150.56,374.55l-33.021-18.085v-.292l33.02,18.084Z" transform="translate(-52.147 -158.021)" fill="#4f6a26"/>
          </g>
        </g>
        <g id="Grupo_1083666" data-name="Grupo 1083666" transform="translate(71.454 182.426)">
          <g id="Grupo_1083665" data-name="Grupo 1083665" clip-path="url(#clip-path-12)">
            <path id="Trazado_834580" data-name="Trazado 834580" d="M161.458,346.677l-33.021-18.086c.166-.071.332-.132.495-.187l33.021,18.086c-.163.053-.328.116-.495.187" transform="translate(-128.437 -328.127)" fill="#63832f"/>
            <path id="Trazado_834581" data-name="Trazado 834581" d="M162.347,346.314l-33.021-18.086a5.667,5.667,0,0,1,.915-.223l33.021,18.086a5.453,5.453,0,0,0-.915.223" transform="translate(-128.831 -327.95)" fill="#61812e"/>
            <path id="Trazado_834582" data-name="Trazado 834582" d="M163.991,346.047,130.97,327.961a4.559,4.559,0,0,1,.647-.054l33.019,18.085a4.708,4.708,0,0,0-.645.056" transform="translate(-129.561 -327.906)" fill="#607f2d"/>
            <path id="Trazado_834583" data-name="Trazado 834583" d="M165.152,345.992l-33.02-18.085a4.087,4.087,0,0,1,.532.025l33.02,18.085a4.289,4.289,0,0,0-.532-.025" transform="translate(-130.076 -327.906)" fill="#5e7c2d"/>
            <path id="Trazado_834584" data-name="Trazado 834584" d="M166.109,346.036l-33.02-18.085a3.823,3.823,0,0,1,.471.082l33.021,18.085a4.153,4.153,0,0,0-.472-.081" transform="translate(-130.501 -327.926)" fill="#5c7a2c"/>
            <path id="Trazado_834585" data-name="Trazado 834585" d="M166.956,346.183,133.935,328.1a3.974,3.974,0,0,1,.431.13l33.019,18.086a3.779,3.779,0,0,0-.429-.13" transform="translate(-130.876 -327.991)" fill="#5a782b"/>
            <path id="Trazado_834586" data-name="Trazado 834586" d="M167.729,346.416l-33.02-18.086a3.644,3.644,0,0,1,.4.176l33.021,18.086a3.533,3.533,0,0,0-.4-.176" transform="translate(-131.22 -328.094)" fill="#59752a"/>
            <path id="Trazado_834587" data-name="Trazado 834587" d="M168.448,346.733l-33.021-18.086.086.046,33.019,18.085-.085-.044" transform="translate(-131.538 -328.235)" fill="#57732a"/>
          </g>
        </g>
        <g id="Grupo_1083668" data-name="Grupo 1083668" transform="translate(84.678 151.899)">
          <g id="Grupo_1083667" data-name="Grupo 1083667" clip-path="url(#clip-path-13)">
            <path id="Trazado_834589" data-name="Trazado 834589" d="M187.464,312.275,154.443,294.19c-1.352-.742-2.221-2.348-2.236-4.547a9.1,9.1,0,0,1,.073-1.188L185.3,306.54a8.825,8.825,0,0,0-.072,1.188c.013,2.2.881,3.806,2.235,4.547" transform="translate(-152.207 -279.876)" fill="#282651"/>
            <path id="Trazado_834590" data-name="Trazado 834590" d="M185.358,305.8l-33.021-18.086c.04-.308.092-.617.161-.925l33.019,18.085c-.067.308-.122.617-.16.926" transform="translate(-152.264 -279.138)" fill="#292653"/>
            <path id="Trazado_834591" data-name="Trazado 834591" d="M185.646,304.266l-33.02-18.085c.057-.256.123-.512.2-.765L185.844,303.5c-.075.254-.142.51-.2.765" transform="translate(-152.393 -278.528)" fill="#292754"/>
            <path id="Trazado_834592" data-name="Trazado 834592" d="M186,302.961l-33.02-18.085c.068-.227.142-.452.225-.677l33.019,18.085c-.082.224-.156.45-.225.677" transform="translate(-152.552 -277.988)" fill="#2a2755"/>
            <path id="Trazado_834593" data-name="Trazado 834593" d="M186.408,301.786,153.388,283.7q.116-.316.25-.626l33.02,18.085q-.134.311-.251.626" transform="translate(-152.731 -277.489)" fill="#2a2856"/>
            <path id="Trazado_834594" data-name="Trazado 834594" d="M186.858,300.686,153.837,282.6c.086-.2.18-.4.278-.6l33.02,18.085q-.147.295-.277.6" transform="translate(-152.93 -277.015)" fill="#2b2958"/>
            <path id="Trazado_834595" data-name="Trazado 834595" d="M187.356,299.626,154.335,281.54q.147-.295.308-.581l33.021,18.085c-.107.191-.211.384-.308.581" transform="translate(-153.151 -276.551)" fill="#2b2959"/>
            <path id="Trazado_834596" data-name="Trazado 834596" d="M187.909,298.586,154.888,280.5c.112-.194.226-.387.347-.575l33.02,18.085c-.121.189-.235.38-.347.575" transform="translate(-153.396 -276.092)" fill="#2c2a5a"/>
            <path id="Trazado_834597" data-name="Trazado 834597" d="M188.532,297.549l-33.021-18.085c.127-.2.259-.391.4-.58l33.02,18.085c-.137.189-.269.383-.4.58" transform="translate(-153.673 -275.63)" fill="#2c2a5c"/>
            <path id="Trazado_834598" data-name="Trazado 834598" d="M189.244,296.49,156.224,278.4q.224-.308.464-.6l33.021,18.086c-.161.193-.316.393-.465.6" transform="translate(-153.989 -275.151)" fill="#2d2b5d"/>
            <path id="Trazado_834599" data-name="Trazado 834599" d="M190.079,295.381l-33.021-18.086c.184-.221.374-.436.572-.64l33.02,18.086c-.2.2-.389.418-.571.64" transform="translate(-154.359 -274.641)" fill="#2d2b5e"/>
            <path id="Trazado_834600" data-name="Trazado 834600" d="M191.106,294.114l-33.021-18.086a10.171,10.171,0,0,1,.851-.787l33.019,18.085a9.983,9.983,0,0,0-.85.788" transform="translate(-154.815 -274.014)" fill="#2e2c5f"/>
            <path id="Trazado_834601" data-name="Trazado 834601" d="M192.635,292.348l-33.02-18.085a8.116,8.116,0,0,1,1.988-1.227l33.019,18.085a8.157,8.157,0,0,0-1.987,1.227" transform="translate(-155.493 -273.035)" fill="#2f2d61"/>
          </g>
        </g>
        <g id="Grupo_1083670" data-name="Grupo 1083670">
          <g id="Grupo_1083669" data-name="Grupo 1083669" clip-path="url(#clip-path)">
            <path id="Trazado_834603" data-name="Trazado 834603" d="M150.529,369.873l-33.021-18.084-.036-5.5,33.02,18.084Z" transform="translate(-52.119 -153.637)" fill="#4f6a26"/>
          </g>
        </g>
        <g id="Grupo_1083672" data-name="Grupo 1083672" transform="translate(65.354 182.89)">
          <g id="Grupo_1083671" data-name="Grupo 1083671" clip-path="url(#clip-path-15)">
            <path id="Trazado_834604" data-name="Trazado 834604" d="M150.492,363.425l-33.02-18.084a9.068,9.068,0,0,1,.073-1.192l33.02,18.086a9.359,9.359,0,0,0-.073,1.19" transform="translate(-117.472 -335.577)" fill="#4e6726"/>
            <path id="Trazado_834605" data-name="Trazado 834605" d="M150.623,361.5,117.6,343.411c.038-.308.093-.617.161-.926l33.019,18.085c-.067.309-.122.618-.161.927" transform="translate(-117.531 -334.839)" fill="#506a27"/>
            <path id="Trazado_834606" data-name="Trazado 834606" d="M150.912,359.96l-33.02-18.085c.058-.256.123-.512.2-.765l33.02,18.084q-.114.381-.2.766" transform="translate(-117.659 -334.229)" fill="#516c27"/>
            <path id="Trazado_834607" data-name="Trazado 834607" d="M151.27,358.653l-33.021-18.084c.069-.228.144-.454.225-.678l33.02,18.085q-.124.338-.224.677" transform="translate(-117.817 -333.688)" fill="#536e28"/>
            <path id="Trazado_834608" data-name="Trazado 834608" d="M151.675,357.477l-33.021-18.085c.077-.21.161-.419.25-.626l33.02,18.086c-.089.206-.172.414-.25.625" transform="translate(-117.997 -333.189)" fill="#557129"/>
            <path id="Trazado_834609" data-name="Trazado 834609" d="M152.124,356.378,119.1,338.291c.087-.2.179-.4.278-.6l33.02,18.085c-.1.2-.19.4-.277.6" transform="translate(-118.196 -332.714)" fill="#57732a"/>
            <path id="Trazado_834610" data-name="Trazado 834610" d="M152.622,355.319,119.6,337.233q.146-.295.308-.58l33.021,18.085q-.164.287-.309.58" transform="translate(-118.417 -332.251)" fill="#59752a"/>
            <path id="Trazado_834611" data-name="Trazado 834611" d="M153.177,354.28l-33.02-18.085q.164-.291.345-.575l33.02,18.088c-.122.187-.236.379-.345.572" transform="translate(-118.664 -331.793)" fill="#5a782b"/>
            <path id="Trazado_834612" data-name="Trazado 834612" d="M153.8,353.245l-33.021-18.088c.126-.2.258-.39.394-.579l33.021,18.088c-.137.188-.268.38-.394.579" transform="translate(-118.939 -331.331)" fill="#5c7a2c"/>
            <path id="Trazado_834613" data-name="Trazado 834613" d="M154.507,352.189,121.486,334.1c.149-.2.3-.4.463-.6l33.02,18.085c-.16.194-.315.393-.463.6" transform="translate(-119.253 -330.854)" fill="#5e7c2d"/>
            <path id="Trazado_834614" data-name="Trazado 834614" d="M155.339,351.081,122.318,333c.184-.22.375-.434.572-.638l33.019,18.085c-.2.2-.387.416-.57.638" transform="translate(-119.622 -330.346)" fill="#607f2d"/>
            <path id="Trazado_834615" data-name="Trazado 834615" d="M156.365,349.816l-33.02-18.085a10.229,10.229,0,0,1,.849-.787l33.019,18.086a10.2,10.2,0,0,0-.848.786" transform="translate(-120.078 -329.718)" fill="#61812e"/>
            <path id="Trazado_834616" data-name="Trazado 834616" d="M157.891,348.053l-33.02-18.086a8.161,8.161,0,0,1,1.984-1.226l33.02,18.086a8.148,8.148,0,0,0-1.985,1.226" transform="translate(-120.755 -328.741)" fill="#63832f"/>
          </g>
        </g>
        <g id="Grupo_1083755" data-name="Grupo 1083755">
          <g id="Grupo_1083754" data-name="Grupo 1083754" clip-path="url(#clip-path)">
            <path id="Trazado_834618" data-name="Trazado 834618" d="M270.644,227.141l.139,21.073-4.981,2.114c-3.4,1.443-6.135,5.809-6.109,9.767s2.8,5.983,6.2,4.54l4.982-2.114.138,21.065-17.911,7.6-.04-5.79c-.025-3.951-2.8-5.984-6.2-4.542s-6.133,5.818-6.108,9.766l0,.294.036,5.5L222.454,304.2l.252-.108-.138-21.065-4.8,2.038c-3.4,1.443-6.176-.591-6.2-4.541s2.708-8.323,6.106-9.766l4.551-1.932.253-.107-.139-21.075,18.089-7.676.039,5.789c.026,3.949,2.8,5.984,6.2,4.541s6.132-5.816,6.106-9.766l-.038-5.789Z" transform="translate(-93.863 -100.775)" fill="#35336f"/>
            <path id="Trazado_834619" data-name="Trazado 834619" d="M204.591,243.453l-33.02-18.084,18.089-7.679,33.02,18.086Z" transform="translate(-76.12 -96.581)" fill="#302e64"/>
            <path id="Trazado_834620" data-name="Trazado 834620" d="M204.731,270.651,171.71,252.565l-.138-21.072,33.02,18.084Z" transform="translate(-76.12 -102.705)" fill="#292652"/>
            <path id="Trazado_834621" data-name="Trazado 834621" d="M117.973,382.479,84.952,364.394l18.129-7.7L136.1,374.783Z" transform="translate(-37.69 -158.254)" fill="#688931"/>
            <path id="Trazado_834622" data-name="Trazado 834622" d="M118.11,409.689,85.091,391.6l-.14-21.071,33.022,18.085Z" transform="translate(-37.69 -164.392)" fill="#4f6a26"/>
            <path id="Trazado_834623" data-name="Trazado 834623" d="M168.5,360.879c3.405-1.445,6.183.589,6.209,4.539l.038,5.79,17.871-7.587.138,21.074-4.551,1.93a11.273,11.273,0,0,0-6.285,9.842c.026,3.949,2.8,5.984,6.2,4.542L192.849,399l.138,21.072.254-.107-18.125,7.694.037,5.615c.026,3.949-2.71,8.324-6.107,9.765s-6.176-.591-6.2-4.541l-.037-5.614-18.129,7.7-.14-21.072,4.983-2.115c3.4-1.443,6.132-5.816,6.106-9.766s-2.8-5.984-6.2-4.542l-4.982,2.115-.138-21.072,18.13-7.7,0-.293-.037-5.5c-.025-3.949,2.7-8.32,6.1-9.762" transform="translate(-64.024 -159.903)" fill="#789e37"/>
            <path id="Trazado_834624" data-name="Trazado 834624" d="M115.517,207.164l-5.1,14.872a4.954,4.954,0,0,1-1.884,4.906L98,238.805l-2.157-1.538,8.943-14.88L108.9,205.46s.584-5.163,4.44-3.988c0,0,3.777.714,2.175,5.692" transform="translate(-42.522 -89.309)" fill="#f5ae80"/>
            <path id="Trazado_834625" data-name="Trazado 834625" d="M92.2,270.283c-.358-.133-.883.793-1.942.215a9.635,9.635,0,0,1,1.2-1.964c.337-.339.562-.258,1.039-.206.387.042.771.214,1.162.238s1.2-.777,1.581-1.026l.448.274a23.257,23.257,0,0,1-1.6,3.264Z" transform="translate(-40.044 -118.698)" fill="#f7ae80"/>
            <path id="Trazado_834626" data-name="Trazado 834626" d="M89.449,267.519a15.65,15.65,0,0,1,1.7-1.715l1.555-.556.852-.644c.67.888,1.328,1.633,1.328,1.633-1.03,1.015-1.251,1.285-1.251,1.285s-.555.521-1.938-.021l-.65-.151s-.922.935-1.592.169" transform="translate(-39.685 -117.396)" fill="#f7ae80"/>
            <path id="Trazado_834627" data-name="Trazado 834627" d="M94.33,272.073a.325.325,0,0,0-.181-.527.364.364,0,0,0-.56.085l.1-.17c.008-.25-.357-.337-.357-.337a.4.4,0,0,0-.537.214l.172-.329c.04-.231-.326-.366-.326-.366-.461-.193-.6.177-.6.177l-.085.138s-.7-.786-1.382.367l-.32.524s.266.48,1.048.245a.731.731,0,0,0,.939.322.759.759,0,0,0,.835.215s.428.423.735.169Z" transform="translate(-40.044 -120.05)" fill="#f7ae80"/>
            <path id="Trazado_834628" data-name="Trazado 834628" d="M123.3,157.7l-1.252,14.832s.064,2.97-3.607,4.329c0,0,12.639,2.36,13.568-4.022,0,0-.048-14.616-8.709-15.139" transform="translate(-52.546 -69.965)" fill="#3e140e"/>
            <path id="Trazado_834629" data-name="Trazado 834629" d="M117.9,367.085l.29,2.344-8.211,2.912s-1.458.51-.532,1.162a4.6,4.6,0,0,0,4.411.027l5.613-2.525,1.36-.5-.072-3.481Z" transform="translate(-48.42 -162.837)" fill="#fabc99"/>
            <path id="Trazado_834630" data-name="Trazado 834630" d="M120.861,370.7l-1.444.641-5.529,2.382a4.594,4.594,0,0,1-4.408-.028c-.929-.652.417-1.247.417-1.247l1.993-.814,5.522-2.388L117.3,368.2s-.06-.441.478-.524l1.587.1s.618.159.451.647l-.241.608,1.247-.545Z" transform="translate(-48.427 -163.125)" fill="#242931"/>
            <path id="Trazado_834631" data-name="Trazado 834631" d="M114.746,372.264l6.018-2.658.113-.579.241-.608c.167-.488-.451-.647-.451-.647l-1.587-.1c-.538.083-.478.524-.478.524l.115,1.046-5.522,2.388-1.1.448s.787,1.065,2.647.184" transform="translate(-49.734 -163.124)" fill="#111316"/>
            <path id="Trazado_834632" data-name="Trazado 834632" d="M109.115,375.616a1.187,1.187,0,0,0,.244,1.081,4.449,4.449,0,0,0,4.377.24l7.133-3.118-.043-.707-7.73,3.09s-2.468.917-3.981-.586" transform="translate(-48.392 -165.537)" fill="#ededed"/>
            <g id="Grupo_1083675" data-name="Grupo 1083675" transform="translate(64.285 209.279)" style="mix-blend-mode: multiply;isolation: isolate">
              <g id="Grupo_1083674" data-name="Grupo 1083674">
                <g id="Grupo_1083673" data-name="Grupo 1083673" clip-path="url(#clip-path-17)">
                  <path id="Trazado_834633" data-name="Trazado 834633" d="M116.117,376.441a.284.284,0,1,1-.3-.267.283.283,0,0,1,.3.267" transform="translate(-115.55 -376.174)" fill="#8c8b8b"/>
                </g>
              </g>
            </g>
            <g id="Grupo_1083678" data-name="Grupo 1083678" transform="translate(65.518 208.742)" style="mix-blend-mode: multiply;isolation: isolate">
              <g id="Grupo_1083677" data-name="Grupo 1083677">
                <g id="Grupo_1083676" data-name="Grupo 1083676" clip-path="url(#clip-path-17)">
                  <path id="Trazado_834634" data-name="Trazado 834634" d="M118.334,375.476a.284.284,0,1,1-.3-.265.284.284,0,0,1,.3.265" transform="translate(-117.767 -375.209)" fill="#8c8b8b"/>
                </g>
              </g>
            </g>
            <g id="Grupo_1083681" data-name="Grupo 1083681" transform="translate(66.569 208.25)" style="mix-blend-mode: multiply;isolation: isolate">
              <g id="Grupo_1083680" data-name="Grupo 1083680">
                <g id="Grupo_1083679" data-name="Grupo 1083679" clip-path="url(#clip-path-19)">
                  <path id="Trazado_834635" data-name="Trazado 834635" d="M120.225,374.59a.284.284,0,1,1-.3-.265.283.283,0,0,1,.3.265" transform="translate(-119.657 -374.324)" fill="#8c8b8b"/>
                </g>
              </g>
            </g>
            <g id="Grupo_1083684" data-name="Grupo 1083684" transform="translate(67.63 207.74)" style="mix-blend-mode: multiply;isolation: isolate">
              <g id="Grupo_1083683" data-name="Grupo 1083683">
                <g id="Grupo_1083682" data-name="Grupo 1083682" clip-path="url(#clip-path-20)">
                  <path id="Trazado_834636" data-name="Trazado 834636" d="M122.133,373.675a.285.285,0,1,1-.3-.267.285.285,0,0,1,.3.267" transform="translate(-121.563 -373.408)" fill="#8c8b8b"/>
                </g>
              </g>
            </g>
            <g id="Grupo_1083687" data-name="Grupo 1083687" transform="translate(68.874 207.21)" style="mix-blend-mode: multiply;isolation: isolate">
              <g id="Grupo_1083686" data-name="Grupo 1083686">
                <g id="Grupo_1083685" data-name="Grupo 1083685" clip-path="url(#clip-path-17)">
                  <path id="Trazado_834637" data-name="Trazado 834637" d="M124.367,372.721a.284.284,0,1,1-.3-.265.284.284,0,0,1,.3.265" transform="translate(-123.8 -372.455)" fill="#8c8b8b"/>
                </g>
              </g>
            </g>
            <g id="Grupo_1083690" data-name="Grupo 1083690" transform="translate(69.881 206.711)" style="mix-blend-mode: multiply;isolation: isolate">
              <g id="Grupo_1083689" data-name="Grupo 1083689">
                <g id="Grupo_1083688" data-name="Grupo 1083688" clip-path="url(#clip-path-22)">
                  <path id="Trazado_834638" data-name="Trazado 834638" d="M126.177,371.826a.284.284,0,1,1-.3-.266.283.283,0,0,1,.3.266" transform="translate(-125.61 -371.559)" fill="#8c8b8b"/>
                </g>
              </g>
            </g>
            <path id="Trazado_834639" data-name="Trazado 834639" d="M115.8,373.969a1.789,1.789,0,0,1,1.374.895" transform="translate(-51.376 -165.917)" fill="none" stroke="#fff" stroke-linecap="round" stroke-linejoin="round" stroke-width="0.844"/>
            <path id="Trazado_834640" data-name="Trazado 834640" d="M117.691,373.106a1.787,1.787,0,0,1,1.374.894" transform="translate(-52.215 -165.534)" fill="none" stroke="#fff" stroke-linecap="round" stroke-linejoin="round" stroke-width="0.844"/>
            <path id="Trazado_834641" data-name="Trazado 834641" d="M119.52,372.11a1.789,1.789,0,0,1,1.375.9" transform="translate(-53.027 -165.092)" fill="none" stroke="#fff" stroke-linecap="round" stroke-linejoin="round" stroke-width="0.844"/>
            <path id="Trazado_834642" data-name="Trazado 834642" d="M121.84,371.3a1.791,1.791,0,0,1,1.374.9" transform="translate(-54.056 -164.733)" fill="none" stroke="#fff" stroke-linecap="round" stroke-linejoin="round" stroke-width="0.844"/>
            <path id="Trazado_834643" data-name="Trazado 834643" d="M123.574,370.427a1.787,1.787,0,0,1,1.372.894" transform="translate(-54.825 -164.346)" fill="none" stroke="#fff" stroke-linecap="round" stroke-linejoin="round" stroke-width="0.844"/>
            <path id="Trazado_834644" data-name="Trazado 834644" d="M113.584,374.989a1.788,1.788,0,0,1,1.375.894" transform="translate(-50.393 -166.37)" fill="none" stroke="#fff" stroke-linecap="round" stroke-linejoin="round" stroke-width="0.844"/>
            <path id="Trazado_834645" data-name="Trazado 834645" d="M125.788,318.19a5.636,5.636,0,0,1-4.367.09l-1.666-34.632-.3-27.445,12.992-1.335c-1.326,6.806-2.463,13.315-3.41,20.183-.492,3.56-1.541,7.816-1.792,11.616a98.013,98.013,0,0,1-.427,21.126l-.855,10.324" transform="translate(-52.999 -113.076)" fill="#18223f"/>
            <path id="Trazado_834646" data-name="Trazado 834646" d="M139.555,369.005l.29,2.344-8.211,2.913s-1.458.509-.531,1.162a4.6,4.6,0,0,0,4.411.028l5.613-2.526,1.36-.5-.072-3.481Z" transform="translate(-58.029 -163.689)" fill="#fabc99"/>
            <path id="Trazado_834647" data-name="Trazado 834647" d="M142.519,372.62l-1.444.642-5.528,2.381a4.6,4.6,0,0,1-4.412-.028c-.927-.653.419-1.248.419-1.248l1.993-.814,5.521-2.388-.114-1.047s-.061-.441.477-.524l1.588.1s.618.159.451.647l-.242.607,1.247-.544Z" transform="translate(-58.035 -163.976)" fill="#dd2e34"/>
            <g id="Grupo_1083693" data-name="Grupo 1083693" transform="translate(74.414 205.618)" style="mix-blend-mode: multiply;isolation: isolate">
              <g id="Grupo_1083692" data-name="Grupo 1083692">
                <g id="Grupo_1083691" data-name="Grupo 1083691" clip-path="url(#clip-path-23)">
                  <path id="Trazado_834648" data-name="Trazado 834648" d="M136.405,374.184l6.018-2.658.112-.579.242-.607c.167-.488-.451-.647-.451-.647l-1.588-.1c-.538.083-.477.524-.477.524l.114,1.047-5.521,2.388-1.1.448s.788,1.065,2.647.183" transform="translate(-133.758 -369.594)" fill="#8c8b8b"/>
                </g>
              </g>
            </g>
            <path id="Trazado_834649" data-name="Trazado 834649" d="M130.776,377.536a1.186,1.186,0,0,0,.244,1.082,4.447,4.447,0,0,0,4.376.239l7.133-3.118-.043-.707-7.73,3.09s-2.47.917-3.98-.587" transform="translate(-58.002 -166.389)" fill="#ededed"/>
            <g id="Grupo_1083696" data-name="Grupo 1083696" transform="translate(76.334 210.347)" style="mix-blend-mode: multiply;isolation: isolate">
              <g id="Grupo_1083695" data-name="Grupo 1083695">
                <g id="Grupo_1083694" data-name="Grupo 1083694" clip-path="url(#clip-path-24)">
                  <path id="Trazado_834650" data-name="Trazado 834650" d="M137.775,378.363a.284.284,0,1,1-.3-.268.283.283,0,0,1,.3.268" transform="translate(-137.208 -378.095)" fill="#8c8b8b"/>
                </g>
              </g>
            </g>
            <g id="Grupo_1083699" data-name="Grupo 1083699" transform="translate(77.566 209.811)" style="mix-blend-mode: multiply;isolation: isolate">
              <g id="Grupo_1083698" data-name="Grupo 1083698">
                <g id="Grupo_1083697" data-name="Grupo 1083697" clip-path="url(#clip-path-25)">
                  <path id="Trazado_834651" data-name="Trazado 834651" d="M139.99,377.4a.282.282,0,0,1-.265.3.284.284,0,1,1-.034-.567.282.282,0,0,1,.3.265" transform="translate(-139.423 -377.13)" fill="#8c8b8b"/>
                </g>
              </g>
            </g>
            <g id="Grupo_1083702" data-name="Grupo 1083702" transform="translate(78.618 209.318)" style="mix-blend-mode: multiply;isolation: isolate">
              <g id="Grupo_1083701" data-name="Grupo 1083701">
                <g id="Grupo_1083700" data-name="Grupo 1083700" clip-path="url(#clip-path-26)">
                  <path id="Trazado_834652" data-name="Trazado 834652" d="M141.883,376.51a.284.284,0,1,1-.3-.265.284.284,0,0,1,.3.265" transform="translate(-141.315 -376.245)" fill="#8c8b8b"/>
                </g>
              </g>
            </g>
            <g id="Grupo_1083705" data-name="Grupo 1083705" transform="translate(79.679 208.809)" style="mix-blend-mode: multiply;isolation: isolate">
              <g id="Grupo_1083704" data-name="Grupo 1083704">
                <g id="Grupo_1083703" data-name="Grupo 1083703" clip-path="url(#clip-path-27)">
                  <path id="Trazado_834653" data-name="Trazado 834653" d="M143.789,375.6a.284.284,0,1,1-.3-.267.283.283,0,0,1,.3.267" transform="translate(-143.222 -375.329)" fill="#8c8b8b"/>
                </g>
              </g>
            </g>
            <g id="Grupo_1083708" data-name="Grupo 1083708" transform="translate(80.922 208.278)" style="mix-blend-mode: multiply;isolation: isolate">
              <g id="Grupo_1083707" data-name="Grupo 1083707">
                <g id="Grupo_1083706" data-name="Grupo 1083706" clip-path="url(#clip-path-20)">
                  <path id="Trazado_834654" data-name="Trazado 834654" d="M146.025,374.641a.285.285,0,1,1-.3-.265.285.285,0,0,1,.3.265" transform="translate(-145.456 -374.375)" fill="#8c8b8b"/>
                </g>
              </g>
            </g>
            <g id="Grupo_1083711" data-name="Grupo 1083711" transform="translate(81.93 207.779)" style="mix-blend-mode: multiply;isolation: isolate">
              <g id="Grupo_1083710" data-name="Grupo 1083710">
                <g id="Grupo_1083709" data-name="Grupo 1083709" clip-path="url(#clip-path-22)">
                  <path id="Trazado_834655" data-name="Trazado 834655" d="M147.835,373.745a.283.283,0,1,1-.3-.266.284.284,0,0,1,.3.266" transform="translate(-147.268 -373.479)" fill="#8c8b8b"/>
                </g>
              </g>
            </g>
            <path id="Trazado_834656" data-name="Trazado 834656" d="M137.455,375.889a1.791,1.791,0,0,1,1.375.9" transform="translate(-60.984 -166.769)" fill="none" stroke="#fff" stroke-linecap="round" stroke-linejoin="round" stroke-width="0.844"/>
            <path id="Trazado_834657" data-name="Trazado 834657" d="M139.348,375.027a1.787,1.787,0,0,1,1.374.894" transform="translate(-61.824 -166.386)" fill="none" stroke="#fff" stroke-linecap="round" stroke-linejoin="round" stroke-width="0.844"/>
            <path id="Trazado_834658" data-name="Trazado 834658" d="M141.178,374.031a1.791,1.791,0,0,1,1.375.9" transform="translate(-62.636 -165.944)" fill="none" stroke="#fff" stroke-linecap="round" stroke-linejoin="round" stroke-width="0.844"/>
            <path id="Trazado_834659" data-name="Trazado 834659" d="M143.5,373.221a1.791,1.791,0,0,1,1.374.9" transform="translate(-63.665 -165.585)" fill="none" stroke="#fff" stroke-linecap="round" stroke-linejoin="round" stroke-width="0.844"/>
            <path id="Trazado_834660" data-name="Trazado 834660" d="M145.23,372.349a1.788,1.788,0,0,1,1.374.893" transform="translate(-64.433 -165.198)" fill="none" stroke="#fff" stroke-linecap="round" stroke-linejoin="round" stroke-width="0.844"/>
            <path id="Trazado_834661" data-name="Trazado 834661" d="M135.242,376.91a1.79,1.79,0,0,1,1.376.894" transform="translate(-60.002 -167.222)" fill="none" stroke="#fff" stroke-linecap="round" stroke-linejoin="round" stroke-width="0.844"/>
            <path id="Trazado_834662" data-name="Trazado 834662" d="M117.9,367.085l.29,2.344-8.211,2.912s-1.458.51-.532,1.162a4.6,4.6,0,0,0,4.411.027l5.613-2.525,1.36-.5-.072-3.481Z" transform="translate(-48.42 -162.837)" fill="#fabc99"/>
            <path id="Trazado_834663" data-name="Trazado 834663" d="M120.861,370.7l-1.444.641-5.529,2.382a4.594,4.594,0,0,1-4.408-.028c-.929-.652.417-1.247.417-1.247l1.993-.814,5.522-2.388L117.3,368.2s-.06-.441.478-.524l1.587.1s.618.159.451.647l-.241.608,1.247-.545Z" transform="translate(-48.427 -163.125)" fill="#dd2e34"/>
            <g id="Grupo_1083714" data-name="Grupo 1083714" transform="translate(62.365 204.55)" style="mix-blend-mode: multiply;isolation: isolate">
              <g id="Grupo_1083713" data-name="Grupo 1083713">
                <g id="Grupo_1083712" data-name="Grupo 1083712" clip-path="url(#clip-path-23)">
                  <path id="Trazado_834664" data-name="Trazado 834664" d="M114.746,372.264l6.018-2.658.113-.579.241-.608c.167-.488-.451-.647-.451-.647l-1.587-.1c-.538.083-.478.524-.478.524l.115,1.046-5.522,2.388-1.1.448s.787,1.065,2.647.184" transform="translate(-112.1 -367.674)" fill="#8c8b8b"/>
                </g>
              </g>
            </g>
            <path id="Trazado_834665" data-name="Trazado 834665" d="M109.115,375.616a1.187,1.187,0,0,0,.244,1.081,4.449,4.449,0,0,0,4.377.24l7.133-3.118-.043-.707-7.73,3.09s-2.468.917-3.981-.586" transform="translate(-48.392 -165.537)" fill="#ededed"/>
            <g id="Grupo_1083717" data-name="Grupo 1083717" transform="translate(64.285 209.279)" style="mix-blend-mode: multiply;isolation: isolate">
              <g id="Grupo_1083716" data-name="Grupo 1083716">
                <g id="Grupo_1083715" data-name="Grupo 1083715" clip-path="url(#clip-path-17)">
                  <path id="Trazado_834666" data-name="Trazado 834666" d="M116.117,376.441a.284.284,0,1,1-.3-.267.283.283,0,0,1,.3.267" transform="translate(-115.55 -376.174)" fill="#8c8b8b"/>
                </g>
              </g>
            </g>
            <g id="Grupo_1083720" data-name="Grupo 1083720" transform="translate(65.518 208.742)" style="mix-blend-mode: multiply;isolation: isolate">
              <g id="Grupo_1083719" data-name="Grupo 1083719">
                <g id="Grupo_1083718" data-name="Grupo 1083718" clip-path="url(#clip-path-17)">
                  <path id="Trazado_834667" data-name="Trazado 834667" d="M118.334,375.476a.284.284,0,1,1-.3-.265.284.284,0,0,1,.3.265" transform="translate(-117.767 -375.209)" fill="#8c8b8b"/>
                </g>
              </g>
            </g>
            <g id="Grupo_1083723" data-name="Grupo 1083723" transform="translate(66.569 208.25)" style="mix-blend-mode: multiply;isolation: isolate">
              <g id="Grupo_1083722" data-name="Grupo 1083722">
                <g id="Grupo_1083721" data-name="Grupo 1083721" clip-path="url(#clip-path-19)">
                  <path id="Trazado_834668" data-name="Trazado 834668" d="M120.225,374.59a.284.284,0,1,1-.3-.265.283.283,0,0,1,.3.265" transform="translate(-119.657 -374.324)" fill="#8c8b8b"/>
                </g>
              </g>
            </g>
            <g id="Grupo_1083726" data-name="Grupo 1083726" transform="translate(67.63 207.74)" style="mix-blend-mode: multiply;isolation: isolate">
              <g id="Grupo_1083725" data-name="Grupo 1083725">
                <g id="Grupo_1083724" data-name="Grupo 1083724" clip-path="url(#clip-path-20)">
                  <path id="Trazado_834669" data-name="Trazado 834669" d="M122.133,373.675a.285.285,0,1,1-.3-.267.285.285,0,0,1,.3.267" transform="translate(-121.563 -373.408)" fill="#8c8b8b"/>
                </g>
              </g>
            </g>
            <g id="Grupo_1083729" data-name="Grupo 1083729" transform="translate(68.874 207.21)" style="mix-blend-mode: multiply;isolation: isolate">
              <g id="Grupo_1083728" data-name="Grupo 1083728">
                <g id="Grupo_1083727" data-name="Grupo 1083727" clip-path="url(#clip-path-17)">
                  <path id="Trazado_834670" data-name="Trazado 834670" d="M124.367,372.721a.284.284,0,1,1-.3-.265.284.284,0,0,1,.3.265" transform="translate(-123.8 -372.455)" fill="#8c8b8b"/>
                </g>
              </g>
            </g>
            <g id="Grupo_1083732" data-name="Grupo 1083732" transform="translate(69.881 206.711)" style="mix-blend-mode: multiply;isolation: isolate">
              <g id="Grupo_1083731" data-name="Grupo 1083731">
                <g id="Grupo_1083730" data-name="Grupo 1083730" clip-path="url(#clip-path-22)">
                  <path id="Trazado_834671" data-name="Trazado 834671" d="M126.177,371.826a.284.284,0,1,1-.3-.266.283.283,0,0,1,.3.266" transform="translate(-125.61 -371.559)" fill="#8c8b8b"/>
                </g>
              </g>
            </g>
            <path id="Trazado_834672" data-name="Trazado 834672" d="M115.8,373.969a1.789,1.789,0,0,1,1.374.895" transform="translate(-51.376 -165.917)" fill="none" stroke="#fff" stroke-linecap="round" stroke-linejoin="round" stroke-width="0.844"/>
            <path id="Trazado_834673" data-name="Trazado 834673" d="M117.691,373.106a1.787,1.787,0,0,1,1.374.894" transform="translate(-52.215 -165.534)" fill="none" stroke="#fff" stroke-linecap="round" stroke-linejoin="round" stroke-width="0.844"/>
            <path id="Trazado_834674" data-name="Trazado 834674" d="M119.52,372.11a1.789,1.789,0,0,1,1.375.9" transform="translate(-53.027 -165.092)" fill="none" stroke="#fff" stroke-linecap="round" stroke-linejoin="round" stroke-width="0.844"/>
            <path id="Trazado_834675" data-name="Trazado 834675" d="M121.84,371.3a1.791,1.791,0,0,1,1.374.9" transform="translate(-54.056 -164.733)" fill="none" stroke="#fff" stroke-linecap="round" stroke-linejoin="round" stroke-width="0.844"/>
            <path id="Trazado_834676" data-name="Trazado 834676" d="M123.574,370.427a1.787,1.787,0,0,1,1.372.894" transform="translate(-54.825 -164.346)" fill="none" stroke="#fff" stroke-linecap="round" stroke-linejoin="round" stroke-width="0.844"/>
            <path id="Trazado_834677" data-name="Trazado 834677" d="M113.584,374.989a1.788,1.788,0,0,1,1.375.894" transform="translate(-50.393 -166.37)" fill="none" stroke="#fff" stroke-linecap="round" stroke-linejoin="round" stroke-width="0.844"/>
            <path id="Trazado_834678" data-name="Trazado 834678" d="M122.623,364.661s-.236-.012-.212.289l.139,1.539s-.04.314.18.4a5.233,5.233,0,0,0,4.544-.163.41.41,0,0,0,.293-.425l-.029-1.458s.093-.431-.275-.409a7.553,7.553,0,0,1-4.64.226" transform="translate(-54.309 -161.686)" fill="#27557b"/>
            <g id="Grupo_1083735" data-name="Grupo 1083735" transform="translate(66.512 142.358)" style="mix-blend-mode: multiply;isolation: isolate">
              <g id="Grupo_1083734" data-name="Grupo 1083734">
                <g id="Grupo_1083733" data-name="Grupo 1083733" clip-path="url(#clip-path-37)">
                  <path id="Trazado_834679" data-name="Trazado 834679" d="M127.243,273.241c-.734-5.115-.357-3.283-.9-6.5-1.133-6.769-4.026-4.109-6.795-9.7l12.782-1.148L128.7,277.77a13.2,13.2,0,0,1-1.461-4.529" transform="translate(-119.553 -255.886)" fill="#d2d1d1"/>
                </g>
              </g>
            </g>
            <path id="Trazado_834680" data-name="Trazado 834680" d="M122.623,364.661s-.236-.012-.212.289l.139,1.539s-.04.314.18.4a5.233,5.233,0,0,0,4.544-.163.41.41,0,0,0,.293-.425l-.029-1.458s.093-.431-.275-.409a7.553,7.553,0,0,1-4.64.226" transform="translate(-54.309 -161.686)" fill="#27557b"/>
            <path id="Trazado_834681" data-name="Trazado 834681" d="M143.388,317.047c.285-3.441.585-6.124.87-9.565a60.5,60.5,0,0,0-1.883-22.6l.129-4.476,3.519-21.019A19.224,19.224,0,0,0,144.7,247.4l-12.553.258,2.374,31.426.4,4.3,3.929,33.826a5.634,5.634,0,0,0,4.367-.09" transform="translate(-58.628 -109.761)" fill="#18223f"/>
            <path id="Trazado_834682" data-name="Trazado 834682" d="M143.825,368.7s-.237-.013-.213.288l.14,1.539s-.041.314.179.4a5.232,5.232,0,0,0,4.544-.163.41.41,0,0,0,.293-.426l-.029-1.457s.093-.431-.276-.411a7.538,7.538,0,0,1-4.638.227" transform="translate(-63.715 -163.477)" fill="#27557b"/>
            <path id="Trazado_834683" data-name="Trazado 834683" d="M128.425,190.256a22.961,22.961,0,0,0-2.987-1.2,7.476,7.476,0,0,0-2-.335c-1.579-.02-2.082,1.644-2.34,2.91-.148.733-.225,1.479-.353,2.215-.145.832-.767,1.632-.867,2.409,0,0-2.693,4.779-.715,8.08l2.5,3.213-2.086,17.708c11.057,4.432,20.058,1.794,20.058,1.794,1.149-4.145-2.535-13.274-1.593-10.581.408,1.163-.957-2.531-.766-4.22.334-2.931,2.848-8.4,3.088-11.418.189-2.361.68-3.476-.692-4.515a30.635,30.635,0,0,0-5.675-3.39Z" transform="translate(-52.546 -83.73)" fill="#f5ae80"/>
            <path id="Trazado_834684" data-name="Trazado 834684" d="M122.185,188.721s-2.671-.339-3.981,5.041l-2.591,10.015s-.12,2.5,5.957,3.026c0,0,4.692-16.5.615-18.082" transform="translate(-51.293 -83.727)" fill="#452136"/>
            <rect id="Rectángulo_385382" data-name="Rectángulo 385382" width="5.567" height="11.213" transform="translate(75.879 100.974)" fill="#f5ae80"/>
            <g id="Grupo_1083738" data-name="Grupo 1083738" transform="translate(75.879 100.974)" opacity="0.5" style="mix-blend-mode: multiply;isolation: isolate">
              <g id="Grupo_1083737" data-name="Grupo 1083737">
                <g id="Grupo_1083736" data-name="Grupo 1083736" clip-path="url(#clip-path-38)">
                  <path id="Trazado_834685" data-name="Trazado 834685" d="M136.391,187.447V181.5h5.567v3.387a47.452,47.452,0,0,1-5.567,2.562" transform="translate(-136.391 -181.498)" fill="#f5ae80"/>
                </g>
              </g>
            </g>
            <path id="Trazado_834686" data-name="Trazado 834686" d="M141.022,169.07c4.027-2.806,5.757-14.083-1.789-16.949-5.467-2.076-11.6,2.275-10.393,8.234.266,1.316-.429,2.576-.557,3.872a13.258,13.258,0,0,0,1.375,6.812c.917,2.16,4.382.8,6.211.333a15.715,15.715,0,0,0,5.153-2.3" transform="translate(-56.892 -67.258)" fill="#f5ae80"/>
            <path id="Trazado_834687" data-name="Trazado 834687" d="M139.667,196.319c1.372,1.039.881,2.154.692,4.515-.24,3.013-2.754,8.487-3.088,11.418-.191,1.69,1.174,5.383.766,4.22-.942-2.693,4.159,8.827,3.01,12.972,0,0-14.864,5.133-22.043-2.588l2.4-19.113-2.246-3.405c-1.978-3.3.715-8.08.715-8.08.1-.778.722-1.578.867-2.409.129-.737.205-1.482.353-2.215.259-1.266.762-2.93,2.34-2.91a7.48,7.48,0,0,1,2,.334,16.3,16.3,0,0,1,2.73,1.082s-1.475,2.267,1.351,3.639c0,0,3.065,1.8,4.832-.692,0,0,4.126,1.916,5.316,3.232" transform="translate(-52.546 -83.73)" fill="#452136"/>
            <path id="Trazado_834688" data-name="Trazado 834688" d="M147.08,164.8a2.868,2.868,0,0,1-.687-.654,18.327,18.327,0,0,1-1.755-6.368l4.585-3.181s6.558,4.43,1.84,12.772l-2.187,2.868a6.649,6.649,0,0,1-1.74.917c-.536-3.584-.185-1.592.208-4.576a1.8,1.8,0,0,0-.264-1.779" transform="translate(-64.171 -68.59)" fill="#3e140e"/>
            <path id="Trazado_834689" data-name="Trazado 834689" d="M128.008,161.664s-1.326-5.764-.638-8.3c2.061-4.78,8.178-4.348,8.178-4.348,5.164.345,5.926,3.1,5.926,3.1l-4.584,3.181c-.4-1.321-2.026-1.757-3.2-1.951-3.09-.51-2.613,1.987-5.368,4.242-.005,0,.1,2.425.1,2.425a9.638,9.638,0,0,1-.419,1.651" transform="translate(-56.422 -66.107)" fill="#3e140e"/>
            <g id="Grupo_1083741" data-name="Grupo 1083741" transform="translate(65.922 106.41)" style="mix-blend-mode: multiply;isolation: isolate">
              <g id="Grupo_1083740" data-name="Grupo 1083740">
                <g id="Grupo_1083739" data-name="Grupo 1083739" clip-path="url(#clip-path-39)">
                  <path id="Trazado_834690" data-name="Trazado 834690" d="M121.459,208.918l-2.24-3.4c-1.976-3.3.712-8.063.712-8.063.1-.778.722-1.575.866-2.406.127-.735.205-1.479.353-2.21a7.08,7.08,0,0,1,.48-1.571,13.98,13.98,0,0,1-.483,5.5c-.541,1.8-1.36,3.676-1.277,5.592.06,1.362.3,2.915,1.687,3.534,1.485.662,3.158,1.025,4.695,1.576,3.063,1.1,7.265,2.628,10.289.582,2.169-1.467,3.031-3.976,3.863-6.361-.011.108-.019.218-.029.332-.241,3.006-2.749,8.469-3.08,11.394a14.072,14.072,0,0,0,.808,4.345c-.011-.034-.025-.077-.046-.134-.939-2.687,4.154,8.812,3.005,12.948,0,0-14.866,5.118-22.031-2.589Z" transform="translate(-118.494 -191.269)" fill="#d2d1d1"/>
                </g>
              </g>
            </g>
            <path id="Trazado_834691" data-name="Trazado 834691" d="M140.288,159.017l-1.252,14.832s.254,3.7-4.177,6.188c0,0,13.209.5,14.136-5.882,0,0,1.156-8.371-1.587-14.907-.88-2.1-4.556-.077-7.121-.231" transform="translate(-59.832 -70.228)" fill="#3e140e"/>
            <path id="Trazado_834692" data-name="Trazado 834692" d="M157.46,208.157l2.133,15.577a8.784,8.784,0,0,1-.471,5.729l-3.951,18.318-2.619-.4,2.164-20.8-3.932-16.972s-1.8-4.873,2.172-5.558c0,0,3.7-1.06,4.5,4.106" transform="translate(-66.718 -90.491)" fill="#f5ae80"/>
            <path id="Trazado_834693" data-name="Trazado 834693" d="M154.042,285.722c-.379.042-.431,1.1-1.637,1.064a9.486,9.486,0,0,1,.188-2.292c.146-.455.384-.485.835-.652.364-.136.784-.154,1.143-.31s.72-1.232.951-1.626l.524.042a23.3,23.3,0,0,1,.039,3.635Z" transform="translate(-67.617 -125.072)" fill="#f7ae80"/>
            <path id="Trazado_834694" data-name="Trazado 834694" d="M150.326,284.8a15.491,15.491,0,0,1,.743-2.294l1.139-1.2.472-.959c1,.492,1.919.863,1.919.863-.463,1.37-.539,1.709-.539,1.709s-.261.715-1.741.853l-.648.157s-.4,1.25-1.346.866" transform="translate(-66.694 -124.384)" fill="#f7ae80"/>
            <path id="Trazado_834695" data-name="Trazado 834695" d="M156.142,287.329a.326.326,0,0,0-.4-.389c-.446-.051-.461.327-.461.327l.015-.2c-.105-.228-.469-.141-.469-.141a.4.4,0,0,0-.384.433l.006-.371c-.068-.225-.456-.181-.456-.181-.5.035-.457.429-.457.429l-.013.161s-.974-.39-1.069.949l-.05.611s.453.309,1.045-.25a.733.733,0,0,0,.984-.136.757.757,0,0,0,.842-.184s.574.187.734-.179Z" transform="translate(-67.616 -127.246)" fill="#f7ae80"/>
            <path id="Trazado_834696" data-name="Trazado 834696" d="M151.565,200.271s-3.048,1.45-1.843,6.081a61.205,61.205,0,0,0,1.645,9.344s5.221.23,7.573-3.168c0,0-.783-10.807-7.375-12.257" transform="translate(-66.301 -88.853)" fill="#452136"/>
            <path id="Trazado_834697" data-name="Trazado 834697" d="M231.529,236.2l-.377-6.685h4.516l-.374,6.685Z" transform="translate(-102.554 -101.827)" fill="#f7ae80"/>
            <path id="Trazado_834698" data-name="Trazado 834698" d="M230.881,240.414a6.624,6.624,0,0,0,4.64-.046l7.891-3.161c1.707-1.1-.506-1.875-.506-1.875-1.325-.6-3.424.139-3.424.139l-4.209.969c-1.416,1.513-3.989.493-3.989.493a5.975,5.975,0,0,0-.4,3.481" transform="translate(-102.407 -104.304)" fill="#5b2d2b"/>
            <path id="Trazado_834699" data-name="Trazado 834699" d="M230.93,241.017a7.505,7.505,0,0,0,4.64-.046l7.748-3.1s1.146-.557.521-1.415c0,0,.6.19.269,2.1a7.258,7.258,0,0,1-2.343,1.352,31.707,31.707,0,0,1-7.544,2.834,5.36,5.36,0,0,1-2.259-.063c-.14-.036-1.031-.292-1.031-.473Z" transform="translate(-102.456 -104.906)" fill="#ededed"/>
            <path id="Trazado_834700" data-name="Trazado 834700" d="M230.93,240.6l.4.12.4.088a5.821,5.821,0,0,0,.817.09,7.037,7.037,0,0,0,.818-.025,7.425,7.425,0,0,0,.807-.117c.267-.051.529-.124.789-.2a5.177,5.177,0,0,0,.753-.292l1.522-.678,1.529-.662c.51-.219,1.02-.438,1.533-.649q1.537-.644,3.086-1.255l-.027.014a1.44,1.44,0,0,0,.434-.328.354.354,0,0,0,.061-.417,1.287,1.287,0,0,0-.378-.432,4.376,4.376,0,0,0-.523-.34,2.505,2.505,0,0,1,.6.216,1.414,1.414,0,0,1,.532.418.666.666,0,0,1,.122.377.739.739,0,0,1-.118.384,1.776,1.776,0,0,1-.51.488l-.007,0-.021.009q-1.52.683-3.051,1.338-.764.33-1.535.646l-1.54.634-1.547.618a5.741,5.741,0,0,1-.814.267,6.535,6.535,0,0,1-.837.158,7.743,7.743,0,0,1-.848.063,6.819,6.819,0,0,1-.846-.057,6.1,6.1,0,0,1-.826-.172c-.134-.045-.268-.086-.4-.137Z" transform="translate(-102.456 -104.492)" fill="#471f1f"/>
            <path id="Trazado_834701" data-name="Trazado 834701" d="M202.65,229.6l-.377-6.685h4.515l-.373,6.685Z" transform="translate(-89.742 -98.898)" fill="#f7ae80"/>
            <path id="Trazado_834702" data-name="Trazado 834702" d="M202,233.812a6.618,6.618,0,0,0,4.639-.047l7.892-3.161c1.707-1.1-.507-1.874-.507-1.874-1.325-.6-3.424.139-3.424.139l-4.208.97c-1.417,1.512-3.989.493-3.989.493a5.972,5.972,0,0,0-.4,3.48" transform="translate(-89.594 -101.375)" fill="#5b2d2b"/>
            <path id="Trazado_834703" data-name="Trazado 834703" d="M202.051,234.415a7.5,7.5,0,0,0,4.639-.047l7.748-3.1s1.147-.557.522-1.415c0,0,.6.19.269,2.094a7.256,7.256,0,0,1-2.344,1.354,31.724,31.724,0,0,1-7.543,2.834,5.351,5.351,0,0,1-2.259-.063c-.14-.036-1.031-.292-1.031-.474Z" transform="translate(-89.643 -101.977)" fill="#ededed"/>
            <path id="Trazado_834704" data-name="Trazado 834704" d="M202.051,234l.4.12.4.089a5.783,5.783,0,0,0,.817.09,6.922,6.922,0,0,0,.818-.026,7.462,7.462,0,0,0,.807-.116c.267-.051.529-.125.788-.2a5.245,5.245,0,0,0,.753-.291l1.521-.678,1.529-.662c.51-.22,1.02-.438,1.534-.649,1.024-.43,2.053-.846,3.086-1.255l-.028.014a1.429,1.429,0,0,0,.436-.328.356.356,0,0,0,.061-.417,1.293,1.293,0,0,0-.378-.431,4.332,4.332,0,0,0-.524-.342,2.492,2.492,0,0,1,.6.216,1.413,1.413,0,0,1,.532.418.669.669,0,0,1,.122.376.738.738,0,0,1-.118.384,1.794,1.794,0,0,1-.511.488l-.007.005-.02.009q-1.52.683-3.052,1.337c-.51.221-1.021.435-1.535.647l-1.539.634-1.548.618a5.725,5.725,0,0,1-.813.266,6.558,6.558,0,0,1-.837.159,7.778,7.778,0,0,1-.849.062,6.811,6.811,0,0,1-.845-.057,6.115,6.115,0,0,1-.827-.172c-.134-.044-.268-.086-.4-.137Z" transform="translate(-89.643 -101.563)" fill="#471f1f"/>
            <path id="Trazado_834705" data-name="Trazado 834705" d="M204.682,116.375c-.468,2.291.171,5.508.813,7.725,1.4,4.813,8.457,7.608,12.738,8.415,0,0,7.965.466,7.588-11.224Z" transform="translate(-90.739 -51.632)" fill="#13233e"/>
            <path id="Trazado_834706" data-name="Trazado 834706" d="M192.549,82.622s2.822,3.324,8.433,11.343l-.97,1.646s-9.611-4.843-12.677-10.276Z" transform="translate(-83.114 -36.656)" fill="#f5ae80"/>
            <path id="Trazado_834707" data-name="Trazado 834707" d="M193.843,76.049s-2.559,5.031-5.259,5.286c0,0-1.5.1-1.8-1.034,0,0-1.049-1.35,1.8-8.013Z" transform="translate(-82.786 -32.072)" fill="#f5ae80"/>
            <path id="Trazado_834708" data-name="Trazado 834708" d="M200.191,44.163a4.9,4.9,0,0,0-4.826,2.8l-6.727,13.343s.7,3.556,7.311,4.244l6.1-12.22s1.949-6.488-1.859-8.168" transform="translate(-83.692 -19.586)" fill="#d5d54d"/>
            <g id="Grupo_1083744" data-name="Grupo 1083744" transform="translate(104.946 24.559)" style="mix-blend-mode: multiply;isolation: isolate">
              <g id="Grupo_1083743" data-name="Grupo 1083743">
                <g id="Grupo_1083742" data-name="Grupo 1083742" clip-path="url(#clip-path-40)">
                  <path id="Trazado_834709" data-name="Trazado 834709" d="M188.893,59.8c.45,1.656,1.722,2.56,3.351,3.285a3.007,3.007,0,0,0,2.655.162c1.183-.814.887-3.434.966-4.659.133-2.037.239-4.077.259-6.12a15.694,15.694,0,0,1,.6-5.607,5.143,5.143,0,0,1,2.678-2.7,3.934,3.934,0,0,1,.787,0c3.808,1.68,1.859,8.167,1.859,8.167l-6.1,12.22c-6.609-.688-7.311-4.245-7.311-4.245Z" transform="translate(-188.639 -44.145)" fill="#d2d1d1"/>
                </g>
              </g>
            </g>
            <path id="Trazado_834710" data-name="Trazado 834710" d="M233.673,129.158l.115,21.724L232.7,187.744s-2.3,2.275-6.425,1.006l-3.129-36.884-.668-24.689Z" transform="translate(-98.704 -56.424)" fill="#13233e"/>
            <path id="Trazado_834711" data-name="Trazado 834711" d="M213.386,126.618l-9.953-5.346.3,25.033-1.744,36.437c2.313,1.949,5.673-.158,5.673-.158l5.315-33.731Z" transform="translate(-89.615 -53.804)" fill="#13233e"/>
            <path id="Trazado_834712" data-name="Trazado 834712" d="M228.86,41.268l-1.7,7.845-5.509-2.927,1.278-6.648Z" transform="translate(-98.338 -17.541)" fill="#f5ae80"/>
            <path id="Trazado_834713" data-name="Trazado 834713" d="M224.623,25.747a30.086,30.086,0,0,1-4.332-.678c-1.933-.467-3.475-3.479-4.845-4.905a15.1,15.1,0,0,1-2.007-3.34,9.846,9.846,0,0,1,.595-10.656,8.234,8.234,0,0,1,5.389-3.426c3.965-.391,8.763,1.631,10.841,5.416,1.263,2.3-.489,5.249,1.5,7.257,0,0,1.793,1.1.253,2.223,0,0-1.6.788-1.781,1.923a16.458,16.458,0,0,0-.266,2.374c-.111.7.057,2.192-.418,2.781-.968,1.2-2.728,1.2-4.127,1.1-.267-.019-.535-.041-.8-.065" transform="translate(-94.123 -1.195)" fill="#f5ae80"/>
            <path id="Trazado_834714" data-name="Trazado 834714" d="M230.5,32.691c.085,1.43.69,3.308,2.263,3.7a4.84,4.84,0,0,0,.8.065c1.4.1,3.158.1,4.127-1.1.475-.589.307-2.078.418-2.781.075-.48.176-1.8.216-2.109a5.63,5.63,0,0,0-1.507-.142,4.169,4.169,0,0,0-1.584.35c-.435.2-1.013.537-1.473.219a1.831,1.831,0,0,1-.589-1.03c-.233-.829-.656-2.345-.8-3.189l-.624.134-.644,2.9a9.963,9.963,0,0,0-.605,2.982" transform="translate(-102.26 -11.833)" fill="#4d433c"/>
            <path id="Trazado_834715" data-name="Trazado 834715" d="M226.616,92.417l-.085-36c.319-2.191-.295-3.493-1.311-4.328a58.24,58.24,0,0,0-5.57-3.339s-.89.342-3.423-.822c0,0-1.848-.718-2.294-1.814a47.187,47.187,0,0,0-6.162-1.877c-2.946-.493-3.1,2.268-3.421,4.444,0,0-1.305,19.684-.7,37.173a29.947,29.947,0,0,0,22.967,6.559" transform="translate(-90.281 -19.602)" fill="#d5d54d"/>
            <g id="Grupo_1083747" data-name="Grupo 1083747" transform="translate(120.972 31.218)" style="mix-blend-mode: multiply;isolation: isolate">
              <g id="Grupo_1083746" data-name="Grupo 1083746">
                <g id="Grupo_1083745" data-name="Grupo 1083745" clip-path="url(#clip-path-41)">
                  <path id="Trazado_834716" data-name="Trazado 834716" d="M232.723,61.714c.319-2.191-.294-3.492-1.31-4.328a19.223,19.223,0,0,0-1.935-1.273,3.193,3.193,0,0,1-.423,3.11c-.5.8-1.077,1.567-1.5,2.415a9.244,9.244,0,0,0-.769,3.5,59.167,59.167,0,0,0-.066,8.432c.254,3.879,1.4,7.679,1.358,11.583-.034,3.663-1.352,7.07-4.762,8.827a17.848,17.848,0,0,1-5.873,1.716,30.019,30.019,0,0,0,15.362,2.009Z" transform="translate(-217.445 -56.113)" fill="#d2d1d1"/>
                </g>
              </g>
            </g>
            <path id="Trazado_834717" data-name="Trazado 834717" d="M235.646,234.061c-.885.685-2.69,2.031-6.661,1.19a.753.753,0,0,1-.384-.574l-.153-2.772s-.016-.723.409-.541c0,0,2.735,1.233,6.452-.8,0,0,.384-.343.521.3l.041,2.451s.065.522-.226.748" transform="translate(-101.354 -102.253)" fill="#6e92bd"/>
            <path id="Trazado_834718" data-name="Trazado 834718" d="M207.779,228.512a5.088,5.088,0,0,1-6.037.763.753.753,0,0,1-.384-.574l.214-2.379s-.014-.723.411-.541c0,0,2.13,1.6,5.847-.435,0,0,.384-.343.521.3l-.168,2.086a1.561,1.561,0,0,1-.4.783" transform="translate(-89.335 -99.938)" fill="#6e92bd"/>
            <path id="Trazado_834719" data-name="Trazado 834719" d="M251.672,108.481s4.431,5.335,9.606,15.76l-1.967,1.248s-11.7-9.372-12.74-15.523Z" transform="translate(-109.394 -48.129)" fill="#f5ae80"/>
            <path id="Trazado_834720" data-name="Trazado 834720" d="M245.873,89.689l2.756,11.107s.273,3.064-2.052,3.895c0,0-2.284.539-3.541-3.072l-3.543-10.754Z" transform="translate(-106.254 -39.792)" fill="#f5ae80"/>
            <path id="Trazado_834721" data-name="Trazado 834721" d="M269.471,137.9a44.239,44.239,0,0,0,2.3,4.84c1.1,2.333,2.489,1.456,2.489,1.456,1.2.8,1.344-.783,1.344-.783a.883.883,0,0,0,.2-1.011l-2.259-3.01c-.225-.627.446-.472.446-.472l1.842.675c.911.244.7-.653.7-.653l-5.188-2.483Z" transform="translate(-119.555 -60.543)" fill="#f5ae80"/>
            <path id="Trazado_834722" data-name="Trazado 834722" d="M240.568,59.716s3.249,1.274,3.621,6.655l1.553,11.308s-4.111,3.573-8.219,1.275l-.957-13.721s0-4.929,4-5.516" transform="translate(-104.956 -26.494)" fill="#d5d54d"/>
            <path id="Trazado_834723" data-name="Trazado 834723" d="M220.891,43.744l-2.816,1.37S221,49.1,227.592,49.4c.091,0-.957-3.314-.957-3.314Z" transform="translate(-96.752 -19.408)" fill="#fff"/>
            <path id="Trazado_834724" data-name="Trazado 834724" d="M209.87,8.867c0,.013-1.556,5.883,3.836,11.165l3.56,3.267,2.51-.671.365-5.275c.057-.451-.432-1.027-.594-1.416a3.549,3.549,0,0,1-.265-1.466c.006-1,.327-2.157,1.588-1.9,1.04.211,1.418,1.5,1.635,2.4l.624-.134a3.837,3.837,0,0,1,1.8-4.134c-.576-3.193,2.377-3,2.377-3s3.688-.082,3.23-3.481c0,0,.229-1.993-2.909-3.855-6.075-.711-8.708-.181-8.708-.181a13.543,13.543,0,0,0-3.935,1.188,8.647,8.647,0,0,0-3.028,2.3,2.409,2.409,0,0,0,.194,2.626s-1.973,0-2.281,2.56" transform="translate(-93.02 0)" fill="#4d433c"/>
            <path id="Trazado_834725" data-name="Trazado 834725" d="M209.87,8.867c0,.013-1.556,5.883,3.836,11.165l3.56,3.267,2.51-.671.365-5.275c.057-.451-.432-1.027-.594-1.416a3.549,3.549,0,0,1-.265-1.466c.006-1,.327-2.157,1.588-1.9,1.04.211,1.418,1.5,1.635,2.4l.624-.134a3.837,3.837,0,0,1,1.8-4.134c-.576-3.193,2.377-3,2.377-3s3.688-.082,3.23-3.481c0,0,.229-1.993-2.909-3.855-6.075-.711-8.708-.181-8.708-.181a13.543,13.543,0,0,0-3.935,1.188,8.647,8.647,0,0,0-3.028,2.3,2.409,2.409,0,0,0,.194,2.626s-1.973,0-2.281,2.56" transform="translate(-93.02 0)" fill="#4d433c"/>
            <path id="Trazado_834726" data-name="Trazado 834726" d="M229.284,27.1c-.993.492-2.329-.183-2.984-1.507s-.384-2.8.608-3.287,2.329.182,2.985,1.506.382,2.8-.61,3.287" transform="translate(-100.243 -9.826)" fill="#f5ae80"/>
            <path id="Trazado_834727" data-name="Trazado 834727" d="M229.78,26.194c-.335-.085-.294-.243-.326-.527a.97.97,0,0,0-.25-.525.363.363,0,0,0-.432-.136,1.6,1.6,0,0,0-.376.026c-.4.065-.548-.085-.49-.524.066-.5.6-.734,1.093-.8.211-.029.3-.189.013-.29a1.243,1.243,0,0,0-1.594,1.3.771.771,0,0,0,.419.766.424.424,0,0,0,.077.012c.164.258.426.413.59.675a.241.241,0,0,0,.091.083,1.559,1.559,0,0,0,.177.314c.22.286.606.03.889.093a.239.239,0,0,0,.118-.463" transform="translate(-100.897 -10.357)" fill="#db896e"/>
            <path id="Trazado_834728" data-name="Trazado 834728" d="M336.1,447.162c.47,2.291-.17,5.508-.813,7.725-1.4,4.813-7.839,7.089-12.121,7.893,0,0-8.581.987-8.2-10.7Z" transform="translate(-139.733 -198.39)" fill="#232a3a"/>
            <path id="Trazado_834729" data-name="Trazado 834729" d="M352.351,413.41s-2.822,3.323-8.433,11.344l.969,1.645s9.612-4.842,12.677-10.276Z" transform="translate(-152.584 -183.416)" fill="#f5ae80"/>
            <path id="Trazado_834730" data-name="Trazado 834730" d="M356.162,406.837s2.557,5.03,5.258,5.286c0,0,1.5.1,1.8-1.035,0,0,1.05-1.35-1.8-8.012Z" transform="translate(-158.017 -178.831)" fill="#f5ae80"/>
            <path id="Trazado_834731" data-name="Trazado 834731" d="M344.5,374.951a4.9,4.9,0,0,1,4.827,2.8l6.727,13.344s-.7,3.556-7.311,4.244l-6.1-12.22s-1.949-6.487,1.858-8.168" transform="translate(-151.796 -166.345)" fill="#191e29"/>
            <g id="Grupo_1083750" data-name="Grupo 1083750" transform="translate(190.344 208.588)" style="mix-blend-mode: multiply;isolation: isolate">
              <g id="Grupo_1083749" data-name="Grupo 1083749">
                <g id="Grupo_1083748" data-name="Grupo 1083748" clip-path="url(#clip-path-40)">
                  <path id="Trazado_834732" data-name="Trazado 834732" d="M355.8,390.591c-.45,1.657-1.723,2.56-3.351,3.285a3.006,3.006,0,0,1-2.655.162c-1.183-.814-.887-3.434-.966-4.659-.132-2.037-.238-4.077-.259-6.12a15.694,15.694,0,0,0-.6-5.607,5.146,5.146,0,0,0-2.677-2.7,3.954,3.954,0,0,0-.788,0c-3.808,1.68-1.858,8.167-1.858,8.167l6.1,12.22c6.609-.688,7.311-4.244,7.311-4.244Z" transform="translate(-342.14 -374.933)" fill="#bababa"/>
                </g>
              </g>
            </g>
            <path id="Trazado_834733" data-name="Trazado 834733" d="M296.995,552.124l.3,3.5c-.252.715-2.609,1.021-2.609,1.021-1.2-.051-6.328-2.3-8-3.069-2.27-1.045-3.029-2.572-2.422-4.33.284-.63,2.717-.562,7.334,1.276a17.5,17.5,0,0,0,5.4,1.6" transform="translate(-126.028 -243.521)" fill="#12151d"/>
            <path id="Trazado_834734" data-name="Trazado 834734" d="M294.69,556.717c-1.2-.051-6.328-2.3-8-3.068-1.589-.733-2.436-1.7-2.593-2.821-.193,1.453.64,2.709,2.593,3.608,1.676.772,6.8,3.018,8,3.069,0,0,2.357-.307,2.609-1.021l-.058-.682c-.435.638-2.55.915-2.55.915" transform="translate(-126.03 -244.383)" fill="#0c0d14"/>
            <path id="Trazado_834735" data-name="Trazado 834735" d="M354.3,562.646l.3,3.5c-.252.714-2.609,1.021-2.609,1.021-1.2-.05-6.327-2.3-8-3.069-2.269-1.045-3.028-2.572-2.422-4.33.284-.63,2.717-.561,7.335,1.276a17.512,17.512,0,0,0,5.4,1.605" transform="translate(-151.451 -248.189)" fill="#12151d"/>
            <path id="Trazado_834736" data-name="Trazado 834736" d="M351.992,567.239c-1.2-.051-6.327-2.3-8-3.069-1.589-.732-2.435-1.7-2.591-2.82-.193,1.452.639,2.708,2.591,3.608,1.677.772,6.806,3.019,8,3.069,0,0,2.357-.307,2.609-1.021l-.059-.682c-.434.638-2.55.915-2.55.915" transform="translate(-151.454 -249.051)" fill="#0c0d14"/>
            <path id="Trazado_834737" data-name="Trazado 834737" d="M305.386,461.525l-12.278,21.2,1.65,31.406s2.3,2.276,6.424,1.006l1.651-32.079,17.122-16.005Z" transform="translate(-130.042 -204.763)" fill="#232a3a"/>
            <path id="Trazado_834738" data-name="Trazado 834738" d="M332.538,482.056l10.118,33.553s3.36,2.106,5.672.157l-6.717-37.1.3-26.611-14.153,4.5Z" transform="translate(-145.415 -200.563)" fill="#232a3a"/>
            <path id="Trazado_834739" data-name="Trazado 834739" d="M321.172,372.056l1.7,7.845,5.509-2.927-1.279-6.648Z" transform="translate(-142.493 -164.301)" fill="#f5ae80"/>
            <path id="Trazado_834740" data-name="Trazado 834740" d="M316.926,359.967c6.057-1.563,7.334-2.072,9.916-6.53,1.895-3.268,1.138-8.641-1.163-11.854a8.306,8.306,0,0,0-5.389-3.2c-3.964-.364-8.762,1.522-10.84,5.054-1.263,2.148.892,3.477-1.115,7.051,0,0-1.849,1.417-.309,2.465a3.16,3.16,0,0,1,1.45,1.125s.216,1.5.573,3.552c.377,2.171.646,3.29,3.932,2.811,0,0,2.621-.393,2.945-.476" transform="translate(-136.388 -150.11)" fill="#f5ae80"/>
            <path id="Trazado_834741" data-name="Trazado 834741" d="M335.158,421.718c.6-17.489-2.168-42.245-2.168-42.245-.325-2.176-.477-4.938-3.421-4.444a47.056,47.056,0,0,0-6.162,1.877c-.446,1.1-2.294,1.815-2.294,1.815-2.533,1.163-3.423.821-3.423.821a57.887,57.887,0,0,0-5.57,3.34c-1.016.835-1.631,2.137-1.311,4.328l.464,39.244s10.8,4.8,23.885-4.736" transform="translate(-137.857 -166.362)" fill="#191e29"/>
            <g id="Grupo_1083753" data-name="Grupo 1083753" transform="translate(172.867 213.23)" style="mix-blend-mode: multiply;isolation: isolate">
              <g id="Grupo_1083752" data-name="Grupo 1083752">
                <g id="Grupo_1083751" data-name="Grupo 1083751" clip-path="url(#clip-path-43)">
                  <path id="Trazado_834742" data-name="Trazado 834742" d="M322.755,430.363a9.972,9.972,0,0,1-4.908-2.467,10.286,10.286,0,0,1-2.6-5.089,35.107,35.107,0,0,1-.193-13.619c.7-3.976,1.113-7.848,1.474-11.868.369-4.136-1.074-11.672,1.073-14.042a56.75,56.75,0,0,0-5.477,3.29c-1.016.835-1.631,2.137-1.311,4.328l.464,39.244s5.188,2.435,12.886.475c-.469-.065-.937-.145-1.4-.25" transform="translate(-310.724 -383.277)" fill="#bababa"/>
                </g>
              </g>
            </g>
            <path id="Trazado_834743" data-name="Trazado 834743" d="M303.5,420.477l-1.645,11.107s-.273,3.064,2.052,3.895c0,0,2.285.539,3.541-3.072l2.433-10.753Z" transform="translate(-133.919 -186.551)" fill="#f5ae80"/>
            <path id="Trazado_834744" data-name="Trazado 834744" d="M307.9,390.5s-3.249,1.275-3.621,6.655l-1.553,11.307s4.111,3.574,8.219,1.275l.957-13.721s0-4.929-4-5.517" transform="translate(-134.308 -173.253)" fill="#191e29"/>
            <path id="Trazado_834745" data-name="Trazado 834745" d="M291.486,438.015s-5.652,1.879-16.039,8.087l.673,2.473s14.5-3.378,18.5-6.348Z" transform="translate(-122.206 -194.332)" fill="#f5ae80"/>
            <path id="Trazado_834746" data-name="Trazado 834746" d="M268.143,456.494c-.255-.279-1.139.3-1.811-.689a9.443,9.443,0,0,1,1.947-1.192c.45-.147.613.026,1.011.288.322.212.583.537.919.734s1.409-.145,1.86-.191l.273.445a22.98,22.98,0,0,1-2.891,2.16Z" transform="translate(-118.162 -201.672)" fill="#f7ae80"/>
            <path id="Trazado_834747" data-name="Trazado 834747" d="M266.978,453.171a15.53,15.53,0,0,1,2.274-.748l1.626.212,1.044-.182c.19,1.087.433,2.043.433,2.043-1.369.431-1.686.57-1.686.57s-.726.209-1.7-.9l-.505-.427s-1.238.408-1.483-.572" transform="translate(-118.449 -200.723)" fill="#f7ae80"/>
            <path id="Trazado_834748" data-name="Trazado 834748" d="M269.829,458.384a.323.323,0,0,0,.077-.549.361.361,0,0,0-.532-.178l.168-.1c.121-.219-.162-.459-.162-.459a.4.4,0,0,0-.571-.054l.3-.213c.139-.186-.124-.471-.124-.471-.319-.379-.61-.115-.61-.115l-.136.084s-.259-1.008-1.389-.3l-.519.318s.017.545.812.692c0,0,.039.7.685.71a.754.754,0,0,0,.64.567s.187.569.574.482Z" transform="translate(-118.162 -202.211)" fill="#f7ae80"/>
            <path id="Trazado_834749" data-name="Trazado 834749" d="M324.675,356.209a13.691,13.691,0,0,0,4-11.888,11.97,11.97,0,0,0-2.086-5.187,8.66,8.66,0,0,0-3.03-2.3,13.521,13.521,0,0,0-3.933-1.188,11.317,11.317,0,0,0-4.154.226c-.806.189-2.742,1.368-3.477,1.231-1.568-.293-1.078-1.276-1.078-1.276-3.137,1.863-2.908,3.855-2.908,3.855-.457,3.4,3.23,3.482,3.23,3.482s2.952-.2,2.377,3a3.839,3.839,0,0,1,1.8,4.134l.624.134c.174-.73.685-2.6,1.394-2.692,1.927-.245,1.843.209,2.156.788,0,0,.736,2.067-2.636,4.407l2.143,5.289,2.912.631Z" transform="translate(-136.634 -148.869)" fill="#562c0c"/>
            <path id="Trazado_834750" data-name="Trazado 834750" d="M309.757,342.823a54.519,54.519,0,0,0,13.344.254c1.885-.172,3.841-.965,4.193-2.349a1.526,1.526,0,0,0-.117-.715,7.612,7.612,0,0,0-.591-.88,8.663,8.663,0,0,0-3.029-2.3,13.508,13.508,0,0,0-3.934-1.188,11.3,11.3,0,0,0-4.154.226c-.807.189-2.742,1.367-3.477,1.231-1.568-.293-1.078-1.276-1.078-1.276-3.137,1.863-2.907,3.855-2.907,3.855a2.7,2.7,0,0,0,1.726,3.146.17.17,0,0,1,.024,0" transform="translate(-136.634 -148.869)" fill="#4a270a"/>
            <path id="Trazado_834751" data-name="Trazado 834751" d="M323.4,360.715a2.29,2.29,0,1,0-.5-2.7,1.984,1.984,0,0,0,.5,2.7" transform="translate(-143.129 -158.23)" fill="#f5ae80"/>
            <path id="Trazado_834752" data-name="Trazado 834752" d="M324.154,359.969c.274-.07.243-.2.268-.433a.785.785,0,0,1,.2-.431.3.3,0,0,1,.355-.112,1.32,1.32,0,0,1,.309.021c.328.053.451-.07.4-.431-.055-.413-.491-.6-.9-.661-.172-.025-.245-.155-.009-.238a1.022,1.022,0,0,1,1.31,1.069.635.635,0,0,1-.345.629.281.281,0,0,1-.064.011c-.135.211-.35.339-.485.554a.19.19,0,0,1-.075.068,1.252,1.252,0,0,1-.146.257c-.18.235-.5.024-.73.077a.2.2,0,0,1-.1-.38" transform="translate(-143.752 -158.666)" fill="#db896e"/>
            <path id="Trazado_834753" data-name="Trazado 834753" d="M59.01,540.554c0,5.4-13.208,9.786-29.5,9.786S0,545.958,0,540.554s13.21-9.787,29.506-9.787,29.5,4.382,29.5,9.787" transform="translate(0 -235.483)" fill="#98a7d3"/>
            <path id="Trazado_834754" data-name="Trazado 834754" d="M55.8,338c-.957,2.254-4.574.829-6.484.348a16.43,16.43,0,0,1-5.378-2.4c-4.2-2.929-6.008-14.7,1.867-17.689,5.707-2.167,12.108,2.374,10.849,8.593a5.408,5.408,0,0,0,1.929,4.221s.458.719-1.583,1.4a1.539,1.539,0,0,0-.332.976S56.06,336.763,55.8,338" transform="translate(-17.901 -140.956)" fill="#f5ae80"/>
            <path id="Trazado_834755" data-name="Trazado 834755" d="M58.047,383.088,63.634,399.5s.756,3.049,2.508,3.364l16.7,7.323-.485-2.791L68.78,398.312l-4.117-16.928s-.584-5.162-4.44-3.987c0,0-3.777.714-2.175,5.691" transform="translate(-25.578 -167.36)" fill="#f5ae80"/>
            <path id="Trazado_834756" data-name="Trazado 834756" d="M106.379,433.541c.163-.345,1.186-.047,1.54-1.2a9.585,9.585,0,0,0-2.228-.571c-.477-.009-.582.206-.888.578-.246.3-.4.689-.667.979s-1.4.279-1.849.367l-.13.51a23.421,23.421,0,0,0,3.423,1.224Z" transform="translate(-45.324 -191.561)" fill="#f7ae80"/>
            <path id="Trazado_834757" data-name="Trazado 834757" d="M107.028,430.005a15.635,15.635,0,0,0-2.411-.046l-1.5.686-1.059.133c.139,1.1.187,2.1.187,2.1,1.446.011,1.792.05,1.792.05s.761-.014,1.375-1.366l.361-.561s1.312.026,1.258-.99" transform="translate(-45.278 -190.741)" fill="#f7ae80"/>
            <path id="Trazado_834758" data-name="Trazado 834758" d="M107.315,435.619a.324.324,0,0,1-.236-.5c.1-.44.46-.33.46-.33l-.192-.048c-.181-.174.019-.49.019-.49a.4.4,0,0,1,.535-.222l-.353-.115c-.189-.139-.021-.49-.021-.49.2-.46.554-.29.554-.29l.156.039s-.05-1.047,1.247-.7l.594.152s.145.531-.578.906a.734.734,0,0,1-.449.886.759.759,0,0,1-.448.735s-.012.6-.409.635Z" transform="translate(-47.483 -191.839)" fill="#f7ae80"/>
            <path id="Trazado_834759" data-name="Trazado 834759" d="M27.483,383.881s-1.36,8.516-3.67,9.939c0,0-1.3.748-2.072-.131,0,0-1.8-1.1-.481-10.418Z" transform="translate(-9.219 -170.044)" fill="#f5ae80"/>
            <path id="Trazado_834760" data-name="Trazado 834760" d="M66.784,544.472l-.3,3.5c.253.715,2.609,1.021,2.609,1.021,1.2-.051,6.328-2.3,8-3.068,2.27-1.045,3.029-2.573,2.422-4.331-.285-.63-2.715-.561-7.334,1.276a17.515,17.515,0,0,1-5.4,1.6" transform="translate(-29.496 -240.126)" fill="#12151d"/>
            <path id="Trazado_834761" data-name="Trazado 834761" d="M69.092,549.064c1.2-.051,6.327-2.3,8-3.068,1.589-.732,2.435-1.7,2.594-2.821.191,1.453-.641,2.709-2.594,3.608-1.677.772-6.806,3.018-8,3.069,0,0-2.356-.307-2.609-1.021l.06-.68c.435.638,2.549.914,2.549.914" transform="translate(-29.496 -240.988)" fill="#fff"/>
            <path id="Trazado_834762" data-name="Trazado 834762" d="M57.47,498.141a5.636,5.636,0,0,0,4.368.052l3-36.839L57.932,436.1l-12.8.4c-.53,6.979-1.006-1.578,0,5.282.523,3.555,11.226,21.164,11.511,24.962,0,0-2.525,7.829-.926,19.377l1.576,11.95" transform="translate(-19.762 -193.483)" fill="#18223f"/>
            <path id="Trazado_834763" data-name="Trazado 834763" d="M14.294,539.68l-.3,3.5c.252.715,2.609,1.021,2.609,1.021,1.2-.05,6.328-2.3,8-3.069,2.27-1.046,3.028-2.573,2.422-4.33-.284-.631-2.717-.562-7.334,1.276a17.5,17.5,0,0,1-5.4,1.6" transform="translate(-6.208 -238)" fill="#12151d"/>
            <path id="Trazado_834764" data-name="Trazado 834764" d="M16.6,544.273c1.2-.052,6.328-2.3,8-3.069,1.591-.732,2.436-1.7,2.593-2.82.192,1.452-.64,2.709-2.593,3.608-1.676.773-6.806,3.019-8,3.069,0,0-2.357-.307-2.609-1.021l.06-.681c.434.638,2.549.915,2.549.915" transform="translate(-6.208 -238.862)" fill="#fff"/>
            <path id="Trazado_834765" data-name="Trazado 834765" d="M14.441,488.017a71.409,71.409,0,0,1,.525-12.232c1.764-14.465,5.685-19.932,5.685-19.932l.625-10.62.211-9.794c-1.416-6.83,1.353-14.2,1.353-14.2l10.087-2.613-.154,18.427-5.39,20.74-8.4,30.39a5.634,5.634,0,0,1-4.367-.09" transform="translate(-6.364 -185.728)" fill="#18223f"/>
            <path id="Trazado_834766" data-name="Trazado 834766" d="M19,539.459a.24.24,0,0,1,.255.288l-.176,1.54a.368.368,0,0,1-.219.4,7.5,7.5,0,0,1-5.483-.145.433.433,0,0,1-.351-.424l.041-1.458s-.111-.43.334-.412a10.835,10.835,0,0,0,5.6.207" transform="translate(-5.781 -239.247)" fill="#27557b"/>
            <path id="Trazado_834767" data-name="Trazado 834767" d="M26.6,395.214s3.108,3.058,9.414,10.544l-.819,1.725s-10.005-3.963-13.545-9.1Z" transform="translate(-9.605 -175.343)" fill="#f5ae80"/>
            <path id="Trazado_834768" data-name="Trazado 834768" d="M27.971,358.4s-4.175-.486-5.818,2.739l-2.876,12.7s.058,1.1,6.665,1.79l2.519-11.2s1.989-4.89-.49-6.028" transform="translate(-8.553 -158.996)" fill="#191e29"/>
            <path id="Trazado_834769" data-name="Trazado 834769" d="M50.735,351.434,49.578,358.9l-7.516-2.418.523-7.057Z" transform="translate(-18.662 -155.026)" fill="#f5ae80"/>
            <path id="Trazado_834770" data-name="Trazado 834770" d="M48.413,368.082c.319-2.191-.294-3.492-1.31-4.328a58.2,58.2,0,0,0-5.569-3.34s-.819.989-4.742-.121c0,0-3.562-.982-2.975-2.422,0,0-1.869.018-2.116.034-1.269.079-2.857-.142-3.867.812-.964.909-1.042,2.488-1.224,3.707,0,0-.765,4.971.607,17.105,0,0,.807,3.088-.087,4.964,0,0-3.249,11.183-4.093,15.539,0,0,7.847,7.225,26.67,3.823l-4.061-21.706Z" transform="translate(-10.221 -158.775)" fill="#191e29"/>
            <path id="Trazado_834771" data-name="Trazado 834771" d="M63.324,368.447a9.776,9.776,0,0,1,3.9,7.579l.591,7.878s-4.111,3.574-8.219,1.276l0-10.292s-.28-5.852,3.724-6.44" transform="translate(-26.441 -163.467)" fill="#191e29"/>
            <path id="Trazado_834772" data-name="Trazado 834772" d="M71.632,543.424a.241.241,0,0,1,.256.288l-.178,1.539a.366.366,0,0,1-.219.4,7.489,7.489,0,0,1-5.483-.144.431.431,0,0,1-.35-.424l.041-1.458s-.111-.43.334-.411a10.843,10.843,0,0,0,5.6.208" transform="translate(-29.13 -241.006)" fill="#27557b"/>
            <path id="Trazado_834773" data-name="Trazado 834773" d="M47.591,324.991c5.294-2.909,4.085-5.719,4.085-5.719-2.622-6.339-12.541-3.658-12.541-3.658-9.285,1.133-8.991,14.537-8.991,14.537l-.881,27.417a2.224,2.224,0,0,0,1.438,2.081s4.966.836,9.671,1.077a1.892,1.892,0,0,0,1.558-1.715l1-31.62c1.415.415,1.608,3.221,1.608,3.221l.312.065a13.789,13.789,0,0,1,2.745-5.685" transform="translate(-12.982 -139.777)" fill="#cf6744"/>
            <path id="Trazado_834774" data-name="Trazado 834774" d="M52.6,340.319a2.29,2.29,0,0,1-1.953-3.939,2.291,2.291,0,0,1,1.953,3.939" transform="translate(-22.118 -149.181)" fill="#f5ae80"/>
            <path id="Trazado_834775" data-name="Trazado 834775" d="M53.005,339.574c-.273-.071-.241-.2-.267-.433a.791.791,0,0,0-.2-.432.3.3,0,0,0-.355-.112,1.365,1.365,0,0,0-.31.022c-.328.053-.45-.07-.4-.431.053-.413.489-.6.9-.661.171-.024.246-.155.009-.238a1.021,1.021,0,0,0-1.31,1.068.635.635,0,0,0,.345.63.288.288,0,0,0,.063.011c.136.211.351.339.485.554a.2.2,0,0,0,.076.068,1.2,1.2,0,0,0,.145.258c.181.235.5.025.731.077a.2.2,0,0,0,.1-.38" transform="translate(-22.656 -149.618)" fill="#db896e"/>
          </g>
        </g>
      </g>
    </g>
    <rect id="Rectángulo_385391" data-name="Rectángulo 385391" width="295" height="326" transform="translate(180 25604)" fill="none"/>
  </g>
</svg>
