<svg id="Grupo_1083436" data-name="Grupo 1083436" xmlns="http://www.w3.org/2000/svg" xmlns:xlink="http://www.w3.org/1999/xlink" width="295" height="177.634" viewBox="0 0 295 177.634">
  <defs>
    <clipPath id="clip-path">
      <rect id="Rectángulo_385324" data-name="Rectángulo 385324" width="295" height="177.634" fill="none"/>
    </clipPath>
    <clipPath id="clip-path-5">
      <rect id="Rectángulo_385272" data-name="Rectángulo 385272" width="2.001" height="14.757" fill="none"/>
    </clipPath>
    <clipPath id="clip-path-6">
      <rect id="Rectángulo_385274" data-name="Rectángulo 385274" width="2.001" height="21.484" fill="none"/>
    </clipPath>
    <clipPath id="clip-path-7">
      <rect id="Rectángulo_385276" data-name="Rectángulo 385276" width="2.001" height="11.497" fill="none"/>
    </clipPath>
    <clipPath id="clip-path-8">
      <rect id="Rectángulo_385278" data-name="Rectángulo 385278" width="2.001" height="16.438" fill="none"/>
    </clipPath>
    <clipPath id="clip-path-9">
      <rect id="Rectángulo_385280" data-name="Rectángulo 385280" width="2.001" height="13.167" fill="none"/>
    </clipPath>
    <clipPath id="clip-path-11">
      <rect id="Rectángulo_385307" data-name="Rectángulo 385307" width="2.074" height="1.468" fill="none"/>
    </clipPath>
    <clipPath id="clip-path-12">
      <rect id="Rectángulo_385308" data-name="Rectángulo 385308" width="9.456" height="0.999" fill="none"/>
    </clipPath>
    <clipPath id="clip-path-13">
      <rect id="Rectángulo_385309" data-name="Rectángulo 385309" width="6.913" height="0.881" fill="none"/>
    </clipPath>
    <clipPath id="clip-path-14">
      <rect id="Rectángulo_385310" data-name="Rectángulo 385310" width="8.08" height="38.72" fill="none"/>
    </clipPath>
    <clipPath id="clip-path-16">
      <rect id="Rectángulo_385313" data-name="Rectángulo 385313" width="8.662" height="6.855" fill="none"/>
    </clipPath>
    <clipPath id="clip-path-17">
      <rect id="Rectángulo_385314" data-name="Rectángulo 385314" width="5.628" height="4.29" fill="none"/>
    </clipPath>
    <clipPath id="clip-path-18">
      <rect id="Rectángulo_385315" data-name="Rectángulo 385315" width="10.938" height="1.107" fill="none"/>
    </clipPath>
    <clipPath id="clip-path-19">
      <rect id="Rectángulo_385316" data-name="Rectángulo 385316" width="6.541" height="0.824" fill="none"/>
    </clipPath>
    <clipPath id="clip-path-20">
      <rect id="Rectángulo_385317" data-name="Rectángulo 385317" width="15.029" height="16.776" fill="none"/>
    </clipPath>
    <clipPath id="clip-path-22">
      <rect id="Rectángulo_385319" data-name="Rectángulo 385319" width="2.087" height="9.309" fill="none"/>
    </clipPath>
    <clipPath id="clip-path-23">
      <rect id="Rectángulo_385320" data-name="Rectángulo 385320" width="2.339" height="9.217" fill="none"/>
    </clipPath>
    <clipPath id="clip-path-24">
      <rect id="Rectángulo_385321" data-name="Rectángulo 385321" width="4.484" height="8.293" fill="none"/>
    </clipPath>
    <clipPath id="clip-path-25">
      <rect id="Rectángulo_385322" data-name="Rectángulo 385322" width="7.579" height="5.594" fill="none"/>
    </clipPath>
  </defs>
  <g id="Grupo_1083571" data-name="Grupo 1083571" clip-path="url(#clip-path)">
    <rect id="Rectángulo_385244" data-name="Rectángulo 385244" width="18.312" height="2.446" transform="translate(187.53 109.662)" fill="#e0e0e0"/>
    <g id="Grupo_1083506" data-name="Grupo 1083506">
      <g id="Grupo_1083505" data-name="Grupo 1083505" clip-path="url(#clip-path)">
        <path id="Trazado_834077" data-name="Trazado 834077" d="M436.162,252.026a5.769,5.769,0,0,1,0,2.292,5.748,5.748,0,0,1,0-2.292" transform="translate(-246.138 -142.262)" fill="#fafafa"/>
        <path id="Trazado_834078" data-name="Trazado 834078" d="M435.246,251.912a5.769,5.769,0,0,1,0,2.292,5.749,5.749,0,0,1,0-2.292" transform="translate(-245.62 -142.198)" fill="#fafafa"/>
        <path id="Trazado_834079" data-name="Trazado 834079" d="M469.229,252.026a5.77,5.77,0,0,1,0,2.292,5.77,5.77,0,0,1,0-2.292" transform="translate(-264.803 -142.262)" fill="#fafafa"/>
        <path id="Trazado_834080" data-name="Trazado 834080" d="M468.313,251.912a5.769,5.769,0,0,1,0,2.292,5.769,5.769,0,0,1,0-2.292" transform="translate(-264.286 -142.198)" fill="#fafafa"/>
        <path id="Trazado_834081" data-name="Trazado 834081" d="M450.828,254.623c0,.064-2.1.115-4.684.115s-4.684-.051-4.684-.115,2.1-.115,4.684-.115,4.684.051,4.684.115" transform="translate(-249.193 -143.663)" fill="#fafafa"/>
        <rect id="Rectángulo_385245" data-name="Rectángulo 385245" width="18.312" height="4.893" transform="translate(187.451 120.677)" fill="#e0e0e0"/>
        <path id="Trazado_834082" data-name="Trazado 834082" d="M449.007,281.134a.415.415,0,0,1-.1.057c-.067.035-.169.082-.305.139a5.3,5.3,0,0,1-1.241.355,3.235,3.235,0,0,1-2.015-.286,2.676,2.676,0,0,1-.957-.867,2.015,2.015,0,0,1-.333-1.409,1.486,1.486,0,0,1,.337-.729.963.963,0,0,1,.772-.351,1.108,1.108,0,0,1,.776.419,1.512,1.512,0,0,1,.355.834,2.22,2.22,0,0,1-.632,1.734,2.786,2.786,0,0,1-1.76.86,4.67,4.67,0,0,1-2.043-.253,3.767,3.767,0,0,1-1.785-1.2,1.965,1.965,0,0,1-.416-1.056,1.371,1.371,0,0,1,.39-1.1.891.891,0,0,1,.573-.251,1.047,1.047,0,0,1,.6.169,1.588,1.588,0,0,1,.674.987,2.3,2.3,0,0,1-.722,2.155,3.6,3.6,0,0,1-2.062.839,5.073,5.073,0,0,1-2.137-.211,2.952,2.952,0,0,1-1.626-1.263,2.165,2.165,0,0,1-.2-1.944,1.021,1.021,0,0,1,.747-.632,1.179,1.179,0,0,1,.922.223,1.528,1.528,0,0,1,.436,1.648,2.855,2.855,0,0,1-.923,1.3,4.158,4.158,0,0,1-2.511.976,4.021,4.021,0,0,1-1.989-.452,3.978,3.978,0,0,1-1.037-.769,2.937,2.937,0,0,1-.219-.254.414.414,0,0,1-.065-.095,4.661,4.661,0,0,0,1.361,1.038,3.986,3.986,0,0,0,1.944.4,4.043,4.043,0,0,0,2.411-.97,2.694,2.694,0,0,0,.858-1.227,1.349,1.349,0,0,0-.381-1.445.988.988,0,0,0-.77-.182.819.819,0,0,0-.6.52,1.965,1.965,0,0,0,.2,1.753,2.743,2.743,0,0,0,1.515,1.165,4.877,4.877,0,0,0,2.042.194,3.386,3.386,0,0,0,1.932-.784,2.081,2.081,0,0,0,.652-1.934,1.362,1.362,0,0,0-.571-.844.7.7,0,0,0-.893.054,1.146,1.146,0,0,0-.32.917,1.735,1.735,0,0,0,.369.936,3.561,3.561,0,0,0,1.675,1.127,4.472,4.472,0,0,0,1.947.251,2.581,2.581,0,0,0,1.637-.787,2.027,2.027,0,0,0,.59-1.575,1.169,1.169,0,0,0-.949-1.1.788.788,0,0,0-.636.287,1.32,1.32,0,0,0-.3.642,1.868,1.868,0,0,0,.3,1.3,2.556,2.556,0,0,0,.9.834,3.176,3.176,0,0,0,1.941.31,5.814,5.814,0,0,0,1.237-.31c.275-.1.417-.162.421-.153" transform="translate(-243.01 -156.941)" fill="#fafafa"/>
        <rect id="Rectángulo_385246" data-name="Rectángulo 385246" width="16.676" height="8.489" transform="translate(189.086 112.18)" fill="#ebebeb"/>
        <path id="Trazado_834083" data-name="Trazado 834083" d="M440.37,258.242a73.474,73.474,0,0,1,0,8.217,73.455,73.455,0,0,1,0-8.217" transform="translate(-248.513 -145.771)" fill="#e0e0e0"/>
        <path id="Trazado_834084" data-name="Trazado 834084" d="M443.272,258a71.319,71.319,0,0,1,0,8.112,71.6,71.6,0,0,1,0-8.112" transform="translate(-250.151 -145.634)" fill="#e0e0e0"/>
        <path id="Trazado_834085" data-name="Trazado 834085" d="M467.969,257.374a79.4,79.4,0,0,1,0,8.542,79.4,79.4,0,0,1,0-8.542" transform="translate(-264.092 -145.281)" fill="#e0e0e0"/>
        <path id="Trazado_834086" data-name="Trazado 834086" d="M464.558,257.637a75.362,75.362,0,0,1,0,8.322,75.342,75.342,0,0,1,0-8.322" transform="translate(-262.166 -145.43)" fill="#e0e0e0"/>
        <rect id="Rectángulo_385247" data-name="Rectángulo 385247" width="112.425" height="74.573" transform="translate(89.797 15.533)" fill="#e0e0e0"/>
        <path id="Trazado_834087" data-name="Trazado 834087" d="M0,22.971A19.05,19.05,0,1,1,19.355,41.8,19.119,19.119,0,0,1,0,22.971m28.154-.454a9.108,9.108,0,1,0-8.961,9.3,9.137,9.137,0,0,0,8.961-9.3" transform="translate(0 -1.99)" fill="#f5f5f5"/>
        <path id="Trazado_834088" data-name="Trazado 834088" d="M0,22.975A19.119,19.119,0,0,1,18.743,3.533l.16,9.986a9.15,9.15,0,0,0,.293,18.3l.159,9.986A19.112,19.112,0,0,1,0,22.975" transform="translate(0 -1.994)" fill="#e0e0e0"/>
        <path id="Trazado_834089" data-name="Trazado 834089" d="M39.11,0A21.765,21.765,0,0,1,61.4,21.684l-11.629.187c-.095-5.9-4.585-9.618-10.46-9.523Z" transform="translate(-22.077 0)" fill="#ebebeb"/>
        <path id="Trazado_834090" data-name="Trazado 834090" d="M207.88,387a2.689,2.689,0,0,1-.74-3.3,2.937,2.937,0,0,1,1.558-1.1,6.331,6.331,0,0,0,1.708-.885c.926-.788,1.182-2.1,1.8-3.148a3.935,3.935,0,0,1,3.415-2.048,4.312,4.312,0,0,1,3.526,2.859,12.78,12.78,0,0,1,.636,4.735,3.247,3.247,0,0,1-.683,2.484,3.2,3.2,0,0,1-2.317.534l-8.711-.267" transform="translate(-116.751 -212.535)" fill="#f5f5f5"/>
        <path id="Trazado_834091" data-name="Trazado 834091" d="M217.8,345.582H194.894l4.127,24.605a2.748,2.748,0,0,0,1.956,2.191c.026.008.054.014.08.022.068.017.134.04.2.053a2.831,2.831,0,0,0,.466.054l0,.023.111-.017h10.21a2.87,2.87,0,0,0,.561-.056,2.758,2.758,0,0,0,2.317-2.4L216.92,353.1l.09-.674H217l.788-6.714Zm-4.322,15.7H211.13l.237-7.141h2.724Zm.838-7.141h2.251l-.838,7.141h-2.023ZM207.6,369.194l-.143-6.2h3.385l-.206,6.2Zm-3.66-6.2h3.29l.143,6.2h-2.95Zm.254,6.2h-2.758c-.262-1.675-.6-3.852-.973-6.2h3.248Zm-.387-7.916-.555-7.141h3.774l.165,7.141Zm3.611,0-.165-7.141h3.884l-.237,7.141Zm-.2-8.854-.152-6.613h4.352l-.219,6.613Zm-.227,0h-3.867l-.514-6.613h4.229Zm-4.1,0H198.8c-.145-.913-.282-1.778-.406-2.556-.427-2.674-.587-3.679-.676-4.058h4.66Zm.133,1.712.555,7.141H200.2c-.114-.725-.229-1.458-.344-2.191-.265-1.686-.531-3.371-.78-4.95Zm-3.059,7.141h-2.21l-1.2-7.141h2.283c.349,2.207.736,4.663,1.125,7.141m.269,1.712c.337,2.147.669,4.263.972,6.2h-2.124l-1.04-6.2Zm10.63,6.2.206-6.2h2.261l-.53,6.2Zm.557-16.77.219-6.613H214.8l-.565,6.613ZM197.5,345.81c.091.478.509,3.08,1.069,6.613h-2.3l-1.109-6.613Zm17.3,23.383h-1.77l.53-6.2h1.968Zm1.968-16.77h-2.305l.565-6.613h2.516Z" transform="translate(-110.013 -195.072)" fill="#e0e0e0"/>
        <rect id="Rectángulo_385248" data-name="Rectángulo 385248" width="4.933" height="19.704" transform="translate(268.629 27.155)" fill="#e0e0e0"/>
        <rect id="Rectángulo_385249" data-name="Rectángulo 385249" width="4.933" height="15.406" transform="translate(275.884 31.453)" fill="#e0e0e0"/>
        <rect id="Rectángulo_385250" data-name="Rectángulo 385250" width="4.933" height="11.887" transform="translate(283.249 34.973)" fill="#e0e0e0"/>
        <rect id="Rectángulo_385251" data-name="Rectángulo 385251" width="4.933" height="7.059" transform="translate(290.067 39.8)" fill="#e0e0e0"/>
        <path id="Trazado_834092" data-name="Trazado 834092" d="M622.1,157.974a17.069,17.069,0,0,0-24,.812,16.823,16.823,0,0,0,.817,23.852,17.069,17.069,0,0,0,24-.812,16.823,16.823,0,0,0-.817-23.852m-5.657,17.84a8.162,8.162,0,0,1-11.474.388,8.043,8.043,0,0,1-.391-11.4,8.162,8.162,0,0,1,11.474-.388,8.044,8.044,0,0,1,.391,11.4" transform="translate(-335.041 -86.612)" fill="#f5f5f5"/>
        <path id="Trazado_834093" data-name="Trazado 834093" d="M598.109,158.787a17.07,17.07,0,0,1,24-.812l-6.048,6.436a8.162,8.162,0,0,0-11.473.388,8.044,8.044,0,0,0,.391,11.4l-6.048,6.436a16.824,16.824,0,0,1-.817-23.852" transform="translate(-335.042 -86.612)" fill="#ebebeb"/>
        <path id="Trazado_834094" data-name="Trazado 834094" d="M648.525,157.52c8.38,7.782,9.383,20.431,1.555,28.761l-8.5-7.363c3.743-3.984,4.556-9.3.549-13.022Z" transform="translate(-362.155 -88.916)" fill="#fafafa"/>
        <path id="Trazado_834095" data-name="Trazado 834095" d="M175.881,241.5H130.59a1.407,1.407,0,0,1-1.407-1.407V229.356a1.407,1.407,0,0,1,1.407-1.407h45.292a1.407,1.407,0,0,1,1.407,1.407v10.736a1.407,1.407,0,0,1-1.407,1.407" transform="translate(-72.921 -128.671)" fill="#e0e0e0"/>
        <path id="Trazado_834096" data-name="Trazado 834096" d="M145.7,242.488a2.922,2.922,0,0,1-4.121.455,2.954,2.954,0,0,1-.453-4.14,2.922,2.922,0,0,1,4.121-.455,2.954,2.954,0,0,1,.453,4.14" transform="translate(-79.299 -134.176)" fill="#f5f5f5"/>
        <path id="Trazado_834097" data-name="Trazado 834097" d="M146.724,242.164a11.888,11.888,0,0,1-1.576,1.7l-.387.375-.08.077-.076-.078a8.292,8.292,0,0,1-1.176-1.338,8.251,8.251,0,0,1,1.333,1.182h-.155l.383-.379a11.957,11.957,0,0,1,1.735-1.541" transform="translate(-80.961 -136.694)" fill="#e0e0e0"/>
        <path id="Trazado_834098" data-name="Trazado 834098" d="M191.384,240.977c0,.063-6.457.113-14.42.113s-14.421-.051-14.421-.113,6.455-.113,14.421-.113,14.42.051,14.42.113" transform="translate(-91.752 -135.962)" fill="#fafafa"/>
        <path id="Trazado_834099" data-name="Trazado 834099" d="M191.675,246.611c0,.063-6.457.113-14.42.113s-14.421-.051-14.421-.113,6.455-.113,14.421-.113,14.42.051,14.42.113" transform="translate(-91.916 -139.142)" fill="#fafafa"/>
        <path id="Trazado_834100" data-name="Trazado 834100" d="M576.717,250.859l-.881,68.378h39.341V251.792Z" transform="translate(-325.045 -141.604)" fill="#f5f5f5"/>
        <path id="Trazado_834101" data-name="Trazado 834101" d="M626.071,252.039l-.348,67.864h17.614V252.458Z" transform="translate(-353.205 -142.27)" fill="#e0e0e0"/>
        <path id="Trazado_834102" data-name="Trazado 834102" d="M580.7,253.686v13.986h18.635V254.346Z" transform="translate(-327.789 -143.199)" fill="#e0e0e0"/>
        <path id="Trazado_834103" data-name="Trazado 834103" d="M595.448,262.276v2.066h5.7v-2.253Z" transform="translate(-336.115 -147.942)" fill="#f5f5f5"/>
        <rect id="Rectángulo_385252" data-name="Rectángulo 385252" width="5.888" height="0.845" transform="translate(259.333 118.137)" fill="#f5f5f5"/>
        <path id="Trazado_834104" data-name="Trazado 834104" d="M580.7,366.214V380.2h18.635V366.875Z" transform="translate(-327.789 -206.719)" fill="#e0e0e0"/>
        <path id="Trazado_834105" data-name="Trazado 834105" d="M595.448,374.805v2.066h5.7v-2.254Z" transform="translate(-336.115 -211.462)" fill="#f5f5f5"/>
        <rect id="Rectángulo_385253" data-name="Rectángulo 385253" width="5.888" height="0.845" transform="translate(259.333 167.146)" fill="#f5f5f5"/>
        <path id="Trazado_834106" data-name="Trazado 834106" d="M580.7,289.885v13.986h18.635V290.546Z" transform="translate(-327.789 -163.633)" fill="#e0e0e0"/>
        <path id="Trazado_834107" data-name="Trazado 834107" d="M595.448,298.476v2.066h5.7v-2.254Z" transform="translate(-336.115 -168.376)" fill="#f5f5f5"/>
        <rect id="Rectángulo_385254" data-name="Rectángulo 385254" width="5.888" height="0.845" transform="translate(259.333 133.903)" fill="#f5f5f5"/>
        <rect id="Rectángulo_385255" data-name="Rectángulo 385255" width="18.635" height="13.986" transform="translate(252.666 142.998)" fill="#e0e0e0"/>
        <path id="Trazado_834108" data-name="Trazado 834108" d="M595.179,342.579v1.942h5.359V342.4Z" transform="translate(-335.964 -193.278)" fill="#f5f5f5"/>
        <rect id="Rectángulo_385256" data-name="Rectángulo 385256" width="5.535" height="0.794" transform="translate(259.216 152.876)" fill="#f5f5f5"/>
      </g>
    </g>
    <g id="Grupo_1083508" data-name="Grupo 1083508">
      <g id="Grupo_1083507" data-name="Grupo 1083507" clip-path="url(#clip-path)">
        <path id="Trazado_834109" data-name="Trazado 834109" d="M296.133,406.353c0,.063-64.5.113-144.054.113-79.578,0-144.068-.051-144.068-.113s64.49-.113,144.068-.113c79.551,0,144.054.051,144.054.113" transform="translate(-4.521 -229.312)" fill="#263238"/>
      </g>
    </g>
    <rect id="Rectángulo_385259" data-name="Rectángulo 385259" width="116.429" height="76.368" transform="translate(83.057 17.404)" fill="#fafafa"/>
    <g id="Grupo_1083525" data-name="Grupo 1083525">
      <g id="Grupo_1083524" data-name="Grupo 1083524" clip-path="url(#clip-path)">
        <path id="Trazado_834110" data-name="Trazado 834110" d="M306.986,116.182c0-.735-.035-29.79-.09-76.367l.09.09-116.419.023h-.009l.113-.113c0,27.158-.007,53-.009,76.367l-.1-.1,116.429.1-116.429.1h-.1v-.1c0-23.364-.006-49.209-.01-76.367V39.7h.123l116.419.023h.09v.091c-.055,46.577-.089,75.632-.09,76.367" transform="translate(-107.501 -22.41)" fill="#263238"/>
        <path id="Trazado_834111" data-name="Trazado 834111" d="M272.318,136.792l11.452.158a11.4,11.4,0,0,1-11.452,11.077h-.067Z" transform="translate(-153.679 -77.216)" fill="#455a64"/>
        <path id="Trazado_834112" data-name="Trazado 834112" d="M296.483,161.088a1.125,1.125,0,0,1-.245.02l-.7.018-2.559.03h-.032l-.021-.026-3.778-4.759-3.045-3.884.059.029-3.37-.031-.943-.021a1.787,1.787,0,0,1-.333-.023,1.824,1.824,0,0,1,.333-.023l.943-.021,3.37-.031h.036l.023.029,3.065,3.867,3.746,4.785-.053-.026,2.559.03.7.018a1.127,1.127,0,0,1,.245.02" transform="translate(-158.909 -86.006)" fill="#263238"/>
        <path id="Trazado_834113" data-name="Trazado 834113" d="M315.709,175.312c0,.048-1.659.088-3.705.088s-3.705-.039-3.705-.088,1.659-.088,3.705-.088,3.705.039,3.705.088" transform="translate(-174.027 -98.91)" fill="#263238"/>
        <path id="Trazado_834114" data-name="Trazado 834114" d="M315.709,178.463c0,.048-1.659.088-3.705.088s-3.705-.039-3.705-.088,1.659-.088,3.705-.088,3.705.039,3.705.088" transform="translate(-174.027 -100.688)" fill="#263238"/>
        <path id="Trazado_834115" data-name="Trazado 834115" d="M253.4,118.489l-.161,11.233a11.238,11.238,0,1,1,11.614-11.233Z" transform="translate(-136.574 -60.543)" fill="#d0dab2"/>
        <path id="Trazado_834116" data-name="Trazado 834116" d="M244.577,115.531a.745.745,0,0,1-.2.047l-.569.091-2.057.289-.034,0-.025-.025-2.744-2.669c-1.318-1.293-2.5-2.471-3.357-3.329l-1-1.023a3.043,3.043,0,0,1-.351-.392,2.985,2.985,0,0,1,.4.344l1.042.983c.875.836,2.075,2,3.393,3.292l2.722,2.692-.059-.02,2.065-.227.574-.052a.741.741,0,0,1,.2,0" transform="translate(-132.22 -61.258)" fill="#263238"/>
        <path id="Trazado_834117" data-name="Trazado 834117" d="M217.972,107.275c0,.048-1.659.088-3.7.088s-3.705-.039-3.705-.088,1.659-.088,3.705-.088,3.7.04,3.7.088" transform="translate(-118.857 -60.504)" fill="#263238"/>
        <path id="Trazado_834118" data-name="Trazado 834118" d="M217.972,110.426c0,.048-1.659.088-3.7.088s-3.705-.04-3.705-.088,1.659-.088,3.705-.088,3.7.039,3.7.088" transform="translate(-118.857 -62.283)" fill="#263238"/>
        <path id="Trazado_834119" data-name="Trazado 834119" d="M349.047,73.042,349,66.061a8.908,8.908,0,0,0-5.759,2.246,8.258,8.258,0,0,0-2.776,7.23,9.824,9.824,0,0,0,.163,1.014c0,.008,0,.016,0,.024h0l8.412-1.893Z" transform="translate(-192.154 -37.29)" fill="#bfd866"/>
        <path id="Trazado_834120" data-name="Trazado 834120" d="M370.063,70.928a8.281,8.281,0,0,0-6.789-4.753c-.088-.009-.177-.017-.267-.023-.057,0-.112-.01-.169-.013q-.25-.014-.507-.015h-.045l.045,6.981.011,1.641,8.414,1.836.01,0a8.312,8.312,0,0,0,.187-1.81,9.056,9.056,0,0,0-.89-3.846" transform="translate(-204.501 -37.325)" fill="#abaf9a"/>
        <path id="Trazado_834121" data-name="Trazado 834121" d="M350.371,87.858l-8.412,1.893a8.622,8.622,0,0,0,16.837-.057l-8.414-1.836" transform="translate(-193.027 -49.594)" fill="#d0dab2"/>
        <path id="Trazado_834122" data-name="Trazado 834122" d="M411.274,84.825c0,.063-4.349.113-9.713.113s-9.714-.051-9.714-.113,4.348-.113,9.714-.113,9.713.051,9.713.113" transform="translate(-221.188 -47.818)" fill="#263238"/>
        <path id="Trazado_834123" data-name="Trazado 834123" d="M411.274,79.741c0,.063-4.349.113-9.713.113s-9.714-.051-9.714-.113,4.348-.113,9.714-.113,9.713.051,9.713.113" transform="translate(-221.188 -44.948)" fill="#263238"/>
        <path id="Trazado_834124" data-name="Trazado 834124" d="M411.274,74.657c0,.063-4.349.114-9.713.114s-9.714-.051-9.714-.114,4.348-.113,9.714-.113,9.713.051,9.713.113" transform="translate(-221.188 -42.078)" fill="#263238"/>
        <path id="Trazado_834125" data-name="Trazado 834125" d="M411.274,89.555c0,.063-4.349.113-9.713.113s-9.714-.051-9.714-.113,4.348-.113,9.714-.113,9.713.051,9.713.113" transform="translate(-221.188 -50.488)" fill="#263238"/>
        <path id="Trazado_834126" data-name="Trazado 834126" d="M405.348,94.7c0,.063-2.987.113-6.671.113s-6.671-.051-6.671-.113,2.986-.113,6.671-.113,6.671.051,6.671.113" transform="translate(-221.277 -53.394)" fill="#263238"/>
        <rect id="Rectángulo_385260" data-name="Rectángulo 385260" width="2.001" height="22.346" transform="translate(150.288 57.338)" fill="#e8505b"/>
        <rect id="Rectángulo_385261" data-name="Rectángulo 385261" width="2.001" height="14.756" transform="translate(154.151 64.928)" fill="#e8505b"/>
        <rect id="Rectángulo_385262" data-name="Rectángulo 385262" width="2.001" height="19.682" transform="translate(158.014 60.116)" fill="#e8505b"/>
        <rect id="Rectángulo_385263" data-name="Rectángulo 385263" width="2.001" height="21.483" transform="translate(161.876 58.201)" fill="#e8505b"/>
        <rect id="Rectángulo_385264" data-name="Rectángulo 385264" width="2.001" height="14.302" transform="translate(165.74 65.382)" fill="#e8505b"/>
        <rect id="Rectángulo_385265" data-name="Rectángulo 385265" width="2.001" height="11.497" transform="translate(169.603 68.187)" fill="#e8505b"/>
        <rect id="Rectángulo_385266" data-name="Rectángulo 385266" width="2.001" height="20.052" transform="translate(173.465 59.632)" fill="#e8505b"/>
        <rect id="Rectángulo_385267" data-name="Rectángulo 385267" width="2.001" height="16.437" transform="translate(177.328 63.247)" fill="#e8505b"/>
        <rect id="Rectángulo_385268" data-name="Rectángulo 385268" width="2.001" height="19.326" transform="translate(181.191 60.358)" fill="#e8505b"/>
        <rect id="Rectángulo_385269" data-name="Rectángulo 385269" width="2.001" height="13.167" transform="translate(185.054 66.517)" fill="#e8505b"/>
        <rect id="Rectángulo_385270" data-name="Rectángulo 385270" width="2.001" height="15.672" transform="translate(188.917 64.012)" fill="#e8505b"/>
        <path id="Trazado_834127" data-name="Trazado 834127" d="M385.291,186.427c0,.045-9.491.082-21.2.082s-21.2-.037-21.2-.082,9.489-.082,21.2-.082,21.2.037,21.2.082" transform="translate(-193.557 -105.187)" fill="#263238"/>
        <path id="Trazado_834128" data-name="Trazado 834128" d="M347.776,190.466a13.437,13.437,0,0,1-2.97,0,13.437,13.437,0,0,1,2.97,0" transform="translate(-194.634 -107.467)" fill="#263238"/>
        <path id="Trazado_834129" data-name="Trazado 834129" d="M358.335,190.672a19.168,19.168,0,0,1-3.549,0,19.168,19.168,0,0,1,3.549,0" transform="translate(-200.268 -107.583)" fill="#263238"/>
        <path id="Trazado_834130" data-name="Trazado 834130" d="M367.981,190.672a19.168,19.168,0,0,1-3.549,0,19.168,19.168,0,0,1,3.549,0" transform="translate(-205.713 -107.583)" fill="#263238"/>
        <path id="Trazado_834131" data-name="Trazado 834131" d="M377.627,190.672a19.168,19.168,0,0,1-3.549,0,19.168,19.168,0,0,1,3.549,0" transform="translate(-211.158 -107.583)" fill="#263238"/>
        <path id="Trazado_834132" data-name="Trazado 834132" d="M387.273,190.672a19.168,19.168,0,0,1-3.549,0,19.168,19.168,0,0,1,3.549,0" transform="translate(-216.603 -107.583)" fill="#263238"/>
        <path id="Trazado_834133" data-name="Trazado 834133" d="M396.919,190.672a19.168,19.168,0,0,1-3.549,0,19.168,19.168,0,0,1,3.549,0" transform="translate(-222.047 -107.583)" fill="#263238"/>
        <path id="Trazado_834134" data-name="Trazado 834134" d="M406.565,190.672a19.168,19.168,0,0,1-3.549,0,19.168,19.168,0,0,1,3.549,0" transform="translate(-227.492 -107.583)" fill="#263238"/>
        <path id="Trazado_834135" data-name="Trazado 834135" d="M416.212,190.672a19.168,19.168,0,0,1-3.549,0,19.168,19.168,0,0,1,3.549,0" transform="translate(-232.938 -107.583)" fill="#263238"/>
        <path id="Trazado_834136" data-name="Trazado 834136" d="M425.858,190.672a19.168,19.168,0,0,1-3.549,0,19.168,19.168,0,0,1,3.549,0" transform="translate(-238.383 -107.583)" fill="#263238"/>
        <path id="Trazado_834137" data-name="Trazado 834137" d="M435.5,190.672a19.168,19.168,0,0,1-3.549,0,19.168,19.168,0,0,1,3.549,0" transform="translate(-243.828 -107.583)" fill="#263238"/>
        <g id="Grupo_1083511" data-name="Grupo 1083511" transform="translate(154.151 64.927)" opacity="0.3">
          <g id="Grupo_1083510" data-name="Grupo 1083510">
            <g id="Grupo_1083509" data-name="Grupo 1083509" clip-path="url(#clip-path-5)">
              <rect id="Rectángulo_385271" data-name="Rectángulo 385271" width="2.001" height="14.756" transform="translate(0 0)" fill="#fff"/>
            </g>
          </g>
        </g>
        <g id="Grupo_1083514" data-name="Grupo 1083514" transform="translate(161.876 58.201)" opacity="0.3">
          <g id="Grupo_1083513" data-name="Grupo 1083513">
            <g id="Grupo_1083512" data-name="Grupo 1083512" clip-path="url(#clip-path-6)">
              <rect id="Rectángulo_385273" data-name="Rectángulo 385273" width="2.001" height="21.483" transform="translate(0 0)" fill="#fff"/>
            </g>
          </g>
        </g>
        <g id="Grupo_1083517" data-name="Grupo 1083517" transform="translate(169.602 68.187)" opacity="0.3">
          <g id="Grupo_1083516" data-name="Grupo 1083516">
            <g id="Grupo_1083515" data-name="Grupo 1083515" clip-path="url(#clip-path-7)">
              <rect id="Rectángulo_385275" data-name="Rectángulo 385275" width="2.001" height="11.497" transform="translate(0)" fill="#fff"/>
            </g>
          </g>
        </g>
        <g id="Grupo_1083520" data-name="Grupo 1083520" transform="translate(177.328 63.247)" opacity="0.3">
          <g id="Grupo_1083519" data-name="Grupo 1083519">
            <g id="Grupo_1083518" data-name="Grupo 1083518" clip-path="url(#clip-path-8)">
              <rect id="Rectángulo_385277" data-name="Rectángulo 385277" width="2.001" height="16.437" transform="translate(0 0)" fill="#fff"/>
            </g>
          </g>
        </g>
        <g id="Grupo_1083523" data-name="Grupo 1083523" transform="translate(185.054 66.517)" opacity="0.3">
          <g id="Grupo_1083522" data-name="Grupo 1083522">
            <g id="Grupo_1083521" data-name="Grupo 1083521" clip-path="url(#clip-path-9)">
              <rect id="Rectángulo_385279" data-name="Rectángulo 385279" width="2.001" height="13.167" transform="translate(0 0)" fill="#fff"/>
            </g>
          </g>
        </g>
        <path id="Trazado_834138" data-name="Trazado 834138" d="M218.192,70.423a1.926,1.926,0,1,1-1.926-1.926,1.926,1.926,0,0,1,1.926,1.926" transform="translate(-120.99 -38.665)" fill="#e8505b"/>
        <path id="Trazado_834139" data-name="Trazado 834139" d="M261.618,69.284c0,.063-6.494.113-14.5.113s-14.5-.051-14.5-.113,6.492-.113,14.5-.113,14.5.051,14.5.113" transform="translate(-131.303 -39.045)" fill="#e8505b"/>
        <path id="Trazado_834140" data-name="Trazado 834140" d="M244.53,74.631a1.735,1.735,0,0,1-.449.044c-.289.014-.708.026-1.225.036-1.034.02-2.463.033-4.042.033s-3.008-.013-4.043-.033c-.517-.01-.936-.022-1.225-.036a1.733,1.733,0,0,1-.449-.044,1.733,1.733,0,0,1,.449-.044c.29-.013.708-.026,1.225-.036,1.035-.02,2.464-.033,4.043-.033s3.007.013,4.042.033c.517.01.936.023,1.225.036a1.735,1.735,0,0,1,.449.044" transform="translate(-131.577 -42.064)" fill="#e8505b"/>
        <rect id="Rectángulo_385281" data-name="Rectángulo 385281" width="60.935" height="69.544" transform="translate(19.751 24.317)" fill="#fafafa"/>
        <path id="Trazado_834141" data-name="Trazado 834141" d="M106.137,125.231s0-.113-.006-.331,0-.543-.006-.966c0-.854-.007-2.113-.012-3.753-.006-3.283-.015-8.088-.027-14.189-.012-12.193-.03-29.567-.051-50.3l.1.1L45.208,55.8H45.2l.113-.113c-.007,25.64-.013,49.549-.017,69.544l-.1-.1,44.2.049,12.358.025,3.257.011c.738,0,1.124.01,1.124.01s-.372.007-1.1.011l-3.239.011-12.335.025-44.258.049h-.1v-.1c-.005-19.995-.011-43.9-.018-69.544v-.113h.12l60.929.013h.1v.1c-.021,20.764-.038,38.16-.051,50.368-.011,6.092-.02,10.889-.027,14.167,0,1.632-.009,2.885-.012,3.734q0,.628-.006.956c0,.213-.006.319-.006.319" transform="translate(-25.451 -31.37)" fill="#263238"/>
        <path id="Trazado_834142" data-name="Trazado 834142" d="M110.734,135.334c-.02.041-.675-.338-1.96-.745a12.6,12.6,0,0,0-5.619-.417,12.275,12.275,0,0,0-3.707,1.191,17.425,17.425,0,0,0-3.644,2.621c-1.2,1.055-2.381,2.252-3.75,3.359a12.926,12.926,0,0,1-4.785,2.59,7.238,7.238,0,0,1-2.794.169,9.062,9.062,0,0,1-2.589-.8,45.188,45.188,0,0,1-4.337-2.579,13.524,13.524,0,0,0-4.079-1.829,12.113,12.113,0,0,0-3.881-.3,12.5,12.5,0,0,0-5.356,1.744c-1.149.7-1.691,1.231-1.722,1.194a2.664,2.664,0,0,1,.389-.383,9.282,9.282,0,0,1,1.247-.949,12.223,12.223,0,0,1,9.4-1.645,13.744,13.744,0,0,1,4.2,1.837,46.3,46.3,0,0,0,4.308,2.536,7.377,7.377,0,0,0,5.11.6,12.635,12.635,0,0,0,4.632-2.5c1.347-1.082,2.539-2.272,3.751-3.329a17.57,17.57,0,0,1,3.742-2.641,12.415,12.415,0,0,1,9.533-.62,10.021,10.021,0,0,1,1.439.619,2.728,2.728,0,0,1,.469.279" transform="translate(-35.286 -75.507)" fill="#e8505b"/>
        <rect id="Rectángulo_385282" data-name="Rectángulo 385282" width="5.181" height="14.011" transform="translate(36.523 69.167)" fill="#d0dab2"/>
        <rect id="Rectángulo_385283" data-name="Rectángulo 385283" width="5.181" height="14.011" transform="translate(58.505 69.167)" fill="#d0dab2"/>
        <rect id="Rectángulo_385284" data-name="Rectángulo 385284" width="5.181" height="22.239" transform="translate(65.833 60.939)" fill="#d0dab2"/>
        <rect id="Rectángulo_385285" data-name="Rectángulo 385285" width="5.181" height="4.715" transform="translate(29.819 78.767)" fill="#d0dab2"/>
        <rect id="Rectángulo_385286" data-name="Rectángulo 385286" width="5.181" height="7.684" transform="translate(43.85 75.494)" fill="#d0dab2"/>
        <rect id="Rectángulo_385287" data-name="Rectángulo 385287" width="5.181" height="9.448" transform="translate(51.178 73.73)" fill="#d0dab2"/>
        <path id="Trazado_834143" data-name="Trazado 834143" d="M88.978,194.505a9.587,9.587,0,0,1-2.8.208,9.589,9.589,0,0,1-2.8-.208,9.589,9.589,0,0,1,2.8-.208,9.587,9.587,0,0,1,2.8.208" transform="translate(-47.066 -109.676)" fill="#263238"/>
        <path id="Trazado_834144" data-name="Trazado 834144" d="M74.176,194.505a9.592,9.592,0,0,1-2.8.208,9.591,9.591,0,0,1-2.8-.208,9.591,9.591,0,0,1,2.8-.208,9.592,9.592,0,0,1,2.8.208" transform="translate(-38.711 -109.676)" fill="#263238"/>
        <path id="Trazado_834145" data-name="Trazado 834145" d="M157.195,194.505a12.2,12.2,0,0,1-3.164.208,12.2,12.2,0,0,1-3.164-.208,12.2,12.2,0,0,1,3.164-.208,12.2,12.2,0,0,1,3.164.208" transform="translate(-85.161 -109.676)" fill="#263238"/>
        <path id="Trazado_834146" data-name="Trazado 834146" d="M139.525,194.505a12.2,12.2,0,0,1-3.164.208,12.2,12.2,0,0,1-3.164-.208,12.2,12.2,0,0,1,3.164-.208,12.2,12.2,0,0,1,3.164.208" transform="translate(-75.186 -109.676)" fill="#263238"/>
        <path id="Trazado_834147" data-name="Trazado 834147" d="M122.148,194.505a9.58,9.58,0,0,1-2.8.209,9.58,9.58,0,0,1-2.8-.209,9.589,9.589,0,0,1,2.8-.208,9.589,9.589,0,0,1,2.8.208" transform="translate(-65.79 -109.676)" fill="#263238"/>
        <path id="Trazado_834148" data-name="Trazado 834148" d="M104.765,194.505a9.58,9.58,0,0,1-2.8.209,9.58,9.58,0,0,1-2.8-.209,9.589,9.589,0,0,1,2.8-.208,9.589,9.589,0,0,1,2.8.208" transform="translate(-55.977 -109.676)" fill="#263238"/>
        <rect id="Rectángulo_385288" data-name="Rectángulo 385288" width="42.337" height="17.582" transform="translate(29.697 34.456)" fill="#e0e0e0"/>
        <path id="Trazado_834149" data-name="Trazado 834149" d="M83.266,89.314a1.974,1.974,0,1,1-1.974-1.974,1.974,1.974,0,0,1,1.974,1.974" transform="translate(-44.773 -49.301)" fill="#263238"/>
        <rect id="Rectángulo_385289" data-name="Rectángulo 385289" width="13.752" height="0.763" transform="translate(40.466 38.649)" fill="#263238"/>
        <rect id="Rectángulo_385290" data-name="Rectángulo 385290" width="26.753" height="0.763" transform="translate(40.466 40.385)" fill="#fff"/>
        <path id="Trazado_834150" data-name="Trazado 834150" d="M83.266,103.246a1.974,1.974,0,1,1-1.974-1.974,1.974,1.974,0,0,1,1.974,1.974" transform="translate(-44.773 -57.165)" fill="#e8505b"/>
        <rect id="Rectángulo_385291" data-name="Rectángulo 385291" width="7.023" height="0.763" transform="translate(40.466 44.717)" fill="#e8505b"/>
        <rect id="Rectángulo_385292" data-name="Rectángulo 385292" width="26.753" height="0.763" transform="translate(40.466 46.452)" fill="#fff"/>
        <rect id="Rectángulo_385293" data-name="Rectángulo 385293" width="66.915" height="76.368" transform="translate(205.198 11.833)" fill="#fafafa"/>
        <path id="Trazado_834151" data-name="Trazado 834151" d="M537.918,103.391s0-.124-.006-.363,0-.595-.006-1.061c0-.936-.007-2.319-.012-4.121-.006-3.6-.015-8.88-.027-15.58-.012-13.39-.03-32.469-.051-55.243l.1.1-66.908.014H471l.114-.114c-.007,28.155-.013,54.411-.017,76.368l-.1-.1,48.537.049,13.569.025,3.576.011c.81,0,1.233.011,1.233.011s-.409.007-1.212.01l-3.557.011-13.547.025-48.6.049h-.1v-.1c0-21.957-.011-48.212-.017-76.368V26.91h.12l66.908.013h.1v.1c-.021,22.8-.038,41.9-.05,55.308-.011,6.69-.021,11.958-.027,15.558,0,1.793-.009,3.169-.012,4.1,0,.461,0,.811-.006,1.05s-.006.351-.006.351" transform="translate(-265.806 -15.19)" fill="#263238"/>
        <rect id="Rectángulo_385294" data-name="Rectángulo 385294" width="54.208" height="43.485" transform="translate(210.551 17.939)" fill="#e0e0e0"/>
        <rect id="Rectángulo_385295" data-name="Rectángulo 385295" width="1.779" height="0.513" transform="translate(214.339 53.693)" fill="#263238"/>
        <rect id="Rectángulo_385296" data-name="Rectángulo 385296" width="2.275" height="0.513" transform="translate(218.364 56.434)" fill="#263238"/>
        <rect id="Rectángulo_385297" data-name="Rectángulo 385297" width="2.275" height="0.513" transform="translate(226.285 56.434)" fill="#263238"/>
        <rect id="Rectángulo_385298" data-name="Rectángulo 385298" width="2.275" height="0.513" transform="translate(234.205 56.434)" fill="#263238"/>
        <rect id="Rectángulo_385299" data-name="Rectángulo 385299" width="2.275" height="0.513" transform="translate(242.125 56.434)" fill="#263238"/>
        <rect id="Rectángulo_385300" data-name="Rectángulo 385300" width="2.275" height="0.513" transform="translate(250.045 56.434)" fill="#263238"/>
        <rect id="Rectángulo_385301" data-name="Rectángulo 385301" width="2.275" height="0.513" transform="translate(257.965 56.434)" fill="#263238"/>
        <rect id="Rectángulo_385302" data-name="Rectángulo 385302" width="1.779" height="0.513" transform="translate(214.339 46.846)" fill="#263238"/>
        <rect id="Rectángulo_385303" data-name="Rectángulo 385303" width="1.779" height="0.513" transform="translate(214.339 33.959)" fill="#263238"/>
        <rect id="Rectángulo_385304" data-name="Rectángulo 385304" width="1.779" height="0.513" transform="translate(214.339 27.483)" fill="#263238"/>
        <rect id="Rectángulo_385305" data-name="Rectángulo 385305" width="1.779" height="0.513" transform="translate(214.43 40.402)" fill="#263238"/>
        <path id="Trazado_834152" data-name="Trazado 834152" d="M541.341,84.6a1.186,1.186,0,0,1-.191.012l-.56.011-2.153.021-7.917.037-26.12.033h-6.3V84.6c.015-8.731.029-16.415.038-21.93.014-2.743.026-4.947.034-6.476.008-.75.015-1.334.02-1.743,0-.191.007-.34.01-.451a.869.869,0,0,1,.01-.154.85.85,0,0,1,.01.154c0,.111.006.26.01.451,0,.409.011.993.019,1.743.008,1.53.02,3.733.034,6.476.01,5.514.023,13.2.038,21.93l-.112-.112h6.19l26.12.033,7.917.036,2.153.022.56.011a1.306,1.306,0,0,1,.191.011" transform="translate(-281.164 -30.396)" fill="#263238"/>
        <path id="Trazado_834153" data-name="Trazado 834153" d="M544.217,93.209c0,.063-9.383.113-20.954.113s-20.956-.051-20.956-.113,9.381-.113,20.956-.113,20.954.051,20.954.113" transform="translate(-283.54 -52.55)" fill="#263238"/>
        <path id="Trazado_834154" data-name="Trazado 834154" d="M544.217,78.414c0,.063-9.383.113-20.954.113s-20.956-.051-20.956-.113,9.381-.113,20.956-.113,20.954.051,20.954.113" transform="translate(-283.54 -44.199)" fill="#263238"/>
        <path id="Trazado_834155" data-name="Trazado 834155" d="M544.217,63.544c0,.063-9.383.113-20.954.113s-20.956-.051-20.956-.113,9.381-.113,20.956-.113,20.954.051,20.954.113" transform="translate(-283.54 -35.805)" fill="#263238"/>
        <path id="Trazado_834156" data-name="Trazado 834156" d="M544.217,108c0,.063-9.383.113-20.954.113s-20.956-.051-20.956-.113,9.381-.113,20.956-.113,20.954.051,20.954.113" transform="translate(-283.54 -60.902)" fill="#263238"/>
        <path id="Trazado_834157" data-name="Trazado 834157" d="M503.3,83.831V78.114l3.563-5.532,2.418,1.855,4.963-7.709,2.927,2.061,4.072-7.112,3.309,2.7,4.963-9.434,5.345,10.545,4.327-5.276,5.09-1.457v25.08Z" transform="translate(-284.099 -31.012)" fill="#455a64"/>
        <path id="Trazado_834158" data-name="Trazado 834158" d="M544.777,58.949a.361.361,0,0,1-.09.009l-.265.008-1.033.017-3.906.03.05-.025-4.18,5.475-.027.035h-.045l-10.48.02.094-.053-4.4,7.336-4.327,7.189-.085.142-.1-.133-5.673-7.809.152,0-5.187,8.062-1.45,2.227-.386.581c-.088.13-.14.193-.14.193s.036-.074.116-.209l.363-.595,1.407-2.254,5.12-8.105.072-.115.081.11,5.7,7.788-.182.008,4.32-7.193,4.412-7.331.032-.053h.061l10.48.019-.071.035,4.222-5.443.019-.025h.031l3.906.03,1.033.017.265.008a.361.361,0,0,1,.09.009" transform="translate(-284.1 -33.24)" fill="#e8505b"/>
        <path id="Trazado_834159" data-name="Trazado 834159" d="M522.469,90.714a.4.4,0,1,1-.4-.387.395.395,0,0,1,.4.387" transform="translate(-294.467 -50.987)" fill="#e8505b"/>
        <path id="Trazado_834160" data-name="Trazado 834160" d="M550.223,74.939a.4.4,0,1,1-.4-.387.395.395,0,0,1,.4.387" transform="translate(-310.133 -42.083)" fill="#e8505b"/>
        <path id="Trazado_834161" data-name="Trazado 834161" d="M571.8,71.063a.4.4,0,1,1-.4-.387.395.395,0,0,1,.4.387" transform="translate(-322.312 -39.895)" fill="#e8505b"/>
        <path id="Trazado_834162" data-name="Trazado 834162" d="M536.077,155.732c0,.063-11.439.113-25.545.113s-25.547-.051-25.547-.113,11.436-.113,25.547-.113,25.545.051,25.545.113" transform="translate(-273.761 -87.843)" fill="#263238"/>
        <path id="Trazado_834163" data-name="Trazado 834163" d="M536.077,162.074c0,.063-11.439.113-25.545.113s-25.547-.051-25.547-.113,11.436-.113,25.547-.113,25.545.051,25.545.113" transform="translate(-273.761 -91.423)" fill="#263238"/>
        <path id="Trazado_834164" data-name="Trazado 834164" d="M536.077,168.416c0,.063-11.439.113-25.545.113s-25.547-.051-25.547-.113,11.436-.113,25.547-.113,25.545.051,25.545.113" transform="translate(-273.761 -95.003)" fill="#263238"/>
        <path id="Trazado_834165" data-name="Trazado 834165" d="M536.077,174.759c0,.063-11.439.113-25.545.113s-25.547-.051-25.547-.113,11.436-.113,25.547-.113,25.545.051,25.545.113" transform="translate(-273.761 -98.583)" fill="#263238"/>
      </g>
    </g>
    <g id="Grupo_1083539" data-name="Grupo 1083539">
      <g id="Grupo_1083538" data-name="Grupo 1083538" clip-path="url(#clip-path)">
        <path id="Trazado_834166" data-name="Trazado 834166" d="M550.717,152.425c1.4-2.347,1.806-5.476,2.165-8.184.169-1.274.466-3.088-.429-3.888-.958-.857-1.047-2.174-2.148-2.837a3.39,3.39,0,0,0-3.641.03" transform="translate(-308.579 -77.334)" fill="#263238"/>
        <path id="Trazado_834167" data-name="Trazado 834167" d="M537.1,162.409h0a3.772,3.772,0,0,1-4.057-3.617c-.079-2.053-.148-4.129-.148-4.129a3.705,3.705,0,0,1-3.337-3.37c-.226-3.079-.123-10.187-.123-10.187a10.729,10.729,0,0,1,10.843.7l-.192,10.836v5.83c-.021,1.956-1.037,3.79-2.987,3.939" transform="translate(-298.84 -79.003)" fill="#ffbe9d"/>
        <path id="Trazado_834168" data-name="Trazado 834168" d="M529.279,144.188a1.578,1.578,0,0,1,2.1-.459,1.79,1.79,0,0,1,.6,2.238,2.358,2.358,0,0,1-1.51,1.142,1.182,1.182,0,0,0-.926,1.273c.088.773,1.374,1.063,1.955,1.7.9,1,2.883,1.416,4.217,1.574,1.311.155,1.153.168,1.916-.91a4.134,4.134,0,0,0,.749-2.5q.07-3.406.141-6.811a9.736,9.736,0,0,0-.155-2.444,3.28,3.28,0,0,0-1.289-2.021,10.07,10.07,0,0,0-2.551-.811,21.082,21.082,0,0,1-2.97-1.563,3.652,3.652,0,0,0-3.222-.313c-.719.361-1.2,1.078-1.9,1.476-1,.566-2.351.438-2.834,1.9a2.481,2.481,0,0,0,.017,1.566,3.618,3.618,0,0,0,4.919,1.934,4.881,4.881,0,0,0,.058,2.154c.113.341.154.86.686.87" transform="translate(-295.491 -75.657)" fill="#263238"/>
        <path id="Trazado_834169" data-name="Trazado 834169" d="M538.044,159.828c.024-.02.128.163.385.147a.716.716,0,0,0,.576-.7.769.769,0,0,0-.528-.766c-.253-.094-.435-.046-.443-.081s.169-.139.487-.073a.922.922,0,0,1,.483.277.893.893,0,0,1,.227.654.85.85,0,0,1-.8.852.462.462,0,0,1-.344-.173c-.054-.075-.054-.129-.041-.134" transform="translate(-303.706 -89.374)" fill="#eb996e"/>
        <path id="Trazado_834170" data-name="Trazado 834170" d="M545.416,139.611c-.007-.007.067-.118.258-.261a2.065,2.065,0,0,1,.935-.364,2.7,2.7,0,0,1,1.474.224,3.377,3.377,0,0,1,1.358,1.215,6.892,6.892,0,0,1,.956,3.118,8.042,8.042,0,0,1,.081,1.344,7.788,7.788,0,0,1-.24-1.324,7.443,7.443,0,0,0-.986-3.013,3.288,3.288,0,0,0-1.259-1.151,2.472,2.472,0,0,0-2.577.211" transform="translate(-307.873 -78.441)" fill="#455a64"/>
        <path id="Trazado_834171" data-name="Trazado 834171" d="M524.337,141.918c0,.007-.042.008-.117-.009a.888.888,0,0,1-.307-.138,1.119,1.119,0,0,1-.357-.4,1.024,1.024,0,0,1-.1-.713,1.167,1.167,0,0,1,.5-.719,1.673,1.673,0,0,1,.974-.191,1.343,1.343,0,0,0,.929-.235,6.7,6.7,0,0,0,.753-.811,3.839,3.839,0,0,1,1.917-1.107,4.073,4.073,0,0,1,1.807-.04,3.487,3.487,0,0,1,1.135.436,1.318,1.318,0,0,1,.352.272,5.305,5.305,0,0,0-1.516-.55,4.1,4.1,0,0,0-1.726.085,3.728,3.728,0,0,0-1.8,1.057,6.458,6.458,0,0,1-.787.836,1.269,1.269,0,0,1-.53.238,2.519,2.519,0,0,1-.535.028,1.517,1.517,0,0,0-.871.141,1.016,1.016,0,0,0-.444.6.992.992,0,0,0,.351,1.006,2.431,2.431,0,0,0,.371.217" transform="translate(-295.465 -77.599)" fill="#455a64"/>
        <path id="Trazado_834172" data-name="Trazado 834172" d="M540.8,154.866c-.007-.019.155-.076.407-.246a2.543,2.543,0,0,0,.84-.936,2.372,2.372,0,0,0-.418-2.73,4.446,4.446,0,0,0-.962-.7c-.36-.209-.726-.4-1.061-.631a3.592,3.592,0,0,1-.852-.8,3.721,3.721,0,0,1-.72-1.823,3.376,3.376,0,0,1,.1-1.316,1.977,1.977,0,0,1,.123-.337c.034-.074.056-.111.063-.109a4.572,4.572,0,0,0-.127,1.74,3.687,3.687,0,0,0,.727,1.716,3.443,3.443,0,0,0,.811.747c.322.216.683.406,1.05.619a4.534,4.534,0,0,1,1.007.744,2.5,2.5,0,0,1,.6,1.018,2.453,2.453,0,0,1-1.134,2.879,1.094,1.094,0,0,1-.453.17" transform="translate(-303.695 -81.98)" fill="#455a64"/>
        <path id="Trazado_834173" data-name="Trazado 834173" d="M547.24,150a1.387,1.387,0,0,1-.4.088,5.743,5.743,0,0,1-1.107.034,6.857,6.857,0,0,1-3.435-1.181,5.438,5.438,0,0,1-2.253-2.835,2.342,2.342,0,0,1-.046-1.116.892.892,0,0,1,.153-.379,2.721,2.721,0,0,0,.047,1.449,5.587,5.587,0,0,0,2.227,2.692,7.213,7.213,0,0,0,3.32,1.209c.914.1,1.486-.009,1.49.038" transform="translate(-304.791 -81.627)" fill="#455a64"/>
        <path id="Trazado_834174" data-name="Trazado 834174" d="M557.2,149.634a5.438,5.438,0,0,1,4.245-1.923A3.909,3.909,0,0,1,565,150.469a9.811,9.811,0,0,1-.217,3.6,3.478,3.478,0,0,0,.974,3.314,5.667,5.667,0,0,0,2.062.679,2.256,2.256,0,0,1,1.709,1.214,1.734,1.734,0,0,1-1.06,2.017,3.9,3.9,0,0,1-2.463.034,2.064,2.064,0,0,1-.913,2.468,2.728,2.728,0,0,1-2.735-.115,4.082,4.082,0,0,1-1.671-2.264,2.03,2.03,0,0,1-2.8.532,2.937,2.937,0,0,1-1.133-2.815,5.493,5.493,0,0,1,1.419-2.814,6.96,6.96,0,0,0,.991-1.262,1.607,1.607,0,0,0,.062-1.538.931.931,0,0,0-1.371-.275" transform="translate(-314.26 -83.375)" fill="#263238"/>
        <path id="Trazado_834175" data-name="Trazado 834175" d="M559.082,153.975a1.06,1.06,0,0,1-.925-.011,2.227,2.227,0,0,1-1.343-1.753,2.293,2.293,0,0,1,.147-1.25,2.381,2.381,0,0,1,.59-.836,1.512,1.512,0,0,1,.81-.451,7.213,7.213,0,0,0-.7.565,2.281,2.281,0,0,0-.625,1.936,1.966,1.966,0,0,0,2.044,1.8" transform="translate(-314.291 -84.486)" fill="#e8505b"/>
        <path id="Trazado_834176" data-name="Trazado 834176" d="M532.815,169.769a1.456,1.456,0,0,1-.7-.069,3.792,3.792,0,0,1-2.5-2.2,1.447,1.447,0,0,1-.156-.689,4.447,4.447,0,0,1,.3.622,4.349,4.349,0,0,0,2.4,2.115,4.471,4.471,0,0,1,.655.223" transform="translate(-298.863 -94.159)" fill="#eb996e"/>
        <path id="Trazado_834177" data-name="Trazado 834177" d="M560.584,165.339c0,.008-.053,0-.151-.022a1.508,1.508,0,0,1-.4-.179,2.189,2.189,0,0,1-.875-1.331,2.73,2.73,0,0,1-.038-1.119,4.5,4.5,0,0,1,.406-1.212c.388-.812,1-1.583,1.453-2.479a4.395,4.395,0,0,0,.456-1.371,2.651,2.651,0,0,0-1.71-2.854,2.835,2.835,0,0,0-1.524-.095c-.361.076-.545.178-.554.157s.04-.035.127-.084a2.174,2.174,0,0,1,.406-.159,2.731,2.731,0,0,1,3.3,1.648,2.815,2.815,0,0,1,.174,1.415,4.544,4.544,0,0,1-.473,1.444c-.469.926-1.084,1.688-1.468,2.47a3.292,3.292,0,0,0-.4,2.2,2.179,2.179,0,0,0,.769,1.294,4.04,4.04,0,0,0,.5.273" transform="translate(-314.777 -87.205)" fill="#455a64"/>
        <path id="Trazado_834178" data-name="Trazado 834178" d="M565.246,167.046a.631.631,0,0,1-.194.011,2.17,2.17,0,0,1-.55-.1,3.09,3.09,0,0,1-1.6-1.25,4.75,4.75,0,0,1-.693-2.934,29.978,29.978,0,0,1,.594-3.646,8.543,8.543,0,0,0,.13-1.875,4.841,4.841,0,0,0-.394-1.683,3.069,3.069,0,0,0-2.161-1.8,4.5,4.5,0,0,0-1.982.007c-.464.1-.71.206-.717.187a.626.626,0,0,1,.172-.09,3.793,3.793,0,0,1,.525-.183,4.335,4.335,0,0,1,2.039-.078,3.262,3.262,0,0,1,1.3.585,3.318,3.318,0,0,1,1.013,1.289,4.975,4.975,0,0,1,.426,1.756,8.533,8.533,0,0,1-.128,1.926,32.535,32.535,0,0,0-.608,3.619,4.661,4.661,0,0,0,.617,2.836,3.1,3.1,0,0,0,1.5,1.255,4.625,4.625,0,0,0,.716.171" transform="translate(-314.793 -86.66)" fill="#455a64"/>
        <path id="Trazado_834179" data-name="Trazado 834179" d="M568.688,216.772l-6.558,5.116,2.752,4.518,7.9-5.818Z" transform="translate(-317.309 -122.362)" fill="#ffbe9d"/>
        <path id="Trazado_834180" data-name="Trazado 834180" d="M516.351,171.516s.032-.547-1.4-.626a14.812,14.812,0,0,0-1.59-.053,3.651,3.651,0,0,1-.684-1.326,3.978,3.978,0,0,1,.306-1.348l1.447-.133-.392-.983-1.02.071-2.881.346-1.147,5.044-7.863,14.678a3.789,3.789,0,0,0,1.5,5.518c2.033.982,4.757-1.1,5.51-3.232l4.352-16.326,1.531-1.2,2.193-.4" transform="translate(-282.513 -94.294)" fill="#ffbe9d"/>
        <path id="Trazado_834181" data-name="Trazado 834181" d="M495.752,309.064l10.706-61.59-.015,0c.023-.091.045-.177.067-.267l0-.011h0c1.822-7.224,4.63-9.54,4.63-9.54l16.384,1.028c1.393,2.5,1.57,8.512,1.57,8.512.191.736-3.462,60.414-3.462,60.414l-5.479-.151-2.972-56.462L501.24,309.3Z" transform="translate(-279.839 -134.149)" fill="#ffbe9d"/>
        <path id="Trazado_834182" data-name="Trazado 834182" d="M490.494,402.169l.021-.557,5.636.163-.049,1.835-.348.011c-1.551.038-7.888.094-8.914-.226-1.144-.356,3.654-1.226,3.654-1.226" transform="translate(-274.709 -226.7)" fill="#e8505b"/>
        <g id="Grupo_1083528" data-name="Grupo 1083528" transform="translate(219.36 175.368)" opacity="0.6">
          <g id="Grupo_1083527" data-name="Grupo 1083527">
            <g id="Grupo_1083526" data-name="Grupo 1083526" clip-path="url(#clip-path-11)">
              <path id="Trazado_834183" data-name="Trazado 834183" d="M503.667,404.1a1.8,1.8,0,0,1,.75-1.093,2,2,0,0,1,1.323-.344l-.044,1.458Z" transform="translate(-503.667 -402.657)" fill="#fff"/>
            </g>
          </g>
        </g>
        <g id="Grupo_1083531" data-name="Grupo 1083531" transform="translate(211.937 175.971)" opacity="0.6">
          <g id="Grupo_1083530" data-name="Grupo 1083530">
            <g id="Grupo_1083529" data-name="Grupo 1083529" clip-path="url(#clip-path-12)">
              <path id="Trazado_834184" data-name="Trazado 834184" d="M488.124,404.043s-1.685.4-1.484.665,6.606.43,9.44.274l-.006-.117-7.474-.138s-.149-.663-.476-.685" transform="translate(-486.623 -404.043)" fill="#fff"/>
            </g>
          </g>
        </g>
        <path id="Trazado_834185" data-name="Trazado 834185" d="M496.184,405.611a.521.521,0,0,1-.1.007l-.277.008-1.021.014c-.862.006-2.054,0-3.368-.034s-2.506-.089-3.366-.139l-1.019-.066-.277-.023a.566.566,0,0,1-.1-.012.533.533,0,0,1,.1,0l.277.011,1.02.046c.861.038,2.05.086,3.365.12s2.5.047,3.367.052l1.021.006.278,0a.588.588,0,0,1,.1.006" transform="translate(-274.709 -228.819)" fill="#263238"/>
        <path id="Trazado_834186" data-name="Trazado 834186" d="M490.493,404.725a2.043,2.043,0,0,0-.177-.458,2.218,2.218,0,0,0-.336-.372.743.743,0,0,1,.4.341.66.66,0,0,1,.118.489" transform="translate(-276.581 -227.988)" fill="#263238"/>
        <path id="Trazado_834187" data-name="Trazado 834187" d="M494.644,403.535c-.016.009-.093-.083-.171-.2s-.128-.228-.112-.237.092.083.171.2.128.228.112.237" transform="translate(-279.053 -227.536)" fill="#263238"/>
        <path id="Trazado_834188" data-name="Trazado 834188" d="M495.629,403.23c-.013.013-.1-.044-.194-.128s-.16-.161-.147-.174.1.045.194.128.16.161.147.174" transform="translate(-279.577 -227.442)" fill="#263238"/>
        <path id="Trazado_834189" data-name="Trazado 834189" d="M496.007,402.463a1.376,1.376,0,1,1-.293-.036.707.707,0,0,1,.293.036" transform="translate(-279.653 -227.159)" fill="#263238"/>
        <path id="Trazado_834190" data-name="Trazado 834190" d="M496.155,401.711a.6.6,0,0,1-.329.08.61.61,0,0,1-.336-.051,1.972,1.972,0,0,1,.333-.013,1.943,1.943,0,0,1,.333-.017" transform="translate(-279.691 -226.753)" fill="#263238"/>
        <path id="Trazado_834191" data-name="Trazado 834191" d="M493.251,402.42a1.12,1.12,0,0,1-.361-.012,2.252,2.252,0,0,1-.382-.088,1.118,1.118,0,0,1-.217-.09.184.184,0,0,1-.086-.107.128.128,0,0,1,.059-.132.691.691,0,0,1,.812.2.578.578,0,0,1,.111.227c.013.058.011.09.007.091a.908.908,0,0,0-.155-.29.653.653,0,0,0-.3-.194.6.6,0,0,0-.431.016c-.058.038-.038.1.025.138a1.143,1.143,0,0,0,.2.086,2.628,2.628,0,0,0,.368.1c.215.041.352.045.352.056" transform="translate(-277.836 -226.881)" fill="#263238"/>
        <path id="Trazado_834192" data-name="Trazado 834192" d="M494.343,402.256a.312.312,0,0,1-.034-.234.525.525,0,0,1,.106-.242.366.366,0,0,1,.305-.163.133.133,0,0,1,.106.158.35.35,0,0,1-.066.148,1.033,1.033,0,0,1-.176.2.525.525,0,0,1-.21.13c-.006-.008.074-.058.176-.162a1.173,1.173,0,0,0,.157-.2c.052-.07.09-.2,0-.213a.327.327,0,0,0-.242.136.533.533,0,0,0-.108.215,1.162,1.162,0,0,0-.013.226" transform="translate(-279.022 -226.702)" fill="#263238"/>
        <path id="Trazado_834193" data-name="Trazado 834193" d="M505.72,402.589c0,.012-.16-.018-.415,0a1.9,1.9,0,0,0-.915.323,1.7,1.7,0,0,0-.588.728c-.092.221-.1.371-.118.37a.271.271,0,0,1,0-.105,1.271,1.271,0,0,1,.07-.28,1.62,1.62,0,0,1,.592-.763,1.821,1.821,0,0,1,.952-.317,1.566,1.566,0,0,1,.308.015.347.347,0,0,1,.11.027" transform="translate(-284.315 -227.227)" fill="#263238"/>
        <path id="Trazado_834194" data-name="Trazado 834194" d="M499.955,404.724a4.954,4.954,0,0,1-1.64-.029c0-.018.368.012.82.02s.818-.009.82.009" transform="translate(-281.286 -228.437)" fill="#263238"/>
        <path id="Trazado_834195" data-name="Trazado 834195" d="M504.388,404.829c.014.013-.032.071-.072.148s-.062.146-.082.144-.026-.083.02-.172.122-.134.133-.121" transform="translate(-284.62 -228.515)" fill="#263238"/>
        <path id="Trazado_834196" data-name="Trazado 834196" d="M505.307,403.753c.013.013-.025.066-.084.119s-.119.086-.132.074.025-.066.085-.119.118-.086.132-.074" transform="translate(-285.11 -227.907)" fill="#263238"/>
        <path id="Trazado_834197" data-name="Trazado 834197" d="M506.549,403.247c0,.017-.079.015-.162.04s-.144.064-.159.051.035-.083.138-.112.188,0,.182.021" transform="translate(-285.752 -227.604)" fill="#263238"/>
        <path id="Trazado_834198" data-name="Trazado 834198" d="M507.723,403.06c.006.017-.027.042-.074.058s-.09.015-.1,0,.027-.042.074-.058.091-.015.1,0" transform="translate(-286.5 -227.51)" fill="#263238"/>
        <path id="Trazado_834199" data-name="Trazado 834199" d="M558.656,181.286a10.8,10.8,0,0,1,4.337,1.708c5.181,3.358,13.844,10.459,13.125,13.747-.612,2.8-7.369,6.2-7.369,6.2l-4.388-5.278,2.69-1.539-6.613-4.4Z" transform="translate(-315.347 -102.331)" fill="#263238"/>
        <path id="Trazado_834200" data-name="Trazado 834200" d="M528.535,191.574l-.215.787-.762,3.64-.188,5.334c3.929,5.059,3.988,9.319,3.988,9.319l-19.847,2.318a38.719,38.719,0,0,1,1.434-8.858c1.149-1.948,1.093-7.775.878-7.988-1.24-1.229-1.54-2.13-.55-3.7,0,0-6.153,6.463-6.787,7.044-2.174,1.993-4.265,1.437-5.235.571-2.718-2.425.072-5.553.072-5.553l10.364-11.878a5.162,5.162,0,0,1,2.693-1.642c1.1-.26,2.219-.393,2.219-.393l6.92.059a11.637,11.637,0,0,1,2.061.252,4.949,4.949,0,0,1,3.022,3.746,22.386,22.386,0,0,1-.068,6.945" transform="translate(-282.272 -101.928)" fill="#263238"/>
        <path id="Trazado_834201" data-name="Trazado 834201" d="M564.117,194.909a2.77,2.77,0,0,1,.042.575c.009.371,0,.908-.037,1.57a41.677,41.677,0,0,1-.683,5.131c-.13.677-.267,1.33-.409,1.934l0-.021c-.061,1.542-.122,2.875-.175,3.822-.028.441-.052.81-.071,1.11a.2.2,0,1,1-.074,0c0-.3,0-.67.007-1.112.014-.949.047-2.283.094-3.825v-.01l0-.011c.136-.6.27-1.252.4-1.926.378-1.979.629-3.786.746-5.1.06-.657.091-1.19.109-1.559a2.8,2.8,0,0,1,.046-.574" transform="translate(-317.637 -110.021)" fill="#455a64"/>
        <path id="Trazado_834202" data-name="Trazado 834202" d="M566.09,207.158a82.651,82.651,0,0,1,7.118,4.925,82.73,82.73,0,0,1-7.118-4.925" transform="translate(-319.543 -116.934)" fill="#455a64"/>
        <path id="Trazado_834203" data-name="Trazado 834203" d="M530.538,189.3c.005-.006.04.021.1.077a2.034,2.034,0,0,1,.247.27,2.986,2.986,0,0,1,.537,1.23,4.058,4.058,0,0,1-.112,1.989,8.106,8.106,0,0,1-1.114,2.164,7.783,7.783,0,0,1-.819.963c-.288.293-.6.534-.867.781-.549.492-1.022.959-1.413,1.357s-.7.729-.913.958a2.147,2.147,0,0,1-.347.343,1.894,1.894,0,0,1,.28-.4c.194-.247.485-.6.863-1.01s.844-.9,1.389-1.4c.273-.257.575-.5.85-.783a7.817,7.817,0,0,0,.792-.938,8.306,8.306,0,0,0,1.1-2.094,4.037,4.037,0,0,0,.154-1.9,3.569,3.569,0,0,0-.727-1.605" transform="translate(-296.822 -106.855)" fill="#455a64"/>
        <path id="Trazado_834204" data-name="Trazado 834204" d="M531.326,226.129l.229-2.666h13.536l-.073,2.083Z" transform="translate(-299.92 -126.139)" fill="#455a64"/>
        <path id="Trazado_834205" data-name="Trazado 834205" d="M502.521,211.311c.025.034-.342.256-.75.784a3.608,3.608,0,0,0,.192,4.729c.45.493.834.684.811.72-.006.012-.108-.023-.277-.115a3.081,3.081,0,0,1-.65-.494,3.579,3.579,0,0,1-.2-4.942,3.08,3.08,0,0,1,.608-.545c.161-.106.259-.149.267-.137" transform="translate(-282.663 -119.278)" fill="#455a64"/>
        <path id="Trazado_834206" data-name="Trazado 834206" d="M557.264,398.077l1.535,3.571-6.87-.081-.145-3.641Z" transform="translate(-311.469 -224.619)" fill="#e8505b"/>
        <path id="Trazado_834207" data-name="Trazado 834207" d="M552,404.728a6.289,6.289,0,0,0,.962.049c.594.01,1.416.007,2.323-.007l2.319-.048a7.245,7.245,0,0,0,.961-.048,6.3,6.3,0,0,0-.963-.047c-.594-.01-1.417-.006-2.323.008l-2.318.047a7.247,7.247,0,0,0-.961.047" transform="translate(-311.591 -228.398)" fill="#263238"/>
        <path id="Trazado_834208" data-name="Trazado 834208" d="M558.506,398.094a9.651,9.651,0,0,0,.16,2.886,9.645,9.645,0,0,0-.16-2.886" transform="translate(-315.231 -224.714)" fill="#263238"/>
        <g id="Grupo_1083534" data-name="Grupo 1083534" transform="translate(240.41 176.222)" opacity="0.6">
          <g id="Grupo_1083533" data-name="Grupo 1083533">
            <g id="Grupo_1083532" data-name="Grupo 1083532" clip-path="url(#clip-path-13)">
              <path id="Trazado_834209" data-name="Trazado 834209" d="M558.911,405.5l-6.866-.23L552,404.62l6.565.056.348.748" transform="translate(-552.001 -404.62)" fill="#fff"/>
            </g>
          </g>
        </g>
        <path id="Trazado_834210" data-name="Trazado 834210" d="M524.955,234.126c5.168,16.31-1.495,36.109.1,55.114.157,1.867.915,4.1-.831,5.164a2.852,2.852,0,0,1-1.575.385,11.358,11.358,0,0,1-3.806-1.267,11.311,11.311,0,0,0-7.491-.29c-1.649.514-3.284,1.422-4.992,1.164-2.268-.343-3.738-2.584-5.825-3.535-1.955-.889-4.212-.557-6.359-.611l-.064,0a4.817,4.817,0,0,1-4.448-6.1c3.119-11.426,13.466-48.543,18.046-55.32l13.692-.583a19.924,19.924,0,0,1,3.55,5.88" transform="translate(-276.306 -128.839)" fill="#c2c9ef"/>
        <path id="Trazado_834211" data-name="Trazado 834211" d="M551.816,259.377a6.1,6.1,0,0,1-.745.936,21.446,21.446,0,0,1-2.022,2.066,13.57,13.57,0,0,1-2.385,1.641,5.242,5.242,0,0,1-1.087.5,33.854,33.854,0,0,0,3.324-2.315c.842-.733,1.536-1.478,2.052-2a6.4,6.4,0,0,1,.863-.827" transform="translate(-307.964 -146.411)" fill="#263238"/>
        <g id="Grupo_1083537" data-name="Grupo 1083537" transform="translate(229.726 119.121)" opacity="0.1">
          <g id="Grupo_1083536" data-name="Grupo 1083536">
            <g id="Grupo_1083535" data-name="Grupo 1083535" clip-path="url(#clip-path-14)">
              <path id="Trazado_834212" data-name="Trazado 834212" d="M535.548,273.51a58.337,58.337,0,0,0-2.294,34.912,3.794,3.794,0,0,1-.071,2.986c-.735,1.108-2.514,1.031-3.521.162a6.04,6.04,0,0,1-1.66-3.542c-1.88-9.731,1.525-19.509,5.2-28.712" transform="translate(-527.468 -273.51)"/>
            </g>
          </g>
        </g>
      </g>
    </g>
    <rect id="Rectángulo_385312" data-name="Rectángulo 385312" width="25.951" height="1.262" transform="translate(134.191 124.617)" fill="#263238"/>
    <path id="Trazado_834213" data-name="Trazado 834213" d="M292.57,265.387,287.7,247.145h20.263l4.408,18.242Z" transform="translate(-162.401 -139.507)" fill="#263238"/>
    <path id="Trazado_834214" data-name="Trazado 834214" d="M312.638,265.1h-18.1l-4.214-16.017h18.2Z" transform="translate(-163.88 -140.6)" fill="#f5f5f5"/>
    <path id="Trazado_834215" data-name="Trazado 834215" d="M290.626,250.233h18.2l-.306-1.151H290.323Z" transform="translate(-163.88 -140.6)" fill="#ebebeb"/>
    <g id="Grupo_1083556" data-name="Grupo 1083556">
      <g id="Grupo_1083555" data-name="Grupo 1083555" clip-path="url(#clip-path)">
        <path id="Trazado_834216" data-name="Trazado 834216" d="M295.531,250.146a.2.2,0,1,0,.2-.2.2.2,0,0,0-.2.2" transform="translate(-166.82 -141.089)" fill="#fafafa"/>
        <path id="Trazado_834217" data-name="Trazado 834217" d="M293.958,250.146a.2.2,0,1,0,.2-.2.2.2,0,0,0-.2.2" transform="translate(-165.932 -141.089)" fill="#fafafa"/>
        <path id="Trazado_834218" data-name="Trazado 834218" d="M292.387,250.146a.2.2,0,1,0,.2-.2.2.2,0,0,0-.2.2" transform="translate(-165.045 -141.089)" fill="#fafafa"/>
        <path id="Trazado_834219" data-name="Trazado 834219" d="M318.25,264.073l1.993,2.28a2.816,2.816,0,0,0,1.224-2.293,3.233,3.233,0,0,0-6.433.025Z" transform="translate(-177.829 -147.422)" fill="#e8505b"/>
        <path id="Trazado_834220" data-name="Trazado 834220" d="M317.648,268.612a4.536,4.536,0,0,1,.568.57c.356.382.865.939,1.473,1.62l.069.077-.085.064a3.45,3.45,0,0,1-3.36.33,3.291,3.291,0,0,1-1.382-1.111,2.831,2.831,0,0,1-.513-1.5l0-.1h.1c.954,0,1.743,0,2.29.008a4.887,4.887,0,0,1,.844.041,5.905,5.905,0,0,1-.877.068c-.549.026-1.325.054-2.254.078l.1-.1a2.682,2.682,0,0,0,.5,1.379,3.118,3.118,0,0,0,1.294,1.03,3.3,3.3,0,0,0,3.158-.278l-.017.142c-.577-.676-1.053-1.245-1.385-1.651a5.523,5.523,0,0,1-.512-.665" transform="translate(-177.479 -151.596)" fill="#263238"/>
        <path id="Trazado_834221" data-name="Trazado 834221" d="M318.85,263.655a.18.18,0,1,0,.18-.181.181.181,0,0,0-.18.181" transform="translate(-179.983 -148.724)" fill="#263238"/>
        <path id="Trazado_834222" data-name="Trazado 834222" d="M310.619,260.734a10.318,10.318,0,0,1,2.153-.122h.334l.032.033a8.463,8.463,0,0,1,1.246,1.394,8.514,8.514,0,0,1-1.4-1.235l.079.033-.287,0a10.3,10.3,0,0,1-2.154-.1" transform="translate(-175.337 -147.109)" fill="#263238"/>
        <path id="Trazado_834223" data-name="Trazado 834223" d="M300.328,261.8a6.719,6.719,0,0,1-.206-.841c-.122-.553-.295-1.361-.493-2.351l-.022-.109h.112l4.5-.039.112.093h0v.01l0,.014,0,.027.01.054.02.108.04.213q.04.213.08.422.078.419.154.823l.284,1.537.023.122h-.123c-1.353,0-2.491-.02-3.282-.036l-.914-.024a1.294,1.294,0,0,1-.309-.025,2.061,2.061,0,0,1,.348-.027l.934-.032c.8-.022,1.909-.047,3.222-.061l-.1.122-.3-1.534-.158-.822-.081-.422-.04-.213-.021-.108-.01-.054-.005-.027,0-.014v-.01h0l.111.092-4.5,0,.091-.11c.171.957.3,1.753.392,2.318a8.738,8.738,0,0,1,.125.908" transform="translate(-169.121 -145.893)" fill="#263238"/>
        <path id="Trazado_834224" data-name="Trazado 834224" d="M318.235,271.982a.18.18,0,1,0,.18-.181.181.181,0,0,0-.18.181" transform="translate(-179.636 -153.425)" fill="#263238"/>
        <path id="Trazado_834225" data-name="Trazado 834225" d="M311.136,272.09a11.874,11.874,0,0,1,3.272-.013,11.83,11.83,0,0,1-3.272.013" transform="translate(-175.628 -153.52)" fill="#263238"/>
        <path id="Trazado_834226" data-name="Trazado 834226" d="M300.371,272.259a3.718,3.718,0,0,1-.2-.6c-.119-.4-.289-.994-.49-1.734l-.028-.1.111,0c1.226-.022,2.858-.039,4.644-.047l.111.086h0v.007l0,.01,0,.02.01.039.02.078.04.154.078.307.153.6.287,1.141.034.133h-.136c-1.378,0-2.551-.018-3.371-.035l-.95-.026a1.254,1.254,0,0,1-.324-.028,2.126,2.126,0,0,1,.364-.03l.97-.034c.824-.023,1.972-.048,3.31-.061l-.1.133c-.1-.365-.2-.745-.3-1.138q-.077-.3-.155-.6l-.079-.307-.04-.155-.02-.078-.01-.039,0-.019,0-.01v-.007h0l.11.085c-1.787.007-3.418,0-4.644-.01l.082-.107c.172.713.3,1.3.395,1.712a5.179,5.179,0,0,1,.128.665" transform="translate(-169.148 -152.268)" fill="#263238"/>
        <path id="Trazado_834227" data-name="Trazado 834227" d="M302.082,260.866a10.535,10.535,0,0,1,3.081-.012,10.538,10.538,0,0,1-3.081.012" transform="translate(-170.518 -147.185)" fill="#263238"/>
        <path id="Trazado_834228" data-name="Trazado 834228" d="M302.169,262.024a10.663,10.663,0,0,1,3.1-.012,10.663,10.663,0,0,1-3.1.012" transform="translate(-170.567 -147.839)" fill="#263238"/>
        <path id="Trazado_834229" data-name="Trazado 834229" d="M302.38,263.141a9.916,9.916,0,0,1,2.991-.012,9.916,9.916,0,0,1-2.991.012" transform="translate(-170.686 -148.469)" fill="#263238"/>
        <path id="Trazado_834230" data-name="Trazado 834230" d="M302.291,272a9.56,9.56,0,0,1,2.937-.012,9.562,9.562,0,0,1-2.937.012" transform="translate(-170.636 -153.467)" fill="#263238"/>
        <path id="Trazado_834231" data-name="Trazado 834231" d="M302.71,273.278a6.968,6.968,0,0,1,2.5-.01,6.969,6.969,0,0,1-2.5.01" transform="translate(-170.872 -154.192)" fill="#263238"/>
        <path id="Trazado_834232" data-name="Trazado 834232" d="M237.549,288.892v2.392h1.567v48.435h3.215V291.284h17.06v48.435H262.6V291.284h74.009v48.423h3.215V291.284h1.391v-2.392Z" transform="translate(-134.09 -163.072)" fill="#263238"/>
        <path id="Trazado_834233" data-name="Trazado 834233" d="M397.586,330.217a25,25,0,0,0,4.181,0,24.875,24.875,0,0,0-4.181,0" transform="translate(-224.427 -186.349)" fill="#263238"/>
        <path id="Trazado_834234" data-name="Trazado 834234" d="M327.533,331.321c-.063,0-.113-.025-.113-.056s.051-.055.113-.055.113.025.113.055-.051.056-.113.056" transform="translate(-184.82 -186.96)" fill="#455a64"/>
        <path id="Trazado_834235" data-name="Trazado 834235" d="M351.055,208.5l-12.007-12.2-.26-1.321c-.05-.242-.1-.511-.147-.818a3.251,3.251,0,0,1,.019-1.075,4.875,4.875,0,0,1,.37-1.278c.2-.353-.121-.779-.456-.634a3.4,3.4,0,0,0-1.04,2.423c-.125,1.318-1.25-.43-1.67-1.06a12.479,12.479,0,0,0-2.1-2.539c-.425-.033-.534.428-.1,1.047s1.611,2.568,1.277,2.776l-.013,0a1.57,1.57,0,0,0-1.658.823c-.3.582-.641,1.407-.364,1.788a21.607,21.607,0,0,0,1.915,2.028l.4.346s10.387,15.051,12.651,15.54c1.408.3,23.176,2.11,23.176,2.11l1.642-6Z" transform="translate(-187.859 -107.25)" fill="#b78876"/>
        <path id="Trazado_834236" data-name="Trazado 834236" d="M332.826,203.1l1.111,1.067a1.327,1.327,0,0,0,.419.307.4.4,0,0,0,.551-.524,1.318,1.318,0,0,0-.256-.4l-1.079-1.3" transform="translate(-187.872 -114.167)" fill="#b78876"/>
        <path id="Trazado_834237" data-name="Trazado 834237" d="M333.569,202.252c.024-.02.233.186.55.536l.549.621a2.063,2.063,0,0,1,.306.415.588.588,0,0,1-.03.617.544.544,0,0,1-.608.139,1.227,1.227,0,0,1-.435-.307l-.581-.592a2.625,2.625,0,0,1-.5-.587,2.612,2.612,0,0,1,.607.471l.615.557a1.082,1.082,0,0,0,.363.247.33.33,0,0,0,.358-.07.377.377,0,0,0,.007-.381,2.025,2.025,0,0,0-.266-.376l-.512-.653a2.6,2.6,0,0,1-.427-.638" transform="translate(-187.87 -114.166)" fill="#aa6550"/>
        <path id="Trazado_834238" data-name="Trazado 834238" d="M334.636,201.314l1.111,1.067a1.327,1.327,0,0,0,.419.307.4.4,0,0,0,.551-.524,1.316,1.316,0,0,0-.256-.395l-1.079-1.3" transform="translate(-188.894 -113.161)" fill="#b78876"/>
        <path id="Trazado_834239" data-name="Trazado 834239" d="M335.379,200.469c.024-.02.233.186.55.536l.549.622a2.061,2.061,0,0,1,.306.415.588.588,0,0,1-.03.617.544.544,0,0,1-.608.139,1.231,1.231,0,0,1-.435-.306l-.581-.592a2.628,2.628,0,0,1-.5-.587,2.608,2.608,0,0,1,.607.471l.615.557a1.081,1.081,0,0,0,.363.247.33.33,0,0,0,.358-.07.376.376,0,0,0,.007-.381,2.033,2.033,0,0,0-.266-.376l-.512-.653a2.6,2.6,0,0,1-.427-.638" transform="translate(-188.891 -113.159)" fill="#aa6550"/>
        <path id="Trazado_834240" data-name="Trazado 834240" d="M336.622,199.853l1.111,1.067a1.327,1.327,0,0,0,.419.307.4.4,0,0,0,.551-.524,1.318,1.318,0,0,0-.256-.4l-1.079-1.3" transform="translate(-190.015 -112.336)" fill="#b78876"/>
        <path id="Trazado_834241" data-name="Trazado 834241" d="M337.365,199.008c.024-.02.233.186.55.536l.549.621a2.059,2.059,0,0,1,.306.415.588.588,0,0,1-.03.617.544.544,0,0,1-.608.139,1.226,1.226,0,0,1-.435-.307l-.581-.592a2.628,2.628,0,0,1-.5-.587,2.608,2.608,0,0,1,.607.471l.615.557a1.08,1.08,0,0,0,.363.247.33.33,0,0,0,.358-.07.377.377,0,0,0,.007-.381,2.054,2.054,0,0,0-.266-.376l-.512-.653a2.6,2.6,0,0,1-.427-.638" transform="translate(-190.013 -112.334)" fill="#aa6550"/>
        <path id="Trazado_834242" data-name="Trazado 834242" d="M340.653,202.837c0-.036.275-.091.677.032l-.128.109a1.908,1.908,0,0,1-.029-.763,1.946,1.946,0,0,1,.416-.928c.171-.2.316-.279.334-.257a3.974,3.974,0,0,0-.526,1.222,2.259,2.259,0,0,0-.007.688l.023.174-.152-.064c-.348-.148-.611-.168-.61-.213" transform="translate(-192.29 -113.474)" fill="#aa6550"/>
        <path id="Trazado_834243" data-name="Trazado 834243" d="M396.752,187.825l.051,16.709-6.515.311-.263-4s-3.143.477-3.8-1.887c-.42-1.51-.315-13.184-.315-13.184Z" transform="translate(-217.83 -104.861)" fill="#b78876"/>
        <path id="Trazado_834244" data-name="Trazado 834244" d="M381.846,184.02a14.19,14.19,0,0,0,2.782,2.825l1.039,2.784c.9-.706,2.114-.666,2.343.919.166,1.145-1.259,1.377-1.259,1.377a20.777,20.777,0,0,0,2.6,3.895,3.846,3.846,0,0,0,3.456,1.623h1.563s3.2-2.672,2.566-9.71-6.959-4.984-8.469-6.743c-2.46-2.864-8.231-.3-6.619,3.03" transform="translate(-215.385 -101.466)" fill="#263238"/>
        <path id="Trazado_834245" data-name="Trazado 834245" d="M397.023,197.1a2.247,2.247,0,0,1-.773-.035,4.023,4.023,0,0,1-1.867-.96,10.151,10.151,0,0,1-1.887-2.5,8.991,8.991,0,0,0-2.394-2.928,9.6,9.6,0,0,0-3.61-1.146,6.813,6.813,0,0,1-2.914-1.109,3.129,3.129,0,0,1-1.168-1.73,1.8,1.8,0,0,1-.032-.773,2.659,2.659,0,0,0,.066.764,3.132,3.132,0,0,0,1.172,1.687,6.815,6.815,0,0,0,2.891,1.078,9.577,9.577,0,0,1,3.644,1.154,8.985,8.985,0,0,1,2.415,2.96,10.243,10.243,0,0,0,1.858,2.49,4.061,4.061,0,0,0,1.831.974,3.214,3.214,0,0,0,.567.067c.131,0,.2,0,.2,0" transform="translate(-215.828 -104.949)" fill="#455a64"/>
        <path id="Trazado_834246" data-name="Trazado 834246" d="M397.5,190.171s-.117-.034-.337-.1a5.091,5.091,0,0,0-.981-.218,2.2,2.2,0,0,0-1.509.338,1.238,1.238,0,0,0-.525.792,1.1,1.1,0,0,0,.3,1,.843.843,0,0,0,.527.209,1.112,1.112,0,0,0,.58-.159,1.782,1.782,0,0,0,.788-1.006,2.493,2.493,0,0,0-2.1-3.27,4.369,4.369,0,0,0-1.619.213,11.375,11.375,0,0,1-1.676.4,6.818,6.818,0,0,1-1.777,0,5.878,5.878,0,0,1-1.714-.475,2.072,2.072,0,0,1-1.173-1.237,1.617,1.617,0,0,1,.4-1.578,1.392,1.392,0,0,1,1.53-.226,1.17,1.17,0,0,1,.567.534,1.282,1.282,0,0,1,.12.749,1.7,1.7,0,0,1-.763,1.194,2.447,2.447,0,0,1-1.287.358,3.782,3.782,0,0,1-1.22-.188,4.366,4.366,0,0,1-1.794-1.106,4.59,4.59,0,0,1-.916-1.307,4.644,4.644,0,0,1-.324-.957c-.039-.228-.054-.348-.054-.348s.028.118.072.344a4.915,4.915,0,0,0,.338.946,4.612,4.612,0,0,0,.92,1.286,4.336,4.336,0,0,0,1.777,1.081,3.741,3.741,0,0,0,1.2.179,2.382,2.382,0,0,0,1.248-.351,1.628,1.628,0,0,0,.724-1.141,1.119,1.119,0,0,0-.644-1.2,1.306,1.306,0,0,0-1.435.213,1.531,1.531,0,0,0-.373,1.492,1.986,1.986,0,0,0,1.127,1.179,5.8,5.8,0,0,0,1.686.466,6.734,6.734,0,0,0,1.754,0,11.441,11.441,0,0,0,1.665-.4,4.445,4.445,0,0,1,1.652-.213,2.574,2.574,0,0,1,2.165,3.381,1.854,1.854,0,0,1-.824,1.042,1.176,1.176,0,0,1-.617.165.906.906,0,0,1-.567-.229,1.16,1.16,0,0,1-.318-1.054,1.288,1.288,0,0,1,.552-.824,2.226,2.226,0,0,1,1.542-.331,4.792,4.792,0,0,1,.982.236c.219.074.331.119.331.119" transform="translate(-215.935 -103.743)" fill="#455a64"/>
        <path id="Trazado_834247" data-name="Trazado 834247" d="M394.574,387.476l-2.129-2.732,5.092-4.022,3.158,3.964-.3.27c-1.344,1.188-6.915,5.944-8.079,6.4-1.3.51,2.259-3.882,2.259-3.882" transform="translate(-221.291 -214.908)" fill="#e8505b"/>
        <g id="Grupo_1083542" data-name="Grupo 1083542" transform="translate(170.741 169.671)" opacity="0.4">
          <g id="Grupo_1083541" data-name="Grupo 1083541">
            <g id="Grupo_1083540" data-name="Grupo 1083540" clip-path="url(#clip-path-16)">
              <path id="Trazado_834248" data-name="Trazado 834248" d="M392.9,394.7s-1.171,1.635-.784,1.736,6.2-4.5,8.584-6.746l-.1-.107L393.866,395s-.662-.521-.968-.3" transform="translate(-392.035 -389.578)" fill="#fff"/>
            </g>
          </g>
        </g>
        <path id="Trazado_834249" data-name="Trazado 834249" d="M400.689,389.425a.575.575,0,0,1-.08.079l-.239.214-.894.771c-.759.646-1.82,1.524-3.012,2.469s-2.291,1.776-3.094,2.367l-.956.693-.263.184a.574.574,0,0,1-.095.06.6.6,0,0,1,.085-.073l.254-.2.94-.713c.794-.6,1.886-1.44,3.078-2.384s2.257-1.815,3.025-2.45l.909-.752.249-.2a.6.6,0,0,1,.09-.067" transform="translate(-221.306 -219.82)" fill="#263238"/>
        <path id="Trazado_834250" data-name="Trazado 834250" d="M394.937,401.613a1.715,1.715,0,0,0-1.118-.41,1.048,1.048,0,0,1,1.118.41" transform="translate(-222.301 -226.447)" fill="#263238"/>
        <path id="Trazado_834251" data-name="Trazado 834251" d="M397.668,397.438a.683.683,0,0,1-.315-.068c-.167-.058-.3-.122-.289-.142a.678.678,0,0,1,.315.068c.166.058.3.122.289.142" transform="translate(-224.132 -224.221)" fill="#263238"/>
        <path id="Trazado_834252" data-name="Trazado 834252" d="M398.3,396.394c0,.022-.124.032-.274.022s-.27-.035-.269-.057.124-.031.274-.022.27.034.269.056" transform="translate(-224.523 -223.721)" fill="#263238"/>
        <path id="Trazado_834253" data-name="Trazado 834253" d="M398.043,394.893c.013.017-.093.126-.239.244s-.275.2-.288.183.093-.126.239-.244.275-.2.288-.182" transform="translate(-224.387 -222.906)" fill="#263238"/>
        <path id="Trazado_834254" data-name="Trazado 834254" d="M397.583,393.954a.954.954,0,0,1-.567.522c-.011-.02.132-.117.285-.259s.263-.275.281-.263" transform="translate(-224.105 -222.377)" fill="#263238"/>
        <path id="Trazado_834255" data-name="Trazado 834255" d="M395.664,396.87a1.211,1.211,0,0,1-.329.257,2.423,2.423,0,0,1-.409.2,1.183,1.183,0,0,1-.264.075.224.224,0,0,1-.162-.037.163.163,0,0,1-.054-.17.765.765,0,0,1,.88-.411.748.748,0,0,1,.28.134c.057.046.081.078.078.082a1.179,1.179,0,0,0-.369-.161.751.751,0,0,0-.423.039.646.646,0,0,0-.369.335c-.022.079.047.125.132.113a1.273,1.273,0,0,0,.246-.067,2.867,2.867,0,0,0,.406-.179c.223-.12.348-.218.356-.208" transform="translate(-222.652 -223.96)" fill="#263238"/>
        <path id="Trazado_834256" data-name="Trazado 834256" d="M396.673,396.028c0,.007-.116-.038-.217-.2a.686.686,0,0,1-.1-.31.419.419,0,0,1,.141-.382.166.166,0,0,1,.22.071.45.45,0,0,1,.06.19,1.255,1.255,0,0,1,0,.32.6.6,0,0,1-.083.28c-.012,0,.019-.11.027-.285a1.468,1.468,0,0,0-.018-.3c-.01-.1-.078-.253-.171-.2s-.107.2-.106.309a.691.691,0,0,0,.076.286,1.476,1.476,0,0,0,.169.225" transform="translate(-223.733 -223.035)" fill="#263238"/>
        <path id="Trazado_834257" data-name="Trazado 834257" d="M407.755,386.416c.008.012-.157.1-.365.311a2.033,2.033,0,0,0-.493,2.117c.095.28.2.432.191.44a.382.382,0,0,1-.081-.1,1.7,1.7,0,0,1-.162-.318,1.971,1.971,0,0,1,.507-2.175,1.68,1.68,0,0,1,.285-.214.38.38,0,0,1,.118-.056" transform="translate(-229.578 -218.122)" fill="#263238"/>
        <path id="Trazado_834258" data-name="Trazado 834258" d="M404.052,382.511a22.666,22.666,0,0,1,1.681,2.071,22.605,22.605,0,0,1-1.681-2.071" transform="translate(-228.077 -215.917)" fill="#263238"/>
        <path id="Trazado_834259" data-name="Trazado 834259" d="M403.326,393.1a5.344,5.344,0,0,1-1.477,1.19c-.012-.019.336-.262.743-.59s.718-.616.734-.6" transform="translate(-226.834 -221.896)" fill="#263238"/>
        <path id="Trazado_834260" data-name="Trazado 834260" d="M407.484,391.289c.022,0,.028.092.055.2s.061.185.043.2-.09-.06-.119-.179,0-.218.021-.214" transform="translate(-229.995 -220.873)" fill="#263238"/>
        <path id="Trazado_834261" data-name="Trazado 834261" d="M407.461,389.533c.022,0,.031.081.02.176s-.036.17-.058.168-.03-.081-.02-.176.037-.17.058-.168" transform="translate(-229.966 -219.881)" fill="#263238"/>
        <path id="Trazado_834262" data-name="Trazado 834262" d="M408.093,388.057c.01.02-.058.073-.112.159s-.076.168-.1.167-.035-.1.033-.21.171-.136.178-.116" transform="translate(-230.23 -219.045)" fill="#263238"/>
        <path id="Trazado_834263" data-name="Trazado 834263" d="M408.935,387.135c.019.011.01.06-.019.11s-.068.081-.087.07-.01-.061.019-.11.068-.081.087-.07" transform="translate(-230.768 -218.527)" fill="#263238"/>
        <g id="Grupo_1083545" data-name="Grupo 1083545" transform="translate(172.435 167.809)" opacity="0.3">
          <g id="Grupo_1083544" data-name="Grupo 1083544">
            <g id="Grupo_1083543" data-name="Grupo 1083543" clip-path="url(#clip-path-17)">
              <path id="Trazado_834264" data-name="Trazado 834264" d="M401.552,385.657l-5.152,3.936-.476-.619,5.414-3.671Z" transform="translate(-395.924 -385.303)"/>
            </g>
          </g>
        </g>
        <path id="Trazado_834265" data-name="Trazado 834265" d="M338.422,398.008l.01-3.464,6.489-.024.04,5.068-.4.027c-1.79.106-9.11.413-10.308.054-1.336-.4,4.172-1.662,4.172-1.662" transform="translate(-188.558 -222.697)" fill="#e8505b"/>
        <g id="Grupo_1083548" data-name="Grupo 1083548" transform="translate(145.465 176.024)" opacity="0.4">
          <g id="Grupo_1083547" data-name="Grupo 1083547">
            <g id="Grupo_1083546" data-name="Grupo 1083546" clip-path="url(#clip-path-18)">
              <path id="Trazado_834266" data-name="Trazado 834266" d="M335.707,404.164s-1.93.564-1.688.882,7.651.286,10.917-.014l-.011-.145-8.641.11s-.2-.819-.577-.833" transform="translate(-333.998 -404.164)" fill="#fff"/>
            </g>
          </g>
        </g>
        <path id="Trazado_834267" data-name="Trazado 834267" d="M345.051,405.809a.616.616,0,0,1-.111.013l-.321.021-1.179.056c-1,.04-2.373.077-3.894.085s-2.9-.016-3.895-.046l-1.179-.044-.321-.017a.611.611,0,0,1-.111-.011.634.634,0,0,1,.112,0l.321,0,1.18.019c1,.016,2.373.03,3.893.023s2.9-.036,3.892-.062l1.18-.031.321-.006a.635.635,0,0,1,.112,0" transform="translate(-188.557 -229.067)" fill="#263238"/>
        <path id="Trazado_834268" data-name="Trazado 834268" d="M338.439,405a1.71,1.71,0,0,0-.627-1.012,1.048,1.048,0,0,1,.627,1.012" transform="translate(-190.686 -228.037)" fill="#263238"/>
        <path id="Trazado_834269" data-name="Trazado 834269" d="M343.187,403.361c-.018.012-.11-.1-.206-.248s-.158-.279-.139-.29.11.1.206.248.158.279.139.29" transform="translate(-193.524 -227.382)" fill="#263238"/>
        <path id="Trazado_834270" data-name="Trazado 834270" d="M344.313,402.945c-.014.016-.117-.052-.23-.152s-.191-.194-.177-.21.117.051.229.152.192.194.177.21" transform="translate(-194.126 -227.247)" fill="#263238"/>
        <path id="Trazado_834271" data-name="Trazado 834271" d="M344.721,401.962a1.483,1.483,0,1,1-.34-.034.76.76,0,0,1,.34.034" transform="translate(-194.204 -226.878)" fill="#263238"/>
        <path id="Trazado_834272" data-name="Trazado 834272" d="M344.861,401.007a.953.953,0,0,1-.768.061,2.133,2.133,0,0,1,.384-.028,2.087,2.087,0,0,1,.384-.033" transform="translate(-194.232 -226.355)" fill="#263238"/>
        <path id="Trazado_834273" data-name="Trazado 834273" d="M341.541,402.01a1.2,1.2,0,0,1-.417,0,2.423,2.423,0,0,1-.444-.1,1.228,1.228,0,0,1-.254-.1.224.224,0,0,1-.1-.129.163.163,0,0,1,.062-.167.765.765,0,0,1,.946.219.747.747,0,0,1,.138.278.231.231,0,0,1,.011.112,1.17,1.17,0,0,0-.191-.355.749.749,0,0,0-.357-.23.647.647,0,0,0-.5.036c-.066.049-.04.127.034.171a1.258,1.258,0,0,0,.235.1,2.9,2.9,0,0,0,.43.11c.25.043.409.043.409.056" transform="translate(-192.1 -226.597)" fill="#263238"/>
        <path id="Trazado_834274" data-name="Trazado 834274" d="M342.812,401.763a.41.41,0,0,1-.049-.289.684.684,0,0,1,.112-.305.418.418,0,0,1,.346-.214.166.166,0,0,1,.129.192.454.454,0,0,1-.07.186,1.255,1.255,0,0,1-.2.253.6.6,0,0,1-.238.17c-.007-.01.083-.075.2-.208a1.446,1.446,0,0,0,.173-.251c.057-.088.1-.246-.009-.265s-.21.095-.274.178a.689.689,0,0,0-.117.272,1.55,1.55,0,0,0-.006.281" transform="translate(-193.479 -226.329)" fill="#263238"/>
        <path id="Trazado_834275" data-name="Trazado 834275" d="M356.021,401.684c0,.015-.186-.017-.479.019a2.031,2.031,0,0,0-1.694,1.362c-.1.278-.107.466-.122.463a.4.4,0,0,1,0-.131,1.675,1.675,0,0,1,.069-.35,1.973,1.973,0,0,1,1.741-1.4,1.731,1.731,0,0,1,.357.008.366.366,0,0,1,.128.029" transform="translate(-199.667 -226.716)" fill="#263238"/>
        <path id="Trazado_834276" data-name="Trazado 834276" d="M357.4,395.545a22.708,22.708,0,0,1,.045,2.666,22.691,22.691,0,0,1-.045-2.666" transform="translate(-201.731 -223.275)" fill="#263238"/>
        <path id="Trazado_834277" data-name="Trazado 834277" d="M349.372,404.605a5.335,5.335,0,0,1-1.9.026c0-.023.426,0,.949-.007s.945-.042.948-.02" transform="translate(-196.141 -228.385)" fill="#263238"/>
        <path id="Trazado_834278" data-name="Trazado 834278" d="M354.512,404.595c.016.016-.034.09-.077.187s-.066.184-.088.182-.034-.1.017-.215.135-.171.149-.155" transform="translate(-200.009 -228.382)" fill="#263238"/>
        <path id="Trazado_834279" data-name="Trazado 834279" d="M355.526,403.22c.016.015-.026.083-.093.151s-.134.112-.149.1.026-.083.093-.151.133-.111.149-.1" transform="translate(-200.547 -227.606)" fill="#263238"/>
        <path id="Trazado_834280" data-name="Trazado 834280" d="M356.937,402.544c0,.022-.091.022-.186.056s-.163.085-.181.07.037-.1.155-.145.218,0,.211.019" transform="translate(-201.273 -227.205)" fill="#263238"/>
        <path id="Trazado_834281" data-name="Trazado 834281" d="M358.282,402.272c.008.02-.029.054-.083.075s-.1.022-.112,0,.029-.054.083-.074.1-.022.112,0" transform="translate(-202.131 -227.064)" fill="#263238"/>
        <g id="Grupo_1083551" data-name="Grupo 1083551" transform="translate(149.862 173.889)" opacity="0.3">
          <g id="Grupo_1083550" data-name="Grupo 1083550">
            <g id="Grupo_1083549" data-name="Grupo 1083549" clip-path="url(#clip-path-19)">
              <path id="Trazado_834282" data-name="Trazado 834282" d="M350.635,400.08l-6.541.007.007-.781,6.511-.043Z" transform="translate(-344.094 -399.263)"/>
            </g>
          </g>
        </g>
        <path id="Trazado_834283" data-name="Trazado 834283" d="M352.589,261.528l-2.6,7.824c-.7,2.113-2.548,2.475-4.774,2.475H330.763v-3.242l13.2-1.885,3.147-8.039Z" transform="translate(-186.707 -146.007)" fill="#b78876"/>
        <path id="Trazado_834284" data-name="Trazado 834284" d="M317.754,276.221l-1.147-.543s-1.236-2.389-1.52-2.294-.366.8.13,1.9l-1.524-.435s-3.3,1.526-3.157,1.732a.763.763,0,0,0,1.136.324c.719-.368,1.662-.8,1.662-.8l1.78.508-2.3.291-2.158,1.964a1.056,1.056,0,0,0,1.32-.033l5.606,1.2,1.756.1v-3.242Z" transform="translate(-175.287 -154.317)" fill="#b78876"/>
        <path id="Trazado_834285" data-name="Trazado 834285" d="M313.856,284.409c.024.016.128-.15.33-.37a1.7,1.7,0,0,1,.408-.315,1.669,1.669,0,0,1,.605-.158,8.385,8.385,0,0,0,1.682-.287,8.35,8.35,0,0,0-1.7.113,1.654,1.654,0,0,0-.665.192,1.56,1.56,0,0,0-.421.375,1,1,0,0,0-.236.451" transform="translate(-177.162 -159.893)" fill="#aa6550"/>
        <path id="Trazado_834286" data-name="Trazado 834286" d="M315.846,285.858c.021,0,.039-.116.2-.149s.416-.06.681-.087a5.541,5.541,0,0,0,.986-.1,1.976,1.976,0,0,0-1-.074,3.007,3.007,0,0,0-.706.145.284.284,0,0,0-.17.176c-.014.06.006.092.016.09" transform="translate(-178.275 -161.117)" fill="#aa6550"/>
        <path id="Trazado_834287" data-name="Trazado 834287" d="M373.106,240.774l-1.111,3.766-7.055-3.194c.253-.788,1.42-4.3,3.654-9.872a9.58,9.58,0,0,1,7.313-5.894,41.823,41.823,0,0,1,6.755-.662c3.956.044,9.78,2.516,10.562,6.394.6,2.96.021,8.186.021,14.536l-.516,12.132-20.272.688Z" transform="translate(-205.999 -126.959)" fill="#c2c9ef"/>
        <g id="Grupo_1083554" data-name="Grupo 1083554" transform="translate(172.195 115.854)" opacity="0.3">
          <g id="Grupo_1083553" data-name="Grupo 1083553">
            <g id="Grupo_1083552" data-name="Grupo 1083552" clip-path="url(#clip-path-20)">
              <path id="Trazado_834288" data-name="Trazado 834288" d="M410.4,266.236c-2.467.5-5,0-7.513-.153-1.524-.09-3.215-.255-4.42.682a5.4,5.4,0,0,0-1.616,3.17,60.467,60.467,0,0,0-1.479,12.112l12.2.74Z" transform="translate(-395.373 -266.011)"/>
            </g>
          </g>
        </g>
        <path id="Trazado_834289" data-name="Trazado 834289" d="M382.5,231.088c0,.018.2.03.539.162a2.813,2.813,0,0,1,1.168.945,3.938,3.938,0,0,1,.7,2.112,13.293,13.293,0,0,1-.213,2.779,46.533,46.533,0,0,1-1.133,4.969c-.167.608-.3,1.111-.41,1.493a3.5,3.5,0,0,0-.13.554,3.585,3.585,0,0,0,.2-.534c.114-.347.275-.851.463-1.478a38.614,38.614,0,0,0,1.187-4.976,12.846,12.846,0,0,0,.2-2.818,3.984,3.984,0,0,0-.76-2.175,2.757,2.757,0,0,0-1.243-.935,2.037,2.037,0,0,0-.415-.095.463.463,0,0,0-.148,0" transform="translate(-215.909 -130.441)" fill="#263238"/>
        <path id="Trazado_834290" data-name="Trazado 834290" d="M365.446,260.432a6.833,6.833,0,0,0,.994.57c.626.328,1.5.76,2.487,1.2s1.889.815,2.549,1.067a6.817,6.817,0,0,0,1.085.368,8.021,8.021,0,0,0-1.038-.483c-.648-.281-1.542-.669-2.524-1.112s-1.865-.857-2.5-1.156a8.13,8.13,0,0,0-1.049-.459" transform="translate(-206.285 -147.006)" fill="#263238"/>
        <path id="Trazado_834291" data-name="Trazado 834291" d="M353.143,304.529a7.225,7.225,0,0,0-2.95,9.676L367.838,344.5l8.14-4.917-13.7-27.351,9.93-6.482" transform="translate(-197.214 -171.899)" fill="#263238"/>
        <path id="Trazado_834292" data-name="Trazado 834292" d="M366.927,301.079l-24.221.858a7.224,7.224,0,0,0-6.968,7.333l1.006,34.594,10.186-.023-.34-32.708,20.337-.535Z" transform="translate(-189.515 -169.951)" fill="#263238"/>
        <path id="Trazado_834293" data-name="Trazado 834293" d="M360.631,326.878a1.724,1.724,0,0,1,.029.32c.01.232.023.537.04.918.03.8.061,1.952.091,3.377.06,2.853.1,6.794.123,11.146s.043,8.272.057,11.147c.008,1.407.014,2.555.019,3.378,0,.381,0,.686,0,.919a1.68,1.68,0,0,1-.017.321,1.728,1.728,0,0,1-.029-.32c-.01-.232-.023-.537-.04-.918-.03-.8-.061-1.951-.091-3.378-.061-2.852-.1-6.794-.123-11.148s-.043-8.27-.057-11.145c-.008-1.407-.014-2.555-.019-3.378,0-.381,0-.686,0-.919a1.722,1.722,0,0,1,.017-.321" transform="translate(-203.556 -184.514)" fill="#455a64"/>
        <path id="Trazado_834294" data-name="Trazado 834294" d="M391.254,250.672h-7.328a5.341,5.341,0,0,0-5.341,5.341v25.565H363.945a3.7,3.7,0,0,0-3.7,3.7h33.428c0-.007,0-.014,0-.021a3.051,3.051,0,0,0,2.922-3.046v-26.2a5.341,5.341,0,0,0-5.341-5.341" transform="translate(-203.35 -141.498)" fill="#455a64"/>
        <path id="Trazado_834295" data-name="Trazado 834295" d="M407.1,252.609c.063,0,.114,7.513.114,16.779s-.051,16.781-.114,16.781-.113-7.512-.113-16.781.051-16.779.113-16.779" transform="translate(-229.733 -142.591)" fill="#263238"/>
        <path id="Trazado_834296" data-name="Trazado 834296" d="M390.317,356.982v-26.82h-2.382v26.82c-1.455,2.867-4.874,4.807-9.039,6.4h21.239c-4.313-1.753-8.206-3.1-9.817-6.4" transform="translate(-213.877 -186.368)" fill="#455a64"/>
      </g>
    </g>
    <g id="Grupo_1083570" data-name="Grupo 1083570">
      <g id="Grupo_1083569" data-name="Grupo 1083569" clip-path="url(#clip-path)">
        <path id="Trazado_834297" data-name="Trazado 834297" d="M88.822,301.29a.949.949,0,0,1,.066-.159l.213-.455a11.366,11.366,0,0,0,.627-1.821,16.079,16.079,0,0,0-.053-7.035A37.748,37.748,0,0,0,88.37,287.1c-.552-1.677-1.194-3.456-1.717-5.38a20.809,20.809,0,0,1-.848-6.185,24.192,24.192,0,0,1,1.439-6.545,31.818,31.818,0,0,0,1.666-6.446,9.822,9.822,0,0,0-1.182-5.953c-.943-1.737-2.129-3.222-3.017-4.761a16.545,16.545,0,0,1-1.813-4.578,17.045,17.045,0,0,1-.115-7.091,13.18,13.18,0,0,1,.74-2.5,1.048,1.048,0,0,1-.044.167c-.037.118-.087.277-.149.48a17.933,17.933,0,0,0-.46,1.875,17.263,17.263,0,0,0,.183,7.039,16.5,16.5,0,0,0,1.819,4.519c.886,1.521,2.077,3,3.039,4.758a10.027,10.027,0,0,1,1.219,6.074,31.831,31.831,0,0,1-1.672,6.494,24.168,24.168,0,0,0-1.433,6.484,20.712,20.712,0,0,0,.828,6.122c.515,1.914,1.149,3.694,1.695,5.375a37.366,37.366,0,0,1,1.283,4.753,15.9,15.9,0,0,1-.018,7.087,10.51,10.51,0,0,1-.671,1.819l-.234.447a1.051,1.051,0,0,1-.086.148" transform="translate(-46.55 -134.149)" fill="#263238"/>
        <path id="Trazado_834298" data-name="Trazado 834298" d="M89.742,261.753s-1.8-5.764,1.431-9.14a.2.2,0,0,1,.342.1c.173.952.388,3.852-1.773,9.04" transform="translate(-50.374 -142.558)" fill="#e8505b"/>
        <path id="Trazado_834299" data-name="Trazado 834299" d="M91.387,257.107a5.306,5.306,0,0,1-.122,1.064l-.411,2.542c-.151.95-.287,1.81-.4,2.543a5.77,5.77,0,0,1-.191,1.052,4.474,4.474,0,0,1,.032-1.072c.06-.659.176-1.564.339-2.559s.336-1.89.477-2.535a4.809,4.809,0,0,1,.278-1.034" transform="translate(-50.939 -145.13)" fill="#263238"/>
        <path id="Trazado_834300" data-name="Trazado 834300" d="M95.253,295.28s1.1-5.938,5.539-7.409a.2.2,0,0,1,.257.248c-.293.922-1.458,3.586-5.8,7.161" transform="translate(-53.768 -162.49)" fill="#e8505b"/>
        <path id="Trazado_834301" data-name="Trazado 834301" d="M99.538,291.4a5.287,5.287,0,0,1-.6.884l-1.553,2.054L95.835,296.4a5.784,5.784,0,0,1-.661.841,4.471,4.471,0,0,1,.53-.932c.361-.554.887-1.3,1.5-2.1s1.181-1.514,1.607-2.018a4.864,4.864,0,0,1,.73-.784" transform="translate(-53.722 -164.49)" fill="#263238"/>
        <path id="Trazado_834302" data-name="Trazado 834302" d="M92.441,327.779s-.67-6,3.148-8.7a.2.2,0,0,1,.318.162c-.012.967-.354,3.855-3.466,8.536" transform="translate(-52.155 -180.091)" fill="#e8505b"/>
        <path id="Trazado_834303" data-name="Trazado 834303" d="M94.875,323.3a5.309,5.309,0,0,1-.322,1.021l-.889,2.417-.881,2.418a5.834,5.834,0,0,1-.388,1,4.444,4.444,0,0,1,.236-1.046c.184-.635.471-1.5.821-2.448s.691-1.791.952-2.4a4.8,4.8,0,0,1,.471-.962" transform="translate(-52.151 -182.497)" fill="#263238"/>
        <path id="Trazado_834304" data-name="Trazado 834304" d="M100.153,362.342s-.454-6.022,3.458-8.58a.2.2,0,0,1,.311.174c-.047.966-.491,3.839-3.769,8.406" transform="translate(-56.525 -199.67)" fill="#e8505b"/>
        <path id="Trazado_834305" data-name="Trazado 834305" d="M102.8,357.92a5.3,5.3,0,0,1-.358,1.009l-.975,2.384L100.5,363.7a5.8,5.8,0,0,1-.423.982,4.46,4.46,0,0,1,.274-1.037c.206-.628.524-1.484.908-2.417s.754-1.765,1.037-2.362a4.815,4.815,0,0,1,.5-.945" transform="translate(-56.485 -202.036)" fill="#263238"/>
        <path id="Trazado_834306" data-name="Trazado 834306" d="M77.368,252.1s-5.353-2.8-5.458-7.468a.2.2,0,0,1,.312-.173c.8.55,3,2.445,5.146,7.641" transform="translate(-40.591 -137.973)" fill="#e8505b"/>
        <path id="Trazado_834307" data-name="Trazado 834307" d="M74.459,248.589a5.319,5.319,0,0,1,.667.837l1.51,2.087,1.514,2.081a5.771,5.771,0,0,1,.61.878,4.512,4.512,0,0,1-.736-.78c-.424-.508-.983-1.23-1.572-2.048s-1.1-1.573-1.458-2.128a4.79,4.79,0,0,1-.535-.928" transform="translate(-42.029 -140.322)" fill="#263238"/>
        <path id="Trazado_834308" data-name="Trazado 834308" d="M89.992,280.959s-5.513-2.466-5.9-7.124a.2.2,0,0,1,.3-.191c.827.5,3.144,2.259,5.6,7.315" transform="translate(-47.466 -154.449)" fill="#e8505b"/>
        <path id="Trazado_834309" data-name="Trazado 834309" d="M86.86,277.644a5.3,5.3,0,0,1,.716.8l1.633,1.991,1.638,1.986a5.813,5.813,0,0,1,.662.84,4.446,4.446,0,0,1-.782-.733c-.454-.481-1.056-1.168-1.693-1.949s-1.194-1.5-1.584-2.036a4.813,4.813,0,0,1-.591-.893" transform="translate(-49.029 -156.722)" fill="#263238"/>
        <path id="Trazado_834310" data-name="Trazado 834310" d="M87.139,310.315s-3.786-4.706-2.01-9.03a.2.2,0,0,1,.355-.033c.509.823,1.77,3.443,1.655,9.063" transform="translate(-47.785 -169.996)" fill="#e8505b"/>
        <path id="Trazado_834311" data-name="Trazado 834311" d="M86.593,305.849a5.262,5.262,0,0,1,.276,1.034l.547,2.516c.207.939.395,1.79.554,2.514a5.83,5.83,0,0,1,.207,1.049,4.423,4.423,0,0,1-.362-1.009c-.185-.635-.409-1.52-.62-2.506s-.378-1.882-.483-2.534a4.845,4.845,0,0,1-.119-1.064" transform="translate(-48.874 -172.644)" fill="#263238"/>
        <path id="Trazado_834312" data-name="Trazado 834312" d="M91.474,349.852s-5.471-2.558-5.782-7.221a.2.2,0,0,1,.3-.186c.819.514,3.1,2.311,5.477,7.407" transform="translate(-48.371 -193.284)" fill="#e8505b"/>
        <path id="Trazado_834313" data-name="Trazado 834313" d="M88.4,346.48a5.315,5.315,0,0,1,.7.807l1.6,2.019,1.6,2.013a5.786,5.786,0,0,1,.648.851,4.466,4.466,0,0,1-.769-.747c-.446-.488-1.037-1.185-1.661-1.977s-1.169-1.523-1.55-2.062a4.8,4.8,0,0,1-.576-.9" transform="translate(-49.9 -195.579)" fill="#263238"/>
        <path id="Trazado_834314" data-name="Trazado 834314" d="M110.45,304.971a.444.444,0,0,1,.007.133c0,.105-.006.232-.01.386-.016.363-.038.853-.065,1.464-.071,1.287-.169,3.083-.287,5.23v.013a20.291,20.291,0,0,1-3,6.959c-1.1,1.733-2.246,3.307-3.238,4.772a33.772,33.772,0,0,0-2.428,4.013,17,17,0,0,0-1.135,2.945c-.1.361-.169.642-.21.835a1.548,1.548,0,0,1-.08.29,1.465,1.465,0,0,1,.035-.3c.027-.2.086-.481.169-.848a15.556,15.556,0,0,1,1.077-2.992,32.062,32.062,0,0,1,2.4-4.059c.985-1.475,2.128-3.053,3.219-4.776a20.572,20.572,0,0,0,3-6.876l0,.012c.151-2.145.277-3.938.367-5.225.05-.61.089-1.1.118-1.461l.038-.384a.444.444,0,0,1,.024-.131" transform="translate(-56.449 -172.148)" fill="#263238"/>
        <path id="Trazado_834315" data-name="Trazado 834315" d="M114.938,324.445s2.317-5.577-.6-9.231a.2.2,0,0,0-.35.067c-.258.932-.736,3.8.948,9.164" transform="translate(-64.195 -177.887)" fill="#e8505b"/>
        <path id="Trazado_834316" data-name="Trazado 834316" d="M115.519,319.779a4.812,4.812,0,0,1,.184,1.055c.082.655.174,1.563.246,2.568s.106,1.918.106,2.58a4.434,4.434,0,0,1-.065,1.07,5.806,5.806,0,0,1-.095-1.065c-.05-.74-.108-1.608-.172-2.568s-.128-1.829-.179-2.569a5.29,5.29,0,0,1-.025-1.07" transform="translate(-65.198 -180.507)" fill="#263238"/>
        <g id="Grupo_1083559" data-name="Grupo 1083559" transform="translate(49.53 137.25)" opacity="0.3">
          <g id="Grupo_1083558" data-name="Grupo 1083558">
            <g id="Grupo_1083557" data-name="Grupo 1083557" clip-path="url(#clip-path-22)">
              <path id="Trazado_834317" data-name="Trazado 834317" d="M114.938,324.445s2.317-5.577-.6-9.231a.2.2,0,0,0-.35.067c-.258.932-.736,3.8.948,9.164" transform="translate(-113.724 -315.137)"/>
            </g>
          </g>
        </g>
        <path id="Trazado_834318" data-name="Trazado 834318" d="M97.7,355.424s1.857-5.747-1.344-9.153a.2.2,0,0,0-.343.1c-.182.95-.426,3.847,1.688,9.057" transform="translate(-54.129 -195.425)" fill="#e8505b"/>
        <path id="Trazado_834319" data-name="Trazado 834319" d="M97.7,350.773a4.809,4.809,0,0,1,.269,1.037c.135.646.3,1.544.453,2.54s.262,1.9.315,2.563a4.463,4.463,0,0,1,.022,1.071,5.8,5.8,0,0,1-.181-1.054c-.109-.733-.237-1.594-.379-2.546l-.387-2.546a5.307,5.307,0,0,1-.111-1.064" transform="translate(-55.142 -198.002)" fill="#263238"/>
        <g id="Grupo_1083562" data-name="Grupo 1083562" transform="translate(41.764 150.782)" opacity="0.3">
          <g id="Grupo_1083561" data-name="Grupo 1083561">
            <g id="Grupo_1083560" data-name="Grupo 1083560" clip-path="url(#clip-path-23)">
              <path id="Trazado_834320" data-name="Trazado 834320" d="M97.7,355.424s1.857-5.747-1.344-9.153a.2.2,0,0,0-.343.1c-.182.95-.426,3.847,1.688,9.057" transform="translate(-95.893 -346.206)"/>
            </g>
          </g>
        </g>
        <path id="Trazado_834321" data-name="Trazado 834321" d="M123.285,310.111s4.948-3.464,4.448-8.111a.2.2,0,0,0-.332-.131c-.718.648-2.66,2.813-4.117,8.242" transform="translate(-69.591 -170.368)" fill="#e8505b"/>
        <g id="Grupo_1083565" data-name="Grupo 1083565" transform="translate(53.694 131.449)" opacity="0.3">
          <g id="Grupo_1083564" data-name="Grupo 1083564">
            <g id="Grupo_1083563" data-name="Grupo 1083563" clip-path="url(#clip-path-24)">
              <path id="Trazado_834322" data-name="Trazado 834322" d="M123.285,310.111s4.948-3.464,4.448-8.111a.2.2,0,0,0-.332-.131c-.718.648-2.66,2.813-4.117,8.242" transform="translate(-123.285 -301.818)"/>
            </g>
          </g>
        </g>
        <path id="Trazado_834323" data-name="Trazado 834323" d="M126.9,306.219a4.808,4.808,0,0,1-.411.989c-.282.6-.692,1.412-1.171,2.3s-.939,1.676-1.294,2.234a4.453,4.453,0,0,1-.628.868,5.776,5.776,0,0,1,.491-.95l1.233-2.259,1.227-2.264a5.3,5.3,0,0,1,.553-.916" transform="translate(-69.651 -172.853)" fill="#263238"/>
        <path id="Trazado_834324" data-name="Trazado 834324" d="M104.612,347.038s5.968-.93,7.566-5.323a.2.2,0,0,0-.24-.263c-.93.266-3.627,1.354-7.326,5.586" transform="translate(-59.051 -192.736)" fill="#e8505b"/>
        <g id="Grupo_1083568" data-name="Grupo 1083568" transform="translate(45.561 148.707)" opacity="0.3">
          <g id="Grupo_1083567" data-name="Grupo 1083567">
            <g id="Grupo_1083566" data-name="Grupo 1083566" clip-path="url(#clip-path-25)">
              <path id="Trazado_834325" data-name="Trazado 834325" d="M104.612,347.038s5.968-.93,7.566-5.323a.2.2,0,0,0-.24-.263c-.93.266-3.627,1.354-7.326,5.586" transform="translate(-104.612 -341.444)"/>
            </g>
          </g>
        </g>
        <path id="Trazado_834326" data-name="Trazado 834326" d="M110.657,344.737a4.81,4.81,0,0,1-.8.707c-.516.412-1.243.963-2.063,1.548s-1.582,1.091-2.146,1.436a4.461,4.461,0,0,1-.947.5,5.773,5.773,0,0,1,.86-.636l2.1-1.486,2.1-1.493a5.305,5.305,0,0,1,.9-.579" transform="translate(-59.098 -194.594)" fill="#263238"/>
        <path id="Trazado_834327" data-name="Trazado 834327" d="M89.285,379.5,87.544,391.22H98.392L96.986,379.5Z" transform="translate(-49.417 -214.22)" fill="#455a64"/>
        <path id="Trazado_834328" data-name="Trazado 834328" d="M98.88,387.693a42.509,42.509,0,0,1-4.374.113,42.5,42.5,0,0,1-4.374-.113,42.519,42.519,0,0,1,4.374-.113,42.525,42.525,0,0,1,4.374.113" transform="translate(-50.877 -218.779)" fill="#263238"/>
        <path id="Trazado_834329" data-name="Trazado 834329" d="M99,389.834c0,.062-2.023.113-4.518.113s-4.518-.051-4.518-.113,2.023-.113,4.518-.113,4.518.051,4.518.113" transform="translate(-50.784 -219.988)" fill="#263238"/>
      </g>
    </g>
  </g>
</svg>
