<svg id="Grupo_1083435" data-name="Grupo 1083435" xmlns="http://www.w3.org/2000/svg" xmlns:xlink="http://www.w3.org/1999/xlink" width="295" height="239.386" viewBox="0 0 295 239.386">
  <defs>
    <clipPath id="clip-path">
      <rect id="Rectángulo_385243" data-name="Rectángulo 385243" width="295" height="239.386" fill="none"/>
    </clipPath>
    <clipPath id="clip-path-5">
      <rect id="Rectángulo_385209" data-name="Rectángulo 385209" width="35.018" height="18.122" fill="none"/>
    </clipPath>
    <clipPath id="clip-path-6">
      <rect id="Rectángulo_385211" data-name="Rectángulo 385211" width="15.81" height="15.811" fill="none"/>
    </clipPath>
    <clipPath id="clip-path-7">
      <rect id="Rectángulo_385212" data-name="Rectángulo 385212" width="15.811" height="15.811" fill="none"/>
    </clipPath>
    <clipPath id="clip-path-8">
      <rect id="Rectángulo_385213" data-name="Rectángulo 385213" width="15.811" height="15.81" fill="none"/>
    </clipPath>
    <clipPath id="clip-path-20">
      <rect id="Rectángulo_385233" data-name="Rectángulo 385233" width="11.717" height="2.408" fill="none"/>
    </clipPath>
    <clipPath id="clip-path-21">
      <rect id="Rectángulo_385234" data-name="Rectángulo 385234" width="1.568" height="1.561" fill="none"/>
    </clipPath>
    <clipPath id="clip-path-22">
      <rect id="Rectángulo_385235" data-name="Rectángulo 385235" width="20.191" height="1.625" fill="none"/>
    </clipPath>
    <clipPath id="clip-path-23">
      <rect id="Rectángulo_385236" data-name="Rectángulo 385236" width="9.984" height="2.049" fill="none"/>
    </clipPath>
    <clipPath id="clip-path-24">
      <rect id="Rectángulo_385237" data-name="Rectángulo 385237" width="6.541" height="22.614" fill="none"/>
    </clipPath>
    <clipPath id="clip-path-26">
      <rect id="Rectángulo_385240" data-name="Rectángulo 385240" width="9.003" height="10.459" fill="none"/>
    </clipPath>
  </defs>
  <g id="Grupo_1083503" data-name="Grupo 1083503" clip-path="url(#clip-path)">
    <g id="Grupo_1083431" data-name="Grupo 1083431">
      <g id="Grupo_1083430" data-name="Grupo 1083430" clip-path="url(#clip-path)">
        <path id="Trazado_833874" data-name="Trazado 833874" d="M322.752,381.087a4.95,4.95,0,0,1-1.441.742,6.512,6.512,0,0,1-4.387-.056,6.6,6.6,0,0,1-2.566-1.7,6.7,6.7,0,0,1-1.636-3.134,6.705,6.705,0,0,1,.321-3.89,6.676,6.676,0,0,1,6.747-4.213,6.711,6.711,0,0,1,3.637,1.42,6.7,6.7,0,0,1,2.1,2.846,6.59,6.59,0,0,1,.4,3.053,6.514,6.514,0,0,1-1.877,3.966,4.931,4.931,0,0,1-1.3.969c-.027-.037.487-.321,1.195-1.07a6.526,6.526,0,0,0,1.717-3.889,6.391,6.391,0,0,0-2.451-5.6,6.4,6.4,0,0,0-3.451-1.326,6.342,6.342,0,0,0-6.378,3.982,6.4,6.4,0,0,0-.324,3.682,6.4,6.4,0,0,0,3.957,4.662,6.522,6.522,0,0,0,4.249.165c.984-.306,1.465-.644,1.486-.6" transform="translate(-138.16 -163.019)" fill="#e0e0e0"/>
        <path id="Trazado_833875" data-name="Trazado 833875" d="M314.755,380.268a1.471,1.471,0,0,1,.171.153l.5.485,1.966,1.937-.075-.009,5.156-3.26-.039.112c-.372-1.053-.786-2.223-1.228-3.475l-.022-.062.046-.049a14.929,14.929,0,0,0,2.282-3.221l.035-.066h.075l3.688.006-.131.1c.429-1.873.883-3.86,1.362-5.946l.079.166-3.324-1.6-.084-.041,0-.094a14.838,14.838,0,0,0-.653-3.881l-.029-.094.07-.069,2.614-2.6-.024.208L323.95,353.8l.206.073-3.479,1.216-.1.035-.079-.074a14.868,14.868,0,0,0-3.2-2.279l-.1-.051v-.111c0-1.155.01-2.415.014-3.688l.142.18-5.944-1.373.21-.1c-.507,1.048-1.053,2.181-1.6,3.321l-.05.1-.113,0a14.788,14.788,0,0,0-3.87.644h0l-.189-.047,0,0-.005-.006-.01-.01-.021-.021-.041-.041-.082-.083-.163-.165-.326-.329-.651-.657-1.293-1.306.233.027-5.176,3.23.078-.219q.611,1.758,1.211,3.481l.037.105-.076.082a14.818,14.818,0,0,0-2.284,3.2l-.051.1h-.11l-3.687-.02.176-.138q-.707,3.043-1.38,5.942l-.094-.195,3.319,1.609.092.045,0,.1a14.825,14.825,0,0,0,.64,3.881l.029.095-.07.069-2.623,2.59.023-.194,3.22,5.183-.168-.06,3.483-1.2.078-.027.059.055a14.9,14.9,0,0,0,3.2,2.3l.067.035v.075c-.011,1.34-.02,2.547-.029,3.687l-.085-.109,5.938,1.4-.1.045c.649-1.322,1.182-2.407,1.625-3.31l.016-.033h.036a15.5,15.5,0,0,0,2.966-.365l.72-.174a1.54,1.54,0,0,1,.239-.055,1.838,1.838,0,0,1-.231.085c-.156.049-.392.123-.714.2a14.463,14.463,0,0,1-2.977.425l.052-.034-1.582,3.331-.029.06-.066-.015-5.95-1.349-.086-.02v-.089c0-1.14,0-2.347,0-3.687l.065.109a15.078,15.078,0,0,1-3.273-2.321l.136.029-3.478,1.221-.108.038-.06-.1-3.241-5.169-.066-.106.088-.088,2.614-2.6-.041.163a15.1,15.1,0,0,1-.666-3.966l.1.146-3.323-1.6-.124-.06.031-.135q.666-2.9,1.369-5.944l.031-.139h.143l3.688.013-.161.1a15.124,15.124,0,0,1,2.336-3.279l-.039.187q-.6-1.723-1.215-3.48l-.05-.141.127-.079,5.174-3.232.127-.08.106.107,1.294,1.305.65.657.326.329.164.165.081.082.041.041.021.021.01.011.006.005,0,0c-.377-.094-.1-.026-.187-.047h0a15.135,15.135,0,0,1,3.969-.66l-.162.105c.552-1.139,1.1-2.272,1.605-3.32l.065-.134.145.033,5.944,1.378.143.033v.147c-.007,1.273-.014,2.533-.019,3.688l-.1-.161a15.241,15.241,0,0,1,3.275,2.34l-.181-.038,3.482-1.21.132-.046.073.119,3.225,5.179.071.114-.095.094-2.622,2.59.041-.162a15.092,15.092,0,0,1,.653,3.966l-.088-.134,3.317,1.611.107.051-.027.115-1.388,5.94-.025.1h-.106l-3.688-.027.109-.066a15.057,15.057,0,0,1-2.338,3.256l.023-.112,1.2,3.485.025.073-.065.04-5.194,3.2-.041.025-.033-.034-1.9-1.964-.487-.512a1.678,1.678,0,0,1-.162-.184" transform="translate(-128.979 -153.528)" fill="#e0e0e0"/>
        <path id="Trazado_833876" data-name="Trazado 833876" d="M329.222,290.6a21.188,21.188,0,0,1-5.547.924l-2.268,4.694-8.4-1.944.023-5.214a21.14,21.14,0,0,1-4.579-3.266l-4.921,1.716-4.568-7.318,3.7-3.669a21.078,21.078,0,0,1-.923-5.548l-4.695-2.268,1.943-8.4,5.214.023a21.123,21.123,0,0,1,3.267-4.578l-1.716-4.921,7.318-4.569,3.669,3.7a21.1,21.1,0,0,1,5.547-.923l2.269-4.7,8.4,1.944-.024,5.215a21.171,21.171,0,0,1,4.578,3.266l4.921-1.715L347,260.369l-3.7,3.668a21.079,21.079,0,0,1,.924,5.548l4.695,2.268-1.943,8.4-5.214-.023a21.138,21.138,0,0,1-3.267,4.578l1.716,4.921-7.317,4.568Zm-1.674-12.263a9.254,9.254,0,1,0-12.751-2.949,9.254,9.254,0,0,0,12.751,2.949" transform="translate(-131.297 -108.003)" fill="#e0e0e0" fill-rule="evenodd"/>
        <path id="Trazado_833877" data-name="Trazado 833877" d="M376.637,357.564a11.254,11.254,0,0,1-2.951.491l-1.206,2.5-4.471-1.034.012-2.774a11.259,11.259,0,0,1-2.437-1.738l-2.618.912-2.43-3.893,1.97-1.952a11.22,11.22,0,0,1-.492-2.951l-2.5-1.207,1.034-4.471,2.774.012a11.294,11.294,0,0,1,1.738-2.436l-.913-2.618,3.893-2.431,1.952,1.97a11.233,11.233,0,0,1,2.951-.492l1.206-2.5,4.471,1.035-.013,2.774a11.3,11.3,0,0,1,2.436,1.738l2.618-.912,2.431,3.893-1.97,1.951a11.224,11.224,0,0,1,.492,2.951l2.5,1.207-1.035,4.471-2.774-.012a11.235,11.235,0,0,1-1.738,2.436l.912,2.618-3.892,2.43Zm-.89-6.524a4.923,4.923,0,1,0-6.783-1.569,4.923,4.923,0,0,0,6.783,1.569" transform="translate(-158.912 -147.171)" fill="#ebebeb" fill-rule="evenodd"/>
        <path id="Trazado_833878" data-name="Trazado 833878" d="M102.944,101.844c.056.057-2.56,2.737-5.843,5.986s-5.992,5.837-6.048,5.78,2.559-2.737,5.844-5.987,5.991-5.836,6.047-5.779" transform="translate(-40.246 -45.016)" fill="#e0e0e0"/>
        <path id="Trazado_833879" data-name="Trazado 833879" d="M102.949,113.6c-.056.057-2.777-2.518-6.075-5.75s-5.929-5.9-5.873-5.958,2.776,2.517,6.076,5.751,5.928,5.9,5.872,5.958" transform="translate(-40.224 -45.039)" fill="#e0e0e0"/>
        <path id="Trazado_833880" data-name="Trazado 833880" d="M121.782,233.675c-.008.08-3.347-.207-7.456-.641s-7.435-.85-7.426-.93,3.346.207,7.457.641,7.433.85,7.425.93" transform="translate(-47.252 -102.588)" fill="#e0e0e0"/>
        <path id="Trazado_833881" data-name="Trazado 833881" d="M120.721,243.72c-.008.08-3.347-.207-7.456-.641s-7.435-.85-7.426-.93,3.346.207,7.457.641,7.433.85,7.425.93" transform="translate(-46.783 -107.028)" fill="#e0e0e0"/>
        <path id="Trazado_833882" data-name="Trazado 833882" d="M17.076,209.791s-4.419-.318-4.012,9.594a114.783,114.783,0,0,0,1.418,15.192s-.13,2.2-1.832,1.766-4.9-2.57-6.485-.971c-1.64,1.658-1.057,4.2,1.119,7.2s6.7,9.734,7.108,10.345.56,1.724-.647,1.616S4.394,251.661,3.315,255.6s6.353,11.292,7.151,12.112.84,1.336.517,1.831-2.973-.69-5.322-1.38S.468,267.088.036,269.415s2.842,9.137,15.1,16.294l5.9,2.944,5.582-3.56c11.481-8.347,14.057-15.451,13.395-17.723s-3.453-1.6-5.721-.68-4.786,2.367-5.157,1.906-.38-.979.331-1.874,7.371-8.951,5.9-12.766-9.295-.254-10.485-.026-1.143-.907-.805-1.543,4.173-7.806,6.037-11,2.191-5.787.393-7.273c-1.733-1.433-4.7,1.016-6.356,1.615s-2-1.575-2-1.575a114.791,114.791,0,0,0-.109-15.257c-.586-9.9-5.057-9.1-5.057-9.1" transform="translate(0 -92.724)" fill="#ebebeb"/>
        <path id="Trazado_833883" data-name="Trazado 833883" d="M31.229,225.713s.012.07.024.207.027.348.047.608c.037.546.09,1.332.158,2.341.136,2.033.309,4.976.51,8.613.4,7.274.877,17.328,1.362,28.433s.932,21.163,1.3,28.439c.185,3.63.334,6.571.439,8.616.05,1.009.089,1.8.116,2.343.011.26.019.463.025.609s0,.208,0,.208-.012-.07-.024-.206-.027-.349-.047-.609c-.037-.545-.09-1.332-.158-2.34-.136-2.033-.31-4.976-.51-8.612-.4-7.274-.877-17.329-1.362-28.438s-.932-21.158-1.3-28.434c-.185-3.63-.335-6.571-.439-8.616-.05-1.009-.089-1.8-.117-2.343-.011-.261-.018-.463-.025-.61s0-.208,0-.208" transform="translate(-13.803 -99.769)" fill="#e0e0e0"/>
        <path id="Trazado_833884" data-name="Trazado 833884" d="M18.86,261.332a1.93,1.93,0,0,1,.367.305c.227.206.545.514.935.9.778.771,1.825,1.864,2.957,3.092L26,268.784l.878.952a1.936,1.936,0,0,1,.307.365,1.961,1.961,0,0,1-.369-.3c-.226-.207-.545-.515-.931-.9-.771-.779-1.8-1.885-2.934-3.113l-2.906-3.134-.883-.948a1.942,1.942,0,0,1-.3-.367" transform="translate(-8.336 -115.513)" fill="#e0e0e0"/>
        <path id="Trazado_833885" data-name="Trazado 833885" d="M34.836,268.833c-.045-.044,2.113-2.3,4.817-5.044s4.934-4.93,4.978-4.886-2.112,2.3-4.817,5.044-4.934,4.929-4.978,4.886" transform="translate(-15.398 -114.439)" fill="#e0e0e0"/>
        <path id="Trazado_833886" data-name="Trazado 833886" d="M34.793,302.218a2,2,0,0,1,.411-.262l1.153-.647c.973-.547,2.315-1.307,3.765-2.2s2.74-1.737,3.668-2.359l1.1-.734a2.024,2.024,0,0,1,.42-.248,2.032,2.032,0,0,1-.368.32c-.246.194-.607.466-1.06.793-.906.656-2.184,1.529-3.641,2.42s-2.813,1.635-3.808,2.147c-.5.254-.9.455-1.189.585a2,2,0,0,1-.451.184" transform="translate(-15.379 -130.735)" fill="#e0e0e0"/>
        <path id="Trazado_833887" data-name="Trazado 833887" d="M17.284,296.608a1.73,1.73,0,0,1,.408.191c.255.136.62.339,1.069.594.9.51,2.13,1.228,3.484,2.033s2.574,1.546,3.451,2.091c.439.272.791.5,1.033.656a1.742,1.742,0,0,1,.363.267,1.7,1.7,0,0,1-.408-.191c-.255-.136-.62-.339-1.069-.594-.9-.511-2.13-1.229-3.485-2.034s-2.573-1.545-3.45-2.09c-.439-.273-.791-.5-1.033-.656a1.742,1.742,0,0,1-.363-.267" transform="translate(-7.64 -131.105)" fill="#e0e0e0"/>
        <path id="Trazado_833888" data-name="Trazado 833888" d="M13.811,323.642a2.822,2.822,0,0,1,.518.251l1.373.757c1.154.648,2.74,1.556,4.486,2.571s3.319,1.946,4.453,2.629l1.336.819a2.847,2.847,0,0,1,.474.327,2.807,2.807,0,0,1-.518-.251l-1.373-.757c-1.154-.648-2.741-1.557-4.486-2.572s-3.319-1.946-4.452-2.629l-1.337-.819a2.84,2.84,0,0,1-.474-.327" transform="translate(-6.104 -143.054)" fill="#e0e0e0"/>
        <path id="Trazado_833889" data-name="Trazado 833889" d="M36.012,329.588a3.237,3.237,0,0,1,.513-.343l1.433-.873c1.21-.737,2.878-1.76,4.687-2.941s3.425-2.288,4.587-3.1l1.378-.957a3.286,3.286,0,0,1,.521-.33,3.178,3.178,0,0,1-.469.4c-.311.247-.767.6-1.337,1.017-1.14.844-2.741,1.976-4.557,3.156s-3.5,2.187-4.729,2.89c-.617.35-1.119.628-1.471.811a3.215,3.215,0,0,1-.556.267" transform="translate(-15.918 -141.907)" fill="#e0e0e0"/>
        <path id="Trazado_833890" data-name="Trazado 833890" d="M38.972,354.6H22.656l5.325,40.309h5.665Z" transform="translate(-10.014 -156.737)" fill="#e0e0e0"/>
        <path id="Trazado_833891" data-name="Trazado 833891" d="M24.173,362.161c-.006,0,.018.057.087.143a1.031,1.031,0,0,0,.394.282,1.976,1.976,0,0,0,1.723-.212,13.046,13.046,0,0,1,2.115-1.393,4.63,4.63,0,0,1,3,.06,12.849,12.849,0,0,1,2.794,1.353,19.329,19.329,0,0,0,2.272,1.219,6.276,6.276,0,0,0,1.675.484,3.057,3.057,0,0,0,.474.032c.108,0,.165-.005.166-.014a8.5,8.5,0,0,1-2.238-.675,22.307,22.307,0,0,1-2.222-1.257,12.39,12.39,0,0,0-2.841-1.4,4.79,4.79,0,0,0-3.167-.035,4.173,4.173,0,0,0-1.192.737,9.294,9.294,0,0,1-.934.724,1.917,1.917,0,0,1-1.589.276,1.631,1.631,0,0,1-.517-.328" transform="translate(-10.685 -159.346)" fill="#f5f5f5"/>
        <path id="Trazado_833892" data-name="Trazado 833892" d="M25.24,374.438c.022.013.129-.166.384-.432a3.617,3.617,0,0,1,1.3-.826,5.825,5.825,0,0,1,2.269-.342,23.873,23.873,0,0,1,2.839.387,9.751,9.751,0,0,0,2.907.12,7.985,7.985,0,0,0,2.287-.653,7.281,7.281,0,0,0,1.375-.817,1.954,1.954,0,0,0,.436-.392,14.563,14.563,0,0,1-1.887,1.037,8.366,8.366,0,0,1-2.241.582,10.015,10.015,0,0,1-2.836-.14,21.381,21.381,0,0,0-2.874-.369,5.746,5.746,0,0,0-2.346.412,3.421,3.421,0,0,0-1.31.931,2.359,2.359,0,0,0-.247.362c-.048.088-.069.136-.061.141" transform="translate(-11.156 -164.2)" fill="#f5f5f5"/>
        <path id="Trazado_833893" data-name="Trazado 833893" d="M39,383.014a1.384,1.384,0,0,0-.45-.233,4.792,4.792,0,0,0-1.352-.29,8.643,8.643,0,0,0-2.044.117c-.761.123-1.576.334-2.433.516a10.286,10.286,0,0,1-2.429.275,5.3,5.3,0,0,1-1.929-.417,4.457,4.457,0,0,1-1.464-1.089,1.266,1.266,0,0,0,.276.426,3.447,3.447,0,0,0,1.108.834,5.19,5.19,0,0,0,2,.492,9.824,9.824,0,0,0,2.5-.259c.866-.184,1.676-.4,2.42-.534a9.336,9.336,0,0,1,1.992-.171,7.512,7.512,0,0,1,1.812.335" transform="translate(-11.888 -168.801)" fill="#f5f5f5"/>
        <path id="Trazado_833894" data-name="Trazado 833894" d="M27.824,393.173a2.647,2.647,0,0,1,1.584-.16,7.637,7.637,0,0,1,1.657.618,6.284,6.284,0,0,0,2.151.593,6.45,6.45,0,0,0,3.9-.9,5.537,5.537,0,0,0,.971-.747c.2-.211.3-.333.287-.346a14.183,14.183,0,0,1-1.353.93,6.691,6.691,0,0,1-3.785.8c-1.545-.088-2.73-1.009-3.8-1.131a2.429,2.429,0,0,0-1.231.107.81.81,0,0,0-.384.239" transform="translate(-12.298 -173.369)" fill="#f5f5f5"/>
        <path id="Trazado_833895" data-name="Trazado 833895" d="M29.453,406a3.13,3.13,0,0,0,1.36-.27c.82-.274,1.835-.9,3.021-1.374A4.907,4.907,0,0,1,35.567,404a3.192,3.192,0,0,1,1.394.318,3.092,3.092,0,0,1,1.008.869.742.742,0,0,0-.155-.344,2.242,2.242,0,0,0-.764-.692,3.2,3.2,0,0,0-1.479-.4,4.861,4.861,0,0,0-1.832.36c-1.229.489-2.211,1.137-2.995,1.447-.774.334-1.3.4-1.292.445" transform="translate(-13.019 -178.464)" fill="#f5f5f5"/>
        <path id="Trazado_833896" data-name="Trazado 833896" d="M30.887,414.233a3.794,3.794,0,0,0,1.033.335,19,19,0,0,0,5.2.511,3.806,3.806,0,0,0,1.079-.128c0-.08-1.653-.01-3.67-.213s-3.622-.584-3.641-.506" transform="translate(-13.652 -183.093)" fill="#f5f5f5"/>
      </g>
    </g>
    <g id="Grupo_1083433" data-name="Grupo 1083433">
      <g id="Grupo_1083432" data-name="Grupo 1083432" clip-path="url(#clip-path)">
        <path id="Trazado_833897" data-name="Trazado 833897" d="M274.788,428.643c0,.08-55.528.145-124.009.145-68.5,0-124.021-.065-124.021-.145s55.516-.145,124.021-.145c68.481,0,124.009.065,124.009.145" transform="translate(-11.827 -189.403)" fill="#263238"/>
      </g>
    </g>
    <g id="Grupo_1083495" data-name="Grupo 1083495">
      <g id="Grupo_1083494" data-name="Grupo 1083494" clip-path="url(#clip-path)">
        <path id="Trazado_833898" data-name="Trazado 833898" d="M152.355,103.287s1.519-9.1,1.881-9.794,4.557-4.947,5.052-5.035,7.108-2.164,6.742-1.132-5,2.423-5,2.423l-.44.554a31.1,31.1,0,0,1,4.949-1.257c.907.03,1.069.972.36,1.244s-4.2,1.29-4.333,1.508,3.89-.93,4.395-.908c.679.029,1.172.889.478,1.181-.409.172-4.295,1.064-4.295,1.064a34.285,34.285,0,0,1,3.609-.281c.6.162.547.887-.11,1.061-.451.12-2.825.222-3.428.383,0,0-.449.383-.432,1.585s-1.546,4.4-1.546,4.4Z" transform="translate(-67.343 -38.473)" fill="#ffbe9d"/>
        <path id="Trazado_833899" data-name="Trazado 833899" d="M171.122,87.589a3.342,3.342,0,0,1-.974.845,7.868,7.868,0,0,1-1.238.679c-.493.185-1.038.372-1.61.571l-1.22.413.066-.04a19.364,19.364,0,0,1-2.257,2.094,19.117,19.117,0,0,1,2.043-2.289l.025-.026.042-.015,1.2-.422,1.6-.542a9.679,9.679,0,0,0,1.228-.6c.676-.393,1.057-.7,1.089-.666" transform="translate(-72.441 -38.715)" fill="#eb996e"/>
        <path id="Trazado_833900" data-name="Trazado 833900" d="M259.831,179.868l-90.07-9.279a5.015,5.015,0,0,1-4.474-5.5l15.6-151.427A7.123,7.123,0,0,1,188.7,7.3l85.877,8.847a7.124,7.124,0,0,1,6.355,7.816l-15.6,151.427a5.015,5.015,0,0,1-5.5,4.474" transform="translate(-73.047 -3.212)" fill="#a1a9c9"/>
        <path id="Trazado_833901" data-name="Trazado 833901" d="M243.543,178.19l-90.07-9.279a5.015,5.015,0,0,1-4.474-5.5L164.6,11.982a7.122,7.122,0,0,1,7.815-6.355l85.877,8.846a7.124,7.124,0,0,1,6.355,7.816l-15.6,151.427a5.015,5.015,0,0,1-5.5,4.474" transform="translate(-65.848 -2.47)" fill="#c2c9ef"/>
        <path id="Trazado_833902" data-name="Trazado 833902" d="M208.056,253.42,177,250.221a1.35,1.35,0,0,1-1.2-1.481l1.259-12.222a1.351,1.351,0,0,1,1.482-1.205l31.057,3.2a1.351,1.351,0,0,1,1.205,1.482l-1.259,12.222a1.35,1.35,0,0,1-1.481,1.2" transform="translate(-77.7 -104.009)" fill="#e8505b"/>
        <g id="Grupo_1083436" data-name="Grupo 1083436" transform="translate(98.086 131.296)" opacity="0.4">
          <g id="Grupo_1083435-2" data-name="Grupo 1083435">
            <g id="Grupo_1083434" data-name="Grupo 1083434" clip-path="url(#clip-path-5)">
              <path id="Trazado_833903" data-name="Trazado 833903" d="M208.056,253.42,177,250.221a1.35,1.35,0,0,1-1.2-1.481l1.259-12.222a1.351,1.351,0,0,1,1.482-1.205l31.057,3.2a1.351,1.351,0,0,1,1.205,1.482l-1.259,12.222a1.35,1.35,0,0,1-1.481,1.2" transform="translate(-175.786 -235.305)"/>
            </g>
          </g>
        </g>
        <rect id="Rectángulo_385210" data-name="Rectángulo 385210" width="33.73" height="85.987" transform="matrix(0.102, -0.995, 0.995, 0.102, 101.566, 53.637)" fill="#fafafa"/>
        <path id="Trazado_833904" data-name="Trazado 833904" d="M267.437,78.232s.015-.206.051-.6.094-.978.168-1.737l.662-6.667c.583-5.785,1.427-14.163,2.475-24.56l.09.111L185.35,36.014h-.006l.159-.129-3.462,33.552-.124-.153,61.3,6.38,17.8,1.873,4.767.509,1.234.136c.278.032.424.052.424.052s-.136-.008-.408-.033l-1.22-.117-4.741-.471-17.777-1.792-61.4-6.259-.138-.015.014-.138c1.078-10.48,2.244-21.818,3.451-33.553l.015-.145.145.015h.006L270.9,44.58l.1.01-.011.1c-1.1,10.419-1.98,18.813-2.59,24.61-.307,2.883-.546,5.117-.709,6.639l-.187,1.716c-.043.385-.07.576-.07.576" transform="translate(-80.336 -15.784)" fill="#263238"/>
        <path id="Trazado_833905" data-name="Trazado 833905" d="M198.91,136.993l-12.228-1.26a1.162,1.162,0,0,1-1.037-1.274l1.26-12.228a1.162,1.162,0,0,1,1.274-1.037l12.228,1.26a1.162,1.162,0,0,1,1.037,1.274l-1.26,12.228a1.161,1.161,0,0,1-1.274,1.036" transform="translate(-82.055 -53.567)" fill="#e8505b"/>
        <g id="Grupo_1083439" data-name="Grupo 1083439" transform="translate(103.584 67.621)" opacity="0.4">
          <g id="Grupo_1083438" data-name="Grupo 1083438">
            <g id="Grupo_1083437" data-name="Grupo 1083437" clip-path="url(#clip-path-6)">
              <path id="Trazado_833906" data-name="Trazado 833906" d="M198.91,136.993l-12.228-1.26a1.162,1.162,0,0,1-1.037-1.274l1.26-12.228a1.162,1.162,0,0,1,1.274-1.037l12.228,1.26a1.162,1.162,0,0,1,1.037,1.274l-1.26,12.228a1.161,1.161,0,0,1-1.274,1.036" transform="translate(-185.64 -121.188)"/>
            </g>
          </g>
        </g>
        <path id="Trazado_833907" data-name="Trazado 833907" d="M194.886,136.579l-12.228-1.259a1.162,1.162,0,0,1-1.037-1.275l1.26-12.228a1.161,1.161,0,0,1,1.274-1.036l12.228,1.259a1.162,1.162,0,0,1,1.037,1.274l-1.26,12.228a1.161,1.161,0,0,1-1.274,1.036" transform="translate(-80.277 -53.384)" fill="#263238"/>
        <path id="Trazado_833908" data-name="Trazado 833908" d="M196.031,129.369l-.624,6.059-1.4-.145.508-4.934-1.212-.125.116-1.125Z" transform="translate(-85.442 -57.064)" fill="#fff"/>
        <path id="Trazado_833909" data-name="Trazado 833909" d="M235.243,140.736l-12.228-1.26a1.161,1.161,0,0,1-1.037-1.274l1.26-12.228a1.161,1.161,0,0,1,1.274-1.036l12.228,1.259a1.162,1.162,0,0,1,1.037,1.274l-1.26,12.228a1.161,1.161,0,0,1-1.274,1.036" transform="translate(-98.116 -55.222)" fill="#e8505b"/>
        <g id="Grupo_1083442" data-name="Grupo 1083442" transform="translate(123.857 69.709)" opacity="0.4">
          <g id="Grupo_1083441" data-name="Grupo 1083441">
            <g id="Grupo_1083440" data-name="Grupo 1083440" clip-path="url(#clip-path-7)">
              <path id="Trazado_833910" data-name="Trazado 833910" d="M235.243,140.736l-12.228-1.26a1.161,1.161,0,0,1-1.037-1.274l1.26-12.228a1.161,1.161,0,0,1,1.274-1.036l12.228,1.259a1.162,1.162,0,0,1,1.037,1.274l-1.26,12.228a1.161,1.161,0,0,1-1.274,1.036" transform="translate(-221.973 -124.931)"/>
            </g>
          </g>
        </g>
        <path id="Trazado_833911" data-name="Trazado 833911" d="M231.219,140.321l-12.228-1.26a1.161,1.161,0,0,1-1.037-1.274l1.26-12.228a1.161,1.161,0,0,1,1.274-1.036l12.228,1.259a1.162,1.162,0,0,1,1.037,1.274l-1.26,12.228a1.161,1.161,0,0,1-1.274,1.036" transform="translate(-96.337 -55.038)" fill="#263238"/>
        <path id="Trazado_833912" data-name="Trazado 833912" d="M233.824,138.348l-.118,1.143-4.579-.471.094-.909,2.565-1.967c.589-.455.716-.757.746-1.051.049-.476-.251-.787-.891-.853a1.49,1.49,0,0,0-1.318.477l-.954-.763a2.83,2.83,0,0,1,2.523-.878c1.349.139,2.179.925,2.066,2.024a2.431,2.431,0,0,1-1.21,1.808l-1.529,1.172Z" transform="translate(-101.278 -58.812)" fill="#fff"/>
        <path id="Trazado_833913" data-name="Trazado 833913" d="M272.909,144.616l-12.228-1.26a1.161,1.161,0,0,1-1.037-1.274l1.26-12.228a1.162,1.162,0,0,1,1.274-1.037l12.228,1.26a1.162,1.162,0,0,1,1.037,1.274l-1.26,12.228a1.162,1.162,0,0,1-1.274,1.037" transform="translate(-114.765 -56.937)" fill="#e8505b"/>
        <g id="Grupo_1083445" data-name="Grupo 1083445" transform="translate(144.874 71.875)" opacity="0.4">
          <g id="Grupo_1083444" data-name="Grupo 1083444">
            <g id="Grupo_1083443" data-name="Grupo 1083443" clip-path="url(#clip-path-8)">
              <path id="Trazado_833914" data-name="Trazado 833914" d="M272.909,144.616l-12.228-1.26a1.161,1.161,0,0,1-1.037-1.274l1.26-12.228a1.162,1.162,0,0,1,1.274-1.037l12.228,1.26a1.162,1.162,0,0,1,1.037,1.274l-1.26,12.228a1.162,1.162,0,0,1-1.274,1.037" transform="translate(-259.639 -128.812)"/>
            </g>
          </g>
        </g>
        <path id="Trazado_833915" data-name="Trazado 833915" d="M268.886,144.2l-12.228-1.26a1.161,1.161,0,0,1-1.037-1.274l1.26-12.228a1.161,1.161,0,0,1,1.274-1.036l12.228,1.259a1.162,1.162,0,0,1,1.037,1.274l-1.26,12.228a1.161,1.161,0,0,1-1.274,1.036" transform="translate(-112.986 -56.754)" fill="#263238"/>
        <path id="Trazado_833916" data-name="Trazado 833916" d="M271.322,141.438c-.105,1.022-.989,1.875-2.711,1.7a4.186,4.186,0,0,1-2.245-.887l.656-1.017a2.959,2.959,0,0,0,1.675.724c.7.073,1.163-.168,1.214-.662.047-.459-.261-.78-1.057-.862l-.641-.066.1-.926,1.392-1.282-2.58-.266.116-1.125,4.241.437-.094.908-1.528,1.417a1.73,1.73,0,0,1,1.465,1.909" transform="translate(-117.738 -60.453)" fill="#fff"/>
        <path id="Trazado_833917" data-name="Trazado 833917" d="M310.576,148.5l-12.228-1.26a1.161,1.161,0,0,1-1.037-1.274l1.26-12.228a1.162,1.162,0,0,1,1.274-1.037l12.228,1.26a1.162,1.162,0,0,1,1.037,1.274l-1.26,12.228a1.161,1.161,0,0,1-1.274,1.036" transform="translate(-131.414 -58.652)" fill="#e8505b"/>
        <g id="Grupo_1083448" data-name="Grupo 1083448" transform="translate(165.891 74.04)" opacity="0.4">
          <g id="Grupo_1083447" data-name="Grupo 1083447">
            <g id="Grupo_1083446" data-name="Grupo 1083446" clip-path="url(#clip-path-7)">
              <path id="Trazado_833918" data-name="Trazado 833918" d="M310.576,148.5l-12.228-1.26a1.161,1.161,0,0,1-1.037-1.274l1.26-12.228a1.162,1.162,0,0,1,1.274-1.037l12.228,1.26a1.162,1.162,0,0,1,1.037,1.274l-1.26,12.228a1.161,1.161,0,0,1-1.274,1.036" transform="translate(-297.305 -132.692)"/>
            </g>
          </g>
        </g>
        <path id="Trazado_833919" data-name="Trazado 833919" d="M306.643,148.082l-12.228-1.26a1.161,1.161,0,0,1-1.037-1.274l1.26-12.228a1.162,1.162,0,0,1,1.274-1.037l12.228,1.26a1.162,1.162,0,0,1,1.037,1.274l-1.26,12.228a1.161,1.161,0,0,1-1.274,1.036" transform="translate(-129.676 -58.469)" fill="#263238"/>
        <rect id="Rectángulo_385215" data-name="Rectángulo 385215" width="0.558" height="6.527" transform="translate(168.265 81.417) rotate(-84.117)" fill="#fff"/>
        <path id="Trazado_833920" data-name="Trazado 833920" d="M308.164,140.213a1.058,1.058,0,1,1-.945-1.161,1.058,1.058,0,0,1,.945,1.161" transform="translate(-135.281 -61.461)" fill="#fff"/>
        <path id="Trazado_833921" data-name="Trazado 833921" d="M307.118,150.359a1.058,1.058,0,1,1-.944-1.161,1.058,1.058,0,0,1,.944,1.161" transform="translate(-134.818 -65.946)" fill="#fff"/>
        <path id="Trazado_833922" data-name="Trazado 833922" d="M194.977,175.162,182.75,173.9a1.161,1.161,0,0,1-1.037-1.274l1.26-12.228a1.161,1.161,0,0,1,1.274-1.036l12.228,1.259a1.162,1.162,0,0,1,1.037,1.274l-1.26,12.228a1.162,1.162,0,0,1-1.274,1.036" transform="translate(-80.317 -70.439)" fill="#e8505b"/>
        <g id="Grupo_1083451" data-name="Grupo 1083451" transform="translate(101.39 88.919)" opacity="0.4">
          <g id="Grupo_1083450" data-name="Grupo 1083450">
            <g id="Grupo_1083449" data-name="Grupo 1083449" clip-path="url(#clip-path-8)">
              <path id="Trazado_833923" data-name="Trazado 833923" d="M194.977,175.162,182.75,173.9a1.161,1.161,0,0,1-1.037-1.274l1.26-12.228a1.161,1.161,0,0,1,1.274-1.036l12.228,1.259a1.162,1.162,0,0,1,1.037,1.274l-1.26,12.228a1.162,1.162,0,0,1-1.274,1.036" transform="translate(-181.707 -159.358)"/>
            </g>
          </g>
        </g>
        <path id="Trazado_833924" data-name="Trazado 833924" d="M190.954,174.748l-12.228-1.26a1.161,1.161,0,0,1-1.037-1.274l1.26-12.228a1.161,1.161,0,0,1,1.274-1.036l12.228,1.259a1.162,1.162,0,0,1,1.037,1.274l-1.26,12.228a1.161,1.161,0,0,1-1.274,1.036" transform="translate(-78.539 -70.256)" fill="#263238"/>
        <path id="Trazado_833925" data-name="Trazado 833925" d="M192.1,172.639l-.988-.1-.131,1.272-1.368-.141.131-1.273-3.263-.336.1-.944,3.253-3.549,1.471.152-3.024,3.371,1.627.167.117-1.133,1.324.136-.117,1.134.988.1Z" transform="translate(-82.427 -74.068)" fill="#fff"/>
        <path id="Trazado_833926" data-name="Trazado 833926" d="M231.311,178.905l-12.228-1.26a1.161,1.161,0,0,1-1.037-1.274l1.26-12.228a1.161,1.161,0,0,1,1.274-1.036l12.228,1.259a1.162,1.162,0,0,1,1.037,1.274l-1.26,12.228a1.161,1.161,0,0,1-1.274,1.036" transform="translate(-96.378 -72.093)" fill="#e8505b"/>
        <g id="Grupo_1083454" data-name="Grupo 1083454" transform="translate(121.663 91.008)" opacity="0.4">
          <g id="Grupo_1083453" data-name="Grupo 1083453">
            <g id="Grupo_1083452" data-name="Grupo 1083452" clip-path="url(#clip-path-8)">
              <path id="Trazado_833927" data-name="Trazado 833927" d="M231.311,178.905l-12.228-1.26a1.161,1.161,0,0,1-1.037-1.274l1.26-12.228a1.161,1.161,0,0,1,1.274-1.036l12.228,1.259a1.162,1.162,0,0,1,1.037,1.274l-1.26,12.228a1.161,1.161,0,0,1-1.274,1.036" transform="translate(-218.041 -163.101)"/>
            </g>
          </g>
        </g>
        <path id="Trazado_833928" data-name="Trazado 833928" d="M227.287,178.491l-12.228-1.26a1.161,1.161,0,0,1-1.037-1.274l1.26-12.228a1.162,1.162,0,0,1,1.274-1.037l12.228,1.26a1.162,1.162,0,0,1,1.037,1.274l-1.26,12.228a1.161,1.161,0,0,1-1.274,1.036" transform="translate(-94.599 -71.91)" fill="#263238"/>
        <path id="Trazado_833929" data-name="Trazado 833929" d="M228.616,175.6c-.111,1.073-.994,1.927-2.726,1.749a4.212,4.212,0,0,1-2.244-.887l.665-1.017a2.927,2.927,0,0,0,1.666.723c.7.073,1.165-.178,1.215-.671.049-.476-.23-.82-1.33-.933l-1.549-.16.663-3.378,3.7.381-.116,1.125-2.528-.26-.214,1.141.494.051c1.792.185,2.418,1.064,2.308,2.137" transform="translate(-98.856 -75.595)" fill="#fff"/>
        <path id="Trazado_833930" data-name="Trazado 833930" d="M268.977,182.785l-12.228-1.26a1.161,1.161,0,0,1-1.037-1.274l1.26-12.228a1.162,1.162,0,0,1,1.274-1.037l12.228,1.26a1.162,1.162,0,0,1,1.037,1.274l-1.26,12.228a1.161,1.161,0,0,1-1.274,1.036" transform="translate(-113.026 -73.808)" fill="#e8505b"/>
        <g id="Grupo_1083457" data-name="Grupo 1083457" transform="translate(142.68 93.173)" opacity="0.4">
          <g id="Grupo_1083456" data-name="Grupo 1083456">
            <g id="Grupo_1083455" data-name="Grupo 1083455" clip-path="url(#clip-path-8)">
              <path id="Trazado_833931" data-name="Trazado 833931" d="M268.977,182.785l-12.228-1.26a1.161,1.161,0,0,1-1.037-1.274l1.26-12.228a1.162,1.162,0,0,1,1.274-1.037l12.228,1.26a1.162,1.162,0,0,1,1.037,1.274l-1.26,12.228a1.161,1.161,0,0,1-1.274,1.036" transform="translate(-255.707 -166.981)"/>
            </g>
          </g>
        </g>
        <path id="Trazado_833932" data-name="Trazado 833932" d="M264.953,182.371l-12.228-1.26a1.161,1.161,0,0,1-1.037-1.274l1.26-12.228a1.161,1.161,0,0,1,1.274-1.036l12.228,1.259a1.162,1.162,0,0,1,1.037,1.274l-1.26,12.228a1.161,1.161,0,0,1-1.274,1.036" transform="translate(-111.248 -73.625)" fill="#263238"/>
        <path id="Trazado_833933" data-name="Trazado 833933" d="M267.077,179.624a2.094,2.094,0,0,1-2.5,1.781c-1.67-.172-2.6-1.326-2.4-3.283a2.965,2.965,0,0,1,3.427-2.945,3.285,3.285,0,0,1,1.644.59l-.625.976a2,2,0,0,0-1.1-.42,1.617,1.617,0,0,0-1.885,1.581,2.057,2.057,0,0,1,1.552-.382,1.932,1.932,0,0,1,1.892,2.1m-1.366-.071a.918.918,0,0,0-.937-1.015.953.953,0,0,0-1.141.8c-.053.519.3.94.972,1.009a.91.91,0,0,0,1.106-.8" transform="translate(-115.874 -77.421)" fill="#fff"/>
        <path id="Trazado_833934" data-name="Trazado 833934" d="M306.643,186.666l-12.228-1.259a1.162,1.162,0,0,1-1.037-1.275l1.26-12.228a1.161,1.161,0,0,1,1.274-1.036l12.228,1.259a1.162,1.162,0,0,1,1.037,1.274l-1.26,12.228a1.161,1.161,0,0,1-1.274,1.036" transform="translate(-129.676 -75.524)" fill="#e8505b"/>
        <g id="Grupo_1083460" data-name="Grupo 1083460" transform="translate(163.697 95.338)" opacity="0.4">
          <g id="Grupo_1083459" data-name="Grupo 1083459">
            <g id="Grupo_1083458" data-name="Grupo 1083458" clip-path="url(#clip-path-7)">
              <path id="Trazado_833935" data-name="Trazado 833935" d="M306.643,186.666l-12.228-1.259a1.162,1.162,0,0,1-1.037-1.275l1.26-12.228a1.161,1.161,0,0,1,1.274-1.036l12.228,1.259a1.162,1.162,0,0,1,1.037,1.274l-1.26,12.228a1.161,1.161,0,0,1-1.274,1.036" transform="translate(-293.373 -170.861)"/>
            </g>
          </g>
        </g>
        <path id="Trazado_833936" data-name="Trazado 833936" d="M302.62,186.251l-12.228-1.26a1.161,1.161,0,0,1-1.037-1.274l1.26-12.228a1.161,1.161,0,0,1,1.274-1.036l12.228,1.259a1.162,1.162,0,0,1,1.037,1.274l-1.26,12.228a1.161,1.161,0,0,1-1.274,1.036" transform="translate(-127.897 -75.34)" fill="#263238"/>
        <rect id="Rectángulo_385220" data-name="Rectángulo 385220" width="6.527" height="0.558" transform="translate(166.623 104.813) rotate(-38.258)" fill="#fff"/>
        <rect id="Rectángulo_385221" data-name="Rectángulo 385221" width="0.558" height="6.526" transform="matrix(0.776, -0.631, 0.631, 0.776, 167.082, 100.656)" fill="#fff"/>
        <path id="Trazado_833937" data-name="Trazado 833937" d="M191.077,213.021l-12.228-1.259a1.162,1.162,0,0,1-1.037-1.275l1.26-12.228a1.161,1.161,0,0,1,1.274-1.036l12.228,1.259a1.162,1.162,0,0,1,1.037,1.274l-1.26,12.228a1.161,1.161,0,0,1-1.274,1.036" transform="translate(-78.593 -87.173)" fill="#e8505b"/>
        <g id="Grupo_1083463" data-name="Grupo 1083463" transform="translate(99.213 110.043)" opacity="0.4">
          <g id="Grupo_1083462" data-name="Grupo 1083462">
            <g id="Grupo_1083461" data-name="Grupo 1083461" clip-path="url(#clip-path-7)">
              <path id="Trazado_833938" data-name="Trazado 833938" d="M191.077,213.021l-12.228-1.259a1.162,1.162,0,0,1-1.037-1.275l1.26-12.228a1.161,1.161,0,0,1,1.274-1.036l12.228,1.259a1.162,1.162,0,0,1,1.037,1.274l-1.26,12.228a1.161,1.161,0,0,1-1.274,1.036" transform="translate(-177.807 -197.216)"/>
            </g>
          </g>
        </g>
        <path id="Trazado_833939" data-name="Trazado 833939" d="M187.054,212.606l-12.228-1.26a1.161,1.161,0,0,1-1.037-1.274l1.26-12.228a1.161,1.161,0,0,1,1.274-1.036l12.228,1.259a1.162,1.162,0,0,1,1.037,1.274l-1.26,12.228a1.162,1.162,0,0,1-1.274,1.036" transform="translate(-76.815 -86.99)" fill="#263238"/>
        <path id="Trazado_833940" data-name="Trazado 833940" d="M188.069,205.391l-.093.909-2.782,4.918-1.523-.157,2.679-4.693-2.008-.207-.1.987-1.247-.128.219-2.129Z" transform="translate(-80.886 -90.565)" fill="#fff"/>
        <path id="Trazado_833941" data-name="Trazado 833941" d="M227.411,216.764l-12.228-1.26a1.161,1.161,0,0,1-1.037-1.274L215.407,202a1.161,1.161,0,0,1,1.274-1.036l12.228,1.259a1.162,1.162,0,0,1,1.037,1.274l-1.26,12.228a1.161,1.161,0,0,1-1.274,1.036" transform="translate(-94.654 -88.827)" fill="#e8505b"/>
        <g id="Grupo_1083466" data-name="Grupo 1083466" transform="translate(119.487 112.132)" opacity="0.4">
          <g id="Grupo_1083465" data-name="Grupo 1083465">
            <g id="Grupo_1083464" data-name="Grupo 1083464" clip-path="url(#clip-path-6)">
              <path id="Trazado_833942" data-name="Trazado 833942" d="M227.411,216.764l-12.228-1.26a1.161,1.161,0,0,1-1.037-1.274L215.407,202a1.161,1.161,0,0,1,1.274-1.036l12.228,1.259a1.162,1.162,0,0,1,1.037,1.274l-1.26,12.228a1.161,1.161,0,0,1-1.274,1.036" transform="translate(-214.141 -200.959)"/>
            </g>
          </g>
        </g>
        <path id="Trazado_833943" data-name="Trazado 833943" d="M223.387,216.349l-12.228-1.26a1.161,1.161,0,0,1-1.037-1.274l1.26-12.228a1.162,1.162,0,0,1,1.274-1.037l12.228,1.26a1.162,1.162,0,0,1,1.037,1.274l-1.26,12.228a1.161,1.161,0,0,1-1.274,1.036" transform="translate(-92.875 -88.644)" fill="#263238"/>
        <path id="Trazado_833944" data-name="Trazado 833944" d="M225.456,213.718c-.118,1.142-1.213,1.755-2.753,1.6s-2.471-.981-2.353-2.123a1.547,1.547,0,0,1,1.065-1.334,1.407,1.407,0,0,1-.573-1.319c.109-1.065,1.131-1.633,2.507-1.491,1.394.143,2.277.908,2.167,1.973a1.415,1.415,0,0,1-.838,1.173,1.542,1.542,0,0,1,.778,1.524m-1.415-.19c.055-.537-.352-.911-1.053-.983s-1.159.213-1.215.749.343.919,1.036.99,1.177-.22,1.233-.757m-1.813-2.785c-.047.459.287.782.858.841s.982-.187,1.029-.646c.049-.476-.3-.8-.874-.86s-.964.189-1.013.665" transform="translate(-97.394 -92.393)" fill="#fff"/>
        <path id="Trazado_833945" data-name="Trazado 833945" d="M265.077,220.644l-12.228-1.26a1.161,1.161,0,0,1-1.037-1.274l1.26-12.228a1.161,1.161,0,0,1,1.274-1.036l12.228,1.259a1.162,1.162,0,0,1,1.037,1.274l-1.26,12.228a1.161,1.161,0,0,1-1.274,1.036" transform="translate(-111.303 -90.542)" fill="#e8505b"/>
        <g id="Grupo_1083469" data-name="Grupo 1083469" transform="translate(140.504 114.297)" opacity="0.4">
          <g id="Grupo_1083468" data-name="Grupo 1083468">
            <g id="Grupo_1083467" data-name="Grupo 1083467" clip-path="url(#clip-path-7)">
              <path id="Trazado_833946" data-name="Trazado 833946" d="M265.077,220.644l-12.228-1.26a1.161,1.161,0,0,1-1.037-1.274l1.26-12.228a1.161,1.161,0,0,1,1.274-1.036l12.228,1.259a1.162,1.162,0,0,1,1.037,1.274l-1.26,12.228a1.161,1.161,0,0,1-1.274,1.036" transform="translate(-251.807 -204.839)"/>
            </g>
          </g>
        </g>
        <path id="Trazado_833947" data-name="Trazado 833947" d="M261.053,220.23l-12.228-1.26a1.161,1.161,0,0,1-1.037-1.274l1.26-12.228a1.162,1.162,0,0,1,1.274-1.037l12.228,1.26a1.162,1.162,0,0,1,1.037,1.274l-1.26,12.228a1.162,1.162,0,0,1-1.274,1.036" transform="translate(-109.524 -90.359)" fill="#263238"/>
        <path id="Trazado_833948" data-name="Trazado 833948" d="M263.006,216.144a2.96,2.96,0,0,1-3.425,2.945,3.26,3.26,0,0,1-1.637-.589l.625-.976a1.971,1.971,0,0,0,1.1.42,1.624,1.624,0,0,0,1.887-1.591,2.078,2.078,0,0,1-1.562.39,1.932,1.932,0,0,1-1.892-2.1,2.1,2.1,0,0,1,2.5-1.781c1.679.174,2.6,1.327,2.4,3.283m-1.457-1.217c.054-.519-.3-.94-.964-1.009a.916.916,0,1,0-.169,1.811.945.945,0,0,0,1.132-.8" transform="translate(-114.015 -94.081)" fill="#fff"/>
        <path id="Trazado_833949" data-name="Trazado 833949" d="M302.743,224.524l-12.228-1.259a1.162,1.162,0,0,1-1.037-1.275l1.26-12.228a1.161,1.161,0,0,1,1.274-1.036l12.228,1.259a1.162,1.162,0,0,1,1.037,1.274l-1.26,12.228a1.162,1.162,0,0,1-1.274,1.036" transform="translate(-127.952 -92.258)" fill="#e8505b"/>
        <g id="Grupo_1083472" data-name="Grupo 1083472" transform="translate(161.521 116.462)" opacity="0.4">
          <g id="Grupo_1083471" data-name="Grupo 1083471">
            <g id="Grupo_1083470" data-name="Grupo 1083470" clip-path="url(#clip-path-8)">
              <path id="Trazado_833950" data-name="Trazado 833950" d="M302.743,224.524l-12.228-1.259a1.162,1.162,0,0,1-1.037-1.275l1.26-12.228a1.161,1.161,0,0,1,1.274-1.036l12.228,1.259a1.162,1.162,0,0,1,1.037,1.274l-1.26,12.228a1.162,1.162,0,0,1-1.274,1.036" transform="translate(-289.473 -208.72)"/>
            </g>
          </g>
        </g>
        <path id="Trazado_833951" data-name="Trazado 833951" d="M298.72,224.11l-12.228-1.259a1.161,1.161,0,0,1-1.037-1.275l1.26-12.228a1.16,1.16,0,0,1,1.274-1.036l12.228,1.259a1.163,1.163,0,0,1,1.037,1.274l-1.26,12.228a1.162,1.162,0,0,1-1.274,1.036" transform="translate(-126.173 -92.075)" fill="#263238"/>
        <rect id="Rectángulo_385226" data-name="Rectángulo 385226" width="0.558" height="6.526" transform="matrix(0.102, -0.995, 0.995, 0.102, 163.907, 124.08)" fill="#fff"/>
        <path id="Trazado_833952" data-name="Trazado 833952" d="M261.143,258.833l-12.228-1.26a1.161,1.161,0,0,1-1.037-1.274l1.26-12.228a1.162,1.162,0,0,1,1.274-1.037l12.228,1.26a1.162,1.162,0,0,1,1.037,1.274l-1.26,12.228a1.161,1.161,0,0,1-1.274,1.036" transform="translate(-109.564 -107.422)" fill="#e8505b"/>
        <g id="Grupo_1083475" data-name="Grupo 1083475" transform="translate(138.309 135.606)" opacity="0.4">
          <g id="Grupo_1083474" data-name="Grupo 1083474">
            <g id="Grupo_1083473" data-name="Grupo 1083473" clip-path="url(#clip-path-6)">
              <path id="Trazado_833953" data-name="Trazado 833953" d="M261.143,258.833l-12.228-1.26a1.161,1.161,0,0,1-1.037-1.274l1.26-12.228a1.162,1.162,0,0,1,1.274-1.037l12.228,1.26a1.162,1.162,0,0,1,1.037,1.274l-1.26,12.228a1.161,1.161,0,0,1-1.274,1.036" transform="translate(-247.873 -243.029)"/>
            </g>
          </g>
        </g>
        <path id="Trazado_833954" data-name="Trazado 833954" d="M257.119,258.419l-12.228-1.26a1.161,1.161,0,0,1-1.037-1.274l1.26-12.228a1.161,1.161,0,0,1,1.274-1.036l12.228,1.259a1.162,1.162,0,0,1,1.037,1.274l-1.26,12.228a1.161,1.161,0,0,1-1.274,1.036" transform="translate(-107.785 -107.24)" fill="#263238"/>
        <path id="Trazado_833955" data-name="Trazado 833955" d="M298.809,262.714l-12.228-1.26a1.161,1.161,0,0,1-1.037-1.274l1.26-12.228a1.162,1.162,0,0,1,1.274-1.037l12.228,1.26a1.162,1.162,0,0,1,1.037,1.274l-1.26,12.228a1.161,1.161,0,0,1-1.274,1.036" transform="translate(-126.213 -109.138)" fill="#e8505b"/>
        <g id="Grupo_1083478" data-name="Grupo 1083478" transform="translate(159.326 137.771)" opacity="0.4">
          <g id="Grupo_1083477" data-name="Grupo 1083477">
            <g id="Grupo_1083476" data-name="Grupo 1083476" clip-path="url(#clip-path-7)">
              <path id="Trazado_833956" data-name="Trazado 833956" d="M298.809,262.714l-12.228-1.26a1.161,1.161,0,0,1-1.037-1.274l1.26-12.228a1.162,1.162,0,0,1,1.274-1.037l12.228,1.26a1.162,1.162,0,0,1,1.037,1.274l-1.26,12.228a1.161,1.161,0,0,1-1.274,1.036" transform="translate(-285.539 -246.909)"/>
            </g>
          </g>
        </g>
        <path id="Trazado_833957" data-name="Trazado 833957" d="M294.785,262.3l-12.228-1.26a1.161,1.161,0,0,1-1.037-1.274l1.26-12.228a1.161,1.161,0,0,1,1.274-1.036l12.228,1.259a1.162,1.162,0,0,1,1.037,1.274l-1.26,12.228a1.162,1.162,0,0,1-1.274,1.036" transform="translate(-124.434 -108.955)" fill="#455a64"/>
        <rect id="Rectángulo_385229" data-name="Rectángulo 385229" width="0.558" height="6.526" transform="translate(161.794 144.588) rotate(-84.126)" fill="#fff"/>
        <rect id="Rectángulo_385230" data-name="Rectángulo 385230" width="0.558" height="6.526" transform="translate(161.54 147.059) rotate(-84.126)" fill="#fff"/>
        <path id="Trazado_833958" data-name="Trazado 833958" d="M202.059,252.805l-32.318-3.33a1.4,1.4,0,0,1-1.245-1.531l1.25-12.132a1.4,1.4,0,0,1,1.531-1.245l32.317,3.329a1.4,1.4,0,0,1,1.245,1.531l-1.25,12.132a1.4,1.4,0,0,1-1.531,1.245" transform="translate(-74.475 -103.679)" fill="#263238"/>
        <path id="Trazado_833959" data-name="Trazado 833959" d="M198.712,247.87c.206-2,1.431-3.02,2.919-2.866s2.48,1.4,2.274,3.4-1.422,3.02-2.919,2.865-2.48-1.4-2.274-3.4m3.783.389c.142-1.377-.284-2-.985-2.07s-1.235.45-1.377,1.826.283,2,.976,2.068,1.245-.449,1.387-1.825" transform="translate(-87.822 -108.289)" fill="#fff"/>
        <rect id="Rectángulo_385231" data-name="Rectángulo 385231" width="6.526" height="0.557" transform="translate(143.311 146.489) rotate(-83.274)" fill="#fff"/>
        <rect id="Rectángulo_385232" data-name="Rectángulo 385232" width="0.558" height="6.527" transform="translate(140.695 143.224) rotate(-84.122)" fill="#fff"/>
        <path id="Trazado_833960" data-name="Trazado 833960" d="M244.633,72.49l-.933,9.059-.427-.044.892-8.658-2.278-.234.041-.4Z" transform="translate(-106.918 -31.919)" fill="#263238"/>
        <path id="Trazado_833961" data-name="Trazado 833961" d="M255.253,82.57l-.041.4-6.134-.632.032-.31,4.285-3.508c1.228-1,1.528-1.635,1.6-2.372.124-1.2-.637-2.067-2.216-2.23a3.361,3.361,0,0,0-2.83.807l-.268-.315a3.848,3.848,0,0,1,3.152-.892c1.734.179,2.742,1.185,2.591,2.647-.088.855-.436,1.577-1.749,2.645l-3.9,3.2Z" transform="translate(-110.097 -32.483)" fill="#263238"/>
        <path id="Trazado_833962" data-name="Trazado 833962" d="M267.994,81.6c-.155,1.5-1.326,2.453-3.318,2.248a4.1,4.1,0,0,1-3.016-1.58l.265-.286a3.777,3.777,0,0,0,2.779,1.464c1.734.179,2.728-.583,2.862-1.89s-.657-2.251-2.573-2.449l-.5-.052.032-.311,3.2-3.385-5-.514.041-.4,5.564.574-.032.31-3.213,3.4c2.122.219,3.063,1.362,2.908,2.876" transform="translate(-115.658 -32.905)" fill="#263238"/>
        <path id="Trazado_833963" data-name="Trazado 833963" d="M282.966,83.411l-1.967-.2-.27,2.614-.427-.044.269-2.614-5.2-.536.032-.31,5.641-5.618.5.052L275.98,82.3l4.632.477.237-2.3.427.045-.237,2.3,1.967.2Z" transform="translate(-121.718 -33.903)" fill="#263238"/>
        <path id="Trazado_833964" data-name="Trazado 833964" d="M291.5,92.734a2.488,2.488,0,0,1-.127.47l-.645,1.687-.336-.035.586-1.745a.434.434,0,0,1-.332-.466.424.424,0,0,1,.471-.383.433.433,0,0,1,.383.471" transform="translate(-128.357 -40.781)" fill="#263238"/>
        <path id="Trazado_833965" data-name="Trazado 833965" d="M302.446,85.418l-1.967-.2-.27,2.614-.427-.044.269-2.614-5.2-.536.032-.311,5.641-5.618.5.052-5.567,5.547,4.632.477.237-2.3.427.044-.237,2.3,1.967.2Z" transform="translate(-130.328 -34.79)" fill="#263238"/>
        <path id="Trazado_833966" data-name="Trazado 833966" d="M315.483,86.5c-.152,1.475-1.292,2.509-3.35,2.3a4.105,4.105,0,0,1-3-1.578l.278-.285a3.743,3.743,0,0,0,2.766,1.462c1.773.183,2.736-.66,2.869-1.941.144-1.4-.6-2.312-3.188-2.578L310.1,83.7l.919-4.221,4.671.481-.041.4-4.309-.444-.746,3.428,1.4.145c2.769.285,3.661,1.41,3.5,3.015" transform="translate(-136.641 -35.131)" fill="#263238"/>
        <path id="Trazado_833967" data-name="Trazado 833967" d="M140.313,403.364l-3.548,13.117,11.53,1.052,2.423-12.488Z" transform="translate(-60.452 -178.293)" fill="#e8505b"/>
        <path id="Trazado_833968" data-name="Trazado 833968" d="M148.977,425.772a8.143,8.143,0,0,1-1.688-.057c-1.04-.084-2.47-.242-4.045-.445l-4.03-.541a9.55,9.55,0,0,1-1.663-.288,8.219,8.219,0,0,1,1.688.062c1.038.086,2.47.246,4.045.449l4.029.537a9.645,9.645,0,0,1,1.664.283" transform="translate(-60.799 -187.6)" fill="#263238"/>
        <g id="Grupo_1083481" data-name="Grupo 1083481" transform="translate(76.313 236.832)" opacity="0.6">
          <g id="Grupo_1083480" data-name="Grupo 1083480">
            <g id="Grupo_1083479" data-name="Grupo 1083479" clip-path="url(#clip-path-20)">
              <path id="Trazado_833969" data-name="Trazado 833969" d="M136.765,425.8l11.53,1.052.187-.962L137.1,424.441l-.321,1.226" transform="translate(-136.765 -424.442)" fill="#fff"/>
            </g>
          </g>
        </g>
        <path id="Trazado_833970" data-name="Trazado 833970" d="M147.025,417.915a97.761,97.761,0,0,1,2.456-9.987,97.766,97.766,0,0,1-2.456,9.987" transform="translate(-64.984 -180.311)" fill="#263238"/>
        <path id="Trazado_833971" data-name="Trazado 833971" d="M149.176,421.673a5.532,5.532,0,0,0,.026-2.438,4.846,4.846,0,0,0-1.262-2.282,4.719,4.719,0,0,0-2.869-1.319,4.915,4.915,0,0,0-3.088.7,5.349,5.349,0,0,0-1.8,1.907,6.85,6.85,0,0,0-.728,2.34c-.009,0-.014-.06-.017-.174a3.464,3.464,0,0,1,.027-.5,5.255,5.255,0,0,1,.549-1.757,5.383,5.383,0,0,1,1.831-2.028,5.077,5.077,0,0,1,3.249-.76,4.758,4.758,0,0,1,4.291,3.829,4.561,4.561,0,0,1,0,1.841,3.063,3.063,0,0,1-.142.48c-.041.107-.066.161-.075.158" transform="translate(-61.635 -183.587)" fill="#263238"/>
        <path id="Trazado_833972" data-name="Trazado 833972" d="M220.1,400.425l-.684,10.33s10.281,3.412,10.341,5.333l-20.088.146.406-16.139Z" transform="translate(-92.677 -176.848)" fill="#e8505b"/>
        <g id="Grupo_1083484" data-name="Grupo 1083484" transform="translate(119.95 232.82)" opacity="0.6">
          <g id="Grupo_1083483" data-name="Grupo 1083483">
            <g id="Grupo_1083482" data-name="Grupo 1083482" clip-path="url(#clip-path-21)">
              <path id="Trazado_833973" data-name="Trazado 833973" d="M215.578,417.281a.821.821,0,0,0-.6.918.789.789,0,0,0,.906.6.865.865,0,0,0,.625-.976.817.817,0,0,0-1.011-.518" transform="translate(-214.97 -417.252)" fill="#fff"/>
            </g>
          </g>
        </g>
        <g id="Grupo_1083487" data-name="Grupo 1083487" transform="translate(116.992 237.761)" opacity="0.6">
          <g id="Grupo_1083486" data-name="Grupo 1083486">
            <g id="Grupo_1083485" data-name="Grupo 1083485" clip-path="url(#clip-path-22)">
              <path id="Trazado_833974" data-name="Trazado 833974" d="M209.67,427.731l.1-1.625,19.339.534a1.388,1.388,0,0,1,.747,1.091Z" transform="translate(-209.67 -426.106)" fill="#fff"/>
            </g>
          </g>
        </g>
        <path id="Trazado_833975" data-name="Trazado 833975" d="M226.252,418.955c-.006.1-.5.128-.99.428s-.761.705-.85.663c-.089-.022.074-.6.676-.957s1.188-.224,1.164-.134" transform="translate(-99.184 -185.14)" fill="#263238"/>
        <path id="Trazado_833976" data-name="Trazado 833976" d="M230.368,420.676c.02.1-.41.249-.755.654s-.455.84-.552.833c-.093.013-.143-.564.3-1.059s1.012-.522,1.012-.428" transform="translate(-101.22 -185.926)" fill="#263238"/>
        <path id="Trazado_833977" data-name="Trazado 833977" d="M233.376,423.969c-.09.018-.211-.476.057-1s.733-.729.772-.646-.253.361-.467.8-.264.845-.362.852" transform="translate(-103.109 -186.663)" fill="#263238"/>
        <path id="Trazado_833978" data-name="Trazado 833978" d="M225.883,414.482c-.044.088-.489-.061-1.045-.04s-.993.183-1.041.1.377-.422,1.032-.438,1.1.306,1.054.381" transform="translate(-98.92 -183.039)" fill="#263238"/>
        <g id="Grupo_1083490" data-name="Grupo 1083490" transform="translate(117.302 225.414)" opacity="0.3">
          <g id="Grupo_1083489" data-name="Grupo 1083489">
            <g id="Grupo_1083488" data-name="Grupo 1083488" clip-path="url(#clip-path-23)">
              <path id="Trazado_833979" data-name="Trazado 833979" d="M220.209,404.189l-.119,1.841-9.865-.388.037-1.661Z" transform="translate(-210.225 -403.98)"/>
            </g>
          </g>
        </g>
        <path id="Trazado_833980" data-name="Trazado 833980" d="M225.327,409.7a1.886,1.886,0,0,1-1.005-.036,4.51,4.51,0,0,1-1.042-.355,4.713,4.713,0,0,1-.568-.324,1.232,1.232,0,0,1-.3-.246.427.427,0,0,1-.029-.523.539.539,0,0,1,.436-.211,1.3,1.3,0,0,1,.375.064,3.586,3.586,0,0,1,.618.233,3.544,3.544,0,0,1,.909.637c.453.445.6.816.566.834s-.263-.282-.726-.653a4.013,4.013,0,0,0-.882-.532,3.734,3.734,0,0,0-.571-.2c-.211-.062-.392-.069-.45.024-.021.035-.023.05.019.113a1.015,1.015,0,0,0,.218.179,5.234,5.234,0,0,0,.522.32,5.573,5.573,0,0,0,.961.4,6.889,6.889,0,0,1,.945.269" transform="translate(-98.264 -180.347)" fill="#263238"/>
        <path id="Trazado_833981" data-name="Trazado 833981" d="M227.293,408.781a1.6,1.6,0,0,1-.236-.979,3.261,3.261,0,0,1,.445-1.7.832.832,0,0,1,.657-.488.47.47,0,0,1,.411.294,1.353,1.353,0,0,1,.092.372,2.24,2.24,0,0,1-.02.677,2.316,2.316,0,0,1-.461,1.026c-.408.508-.821.613-.828.58-.031-.05.316-.229.632-.72a2.308,2.308,0,0,0,.347-.935,2.071,2.071,0,0,0,0-.581c-.025-.214-.1-.389-.181-.369-.1,0-.274.151-.362.319a3.408,3.408,0,0,0-.266.537,3.618,3.618,0,0,0-.225,1c-.045.589.048.959-.006.972" transform="translate(-100.363 -179.288)" fill="#263238"/>
        <path id="Trazado_833982" data-name="Trazado 833982" d="M145.453,110.815s-2.177,11.886-3.927,19.079c-1.359,5.585-4.877,16.055,1.489,19.1s14.929-9.231,14.929-9.231l3.633-27.973c-2.531.474-5.4,3.406-8.448,7.72l.554-10.612Z" transform="translate(-61.585 -48.133)" fill="#d0dab2"/>
        <path id="Trazado_833983" data-name="Trazado 833983" d="M302.234,133.672l-3.35,1.6-3.082-4.835,1.8-3.733c.171-.346.354-.735.546-1.181a5.105,5.105,0,0,0,.4-1.643,7.783,7.783,0,0,0-.054-2.1c-.166-.623.493-1.133.941-.77s.947,2.068.615,4.125,2.062-.126,2.949-.9,3.739-3.059,4.187-2.97c.657.131.639.877-.264,1.634s-3.456,3.223-3.035,3.681l.02,0a2.518,2.518,0,0,1,2.186,1.954c.228,1.013.412,2.412-.157,2.873a33.1,33.1,0,0,1-3.7,2.272" transform="translate(-130.749 -53.433)" fill="#ffbe9d"/>
        <path id="Trazado_833984" data-name="Trazado 833984" d="M190.914,60.144l-.089,29.078,12.475.595.36-7.072s4.431.88,5.574-3.235c.73-2.629.547-22.944.547-22.944Z" transform="translate(-84.348 -25.003)" fill="#ffbe9d"/>
        <path id="Trazado_833985" data-name="Trazado 833985" d="M208.935,55.821c-.84,1.738-4.842,4.917-4.842,4.917l-1.807,4.844c-1.57-1.229-3.678-1.158-4.077,1.6-.288,1.994,2.19,2.4,2.19,2.4a36.149,36.149,0,0,1-4.522,6.778c-2.274,2.528-3.548,2.783-6.015,2.824h-2.72s-5.565-4.65-4.465-16.9,12.111-8.674,14.739-11.734c4.28-4.984,14.324-.528,11.519,5.272" transform="translate(-80.683 -21.391)" fill="#263238"/>
        <path id="Trazado_833986" data-name="Trazado 833986" d="M183.9,76.229s.121,0,.348,0a5.5,5.5,0,0,0,.987-.114,7.057,7.057,0,0,0,3.2-1.692,17.82,17.82,0,0,0,3.239-4.335c.528-.878,1.081-1.806,1.75-2.7a10.382,10.382,0,0,1,2.448-2.44,10.118,10.118,0,0,1,3.181-1.355c1.084-.282,2.149-.455,3.154-.651a11.86,11.86,0,0,0,5.037-1.883,5.453,5.453,0,0,0,2.039-2.946,4.261,4.261,0,0,0,.119-.985c-.012-.227-.012-.348-.012-.348s.016.119.036.347a4.011,4.011,0,0,1-.1,1,5.449,5.449,0,0,1-2.033,3,11.858,11.858,0,0,1-5.067,1.923c-1.007.2-2.069.374-3.145.656a10.053,10.053,0,0,0-3.144,1.341,10.312,10.312,0,0,0-2.422,2.412c-.665.892-1.219,1.815-1.749,2.692a17.686,17.686,0,0,1-3.277,4.341,7.005,7.005,0,0,1-3.241,1.675,5.072,5.072,0,0,1-1,.093c-.229-.012-.348-.023-.348-.023" transform="translate(-81.286 -25.096)" fill="#455a64"/>
        <path id="Trazado_833987" data-name="Trazado 833987" d="M182.748,64.985s.2-.076.578-.2a8.4,8.4,0,0,1,1.71-.406,3.872,3.872,0,0,1,2.676.578,2.234,2.234,0,0,1,.955,1.426,2.007,2.007,0,0,1-.55,1.822,1.561,1.561,0,0,1-.978.393,2.031,2.031,0,0,1-1.066-.286,3.208,3.208,0,0,1-1.426-1.806,4.54,4.54,0,0,1-.108-2.478,4.316,4.316,0,0,1,1.344-2.253,4.49,4.49,0,0,1,2.517-1.126,7.705,7.705,0,0,1,2.867.371,19.87,19.87,0,0,0,2.9.695,11.752,11.752,0,0,0,3.057.007,10.116,10.116,0,0,0,2.942-.814,3.474,3.474,0,0,0,1.971-2.066,2.683,2.683,0,0,0-.655-2.616,2.3,2.3,0,0,0-2.52-.373,1.908,1.908,0,0,0-.93.871,2.1,2.1,0,0,0-.2,1.233,2.849,2.849,0,0,0,1.269,2,4.159,4.159,0,0,0,2.181.613,6.493,6.493,0,0,0,2.093-.314,7.549,7.549,0,0,0,3.1-1.886,8.013,8.013,0,0,0,1.6-2.243,8.437,8.437,0,0,0,.585-1.648c.076-.393.122-.6.122-.6s-.03.209-.1.6a8.115,8.115,0,0,1-.567,1.662,7.991,7.991,0,0,1-1.595,2.269,7.6,7.6,0,0,1-3.118,1.919,6.591,6.591,0,0,1-2.119.325,4.24,4.24,0,0,1-2.231-.622,2.946,2.946,0,0,1-1.319-2.066,2.207,2.207,0,0,1,.208-1.293,2.011,2.011,0,0,1,.978-.921,2.4,2.4,0,0,1,2.642.39,2.794,2.794,0,0,1,.687,2.727,3.586,3.586,0,0,1-2.031,2.139,10.208,10.208,0,0,1-2.977.824,11.836,11.836,0,0,1-3.087-.007,19.862,19.862,0,0,1-2.914-.7,7.634,7.634,0,0,0-2.826-.37,4.358,4.358,0,0,0-3.673,5.717,3.117,3.117,0,0,0,1.379,1.759,1.949,1.949,0,0,0,1.018.277,1.478,1.478,0,0,0,.926-.368,1.931,1.931,0,0,0,.532-1.748,2.167,2.167,0,0,0-.92-1.386,3.837,3.837,0,0,0-2.634-.586,8.759,8.759,0,0,0-1.707.384c-.383.12-.585.181-.585.181" transform="translate(-80.778 -23.813)" fill="#455a64"/>
        <path id="Trazado_833988" data-name="Trazado 833988" d="M154.855,215.646,138.248,324.717l13.793,1.751L171.5,234.982l4.9,92.1,14.949-.261L188.873,215.9Z" transform="translate(-61.108 -95.319)" fill="#263238"/>
        <path id="Trazado_833989" data-name="Trazado 833989" d="M175.887,327.144l-.015-.269-4.788-89.993-19.075,89.673-14.331-1.818,16.686-109.594,34.53.26,2.491,111.471Zm-4.469-94.508,5,93.941,14.4-.252-2.466-110.369-33.506-.253-16.528,108.55,13.254,1.683Z" transform="translate(-60.856 -95.096)" fill="#263238"/>
        <path id="Trazado_833990" data-name="Trazado 833990" d="M225.342,337.25c-.08,0-.145-21.854-.145-48.806s.065-48.811.145-48.811.145,21.85.145,48.811-.065,48.806-.145,48.806" transform="translate(-99.541 -105.922)" fill="#455a64"/>
        <path id="Trazado_833991" data-name="Trazado 833991" d="M157.528,342.143a1.464,1.464,0,0,1,.033-.237l.126-.691.512-2.651,1.956-9.736c1.675-8.216,4.047-19.554,6.77-32.054s5.285-23.8,7.181-31.971c.957-4.071,1.732-7.369,2.272-9.666.273-1.128.488-2.009.637-2.624.073-.289.131-.514.172-.681a1.475,1.475,0,0,1,.069-.23,1.4,1.4,0,0,1-.04.237l-.145.687-.584,2.635c-.518,2.3-1.263,5.608-2.182,9.687-1.844,8.18-4.372,19.484-7.1,31.986s-5.127,23.83-6.853,32.034l-2.046,9.717-.566,2.64c-.065.291-.117.518-.154.685a1.415,1.415,0,0,1-.062.232" transform="translate(-69.629 -111.213)" fill="#455a64"/>
        <path id="Trazado_833992" data-name="Trazado 833992" d="M193.929,250.1a2.7,2.7,0,0,1-.631.084l-1.724.122c-1.455.1-3.467.2-5.677.413s-4.2.516-5.649.706l-1.714.218a2.707,2.707,0,0,1-.635.042,2.658,2.658,0,0,1,.618-.153c.4-.08.981-.186,1.7-.309,1.439-.242,3.43-.57,5.652-.792s4.238-.285,5.7-.329c.729-.02,1.32-.03,1.728-.03a2.676,2.676,0,0,1,.636.03" transform="translate(-78.634 -110.536)" fill="#455a64"/>
        <path id="Trazado_833993" data-name="Trazado 833993" d="M223.026,232.788a1.184,1.184,0,0,1-.429.108,5.913,5.913,0,0,1-1.2.054,6.988,6.988,0,0,1-6.158-4.425,5.974,5.974,0,0,1-.333-1.158,1.177,1.177,0,0,1-.034-.441c.051-.011.147.612.556,1.519a7.27,7.27,0,0,0,5.984,4.3c.99.1,1.611-.009,1.617.043" transform="translate(-94.971 -100.304)" fill="#455a64"/>
        <path id="Trazado_833994" data-name="Trazado 833994" d="M162.922,171.2l38.207-.123-2.09-25.215c-.232-5.77-.2-6.458-.339-11.785,0,0,5.424,6.558,9.689,11.156a8.692,8.692,0,0,0,10.09,1.936L240.8,131.6l-4.18-10.693L216.336,133.32c-.929-.577-8.828-11.843-14.286-17.345a19.312,19.312,0,0,0-13.16-5.691,96.2,96.2,0,0,0-12.324.494,12.9,12.9,0,0,0-11.475,11.753c-.4,4.714-.078,10.188-.078,19.49Z" transform="translate(-72.014 -48.733)" fill="#d0dab2"/>
        <path id="Trazado_833995" data-name="Trazado 833995" d="M166.075,136.827s.006.1.006.295c0,.226,0,.5-.005.844-.011.733-.01,1.794,0,3.1.014,2.621.12,6.241.233,10.24s.134,7.625.034,10.247c-.046,1.311-.1,2.37-.165,3.1-.028.338-.051.616-.069.841-.017.193-.032.293-.032.293s0-.1.008-.295c.013-.225.028-.5.047-.843.047-.732.093-1.791.128-3.1.079-2.62.045-6.242-.068-10.241s-.206-7.62-.2-10.242c0-1.311.015-2.373.039-3.105.011-.339.02-.618.027-.844.007-.193.017-.294.017-.294" transform="translate(-73.371 -60.48)" fill="#263238"/>
        <path id="Trazado_833996" data-name="Trazado 833996" d="M257.147,155.264a2.434,2.434,0,0,1,.08-.526c.065-.322.161-.766.276-1.254s.224-.929.309-1.247a2.381,2.381,0,0,1,.161-.507,2.483,2.483,0,0,1-.082.528c-.064.323-.161.765-.275,1.252s-.223.927-.308,1.244a2.458,2.458,0,0,1-.161.509" transform="translate(-113.661 -67.067)" fill="#263238"/>
        <path id="Trazado_833997" data-name="Trazado 833997" d="M260.062,155.419a37.034,37.034,0,0,1-.922-4.045,37.133,37.133,0,0,1,.922,4.045" transform="translate(-114.542 -66.91)" fill="#263238"/>
        <path id="Trazado_833998" data-name="Trazado 833998" d="M221.439,135.944s-.075-.063-.209-.191l-.583-.566c-.5-.495-1.23-1.213-2.1-2.131a34.771,34.771,0,0,1-2.85-3.4,19.684,19.684,0,0,1-2.592-4.766,13.311,13.311,0,0,1-.854-5.345,11.029,11.029,0,0,1,.961-4.315,6.348,6.348,0,0,1,1.877-2.309,6.164,6.164,0,0,1,.68-.448c.161-.093.248-.137.248-.137.011.018-.345.187-.9.62a6.413,6.413,0,0,0-1.831,2.308,11.057,11.057,0,0,0-.928,4.284,13.3,13.3,0,0,0,.857,5.3,19.845,19.845,0,0,0,2.57,4.744A36.136,36.136,0,0,0,218.611,133c.857.925,1.575,1.651,2.068,2.156l.567.581c.129.134.193.208.193.208" transform="translate(-93.811 -49.654)" fill="#263238"/>
        <path id="Trazado_833999" data-name="Trazado 833999" d="M182.319,133.657a12.816,12.816,0,0,1-2.394-3.02,12.842,12.842,0,0,1,2.394,3.02" transform="translate(-79.527 -57.742)" fill="#fafafa"/>
        <path id="Trazado_834000" data-name="Trazado 834000" d="M196.75,153.712a25.254,25.254,0,0,1-3.826,3.817,12.763,12.763,0,0,1,1.811-2.011,12.609,12.609,0,0,1,2.015-1.806" transform="translate(-85.274 -67.942)" fill="#fafafa"/>
        <path id="Trazado_834001" data-name="Trazado 834001" d="M213.212,176.274c-.082.025-.388-.838-.955-1.8s-1.162-1.656-1.1-1.715a5.725,5.725,0,0,1,2.055,3.513" transform="translate(-93.333 -76.362)" fill="#fafafa"/>
        <path id="Trazado_834002" data-name="Trazado 834002" d="M174.941,171.656a10.775,10.775,0,0,1-1-5.724c.086,0,.114,1.305.4,2.881s.691,2.813.609,2.843" transform="translate(-76.847 -73.345)" fill="#fafafa"/>
        <path id="Trazado_834003" data-name="Trazado 834003" d="M196.006,183.561a7.088,7.088,0,0,1-.428-4.785c.086.012-.037,1.088.085,2.4s.425,2.354.343,2.381" transform="translate(-86.343 -79.022)" fill="#fafafa"/>
        <path id="Trazado_834004" data-name="Trazado 834004" d="M184.3,201.043a31.155,31.155,0,0,1-5.094-3.184,31.155,31.155,0,0,1,5.094,3.184" transform="translate(-79.21 -87.454)" fill="#fafafa"/>
        <path id="Trazado_834005" data-name="Trazado 834005" d="M216.248,198.766c.036.078-1.259.721-2.76,1.672s-2.643,1.837-2.7,1.772a15.073,15.073,0,0,1,5.457-3.443" transform="translate(-93.172 -87.855)" fill="#fafafa"/>
        <path id="Trazado_834006" data-name="Trazado 834006" d="M175.609,216.206a27.869,27.869,0,0,1-5.573-1.112,27.837,27.837,0,0,1,5.573,1.112" transform="translate(-75.159 -95.067)" fill="#fafafa"/>
        <path id="Trazado_834007" data-name="Trazado 834007" d="M199.987,210.555a7.243,7.243,0,0,1-2.07-3.821c.08-.026.426.884,1,1.931s1.138,1.836,1.072,1.89" transform="translate(-87.477 -91.379)" fill="#fafafa"/>
        <path id="Trazado_834008" data-name="Trazado 834008" d="M224.4,215.273a4.156,4.156,0,0,1-.869,1.266c-.541.648-1.03,1.132-1.092,1.08a4.152,4.152,0,0,1,.869-1.266c.541-.648,1.03-1.132,1.091-1.08" transform="translate(-98.319 -95.152)" fill="#fafafa"/>
        <path id="Trazado_834009" data-name="Trazado 834009" d="M179.579,146.527c.045.067-.454.478-1.113.918a3.679,3.679,0,0,1-1.274.676c-.045-.067.454-.478,1.113-.918a3.664,3.664,0,0,1,1.274-.676" transform="translate(-78.32 -64.763)" fill="#fafafa"/>
        <path id="Trazado_834010" data-name="Trazado 834010" d="M197.092,123.041a20.4,20.4,0,0,1-1.571-5.859,21.957,21.957,0,0,1,.847,2.913,22,22,0,0,1,.724,2.946" transform="translate(-86.417 -51.796)" fill="#fafafa"/>
        <path id="Trazado_834011" data-name="Trazado 834011" d="M211.533,144.184c-.035.078-.849-.235-1.9-.431s-1.918-.213-1.921-.3a5.452,5.452,0,0,1,3.817.73" transform="translate(-91.814 -63.363)" fill="#fafafa"/>
        <path id="Trazado_834012" data-name="Trazado 834012" d="M222.416,129.751a5.782,5.782,0,0,1-4.14-.637c.033-.08.917.249,2.054.419s2.077.132,2.085.218" transform="translate(-96.481 -57.065)" fill="#fafafa"/>
        <path id="Trazado_834013" data-name="Trazado 834013" d="M237.048,141.739a13.993,13.993,0,0,1,.979-6.045c.082.025-.271,1.35-.537,3.015s-.357,3.033-.441,3.03" transform="translate(-104.753 -59.979)" fill="#fafafa"/>
        <path id="Trazado_834014" data-name="Trazado 834014" d="M247.5,162.6a25.171,25.171,0,0,1-3.761-3.88,25.231,25.231,0,0,1,3.761,3.88" transform="translate(-107.737 -70.157)" fill="#fafafa"/>
        <path id="Trazado_834015" data-name="Trazado 834015" d="M259.845,164.208a14.921,14.921,0,0,1-2.249,3.49,14.922,14.922,0,0,1,2.249-3.49" transform="translate(-113.858 -72.582)" fill="#fafafa"/>
        <path id="Trazado_834016" data-name="Trazado 834016" d="M272.85,154.406a20.835,20.835,0,0,1-2.145-4.421,20.836,20.836,0,0,1,2.145,4.421" transform="translate(-119.652 -66.295)" fill="#fafafa"/>
        <path id="Trazado_834017" data-name="Trazado 834017" d="M288.14,149.893a22.891,22.891,0,0,1-5.076-.9,22.971,22.971,0,0,1,5.076.9" transform="translate(-125.119 -65.846)" fill="#fafafa"/>
        <path id="Trazado_834018" data-name="Trazado 834018" d="M152.349,165.421a25.9,25.9,0,0,1,2.336-4.96,25.984,25.984,0,0,1-2.336,4.96" transform="translate(-67.337 -70.926)" fill="#d0dab2"/>
        <path id="Trazado_834019" data-name="Trazado 834019" d="M159.176,150.1a19.337,19.337,0,0,1-3.164-3.52,19.332,19.332,0,0,1,3.164,3.52" transform="translate(-68.958 -64.789)" fill="#fafafa"/>
        <path id="Trazado_834020" data-name="Trazado 834020" d="M159.394,179.321c.051.062-.335.468-.863.907s-1,.745-1.05.683.335-.468.864-.907,1-.745,1.049-.683" transform="translate(-69.607 -79.259)" fill="#fafafa"/>
        <path id="Trazado_834021" data-name="Trazado 834021" d="M163.047,135.4c.062.05-.172.447-.523.887s-.687.755-.75.705.172-.447.523-.887.688-.756.75-.705" transform="translate(-71.502 -59.845)" fill="#fafafa"/>
        <g id="Grupo_1083493" data-name="Grupo 1083493" transform="translate(120.707 78.089)" opacity="0.3">
          <g id="Grupo_1083492" data-name="Grupo 1083492">
            <g id="Grupo_1083491" data-name="Grupo 1083491" clip-path="url(#clip-path-24)">
              <path id="Trazado_834022" data-name="Trazado 834022" d="M216.327,139.948c2.36,7.415,4.182,15.2,6.541,22.614l-.562-15.359a36.822,36.822,0,0,1-5.979-7.255" transform="translate(-216.327 -139.948)"/>
            </g>
          </g>
        </g>
        <path id="Trazado_834023" data-name="Trazado 834023" d="M147.519,144.061a1.178,1.178,0,0,1,.072-.182l.227-.514c.2-.446.5-1.086.875-1.873.757-1.573,1.853-3.722,3.165-6.041s2.595-4.364,3.555-5.821c.48-.729.876-1.314,1.157-1.713l.324-.459a1.159,1.159,0,0,1,.12-.156,1.415,1.415,0,0,1-.1.169l-.306.471-1.125,1.733c-.942,1.467-2.21,3.518-3.523,5.834s-2.418,4.457-3.192,6.02c-.364.744-.668,1.367-.908,1.856l-.247.5a1.2,1.2,0,0,1-.093.173" transform="translate(-65.205 -56.269)" fill="#263238"/>
        <path id="Trazado_834024" data-name="Trazado 834024" d="M151.374,144.607c.006.018-.235.1-.609.257a7.763,7.763,0,0,0-2.587,1.8c-.281.295-.437.493-.453.482s.026-.059.092-.154a4.381,4.381,0,0,1,.3-.383,6.519,6.519,0,0,1,2.617-1.821,4.374,4.374,0,0,1,.464-.148.523.523,0,0,1,.176-.032" transform="translate(-65.297 -63.918)" fill="#263238"/>
        <path id="Trazado_834025" data-name="Trazado 834025" d="M152.328,124.095a16.629,16.629,0,0,1-1.7,2.594,16.651,16.651,0,0,1-1.932,2.423,33.112,33.112,0,0,1,3.629-5.017" transform="translate(-65.726 -54.851)" fill="#fafafa"/>
        <path id="Trazado_834026" data-name="Trazado 834026" d="M162.428,102.688a1.344,1.344,0,0,0,1.417-.67c.312-.466.456-1.025.734-1.513.829-1.459,2.715-2.094,3.473-3.591.106-.209.171-.5-.011-.647s-.417-.045-.611.052l-4.97,2.489" transform="translate(-71.796 -42.521)" fill="#ffbe9d"/>
        <path id="Trazado_834027" data-name="Trazado 834027" d="M162.46,98.691a2.23,2.23,0,0,1,.51-.324c.338-.19.831-.456,1.443-.779l2.159-1.119.626-.319a1.1,1.1,0,0,1,.81-.195.47.47,0,0,1,.3.43.963.963,0,0,1-.1.444,3.648,3.648,0,0,1-.448.686,21.276,21.276,0,0,1-2.254,1.972,4.2,4.2,0,0,0-.81.955c-.2.336-.329.694-.484,1.01a1.955,1.955,0,0,1-1.178,1.165.7.7,0,0,1-.61-.047,1.628,1.628,0,0,0,.572-.07,1.9,1.9,0,0,0,1.012-1.142c.137-.31.254-.675.459-1.047a4.324,4.324,0,0,1,.84-1.039,24.765,24.765,0,0,0,2.207-1.958,3.431,3.431,0,0,0,.407-.619c.1-.208.1-.422-.024-.449-.128-.05-.357.065-.568.173l-.631.31-2.189,1.058c-.625.3-1.134.532-1.488.689a2.225,2.225,0,0,1-.565.214" transform="translate(-71.795 -42.402)" fill="#eb996e"/>
      </g>
    </g>
    <rect id="Rectángulo_385239" data-name="Rectángulo 385239" width="35.318" height="4.853" transform="translate(244.449 209.713)" fill="#263238"/>
    <path id="Trazado_834028" data-name="Trazado 834028" d="M473.422,380.7H437.984v-4.974h35.438Zm-35.317-.121h35.2v-4.732h-35.2Z" transform="translate(-193.596 -166.079)" fill="#263238"/>
    <path id="Trazado_834029" data-name="Trazado 834029" d="M443.961,381.642l5.084,25.08h18.81l4.914-23.464Z" transform="translate(-196.238 -168.692)" fill="#263238"/>
    <path id="Trazado_834030" data-name="Trazado 834030" d="M443.961,422.337l2.711,3.728h22.863l3.234-3.728Z" transform="translate(-196.238 -186.68)" fill="#455a64"/>
    <g id="Grupo_1083500" data-name="Grupo 1083500">
      <g id="Grupo_1083499" data-name="Grupo 1083499" clip-path="url(#clip-path)">
        <path id="Trazado_834031" data-name="Trazado 834031" d="M467.19,341.843c-.069,0-.158-11.618-.2-25.948s-.017-25.951.052-25.951.158,11.616.2,25.95.017,25.949-.053,25.949" transform="translate(-206.409 -128.16)" fill="#263238"/>
        <path id="Trazado_834032" data-name="Trazado 834032" d="M478.886,330.847a1.222,1.222,0,0,1-.095.27l-.315.752-.23.541-.235.66-.272.757c-.094.268-.169.561-.261.863a35.151,35.151,0,0,0-.988,4.324,52.586,52.586,0,0,0-.547,5.407,72.848,72.848,0,0,0,.28,9.877c.113,1.261.228,2.281.312,2.984.036.33.065.6.089.811a1.243,1.243,0,0,1,.015.286,1.177,1.177,0,0,1-.064-.278c-.036-.211-.081-.478-.136-.805-.114-.7-.256-1.717-.392-2.979a65.015,65.015,0,0,1-.354-9.907,49.389,49.389,0,0,1,.57-5.434,32.807,32.807,0,0,1,1.046-4.338c.1-.3.179-.594.28-.863l.292-.754.256-.655c.088-.2.176-.374.252-.536l.359-.734a1.209,1.209,0,0,1,.141-.248" transform="translate(-210.238 -146.24)" fill="#263238"/>
        <path id="Trazado_834033" data-name="Trazado 834033" d="M476.212,314.006a2.4,2.4,0,0,1-.112.383q-.137.4-.368,1.08-.123.354-.27.778l-.285.938c-.206.672-.446,1.436-.658,2.3q-.17.643-.354,1.343-.16.708-.331,1.469c-.247,1.011-.425,2.11-.653,3.258-.389,2.308-.732,4.859-.968,7.549s-.32,5.266-.355,7.608c-.007,2.341.023,4.45.119,6.219.031.886.088,1.685.134,2.387s.084,1.307.129,1.8q.054.714.086,1.138a2.326,2.326,0,0,1,.013.4,2.413,2.413,0,0,1-.064-.393q-.049-.423-.133-1.134c-.06-.493-.118-1.1-.172-1.8s-.128-1.5-.171-2.388c-.119-1.77-.167-3.884-.173-6.23.021-2.347.112-4.927.335-7.627s.588-5.257.991-7.569c.235-1.15.421-2.25.677-3.263l.346-1.47.371-1.343c.224-.859.476-1.622.7-2.292l.3-.934.291-.773.413-1.066a2.343,2.343,0,0,1,.16-.365" transform="translate(-208.466 -138.796)" fill="#263238"/>
        <path id="Trazado_834034" data-name="Trazado 834034" d="M458.029,345.143a.543.543,0,0,1-.02-.136c-.008-.1-.02-.236-.033-.4-.025-.37-.06-.885-.1-1.538-.085-1.355-.205-3.284-.354-5.66-.307-4.777-.75-11.378-1.554-18.637-.411-3.629-.887-7.076-1.383-10.2-.263-1.56-.5-3.044-.773-4.425-.248-1.385-.516-2.668-.763-3.838s-.49-2.225-.7-3.153-.4-1.723-.568-2.371-.278-1.137-.367-1.5c-.036-.161-.066-.289-.089-.391a.547.547,0,0,1-.022-.136.565.565,0,0,1,.047.128l.113.385.413,1.486c.18.645.392,1.437.61,2.363s.493,1.975.736,3.148.536,2.452.793,3.837c.28,1.381.527,2.866.8,4.426.509,3.127.993,6.578,1.4,10.211.8,7.266,1.22,13.873,1.482,18.654.13,2.391.22,4.327.274,5.665.024.655.043,1.17.056,1.541,0,.164.006.3.008.4a.541.541,0,0,1-.006.137" transform="translate(-199.482 -129.405)" fill="#263238"/>
        <path id="Trazado_834035" data-name="Trazado 834035" d="M458.047,297.653a3.5,3.5,0,0,0-3.47-2.9,5.464,5.464,0,0,0-4.2,2.282,13.154,13.154,0,0,0-2.024,4.494,30.531,30.531,0,0,0-1.246,11.959,18.1,18.1,0,0,0,4.977,10.781,2.038,2.038,0,0,0,1.714.783,2.065,2.065,0,0,0,.9-.559,26.76,26.76,0,0,0,8.685-20.35,8.264,8.264,0,0,0-1.088-4.378c-.844-1.269-2.811-2.617-4.247-2.108" transform="translate(-197.554 -130.283)" fill="#e8505b"/>
        <path id="Trazado_834036" data-name="Trazado 834036" d="M437.594,271.554l-2.328,4.217c-.054.1-.126.208-.238.218s-.214-.105-.281-.208l-6.156-9.447,1.418-.8Z" transform="translate(-189.444 -117.368)" fill="#e8505b"/>
        <g id="Grupo_1083498" data-name="Grupo 1083498" transform="translate(239.147 148.161)" opacity="0.2">
          <g id="Grupo_1083497" data-name="Grupo 1083497">
            <g id="Grupo_1083496" data-name="Grupo 1083496" clip-path="url(#clip-path-26)">
              <path id="Trazado_834037" data-name="Trazado 834037" d="M437.594,271.554l-2.328,4.217c-.054.1-.126.208-.238.218s-.214-.105-.281-.208l-6.156-9.447,1.418-.8Z" transform="translate(-428.591 -265.529)"/>
            </g>
          </g>
        </g>
        <path id="Trazado_834038" data-name="Trazado 834038" d="M450.049,275.534l-21-12.391a.978.978,0,0,1-.511-.516c-.084-.31.15-.61.373-.841a14.472,14.472,0,0,1,11.222-4.408,12.819,12.819,0,0,1,10.144,6.309,11.566,11.566,0,0,1-.23,11.847" transform="translate(-189.414 -113.751)" fill="#e8505b"/>
        <path id="Trazado_834039" data-name="Trazado 834039" d="M434.894,260.59a1.136,1.136,0,0,1,.275-.034c.181-.009.449-.042.793-.039a15.8,15.8,0,0,1,2.914.232,17.026,17.026,0,0,1,13.59,12.3,15.787,15.787,0,0,1,.521,2.876,6.06,6.06,0,0,1,.032.612,1.025,1.025,0,0,1-.162.458,3.527,3.527,0,0,0,.032-1.06,17.839,17.839,0,0,0-.594-2.837,17.153,17.153,0,0,0-13.451-12.171,17.867,17.867,0,0,0-2.883-.309c-.686-.015-1.067,0-1.068-.026" transform="translate(-192.23 -115.151)" fill="#263238"/>
        <path id="Trazado_834040" data-name="Trazado 834040" d="M456.02,274.613a5.082,5.082,0,0,1-1.061.483c-.669.263-1.6.6-2.65.933s-2,.6-2.7.767a5.119,5.119,0,0,1-1.146.219,5.678,5.678,0,0,1,1.1-.39l2.674-.835,2.665-.861a5.705,5.705,0,0,1,1.122-.315" transform="translate(-198.227 -121.381)" fill="#263238"/>
        <path id="Trazado_834041" data-name="Trazado 834041" d="M456.05,258.7a14.682,14.682,0,0,1,.119,4.694,43.918,43.918,0,0,1-.119-4.694" transform="translate(-201.563 -114.349)" fill="#263238"/>
        <path id="Trazado_834042" data-name="Trazado 834042" d="M429.142,265.267a9.451,9.451,0,0,1,1.525-.537c.954-.294,2.282-.666,3.763-1.023s2.834-.63,3.817-.8a9.318,9.318,0,0,1,1.6-.216,11.316,11.316,0,0,1-1.567.391c-.973.216-2.316.517-3.793.873s-2.81.7-3.774.95a11.262,11.262,0,0,1-1.573.365" transform="translate(-189.688 -116.109)" fill="#263238"/>
        <path id="Trazado_834043" data-name="Trazado 834043" d="M432.509,292.313a8.613,8.613,0,0,0-5.98-1.549,18.281,18.281,0,0,0-6.545,1.689A20.177,20.177,0,0,0,411,299.524a11.8,11.8,0,0,0-1.268,11.044,1.572,1.572,0,0,0,.717.87,1.712,1.712,0,0,0,1.185-.091,66.3,66.3,0,0,0,11.785-4.7,22.239,22.239,0,0,0,9.06-8.658,7.444,7.444,0,0,0,.954-2.873,3.574,3.574,0,0,0-.924-2.806" transform="translate(-180.731 -128.515)" fill="#e8505b"/>
        <path id="Trazado_834044" data-name="Trazado 834044" d="M433.647,292.791a1.483,1.483,0,0,1-.29.118l-.844.29-.611.2c-.221.08-.458.179-.714.278-.509.206-1.1.412-1.724.715l-.988.45c-.343.158-.684.352-1.046.537-.73.359-1.469.816-2.255,1.281a35.627,35.627,0,0,0-8.884,7.816c-.561.721-1.109,1.395-1.558,2.073-.229.335-.465.65-.666.969l-.572.922c-.379.579-.659,1.139-.928,1.619-.131.242-.259.463-.367.672l-.279.58-.4.8a.157.157,0,1,1-.046-.02l.353-.821.261-.591c.1-.214.224-.439.349-.685.259-.488.529-1.057.9-1.645l.561-.936c.2-.324.431-.643.657-.983.444-.687.99-1.371,1.549-2.1a34.5,34.5,0,0,1,8.942-7.867c.8-.462,1.542-.916,2.28-1.269.367-.181.713-.373,1.059-.527l1-.437c.631-.293,1.23-.488,1.746-.683.26-.093.5-.186.724-.259l.62-.184.86-.245a1.442,1.442,0,0,1,.3-.069" transform="translate(-181.833 -129.417)" fill="#263238"/>
        <path id="Trazado_834045" data-name="Trazado 834045" d="M418.991,306.479a84.663,84.663,0,0,1-8.856,2.59,84.655,84.655,0,0,1,8.856-2.59" transform="translate(-181.286 -135.466)" fill="#263238"/>
        <path id="Trazado_834046" data-name="Trazado 834046" d="M425.592,316.457a6.993,6.993,0,0,1-.1-1.369c-.023-.846-.027-2.016.009-3.307s.106-2.46.176-3.3a7,7,0,0,1,.173-1.361,7.881,7.881,0,0,1,.005,1.371c-.029.927-.064,2.054-.1,3.3s-.06,2.373-.083,3.3a7.791,7.791,0,0,1-.081,1.369" transform="translate(-188.068 -135.751)" fill="#263238"/>
        <path id="Trazado_834047" data-name="Trazado 834047" d="M439.967,307.85c-.069.005-.29-2.372-.493-5.308s-.311-5.322-.242-5.327.29,2.371.493,5.309.311,5.321.242,5.326" transform="translate(-194.138 -131.374)" fill="#263238"/>
        <path id="Trazado_834048" data-name="Trazado 834048" d="M422.041,296.767a7.819,7.819,0,0,1,1.408-.042c.868.006,2.066.031,3.389.075s2.522.1,3.388.149a7.857,7.857,0,0,1,1.4.135,7.785,7.785,0,0,1-1.406.042c-.868-.006-2.067-.031-3.392-.075s-2.523-.1-3.39-.15a7.8,7.8,0,0,1-1.4-.135" transform="translate(-186.549 -131.157)" fill="#263238"/>
        <path id="Trazado_834049" data-name="Trazado 834049" d="M457.687,327.164a1.172,1.172,0,0,1-.03-.281c-.01-.212-.022-.479-.037-.807-.032-.7-.039-1.718-.012-2.973s.108-2.75.259-4.4.4-3.466.739-5.354.766-3.669,1.2-5.276.889-3.035,1.31-4.222.783-2.139,1.06-2.787l.319-.745a1.239,1.239,0,0,1,.127-.253,1.174,1.174,0,0,1-.08.272c-.072.2-.164.451-.275.762-.249.657-.588,1.616-.983,2.807s-.827,2.622-1.255,4.224-.825,3.381-1.172,5.262-.58,3.687-.755,5.333-.267,3.136-.312,4.389-.069,2.266-.068,2.967c0,.329-.007.6-.01.807a1.178,1.178,0,0,1-.021.282" transform="translate(-202.263 -132.631)" fill="#263238"/>
        <path id="Trazado_834050" data-name="Trazado 834050" d="M454.706,324a5.75,5.75,0,0,1-.838.92c-.543.541-1.315,1.269-2.195,2.041s-1.7,1.441-2.311,1.909a5.74,5.74,0,0,1-1.021.71,6.485,6.485,0,0,1,.908-.848l2.258-1.96,2.239-1.981a6.475,6.475,0,0,1,.959-.79" transform="translate(-198.174 -143.211)" fill="#263238"/>
        <path id="Trazado_834051" data-name="Trazado 834051" d="M466.958,326.836a9.9,9.9,0,0,1-.892-1.236l-2.075-3.028-2.118-3a9.886,9.886,0,0,1-.848-1.266,8.536,8.536,0,0,1,.991,1.16c.582.74,1.361,1.782,2.182,2.961s1.527,2.272,2.018,3.075a8.59,8.59,0,0,1,.743,1.332" transform="translate(-203.78 -140.697)" fill="#263238"/>
        <path id="Trazado_834052" data-name="Trazado 834052" d="M457.5,303.416c.037.059-2.17,1.545-4.93,3.319s-5.03,3.167-5.067,3.108,2.169-1.545,4.931-3.319,5.029-3.167,5.066-3.108" transform="translate(-197.803 -134.114)" fill="#263238"/>
        <path id="Trazado_834053" data-name="Trazado 834053" d="M471.424,310.426a82.12,82.12,0,0,1-6.5-6.352,82.14,82.14,0,0,1,6.5,6.352" transform="translate(-205.502 -134.405)" fill="#263238"/>
        <path id="Trazado_834054" data-name="Trazado 834054" d="M479.382,304.229l1.9-.157A9.387,9.387,0,0,0,485.1,302.9a15.177,15.177,0,0,1,1.784-.9c2.343-.941,4.957-.772,7.479-.9a30.968,30.968,0,0,0,11.9-3.042,1.155,1.155,0,0,0,.518-.47c.39-.709-.334-1.341-.956-1.724-3.193-1.967-6.443-3.96-10.064-4.937s-7.731-.811-10.821,1.315c-3.626,2.5-4.948,7.622-5.561,11.982" transform="translate(-211.895 -128.343)" fill="#e8505b"/>
        <path id="Trazado_834055" data-name="Trazado 834055" d="M506.859,298.782a1.835,1.835,0,0,1-.321-.15l-.9-.47c-.779-.41-1.9-1.014-3.318-1.694a31.025,31.025,0,0,0-5.136-1.98,16.958,16.958,0,0,0-6.656-.539,11.38,11.38,0,0,0-6.069,2.606,13.5,13.5,0,0,0-3.16,4.438c-.666,1.421-1.076,2.629-1.375,3.456l-.337.956a1.86,1.86,0,0,1-.133.329,1.9,1.9,0,0,1,.084-.344l.293-.971a31.52,31.52,0,0,1,1.306-3.5,13.432,13.432,0,0,1,3.168-4.537A11.5,11.5,0,0,1,490.5,293.7a16.944,16.944,0,0,1,6.751.565,29.826,29.826,0,0,1,5.152,2.043c1.413.7,2.523,1.332,3.288,1.768l.875.512a1.841,1.841,0,0,1,.3.194" transform="translate(-211.927 -129.766)" fill="#263238"/>
        <path id="Trazado_834056" data-name="Trazado 834056" d="M511.751,301.449c-.039.057-2.518-1.546-5.536-3.581s-5.435-3.732-5.4-3.79,2.517,1.546,5.536,3.581,5.434,3.732,5.4,3.79" transform="translate(-221.37 -129.986)" fill="#263238"/>
        <path id="Trazado_834057" data-name="Trazado 834057" d="M512.786,293.829a6.023,6.023,0,0,1-1.8.325,6.1,6.1,0,0,1-1.84-.024,47.043,47.043,0,0,1,3.645-.3" transform="translate(-225.049 -129.869)" fill="#263238"/>
        <path id="Trazado_834058" data-name="Trazado 834058" d="M494.761,291.309a4.8,4.8,0,0,1-.813,1.27,5.432,5.432,0,0,1-1.03,1.171,4.82,4.82,0,0,1,.813-1.271,5.453,5.453,0,0,1,1.03-1.17" transform="translate(-217.875 -128.763)" fill="#263238"/>
        <path id="Trazado_834059" data-name="Trazado 834059" d="M494.232,305.68a6.549,6.549,0,0,1-1.193-.647c-.716-.435-1.683-1.071-2.717-1.822s-1.946-1.461-2.6-1.981a7.328,7.328,0,0,1-1.029-.883,7.149,7.149,0,0,1,1.136.74l2.641,1.919c1.031.748,1.978,1.4,2.667,1.876a8.083,8.083,0,0,1,1.1.8" transform="translate(-215.125 -132.758)" fill="#263238"/>
        <path id="Trazado_834060" data-name="Trazado 834060" d="M480.866,328.969c-1.808-.478-3.963,1.281-4.335,3.113a8.777,8.777,0,0,0,1.119,5.394,27.516,27.516,0,0,0,7.476,9.781,18.486,18.486,0,0,0,11.43,4.208c-.764-3.55.2-7.258-.223-10.864a14.132,14.132,0,0,0-12.517-12.392c-1.154-.124-2.489-.306-2.949.76" transform="translate(-210.589 -145.031)" fill="#e8505b"/>
        <path id="Trazado_834061" data-name="Trazado 834061" d="M500.072,352.143a1.177,1.177,0,0,1-.257-.12,4.642,4.642,0,0,1-.676-.454,7.056,7.056,0,0,1-1.785-2.387c-.288-.56-.61-1.167-.925-1.84l-.972-2.15a20.9,20.9,0,0,0-1.2-2.3,18.105,18.105,0,0,0-1.645-2.237c-1.238-1.454-2.566-2.711-3.717-3.913a25.553,25.553,0,0,1-2.834-3.4,12.454,12.454,0,0,1-1.384-2.645,8,8,0,0,1-.242-.775,1.177,1.177,0,0,1-.057-.278c.023-.007.125.369.389,1.017a13.662,13.662,0,0,0,1.44,2.58,27,27,0,0,0,2.854,3.339c1.156,1.188,2.492,2.443,3.742,3.912a17.792,17.792,0,0,1,1.663,2.27,20.471,20.471,0,0,1,1.2,2.331l.951,2.158c.3.67.617,1.283.894,1.846a7.3,7.3,0,0,0,1.69,2.393c.528.456.885.624.87.649" transform="translate(-214.104 -145.709)" fill="#263238"/>
        <path id="Trazado_834062" data-name="Trazado 834062" d="M495.742,358.31a5.407,5.407,0,0,1,.166-1.217c.142-.744.374-1.766.687-2.88s.649-2.106.917-2.816a5.447,5.447,0,0,1,.494-1.124,6.546,6.546,0,0,1-.325,1.182c-.224.721-.531,1.717-.844,2.826s-.57,2.118-.755,2.85a6.578,6.578,0,0,1-.339,1.178" transform="translate(-219.122 -154.827)" fill="#263238"/>
        <path id="Trazado_834063" data-name="Trazado 834063" d="M505.012,347.5a7.417,7.417,0,0,1-1.273-.293c-.779-.2-1.855-.482-3.051-.752s-2.288-.479-3.08-.629a7.463,7.463,0,0,1-1.276-.281,6.167,6.167,0,0,1,1.3.105c.8.105,1.9.289,3.106.559s2.277.579,3.045.826a6.141,6.141,0,0,1,1.224.464" transform="translate(-219.387 -152.733)" fill="#263238"/>
        <path id="Trazado_834064" data-name="Trazado 834064" d="M483.721,346.181a7.4,7.4,0,0,1,.2-1.408c.159-.863.412-2.049.75-3.345s.7-2.456.981-3.286a7.355,7.355,0,0,1,.517-1.324,8.608,8.608,0,0,1-.348,1.377c-.239.842-.57,2-.907,3.3s-.617,2.467-.82,3.319a8.605,8.605,0,0,1-.369,1.372" transform="translate(-213.809 -148.879)" fill="#263238"/>
        <path id="Trazado_834065" data-name="Trazado 834065" d="M496.491,334.6c-.007.069-2.264-.114-5.04-.408s-5.021-.589-5.014-.658,2.264.113,5.04.408,5.021.589,5.013.658" transform="translate(-215.013 -147.42)" fill="#263238"/>
        <path id="Trazado_834066" data-name="Trazado 834066" d="M473.422,384.4c0,.069-7.933.126-17.717.126s-17.718-.056-17.718-.126,7.931-.126,17.718-.126,17.717.056,17.717.126" transform="translate(-193.597 -169.856)" fill="#455a64"/>
        <path id="Trazado_834067" data-name="Trazado 834067" d="M472.688,402.7c0,.07-5.345.126-11.937.126s-11.938-.056-11.938-.126,5.344-.126,11.938-.126,11.937.056,11.937.126" transform="translate(-198.383 -177.943)" fill="#455a64"/>
        <path id="Trazado_834068" data-name="Trazado 834068" d="M472.646,405.313c0,.069-5.252.125-11.729.125s-11.73-.056-11.73-.125,5.251-.126,11.73-.126,11.729.056,11.729.126" transform="translate(-198.548 -179.099)" fill="#455a64"/>
        <path id="Trazado_834069" data-name="Trazado 834069" d="M472.412,400.541c0,.069-5.529.126-12.347.126s-12.348-.057-12.348-.126,5.527-.126,12.348-.126,12.347.056,12.347.126" transform="translate(-197.898 -176.99)" fill="#455a64"/>
      </g>
    </g>
    <g id="Grupo_1083502" data-name="Grupo 1083502">
      <g id="Grupo_1083501" data-name="Grupo 1083501" clip-path="url(#clip-path)">
        <path id="Trazado_834070" data-name="Trazado 834070" d="M414.7,14.913c0,.08-3.746.126-8.364.1s-8.364-.11-8.364-.19,3.745-.126,8.365-.1,8.364.109,8.363.19" transform="translate(-175.911 -6.505)" fill="#263238"/>
        <path id="Trazado_834071" data-name="Trazado 834071" d="M412.915,16.727c-.08,0-.183-3.744-.23-8.362S412.665,0,412.745,0s.184,3.742.23,8.363.02,8.364-.061,8.365" transform="translate(-182.403 0)" fill="#263238"/>
        <path id="Trazado_834072" data-name="Trazado 834072" d="M435.733,234.774A111.429,111.429,0,0,1,425.6,229.6a111.58,111.58,0,0,1,10.136,5.179" transform="translate(-188.12 -101.483)" fill="#263238"/>
        <path id="Trazado_834073" data-name="Trazado 834073" d="M430.178,235.3a111.684,111.684,0,0,1,5.021-10.215,55.766,55.766,0,0,1-2.381,5.172,56.107,56.107,0,0,1-2.64,5.043" transform="translate(-190.144 -99.491)" fill="#263238"/>
        <path id="Trazado_834074" data-name="Trazado 834074" d="M75.263,168.462c.03.075-2.64,1.209-5.964,2.533s-6.042,2.339-6.072,2.264,2.64-1.209,5.964-2.534,6.042-2.339,6.071-2.264" transform="translate(-27.947 -74.461)" fill="#263238"/>
        <path id="Trazado_834075" data-name="Trazado 834075" d="M70.437,160.829c-.024.011-.1-.163-.3-.419a2.1,2.1,0,0,0-1.119-.726,2,2,0,0,0-1.841.455,1.97,1.97,0,0,0,1.368,3.431,2,2,0,0,0,1.649-.936,2.1,2.1,0,0,0,.313-1.3c-.029-.324-.1-.5-.073-.508a1.044,1.044,0,0,1,.185.493,2.086,2.086,0,0,1-.249,1.417,2.194,2.194,0,0,1-1.817,1.1,2.225,2.225,0,0,1-1.554-3.9,2.193,2.193,0,0,1,2.074-.453,2.093,2.093,0,0,1,1.156.857,1.042,1.042,0,0,1,.2.485" transform="translate(-29.28 -70.454)" fill="#263238"/>
        <path id="Trazado_834076" data-name="Trazado 834076" d="M77.935,179.638c-.025.011-.1-.163-.3-.419a2.1,2.1,0,0,0-1.119-.725,1.976,1.976,0,1,0,1.176,2.95,2.1,2.1,0,0,0,.313-1.3c-.029-.324-.1-.5-.073-.508a1.048,1.048,0,0,1,.185.493,2.086,2.086,0,0,1-.249,1.417,2.194,2.194,0,0,1-1.817,1.1,2.225,2.225,0,0,1-1.554-3.9,2.195,2.195,0,0,1,2.074-.453,2.092,2.092,0,0,1,1.156.857,1.044,1.044,0,0,1,.2.485" transform="translate(-32.594 -78.768)" fill="#263238"/>
      </g>
    </g>
  </g>
</svg>
