<svg xmlns="http://www.w3.org/2000/svg" xmlns:xlink="http://www.w3.org/1999/xlink" width="295" height="158.466" viewBox="0 0 295 158.466">
  <defs>
    <clipPath id="clip-path">
      <rect id="Rectángulo_385552" data-name="Rectángulo 385552" width="263" height="158.466" fill="none"/>
    </clipPath>
    <clipPath id="clip-path-3">
      <rect id="Rectángulo_385540" data-name="Rectángulo 385540" width="22.738" height="7.459" fill="none"/>
    </clipPath>
    <clipPath id="clip-path-4">
      <rect id="Rectángulo_385541" data-name="Rectángulo 385541" width="8.051" height="30.437" fill="none"/>
    </clipPath>
    <clipPath id="clip-path-5">
      <rect id="Rectángulo_385542" data-name="Rectángulo 385542" width="7.995" height="26.13" fill="none"/>
    </clipPath>
    <clipPath id="clip-path-6">
      <rect id="Rectángulo_385543" data-name="Rectángulo 385543" width="5.7" height="5.934" fill="none"/>
    </clipPath>
    <clipPath id="clip-path-7">
      <rect id="Rectángulo_385545" data-name="Rectángulo 385545" width="13.243" height="86.264" fill="none"/>
    </clipPath>
    <clipPath id="clip-path-8">
      <rect id="Rectángulo_385547" data-name="Rectángulo 385547" width="1.052" height="2.651" fill="none"/>
    </clipPath>
    <clipPath id="clip-path-9">
      <rect id="Rectángulo_385548" data-name="Rectángulo 385548" width="2.624" height="2.624" fill="none"/>
    </clipPath>
    <clipPath id="clip-path-10">
      <rect id="Rectángulo_385549" data-name="Rectángulo 385549" width="2.278" height="5.737" fill="none"/>
    </clipPath>
  </defs>
  <g id="Grupo_1083977" data-name="Grupo 1083977" transform="translate(-180 -4812.267)">
    <rect id="Rectángulo_385523" data-name="Rectángulo 385523" width="295" height="149" transform="translate(180 4819)" fill="none"/>
    <g id="Grupo_1083976" data-name="Grupo 1083976" transform="translate(212 4812.267)">
      <g id="Grupo_1083975" data-name="Grupo 1083975" clip-path="url(#clip-path)">
        <g id="Grupo_1083974" data-name="Grupo 1083974" transform="translate(0 0)">
          <g id="Grupo_1083973" data-name="Grupo 1083973" clip-path="url(#clip-path)">
            <path id="Trazado_834882" data-name="Trazado 834882" d="M320.027,569.291h-.307v-.407h.306c.992,0,1.985-.01,2.953-.029l.008.407c-.971.019-1.967.029-2.961.029m-3.574-.041c-1.072-.024-2.171-.059-3.266-.1l.017-.406c1.092.045,2.189.08,3.258.1Zm9.8-.092-.018-.406c1.094-.048,2.188-.109,3.252-.183l.028.406c-1.067.074-2.164.135-3.262.183m-16.329-.177c-1.072-.063-2.168-.138-3.259-.22l.031-.406c1.089.083,2.183.157,3.253.22Zm22.847-.276-.039-.4c1.091-.106,2.18-.228,3.236-.363l.051.4c-1.06.135-2.153.258-3.248.364m-29.362-.218c-1.067-.1-2.16-.206-3.25-.322l.043-.4c1.088.116,2.18.224,3.244.322Zm35.844-.613-.065-.4c1.084-.175,2.161-.368,3.2-.575l.079.4c-1.046.208-2.129.4-3.217.578m-42.34-.079c-1.069-.129-2.16-.268-3.24-.413l.054-.4c1.078.145,2.167.283,3.234.412Zm-6.474-.868c-1.059-.156-2.145-.322-3.228-.494l.064-.4c1.082.172,2.166.338,3.224.493Zm55.225-.331-.1-.4c1.068-.257,2.126-.536,3.145-.829l.112.391c-1.024.295-2.088.575-3.162.833M283.99,565.9c-1.056-.18-2.138-.371-3.216-.567l.073-.4c1.076.2,2.157.386,3.212.566Zm67.958-1.119-.132-.385c1.04-.355,2.065-.736,3.046-1.132l.152.377c-.988.4-2.019.782-3.066,1.14m-74.384-.047c-1.062-.2-2.14-.417-3.2-.632l.081-.4c1.062.215,2.139.428,3.2.632Zm-6.4-1.3c-1.056-.224-2.129-.457-3.191-.692l.088-.4c1.061.235,2.133.468,3.187.691Zm-116.338-.781h-.02c-1,0-1.953-.042-2.835-.124l.038-.4c.875.082,1.824.118,2.818.122l.421,0,0,.407-.425,0m3.7-.161-.033-.405c1-.081,2.092-.2,3.236-.34l.051.4c-1.151.146-2.246.261-3.255.342m199.487-.17-.175-.367c.991-.472,1.96-.975,2.882-1.494l.2.354c-.93.523-1.907,1.03-2.907,1.506m-93.223-.3c-1.049-.242-2.119-.493-3.179-.747l.095-.4c1.059.253,2.127.5,3.175.746Zm-116.063-.041a14.358,14.358,0,0,1-3.087-1.17l.189-.36a13.947,13.947,0,0,0,3,1.136Zm16.291-.294-.063-.4c.995-.156,2.047-.333,3.215-.539l.071.4c-1.171.207-2.225.383-3.223.54m6.436-1.128-.075-.4c.917-.172,1.905-.361,3.205-.613l.077.4c-1.3.252-2.29.441-3.207.613m86.986-.056c-1.047-.259-2.112-.528-3.166-.8l.1-.394c1.053.269,2.117.537,3.163.8Zm-80.574-1.178-.077-.4q1.577-.306,3.206-.617l.076.4q-1.629.31-3.2.617m185.846-.222-.226-.338c.911-.609,1.791-1.252,2.618-1.912l.254.318c-.835.667-1.725,1.318-2.646,1.933m-111.6-.218-.918-.243c-.743-.2-1.5-.39-2.238-.572l.1-.4c.745.183,1.5.376,2.246.574l.917.243Zm-109.158-.006a12.532,12.532,0,0,1-2.043-2.6l.349-.209a12.124,12.124,0,0,0,1.976,2.514Zm41.322-.772-.074-.4c1.125-.207,2.176-.4,3.215-.576l.07.4c-1.037.181-2.088.369-3.211.576m61.505-.773c-1.056-.229-2.13-.448-3.193-.649l.076-.4c1.066.2,2.144.421,3.2.652ZM190.7,557l-.065-.4c1.1-.179,2.184-.348,3.227-.5l.06.4c-1.042.155-2.126.325-3.222.5m48.674-.868c-1.065-.172-2.15-.334-3.225-.479l.054-.4c1.079.146,2.168.307,3.236.481Zm-42.223-.093-.054-.4c1.089-.146,2.18-.283,3.242-.407l.047.4c-1.06.124-2.148.261-3.235.406m6.476-.757-.04-.4c1.09-.108,2.185-.206,3.255-.291l.032.406c-1.067.085-2.16.182-3.247.29m29.285-.023c-1.072-.116-2.164-.22-3.246-.31l.033-.405c1.085.089,2.181.194,3.256.311Zm135.9-.24-.283-.293a31.521,31.521,0,0,0,2.211-2.365l.311.262a31.908,31.908,0,0,1-2.239,2.4m-158.69-.252-.024-.406c1.09-.065,2.189-.118,3.264-.158l.015.407c-1.073.04-2.168.093-3.255.158m16.289-.044c-1.076-.061-2.172-.11-3.257-.145l.013-.407c1.089.035,2.188.084,3.267.146Zm-9.776-.2-.006-.407c.71-.011,1.426-.016,2.13-.016q.568,0,1.138,0l0,.407q-.569,0-1.135,0c-.7,0-1.416.005-2.124.016M139.526,553.3c-.372-1.025-.716-2.072-1.022-3.112l.39-.115c.3,1.032.646,2.071,1.015,3.089Zm233.5-3.3-.339-.225a27.417,27.417,0,0,0,1.631-2.793l.363.184a27.828,27.828,0,0,1-1.656,2.835m-235.352-2.978c-.242-1.06-.454-2.142-.63-3.215l.4-.066c.174,1.065.385,2.138.625,3.19Zm238.309-2.871-.383-.138a25.853,25.853,0,0,0,.9-3.105l.4.089a26.286,26.286,0,0,1-.917,3.154m-239.368-3.591c-.109-1.079-.185-2.178-.228-3.268l.407-.016c.042,1.081.118,2.172.226,3.243Zm240.8-2.808-.4-.038c.077-.813.116-1.641.116-2.461,0-.254,0-.514-.011-.772l.407-.012c.008.262.012.526.011.784,0,.833-.04,1.674-.118,2.5m-240.65-3.726-.407-.008c.023-1.081.078-2.181.165-3.269l.406.032c-.086,1.08-.141,2.171-.164,3.245m240.058-2.769a27.1,27.1,0,0,0-.678-3.165l.392-.109a27.526,27.526,0,0,1,.689,3.213Zm-239.543-3.7-.4-.055c.147-1.068.327-2.153.534-3.223l.4.078c-.206,1.063-.385,2.14-.531,3.2M375.1,525.023a27.142,27.142,0,0,0-1.407-2.915l-.119-.212.354-.2.12.214a27.526,27.526,0,0,1,1.428,2.959Zm-236.581-3.844-.395-.1c.262-1.047.556-2.108.875-3.154l.389.119c-.317,1.039-.609,2.093-.869,3.134m233.365-2.055c-.6-.912-1.234-1.8-1.881-2.636l.322-.249c.653.845,1.291,1.74,1.9,2.661Zm-231.469-4.166-.383-.138c.365-1.015.763-2.042,1.182-3.052l.376.156c-.416,1-.811,2.025-1.175,3.034m227.511-.946c-.73-.8-1.5-1.569-2.28-2.289l.275-.3c.792.728,1.567,1.506,2.3,2.314Zm-4.753-4.365c-.849-.65-1.741-1.271-2.651-1.845l.217-.344c.921.581,1.823,1.209,2.682,1.866Zm-220.268-.7-.368-.173c.459-.978.948-1.964,1.456-2.931l.36.189c-.5.962-.992,1.943-1.448,2.915m214.81-2.751c-.938-.484-1.922-.943-2.926-1.363l.157-.375c1.014.425,2.009.888,2.956,1.377Zm-5.966-2.507c-1-.335-2.041-.649-3.107-.934l.105-.393c1.074.287,2.128.6,3.131.941Zm-205.824-.507-.352-.2c.542-.935,1.114-1.876,1.7-2.8l.343.219c-.583.916-1.152,1.851-1.691,2.781M345.477,502c-1.021-.215-2.1-.416-3.2-.6l.066-.4c1.106.182,2.187.384,3.214.6Zm-6.418-1.063c-1.028-.131-2.117-.252-3.237-.362l.04-.4c1.124.11,2.217.232,3.249.363Zm-6.484-.641c-1.03-.077-2.094-.149-3.254-.218l.024-.406c1.162.069,2.228.14,3.26.218Zm-6.512-.392c-.939-.046-1.975-.093-3.26-.149l.018-.406c1.287.056,2.323.1,3.263.149Zm-6.522-.288q-1.623-.069-3.263-.144l.019-.406q1.639.076,3.261.144Zm-6.525-.308c-1.154-.063-2.221-.126-3.261-.195l.027-.406c1.039.068,2.1.132,3.257.195Zm-6.52-.434c-1.112-.091-2.207-.19-3.255-.3l.041-.4c1.045.105,2.137.2,3.247.295Zm-6.5-.659c-1.1-.136-2.19-.285-3.239-.442l.06-.4c1.046.157,2.132.3,3.228.44Zm-150.583-.52-.334-.232c.616-.887,1.259-1.776,1.913-2.644l.325.245c-.651.864-1.291,1.749-1.9,2.632m144.119-.452c-1.083-.195-2.163-.406-3.208-.629l.085-.4c1.041.222,2.116.433,3.2.627Zm-6.393-1.366c-1.064-.266-2.126-.553-3.156-.852l.113-.391c1.025.3,2.082.583,3.141.848Zm-6.277-1.825c-1.036-.346-2.072-.716-3.078-1.1l.145-.38c1,.382,2.032.749,3.062,1.094ZM153.318,492.51l-.315-.257c.683-.838,1.393-1.677,2.11-2.493l.306.269c-.714.813-1.421,1.647-2.1,2.481m121.434-.782c-1-.431-2-.888-2.972-1.36l.177-.366c.968.469,1.962.924,2.955,1.353Zm-5.88-2.851c-.953-.516-1.908-1.061-2.838-1.62l.21-.349c.925.556,1.874,1.1,2.822,1.611ZM157.61,487.626l-.3-.28c.744-.786,1.515-1.571,2.29-2.333l.285.29c-.772.758-1.539,1.54-2.279,2.322m105.662-2.114c-.9-.6-1.8-1.225-2.682-1.866l.24-.329c.874.637,1.772,1.262,2.667,1.856Zm-101.02-2.448-.275-.3c.8-.732,1.627-1.461,2.454-2.164l.264.31c-.823.7-1.645,1.425-2.443,2.154m95.74-1.4c-.843-.672-1.688-1.374-2.512-2.088l.267-.307c.819.71,1.66,1.409,2.5,2.077Zm-90.779-2.822-.252-.319c.853-.675,1.729-1.342,2.6-1.984l.241.328c-.871.639-1.743,1.3-2.593,1.976m85.842-1.455c-.277-.261-.559-.529-.838-.8-.5-.487-1.021-.969-1.536-1.434l.272-.3c.519.468,1.039.953,1.547,1.443.277.268.558.535.834.794Zm-80.586-2.4-.229-.336c.9-.612,1.823-1.215,2.743-1.792l.216.345c-.916.575-1.835,1.175-2.731,1.784m75.738-1.938c-.845-.681-1.717-1.342-2.59-1.965l.236-.331c.879.628,1.757,1.294,2.608,1.979ZM178,471.519l-.2-.352c.945-.545,1.911-1.078,2.871-1.585l.19.36c-.955.5-1.917,1.035-2.858,1.577m64.921-2.246c-.917-.576-1.86-1.129-2.8-1.644l.195-.357c.951.519,1.9,1.076,2.825,1.656Zm-59.146-.8-.176-.367c.983-.471,1.985-.927,2.978-1.355l.161.374c-.988.426-1.985.88-2.964,1.348m53.444-2.315c-.978-.458-1.982-.891-2.985-1.286l.149-.378c1.011.4,2.023.835,3.008,1.3ZM189.75,465.9l-.146-.38c1.019-.391,2.055-.764,3.079-1.108l.13.386c-1.018.342-2.049.713-3.063,1.1m6.169-2.072-.113-.391c1.05-.3,2.114-.584,3.164-.836l.095.4c-1.044.251-2.1.53-3.146.831m35.254-.05c-1.024-.332-2.073-.637-3.12-.906l.1-.394c1.054.271,2.112.578,3.144.913Zm-28.928-1.468-.076-.4c1.074-.205,2.16-.386,3.228-.537l.057.4c-1.061.15-2.141.33-3.209.534m22.638-.151c-1.055-.2-2.134-.379-3.208-.521l.053-.4c1.082.143,2.169.32,3.232.525Zm-16.191-.758-.036-.405c1.09-.1,2.19-.169,3.27-.209l.015.407c-1.073.04-2.166.11-3.249.207m9.75-.095c-1.071-.079-2.163-.128-3.248-.146l.007-.407c1.092.018,2.193.068,3.271.147Z" transform="translate(-122.49 -413.89)" fill="#e4e4e4"/>
            <path id="Trazado_834883" data-name="Trazado 834883" d="M359.3,693H120.895c7.461-55.125,57.981-97.764,119.2-97.764S351.842,637.879,359.3,693" transform="translate(-108.599 -534.7)" fill="#f6f5f5"/>
            <path id="Trazado_834884" data-name="Trazado 834884" d="M1300.647,282.1h-89.673a7.559,7.559,0,0,1-7.559-7.559V145.916a7.559,7.559,0,0,1,7.559-7.559h89.673a7.559,7.559,0,0,1,7.559,7.559V274.545a7.559,7.559,0,0,1-7.559,7.559" transform="translate(-1081.02 -124.285)" fill="#a9bae6"/>
            <rect id="Rectángulo_385524" data-name="Rectángulo 385524" width="86.251" height="125.29" transform="translate(131.866 19.865)" fill="#f6f5f5"/>
            <path id="Trazado_834885" data-name="Trazado 834885" d="M1382.776,195.323c.027,48.856,1.6,107.78-3.884,120.826-24.172,2.355-52.476,3.111-82.369,3.252l11.363-123.7Z" transform="translate(-1164.659 -175.457)" fill="#e4e4e4"/>
            <path id="Trazado_834886" data-name="Trazado 834886" d="M1332.858,312.251c-37.676,6.03-62.857,6.348-83.28,4.831,2.647-28.173,3.708-74.976,4.775-121.7l45.4.1,41.089,2.712c.6,48.5.664,93.3-7.985,114.059" transform="translate(-1122.488 -175.507)" fill="#fff"/>
            <rect id="Rectángulo_385525" data-name="Rectángulo 385525" width="6.913" height="45.386" transform="translate(151.522 38.331) rotate(-88.652)" fill="#708cd5"/>
            <rect id="Rectángulo_385526" data-name="Rectángulo 385526" width="3.164" height="40.938" transform="translate(164.804 51.601) rotate(-88.652)" fill="#708cd5"/>
            <rect id="Rectángulo_385527" data-name="Rectángulo 385527" width="3.164" height="27.826" transform="translate(164.642 58.498) rotate(-88.652)" fill="#d3dfff"/>
            <rect id="Rectángulo_385528" data-name="Rectángulo 385528" width="9.691" height="9.691" transform="translate(142.066 57.781) rotate(-88.652)" fill="#fff"/>
            <path id="Trazado_834887" data-name="Trazado 834887" d="M1404.047,480.316l-10.3-.242.242-10.3,10.3.242Zm-9.674-.838,9.079.214.214-9.079-9.079-.214Z" transform="translate(-1251.995 -421.995)" fill="#708cd5"/>
            <path id="Trazado_834888" data-name="Trazado 834888" d="M1414.417,447.264c.3,1.145.852,5.942,3.254,4.6a7.319,7.319,0,0,0,1.437-1.6l2.235-2.537,4.469-5.074c.382-.433-1.3-1.521-1.783-.977l-3.973,4.511-1.987,2.255c-.459.522-1.522,2.2-2.2,2.354l1.112.359c.262.215-.225-1.309-.236-1.35l-.554-2.123c-.153-.585-2-1.287-1.771-.421" transform="translate(-1270.544 -396.623)" fill="#ee6f57"/>
            <rect id="Rectángulo_385529" data-name="Rectángulo 385529" width="3.164" height="33.712" transform="translate(164.389 69.215) rotate(-88.652)" fill="#708cd5"/>
            <rect id="Rectángulo_385530" data-name="Rectángulo 385530" width="3.164" height="40.938" transform="translate(164.227 76.113) rotate(-88.652)" fill="#d3dfff"/>
            <rect id="Rectángulo_385531" data-name="Rectángulo 385531" width="9.691" height="9.691" transform="translate(141.651 75.395) rotate(-88.652)" fill="#fff"/>
            <path id="Trazado_834889" data-name="Trazado 834889" d="M1399.971,653.507l-10.3-.242.242-10.3,10.3.242Zm-9.674-.838,9.079.214.214-9.079-9.079-.214Z" transform="translate(-1248.333 -577.572)" fill="#708cd5"/>
            <path id="Trazado_834890" data-name="Trazado 834890" d="M1410.278,623.142c.3,1.145.851,5.942,3.254,4.6a7.321,7.321,0,0,0,1.438-1.6l2.235-2.537,4.47-5.074c.382-.433-1.3-1.521-1.783-.977l-3.973,4.511-1.987,2.255c-.459.522-1.522,2.2-2.2,2.354l1.112.359c.262.215-.225-1.309-.235-1.35l-.554-2.123c-.153-.584-2-1.287-1.771-.421" transform="translate(-1266.826 -554.613)" fill="#ee6f57"/>
            <rect id="Rectángulo_385532" data-name="Rectángulo 385532" width="3.164" height="40.938" transform="translate(163.975 86.83) rotate(-88.652)" fill="#708cd5"/>
            <rect id="Rectángulo_385533" data-name="Rectángulo 385533" width="3.164" height="18.308" transform="translate(163.813 93.727) rotate(-88.652)" fill="#d3dfff"/>
            <rect id="Rectángulo_385534" data-name="Rectángulo 385534" width="9.691" height="9.691" transform="translate(141.236 93.01) rotate(-88.652)" fill="#fff"/>
            <path id="Trazado_834891" data-name="Trazado 834891" d="M1395.895,826.7l-10.3-.242.242-10.3,10.3.242Zm-9.674-.838,9.079.214.214-9.079-9.079-.214Z" transform="translate(-1244.672 -733.148)" fill="#708cd5"/>
            <path id="Trazado_834892" data-name="Trazado 834892" d="M1407.493,797.564c.3,1.145.852,5.942,3.254,4.6a7.315,7.315,0,0,0,1.437-1.6l2.235-2.537,4.469-5.074c.382-.433-1.3-1.521-1.783-.977l-3.973,4.511-1.987,2.255c-.46.522-1.522,2.2-2.2,2.354l1.112.359c.262.215-.225-1.309-.236-1.35l-.554-2.123c-.153-.584-2-1.287-1.771-.421" transform="translate(-1264.325 -711.295)" fill="#ee6f57"/>
            <rect id="Rectángulo_385535" data-name="Rectángulo 385535" width="3.164" height="40.938" transform="translate(163.56 104.445) rotate(-88.652)" fill="#708cd5"/>
            <rect id="Rectángulo_385536" data-name="Rectángulo 385536" width="3.164" height="32.339" transform="translate(163.398 111.342) rotate(-88.652)" fill="#d3dfff"/>
            <rect id="Rectángulo_385537" data-name="Rectángulo 385537" width="9.691" height="9.691" transform="translate(140.822 110.625) rotate(-88.652)" fill="#fff"/>
            <path id="Trazado_834893" data-name="Trazado 834893" d="M1391.819,999.889l-10.3-.242.242-10.3,10.3.242Zm-9.675-.838,9.079.214.214-9.079-9.079-.214Z" transform="translate(-1241.01 -888.724)" fill="#708cd5"/>
            <path id="Trazado_834894" data-name="Trazado 834894" d="M1403.444,969.619c.3,1.145.852,5.942,3.254,4.6a7.316,7.316,0,0,0,1.438-1.6l2.235-2.537,4.47-5.075c.382-.433-1.3-1.521-1.783-.976l-3.973,4.511L1407.1,970.8c-.459.522-1.522,2.2-2.2,2.354l1.112.359c.262.215-.225-1.309-.235-1.35l-.554-2.122c-.153-.585-2-1.287-1.771-.421" transform="translate(-1260.688 -865.851)" fill="#ee6f57"/>
            <rect id="Rectángulo_385538" data-name="Rectángulo 385538" width="3.164" height="16.228" transform="matrix(0.024, -1, 1, 0.024, 163.149, 121.926)" fill="#708cd5"/>
            <path id="Trazado_834895" data-name="Trazado 834895" d="M1643.518,1236.475l-40.927-.963-.074,3.163c15.834.372,35.995,1.113,40.109.482a3.551,3.551,0,0,0,.892-2.682" transform="translate(-1439.53 -1109.852)" fill="#d3dfff"/>
            <rect id="Rectángulo_385539" data-name="Rectángulo 385539" width="9.691" height="9.691" transform="translate(140.546 128.109) rotate(-88.652)" fill="#fff"/>
            <path id="Trazado_834896" data-name="Trazado 834896" d="M1389.106,1171.8l-10.3-.242.242-10.3,10.3.242Zm-9.674-.838,9.079.214.214-9.079-9.079-.214Z" transform="translate(-1238.573 -1043.153)" fill="#708cd5"/>
            <path id="Trazado_834897" data-name="Trazado 834897" d="M1399.43,1140.167c.3,1.145.852,5.942,3.254,4.6a7.316,7.316,0,0,0,1.437-1.6l2.235-2.537,4.469-5.075c.382-.433-1.3-1.521-1.783-.976l-3.973,4.511-1.986,2.255c-.46.522-1.522,2.2-2.2,2.354l1.112.359c.262.215-.225-1.309-.236-1.35l-.554-2.123c-.153-.585-2-1.287-1.771-.421" transform="translate(-1257.082 -1019.053)" fill="#ee6f57"/>
            <path id="Trazado_834898" data-name="Trazado 834898" d="M1566.427,14.939v9.67h-38.852v-9.67a5.581,5.581,0,0,1,1.635-3.95,4.643,4.643,0,0,1,.395-.354,5.545,5.545,0,0,1,3.556-1.282,6.579,6.579,0,0,0,2.856-.651,6.837,6.837,0,0,0,1.074-.647,6.574,6.574,0,0,0,2.384-3.381A6.6,6.6,0,0,1,1545.789,0h2.425a6.6,6.6,0,0,1,6.314,4.679,6.574,6.574,0,0,0,2.384,3.381,6.843,6.843,0,0,0,1.074.647,6.579,6.579,0,0,0,2.856.651,5.593,5.593,0,0,1,5.586,5.586" transform="translate(-1372.211 0.004)" fill="#ee6f57"/>
            <path id="Trazado_834899" data-name="Trazado 834899" d="M1541.733,195.316V202.5h-45.158v-7.189h3.153v4.748h38.852v-4.748Z" transform="translate(-1344.364 -175.45)" fill="#e4e4e4"/>
            <path id="Trazado_834900" data-name="Trazado 834900" d="M1691.59,28.061a3.451,3.451,0,1,1-3.446-3.275,3.364,3.364,0,0,1,3.446,3.275" transform="translate(-1513.353 -22.265)" fill="#fff"/>
            <path id="Trazado_834901" data-name="Trazado 834901" d="M957.951,394.816c-1.378-.261-2.666-2.563-3.114-3.446a1.1,1.1,0,0,1-.1-.7l.549-2.907s1.265.215,1.168,1.9a1.242,1.242,0,0,0,.088.513l.484,1.267,1.432-1.109-.786-2.218a3.812,3.812,0,0,1-1.594.115c-1.114-.356.346-1.224.808-1.317s1.478-.462,1.94.323.739,1.247.739,1.247a17.39,17.39,0,0,0,.162-5.683c-.016-.177.427-.173.551-.046.372.379.965,1.531,1,5.036,0,0,.062-4.084.762-4.5.578-.346.869,1.653.462,5.043,0,0,.754-2.936,1.293-2.941.91-.009.012,7.839-2.276,10.179Z" transform="translate(-857.618 -343.746)" fill="#f9b384"/>
            <path id="Trazado_834902" data-name="Trazado 834902" d="M970.553,490.316q-.061.586-.134,1.135v0a32.977,32.977,0,0,1-.6,3.462c-.012.049-.02.094-.033.138-.7,2.852-.822,4.247-3.2,3.873l-2.445-2.783-.024-.028-.179-.2.5-1.465.065-.191.366-1.066.045-.138.627-1.835.252-.745Z" transform="translate(-865.899 -440.447)" fill="#f9b384"/>
            <path id="Trazado_834903" data-name="Trazado 834903" d="M515.783,1486.578l-.623,1.945c-4.268,1.4-6.756,3.008-6.916,4.882h12.34l.989-6.513a9.572,9.572,0,0,1-5.791-.314" transform="translate(-456.552 -1335.383)" fill="#1f3c88"/>
            <path id="Trazado_834904" data-name="Trazado 834904" d="M583.912,1439.036l-1.547,4.835a9.573,9.573,0,0,0,5.791.314l.638-4.2Z" transform="translate(-523.135 -1292.676)" fill="#f9b384"/>
            <path id="Trazado_834905" data-name="Trazado 834905" d="M754.215,1440.96l.362-4.925-5.8.305-.317,4.54a9.485,9.485,0,0,0,5.752.08" transform="translate(-672.339 -1289.98)" fill="#f9b384"/>
            <path id="Trazado_834906" data-name="Trazado 834906" d="M756.8,1490.8c-.159-1.874-2.339-4.441-7.119-5.052l.146-1.991a9.486,9.486,0,0,1-5.752-.08l-.5,7.122Z" transform="translate(-667.951 -1332.774)" fill="#1f3c88"/>
            <path id="Trazado_834907" data-name="Trazado 834907" d="M697.051,421.565l-6.993.049V411.036h6.782l0,.647.032,3.352.049,5.382Z" transform="translate(-619.874 -369.23)" fill="#f9b384"/>
            <path id="Trazado_834908" data-name="Trazado 834908" d="M704.817,425.748c-1.257,1.322-4.536-.171-5.919-1.627l5.887-1.725Z" transform="translate(-627.815 -379.435)" fill="#e28b6d"/>
            <path id="Trazado_834909" data-name="Trazado 834909" d="M675.315,324.8a15.122,15.122,0,0,1-.183,2.38c-.342,2.132-1.245,3.975-3.328,4.032-4.923.142-6.326-2.673-7.254-4.975s.578-7.852.578-7.852l6.371-.631,3.5,2.868a26.1,26.1,0,0,1,.317,4.178" transform="translate(-596.69 -285.438)" fill="#f9b384"/>
            <path id="Trazado_834910" data-name="Trazado 834910" d="M637.418,287.863s1.4-.065,1.644-3.69a4.963,4.963,0,0,0,5.8-1.6,3.358,3.358,0,0,0,5.887-1.2c.848-2.424-1.492-6.035-4.9-3.848-3.339-1.687-8.4-1.571-9.861,2.567,0,0-5.067,2.336.3,7.479a6.2,6.2,0,0,0,1.131.293" transform="translate(-569.359 -248.381)" fill="#102048"/>
            <path id="Trazado_834911" data-name="Trazado 834911" d="M745.2,888.336l-3.865,58.451h-9.086l2.271-56.718,1.39-.644Z" transform="translate(-657.77 -797.986)" fill="#102048"/>
            <path id="Trazado_834912" data-name="Trazado 834912" d="M570.618,771.375l-6.374,66.448h9.9l9.425-55.193,10.713-3.255.475-11.8-23.867-.543Z" transform="translate(-506.857 -689.023)" fill="#1f3c88"/>
            <g id="Grupo_1083951" data-name="Grupo 1083951" transform="translate(63.172 75.773)" opacity="0.6">
              <g id="Grupo_1083950" data-name="Grupo 1083950">
                <g id="Grupo_1083949" data-name="Grupo 1083949" clip-path="url(#clip-path-3)">
                  <path id="Trazado_834913" data-name="Trazado 834913" d="M623.128,751.738c5.407,1.941,18.093-.277,20.727-2.981l-1.872-3.744-20.866,2.773Z" transform="translate(-621.118 -745.014)" fill="#102048"/>
                </g>
              </g>
            </g>
            <path id="Trazado_834914" data-name="Trazado 834914" d="M672.133,508.031c-.175.073-.354.151-.537.22a36.726,36.726,0,0,1-6.778,2.018,31.106,31.106,0,0,1-4.544.557,26.26,26.26,0,0,1-7.136-.578l3.031-28.258.37-3.446s3.967,4.882,8.34-.509Z" transform="translate(-586.71 -429.416)" fill="#fff"/>
            <g id="Grupo_1083954" data-name="Grupo 1083954" transform="translate(66.428 51.01)" opacity="0.3">
              <g id="Grupo_1083953" data-name="Grupo 1083953">
                <g id="Grupo_1083952" data-name="Grupo 1083952" clip-path="url(#clip-path-4)">
                  <path id="Trazado_834915" data-name="Trazado 834915" d="M660.274,531.936a26.258,26.258,0,0,1-7.136-.578l3.031-28.258,1.082-1.564c2.673,6.5,5.411,20.9,3.023,30.4" transform="translate(-653.138 -501.536)" fill="#1f3c88"/>
                </g>
              </g>
            </g>
            <path id="Trazado_834916" data-name="Trazado 834916" d="M392.893,472.036c3.013,12.795,4.253,25.961-.186,40.581a16.624,16.624,0,0,1-10.713.136l.949-26.579L360.6,501.531l-1.356-8.374c8.588-8.212,23.437-20.618,33.648-21.121" transform="translate(-322.707 -424.026)" fill="#708cd5"/>
            <g id="Grupo_1083957" data-name="Grupo 1083957" transform="translate(76.891 54.723)" opacity="0.3">
              <g id="Grupo_1083956" data-name="Grupo 1083956">
                <g id="Grupo_1083955" data-name="Grupo 1083955" clip-path="url(#clip-path-5)">
                  <path id="Trazado_834917" data-name="Trazado 834917" d="M764,562.149a36.728,36.728,0,0,1-6.778,2.018c-1.347-7.722-1.644-20.406-.549-26.13Z" transform="translate(-756.01 -538.036)" fill="#1f3c88"/>
                </g>
              </g>
            </g>
            <g id="Grupo_1083960" data-name="Grupo 1083960" transform="translate(98.218 52.607)" opacity="0.6">
              <g id="Grupo_1083959" data-name="Grupo 1083959">
                <g id="Grupo_1083958" data-name="Grupo 1083958" clip-path="url(#clip-path-6)">
                  <path id="Trazado_834918" data-name="Trazado 834918" d="M971.4,519.1c-.012.049-.02.094-.033.138-.7,2.852-.822,4.247-3.2,3.873l-2.445-2.783-.024-.028.317-1.668.065-.191.366-1.066.045-.138Z" transform="translate(-965.698 -517.236)" fill="#e28b6d"/>
                </g>
              </g>
            </g>
            <path id="Trazado_834919" data-name="Trazado 834919" d="M783.348,479.74s-6,12.713-9.56,13.018c-3.451.3-5.085-3.051-5.085-3.051l2.441,18.58a15.578,15.578,0,0,1-9.63,1.355c-3.226-10.476-4.446-24.021-4.686-39.106,2.612.163,7.785.386,9.637,1.576,3.322,2.136,7.425,9.764,7.425,9.764l4.78-6.509Z" transform="translate(-679.854 -422.679)" fill="#708cd5"/>
            <path id="Trazado_834920" data-name="Trazado 834920" d="M298.319,333.642s.363-6.082.982-5.795,1.86,5.575,1.86,5.575l-1.327,2.142Z" transform="translate(-267.978 -294.494)" fill="#6f3428"/>
            <path id="Trazado_834921" data-name="Trazado 834921" d="M360.313,1464.7l.18,2a6.424,6.424,0,0,1-5.823,6.973l-.515.046a6.424,6.424,0,0,1-6.973-5.823l-.18-2Z" transform="translate(-311.71 -1315.733)" fill="#ee6f57"/>
            <rect id="Rectángulo_385544" data-name="Rectángulo 385544" width="13.364" height="97.313" transform="translate(26.585 53.244) rotate(-5.134)" fill="#fbc343"/>
            <g id="Grupo_1083963" data-name="Grupo 1083963" transform="translate(30.259 50.048)" opacity="0.3">
              <g id="Grupo_1083962" data-name="Grupo 1083962">
                <g id="Grupo_1083961" data-name="Grupo 1083961" clip-path="url(#clip-path-7)">
                  <path id="Trazado_834922" data-name="Trazado 834922" d="M305.217,578.346l-7.706-85.766,5.538-.5,7.706,85.766Zm-6.822-85.029,7.56,84.145,3.917-.352-7.56-84.145Z" transform="translate(-297.511 -492.082)" fill="#6f3428"/>
                </g>
              </g>
            </g>
            <path id="Trazado_834923" data-name="Trazado 834923" d="M348.432,1332.595l-13.307,1.2-.35-3.906-.244-2.714-.753-8.34,13.311-1.2.749,8.34.244,2.714Z" transform="translate(-299.83 -1183.623)" fill="#102048"/>
            <rect id="Rectángulo_385546" data-name="Rectángulo 385546" width="13.361" height="2.724" transform="matrix(0.996, -0.09, 0.09, 0.996, 34.7, 143.549)" fill="#fbc343"/>
            <path id="Trazado_834924" data-name="Trazado 834924" d="M261.368,389.185l3.7-14.818a3.178,3.178,0,0,0,2.824-.39l6.79,14.012Z" transform="translate(-234.785 -335.941)" fill="#ee6f57"/>
            <path id="Trazado_834925" data-name="Trazado 834925" d="M648.1,376.276c-.06-.219-1.053-.519-1.272-.58a1.525,1.525,0,0,0-1.037.01c-1.2.543-1.041,2.263-.418,3.167a2.71,2.71,0,0,0,1.469,1.078c.218.062,2.285.087,2.194-.245l-.936-3.43" transform="translate(-579.301 -337.408)" fill="#f9b384"/>
            <path id="Trazado_834926" data-name="Trazado 834926" d="M257.088,710.616a1.809,1.809,0,0,0-2.311-1.194c-1.514.523-2.833,1.41-3.037,2.919-.186,1.374.5,5.763,3.571,6.327l-.251-2.255s1.879-.439,2.255-1.253a9.45,9.45,0,0,0-.227-4.544" transform="translate(-226.11 -637.18)" fill="#f9b384"/>
            <path id="Trazado_834927" data-name="Trazado 834927" d="M862.959,573.612c.161.961.3,1.924.431,2.888s.245,1.93.369,2.9l.315,2.9c.092.969.182,1.938.241,2.91l-.158.018c-.166-.96-.3-1.924-.437-2.887l-.363-2.9c-.1-.967-.22-1.933-.309-2.9s-.183-1.937-.247-2.909Z" transform="translate(-775.048 -515.271)" fill="#1f3c88"/>
            <path id="Trazado_834928" data-name="Trazado 834928" d="M588.564,572.007c0,1.079-.029,2.156-.06,3.234s-.083,2.154-.123,3.231L588.2,581.7c-.072,1.075-.146,2.151-.251,3.224l-.159-.008c0-1.079.025-2.156.055-3.234l.129-3.23c.062-1.076.108-2.152.182-3.228s.145-2.151.245-3.225Z" transform="translate(-528.012 -513.823)" fill="#1f3c88"/>
            <path id="Trazado_834929" data-name="Trazado 834929" d="M715.762,375.953a.639.639,0,0,1-.353.809c-.281.063-.578-.2-.664-.581a.639.639,0,0,1,.353-.809c.281-.063.578.2.664.581" transform="translate(-642.03 -337.185)" fill="#102048"/>
            <path id="Trazado_834930" data-name="Trazado 834930" d="M755.616,370.023c-.017.393-.263.7-.551.689s-.507-.341-.491-.733.263-.7.551-.689.507.34.491.733" transform="translate(-677.828 -331.73)" fill="#102048"/>
            <path id="Trazado_834931" data-name="Trazado 834931" d="M741.22,379.67a9.228,9.228,0,0,1,.207.974.763.763,0,0,0,.2.338,1.285,1.285,0,0,0,.382.188,1.063,1.063,0,0,1,.482.363.631.631,0,0,1,.049.666,1.254,1.254,0,0,1-.4.4c-.14.094-.274.194-.419.282l-.1-.12c.107-.132.224-.251.336-.377a1.19,1.19,0,0,0,.263-.342c.086-.188-.1-.394-.365-.5a1.417,1.417,0,0,1-.5-.282.992.992,0,0,1-.261-.538c-.067-.377.01-.7-.027-1.013Z" transform="translate(-665.693 -341.055)" fill="#e28b6d"/>
            <path id="Trazado_834932" data-name="Trazado 834932" d="M705.87,362.977a1.184,1.184,0,0,1,.415-.634,1.264,1.264,0,0,1,.737-.276,1.365,1.365,0,0,1,1.283.721l-.125.1a1.748,1.748,0,0,0-1.139-.415,1.33,1.33,0,0,0-1.028.573Z" transform="translate(-634.078 -325.24)" fill="#102048"/>
            <path id="Trazado_834933" data-name="Trazado 834933" d="M747.154,358.956a1.223,1.223,0,0,1,.319-.514,1.063,1.063,0,0,1,.577-.286,1.013,1.013,0,0,1,1.079.538l-.127.1a1.29,1.29,0,0,0-.892-.233,1.145,1.145,0,0,0-.425.155,2.81,2.81,0,0,0-.395.325Z" transform="translate(-671.164 -321.717)" fill="#102048"/>
            <path id="Trazado_834934" data-name="Trazado 834934" d="M725.027,418.409c.71,1.112,1.657,1.233,2.388.062Z" transform="translate(-651.287 -375.854)" fill="#fff"/>
            <g id="Grupo_1083966" data-name="Grupo 1083966" transform="translate(77.592 39.093)" opacity="0.4">
              <g id="Grupo_1083965" data-name="Grupo 1083965">
                <g id="Grupo_1083964" data-name="Grupo 1083964" clip-path="url(#clip-path-8)">
                  <path id="Trazado_834935" data-name="Trazado 834935" d="M763.95,384.369a18.748,18.748,0,0,1-.2,2.651,1.225,1.225,0,0,1-.85-1.168,1.565,1.565,0,0,1,1.052-1.484" transform="translate(-762.898 -384.369)" fill="#fc8879"/>
                </g>
              </g>
            </g>
            <g id="Grupo_1083969" data-name="Grupo 1083969" transform="translate(70.694 39.991)" opacity="0.4">
              <g id="Grupo_1083968" data-name="Grupo 1083968">
                <g id="Grupo_1083967" data-name="Grupo 1083967" clip-path="url(#clip-path-9)">
                  <path id="Trazado_834936" data-name="Trazado 834936" d="M697.7,394.515a1.312,1.312,0,1,1-1.312-1.312,1.312,1.312,0,0,1,1.312,1.312" transform="translate(-695.078 -393.203)" fill="#fc8879"/>
                </g>
              </g>
            </g>
            <path id="Trazado_834937" data-name="Trazado 834937" d="M654.45,386.642a6.572,6.572,0,0,0-.734-.483.64.64,0,0,0-.323-.084.725.725,0,0,0-.338.155l-.134-.086a.633.633,0,0,1,.386-.416.755.755,0,0,1,.589.068,1.524,1.524,0,0,1,.681.75Z" transform="translate(-586.515 -346.467)" fill="#e28b6d"/>
            <g id="Grupo_1083972" data-name="Grupo 1083972" transform="translate(28.926 77.98)" opacity="0.6">
              <g id="Grupo_1083971" data-name="Grupo 1083971">
                <g id="Grupo_1083970" data-name="Grupo 1083970" clip-path="url(#clip-path-10)">
                  <path id="Trazado_834938" data-name="Trazado 834938" d="M286.686,766.709l-1.888,5.737-.39-4.484a3.912,3.912,0,0,0,2.278-1.254" transform="translate(-284.408 -766.709)" fill="#6f3428"/>
                </g>
              </g>
            </g>
            <rect id="Rectángulo_385550" data-name="Rectángulo 385550" width="263" height="0.814" transform="translate(0 157.653)" fill="#102048"/>
          </g>
        </g>
      </g>
    </g>
  </g>
</svg>
