<svg id="Grupo_1083433" data-name="Grupo 1083433" xmlns="http://www.w3.org/2000/svg" xmlns:xlink="http://www.w3.org/1999/xlink" width="291" height="230.333" viewBox="0 0 291 230.333">
  <defs>
    <clipPath id="clip-path">
      <rect id="Rectángulo_385145" data-name="Rectángulo 385145" width="291" height="230.332" fill="none"/>
    </clipPath>
    <clipPath id="clip-path-7">
      <rect id="Rectángulo_385139" data-name="Rectángulo 385139" width="223.03" height="225.395" fill="none"/>
    </clipPath>
    <clipPath id="clip-path-8">
      <rect id="Rectángulo_385140" data-name="Rectángulo 385140" width="35.16" height="11.917" fill="none"/>
    </clipPath>
    <clipPath id="clip-path-9">
      <rect id="Rectángulo_385141" data-name="Rectángulo 385141" width="14.811" height="9.783" fill="none"/>
    </clipPath>
    <clipPath id="clip-path-10">
      <rect id="Rectángulo_385142" data-name="Rectángulo 385142" width="20.234" height="27.42" fill="none"/>
    </clipPath>
    <clipPath id="clip-path-11">
      <rect id="Rectángulo_385143" data-name="Rectángulo 385143" width="27.956" height="28.413" fill="none"/>
    </clipPath>
  </defs>
  <g id="Grupo_1083361" data-name="Grupo 1083361" clip-path="url(#clip-path)">
    <rect id="Rectángulo_385122" data-name="Rectángulo 385122" width="33.052" height="124.444" transform="translate(17.496 105.562)" fill="#f5f5f5"/>
    <rect id="Rectángulo_385123" data-name="Rectángulo 385123" width="33.052" height="82.374" transform="translate(196.58 146.944)" fill="#f5f5f5"/>
    <rect id="Rectángulo_385124" data-name="Rectángulo 385124" width="33.052" height="147.12" transform="translate(247.056 82.198)" fill="#f5f5f5"/>
    <rect id="Rectángulo_385125" data-name="Rectángulo 385125" width="33.052" height="141.78" transform="translate(140.586 87.538)" fill="#f5f5f5"/>
    <rect id="Rectángulo_385126" data-name="Rectángulo 385126" width="33.052" height="181.921" transform="translate(74.279 47.397)" fill="#f5f5f5"/>
    <g id="Grupo_1083337" data-name="Grupo 1083337">
      <g id="Grupo_1083336" data-name="Grupo 1083336" clip-path="url(#clip-path)">
        <path id="Trazado_833340" data-name="Trazado 833340" d="M291,368.807c0,.09-65.148.162-145.493.162C65.134,368.969,0,368.9,0,368.807s65.134-.162,145.507-.162c80.345,0,145.493.072,145.493.162" transform="translate(0 -138.638)" fill="#263238"/>
      </g>
    </g>
    <g id="Grupo_1083339" data-name="Grupo 1083339">
      <g id="Grupo_1083338" data-name="Grupo 1083338" clip-path="url(#clip-path)">
        <path id="Trazado_833341" data-name="Trazado 833341" d="M304.283,344.987H355.5a1.687,1.687,0,0,0,1.683-1.806l-2.556-36.243a1.687,1.687,0,0,0-1.681-1.569l-47.013-.067a1.687,1.687,0,0,0-1.688,1.611L302.6,343.223a1.687,1.687,0,0,0,1.685,1.763" transform="translate(-113.798 -114.816)" fill="#263238"/>
        <path id="Trazado_833342" data-name="Trazado 833342" d="M316.538,345.028c.079,0,.143-8.869.143-19.807s-.064-19.808-.143-19.808-.143,8.867-.143,19.808.064,19.807.143,19.807" transform="translate(-118.988 -114.858)" fill="#455a64"/>
        <path id="Trazado_833343" data-name="Trazado 833343" d="M317.6,306.492a.67.67,0,0,0,.077.145l.25.409.988,1.556c.871,1.343,2.135,3.286,3.842,5.589a44.257,44.257,0,0,0,6.8,7.412,29.111,29.111,0,0,0,4.915,3.359,15.888,15.888,0,0,0,6.094,1.908,13.793,13.793,0,0,0,6.289-1.089,20.45,20.45,0,0,0,5.119-3.046,22.335,22.335,0,0,0,6.111-7.94,21.1,21.1,0,0,0,1.809-6.526c.035-.4.076-.754.093-1.062s.007-.563.009-.781v-.479a.733.733,0,0,0-.009-.163.69.69,0,0,0-.02.163c-.007.124-.016.281-.028.478q-.016.325-.037.777c-.026.306-.076.658-.119,1.054a21.722,21.722,0,0,1-1.882,6.454,22.345,22.345,0,0,1-6.094,7.82,20.3,20.3,0,0,1-5.058,2.991,13.564,13.564,0,0,1-6.161,1.064,15.685,15.685,0,0,1-5.987-1.871,29.083,29.083,0,0,1-4.877-3.314,45.046,45.046,0,0,1-6.807-7.331c-1.722-2.28-3.01-4.206-3.91-5.529l-1.033-1.527-.273-.394a.7.7,0,0,0-.1-.129" transform="translate(-119.439 -114.997)" fill="#455a64"/>
        <path id="Trazado_833344" data-name="Trazado 833344" d="M351.563,338.216a2.35,2.35,0,1,0,2.35-2.35,2.35,2.35,0,0,0-2.35,2.35" transform="translate(-132.213 -126.31)" fill="#455a64"/>
        <path id="Trazado_833345" data-name="Trazado 833345" d="M328.63,292.705a6.259,6.259,0,0,1,3.7-1.38,16.6,16.6,0,0,1,9.567,1.946,15.814,15.814,0,0,1,6.254,7.18l-1.847,1.932a12.223,12.223,0,0,0-5.054-7.418,11.576,11.576,0,0,0-8.487-2.023,6.216,6.216,0,0,0-2.307.793,2.737,2.737,0,0,0-1.18,3.081,6.832,6.832,0,0,0,1.574,3.653l-3.036.071a15.484,15.484,0,0,1-.664-4.081,5.216,5.216,0,0,1,1.481-3.755" transform="translate(-123.032 -109.531)" fill="#263238"/>
      </g>
    </g>
    <rect id="Rectángulo_385129" data-name="Rectángulo 385129" width="19.415" height="7.649" transform="translate(134.76 211.154)" fill="#fafafa"/>
    <rect id="Rectángulo_385130" data-name="Rectángulo 385130" width="60.974" height="1.602" transform="translate(133.951 209.84)" fill="#455a64"/>
    <rect id="Rectángulo_385131" data-name="Rectángulo 385131" width="60.692" height="1.602" transform="translate(134.234 218.461)" fill="#455a64"/>
    <path id="Trazado_833346" data-name="Trazado 833346" d="M247.1,336.933l.092,9.537h40.659v-9.537Z" transform="translate(-92.929 -126.711)" fill="#455a64"/>
    <g id="Grupo_1083341" data-name="Grupo 1083341">
      <g id="Grupo_1083340" data-name="Grupo 1083340" clip-path="url(#clip-path)">
        <path id="Trazado_833347" data-name="Trazado 833347" d="M260.294,343.129a2.2,2.2,0,1,1-2.2-2.373,2.291,2.291,0,0,1,2.2,2.373" transform="translate(-96.236 -128.149)" fill="#263238"/>
        <path id="Trazado_833348" data-name="Trazado 833348" d="M257.89,345.639a2.72,2.72,0,1,1,2.539-2.715,2.634,2.634,0,0,1-2.539,2.715m0-4.747a2.041,2.041,0,1,0,1.857,2.032,1.952,1.952,0,0,0-1.857-2.032" transform="translate(-96.031 -127.944)" fill="#e0e0e0"/>
        <path id="Trazado_833349" data-name="Trazado 833349" d="M234.026,347.574c0,.1-3.989.178-8.909.178s-8.91-.08-8.91-.178,3.988-.178,8.91-.178,8.909.08,8.909.178" transform="translate(-81.31 -130.646)" fill="#263238"/>
        <path id="Trazado_833350" data-name="Trazado 833350" d="M234.026,345.438c0,.1-3.989.178-8.909.178s-8.91-.08-8.91-.178,3.988-.178,8.91-.178,8.909.08,8.909.178" transform="translate(-81.31 -129.843)" fill="#263238"/>
        <path id="Trazado_833351" data-name="Trazado 833351" d="M234.026,343.3c0,.1-3.989.178-8.909.178s-8.91-.08-8.91-.178,3.988-.178,8.91-.178,8.909.08,8.909.178" transform="translate(-81.31 -129.04)" fill="#263238"/>
        <path id="Trazado_833352" data-name="Trazado 833352" d="M234.026,341.167c0,.1-3.989.178-8.909.178s-8.91-.08-8.91-.178,3.988-.178,8.91-.178,8.909.08,8.909.178" transform="translate(-81.31 -128.237)" fill="#263238"/>
        <rect id="Rectángulo_385132" data-name="Rectángulo 385132" width="18.322" height="5.104" transform="translate(172.095 212.25)" fill="#fff"/>
        <path id="Trazado_833353" data-name="Trazado 833353" d="M280.292,345.082a11.716,11.716,0,0,1,0-4.067,11.714,11.714,0,0,1,0,4.067" transform="translate(-105.343 -128.247)" fill="#e0e0e0"/>
        <path id="Trazado_833354" data-name="Trazado 833354" d="M284.175,345.082a11.714,11.714,0,0,1,0-4.067,11.756,11.756,0,0,1,0,4.067" transform="translate(-106.804 -128.247)" fill="#e0e0e0"/>
        <path id="Trazado_833355" data-name="Trazado 833355" d="M288.058,345.082a11.714,11.714,0,0,1,0-4.067,11.754,11.754,0,0,1,0,4.067" transform="translate(-108.264 -128.247)" fill="#e0e0e0"/>
        <path id="Trazado_833356" data-name="Trazado 833356" d="M291.941,345.082a11.714,11.714,0,0,1,0-4.067,11.756,11.756,0,0,1,0,4.067" transform="translate(-109.724 -128.247)" fill="#e0e0e0"/>
        <path id="Trazado_833357" data-name="Trazado 833357" d="M295.824,345.082a11.714,11.714,0,0,1,0-4.067,11.756,11.756,0,0,1,0,4.067" transform="translate(-111.185 -128.247)" fill="#e0e0e0"/>
        <path id="Trazado_833358" data-name="Trazado 833358" d="M299.707,345.082a11.714,11.714,0,0,1,0-4.067,11.714,11.714,0,0,1,0,4.067" transform="translate(-112.645 -128.247)" fill="#e0e0e0"/>
        <rect id="Rectángulo_385133" data-name="Rectángulo 385133" width="19.415" height="7.649" transform="translate(137.34 221.095)" fill="#fafafa"/>
        <rect id="Rectángulo_385134" data-name="Rectángulo 385134" width="60.974" height="1.602" transform="translate(136.531 219.782)" fill="#ff725e"/>
        <rect id="Rectángulo_385135" data-name="Rectángulo 385135" width="60.692" height="1.602" transform="translate(136.813 228.403)" fill="#ff725e"/>
        <path id="Trazado_833359" data-name="Trazado 833359" d="M251.239,352.867l.092,9.537h40.659v-9.537Z" transform="translate(-94.484 -132.704)" fill="#ff725e"/>
        <path id="Trazado_833360" data-name="Trazado 833360" d="M264.428,359.064a2.2,2.2,0,1,1-2.2-2.373,2.291,2.291,0,0,1,2.2,2.373" transform="translate(-97.791 -134.142)" fill="#263238"/>
        <path id="Trazado_833361" data-name="Trazado 833361" d="M262.024,361.573a2.72,2.72,0,1,1,2.539-2.714,2.634,2.634,0,0,1-2.539,2.714m0-4.746a2.04,2.04,0,1,0,1.857,2.032,1.953,1.953,0,0,0-1.857-2.032" transform="translate(-97.585 -133.937)" fill="#e0e0e0"/>
        <path id="Trazado_833362" data-name="Trazado 833362" d="M238.16,363.509c0,.1-3.989.178-8.909.178s-8.91-.08-8.91-.178,3.988-.178,8.91-.178,8.909.08,8.909.178" transform="translate(-82.864 -136.639)" fill="#263238"/>
        <path id="Trazado_833363" data-name="Trazado 833363" d="M238.16,361.373c0,.1-3.989.178-8.909.178s-8.91-.08-8.91-.178,3.988-.178,8.91-.178,8.909.08,8.909.178" transform="translate(-82.864 -135.836)" fill="#263238"/>
        <path id="Trazado_833364" data-name="Trazado 833364" d="M238.16,359.237c0,.1-3.989.178-8.909.178s-8.91-.08-8.91-.178,3.988-.178,8.91-.178,8.909.08,8.909.178" transform="translate(-82.864 -135.033)" fill="#263238"/>
        <path id="Trazado_833365" data-name="Trazado 833365" d="M238.16,357.1c0,.1-3.989.178-8.909.178s-8.91-.08-8.91-.178,3.988-.178,8.91-.178,8.909.08,8.909.178" transform="translate(-82.864 -134.23)" fill="#263238"/>
        <rect id="Rectángulo_385136" data-name="Rectángulo 385136" width="18.322" height="5.104" transform="translate(174.674 222.191)" fill="#fff"/>
        <path id="Trazado_833366" data-name="Trazado 833366" d="M284.426,361.016a11.714,11.714,0,0,1,0-4.067,11.714,11.714,0,0,1,0,4.067" transform="translate(-106.898 -134.239)" fill="#e0e0e0"/>
        <path id="Trazado_833367" data-name="Trazado 833367" d="M288.309,361.016a11.716,11.716,0,0,1,0-4.067,11.714,11.714,0,0,1,0,4.067" transform="translate(-108.358 -134.239)" fill="#e0e0e0"/>
        <path id="Trazado_833368" data-name="Trazado 833368" d="M292.192,361.016a11.714,11.714,0,0,1,0-4.067,11.756,11.756,0,0,1,0,4.067" transform="translate(-109.819 -134.239)" fill="#e0e0e0"/>
        <path id="Trazado_833369" data-name="Trazado 833369" d="M296.075,361.016a11.714,11.714,0,0,1,0-4.067,11.756,11.756,0,0,1,0,4.067" transform="translate(-111.279 -134.239)" fill="#e0e0e0"/>
        <path id="Trazado_833370" data-name="Trazado 833370" d="M299.958,361.016a11.714,11.714,0,0,1,0-4.067,11.756,11.756,0,0,1,0,4.067" transform="translate(-112.739 -134.239)" fill="#e0e0e0"/>
        <path id="Trazado_833371" data-name="Trazado 833371" d="M303.841,361.016a11.714,11.714,0,0,1,0-4.067,11.714,11.714,0,0,1,0,4.067" transform="translate(-114.2 -134.239)" fill="#e0e0e0"/>
      </g>
    </g>
    <g id="Grupo_1083343" data-name="Grupo 1083343">
      <g id="Grupo_1083342" data-name="Grupo 1083342" clip-path="url(#clip-path)">
        <path id="Trazado_833372" data-name="Trazado 833372" d="M167.144,37.781l-5.025-1.006a19.543,19.543,0,1,1,5.394-4.465l.009-.007Z" transform="translate(-50.045 -0.088)" fill="#fff"/>
        <path id="Trazado_833373" data-name="Trazado 833373" d="M167.055,37.693s0-.13.012-.371.032-.606.057-1.06c.055-.938.135-2.3.238-4.052l.112.064-.009.006a.072.072,0,0,1-.1-.017.074.074,0,0,1,0-.088,19.481,19.481,0,0,0,4.087-8.4,19.923,19.923,0,0,0,.314-6.153,19.41,19.41,0,0,0-2.008-6.7A19.786,19.786,0,0,0,164.948,4.9a18.941,18.941,0,0,0-7.367-3.886,19.791,19.791,0,0,0-8.849-.3,18.947,18.947,0,0,0-8.389,3.948,19.9,19.9,0,0,0-3.324,3.424c-.445.651-.9,1.295-1.29,1.97l-.543,1.034-.268.517-.215.538a19.746,19.746,0,0,0-1.489,8.819,18.882,18.882,0,0,0,2.394,8.059,19.826,19.826,0,0,0,5.036,5.926,19.505,19.505,0,0,0,6.23,3.266l1.586.407c.522.121,1.049.173,1.559.261a17.537,17.537,0,0,0,2.982.175,19.474,19.474,0,0,0,9-2.425.068.068,0,0,1,.048-.007l3.7.782.972.211c.221.049.339.081.339.081s-.1-.012-.319-.051l-.961-.176-3.759-.711.047-.007a19.418,19.418,0,0,1-9.06,2.53,17.731,17.731,0,0,1-3.019-.158c-.517-.086-1.051-.137-1.581-.256l-1.609-.4a19.676,19.676,0,0,1-6.334-3.286,20.064,20.064,0,0,1-5.134-6,19.169,19.169,0,0,1-2.452-8.191A20.053,20.053,0,0,1,134.38,12l.218-.548.273-.526.553-1.054c.4-.688.859-1.345,1.313-2.007a20.181,20.181,0,0,1,3.384-3.487A19.26,19.26,0,0,1,148.663.362a20.1,20.1,0,0,1,9.006.321,19.21,19.21,0,0,1,7.485,3.969,20.041,20.041,0,0,1,4.872,6.136,19.629,19.629,0,0,1,2.008,6.8,20.084,20.084,0,0,1-.354,6.229,19.446,19.446,0,0,1-4.2,8.448l-.1-.105.009-.006a.071.071,0,0,1,.1.017.074.074,0,0,1,.013.046c-.141,1.772-.25,3.144-.324,4.09l-.089,1.041c-.021.231-.037.342-.037.342" transform="translate(-49.957 0)" fill="#263238"/>
        <path id="Trazado_833374" data-name="Trazado 833374" d="M150.481,28.718l2.445-2.617,5.028,4.172,9.267-9.544,2.436,2.45-11.9,11.987Z" transform="translate(-56.592 -7.796)" fill="#ff725e"/>
      </g>
    </g>
    <g id="Grupo_1083360" data-name="Grupo 1083360">
      <g id="Grupo_1083359" data-name="Grupo 1083359" clip-path="url(#clip-path)">
        <path id="Trazado_833375" data-name="Trazado 833375" d="M270.816,7.844H254.932l-46.35,27.9c.173.261,5.645,4.217,12.79,9.326l-67.12,123.586L98.079,143.843l-49.739,89.4H75.518l34.272-62.6,51.549,23.88,21.851,2.608L242.343,59.983c7.433,5.269,13.143,9.3,13.143,9.3h15.883S266.737,30.41,266.737,30.1s4.079-22.257,4.079-22.257" transform="translate(-18.179 -2.95)" fill="#ff725e"/>
        <g id="Grupo_1083346" data-name="Grupo 1083346" transform="translate(30.161 4.894)" opacity="0.3">
          <g id="Grupo_1083345" data-name="Grupo 1083345">
            <g id="Grupo_1083344" data-name="Grupo 1083344" clip-path="url(#clip-path-7)">
              <path id="Trazado_833376" data-name="Trazado 833376" d="M270.816,7.844H254.932l-46.35,27.9c.173.261,5.645,4.217,12.79,9.326l-67.12,123.586L98.079,143.843l-49.739,89.4H75.518l34.272-62.6,51.549,23.88,21.851,2.608L242.343,59.983c7.433,5.269,13.143,9.3,13.143,9.3h15.883S266.737,30.41,266.737,30.1s4.079-22.257,4.079-22.257" transform="translate(-48.34 -7.844)"/>
            </g>
          </g>
        </g>
        <path id="Trazado_833377" data-name="Trazado 833377" d="M74.113,250.054l49.938-90.162,55.974,25.575L252.211,52.554,273.7,63.845l-80.82,150.093-57.32-26.488-34.272,62.6Z" transform="translate(-27.872 -19.764)" fill="#ff725e"/>
        <path id="Trazado_833378" data-name="Trazado 833378" d="M330.626,35.741c.512.767,46.9,33.547,46.9,33.547l-.553-61.442Z" transform="translate(-124.34 -2.95)" fill="#ff725e"/>
        <path id="Trazado_833379" data-name="Trazado 833379" d="M321.052,52.457c0,.09-3.556.162-7.941.162s-7.942-.072-7.942-.162,3.555-.162,7.942-.162,7.941.072,7.941.162" transform="translate(-114.766 -19.667)" fill="#263238"/>
        <path id="Trazado_833380" data-name="Trazado 833380" d="M340.94,67.82c0,.09-3.556.162-7.941.162s-7.943-.072-7.943-.162,3.556-.162,7.943-.162,7.941.072,7.941.162" transform="translate(-122.245 -25.444)" fill="#263238"/>
        <path id="Trazado_833381" data-name="Trazado 833381" d="M158.644,153.3s-.964.419-1.114-.867,2.531-3.966,3.389-4.817,2.083-.668,3.171-.426,5.541.691,7.019,1.64,3.739,5.706,4.211,5.932,14.364.95,14.364.95l-.6,11.386s-13.635-2.6-16.336-4.287-2.346-2.362-3.113-3.937-1.592-3.248-1.592-3.248l-1.277-.212-2.046,1.13s-.241,2.89-2.267,2.816l-.992-.523s-.663.766-1.417-.417-.611-1.405-.611-1.405-.794.982-1.652-.236.861-3.478.861-3.478" transform="translate(-59.24 -55.279)" fill="#ae7461"/>
        <path id="Trazado_833382" data-name="Trazado 833382" d="M176.64,159.846c0,.009-.049.025-.15.047a2.059,2.059,0,0,1-.453.046,3.27,3.27,0,0,1-1.635-.465,4.349,4.349,0,0,1-1.731-1.92,8.346,8.346,0,0,1-.719-3.191l.22.134a8.224,8.224,0,0,1-5.405.494,2.008,2.008,0,0,1-1.047-.487.524.524,0,0,1-.036-.671,1.115,1.115,0,0,1,.491-.315c1.25-.507,2.4-.9,3.375-1.2s1.775-.5,2.33-.625a4.191,4.191,0,0,1,.872-.155,5.046,5.046,0,0,1-.84.277c-.544.163-1.331.4-2.292.722s-2.1.738-3.331,1.256a.874.874,0,0,0-.362.223.211.211,0,0,0,.028.285,1.792,1.792,0,0,0,.888.379,7.916,7.916,0,0,0,2.2.225,8.01,8.01,0,0,0,3-.693l.21-.1.01.23a8.288,8.288,0,0,0,.649,3.092,4.239,4.239,0,0,0,1.592,1.866,3.375,3.375,0,0,0,1.537.527c.384.028.6-.012.6.013" transform="translate(-62.27 -56.988)" fill="#6f4439"/>
        <path id="Trazado_833383" data-name="Trazado 833383" d="M167.181,152.291a1.982,1.982,0,0,1-1.312.255c-.414,0-.9-.075-1.416-.041a1.95,1.95,0,0,0-1.422.715,7.571,7.571,0,0,1-2.614,1.883,3.239,3.239,0,0,1-1.288.353c-.014-.051.472-.195,1.19-.562a8.64,8.64,0,0,0,2.478-1.9,2.507,2.507,0,0,1,.76-.588,2.267,2.267,0,0,1,.879-.2,11.011,11.011,0,0,1,1.448.11,6.366,6.366,0,0,0,1.3-.026" transform="translate(-59.844 -57.24)" fill="#6f4439"/>
        <path id="Trazado_833384" data-name="Trazado 833384" d="M164.787,157.2a6.662,6.662,0,0,1-4.411,3.785,24.037,24.037,0,0,0,2.428-1.633,23.845,23.845,0,0,0,1.982-2.153" transform="translate(-60.313 -59.12)" fill="#6f4439"/>
        <path id="Trazado_833385" data-name="Trazado 833385" d="M166.58,160a5.015,5.015,0,0,1-2.765,3.777c-.056-.081.829-.689,1.587-1.738s1.083-2.066,1.177-2.038" transform="translate(-61.606 -60.173)" fill="#6f4439"/>
        <path id="Trazado_833386" data-name="Trazado 833386" d="M215.5,121.543l-12.432,22.432-19.295-.332-1.451,11.588,19.911,4.882,8.2-9Z" transform="translate(-68.566 -45.709)" fill="#e0e0e0"/>
        <path id="Trazado_833387" data-name="Trazado 833387" d="M217.118,161.3c-.1.009-.216-.913-.647-1.955s-.98-1.79-.9-1.851a4.783,4.783,0,0,1,1.552,3.806" transform="translate(-81.066 -59.228)" fill="#263238"/>
        <path id="Trazado_833388" data-name="Trazado 833388" d="M240.87,47.969a3.238,3.238,0,0,1-1.486-6.27,3.369,3.369,0,0,1,2.833-5.733,4.032,4.032,0,0,1,6.018-3.414,4.534,4.534,0,0,1,5.579-.214,3.224,3.224,0,0,1,2.946,5.417" transform="translate(-89.21 -11.839)" fill="#263238"/>
        <path id="Trazado_833389" data-name="Trazado 833389" d="M256.084,37.955l-.711.014a13.74,13.74,0,0,0-13.449,12.9c-.407,6.647-.771,14-.658,17.556.234,7.37,7.63,8.374,7.63,8.374l-.452,8.87.875,6.76,17.008-7.661.96-32.154c.512-7.667-3.524-14.357-11.2-14.656" transform="translate(-90.726 -14.274)" fill="#ae7461"/>
        <path id="Trazado_833390" data-name="Trazado 833390" d="M253.379,98.377a17.887,17.887,0,0,0,9.605-3.014s-2.285,5.708-9.655,5.187Z" transform="translate(-95.271 -35.863)" fill="#6f4439"/>
        <path id="Trazado_833391" data-name="Trazado 833391" d="M246.169,70.107A1.053,1.053,0,0,0,247.2,71.15a1.007,1.007,0,0,0,1.067-.97,1.053,1.053,0,0,0-1.034-1.043,1.008,1.008,0,0,0-1.068.971" transform="translate(-92.578 -26)" fill="#263238"/>
        <path id="Trazado_833392" data-name="Trazado 833392" d="M244.974,63.69c.133.135.919-.471,2.052-.49,1.132-.036,1.975.532,2.095.391.059-.063-.079-.308-.445-.565a2.887,2.887,0,0,0-1.68-.482,2.774,2.774,0,0,0-1.63.562c-.343.274-.456.524-.391.585" transform="translate(-92.122 -23.521)" fill="#263238"/>
        <path id="Trazado_833393" data-name="Trazado 833393" d="M261.547,69.729a1.052,1.052,0,0,0,1.035,1.043,1.007,1.007,0,0,0,1.068-.97,1.055,1.055,0,0,0-1.035-1.043,1.007,1.007,0,0,0-1.068.971" transform="translate(-98.361 -25.858)" fill="#263238"/>
        <path id="Trazado_833394" data-name="Trazado 833394" d="M262.83,63.682c.133.135.92-.471,2.053-.49,1.131-.035,1.974.532,2.095.391.059-.062-.077-.308-.446-.565a2.894,2.894,0,0,0-1.68-.482,2.776,2.776,0,0,0-1.631.562c-.342.274-.455.525-.391.585" transform="translate(-98.837 -23.518)" fill="#263238"/>
        <path id="Trazado_833395" data-name="Trazado 833395" d="M254.762,72.272a7.456,7.456,0,0,0-1.846-.3c-.29-.024-.565-.077-.618-.273a1.478,1.478,0,0,1,.177-.861l.813-2.22a37.9,37.9,0,0,0,1.81-5.8,37.849,37.849,0,0,0-2.272,5.64q-.407,1.168-.777,2.231a1.674,1.674,0,0,0-.128,1.139.724.724,0,0,0,.484.414,1.953,1.953,0,0,0,.493.059,7.379,7.379,0,0,0,1.865-.033" transform="translate(-94.717 -23.626)" fill="#263238"/>
        <path id="Trazado_833396" data-name="Trazado 833396" d="M261.12,56.659c.155.285,1.12-.046,2.315-.108,1.193-.089,2.2.117,2.308-.183.044-.143-.173-.4-.608-.618a3.581,3.581,0,0,0-1.8-.343,3.453,3.453,0,0,0-1.721.565c-.391.273-.562.552-.493.688" transform="translate(-98.195 -20.834)" fill="#263238"/>
        <path id="Trazado_833397" data-name="Trazado 833397" d="M244.729,56.16c.244.253,1.174-.032,2.3-.067,1.122-.067,2.08.132,2.294-.141.094-.132-.061-.387-.482-.623a3.658,3.658,0,0,0-1.877-.386,3.6,3.6,0,0,0-1.823.553c-.392.272-.518.54-.41.663" transform="translate(-92.022 -20.661)" fill="#263238"/>
        <path id="Trazado_833398" data-name="Trazado 833398" d="M243.352,46.942s1.855-4.654,4.061-5.775c2.67-1.356,3.887,1.579,6.442.812s5.1-2.07,7.766-.135c2.916,2.118,1.6,3.668,1.84,6.936.976,13.248,3.471,16.951,4.039,10.692.062-.686,1.951-1.267,2.177-4.164.292-3.757.348-8.312-.54-10.957a10.5,10.5,0,0,0-4.384-5.418c-3.672-2.627-8.645-2.588-12.015-2.183s-9.805,4.417-9.385,10.192" transform="translate(-91.511 -13.744)" fill="#263238"/>
        <path id="Trazado_833399" data-name="Trazado 833399" d="M281.24,71.792a2,2,0,0,1,2.123-1.97c1.378.1,2.922.855,2.887,3.7-.063,5.044-5.114,3.939-5.121,3.795,0-.1.065-3.412.11-5.522" transform="translate(-105.725 -26.256)" fill="#ae7461"/>
        <path id="Trazado_833400" data-name="Trazado 833400" d="M282.924,76.417c.022-.016.087.063.235.133a.879.879,0,0,0,.657.021,2.172,2.172,0,0,0,1.03-1.937,2.894,2.894,0,0,0-.23-1.261,1.012,1.012,0,0,0-.652-.683.447.447,0,0,0-.522.234c-.069.14-.039.241-.065.25s-.107-.086-.064-.294a.563.563,0,0,1,.2-.313.664.664,0,0,1,.487-.122,1.233,1.233,0,0,1,.908.794,2.975,2.975,0,0,1,.287,1.409,2.281,2.281,0,0,1-1.309,2.163.943.943,0,0,1-.8-.144c-.155-.127-.18-.24-.162-.249" transform="translate(-106.398 -27.242)" fill="#6f4439"/>
        <path id="Trazado_833401" data-name="Trazado 833401" d="M268.724,48.493a4.784,4.784,0,0,1-2.116,1.027,1.644,1.644,0,0,1-1.846-1.121c-.067-.35.011-.759-.225-1.025-.281-.318-.787-.207-1.209-.154-1.462.183-3.206-1.4-3.607-2.82a1.315,1.315,0,0,1-1.751.4,4.723,4.723,0,0,1-1.235-1.056,2.075,2.075,0,0,0-1.747-.832,4.95,4.95,0,0,1-1.092.263c-.663-.046-1-.815-1.114-1.469s-.206-1.42-.773-1.766a2.639,2.639,0,0,0-1.8-.015c-.608.1-1.4-.026-1.565-.619a1.2,1.2,0,0,1,.208-.918,3.266,3.266,0,0,1,3.83-1.311,4.425,4.425,0,0,1,8.112-1.015,4.491,4.491,0,0,1,7.209,1.5,3.255,3.255,0,0,1,3.762,4.663,3.092,3.092,0,0,1,1.748,2.428,1.77,1.77,0,0,1-1.969,1.847,1.8,1.8,0,0,1-3.082,1.858" transform="translate(-93.497 -12.721)" fill="#263238"/>
        <path id="Trazado_833402" data-name="Trazado 833402" d="M254.574,41.421a.255.255,0,0,0,0,.092,2.682,2.682,0,0,0,.037.268,3.165,3.165,0,0,0,.384.965,3.615,3.615,0,0,0,1.141,1.17,3.359,3.359,0,0,0,2.076.548l-.087-.11a1.823,1.823,0,0,0,.128,1.389,5.224,5.224,0,0,0,.887,1.223,3.76,3.76,0,0,0,.575.568,1.766,1.766,0,0,0,.8.281,1.841,1.841,0,0,0,1.612-.613l-.19-.051a3.782,3.782,0,0,0,1.654,2.585,2.759,2.759,0,0,0,1.665.51,4.994,4.994,0,0,0,1.625-.39l-.136-.057a3.975,3.975,0,0,0,1.223,1.533,2.115,2.115,0,0,0,1.765.444,2.777,2.777,0,0,0,2.1-2.214l-.113.056a2.6,2.6,0,0,0,1.737.221,2.825,2.825,0,0,0,1.2-.562,2.443,2.443,0,0,0,.551-.627,1.173,1.173,0,0,0,.123-.263,3.025,3.025,0,0,1-.726.823,2.788,2.788,0,0,1-1.169.509,2.483,2.483,0,0,1-1.64-.236l-.1-.052-.017.107a2.621,2.621,0,0,1-1.984,2.053,1.923,1.923,0,0,1-1.6-.422,3.79,3.79,0,0,1-1.149-1.454l-.042-.092-.094.036a4.813,4.813,0,0,1-1.554.371,2.543,2.543,0,0,1-1.538-.475,3.579,3.579,0,0,1-1.564-2.435l-.036-.238-.153.188a1.635,1.635,0,0,1-1.423.541,1.566,1.566,0,0,1-.713-.243,3.654,3.654,0,0,1-.542-.532,5.1,5.1,0,0,1-.867-1.17,1.652,1.652,0,0,1-.134-1.257l.039-.122-.127.011a3.239,3.239,0,0,1-1.988-.5A3.582,3.582,0,0,1,255.08,42.7a3.914,3.914,0,0,1-.505-1.275" transform="translate(-95.738 -15.577)" fill="#455a64"/>
        <path id="Trazado_833403" data-name="Trazado 833403" d="M257.026,82.32c.025-.188,1.27.046,2.356-.85s1.2-2.248,1.379-2.224c.081,0,.185.342.094.9a3.157,3.157,0,0,1-1.08,1.87,2.748,2.748,0,0,1-1.96.633c-.53-.052-.812-.25-.788-.333" transform="translate(-96.66 -29.802)" fill="#263238"/>
        <path id="Trazado_833404" data-name="Trazado 833404" d="M199.441,163.341l9.6-10.588,8.028-24.262c1.639-4.209,3.046-9.553,5.032-13.544a9.423,9.423,0,0,1,4.626-4.4l3.409-1.514,2.038-3.253c-1.174,7.358,9.138,8.264,20.1-.871,0,0,3.621,2.45,8.724,6.682,2.234,1.853,4.26,3.878,5.1,6.936,1.533,5.554-5.057,21.987-12.231,37.446-2.146,4.625-12.368,25.346-12.368,25.346L237.822,184s-32.528-9.856-35.455-15.257Z" transform="translate(-75.004 -39.453)" fill="#e0e0e0"/>
        <path id="Trazado_833405" data-name="Trazado 833405" d="M207.977,164.919a2.114,2.114,0,0,1,.272-.318l.827-.869,3.1-3.168-.027.044,2.119-6.519c.827-2.463,1.665-5.2,2.512-8.089,1.64-5.669,3.191-10.8,4.625-14.4.7-1.808,1.347-3.235,1.806-4.216l.559-1.114a2.133,2.133,0,0,1,.215-.379,2.242,2.242,0,0,1-.156.407c-.128.291-.3.669-.5,1.139-.422,1-1.04,2.431-1.706,4.245-1.375,3.613-2.887,8.736-4.528,14.409-.846,2.89-1.7,5.635-2.54,8.091-.825,2.452-1.567,4.654-2.187,6.5l-.009.026-.018.018-3.168,3.1-.869.827a2.11,2.11,0,0,1-.318.272" transform="translate(-78.214 -47.345)" fill="#263238"/>
        <path id="Trazado_833406" data-name="Trazado 833406" d="M242.019,123.079,230.769,169.2l-11.686,5.812V163.729L239.3,122.076Z" transform="translate(-82.391 -45.91)" fill="#ff725e"/>
        <g id="Grupo_1083349" data-name="Grupo 1083349" transform="translate(138.111 119.138)" opacity="0.3">
          <g id="Grupo_1083348" data-name="Grupo 1083348">
            <g id="Grupo_1083347" data-name="Grupo 1083347" clip-path="url(#clip-path-8)">
              <path id="Trazado_833407" data-name="Trazado 833407" d="M221.357,190.949a43.084,43.084,0,0,1,8.88,5.017A54.557,54.557,0,0,0,239,201.208a16.8,16.8,0,0,0,9.967,1.394,10.041,10.041,0,0,0,7.555-6.194Z" transform="translate(-221.357 -190.949)"/>
            </g>
          </g>
        </g>
        <path id="Trazado_833408" data-name="Trazado 833408" d="M248.637,106.307l2.875-4.4,1.129,6.033,2.866-3.243,14.219-6.652,2.468,5.286-15.71,9.29-4.357-.325-3.177-3.77Z" transform="translate(-93.506 -36.871)" fill="#e0e0e0"/>
        <path id="Trazado_833409" data-name="Trazado 833409" d="M248.622,110.917a4.094,4.094,0,0,1,.215.91c.142.688.3,1.465.482,2.325l-.285-.042.774-1.417,1.2-2.12.153-.272.1.29c.251.719.386,1.325.5,1.746a2.654,2.654,0,0,1,.145.674,1.8,1.8,0,0,1-.3-.624c-.16-.408-.337-1.012-.605-1.695l.255.017-1.16,2.141-.79,1.408-.2.364-.08-.406a13.267,13.267,0,0,1-.4-3.3" transform="translate(-93.491 -41.481)" fill="#263238"/>
        <path id="Trazado_833410" data-name="Trazado 833410" d="M253.9,114.721l-1.81-.221c-.49.551-1.69,1.686-2.18,2.237l0,.051q.321,1.811.643,3.621a11.776,11.776,0,0,1,3.02.243l1.664-2.92Z" transform="translate(-93.985 -43.06)" fill="#ff725e"/>
        <path id="Trazado_833411" data-name="Trazado 833411" d="M254.762,218.686a17.61,17.61,0,0,1-1.46-1.414,45.8,45.8,0,0,0-7.617-6.1,17.494,17.494,0,0,1-1.7-1.116,1.8,1.8,0,0,1,.507.21c.318.152.766.394,1.311.709a33.834,33.834,0,0,1,7.662,6.138c.427.463.761.849.979,1.125a1.791,1.791,0,0,1,.316.449" transform="translate(-91.757 -78.995)" fill="#263238"/>
        <path id="Trazado_833412" data-name="Trazado 833412" d="M256.533,114.853l2.01-.99.681,3.518-1.673.148Z" transform="translate(-96.475 -42.821)" fill="#ff725e"/>
        <g id="Grupo_1083352" data-name="Grupo 1083352" transform="translate(161.793 67.809)" opacity="0.3">
          <g id="Grupo_1083351" data-name="Grupo 1083351">
            <g id="Grupo_1083350" data-name="Grupo 1083350" clip-path="url(#clip-path-9)">
              <path id="Trazado_833413" data-name="Trazado 833413" d="M259.314,110.5v7.966l14.811-9.783-13.783,8.025Z" transform="translate(-259.314 -108.681)"/>
            </g>
          </g>
        </g>
        <path id="Trazado_833414" data-name="Trazado 833414" d="M274.957,106.514a6.776,6.776,0,0,1-.861.65c-.572.393-1.409.948-2.473,1.588-2.116,1.3-5.153,2.894-8.426,4.774-1.383.8-2.688,1.609-3.863,2.405l-.195.132-.042-.229c-.449-2.433-.839-4.543-1.132-6.133l.167.052-1.563,1.457a4.106,4.106,0,0,1-.583.494,4.047,4.047,0,0,1,.508-.57l1.5-1.523.129-.132.037.184,1.238,6.111-.236-.1c1.175-.81,2.484-1.628,3.873-2.433,3.286-1.887,6.333-3.444,8.472-4.69,1.076-.612,1.929-1.136,2.521-1.5a6.844,6.844,0,0,1,.93-.544" transform="translate(-96.269 -40.057)" fill="#263238"/>
        <path id="Trazado_833415" data-name="Trazado 833415" d="M252.113,114.353l-.83-2.034-1.371,2.519.587.913Z" transform="translate(-93.985 -42.24)" fill="#ff725e"/>
        <path id="Trazado_833416" data-name="Trazado 833416" d="M254.736,115.106c.07.065-.922,1.211-1.987,2.737s-1.811,2.845-1.9,2.8a15.212,15.212,0,0,1,3.883-5.539" transform="translate(-94.337 -43.287)" fill="#263238"/>
        <path id="Trazado_833417" data-name="Trazado 833417" d="M253.642,124.108a11.371,11.371,0,0,1-3.032-.51,5.461,5.461,0,0,1,3.032.51" transform="translate(-94.248 -46.456)" fill="#263238"/>
        <path id="Trazado_833418" data-name="Trazado 833418" d="M130.127,150.259h0l-9.373-26.491a1.019,1.019,0,0,1,.755-1.3l21.65-5.655a1.078,1.078,0,0,1,1.257.715l9.851,29.842,30.552,20.067-1.468,1.5-7.816-1.9Z" transform="translate(-45.395 -43.92)" fill="#455a64"/>
        <path id="Trazado_833419" data-name="Trazado 833419" d="M196.513,169.217a.764.764,0,0,1-.158-.087l-.445-.281-1.7-1.109-6.2-4.129-20.391-13.725L166,148.791l-.046-.031-.017-.052-7.322-22.093-2.164-6.643c-.243-.767-.434-1.37-.572-1.8l-.14-.471a.7.7,0,0,1-.038-.164.681.681,0,0,1,.068.153l.171.462.627,1.786,2.26,6.611c1.891,5.625,4.5,13.391,7.418,22.061l-.063-.083,1.618,1.094,20.337,13.8,6.144,4.215,1.662,1.16.427.308a.781.781,0,0,1,.139.114" transform="translate(-58.556 -44.201)" fill="#263238"/>
        <path id="Trazado_833420" data-name="Trazado 833420" d="M141.794,168.97c0-.09,4.253-.364,9.509-.612s9.521-.377,9.525-.288-4.253.364-9.51.612-9.52.377-9.524.288" transform="translate(-53.325 -63.196)" fill="#263238"/>
        <path id="Trazado_833421" data-name="Trazado 833421" d="M145.82,144.182c.377,1.2.165,2.338-.474,2.539s-1.462-.611-1.84-1.813-.165-2.338.474-2.539,1.462.611,1.84,1.813" transform="translate(-53.899 -53.53)" fill="#e0e0e0"/>
        <path id="Trazado_833422" data-name="Trazado 833422" d="M189.4,157.6s-.809.4-.935-.888c-.112-1.144,2.635-2.838,3.662-3.473s3.2-.2,4.3-.055c1.494.194,4.974,1.752,6.08,3.079,1.124,1.349,1.894,4.8,2.3,5.123s14.242,5.769,14.242,5.769L215.9,178.117s-12.7-5.605-14.949-7.86-1.753-2.829-2.146-4.538-.819-3.523-.819-3.523l-1.2-.494-2.249.64a4.924,4.924,0,0,1-.854,1.521,1.762,1.762,0,0,1-2.642-.031,1.365,1.365,0,0,1-1.7-.892,2.705,2.705,0,0,1-.064-1.331s-1.023.2-1.031-1.073A6.062,6.062,0,0,1,189.4,157.6" transform="translate(-70.798 -57.504)" fill="#ae7461"/>
        <path id="Trazado_833423" data-name="Trazado 833423" d="M198.258,162.711c0,.054-.464.037-1.175.193a5.458,5.458,0,0,0-4.049,3.568c-.245.686-.286,1.147-.339,1.142a2.467,2.467,0,0,1,.12-1.211,5.136,5.136,0,0,1,4.227-3.725,2.476,2.476,0,0,1,1.217.033" transform="translate(-72.456 -61.162)" fill="#6f4439"/>
        <path id="Trazado_833424" data-name="Trazado 833424" d="M196.085,158.918c-.006.058-.5-.026-1.265.151a5.664,5.664,0,0,0-2.606,1.491,12.877,12.877,0,0,0-1.852,2.455,5.763,5.763,0,0,1-.72,1.078,4.709,4.709,0,0,1,.52-1.192,10.238,10.238,0,0,1,1.824-2.573,5.3,5.3,0,0,1,2.79-1.484,2.263,2.263,0,0,1,1.309.074" transform="translate(-71.318 -59.72)" fill="#6f4439"/>
        <path id="Trazado_833425" data-name="Trazado 833425" d="M195.889,154.8c-.006.054-.436,0-1.1.119a5.944,5.944,0,0,0-2.385,1.069,14.061,14.061,0,0,0-1.947,1.821c-.469.507-.766.819-.8.789a3.665,3.665,0,0,1,.627-.938,10.115,10.115,0,0,1,1.932-1.934,5.309,5.309,0,0,1,2.543-1.034,2.029,2.029,0,0,1,1.133.109" transform="translate(-71.323 -58.166)" fill="#6f4439"/>
        <path id="Trazado_833426" data-name="Trazado 833426" d="M265,114.983c3.889.76,6.421,4.177,7.212,8.45,1.123,6.061-12.772,34.707-15.361,40.96a12.735,12.735,0,0,1-12.276,7.948c-3.514-.082-28.138-11.631-28.138-11.631l3.61-12.5,21.88,6.5,8.67-24.4" transform="translate(-81.397 -43.242)" fill="#e0e0e0"/>
        <path id="Trazado_833427" data-name="Trazado 833427" d="M250.485,130.315s-.041.15-.137.436l-.432,1.267-1.7,4.863-6.295,17.869-.037.106-.108-.032-21.888-6.466.185-.1c-1.151,4-2.355,8.175-3.6,12.5l-.084-.186c5.747,2.669,11.9,5.469,18.31,8.167,2.6,1.081,5.185,2.157,7.792,2.987l.98.281c.326.085.651.113.975.175a13.6,13.6,0,0,0,5.823-1.194,11.97,11.97,0,0,0,5.587-5.155c.613-1.1,1.061-2.3,1.58-3.438L258.964,159c4.042-8.908,7.626-16.963,10.2-23.9a52.69,52.69,0,0,0,2.806-9.545,7.662,7.662,0,0,0,.054-2.091,14.361,14.361,0,0,0-.48-1.9,11.808,11.808,0,0,0-1.495-3.065,8.506,8.506,0,0,0-3.586-3,7.55,7.55,0,0,0-1.164-.4c-.27-.071-.406-.116-.406-.116s.141.023.414.084a6.783,6.783,0,0,1,1.182.377,8.459,8.459,0,0,1,3.664,2.99,11.879,11.879,0,0,1,1.539,3.09,14.491,14.491,0,0,1,.5,1.915,7.832,7.832,0,0,1-.039,2.146,52.389,52.389,0,0,1-2.77,9.6c-2.547,6.957-6.111,15.025-10.139,23.942l-1.517,3.389c-.516,1.137-.958,2.327-1.589,3.466a12.279,12.279,0,0,1-5.726,5.293,13.889,13.889,0,0,1-5.964,1.225c-.346-.061-.707-.1-1.043-.183l-1-.286c-2.635-.839-5.212-1.914-7.822-3-6.42-2.7-12.57-5.506-18.318-8.182l-.122-.057.037-.13c1.252-4.321,2.461-8.5,3.619-12.494l.042-.144.143.043,21.871,6.525-.145.074,6.394-17.834,1.754-4.842.464-1.256c.107-.283.169-.424.169-.424" transform="translate(-81.283 -43.242)" fill="#263238"/>
        <path id="Trazado_833428" data-name="Trazado 833428" d="M260.782,187.821c-.1.017-.436-2.176-1.411-4.71-.958-2.541-2.168-4.4-2.081-4.456a5.221,5.221,0,0,1,.849,1.182,19.826,19.826,0,0,1,2.491,6.538,5.231,5.231,0,0,1,.153,1.447" transform="translate(-96.758 -67.187)" fill="#263238"/>
        <path id="Trazado_833429" data-name="Trazado 833429" d="M285.427,115.066c.019.057-.805.322-2.042.947a18.037,18.037,0,0,0-2.086,1.244,17.657,17.657,0,0,0-4.233,4.136,18.063,18.063,0,0,0-1.292,2.057c-.653,1.222-.938,2.04-.994,2.02a2.209,2.209,0,0,1,.157-.59,11.5,11.5,0,0,1,.633-1.535,15.564,15.564,0,0,1,1.253-2.126,16.379,16.379,0,0,1,4.308-4.21,15.62,15.62,0,0,1,2.154-1.2,11.629,11.629,0,0,1,1.55-.6,2.192,2.192,0,0,1,.593-.142" transform="translate(-103.336 -43.272)" fill="#263238"/>
        <path id="Trazado_833430" data-name="Trazado 833430" d="M65.914,223.817,54.089,209.04s45.742-37.685,50.066-40.376c3.275-2.038,9.932-4.745,16.233-2.628s16.97,9.488,20.9,11.879,38.167,23.6,41.869,28.784c0,0-7.449,13.475-12.327,15.734-3.821,1.769-14.834-.872-21.269-4.784s-35.958-29.2-35.958-29.2Z" transform="translate(-20.341 -62.152)" fill="#263238"/>
        <path id="Trazado_833431" data-name="Trazado 833431" d="M80.1,251.027,96.078,262.5l30.743-50.1,31.04,14.144-20.872-34.873s-16.834.2-19.48-.1c-3.394-.382-9.59,4.976-12.973,11.516C101.6,208.774,80.1,251.027,80.1,251.027" transform="translate(-30.125 -72.038)" fill="#263238"/>
        <path id="Trazado_833432" data-name="Trazado 833432" d="M169.894,221.629c-.064.062-7.075-7.089-15.655-15.971s-15.487-16.137-15.423-16.2,7.073,7.088,15.657,15.973,15.485,16.135,15.421,16.2" transform="translate(-52.205 -71.25)" fill="#455a64"/>
        <g id="Grupo_1083355" data-name="Grupo 1083355" transform="translate(58.953 124.323)" opacity="0.3">
          <g id="Grupo_1083354" data-name="Grupo 1083354">
            <g id="Grupo_1083353" data-name="Grupo 1083353" clip-path="url(#clip-path-10)">
              <path id="Trazado_833433" data-name="Trazado 833433" d="M94.487,226.678s13.755-25.709,20.234-27.42c0,0-9.373,12.7-12.51,21.693Z" transform="translate(-94.487 -199.259)"/>
            </g>
          </g>
        </g>
        <path id="Trazado_833434" data-name="Trazado 833434" d="M126.842,194.023a10.889,10.889,0,0,0-1.806-.345,9.231,9.231,0,0,0-4.83,1.028,15.619,15.619,0,0,0-5.448,4.94,78.559,78.559,0,0,0-4.881,7.729c-3.12,5.7-5.527,11.081-7.447,14.888-.943,1.912-1.75,3.438-2.314,4.489l-.671,1.2a2.677,2.677,0,0,1-.253.407,2.606,2.606,0,0,1,.2-.438l.617-1.225c.529-1.068,1.3-2.607,2.219-4.531,1.865-3.83,4.238-9.227,7.369-14.946a75.319,75.319,0,0,1,4.925-7.75,15.641,15.641,0,0,1,5.587-4.968,9.13,9.13,0,0,1,4.943-.947,5.237,5.237,0,0,1,1.794.471" transform="translate(-37.303 -72.771)" fill="#455a64"/>
        <path id="Trazado_833435" data-name="Trazado 833435" d="M74.589,271.958l-8.751,16.126s-19.508-2.3-21.242.628l31.7,16.207,13.157-25.412Z" transform="translate(-16.772 -102.276)" fill="#263238"/>
        <path id="Trazado_833436" data-name="Trazado 833436" d="M94.112,303.416a1.373,1.373,0,0,1-1.777,2.09c-1.438-1.3.615-3.391,1.874-1.99" transform="translate(-34.54 -113.97)" fill="#e0e0e0"/>
        <path id="Trazado_833437" data-name="Trazado 833437" d="M76.3,314.434l1.226-2.614L46.671,297.258s-1.725-.107-2.073.968Z" transform="translate(-16.772 -111.79)" fill="#455a64"/>
        <path id="Trazado_833438" data-name="Trazado 833438" d="M77.948,297.092c-.074.157.664.623,1.171,1.511.53.874.58,1.745.754,1.756.885-.537-1.031-3.783-1.925-3.267" transform="translate(-29.312 -111.707)" fill="#fff"/>
        <path id="Trazado_833439" data-name="Trazado 833439" d="M71.486,296.6c-.112.132.424.738.615,1.662.218.918-.011,1.693.147,1.765,1.016-.208.243-3.671-.762-3.427" transform="translate(-26.878 -111.537)" fill="#fff"/>
        <path id="Trazado_833440" data-name="Trazado 833440" d="M65.208,299.463c.855.11.982-3.321.124-3.272.041.1-.077,3.173-.124,3.272" transform="translate(-24.523 -111.389)" fill="#fff"/>
        <path id="Trazado_833441" data-name="Trazado 833441" d="M81.46,291.255c.112-.006,3.144,1.778,3.191,1.871.488-.726-2.8-2.651-3.191-1.871" transform="translate(-30.635 -109.464)" fill="#fff"/>
        <path id="Trazado_833442" data-name="Trazado 833442" d="M52.911,225.888,37.916,236.46S21.453,225.742,18.6,227.6l21.223,28.585,22.491-17.706Z" transform="translate(-6.995 -84.95)" fill="#263238"/>
        <path id="Trazado_833443" data-name="Trazado 833443" d="M60.474,255.021a1.373,1.373,0,1,0,.043.133" transform="translate(-21.751 -95.592)" fill="#e0e0e0"/>
        <path id="Trazado_833444" data-name="Trazado 833444" d="M39.823,257.012l2.258-1.8L20.888,228.479s-1.5-.862-2.288-.052Z" transform="translate(-6.995 -85.775)" fill="#455a64"/>
        <path id="Trazado_833445" data-name="Trazado 833445" d="M49.226,241.917c-.136.109.319.854.38,1.873.087,1.019-.255,1.822-.1,1.909,1.032-.089.754-3.848-.276-3.782" transform="translate(-18.503 -90.978)" fill="#fff"/>
        <path id="Trazado_833446" data-name="Trazado 833446" d="M43.173,238.587c-.159.069.052.849-.186,1.762-.212.919-.761,1.512-.651,1.647,1,.264,1.846-3.182.837-3.409" transform="translate(-15.916 -89.726)" fill="#fff"/>
        <path id="Trazado_833447" data-name="Trazado 833447" d="M35.908,238.393c.717.479,2.353-2.541,1.562-2.878-.01.112-1.476,2.81-1.562,2.878" transform="translate(-13.504 -88.571)" fill="#fff"/>
        <g id="Grupo_1083358" data-name="Grupo 1083358" transform="translate(87.385 119.535)" opacity="0.3">
          <g id="Grupo_1083357" data-name="Grupo 1083357">
            <g id="Grupo_1083356" data-name="Grupo 1083356" clip-path="url(#clip-path-11)">
              <path id="Trazado_833448" data-name="Trazado 833448" d="M168.012,220s-17.482-13.308-21.651-18.438a50.128,50.128,0,0,1-6.3-9.975Z" transform="translate(-140.056 -191.585)"/>
            </g>
          </g>
        </g>
      </g>
    </g>
  </g>
</svg>
