<svg xmlns="http://www.w3.org/2000/svg" width="400" height="400" viewBox="0 0 400 400">
  <g id="Grupo_1084192" data-name="Grupo 1084192" transform="translate(7249.422 162)">
    <path id="Trazado_832321" data-name="Trazado 832321" d="M336.929,272a75.806,75.806,0,0,1-68.547-43.6,74.531,74.531,0,0,1-66.667,45.553v.06a62.627,62.627,0,0,0-.87,125.248c.291,0,.578.022.87.022,1.144,0,2.278-.035,3.407-.1a199.713,199.713,0,0,0,189-153.367A75.545,75.545,0,0,1,336.929,272" transform="translate(-7248.986 -161.284)" fill="#d2e1f1"/>
    <path id="Trazado_832323" data-name="Trazado 832323" d="M245.176,339.191a46.1,46.1,0,1,1-46.1-46.095,46.1,46.1,0,0,1,46.1,46.095" transform="translate(-7248.942 -161.081)" fill="#fefefe"/>
    <path id="Trazado_832318" data-name="Trazado 832318" d="M264.256,199.007a65.191,65.191,0,1,1-65.191-65.191,65.19,65.19,0,0,1,65.191,65.191" transform="translate(-7249.002 -161.581)" fill="#f1ece6"/>
    <path id="Trazado_832319" data-name="Trazado 832319" d="M126.434,336.936a75.8,75.8,0,0,1,44-68.729,74.617,74.617,0,0,1-45.167-68.636A62.635,62.635,0,0,0,0,199.571,199.784,199.784,0,0,0,152.269,393.826a75.541,75.541,0,0,1-25.835-56.891" transform="translate(-7249.422 -161.57)" fill="#f9bcab"/>
    <path id="Trazado_832320" data-name="Trazado 832320" d="M108.194,196.527a46.1,46.1,0,1,1-46.1-46.1,46.1,46.1,0,0,1,46.1,46.1" transform="translate(-7249.372 -161.529)" fill="#fefefe"/>
    <path id="Trazado_832324" data-name="Trazado 832324" d="M399.161,193.278A199.85,199.85,0,0,0,251.233,6.808a75.648,75.648,0,0,1-20.884,125.207c1.19.546,2.369,1.109,3.525,1.713a74.532,74.532,0,0,1,40.049,63.249h.085a62.625,62.625,0,0,0,125.238,1.231c.008-.411.031-.819.031-1.231,0-1.243-.046-2.475-.117-3.7" transform="translate(-7248.7 -161.979)" fill="#cadeb4"/>
    <path id="Trazado_832325" data-name="Trazado 832325" d="M383.509,199.519a46.1,46.1,0,1,1-46.1-46.1,46.1,46.1,0,0,1,46.1,46.1" transform="translate(-7248.509 -161.52)" fill="#fefefe"/>
    <path id="Trazado_832317" data-name="Trazado 832317" d="M202.425.04l-.294-.007c-.437-.009-.87-.033-1.308-.033-.112,0-.223.008-.334.008-.171,0-.339-.008-.51-.008A199.729,199.729,0,0,0,6.487,149.236a75.648,75.648,0,0,1,125.336,20.106,74.667,74.667,0,0,1,68.157-44.073c.722,0,1.434.038,2.152.059v-.092A62.615,62.615,0,0,0,202.425.04" transform="translate(-7249.401 -162)" fill="#c1cdf5"/>
    <path id="Trazado_832322" data-name="Trazado 832322" d="M249.447,61.564a46.1,46.1,0,1,1-46.1-46.1,46.1,46.1,0,0,1,46.1,46.1" transform="translate(-7248.929 -161.951)" fill="#fefefe"/>
    <path id="Trazado_835302" data-name="Trazado 835302" d="M0,0H400V400H0Z" transform="translate(-7249.422 -162)" fill="none"/>
    <path id="Trazado_835303" data-name="Trazado 835303" d="M15.067,12.667a4.673,4.673,0,0,1-.721,2.36,4.35,4.35,0,0,1-1.85,1.586,6.3,6.3,0,0,1-2.72.563A5.025,5.025,0,0,1,5.8,15.532a6.786,6.786,0,0,1-1.45-4.641v-.633a7.746,7.746,0,0,1,.655-3.292,4.961,4.961,0,0,1,1.885-2.18,5.26,5.26,0,0,1,2.848-.769,5.516,5.516,0,0,1,3.744,1.226,4.844,4.844,0,0,1,1.608,3.379H12.017a2.292,2.292,0,0,0-.589-1.679,2.422,2.422,0,0,0-1.687-.51A1.843,1.843,0,0,0,8.053,7.3a5.536,5.536,0,0,0-.562,2.751v.905A6.125,6.125,0,0,0,8,13.88a1.882,1.882,0,0,0,1.771.879,2.369,2.369,0,0,0,1.626-.5,2.126,2.126,0,0,0,.6-1.591ZM19.514,17H16.543V7.49h2.971ZM16.368,5.038A1.322,1.322,0,0,1,16.825,4,1.943,1.943,0,0,1,19.2,4a1.322,1.322,0,0,1,.457,1.037A1.322,1.322,0,0,1,19.2,6.075a1.943,1.943,0,0,1-2.373,0A1.322,1.322,0,0,1,16.368,5.038Zm8.991,9.853a1.317,1.317,0,0,0,.967-.338,1.241,1.241,0,0,0,.334-.945h2.777a3.288,3.288,0,0,1-1.121,2.566,4.168,4.168,0,0,1-2.887,1,4.22,4.22,0,0,1-3.27-1.3,5.125,5.125,0,0,1-1.2-3.6v-.123A5.792,5.792,0,0,1,21.5,9.6a3.872,3.872,0,0,1,1.534-1.7A4.573,4.573,0,0,1,25.4,7.314a4.116,4.116,0,0,1,2.944,1.028,3.647,3.647,0,0,1,1.09,2.786H26.66A1.626,1.626,0,0,0,26.3,10a1.244,1.244,0,0,0-.967-.4q-1.151,0-1.345,1.468a10.357,10.357,0,0,0-.062,1.283,4.068,4.068,0,0,0,.343,1.986A1.187,1.187,0,0,0,25.359,14.891ZM33.814,17H30.843V3.5h2.971Zm1.45-4.843a5.613,5.613,0,0,1,.554-2.536,3.96,3.96,0,0,1,1.591-1.709,4.791,4.791,0,0,1,2.435-.6,4.373,4.373,0,0,1,3.366,1.323,5.076,5.076,0,0,1,1.23,3.6v.105a4.925,4.925,0,0,1-1.235,3.529,4.384,4.384,0,0,1-3.344,1.305A4.434,4.434,0,0,1,36.6,15.958a4.761,4.761,0,0,1-1.327-3.3Zm2.962.185a3.538,3.538,0,0,0,.413,1.934,1.376,1.376,0,0,0,1.222.615q1.582,0,1.617-2.435v-.3q0-2.558-1.635-2.558-1.485,0-1.608,2.206Zm15.223.316V17H50.364V4.2H55.47a5.948,5.948,0,0,1,2.6.541,4.074,4.074,0,0,1,1.749,1.538,4.2,4.2,0,0,1,.62,2.263,3.7,3.7,0,0,1-1.34,2.993,5.561,5.561,0,0,1-3.678,1.121Zm0-2.382H55.47a1.906,1.906,0,0,0,1.367-.448,1.665,1.665,0,0,0,.47-1.266,2.059,2.059,0,0,0-.483-1.433,1.712,1.712,0,0,0-1.318-.545H53.449ZM72.776,17H69.708V11.656H65.165V17H62.08V4.2h3.085v5.08h4.544V4.2h3.067Zm6.917-3.48L82.242,4.2h3.445L81.38,17H78.005L73.734,4.2h3.419Zm13.535,1.09H89L88.262,17h-3.3L89.66,4.2h2.9L97.289,17H93.975Zm-3.489-2.382H92.49L91.11,7.789Z" transform="translate(-7099.422 26)" fill="#12263f"/>
    <path id="Trazado_835304" data-name="Trazado 835304" d="M3,11.269V16H1.4V3.914H5.86A4.478,4.478,0,0,1,8.969,4.927a3.433,3.433,0,0,1,1.125,2.681,3.388,3.388,0,0,1-1.1,2.71,4.678,4.678,0,0,1-3.15.95Zm0-1.3H5.86a2.863,2.863,0,0,0,1.959-.6A2.2,2.2,0,0,0,8.5,7.62a2.277,2.277,0,0,0-.681-1.73,2.682,2.682,0,0,0-1.868-.674H3ZM13.555,16H12.02V3.25h1.536Zm8,0a3.226,3.226,0,0,1-.216-.946,3.426,3.426,0,0,1-2.557,1.112,3.17,3.17,0,0,1-2.179-.751,2.43,2.43,0,0,1-.851-1.905,2.539,2.539,0,0,1,1.067-2.179,5.029,5.029,0,0,1,3-.776h1.494V9.849a1.725,1.725,0,0,0-.481-1.282,1.935,1.935,0,0,0-1.419-.477,2.239,2.239,0,0,0-1.378.415,1.223,1.223,0,0,0-.556,1H15.938a2.119,2.119,0,0,1,.477-1.3,3.258,3.258,0,0,1,1.295-.992,4.356,4.356,0,0,1,1.8-.365,3.551,3.551,0,0,1,2.432.776,2.8,2.8,0,0,1,.913,2.137V13.9a5.054,5.054,0,0,0,.315,1.967V16Zm-2.548-1.17a2.7,2.7,0,0,0,1.37-.374,2.259,2.259,0,0,0,.938-.971V11.642h-1.2q-2.822,0-2.822,1.652a1.4,1.4,0,0,0,.481,1.129A1.85,1.85,0,0,0,19.009,14.83Zm7.7-7.811.05,1.129a3.273,3.273,0,0,1,2.689-1.295q2.847,0,2.872,3.212V16H30.788V10.057a2.068,2.068,0,0,0-.444-1.436,1.78,1.78,0,0,0-1.357-.465,2.216,2.216,0,0,0-1.312.4,2.706,2.706,0,0,0-.88,1.046V16H25.259V7.019Zm11.654,9.147a3.924,3.924,0,0,1-2.972-1.2,4.452,4.452,0,0,1-1.146-3.208v-.282a5.39,5.39,0,0,1,.51-2.386,3.982,3.982,0,0,1,1.428-1.644,3.59,3.59,0,0,1,1.988-.594A3.364,3.364,0,0,1,40.9,8.006a5,5,0,0,1,.971,3.3v.639H35.785a3.193,3.193,0,0,0,.776,2.146,2.44,2.44,0,0,0,1.888.818,2.675,2.675,0,0,0,1.378-.332,3.462,3.462,0,0,0,.988-.88l.938.73A3.772,3.772,0,0,1,38.366,16.166Zm-.191-8.052a2.048,2.048,0,0,0-1.561.677,3.288,3.288,0,0,0-.78,1.9h4.5v-.116A2.925,2.925,0,0,0,39.7,8.758,1.928,1.928,0,0,0,38.175,8.114ZM49.19,16a3.226,3.226,0,0,1-.216-.946,3.426,3.426,0,0,1-2.557,1.112,3.17,3.17,0,0,1-2.179-.751,2.43,2.43,0,0,1-.851-1.905,2.539,2.539,0,0,1,1.067-2.179,5.029,5.029,0,0,1,3-.776H48.95V9.849a1.725,1.725,0,0,0-.481-1.282,1.935,1.935,0,0,0-1.419-.477,2.239,2.239,0,0,0-1.378.415,1.223,1.223,0,0,0-.556,1H43.571a2.119,2.119,0,0,1,.477-1.3,3.258,3.258,0,0,1,1.295-.992,4.356,4.356,0,0,1,1.8-.365,3.551,3.551,0,0,1,2.432.776,2.8,2.8,0,0,1,.913,2.137V13.9a5.054,5.054,0,0,0,.315,1.967V16Zm-2.548-1.17a2.7,2.7,0,0,0,1.37-.374,2.259,2.259,0,0,0,.938-.971V11.642h-1.2q-2.822,0-2.822,1.652a1.4,1.4,0,0,0,.481,1.129A1.85,1.85,0,0,0,46.642,14.83ZM57.234,8.4a4.6,4.6,0,0,0-.755-.058,2.024,2.024,0,0,0-2.05,1.287V16H52.893V7.019h1.494l.025,1.038a2.391,2.391,0,0,1,2.142-1.2,1.569,1.569,0,0,1,.681.116Z" transform="translate(-7164.422 -77)" fill="#12263f"/>
    <path id="Trazado_835305" data-name="Trazado 835305" d="M10.691,16h-1.6V10.414H3V16H1.4V3.914H3v5.2H9.089v-5.2h1.6Zm8.135,0a3.226,3.226,0,0,1-.216-.946,3.426,3.426,0,0,1-2.557,1.112,3.17,3.17,0,0,1-2.179-.751,2.43,2.43,0,0,1-.851-1.905,2.539,2.539,0,0,1,1.067-2.179,5.029,5.029,0,0,1,3-.776h1.494V9.849A1.725,1.725,0,0,0,18.1,8.567a1.935,1.935,0,0,0-1.419-.477,2.239,2.239,0,0,0-1.378.415,1.223,1.223,0,0,0-.556,1H13.207a2.119,2.119,0,0,1,.477-1.3,3.258,3.258,0,0,1,1.295-.992,4.356,4.356,0,0,1,1.8-.365,3.551,3.551,0,0,1,2.432.776,2.8,2.8,0,0,1,.913,2.137V13.9a5.054,5.054,0,0,0,.315,1.967V16Zm-2.548-1.17a2.7,2.7,0,0,0,1.37-.374,2.259,2.259,0,0,0,.938-.971V11.642h-1.2q-2.822,0-2.822,1.652a1.4,1.4,0,0,0,.481,1.129A1.85,1.85,0,0,0,16.278,14.83Zm9.853.083a2.212,2.212,0,0,0,1.436-.5,1.752,1.752,0,0,0,.681-1.245H29.7a2.785,2.785,0,0,1-.531,1.469,3.5,3.5,0,0,1-1.307,1.112,3.772,3.772,0,0,1-1.731.415,3.7,3.7,0,0,1-2.918-1.224,4.877,4.877,0,0,1-1.083-3.349v-.257A5.407,5.407,0,0,1,22.611,9a3.667,3.667,0,0,1,1.382-1.585,3.926,3.926,0,0,1,2.129-.564,3.6,3.6,0,0,1,2.511.9A3.234,3.234,0,0,1,29.7,10.106H28.248a2.116,2.116,0,0,0-.66-1.432,2.053,2.053,0,0,0-1.465-.56,2.149,2.149,0,0,0-1.814.843,3.957,3.957,0,0,0-.643,2.436v.291a3.878,3.878,0,0,0,.639,2.391A2.16,2.16,0,0,0,26.131,14.913Zm9.023,1.253a3.924,3.924,0,0,1-2.972-1.2,4.452,4.452,0,0,1-1.146-3.208v-.282a5.39,5.39,0,0,1,.51-2.386,3.982,3.982,0,0,1,1.428-1.644,3.59,3.59,0,0,1,1.988-.594,3.364,3.364,0,0,1,2.723,1.154,5,5,0,0,1,.971,3.3v.639H32.572a3.193,3.193,0,0,0,.776,2.146,2.44,2.44,0,0,0,1.888.818,2.675,2.675,0,0,0,1.378-.332,3.462,3.462,0,0,0,.988-.88l.938.73A3.772,3.772,0,0,1,35.154,16.166Zm-.191-8.052a2.048,2.048,0,0,0-1.561.677,3.288,3.288,0,0,0-.78,1.9h4.5v-.116a2.925,2.925,0,0,0-.631-1.814A1.928,1.928,0,0,0,34.963,8.114Zm9.812.282a4.6,4.6,0,0,0-.755-.058,2.024,2.024,0,0,0-2.05,1.287V16H40.433V7.019h1.494l.025,1.038a2.391,2.391,0,0,1,2.142-1.2,1.569,1.569,0,0,1,.681.116Z" transform="translate(-6957.422 -54)" fill="#12263f"/>
    <path id="Trazado_835306" data-name="Trazado 835306" d="M5.4,13.883,8.857,3.914H10.6L6.118,16H4.707L.232,3.914H1.967Zm9.936,2.283a3.924,3.924,0,0,1-2.972-1.2,4.452,4.452,0,0,1-1.146-3.208v-.282a5.39,5.39,0,0,1,.51-2.386,3.982,3.982,0,0,1,1.428-1.644,3.59,3.59,0,0,1,1.988-.594,3.364,3.364,0,0,1,2.723,1.154,5,5,0,0,1,.971,3.3v.639H12.758a3.193,3.193,0,0,0,.776,2.146,2.44,2.44,0,0,0,1.888.818,2.675,2.675,0,0,0,1.378-.332,3.462,3.462,0,0,0,.988-.88l.938.73A3.772,3.772,0,0,1,15.34,16.166Zm-.191-8.052a2.048,2.048,0,0,0-1.561.677,3.288,3.288,0,0,0-.78,1.9h4.5v-.116a2.925,2.925,0,0,0-.631-1.814A1.928,1.928,0,0,0,15.149,8.114ZM24.96,8.4a4.6,4.6,0,0,0-.755-.058,2.024,2.024,0,0,0-2.05,1.287V16H20.619V7.019h1.494l.025,1.038a2.391,2.391,0,0,1,2.142-1.2,1.569,1.569,0,0,1,.681.116ZM28.04,16H26.5V7.019H28.04ZM26.38,4.636a.917.917,0,0,1,.228-.631.857.857,0,0,1,.677-.257.87.87,0,0,1,.681.257.907.907,0,0,1,.232.631.877.877,0,0,1-.232.623.886.886,0,0,1-.681.249.872.872,0,0,1-.677-.249A.886.886,0,0,1,26.38,4.636ZM31.012,16V8.206H29.592V7.019h1.419V6.255a3.12,3.12,0,0,1,.859-2.341A3.332,3.332,0,0,1,34.3,3.076a7.311,7.311,0,0,1,2.349.506l-.257,1.295a5.321,5.321,0,0,0-1.976-.415,1.933,1.933,0,0,0-1.424.444,1.831,1.831,0,0,0-.436,1.332v.78H34.39V8.206H32.556V16Zm6.4,0H35.868V7.019h1.544Zm6.1-1.087a2.212,2.212,0,0,0,1.436-.5,1.752,1.752,0,0,0,.681-1.245h1.453a2.785,2.785,0,0,1-.531,1.469,3.5,3.5,0,0,1-1.307,1.112,3.772,3.772,0,0,1-1.731.415,3.7,3.7,0,0,1-2.918-1.224,4.877,4.877,0,0,1-1.083-3.349v-.257A5.407,5.407,0,0,1,39.993,9a3.667,3.667,0,0,1,1.382-1.585A3.926,3.926,0,0,1,43.5,6.853a3.6,3.6,0,0,1,2.511.9,3.234,3.234,0,0,1,1.067,2.349H45.629a2.116,2.116,0,0,0-.66-1.432,2.053,2.053,0,0,0-1.465-.56,2.149,2.149,0,0,0-1.814.843,3.957,3.957,0,0,0-.643,2.436v.291a3.878,3.878,0,0,0,.639,2.391A2.16,2.16,0,0,0,43.513,14.913ZM54.354,16a3.226,3.226,0,0,1-.216-.946,3.426,3.426,0,0,1-2.557,1.112,3.17,3.17,0,0,1-2.179-.751,2.43,2.43,0,0,1-.851-1.905,2.539,2.539,0,0,1,1.067-2.179,5.029,5.029,0,0,1,3-.776h1.494V9.849a1.725,1.725,0,0,0-.481-1.282,1.935,1.935,0,0,0-1.419-.477,2.239,2.239,0,0,0-1.378.415,1.223,1.223,0,0,0-.556,1H48.734a2.119,2.119,0,0,1,.477-1.3,3.258,3.258,0,0,1,1.295-.992,4.356,4.356,0,0,1,1.8-.365,3.551,3.551,0,0,1,2.432.776,2.8,2.8,0,0,1,.913,2.137V13.9a5.054,5.054,0,0,0,.315,1.967V16Zm-2.548-1.17a2.7,2.7,0,0,0,1.37-.374,2.259,2.259,0,0,0,.938-.971V11.642h-1.2q-2.822,0-2.822,1.652a1.4,1.4,0,0,0,.481,1.129A1.85,1.85,0,0,0,51.805,14.83ZM62.4,8.4a4.6,4.6,0,0,0-.755-.058,2.024,2.024,0,0,0-2.05,1.287V16H58.056V7.019H59.55l.025,1.038a2.391,2.391,0,0,1,2.142-1.2,1.569,1.569,0,0,1,.681.116Z" transform="translate(-6987.422 145)" fill="#12263f"/>
    <path id="Trazado_835307" data-name="Trazado 835307" d="M8.077,12.837H3.013L1.876,16H.232L4.848,3.914H6.242L10.866,16H9.23Zm-4.582-1.3H7.6L5.545,5.881Zm12.36,3.378a2.212,2.212,0,0,0,1.436-.5,1.752,1.752,0,0,0,.681-1.245h1.453a2.785,2.785,0,0,1-.531,1.469,3.5,3.5,0,0,1-1.307,1.112,3.772,3.772,0,0,1-1.731.415,3.7,3.7,0,0,1-2.918-1.224,4.877,4.877,0,0,1-1.083-3.349v-.257A5.407,5.407,0,0,1,12.335,9a3.667,3.667,0,0,1,1.382-1.585,3.926,3.926,0,0,1,2.129-.564,3.6,3.6,0,0,1,2.511.9,3.234,3.234,0,0,1,1.067,2.349H17.971a2.116,2.116,0,0,0-.66-1.432,2.053,2.053,0,0,0-1.465-.56,2.149,2.149,0,0,0-1.814.843,3.957,3.957,0,0,0-.643,2.436v.291a3.878,3.878,0,0,0,.639,2.391A2.16,2.16,0,0,0,15.854,14.913ZM23.234,4.844V7.019h1.677V8.206H23.234v5.577a1.247,1.247,0,0,0,.224.81.943.943,0,0,0,.764.27,3.718,3.718,0,0,0,.73-.1V16a4.478,4.478,0,0,1-1.179.165,1.912,1.912,0,0,1-1.552-.623,2.675,2.675,0,0,1-.523-1.768V8.206H20.063V7.019H21.7V4.844Zm9.015,10.268a3.262,3.262,0,0,1-2.631,1.054,2.792,2.792,0,0,1-2.187-.834,3.611,3.611,0,0,1-.76-2.469V7.019h1.536v5.8q0,2.042,1.66,2.042a2.3,2.3,0,0,0,2.341-1.312V7.019h1.536V16H32.282ZM41.62,16a3.226,3.226,0,0,1-.216-.946,3.426,3.426,0,0,1-2.557,1.112,3.17,3.17,0,0,1-2.179-.751,2.43,2.43,0,0,1-.851-1.905,2.539,2.539,0,0,1,1.067-2.179,5.029,5.029,0,0,1,3-.776h1.494V9.849A1.725,1.725,0,0,0,40.9,8.567a1.935,1.935,0,0,0-1.419-.477A2.239,2.239,0,0,0,38.1,8.5a1.223,1.223,0,0,0-.556,1H36a2.119,2.119,0,0,1,.477-1.3,3.258,3.258,0,0,1,1.295-.992,4.356,4.356,0,0,1,1.8-.365A3.551,3.551,0,0,1,42,7.629a2.8,2.8,0,0,1,.913,2.137V13.9a5.054,5.054,0,0,0,.315,1.967V16Zm-2.548-1.17a2.7,2.7,0,0,0,1.37-.374,2.259,2.259,0,0,0,.938-.971V11.642h-1.2q-2.822,0-2.822,1.652a1.4,1.4,0,0,0,.481,1.129A1.85,1.85,0,0,0,39.072,14.83ZM49.664,8.4a4.6,4.6,0,0,0-.755-.058,2.024,2.024,0,0,0-2.05,1.287V16H45.322V7.019h1.494l.025,1.038a2.391,2.391,0,0,1,2.142-1.2,1.569,1.569,0,0,1,.681.116Z" transform="translate(-7194.422 118)" fill="#12263f"/>
    <g id="Grupo_1082834" data-name="Grupo 1082834" transform="translate(-8313.681 -1915.584)">
      <g id="Grupo_1082828" data-name="Grupo 1082828" transform="translate(1090.426 1920)">
        <path id="Trazado_832293" data-name="Trazado 832293" d="M233.247,0a25.1,25.1,0,0,1,3.227.995,10.594,10.594,0,0,1,6.034,11.717c-.01.063-.015.126-.045.392.307-.08.654-.061.768-.215,2.178-2.962,5.133-3.519,8.467-2.663,1.508.388,2.948,1.041,4.165,1.481.695-.578,1.346-1.2,2.081-1.7a5.315,5.315,0,0,1,1.908-.923c1.439-.268,2.246.363,2.977,2.1.264-.242.511-.481.771-.7a5.306,5.306,0,0,1,3.558-1.449,2.642,2.642,0,0,1,2.9,2.568c.024.188.041.376.053.483a17.916,17.916,0,0,1,2.575-1.066,2.5,2.5,0,0,1,3.105,2.348,6.51,6.51,0,0,1-.939,3.5,25.145,25.145,0,0,1-3.6,5.059,1.3,1.3,0,0,0-.309.855c.145,2.114.347,4.224.5,6.337a.778.778,0,0,0,.62.821,4.4,4.4,0,0,1,.09,8.308.763.763,0,0,0-.618.874,10.133,10.133,0,0,1-2.233,6.956c-.688.805-1.52,1.488-2.275,2.215.65.609,1.389,1.247,2.063,1.949a.959.959,0,0,1-.25,1.628c-.5.222-.851-.012-1.23-.333-.813-.686-1.645-1.355-2.52-1.957a1.684,1.684,0,0,0-1.036-.135c-.823.083-1.639.232-2.525.365.078.184.167.39.252.6a6.408,6.408,0,0,1-.056,5.157c-.342.784-.7,1-1.492.742-1.486-.472-2.947-1.018-4.414-1.531v6.656c2.255-1.966,4.927-1.142,7.493-1.388,0-1.055-.011-2.1,0-3.139.01-.678.378-1.12.94-1.127a.919.919,0,0,1,1.006.832,7.211,7.211,0,0,1,.047.819h4.357c-.1-.83-.18-1.66-.3-2.484-.076-.5-.118-.965.364-1.291a.953.953,0,0,1,1.492.6,10.231,10.231,0,0,1,.33,2.194c.045,2.317.035,4.634.022,6.952a3.633,3.633,0,0,1-3.817,3.776q-9.968.009-19.937,0c-1.99,0-3.979.005-5.968,0a3.677,3.677,0,0,1-3.867-3.874c-.007-2.055-.011-4.11,0-6.165a10.193,10.193,0,0,1,4.41-8.63c.085-.061.163-.133.29-.237-.13-.1-.225-.176-.324-.246a9.67,9.67,0,0,1-4.274-7.8,2.083,2.083,0,0,1-.009-.262,1.737,1.737,0,0,0-1.206-2,4.224,4.224,0,0,1-1.673-6.148,1.906,1.906,0,0,0,.173-2c-1.789,0-3.557-.071-5.316.016a3.567,3.567,0,0,1-3.515-5.162.325.325,0,0,0,.008-.127c-2.363-1.686-2.781-3.368-1.358-5.629l-.5-.479A10.659,10.659,0,0,1,223.328,4.5c.466-.646,1.048-.806,1.551-.426a1.014,1.014,0,0,1,.09,1.511,8.469,8.469,0,0,0-1.62,4.567,8.5,8.5,0,0,0,3.293,7.353.859.859,0,0,0,.449.237c1.284.019,2.568.011,3.9.011V14.876a3.842,3.842,0,0,1-2.639-2.743,3.683,3.683,0,0,1-.1-.971.875.875,0,0,1,.83-.93.911.911,0,0,1,1.075.738,5.09,5.09,0,0,1,.079.517,1.823,1.823,0,0,0,3.562.154c.043-.168.061-.344.092-.516a.953.953,0,0,1,1.071-.9,1,1,0,0,1,.88,1.17,3.669,3.669,0,0,1-2.221,3.232.836.836,0,0,0-.62.952c.046.67.011,1.345.011,2.108a21.32,21.32,0,0,1,2.984.03,2.455,2.455,0,0,0,2.267-.957A8.705,8.705,0,0,0,228.078,2.917c-.156.079-.3.173-.463.245a.969.969,0,0,1-1.351-.4.9.9,0,0,1,.449-1.32c1.2-.492,2.448-.884,3.677-1.313.162-.057.331-.089.5-.133Zm35.86,24.167c-7.508,6.237-15.339,6.119-23.5,1.793-.217.5-.437,1.1-.725,1.658a6.815,6.815,0,0,1-4.571,3.907c-.161.037-.348.405-.347.619.01,2.643.011,5.287.1,7.928a7.723,7.723,0,0,0,7.731,7.655q7.009.109,14.022,0a7.654,7.654,0,0,0,7.657-7.235,90.407,90.407,0,0,0-.079-12.9c-.077-1.129-.186-2.256-.283-3.421M254.886,13.556a12.409,12.409,0,0,0-5.685-1.711,4.9,4.9,0,0,0-4.567,2.554c-.654,1.107-.8,1.147-2.053.7-.236-.084-.486-.13-.73-.193l.112.169-3,3.965c1.2,1.621,1.067,4.1-1.5,5.492a3.333,3.333,0,0,1,.068,3.256,2.191,2.191,0,0,0-.059,2.065,9.978,9.978,0,0,1,1.391-.182,4.1,4.1,0,0,0,3.848-2.289,18,18,0,0,0,1.3-3.332c.353-1.155.995-1.345,1.964-.612a14.11,14.11,0,0,0,3.29,2.1c6.586,2.508,12.8,2.163,18.281-2.768a23.443,23.443,0,0,0,5.776-7.305,5.6,5.6,0,0,0,.473-1.622c.114-.83-.33-1.152-1.111-.823a4.481,4.481,0,0,0-1.281.775c-.853.78-1.66,1.61-2.458,2.447a1.027,1.027,0,0,1-1.339.309,1,1,0,0,1-.356-1.369,6.3,6.3,0,0,0,.3-.726,20.224,20.224,0,0,0,.54-2.287c.128-.908-.2-1.207-1.1-1.163a2.964,2.964,0,0,0-2.226,1.115,34.77,34.77,0,0,0-2.219,3.292c-.373.6-.751.877-1.3.7-.522-.165-.7-.643-.6-1.339a24.6,24.6,0,0,0,.262-2.729c.009-.33-.183-.891-.392-.948a1.392,1.392,0,0,0-1.118.279,18.3,18.3,0,0,0-1.834,1.951c-.9,1.071-1.683,2.247-2.655,3.243a12.8,12.8,0,0,1-2.506,1.848.909.909,0,0,1-1.276-.447.958.958,0,0,1,.49-1.319,9.354,9.354,0,0,0,3.276-3.1m-1.1,41.2c-1.528.532-3.015,1.077-4.521,1.561a.937.937,0,0,1-1.354-.651,11.441,11.441,0,0,1-.607-2.391,6.12,6.12,0,0,1,.746-3.478c-.88-.13-1.7-.275-2.52-.359a2.01,2.01,0,0,0-1.044.115,8.258,8.258,0,0,0-4.513,7.86h4.274c.011-.115.02-.181.023-.246.025-.955.344-1.408.991-1.407s.98.473.981,1.412,0,1.906,0,2.866c2.594.234,5.278-.581,7.544,1.407Zm-.1,10.439a3.569,3.569,0,0,0-3.566-3.14c-1.53-.013-3.06,0-4.589,0-.918,0-1.25-.347-1.258-1.275,0-.43,0-.86,0-1.289h-4.322c0,1.254,0,2.454,0,3.654,0,1.409.639,2.053,2.03,2.054q4.885,0,9.769,0Zm11.6-5.743c0,.45,0,.839,0,1.226,0,1.069-.3,1.37-1.349,1.372-1.484,0-2.974-.071-4.451.031a5.108,5.108,0,0,0-2.134.674,3.06,3.06,0,0,0-1.464,2.437c4.079,0,8.071.008,12.064-.007a1.523,1.523,0,0,0,1.588-1.3c.08-1.468.024-2.944.024-4.436Zm-33.213-39.79c-1.333,0-2.666-.006-4,0a1.56,1.56,0,0,0-1.717,1.5,1.536,1.536,0,0,0,1.635,1.583q4.03.031,8.06,0a1.537,1.537,0,0,0,1.652-1.565,1.553,1.553,0,0,0-1.7-1.515c-1.311-.008-2.622,0-3.932,0m-.087,8.164c.787,0,1.574.014,2.361,0a1.521,1.521,0,0,0,1.582-1.5,1.491,1.491,0,0,0-1.5-1.573q-2.393-.051-4.787,0a1.493,1.493,0,0,0-1.515,1.554,1.514,1.514,0,0,0,1.562,1.515c.765.02,1.53,0,2.3,0M258.2,49.9h-6.88c1.427,2.339,5.851,2.086,6.88,0M271.617,36.26a2.34,2.34,0,0,0,1.463-2.321,2.124,2.124,0,0,0-1.463-1.969ZM237.95,31.91a2.313,2.313,0,0,0-1.437,2.5,2.032,2.032,0,0,0,1.437,1.806Zm14.219,21.323-2.578-2.011a4.211,4.211,0,0,0-.112,3.074l2.691-1.063m7.808-2.019-2.57,2.013,2.676,1.07a4.373,4.373,0,0,0-.106-3.083" transform="translate(-212.468)" fill="#e9bbaa"/>
        <path id="Trazado_832294" data-name="Trazado 832294" d="M214.624,25.487a5.29,5.29,0,0,1-.534.855q-1.271,1.318-2.587,2.592a.986.986,0,0,1-1.5.076,1,1,0,0,1,.1-1.456c.868-.888,1.753-1.761,2.635-2.637a.9.9,0,0,1,1.178-.242,3.978,3.978,0,0,1,.707.812" transform="translate(-206.949 -11.664)" fill="#e9bbaa"/>
        <path id="Trazado_832295" data-name="Trazado 832295" d="M207.335,19c-.632,0-1.264.016-1.895,0a.948.948,0,0,1-1.014-.963.962.962,0,0,1,1-.991q1.959-.038,3.92,0a.978.978,0,1,1-.048,1.954c-.653.02-1.307,0-1.96,0" transform="translate(-204.426 -8.088)" fill="#e9bbaa"/>
        <path id="Trazado_832296" data-name="Trazado 832296" d="M214.557,8.079c-.211.253-.376.626-.643.725a1.187,1.187,0,0,1-1.013-.085c-1.031-.936-2.014-1.928-2.968-2.944a.869.869,0,0,1,.077-1.292.874.874,0,0,1,1.294-.051c1,.942,1.957,1.924,2.912,2.909a2.839,2.839,0,0,1,.342.738" transform="translate(-206.923 -1.982)" fill="#e9bbaa"/>
      </g>
      <path id="Trazado_832297" data-name="Trazado 832297" d="M281.248,75.881a4.58,4.58,0,0,1-4-2.435.991.991,0,0,1,.276-1.435,1,1,0,0,1,1.434.459,2.567,2.567,0,0,0,4.614-.008.992.992,0,1,1,1.7,1,4.594,4.594,0,0,1-4.022,2.418" transform="translate(851.477 1885.847)" fill="#e9bbaa"/>
      <path id="Trazado_832298" data-name="Trazado 832298" d="M299.308,60.792a8.909,8.909,0,0,1-.662,1.567,1.05,1.05,0,0,1-1.808.029,2.821,2.821,0,0,1-.035-3.234,1.076,1.076,0,0,1,1.89.042,8.859,8.859,0,0,1,.614,1.6" transform="translate(842.329 1892.142)" fill="#e9bbaa"/>
      <path id="Trazado_832299" data-name="Trazado 832299" d="M271.4,60.728a9.973,9.973,0,0,1-.77,1.7,1,1,0,0,1-1.639.058,2.783,2.783,0,0,1,0-3.5,1,1,0,0,1,1.6.015,10.1,10.1,0,0,1,.813,1.72" transform="translate(855.61 1892.148)" fill="#e9bbaa"/>
    </g>
    <g id="Grupo_1082835" data-name="Grupo 1082835" transform="translate(-8138.159 -2218.326)">
      <path id="Trazado_832286" data-name="Trazado 832286" d="M188.21,167.6h40.41a11.26,11.26,0,0,1,1.674.537,5.292,5.292,0,0,1,3.065,5.119q0,16.579-.008,33.158a1.436,1.436,0,0,0,.4,1.051,11.869,11.869,0,0,1,2.815,5.391c.127.555.234,1.114.35,1.671v2.37c-.091.482-.168.967-.275,1.444a12.5,12.5,0,0,1-12.413,9.93q-17.535.012-35.071,0a5.454,5.454,0,0,1-5.686-5.655c0-.507,0-1.015,0-1.572a14.067,14.067,0,0,1-1.706-.013,8.891,8.891,0,0,1-2.3-.459,5.288,5.288,0,0,1,1.49-10.114,21.59,21.59,0,0,1,2.477-.015V203.27c-.608,0-1.178.008-1.748,0a5.267,5.267,0,0,1-3.673-1.4,5.067,5.067,0,0,1-1.544-5.329,5.009,5.009,0,0,1,4.274-3.828,24.759,24.759,0,0,1,2.73-.16v-7.062c-.683,0-1.274.015-1.865,0a5.322,5.322,0,0,1-5.008-7.2,5.39,5.39,0,0,1,5.1-3.461c.583-.009,1.166,0,1.771,0,0-.663-.011-1.234,0-1.806a5.068,5.068,0,0,1,2.213-4.357,14.125,14.125,0,0,1,2.525-1.066m27.481,57.118c-4.205-5.017-5.174-10.447-1.465-15.912,3.808-5.61,9.3-6.707,15.578-4.428v-.592q0-15.194,0-30.388c0-1.624-.624-2.243-2.261-2.243H189.277c-.158,0-.316,0-.474,0a1.776,1.776,0,0,0-1.772,1.775c-.02.572.014,1.146-.012,1.717a.638.638,0,0,0,.456.7,5.305,5.305,0,0,1-.019,9.643.616.616,0,0,0-.439.645q.027,3.406,0,6.812a.617.617,0,0,0,.421.657,5.305,5.305,0,0,1,0,9.667.617.617,0,0,0-.419.659c.014,2.211.021,4.423,0,6.635a.815.815,0,0,0,.546.88,5.049,5.049,0,0,1,2.985,4.376,4.7,4.7,0,0,1-2.328,4.73,2.042,2.042,0,0,0-1.193,2.36.951.951,0,0,1,0,.118,1.932,1.932,0,0,0,2.174,2.19h26.492m8.792-17.892a8.945,8.945,0,1,0,8.875,8.914,8.915,8.915,0,0,0-8.875-8.914m-41.115-24.889c.612,0,1.225.013,1.836,0a1.772,1.772,0,1,0,.026-3.543c-1.2-.022-2.409-.02-3.613,0a1.774,1.774,0,1,0,.034,3.546c.572.012,1.145,0,1.718,0m.046,17.774c.612,0,1.225.017,1.836,0a1.77,1.77,0,1,0-.006-3.541q-1.836-.035-3.672,0a1.77,1.77,0,1,0,.006,3.541c.611.02,1.224,0,1.836,0m-.017,17.776c.612,0,1.225.016,1.836,0a1.77,1.77,0,1,0,.028-3.541c-1.223-.026-2.449-.024-3.672,0a1.772,1.772,0,1,0,.031,3.543c.592.016,1.185,0,1.777,0" transform="translate(886 1920)" fill="#c3ccf3"/>
      <path id="Trazado_832287" data-name="Trazado 832287" d="M221.247,198.246c1.919-1.929,3.786-3.8,5.647-5.678a1.818,1.818,0,0,1,1.97-.6,1.75,1.75,0,0,1,.875,2.736,4.063,4.063,0,0,1-.4.438q-3.3,3.309-6.613,6.614a1.847,1.847,0,0,1-3.013.013c-1.23-1.225-2.452-2.459-3.686-3.682a1.811,1.811,0,0,1-.566-1.878,1.756,1.756,0,0,1,2.944-.756c.8.738,1.542,1.527,2.312,2.292.152.15.309.294.525.5" transform="translate(864.251 1906.512)" fill="#c3ccf3"/>
      <path id="Trazado_832288" data-name="Trazado 832288" d="M221.243,230.3c.47-.5.865-.937,1.281-1.355q2.212-2.224,4.44-4.434a1.778,1.778,0,1,1,2.526,2.488q-3.441,3.466-6.906,6.907a1.76,1.76,0,0,1-2.714.012q-1.942-1.908-3.851-3.85a1.778,1.778,0,1,1,2.5-2.51c.886.87,1.75,1.762,2.721,2.743" transform="translate(864.249 1888.735)" fill="#c3ccf3"/>
      <path id="Trazado_832289" data-name="Trazado 832289" d="M221.21,262.224c.177-.166.336-.307.486-.457,1.76-1.756,3.508-3.524,5.281-5.268a1.766,1.766,0,0,1,3.051.714,1.655,1.655,0,0,1-.449,1.689q-3.545,3.571-7.117,7.115a1.693,1.693,0,0,1-2.5.008q-2.062-2-4.06-4.06a1.766,1.766,0,1,1,2.5-2.5c.8.758,1.57,1.556,2.353,2.334.137.136.283.264.451.421" transform="translate(864.26 1870.941)" fill="#c3ccf3"/>
      <path id="Trazado_832290" data-name="Trazado 832290" d="M263.945,199.866c1.678,0,3.357,0,5.036,0a1.79,1.79,0,1,1,0,3.552q-5.094.006-10.189,0a1.79,1.79,0,1,1,0-3.552c1.718,0,3.436,0,5.154,0" transform="translate(841.254 1902.073)" fill="#c3ccf3"/>
      <path id="Trazado_832291" data-name="Trazado 832291" d="M263.837,235.422c-1.678,0-3.357,0-5.036,0a1.79,1.79,0,1,1-.02-3.552q5.094-.006,10.189,0a1.79,1.79,0,1,1,.02,3.552c-1.718.005-3.436,0-5.154,0" transform="translate(841.254 1884.293)" fill="#c3ccf3"/>
      <path id="Trazado_832292" data-name="Trazado 832292" d="M284.311,267.432c.638,0,1.189-.012,1.739,0a1.772,1.772,0,1,1,.026,3.543c-1.183.022-2.368.025-3.551,0a1.745,1.745,0,0,1-1.759-1.778q-.035-1.774,0-3.551a1.77,1.77,0,1,1,3.541.006c.02.568,0,1.137,0,1.778" transform="translate(827.937 1866.505)" fill="#c3ccf3"/>
    </g>
    <g id="Grupo_1082836" data-name="Grupo 1082836" transform="translate(-7971.477 -2016.732)">
      <path id="Trazado_832300" data-name="Trazado 832300" d="M44.894,245.372c.269.088.539.169.806.264a4.5,4.5,0,0,1,2.965,4.178c.01.261,0,.522,0,.852h.717l9.806.009a3.043,3.043,0,0,1,3.353,3.335q0,16.3,0,32.6a3.372,3.372,0,0,1-.026.61,1.217,1.217,0,0,1-2.412-.092,6.168,6.168,0,0,1-.012-.674q0-16.118,0-32.236c0-1.024-.074-1.1-1.124-1.1q-1.9,0-3.8.012a1.117,1.117,0,0,0-.209.069c0,.405,0,.845,0,1.285a3.649,3.649,0,0,1-3.756,3.753q-11.89.009-23.779,0a3.649,3.649,0,0,1-3.746-3.761c0-.425,0-.851,0-1.358-1.151,0-2.247,0-3.343,0-1.973-.008-1.792-.111-1.792,1.778q0,4.29,0,8.58v.7c.226-.179.362-.286.5-.395,3.9-3.152,8.235-4.045,12.892-2.114a12.047,12.047,0,0,1,7.825,10.608A12.425,12.425,0,0,1,26,285.707a30.477,30.477,0,0,1-3.725-.912c-.186-.045-.472-.081-.58.019-.876.824-1.72,1.681-2.591,2.544.091.118.148.2.211.274a1.187,1.187,0,0,1-.041,1.881,2.206,2.206,0,0,0-.744,1.869c.035,4.412.017,8.825.017,13.238,0,.987.071,1.061,1.027,1.061H59.1c.894,0,.992-.1.992-.973q0-3.218,0-6.435c0-.163-.006-.328,0-.49a1.2,1.2,0,0,1,1.209-1.2,1.167,1.167,0,0,1,1.227,1.182c.019,2.533.047,5.067-.013,7.6a2.931,2.931,0,0,1-2.844,2.768c-.183.008-.368,0-.552,0H19.532c-2.266,0-3.44-1.169-3.441-3.425q0-5.577,0-11.154v-.783c-.238.216-.4.352-.549.5-1.547,1.544-3.074,3.11-4.642,4.632a5.759,5.759,0,0,1-9.419-1.784,5.419,5.419,0,0,1,1.07-6.147c2.809-2.937,5.721-5.776,8.6-8.644.632-.629,1.192-.563,2.08.186.858-.858,1.727-1.713,2.572-2.592a.546.546,0,0,0,.023-.474,12.607,12.607,0,0,1,.141-10.676,1.906,1.906,0,0,0,.116-.771q.01-6.5.005-12.992a3.042,3.042,0,0,1,3.352-3.335l9.806-.009h.683c.026-.471.025-.877.075-1.276a4.433,4.433,0,0,1,3.456-3.9,2.064,2.064,0,0,0,.277-.113ZM27.246,283.313a10.016,10.016,0,0,0,10.127-10.095,10.09,10.09,0,1,0-20.18.132,9.985,9.985,0,0,0,10.054,9.963m25.247-30.2h-.705c-1.429,0-2.858.009-4.288,0a1.164,1.164,0,0,1-1.276-1.25c-.019-.632,0-1.266-.009-1.9a2.026,2.026,0,0,0-2.165-2.138q-4.747-.01-9.495,0a2.014,2.014,0,0,0-2.135,2.1c-.017.632.007,1.266-.009,1.9a1.177,1.177,0,0,1-1.306,1.284c-1.429.012-2.858,0-4.288,0h-.69c0,.372,0,.656,0,.94,0,1.412.323,1.739,1.718,1.739h22.97a5.661,5.661,0,0,0,.612-.011,1.146,1.146,0,0,0,1.056-1.021c.041-.523.009-1.051.009-1.646M12,283.907c-2.607,2.633-5.3,5.256-7.867,7.987a3.166,3.166,0,0,0,.3,4.339,3.333,3.333,0,0,0,4.777-.117c2.422-2.4,4.825-4.818,7.234-7.23.1-.1.181-.208.243-.279L12,283.907m3.151-.718,2.223,2.227,2.091-2.064-2.2-2.254-2.111,2.091" transform="translate(886 1920)" fill="#d5e0f0"/>
      <path id="Trazado_832301" data-name="Trazado 832301" d="M47.549,340.574a6.665,6.665,0,0,1,6.164-6.964c.992-.033,1.539.349,1.588,1.11.051.8-.465,1.277-1.462,1.338a4.092,4.092,0,1,0,3.765,6.2c.1-.174.186-.362.281-.542a1.224,1.224,0,1,1,2.207,1.051,6.081,6.081,0,0,1-2.21,2.717,6.311,6.311,0,0,1-6.78.458,6.238,6.238,0,0,1-3.552-5.37" transform="translate(862.262 1875.026)" fill="#d5e0f0"/>
      <path id="Trazado_832302" data-name="Trazado 832302" d="M89.258,338.263c1.774,0,3.548-.016,5.321.007a1.213,1.213,0,0,1,1.171,1.8,1.326,1.326,0,0,1-1.294.647H91.032q-3.364,0-6.728,0a4.485,4.485,0,0,1-.731-.042,1.188,1.188,0,0,1-1.018-1.249,1.158,1.158,0,0,1,1.078-1.13c.65-.046,1.3-.026,1.956-.028q1.835,0,3.67,0" transform="translate(844.421 1872.656)" fill="#d5e0f0"/>
      <path id="Trazado_832303" data-name="Trazado 832303" d="M90.545,293.114c1.592,0,3.185,0,4.777,0,.9,0,1.455.466,1.466,1.205.01.757-.566,1.243-1.494,1.244q-4.747,0-9.493,0c-.963,0-1.508-.441-1.517-1.212-.009-.8.528-1.237,1.546-1.238q2.358,0,4.716,0" transform="translate(843.539 1895.667)" fill="#d5e0f0"/>
      <path id="Trazado_832304" data-name="Trazado 832304" d="M58.752,341.073c1.268-1.269,2.369-2.416,3.527-3.5a1.708,1.708,0,0,1,1.161-.5,1.624,1.624,0,0,1,.995.751,1.043,1.043,0,0,1-.262,1.288c-.6.614-1.209,1.217-1.815,1.824q-1.212,1.213-2.427,2.425a1.31,1.31,0,0,1-2.157-.017q-.631-.625-1.256-1.256a1.289,1.289,0,0,1-.183-1.933c.555-.538,1.247-.466,1.926.226a5.442,5.442,0,0,1,.492.694" transform="translate(857.967 1873.263)" fill="#d5e0f0"/>
      <path id="Trazado_832305" data-name="Trazado 832305" d="M87.269,352.565c-1.1,0-2.2,0-3.307,0a1.254,1.254,0,0,1-1.41-1.2c-.016-.75.536-1.246,1.419-1.248q3.368-.009,6.736,0a1.233,1.233,0,1,1-.009,2.447c-1.143.008-2.286,0-3.429,0" transform="translate(844.421 1866.615)" fill="#d5e0f0"/>
      <path id="Trazado_832306" data-name="Trazado 832306" d="M88.6,307.4c-.978,0-1.956.009-2.934,0-.868-.011-1.383-.47-1.39-1.2a1.227,1.227,0,0,1,1.366-1.238q2.964-.023,5.929,0a1.259,1.259,0,0,1,1.4,1.216c.008.737-.545,1.219-1.439,1.229-.978.01-1.956,0-2.934,0" transform="translate(843.54 1889.635)" fill="#d5e0f0"/>
      <path id="Trazado_832307" data-name="Trazado 832307" d="M122.825,338.857A1.215,1.215,0,0,1,124,340.1a1.219,1.219,0,1,1-2.437-.092,1.21,1.21,0,0,1,1.264-1.147" transform="translate(824.539 1872.351)" fill="#d5e0f0"/>
      <path id="Trazado_832308" data-name="Trazado 832308" d="M75.53,258.459h2.076c.041,0,.082,0,.122,0a1.258,1.258,0,0,0,1.343-1.21,1.236,1.236,0,0,0-1.369-1.234q-2.076-.024-4.153,0c-.86.008-1.392.48-1.4,1.2-.011.738.54,1.226,1.43,1.243.651.013,1.3,0,1.954,0" transform="translate(849.725 1914.582)" fill="#d5e0f0"/>
      <path id="Trazado_832309" data-name="Trazado 832309" d="M46.905,299.949c1.767-1.77,3.52-3.535,5.288-5.286a2.047,2.047,0,0,1,.793-.535,1.1,1.1,0,0,1,1.319.522,1.129,1.129,0,0,1-.133,1.464c-.525.57-1.087,1.106-1.634,1.654q-2.271,2.273-4.544,4.544c-.838.836-1.416.842-2.24.022q-1.323-1.316-2.64-2.64c-.706-.709-.8-1.423-.264-1.972s1.287-.466,2.021.264q.932.929,1.863,1.859a1.243,1.243,0,0,0,.171.1" transform="translate(864.832 1895.177)" fill="#d5e0f0"/>
      <path id="Trazado_832310" data-name="Trazado 832310" d="M75.53,258.459c-.652,0-1.3.01-1.954,0-.89-.018-1.441-.506-1.43-1.244.011-.72.544-1.192,1.4-1.2,1.384-.013,2.769-.015,4.153,0a1.235,1.235,0,0,1,1.369,1.234,1.258,1.258,0,0,1-1.343,1.21c-.04,0-.081,0-.122,0H75.53" transform="translate(849.725 1914.582)" fill="#d5e0f0"/>
    </g>
    <g id="Grupo_1082837" data-name="Grupo 1082837" transform="translate(-7826.422 -1997.354)">
      <path id="Trazado_832311" data-name="Trazado 832311" d="M17.025,158.944a6.249,6.249,0,0,1-3.17-2.093c-.58-.627-1.21-1.206-1.805-1.818a1.259,1.259,0,1,1,1.769-1.776c.851.828,1.677,1.682,2.524,2.514a1.721,1.721,0,0,0,2.726-.011c.61-.6,1.211-1.2,1.813-1.811.978-.986.956-1.777-.024-2.763-2.244-2.26-4.469-4.54-6.713-6.8q-2.95-2.972-5.926-5.917a10.657,10.657,0,0,0-.932-.826,1.561,1.561,0,0,0-1.912.133c-.838.78-1.658,1.583-2.433,2.425a1.625,1.625,0,0,0,.168,2.353c.872.9,1.769,1.766,2.647,2.656a1.2,1.2,0,0,1,.281,1.431,1.11,1.11,0,0,1-1.2.715,1.644,1.644,0,0,1-.871-.411c-.966-.918-1.919-1.853-2.832-2.824a4.131,4.131,0,0,1-.019-5.671c.793-.854,1.615-1.687,2.477-2.471a4.141,4.141,0,0,1,4.189-.9.818.818,0,0,0,.655-.049c1.247-1.2,2.462-2.427,3.686-3.649.086-.086.162-.181.241-.27a4.486,4.486,0,0,1,1.451-7.48,4.471,4.471,0,0,1,2.738-6.741,4.521,4.521,0,0,1,.479-3.411,4.414,4.414,0,0,1,2.708-2.028,13.257,13.257,0,0,1,.12-2.267,4.336,4.336,0,0,1,5.266-3.227,1.086,1.086,0,0,0,.762-.154,4.372,4.372,0,0,1,3.494-.44c2.7.489,5.4,1.026,8.1,1.522.507.093,1.041.037,1.551.123a4.314,4.314,0,0,1,3.644,5.082c-.019.123-.027.248-.046.429a4.443,4.443,0,0,1,3.282,5.451,4.571,4.571,0,0,1,3.329,5.545,4.342,4.342,0,0,1,3.252,3.2,4.4,4.4,0,0,1-1.319,4.382l3.062,3.059a2.9,2.9,0,0,1,.307.311,1.3,1.3,0,0,0,1.726.484,3.754,3.754,0,0,1,3.888.88c.877.8,1.721,1.638,2.523,2.512a4.091,4.091,0,0,1-.063,5.714q-6.773,6.838-13.618,13.6a4.129,4.129,0,0,1-5.857-.041c-.75-.723-1.493-1.454-2.211-2.209a4.062,4.062,0,0,1-.909-4.605.582.582,0,0,0-.174-.746c-1.511-1.493-3.007-3-4.522-4.493a.971.971,0,0,0-.576-.28c-1.351-.056-2.7-.081-4.056-.109a5.6,5.6,0,0,0-1.368.034,2.914,2.914,0,0,0-1.311.6c-1.423,1.344-2.781,2.757-4.178,4.129a.574.574,0,0,0-.142.792,4.1,4.1,0,0,1-.774,4.736,22.6,22.6,0,0,1-2.269,2.233,15.171,15.171,0,0,1-2.255,1.25Zm-6.7-22.206,11.563,11.622c1.432-1.437,2.912-2.9,4.367-4.39a3.976,3.976,0,0,1,2.826-1.278,31.281,31.281,0,0,1,3.492.065c2.033.181,3.845-.076,5.2-1.841a1.205,1.205,0,0,1,1.868-.121,1.282,1.282,0,0,1-.1,1.887c-.538.608-1.04,1.249-1.5,1.808l3.83,3.865,11.363-11.4-3.948-3.984c-.257.244-.54.553-.863.811a1.222,1.222,0,0,1-1.811-.251,1.263,1.263,0,0,1,.228-1.694c.918-.936,1.872-1.84,2.772-2.794a1.8,1.8,0,0,0-.021-2.54,1.824,1.824,0,0,0-2.541-.078c-.363.311-.685.67-1.029,1a1.283,1.283,0,0,1-1.929.144,1.305,1.305,0,0,1,.161-1.93c.687-.7,1.4-1.369,2.064-2.089a1.837,1.837,0,0,0-2.613-2.582c-.387.347-.741.731-1.113,1.1a1.316,1.316,0,0,1-1.976.162A1.3,1.3,0,0,1,40.8,120.3c.744-.757,1.521-1.485,2.237-2.268a1.8,1.8,0,0,0-.1-2.581,1.835,1.835,0,0,0-2.545.037c-.4.368-.764.768-1.154,1.143a1.271,1.271,0,1,1-1.758-1.8c.716-.727,1.444-1.442,2.166-2.165a1.8,1.8,0,0,0,.568-1.584,1.841,1.841,0,0,0-3.133-1.068c-1.075,1.046-2.118,2.124-3.194,3.168a.649.649,0,0,0-.173.893A4.327,4.327,0,0,1,31.141,120a12.665,12.665,0,0,1-1.362.288c-.024.1-.06.217-.077.338a4.251,4.251,0,0,1-3.974,3.96c-.373.053-.41.237-.442.534a4.285,4.285,0,0,1-3.808,3.855c-.179.023-.355.065-.489.09a13.281,13.281,0,0,1-.281,1.336,4.377,4.377,0,0,1-5.978,2.617c-.187-.082-.53-.129-.637-.024-1.3,1.257-2.571,2.547-3.767,3.746m51.1,4.416a7.472,7.472,0,0,0-.74-1.258c-.638-.711-1.336-1.37-2.024-2.036a1.685,1.685,0,0,0-2.592.012q-6.634,6.609-13.251,13.236a1.686,1.686,0,0,0-.029,2.588q1,1.03,2.034,2.027a1.661,1.661,0,0,0,2.541.029q6.684-6.648,13.333-13.331a5.907,5.907,0,0,0,.729-1.268M25.1,122.111c1.068-.059,1.652-.4,1.946-1.135a1.762,1.762,0,0,0-.388-2.019c-1.507-1.525-3.02-3.046-4.556-4.541a1.838,1.838,0,1,0-2.567,2.629c1.473,1.5,2.952,3,4.47,4.45a4.205,4.205,0,0,0,1.094.617m4.568-4.3a1.993,1.993,0,0,0,1.926-1.958,1.206,1.206,0,0,0-.82-1.224,10.234,10.234,0,0,1-5.564-5.6,1.162,1.162,0,0,0-.629-.578,1.759,1.759,0,0,0-2.056.768,1.81,1.81,0,0,0,.268,2.292c1.871,1.894,3.75,3.78,5.659,5.634a5.156,5.156,0,0,0,1.216.666m-6.791,6.779a3.506,3.506,0,0,0-.474-1.05c-1.235-1.3-2.489-2.575-3.8-3.8a1.764,1.764,0,0,0-2.393.12,1.722,1.722,0,0,0-.2,2.379c1.241,1.344,2.545,2.635,3.883,3.884a1.623,1.623,0,0,0,1.938.135,1.969,1.969,0,0,0,1.041-1.67m-4.463,4.325a1.608,1.608,0,0,0-.222-.695,15.5,15.5,0,0,0-2.062-2.042,1.686,1.686,0,0,0-2.24.422,1.81,1.81,0,0,0-.041,2.3,13.257,13.257,0,0,0,1.639,1.614,1.678,1.678,0,0,0,1.933.149,1.853,1.853,0,0,0,.993-1.748m9.2-21.295-.114.283a7.915,7.915,0,0,0,3.7,4.192l3.248-3.245-6.829-1.23" transform="translate(886 1909.748)" fill="#cfddb4"/>
      <path id="Trazado_832312" data-name="Trazado 832312" d="M19.881,86.665c.334-.394.553-.867.9-1.007a1.945,1.945,0,0,1,1.27.109c.3.114.525.456.775.705q1.9,1.891,3.795,3.787a1.3,1.3,0,0,1,.174,1.93,1.313,1.313,0,0,1-1.972-.168c-1.416-1.406-2.835-2.808-4.229-4.235a7.032,7.032,0,0,1-.717-1.123" transform="translate(876.06 1919.552)" fill="#cfddb4"/>
      <path id="Trazado_832313" data-name="Trazado 832313" d="M98.349,85.4a1.277,1.277,0,0,1,1.346.735,1.225,1.225,0,0,1-.281,1.436q-1.409,1.419-2.827,2.83c-.545.545-1.082,1.1-1.639,1.631a1.272,1.272,0,0,1-1.842.086,1.252,1.252,0,0,1,.046-1.839q2.216-2.247,4.471-4.455a2.837,2.837,0,0,1,.725-.425" transform="translate(839.637 1919.649)" fill="#cfddb4"/>
      <path id="Trazado_832314" data-name="Trazado 832314" d="M63.56,88.759c0,.895.009,1.79,0,2.684a1.243,1.243,0,0,1-1.22,1.371,1.262,1.262,0,0,1-1.284-1.377q-.017-2.684,0-5.368a1.258,1.258,0,1,1,2.5.007c.011.895,0,1.789,0,2.684" transform="translate(855.478 1920)" fill="#cfddb4"/>
      <path id="Trazado_832315" data-name="Trazado 832315" d="M16.071,194.736a1.233,1.233,0,0,1-1.274-1.25,1.251,1.251,0,1,1,2.5.016,1.229,1.229,0,0,1-1.227,1.234" transform="translate(878.602 1866.231)" fill="#cfddb4"/>
      <path id="Trazado_832316" data-name="Trazado 832316" d="M84.224,170.218a1.223,1.223,0,0,1-1.265-1.192,1.256,1.256,0,0,1,1.226-1.311,1.287,1.287,0,0,1,1.28,1.27,1.258,1.258,0,0,1-1.24,1.234" transform="translate(844.522 1878.49)" fill="#cfddb4"/>
    </g>
  </g>
</svg>
