<svg id="Grupo_1084032" data-name="Grupo 1084032" xmlns="http://www.w3.org/2000/svg" xmlns:xlink="http://www.w3.org/1999/xlink" width="293.976" height="316.008" viewBox="0 0 293.976 316.008">
  <defs>
    <clipPath id="clip-path">
      <rect id="Rect치ngulo_385662" data-name="Rect치ngulo 385662" width="293.976" height="316.008" fill="none"/>
    </clipPath>
    <clipPath id="clip-path-2">
      <rect id="Rect치ngulo_385660" data-name="Rect치ngulo 385660" width="97.517" height="64.556" fill="none"/>
    </clipPath>
  </defs>
  <g id="Grupo_1084031" data-name="Grupo 1084031" clip-path="url(#clip-path)">
    <path id="Trazado_834982" data-name="Trazado 834982" d="M535.311,911.432l-54.718-23.025-42.687,28.8,22.665,9.536a9.772,9.772,0,0,1-1.527,1,12.523,12.523,0,0,1-2.8.814c-1.907.352-4.247.294-5.6,1.21-2.123,1.434-.452,4.035,3.727,5.9.121.054.245.107.369.161,4.449,1.871,9.826,2.194,12.011.719,1.774-1.2.41-3.1,1.469-4.49a10.746,10.746,0,0,1,1.769-1.344l22.636,9.525,17.662-11.917c-.072-.034-.148-.069-.227-.1a21.038,21.038,0,0,0-2.325-.851c-2.634-.579-6.2.123-8.471-.835-2.789-1.241-2.219-4.058,1.212-6.373,3.469-2.341,8.552-3.284,11.354-2.106,1.738.774,1.67,1.993,2.344,2.994a5.156,5.156,0,0,0,1.565,1.5c.083.051.4.209.8.388.335.149.728.312,1.095.435Z" transform="translate(-356.613 -723.482)" fill="#98a7d3"/>
    <path id="Trazado_834983" data-name="Trazado 834983" d="M272.227,1263.49c-1.38-.933-3.76-.873-5.7-1.23a12.644,12.644,0,0,1-2.844-.829,9.9,9.9,0,0,1-1.551-1.01l23.035-9.694-17.949-12.111c.073-.036.151-.072.231-.107a21.379,21.379,0,0,1,2.362-.866c2.675-.588,6.3.125,8.7-.888,2.74-1.222,2.163-4.085-1.327-6.437-3.526-2.38-8.693-3.339-11.625-2.1-1.68.75-1.613,1.989-2.3,3a5.234,5.234,0,0,1-1.592,1.522c-.084.051-.408.214-.817.4-.339.151-.736.314-1.105.44l-17.97-12.127-55.616,23.4,43.386,29.275,23.01-9.681a11.107,11.107,0,0,1,1.8,1.365c1.076,1.416-.312,3.348,1.492,4.565,2.222,1.5,7.687,1.171,12.208-.731.127-.053.253-.108.375-.163,4.248-1.894,5.948-4.538,3.79-5.994" transform="translate(-151.608 -994.699)" fill="#98a7d3"/>
    <path id="Trazado_834984" data-name="Trazado 834984" d="M881.475,1051.193l23.007-9.681a11.062,11.062,0,0,1,1.8,1.365c1.076,1.417-.312,3.349,1.492,4.567,2.222,1.5,7.686,1.17,12.207-.732.126-.053.25-.106.373-.161,4.249-1.895,5.952-4.54,3.792-6-1.38-.93-3.759-.872-5.7-1.23a12.679,12.679,0,0,1-2.842-.828,10.089,10.089,0,0,1-1.552-1.012l23.036-9.693,43.387,29.276-55.617,23.4-17.95-12.112c.071-.035.146-.069.223-.1a21.667,21.667,0,0,1,2.369-.869c2.677-.588,6.3.127,8.611-.847,2.834-1.263,2.256-4.124-1.232-6.478-3.527-2.38-8.694-3.339-11.54-2.14-1.767.787-1.7,2.026-2.382,3.041a5.245,5.245,0,0,1-1.592,1.522c-.084.05-.408.214-.818.4-.338.152-.735.315-1.1.44Z" transform="translate(-717.837 -836.991)" fill="#98a7d3"/>
    <path id="Trazado_834985" data-name="Trazado 834985" d="M853.408,1395.334l-22.638-9.525a10.861,10.861,0,0,0-1.768,1.343c-1.058,1.393.307,3.294-1.468,4.492-2.186,1.474-7.563,1.152-12.01-.719q-.188-.079-.37-.16c-4.179-1.863-5.852-4.466-3.729-5.9,1.358-.917,3.7-.858,5.6-1.21a12.437,12.437,0,0,0,2.8-.815,9.788,9.788,0,0,0,1.527-.995l-22.663-9.538-17.679,11.931c-.366-.123-.759-.286-1.094-.435-.4-.177-.714-.337-.8-.388a5.166,5.166,0,0,1-1.568-1.5c-.673-1-.606-2.219-2.258-2.956-2.886-1.215-7.968-.273-11.439,2.069-3.432,2.315-4,5.131-1.3,6.333,2.368,1,5.929.294,8.562.874a20.877,20.877,0,0,1,2.323.851q.12.053.228.105L756,1401.113l54.72,23.025Z" transform="translate(-615.657 -1117.552)" fill="#98a7d3"/>
    <path id="Trazado_834986" data-name="Trazado 834986" d="M313.093,928.021c0,7.68-13.993,13.906-31.255,13.906s-31.254-6.226-31.254-13.906,13.993-13.906,31.254-13.906,31.255,6.225,31.255,13.906" transform="translate(-204.065 -744.418)" fill="#98a7d3"/>
    <path id="Trazado_834987" data-name="Trazado 834987" d="M462.857,957.716l.513-.1.513-4.3-1.346-1.594Z" transform="translate(-376.67 -775.044)" fill="#401427"/>
    <path id="Trazado_834988" data-name="Trazado 834988" d="M458.451,951.668l.617.35-.1-7.045-1.088-.247Z" transform="translate(-372.882 -769.345)" fill="#161c29"/>
    <path id="Trazado_834989" data-name="Trazado 834989" d="M463.461,926.672l1.144,3.777a25.44,25.44,0,0,0,2.84,5.074s2.316,3.176-2.018,2.964c0,0-4.623-.246-4.553-3.212.06-2.551-2.283-5.716-2.283-5.716a2.58,2.58,0,0,1,.3-3.045l.8-.915,3.888-.68Z" transform="translate(-373.155 -753.216)" fill="#e28262"/>
    <path id="Trazado_834990" data-name="Trazado 834990" d="M467.425,939.675a5.823,5.823,0,0,1-5.034-1.524c-1.2-1.184-2.574-5.516-2.119-4.077.188.595-1.225-4.672-.849-5.495l-.8.916a2.691,2.691,0,0,0-.382,3.125s2.423,3.085,2.363,5.636c-.07,2.966,4.552,3.212,4.552,3.212,2.6.127,2.807-.967,2.555-1.861a2.676,2.676,0,0,1-.286.068" transform="translate(-372.885 -756.197)" fill="#161c29"/>
    <path id="Trazado_834991" data-name="Trazado 834991" d="M480.751,972.029s.653,1.233-1.418,1.233c0,0-7.757-.493-7.753-3.826l0-2.684s.61,3.832,5.4,3.841c0,0,2.127,0,1.028-1.355Z" transform="translate(-384.032 -787.283)" fill="#161c29"/>
    <path id="Trazado_834992" data-name="Trazado 834992" d="M408.453,5.162A5.162,5.162,0,1,1,403.291,0a5.162,5.162,0,0,1,5.162,5.162" transform="translate(-324.22)" fill="#151e40"/>
    <path id="Trazado_834993" data-name="Trazado 834993" d="M445.682,91.638h10.167c-.462-1.48-1.42-5.311.062-7.92l-10.272-6.745s1.826,11.318.043,14.665" transform="translate(-362.91 -62.684)" fill="#f39672"/>
    <path id="Trazado_834994" data-name="Trazado 834994" d="M446.821,85.25a4.465,4.465,0,0,0,3.2,2.823,10.729,10.729,0,0,0,5.163.382,8.038,8.038,0,0,1,.726-4.737l-10.272-6.745s.556,3.453.754,7.107c.14.39.275.781.428,1.17" transform="translate(-362.91 -62.684)" fill="#db765e"/>
    <path id="Trazado_834995" data-name="Trazado 834995" d="M445.282,28.929l.539-1.53,1.317-4.5a4.536,4.536,0,0,0,.023-2.388,7.223,7.223,0,0,1-.209-3.734c.837-4.094-.98-6.231-.98-6.231-2.389-3.764-8.028-3.745-8.028-3.745-6.972.362-7.541,7.112-7.541,7.112-1.12,4.492,2.462,8.22,2.468,8.227a4.977,4.977,0,0,1,.721,1.82,5.612,5.612,0,0,0,1.022,1.706,12.54,12.54,0,0,0,3.574,2.869,13.8,13.8,0,0,0,5.375,1.268c.711-.008,1.409,0,1.718-.876" transform="translate(-350.326 -5.54)" fill="#f39672"/>
    <path id="Trazado_834996" data-name="Trazado 834996" d="M336.207,963.007l.517.074,1.866-3.912-.763-1.942Z" transform="translate(-273.793 -779.526)" fill="#401427"/>
    <path id="Trazado_834997" data-name="Trazado 834997" d="M333.664,955.867l.472.53,2.169-6.705-.951-.582Z" transform="translate(-271.722 -772.916)" fill="#161c29"/>
    <path id="Trazado_834998" data-name="Trazado 834998" d="M348.6,938.7c-.1,3.148-.336,6.682.933,9.661,0,0,1.175,3.751-2.862,2.161,0,0-4.3-1.716-3.282-4.5.875-2.4-.329-6.147-.329-6.147a2.58,2.58,0,0,1,1.263-2.787l1.054-.611h4.041Z" transform="translate(-279.322 -762.625)" fill="#f39672"/>
    <path id="Trazado_834999" data-name="Trazado 834999" d="M348.965,949.548a5.825,5.825,0,0,1-4.28-3.058c-.759-1.507-.668-6.051-.7-4.542-.013.624.338-4.819.959-5.476l-1.054.611a2.691,2.691,0,0,0-1.364,2.838s1.305,3.7.43,6.1c-1.017,2.786,3.282,4.5,3.282,4.5,2.424.955,2.968-.015,3.017-.943a2.577,2.577,0,0,1-.292-.027" transform="translate(-278.896 -762.624)" fill="#161c29"/>
    <path id="Trazado_835000" data-name="Trazado 835000" d="M351.426,982.307s.223,1.377-1.739.713c0,0-7.189-2.955-6.116-6.111l.858-2.544s-.652,3.824,3.882,5.37c0,0,2.015.683,1.409-.954Z" transform="translate(-279.701 -793.483)" fill="#161c29"/>
    <path id="Trazado_835001" data-name="Trazado 835001" d="M362.534,677.623c-5.156,9.519-6.068,13.394-6.985,20.633-.535,4.21-.357,21.944-.909,24.59-.23,1.1,3.938.495,3.938.495.762-1.855,12.9-42.6,12.9-42.6s1.357-4.221.231-4.954c-5.659-3.687-6.927-2.311-9.174,1.838" transform="translate(-288.796 -548.588)" fill="#f39672"/>
    <path id="Trazado_835002" data-name="Trazado 835002" d="M354.152,724.193c.762-1.855,12.774-43.452,12.774-43.452s1.357-4.221.231-4.954c-5.659-3.687-6.927-2.311-9.174,1.838-5.156,9.52-6.068,13.394-6.985,20.633-.535,4.21-1.4,21.333-1.956,23.979,0,0,3.084,3.674,5.109,1.957" transform="translate(-284.246 -548.589)" fill="#1d2127"/>
    <path id="Trazado_835003" data-name="Trazado 835003" d="M410.977,313.659s3.962,16.769,3.43,18.6c-1.532,5.276-15.747,12.681-28.708,1.884a95.978,95.978,0,0,1,9.116-22.894s2.261,2.336,16.162,2.41" transform="translate(-314.097 -253.468)" fill="#1d2127"/>
    <path id="Trazado_835004" data-name="Trazado 835004" d="M424.853,139.7s5.186,10.025,7.5,15.524c-.97,6.447-4.472,16.01-5.881,18.027-3.085,4.42-17.189.474-17.189.474l-4.065-13.573c11.867-4.261,5.618-16.765,5.618-16.765l1.861-1.174s1.9,6.146,9.621,5.926c0,0,2.537-1.652.67-8.662a10.86,10.86,0,0,1,1.865.224" transform="translate(-329.993 -113.584)" fill="#4c3887"/>
    <path id="Trazado_835005" data-name="Trazado 835005" d="M441.451,407.569s1.365,27.053,6.37,41.6c.745,2.169,9.3-.714,9.3-.714s4.316-23.276,4.057-32.92c-.146-5.45-2.1-17.2-2.1-17.2s-16.04-2.1-17.629,9.235" transform="translate(-359.499 -324.263)" fill="#e28262"/>
    <path id="Trazado_835006" data-name="Trazado 835006" d="M459.465,669.622l9.053-.616s-5.563,46.181-6.067,48.122c0,0-3.892,1.408-3.812.289.188-2.7-3.058-23.421-3.157-27.664-.159-6.816.108-11.121,3.984-20.131" transform="translate(-370.898 -544.811)" fill="#e28262"/>
    <path id="Trazado_835007" data-name="Trazado 835007" d="M441.451,407.569s1.365,27.053,6.37,41.6c.745,2.169,9.3-.714,9.3-.714s4.316-23.276,4.057-32.92c-.146-5.45-2.1-17.2-2.1-17.2s-16.04-2.1-17.629,9.235" transform="translate(-359.499 -324.263)" fill="#181b21"/>
    <path id="Trazado_835008" data-name="Trazado 835008" d="M463.573,717.417c.918-1.783,4.945-48.411,4.945-48.411l-9.053.616c-3.876,9.009-4.143,13.315-3.984,20.131.1,4.243,2.154,24.968,1.965,27.664,0,0,4.92,2.342,6.126,0" transform="translate(-370.898 -544.811)" fill="#181b21"/>
    <path id="Trazado_835009" data-name="Trazado 835009" d="M524.669,178.532l-6.863-24.88c-2.47-6.655-6.157-6.818-6.157-6.818-7.067,1.069-2.543,13.47-2.543,13.47l8.722,20.666" transform="translate(-413.433 -119.576)" fill="#e28262"/>
    <path id="Trazado_835010" data-name="Trazado 835010" d="M688.5,388.567c-2.966-2.2-3.172-2.8-3.621-3.695-1.934-3.842,3-3,4.2-2.532.691.269.484,1.976,2.4,4.38,0,0,3.187,2.54,4.067,2.524,0,0,.876.26.781.9,0,0-2.662,1.085-7.827-1.581" transform="translate(-557.372 -311.022)" fill="#e28262"/>
    <path id="Trazado_835011" data-name="Trazado 835011" d="M565.344,304.064l20.1,15.2c.555,2.771-.715,2.97-.715,2.97l-16.21-7.376c-6.941-3-9.357-6.461-9.357-6.461s-2.836-2.657,1.679-5.322c0,0,2.052-1.18,4.506.985" transform="translate(-454.64 -246.554)" fill="#e28262"/>
    <path id="Trazado_835012" data-name="Trazado 835012" d="M705.671,379.164s-.879,1.7,1.418,1.592l2.431-1.341a.868.868,0,0,0,.588-.946s-.207-.409-.959-.145Z" transform="translate(-574.535 -308.019)" fill="#e28262"/>
    <path id="Trazado_835013" data-name="Trazado 835013" d="M381.82,431.209s.1,27.063,3.674,42.029c.531,2.232,8.685,1.547,8.685,1.547s5.32-25.594,6-35.216c.384-5.439,1.472-14.957,1.472-14.957s-19.088-1.892-19.829,6.6" transform="translate(-310.938 -345.64)" fill="#f39672"/>
    <path id="Trazado_835014" data-name="Trazado 835014" d="M391.785,146.029a6.258,6.258,0,0,0-2.033,7.615l7.857,19.082s12.741,4.333,15.826-.086c1.408-2.017,2.712-7.367,4.422-15.082,1.162-5.243,1.242-14.4-1.71-17.114-1.7-1.565-7.211-1.533-7.252-1.719l-8.925,2.875Z" transform="translate(-316.955 -112.973)" fill="#f39672"/>
    <path id="Trazado_835015" data-name="Trazado 835015" d="M407.781,308.356c.755-.137,4.828,1.472,4.828,1.472s2.933,12.5,3.1,14.4-12.909,11.742-27.515,6.14c0,0,7.376-17.4,8.454-21.034,1.238-4.177,11.133-.982,11.133-.982" transform="translate(-316.13 -250.161)" fill="#f39672"/>
    <path id="Trazado_835016" data-name="Trazado 835016" d="M521.068,182.344s4.311,5.077,4.673,8.848c.2,2.1-2.45,5.616-3.777,6.911-.94.918-6.509-12.255-.9-15.759" transform="translate(-422.323 -148.493)" fill="#4c3887"/>
    <path id="Trazado_835017" data-name="Trazado 835017" d="M386.787,405.436s-5.15,1.144-4.686,10.585c.453,9.22,17.238,11.136,19.394,1.847,2.319-10-5.543-15.859-14.708-12.432" transform="translate(-311.143 -329.37)" fill="#1d2127"/>
    <path id="Trazado_835018" data-name="Trazado 835018" d="M421.768,21.653c-.036-3.184.045-2.988.045-2.988.074-.931,1.9,1.075,1.862-.137-.173-5.546,1.842-8.188,2.631-8.615a9.76,9.76,0,0,1,6.188-1.173c2.805.5,2.7,4.233,2.7,4.233,2.39-13.671-12.856-9.3-12.856-9.3a8.45,8.45,0,0,0-6.66,8.947c-.91,7.514,6.209,11.855,6.209,11.855Z" transform="translate(-338.443 -2.448)" fill="#1b2a59"/>
    <path id="Trazado_835019" data-name="Trazado 835019" d="M438.449,79.387a1.492,1.492,0,0,1-.968.294,2.2,2.2,0,0,1-2-2.255,2.016,2.016,0,0,1,1.906-2.2,1.9,1.9,0,0,1,1.338.61,2.739,2.739,0,0,1,.412,2.233,2.064,2.064,0,0,1-.687,1.312" transform="translate(-354.636 -61.265)" fill="#f3906b"/>
    <path id="Trazado_835020" data-name="Trazado 835020" d="M442.237,79.471c-.064-.645-1.369-.029-1.171.335a1.991,1.991,0,0,0,.523.509.947.947,0,0,1,.4.706c0,.036.012.148-.026.174-.169.118-.723-.512-.843-.645a1.078,1.078,0,0,1-.156-1.031.645.645,0,0,1,.715-.483c.293.017.592.038.575.4,0,.007-.014.068-.017.035" transform="translate(-359.05 -64.36)" fill="#e47a5d"/>
    <path id="Trazado_835021" data-name="Trazado 835021" d="M442.555,84.726c.136-.136.266-.022.4.077a.621.621,0,0,1,.234.38,1.516,1.516,0,0,1-.162,1.077.814.814,0,0,1-.7.372c-.393-.011-.51-.358-.525-.691,0-.088-.011-.3.075-.354s.161.086.224.149a.559.559,0,0,0,.333.126.713.713,0,0,0,.584-.261.316.316,0,0,0,.06-.1c0,.217-.012.265-.035.146a.609.609,0,0,0-.074-.154c-.091-.151-.245-.253-.347-.4-.048-.067-.14-.3-.072-.37" transform="translate(-359.787 -68.947)" fill="#e47a5d"/>
    <path id="Trazado_835022" data-name="Trazado 835022" d="M480.608,69.164c.038.387-.145.72-.407.746s-.505-.267-.542-.653.145-.72.407-.745.5.267.542.652" transform="translate(-390.61 -55.792)" fill="#341e13"/>
    <path id="Trazado_835023" data-name="Trazado 835023" d="M509.5,65.142c.014.388-.187.71-.451.719s-.488-.3-.5-.684.187-.71.45-.719.488.3.5.684" transform="translate(-414.141 -52.492)" fill="#341e13"/>
    <path id="Trazado_835024" data-name="Trazado 835024" d="M472.344,61.085c1.008-1.059,3.378-.975,3.378-.975s.159-.009.116-.492c0,0-.012-.428-.354-.386,0,0-3.016-.2-3.141,1.852" transform="translate(-384.657 -48.233)" fill="#1b2a59"/>
    <path id="Trazado_835025" data-name="Trazado 835025" d="M506.793,56.412c-1.052-.852-2.988-.187-2.988-.187-.341.05-.24.464-.24.464.085.477.241.443.241.443a6.543,6.543,0,0,1,2.854-.2c.046-.172.094-.344.134-.518" transform="translate(-410.071 -45.586)" fill="#1b2a59"/>
    <path id="Trazado_835026" data-name="Trazado 835026" d="M492.307,98.417l-3.819.707c-.2.037-.281.156-.173.264a2.416,2.416,0,0,0,4.194-.786c.054-.124-.039-.2-.2-.185" transform="translate(-397.624 -80.146)" fill="#fff"/>
    <path id="Trazado_835027" data-name="Trazado 835027" d="M495.254,79.751c2-.145,2.111-.669,2.111-.669l-1.05-2.11s.241,2.11-1.061,2.779" transform="translate(-403.314 -62.683)" fill="#e47a5d"/>
    <path id="Trazado_835028" data-name="Trazado 835028" d="M381.82,431.209s.1,27.063,3.674,42.029c.531,2.232,8.685,1.547,8.685,1.547s5.32-25.594,6-35.216c.384-5.439,1.472-14.957,1.472-14.957s-19.088-1.892-19.829,6.6" transform="translate(-310.938 -345.64)" fill="#1d2127"/>
    <path id="Trazado_835029" data-name="Trazado 835029" d="M410.977,313.659s3.962,16.769,3.43,18.6c-1.532,5.276-15.747,12.681-28.708,1.884a95.978,95.978,0,0,1,9.116-22.894s2.261,2.336,16.162,2.41" transform="translate(-314.097 -253.468)" fill="#1d2127"/>
    <path id="Trazado_835030" data-name="Trazado 835030" d="M410.437,173.726s14.5,4.469,17.589.05c1.408-2.017,4.511-12.1,5.48-18.551-2.315-5.5-7.5-15.524-7.5-15.524a10.86,10.86,0,0,0-1.865-.224c1.867,7.01-.67,8.662-.67,8.662-7.723.219-9.621-5.926-9.621-5.926l-1.861,1.174s5.753,11.95-5.351,17.416c0,0-.266,12.821,3.8,12.923" transform="translate(-331.147 -113.584)" fill="#4c3887"/>
    <path id="Trazado_835031" data-name="Trazado 835031" d="M445.959,95.928a.661.661,0,1,1-.661-.661.661.661,0,0,1,.661.661" transform="translate(-362.094 -77.582)" fill="#fff"/>
    <path id="Trazado_835032" data-name="Trazado 835032" d="M391.476,178.511a5.962,5.962,0,0,1-.259,8.428c-2.4,2.257-9.938,6.56-10.008,3.267-.138-6.472.114-9.988,2.513-12.243s5.5-1.851,7.754.549" transform="translate(-310.417 -143.711)" fill="#f39672"/>
    <path id="Trazado_835033" data-name="Trazado 835033" d="M382.679,203.752l-5.211-3-5.237,3.277s-3.065,19.528-1.936,24c1.2,4.762,3.391,1.254,4.426-.048,0,0,8.547-20.427,7.958-24.222" transform="translate(-301.35 -163.481)" fill="#f39672"/>
    <path id="Trazado_835034" data-name="Trazado 835034" d="M375.654,330.055s9.37,6.692,17.687,10.331c0,0,2.748-1.154,1.374-2.424-2.333-2.157-12.533-11.924-14.888-14.085-4.172-1.426-4.172,6.178-4.172,6.178" transform="translate(-305.917 -263.608)" fill="#f39672"/>
    <path id="Trazado_835035" data-name="Trazado 835035" d="M473.707,406.354c-3.391-1.466-3.728-2-4.369-2.769-2.761-3.3,2.235-3.607,3.514-3.427.734.1.922,1.814,3.334,3.717,0,0,3.683,1.743,4.536,1.526,0,0,.911.052.966.7,0,0-2.343,1.665-7.981.251" transform="translate(-381.542 -325.84)" fill="#f39672"/>
    <path id="Trazado_835036" data-name="Trazado 835036" d="M488.923,400.115s-1.452,1.248.718,2.008l2.756-.331s.777.03.9-.658c0,0-.038-.457-.834-.493Z" transform="translate(-397.772 -325.837)" fill="#f39672"/>
    <path id="Trazado_835037" data-name="Trazado 835037" d="M726.844,447.363c-.04-.01-.081-.018-.122-.027-.063-.014-.125-.028-.188-.041-.045-.009-.091-.016-.137-.024s-.088-.016-.132-.022l-.094,10.665-17.661,11.916.111-12.727,14.631-9.871q-.322.038-.649.092c-.047.007-.094.016-.142.024l-.25.045-.168.034q-.121.024-.243.051c-.051.01-.1.022-.153.034q-.192.044-.384.092l-.1.026q-.237.061-.474.131l-.084.025c-.218.064-.435.133-.652.207l-.023.009q-.327.112-.649.237l-.046.018q-.366.144-.723.305l-.033.014q-.361.163-.712.345a.171.171,0,0,0-.023.012c-.237.122-.469.251-.7.384l-.012.008q-.346.2-.675.426c-1.949,1.315-2.974,2.793-2.986,4.05q.056-6.363.112-12.726c.011-1.258,1.036-2.735,2.986-4.051.219-.148.444-.289.675-.426l.013-.007c.227-.135.459-.262.7-.386l.024-.011q.35-.182.71-.345l.036-.015c.237-.107.476-.208.719-.3l.015-.006.04-.015q.316-.124.637-.234l.03-.012c.214-.073.429-.14.644-.2l.056-.018.037-.01q.235-.068.469-.129c.035-.01.07-.018.105-.027.126-.032.252-.062.378-.091l.076-.018.085-.018.232-.049.178-.035.236-.043c.042-.007.083-.014.124-.022l.031,0c.217-.036.433-.066.647-.092l.056-.008.041,0q.281-.032.557-.051l.047,0,.062,0c.173-.011.346-.019.516-.023h.015c.16,0,.318,0,.474,0h.064l.054,0c.158.006.313.013.466.025h.013l.035,0c.159.014.314.032.466.052.017,0,.035,0,.053.007l.036.006c.061.009.121.02.181.03s.1.016.146.026.117.024.174.037c.04.009.081.016.12.026l.015,0c.137.034.269.071.4.112l.09.03c.13.043.258.089.38.14.1.044.189.089.276.135l.076.042c.03.018.063.035.093.052s.048.033.074.049.062.04.092.06c.048.033.094.065.138.1.026.02.053.04.078.06l.027.02c.053.043.1.089.149.133l.019.018c.037.036.073.073.107.11v0h0v0c.011.011.02.024.03.035l.048.056c.033.04.065.079.1.12l.042.057.021.028c.014.021.026.043.04.063.026.04.052.079.077.12l.051.088c.023.041.045.081.067.122l.02.036.02.042c.036.071.07.143.1.215.005.011.011.024.016.035.043.1.085.2.126.293q.041.095.083.19c.012.028.025.058.038.086.038.084.077.168.118.25.021.042.044.083.066.123.012.023.024.045.037.068.037.063.075.126.117.188.027.04.056.079.084.119q.059.083.125.166c.019.024.037.049.057.072q.088.11.187.218l.011.014c.069.074.142.148.217.22.022.021.045.042.068.062.056.052.112.1.172.154l.086.073c.06.049.122.1.186.143l.084.062c.093.066.188.13.288.192l.017.01.03.017.019.009.043.024.03.016.05.025.036.018.06.029.048.024.062.03.076.036.046.021.089.041.047.022.144.064c.335.149.728.312,1.1.435l17.678-11.93-.111,12.726-17.678,11.93c-.366-.123-.76-.285-1.095-.434l-.145-.066-.025-.011-.11-.052c-.015-.006-.027-.012-.041-.019l-.081-.038-.05-.024-.061-.03-.038-.018-.058-.029-.029-.015-.052-.026c-.008,0-.014-.009-.022-.012l-.04-.021-.015-.009a.245.245,0,0,1-.025-.014l0,0c-.1-.061-.194-.125-.286-.191l-.088-.065c-.062-.046-.122-.092-.182-.141l-.047-.036-.043-.037c-.058-.05-.113-.1-.168-.149-.024-.022-.048-.044-.071-.067-.075-.072-.148-.146-.215-.219l0,0-.013-.016c-.065-.07-.126-.143-.185-.214l-.057-.072c-.044-.056-.086-.112-.126-.169l-.03-.041c-.018-.026-.036-.051-.053-.077-.041-.061-.08-.123-.116-.187-.017-.029-.032-.059-.048-.088s-.036-.064-.052-.1l0,0c-.043-.084-.083-.169-.121-.254l-.031-.071-.1-.227c-.037-.087-.075-.175-.114-.263l-.022-.049q-.047-.1-.1-.2c-.014-.027-.027-.055-.042-.083s-.042-.079-.065-.119-.034-.061-.052-.091-.05-.079-.077-.12-.04-.061-.061-.09l-.043-.058c-.03-.04-.061-.079-.094-.118l-.05-.059c-.043-.049-.088-.1-.136-.144a.207.207,0,0,1-.019-.019c-.054-.052-.114-.1-.175-.154l-.077-.059c-.044-.034-.09-.067-.138-.1l-.092-.061q-.08-.051-.166-.1l-.076-.042c-.087-.046-.177-.092-.275-.136-.122-.052-.25-.1-.38-.14-.03-.01-.06-.02-.091-.029-.129-.042-.262-.079-.4-.112" transform="translate(-576.98 -348.79)" fill="#0082bc"/>
    <path id="Trazado_835038" data-name="Trazado 835038" d="M413.754,472.154l.112-12.727,22.665,9.536-.093,10.591.022,0,.147.017c.181.02.361.039.539.053l.053,0c.131.01.26.019.389.026l.146.007.29.013.107,0c.228.006.453.008.672,0l.088,0c.184,0,.364-.011.541-.022l.041,0c.166-.011.327-.027.485-.044l.119-.014c.135-.016.269-.035.4-.055l.047-.007c.141-.024.277-.051.412-.08l.1-.023c.125-.029.248-.061.366-.1l.052-.013.073-.024c.065-.02.129-.04.192-.062l.1-.035c.053-.02.106-.039.158-.061.03-.011.059-.025.087-.036l.15-.068.082-.04.148-.078.067-.037c.068-.04.135-.081.2-.123a2.279,2.279,0,0,0,1-2.075l.006-.62a2.826,2.826,0,0,1,.463-1.8,10.724,10.724,0,0,1,1.769-1.345l22.636,9.525-.111,12.727-22.637-9.525A10.71,10.71,0,0,0,444.068,487a2.62,2.62,0,0,0-.46,1.606c0,.206,0,.411-.006.617a2.392,2.392,0,0,1-1,2.269c-.063.043-.129.084-.2.124l-.069.037c-.048.026-.1.052-.146.077l-.084.04c-.048.022-.1.046-.149.067l-.087.037-.048.02-.112.041-.094.035-.189.061-.079.025-.013,0-.033.008c-.12.035-.245.067-.372.1l-.053.014-.045.008c-.135.029-.273.056-.415.08l-.008,0-.031,0c-.133.022-.27.04-.409.056l-.059.008-.055.006c-.159.017-.321.032-.487.043h-.044q-.265.017-.542.024l-.056,0h-.027c-.219,0-.444,0-.672,0h-.054l-.056,0c-.1,0-.193-.007-.289-.012-.048,0-.1,0-.146-.007-.138-.008-.277-.017-.417-.029h-.024c-.18-.015-.361-.034-.544-.053l-.142-.017c-.16-.019-.322-.04-.484-.063l-.059-.008-.02,0c-.151-.022-.3-.046-.452-.071l-.077-.015c-.127-.021-.253-.044-.381-.068l-.17-.035-.29-.059-.191-.043c-.09-.019-.181-.041-.272-.063l-.072-.016-.062-.016c-.245-.06-.491-.123-.736-.192l-.1-.027c-.25-.071-.5-.146-.745-.226l-.076-.025c-.254-.084-.508-.171-.759-.263-.015-.006-.029-.012-.045-.017-.261-.1-.52-.2-.775-.307-.125-.052-.249-.107-.369-.16q-.258-.115-.5-.234l-.165-.081q-.16-.08-.313-.159c-.061-.032-.12-.064-.18-.1l-.277-.154-.17-.1c-.034-.02-.07-.04-.1-.06-.057-.034-.111-.069-.166-.1l-.146-.091c-.1-.064-.2-.129-.292-.194-.031-.02-.063-.042-.093-.064-.123-.086-.241-.172-.354-.259l-.085-.068c-.067-.052-.135-.1-.2-.158l-.035-.031c-.083-.07-.161-.14-.238-.21-.034-.032-.07-.063-.1-.094-.107-.1-.209-.2-.3-.3h0c-.082-.09-.158-.179-.23-.267-.022-.029-.042-.058-.064-.086-.038-.048-.077-.1-.111-.147l-.026-.04c-.017-.025-.032-.05-.048-.074-.041-.062-.079-.124-.114-.187-.014-.026-.03-.052-.043-.078s-.017-.029-.025-.044c-.033-.066-.063-.13-.091-.2,0-.01-.008-.021-.013-.032-.019-.045-.037-.091-.052-.136-.01-.029-.018-.058-.025-.086s-.01-.029-.014-.044c-.017-.066-.033-.13-.044-.195,0-.014,0-.026-.006-.039s0-.027-.005-.041a1.673,1.673,0,0,1-.016-.218v-.023q.04-4.53.08-9.058Z" transform="translate(-336.944 -374.138)" fill="#2ca1df"/>
    <path id="Trazado_835039" data-name="Trazado 835039" d="M511.76,327.3,457.043,304.27l-42.687,28.8,22.665,9.536a9.752,9.752,0,0,1-1.527,1,12.514,12.514,0,0,1-2.8.814c-1.907.352-4.247.294-5.6,1.21-2.123,1.433-.452,4.035,3.727,5.9.121.054.245.107.369.161,4.449,1.871,9.826,2.194,12.011.719,1.774-1.2.41-3.1,1.469-4.49a10.744,10.744,0,0,1,1.769-1.344l22.636,9.525,17.662-11.916c-.072-.034-.148-.069-.227-.1a21.189,21.189,0,0,0-2.324-.851c-2.634-.579-6.2.123-8.471-.834-2.788-1.241-2.219-4.058,1.212-6.373,3.469-2.341,8.553-3.284,11.354-2.106,1.738.774,1.67,1.993,2.344,2.994a5.148,5.148,0,0,0,1.565,1.5c.083.051.4.209.8.388.335.149.728.312,1.095.435Z" transform="translate(-337.434 -247.785)" fill="#77b5e5"/>
    <path id="Trazado_835040" data-name="Trazado 835040" d="M629.8,707.393c0,.032,0,.062,0,.094s0,.068,0,.1-.006.054-.009.083-.007.064-.012.1-.012.063-.018.094-.01.047-.015.071-.017.065-.026.1-.013.045-.02.068l-.015.038a1.953,1.953,0,0,1-.108.259s0,0,0,.006a2.129,2.129,0,0,1-.142.236c-.008.013-.016.026-.025.038a2.293,2.293,0,0,1-.176.217c-.017.02-.036.04-.054.059s-.04.043-.061.062-.048.046-.074.069-.045.042-.068.061-.044.036-.066.053l-.124.1-.068.048c-.046.032-.094.063-.143.092l-.064.041c-.042.026-.087.048-.132.072-.025.015-.048.028-.074.042-.071.035-.145.071-.221.105a6,6,0,0,1-.914.295q-.382.092-.787.149c-.256.037-.52.065-.787.088-.373.029-.754.047-1.14.057-.844.025-1.71.016-2.551.04-.379.012-.754.028-1.118.058l.113,12.936c.365-.029.74-.047,1.119-.057.841-.024,1.707-.016,2.551-.04.386-.01.766-.028,1.14-.059q.4-.032.787-.087.4-.059.787-.15a5.873,5.873,0,0,0,.914-.3c.076-.034.15-.069.222-.106.021-.01.04-.023.06-.033q.075-.039.146-.081l.015-.008.042-.027c.051-.031.1-.064.15-.1l.068-.048c.042-.032.084-.063.123-.1l.038-.029.028-.025c.023-.02.047-.04.068-.061s.05-.044.074-.068l.063-.062c.012-.015.026-.027.038-.04s.01-.012.016-.019a2.324,2.324,0,0,0,.176-.218l.011-.013c.005-.008.008-.016.014-.024a2.194,2.194,0,0,0,.143-.237h0v0a2.073,2.073,0,0,0,.11-.262.154.154,0,0,0,.008-.021s0-.009,0-.014c.008-.026.016-.052.022-.077s.016-.057.024-.086.011-.052.016-.078.01-.042.014-.063l0-.024c.005-.034.009-.069.013-.1s.006-.05.008-.074c0-.04,0-.078.005-.116,0-.019,0-.037,0-.056v-.026Z" transform="translate(-505.534 -576.072)" fill="#6d1e3a"/>
    <path id="Trazado_835041" data-name="Trazado 835041" d="M601.826,723.657a.054.054,0,0,0-.014,0,21.376,21.376,0,0,0-2.348.863c-.08.035-.158.071-.231.107l.114,12.935c.073-.036.15-.071.231-.107a22.229,22.229,0,0,1,2.347-.863.051.051,0,0,0,.013,0c.2-.044.413-.081.626-.113.254-.036.516-.064.781-.086l-.113-12.936c-.266.022-.527.05-.781.087-.213.031-.422.069-.625.113" transform="translate(-487.991 -589.154)" fill="#6d1e3a"/>
    <path id="Trazado_835042" data-name="Trazado 835042" d="M452.059,807.953l-.113-12.936-23.035,9.694L429,815.475c-2.675.32-5.078.069-6.376-.806a2.314,2.314,0,0,1-1.016-2.1c0-.213,0-.426-.006-.64a2.874,2.874,0,0,0-.47-1.821,11.142,11.142,0,0,0-1.8-1.366l-23.01,9.681.113,12.936,23.01-9.682a11.1,11.1,0,0,1,1.8,1.366,2.662,2.662,0,0,1,.467,1.622q0,.321.005.641a2.427,2.427,0,0,0,1.02,2.3c2.222,1.5,7.686,1.171,12.207-.732.127-.053.253-.107.376-.163,3.008-1.34,4.739-3.058,4.726-4.463q-.041-4.6-.082-9.206Z" transform="translate(-322.755 -647.429)" fill="#922b58"/>
    <path id="Trazado_835043" data-name="Trazado 835043" d="M610.53,719.756l.114,12.935c-2.407,1.014-6.028.3-8.7.888a21.585,21.585,0,0,0-2.36.866c-.081.036-.159.071-.231.107l-.114-12.935c.073-.036.151-.072.231-.107a21.469,21.469,0,0,1,2.362-.866c2.675-.588,6.3.125,8.7-.887" transform="translate(-487.991 -586.14)" fill="#6d1e3a"/>
    <path id="Trazado_835044" data-name="Trazado 835044" d="M206,792.654l-43.387-29.275.113,12.935,43.387,29.276Z" transform="translate(-132.429 -621.664)" fill="#6d1e3a"/>
    <path id="Trazado_835045" data-name="Trazado 835045" d="M248.676,679.352c-1.38-.932-3.76-.873-5.7-1.23a12.665,12.665,0,0,1-2.844-.829,9.931,9.931,0,0,1-1.551-1.01l23.035-9.694-17.949-12.111c.073-.036.151-.072.231-.107a21.465,21.465,0,0,1,2.362-.866c2.675-.588,6.3.125,8.7-.887,2.74-1.222,2.163-4.085-1.327-6.437-3.526-2.38-8.693-3.339-11.625-2.1-1.68.75-1.613,1.989-2.3,3a5.237,5.237,0,0,1-1.592,1.522c-.084.051-.408.214-.817.4-.338.151-.736.314-1.105.44l-17.97-12.127-55.616,23.4L206,689.991l23.01-9.681a11.141,11.141,0,0,1,1.8,1.366c1.076,1.416-.311,3.348,1.492,4.565,2.222,1.5,7.687,1.17,12.208-.731.127-.053.253-.109.375-.163,4.248-1.894,5.949-4.538,3.79-5.995" transform="translate(-132.429 -519.001)" fill="#bd2f64"/>
    <path id="Trazado_835046" data-name="Trazado 835046" d="M1246.851,1069.861c0,7.681,13.993,13.906,31.255,13.906s31.254-6.225,31.254-13.906-13.993-13.906-31.254-13.906-31.255,6.226-31.255,13.906" transform="translate(-1015.384 -859.926)" fill="#98a7d3"/>
    <path id="Trazado_835047" data-name="Trazado 835047" d="M1310.328,1089.536a17.013,17.013,0,0,1-5.847,3.411,4.992,4.992,0,0,1-4.873-1.262.933.933,0,0,1,.143-1.428c6.469-4.919,8.406-6.313,8.406-6.313h5.939a13.5,13.5,0,0,1,.129,3.351,5.148,5.148,0,0,1-3.258,1.975c-.122.02-.35-.159-.466-.112Z" transform="translate(-1058.135 -882.72)" fill="#191818"/>
    <path id="Trazado_835048" data-name="Trazado 835048" d="M1299.719,1099.84a1.664,1.664,0,0,0,.124.406,3.255,3.255,0,0,0,3.006,1.5,8.707,8.707,0,0,0,3.7-1.255,16.468,16.468,0,0,0,3.063-2.078,9.218,9.218,0,0,1,2.315-1.158,11.84,11.84,0,0,0,2.336-1.574c0,.64-.041,1.171-.041,1.171a5.146,5.146,0,0,1-3.259,1.975c-.122.021-.35-.16-.465-.112l-.172.378a17.009,17.009,0,0,1-5.847,3.411,4.992,4.992,0,0,1-4.873-1.262.931.931,0,0,1,.114-1.408" transform="translate(-1058.132 -892.281)" fill="#060401"/>
    <path id="Trazado_835049" data-name="Trazado 835049" d="M1338.173,610.428c-6.6,7.292-9.222-.421-9.222-.421l-.818-44.82c-.086.667-.305-4.52,8.033-3.4,8.314,1.12,10.42,4.362,10.42,4.362s-4.574,30.958-8.412,44.277" transform="translate(-1081.559 -457.368)" fill="#e28262"/>
    <path id="Trazado_835050" data-name="Trazado 835050" d="M1332.412,803.209s3.351,47.2,3.624,48.858c0,0,4.074.9,4.092-.037.047-2.261,4.7-29.883,4.757-33.436.152-8.995-2.167-10.7-4.48-16.754,0,0-8.01-5.923-7.993,1.369" transform="translate(-1085.061 -651.138)" fill="#e28262"/>
    <path id="Trazado_835051" data-name="Trazado 835051" d="M1335.045,612.125c3.837-13.319,6.423-45.974,6.423-45.974s-2.105-3.241-10.419-4.362c-8.338-1.122-8.119,4.065-8.033,3.4,0,0-2.526,24.3-.213,46.393,0,0,7.123,3.783,12.242.545" transform="translate(-1076.441 -457.368)" fill="#00315e"/>
    <path id="Trazado_835052" data-name="Trazado 835052" d="M1352.712,438.808c1.178,4.194,6.041,20.2,6.041,20.2-17.407,20.825-30.521,2.6-30.694.7-.208-2.274,2.33-10.955,2.791-20.319,0,0,4.746-7.307,21.863-.583" transform="translate(-1081.506 -355.031)" fill="#f39672"/>
    <path id="Trazado_835053" data-name="Trazado 835053" d="M1327.693,517.671c-.825-5.61.885-11.266,1.766-16.935h25.5c1.631,5.435,3.328,11.019,3.328,11.019s1.09,12.858-9.829,14.4c0,0-19.03,3.3-20.764-8.482" transform="translate(-1081.04 -407.779)" fill="#00315e"/>
    <path id="Trazado_835054" data-name="Trazado 835054" d="M1405.832,616.9c-5.452,8.19-9.183.95-9.183.95l-8.843-43.663c.014.673.265-5.687,8.677-5.811,8.389-.124,10.951,2.769,10.951,2.769s.219,32.014-1.6,45.756" transform="translate(-1130.172 -462.856)" fill="#f39672"/>
    <path id="Trazado_835055" data-name="Trazado 835055" d="M1434.348,814.243s8.757,49.74,9.273,51.337c0,0,4.162.287,4.041-.643-.289-2.243.461-33.608-.005-37.13-1.183-8.918-2.42-10.451-5.6-16.1,0,0-8.8-4.67-7.7,2.538" transform="translate(-1167.997 -659.808)" fill="#f39672"/>
    <path id="Trazado_835056" data-name="Trazado 835056" d="M1471.763,1098.8l-2.464,7.512s.509,6.725,5.9,2.558l1.607-1.557a1.72,1.72,0,0,0,.58-1.651l-.479-2.878-.572-3.983s-3.38-2.294-4.573,0" transform="translate(-1196.536 -893.984)" fill="#191818"/>
    <path id="Trazado_835057" data-name="Trazado 835057" d="M1475.2,1141.738l1.607-1.556a1.678,1.678,0,0,0,.551-.86l.028.168a1.72,1.72,0,0,1-.58,1.651l-1.607,1.557c-5.393,4.167-5.9-2.558-5.9-2.558l.1-.293c.3,1.587,1.491,5.224,5.806,1.89" transform="translate(-1196.536 -927.817)" fill="#060401"/>
    <path id="Trazado_835058" data-name="Trazado 835058" d="M1390.721,598.642c-3.072-9.015-8.869-46.3-8.869-46.3.013.671,1.736-8.906,10.149-9.029,8.389-.124,10.569,3.112,10.569,3.112s2.627,36.5.8,50.236c0,0-5.909,6.824-12.653,1.984" transform="translate(-1125.323 -442.446)" fill="#003980"/>
    <path id="Trazado_835059" data-name="Trazado 835059" d="M1236.3,263.681s-14.245,16.751-21.327,22.3c0,0-4.76-1.759-4.613-4.994,0,0,10.429-15.427,16.976-24.553,0,0,8.852-2.549,8.965,7.246" transform="translate(-985.661 -208.587)" fill="#e28262"/>
    <path id="Trazado_835060" data-name="Trazado 835060" d="M1123.44,380.621s-15.554,9.054-22,12.081c0,0-1.157,1.809.709,1.981,3.118.285,24.791-7.055,25.32-8.759,2.469-7.943-4.034-5.3-4.034-5.3" transform="translate(-896.683 -309.619)" fill="#e28262"/>
    <path id="Trazado_835061" data-name="Trazado 835061" d="M1296.4,252.69a5.805,5.805,0,0,0,7.42,3.435,5.725,5.725,0,0,0,3.367-7.4,5.806,5.806,0,0,0-7.421-3.434,5.725,5.725,0,0,0-3.365,7.4" transform="translate(-1055.437 -199.466)" fill="#e28262"/>
    <path id="Trazado_835062" data-name="Trazado 835062" d="M1244.25,243.764a7.607,7.607,0,0,0-8.568,3.2l-12.424,18.021a20.517,20.517,0,0,0,8.607,8.869s22.244-20.484,12.384-30.094" transform="translate(-996.171 -198.26)" fill="#781a3e"/>
    <path id="Trazado_835063" data-name="Trazado 835063" d="M1391.03,118.518s1.026-1.973,3.287-5.757c0,0,4.814-4.944,2.117-11.158,0,0-1.481-5.195-10.567-4.441,0,0-.869,14.3,5.162,21.356" transform="translate(-1128.558 -79.064)" fill="#f3906b"/>
    <path id="Trazado_835064" data-name="Trazado 835064" d="M1371.1,168.91s-1.528,14.253,1.732,15.331l-11.624-.692s1.827-4.307-.3-7.483Z" transform="translate(-1108.272 -137.553)" fill="#f39672"/>
    <path id="Trazado_835065" data-name="Trazado 835065" d="M1361.85,181.06c.194-3.256-.216-3.917-.936-4.994l10.19-7.155a69.343,69.343,0,0,0-.321,8.778,11.024,11.024,0,0,1-8.933,3.371" transform="translate(-1108.272 -137.554)" fill="#db765e"/>
    <path id="Trazado_835066" data-name="Trazado 835066" d="M1307.654,239.84c-2.589,1.891-2.886,6.413-1.962,9.238,1.061,3.245,1.481,7.385,2.544,12.077,1.439,6.358,2.415,11.255,4.019,17.569,1.328,5.222,22.313,1.014,22.313,1.014l7.52-25.7s1.3-6.71-4.782-8.942a90.911,90.911,0,0,0-11.091-5.044,20.229,20.229,0,0,0-9.888-1.272,49.126,49.126,0,0,0-8.674,1.061" transform="translate(-1062.913 -194.364)" fill="#f39672"/>
    <path id="Trazado_835067" data-name="Trazado 835067" d="M1334.73,103.313c-.6,2.734-1.28,4.163-.525,6.669.68,2.251.522,4.616,1.5,6.8,1.4,3.112,3.227,2.705,4.622-.157,1.428-2.93,2.916-6.89-.307-9.06-2.07-1.394-2.816-3.791-5.295-4.25" transform="translate(-1086.25 -84.134)" fill="#23140a"/>
    <path id="Trazado_835068" data-name="Trazado 835068" d="M1340.294,119.341l-.484-1.611s-1.223-5.958-1.223-5.959a6.036,6.036,0,0,1,.095-2.476,6.078,6.078,0,0,0,.211-2.543c-.734-4.275,1.592-6.5,1.592-6.5,2.663-3.784,8.506-3.487,8.506-3.487,7.21.72,7.466,7.746,7.466,7.746.94,4.71-2.956,8.4-2.964,8.406-.311.294-.237,1.832-.348,2.264-.474,1.837-2.308,2.889-3.922,3.6a17.376,17.376,0,0,1-5.854,1.67c-.737.031-2.8-.182-3.076-1.107" transform="translate(-1090.019 -78.799)" fill="#f3906b"/>
    <path id="Trazado_835069" data-name="Trazado 835069" d="M1338.928,167.606c.948.855,2.237.465,3.246,1.084a1.7,1.7,0,0,0,1.708.167,2.68,2.68,0,0,1,1.63.054c.6.174,1.694.7,2.277.933a2.153,2.153,0,0,0,2.586-.6,5.115,5.115,0,0,0,1.341-2.124c.626-1.949,2.6-2.067,3.954-.973a11.7,11.7,0,0,1-1.982,2.712c-.311.294-.236,3.1-.347,3.536-.475,1.837-2.309,2.889-3.922,3.6-1.773.777-4.477.884-6.421.964a3.082,3.082,0,0,1-2.51-1.673l-.484-1.611s-1.223-5.958-1.223-5.959c-.021-.1-.029-.219-.043-.332a1.815,1.815,0,0,0,.19.221" transform="translate(-1090.213 -134.744)" fill="#23140a"/>
    <path id="Trazado_835070" data-name="Trazado 835070" d="M1327.375,76.375c1.632,0,1.613,1.367,2.864,2.128,2.681,1.63,6.84-.76,9,1.884a5.149,5.149,0,0,1,.547.838,12.364,12.364,0,0,1,1.031,3.951c.06.39-.229,1.386.125,1.685.2.172.555.121.928,0,.073.6-.408,1.056-.614,1.6s-.529,1.019-.237,1.575c.753,1.43.175,1.194.243,4.067a12.19,12.19,0,0,1,1.975-1.825,14.6,14.6,0,0,0,2.79-3.087,19.55,19.55,0,0,0,1.695-3.723,10.478,10.478,0,0,0,.6-6.544s-.493-5.095-4.755-5.641c0,0,.542-3.281-7.248-4.149,0,0-6.151.1-6.487-2.026a3.02,3.02,0,0,0-.935,2.7,3.022,3.022,0,0,1-3.667-2.123s-2.107,7.622,2.14,8.683" transform="translate(-1078.791 -54.654)" fill="#23140a"/>
    <path id="Trazado_835071" data-name="Trazado 835071" d="M1411.534,171.8a1.283,1.283,0,0,0,.818.486c.97.179,1.941-.725,2.17-2.017a2.158,2.158,0,0,0-1.34-2.657,1.567,1.567,0,0,0-1.3.4,3.276,3.276,0,0,0-.743,2.278,2.447,2.447,0,0,0,.4,1.507" transform="translate(-1149.172 -136.479)" fill="#f3906b"/>
    <path id="Trazado_835072" data-name="Trazado 835072" d="M1418.844,172.124c.15-.677,1.456.145,1.2.5a2.1,2.1,0,0,1-.621.474,1.018,1.018,0,0,0-.516.7c-.01.04-.031.157,0,.19.165.146.832-.452.979-.578a1.155,1.155,0,0,0,.3-1.075.694.694,0,0,0-.7-.606c-.312-.019-.632-.036-.66.354,0,.008.006.074.014.04" transform="translate(-1155.436 -139.844)" fill="#e47a5d"/>
    <path id="Trazado_835073" data-name="Trazado 835073" d="M1417.2,177.627c-.127-.163-.278-.059-.439.03a.651.651,0,0,0-.3.373,1.621,1.621,0,0,0,.035,1.165.871.871,0,0,0,.7.486c.418.037.587-.317.646-.667.016-.094.051-.318-.035-.387s-.182.071-.257.13a.582.582,0,0,1-.369.091.758.758,0,0,1-.588-.352.4.4,0,0,1-.05-.114q-.041.346.018.16a.64.64,0,0,1,.1-.154c.115-.148.293-.239.419-.378.06-.063.187-.3.123-.383" transform="translate(-1153.436 -144.583)" fill="#e47a5d"/>
    <path id="Trazado_835074" data-name="Trazado 835074" d="M1355.88,162.943l1.965.759s-2.651.165-2.753-.6c0,0,.4-1.5.835-2.927,0,0-.339,2.66-.047,2.773" transform="translate(-1103.531 -130.436)" fill="#e47a5d"/>
    <path id="Trazado_835075" data-name="Trazado 835075" d="M1377.807,156.878c0,.416.229.751.511.751s.51-.335.51-.751-.229-.751-.51-.751-.511.336-.511.751" transform="translate(-1122.029 -127.143)" fill="#23140a"/>
    <path id="Trazado_835076" data-name="Trazado 835076" d="M1347.277,153.485c0,.416.229.751.511.751s.51-.335.51-.751-.229-.751-.51-.751-.511.336-.511.751" transform="translate(-1097.167 -124.38)" fill="#23140a"/>
    <path id="Trazado_835077" data-name="Trazado 835077" d="M1373.843,148.417c-.183.037-.228-.209-.228-.209a.854.854,0,0,1,.012-.44.426.426,0,0,1,.218-.223,6.213,6.213,0,0,1,2.171.284c.431.129,1.13.449,1.175.847.013.118.025.323-.11.36a17.689,17.689,0,0,0-3.238-.619" transform="translate(-1118.597 -120.14)" fill="#23140a"/>
    <path id="Trazado_835078" data-name="Trazado 835078" d="M1339.937,145.036a15.4,15.4,0,0,1,2.534.265c.167.087.276-.138.277-.138a.861.861,0,0,0,.107-.428.422.422,0,0,0-.149-.272,4.6,4.6,0,0,0-1.878-.294,3.681,3.681,0,0,0-.944.128,1.823,1.823,0,0,0,.053.739" transform="translate(-1091.135 -117.404)" fill="#23140a"/>
    <path id="Trazado_835079" data-name="Trazado 835079" d="M1352.525,188.033c-.16,0-.247.073-.186.19a2.424,2.424,0,0,0,4.193.507c.1-.109.012-.218-.188-.244,0,0-2.137-.272-3.819-.452" transform="translate(-1101.272 -153.126)" fill="#fff"/>
    <path id="Trazado_835080" data-name="Trazado 835080" d="M1404.388,525.06a15.831,15.831,0,0,1,0,15.286c-4.466,8.079-18.1,5.134-18.14-5.33-.041-10.337,9.367-14.289,18.14-9.956" transform="translate(-1128.902 -426.174)" fill="#003980"/>
    <path id="Trazado_835081" data-name="Trazado 835081" d="M1316.328,239.256a49.13,49.13,0,0,0-8.674,1.061c-2.589,1.89-2.886,6.413-1.961,9.238,1.061,3.245,1.481,7.385,2.544,12.077,1.439,6.358-.375,11.006,1.229,17.321,1.328,5.222,29.1,0,29.1,0l3.527-24.438s1.3-6.71-4.782-8.942a83.974,83.974,0,0,0-10.8-4.944s.732,4.944-7.327,3.578c0,0-4.923-1.187-2.851-4.951" transform="translate(-1062.913 -194.84)" fill="#781a3e"/>
    <path id="Trazado_835082" data-name="Trazado 835082" d="M1350.375,436.724c1.178,4.194,2.11,18.336,2.11,18.336-3.192,13.239-32.56,3.714-32.734,1.814-.207-2.273.693-13.092,1.153-22.455,0,0,12.353-4.418,29.471,2.305" transform="translate(-1074.727 -352.612)" fill="#781a3e"/>
    <path id="Trazado_835083" data-name="Trazado 835083" d="M1436.2,289.028c1.916,3.9,9.029,23.567,11.315,26.677.608.826,6.47,4.6,7.79-.545-3.231-20.419-8.119-32.066-8.119-32.066s-5.708-4.76-10.268-.36c0,0-2.07,3.594-.718,6.294" transform="translate(-1169.213 -228.728)" fill="#f39672"/>
    <path id="Trazado_835084" data-name="Trazado 835084" d="M1433.436,280.926a6.869,6.869,0,1,0,7.916-5.631,6.869,6.869,0,0,0-7.916,5.631" transform="translate(-1167.253 -224.11)" fill="#f39672"/>
    <path id="Trazado_835085" data-name="Trazado 835085" d="M1431.579,269.232s5.9,2.215,7.3,7.005l3.644,13.039s-4.775,6.944-11.891,6.714l-7.031-15.618s-4.73-8.771,7.978-11.14" transform="translate(-1158.621 -219.251)" fill="#781a3e"/>
    <path id="Trazado_835086" data-name="Trazado 835086" d="M1047.874,438.14l1.818-.05s-3.316.851-4.386-.226c0,0-.274-.17.151-.555a25.226,25.226,0,0,0,4.223-.47,18.415,18.415,0,0,1-4.968.493.541.541,0,0,1,.063-1.013c-.658-.255-.1-.689-.1-.689a11.506,11.506,0,0,1,1.976-.762,47.02,47.02,0,0,0,4.527-1.765s-1.914-1.253-1.2-2.262l2.952,1.557,2.672,1.717.355,1.808-2.779,1.932a17.32,17.32,0,0,1-4.23,1.137s-4.388-.156-1.08-.851" transform="translate(-850.492 -350.858)" fill="#e28262"/>
    <path id="Trazado_835087" data-name="Trazado 835087" d="M1429.629,816.16l7.638,47.6s2.53,2.439,8.4,0l.975-23.256s1.724-15.365-4.361-26.325c0,0-11.986-9.673-12.653,1.984" transform="translate(-1164.231 -659.964)" fill="#003980"/>
    <path id="Trazado_835088" data-name="Trazado 835088" d="M1338.914,813.045s3.251,4.7.338,22.358l-2.981,24.11a7.949,7.949,0,0,1-7.289.093l-2.4-48.03s2.156-8.154,12.336,1.469" transform="translate(-1080.31 -658.288)" fill="#00315e"/>
    <path id="Trazado_835089" data-name="Trazado 835089" d="M1044.452,500.464a1.856,1.856,0,0,0-.937-1.531,3.425,3.425,0,0,0-.316-.185c-.034-.018-.07-.034-.105-.051-.079-.038-.16-.075-.243-.109-.021-.009-.039-.019-.061-.027s-.037-.011-.055-.018c-.133-.051-.269-.1-.411-.14l-.007,0h0c-.143-.042-.291-.078-.441-.112-.017,0-.033-.01-.05-.014l-.063-.012c-.177-.038-.358-.073-.543-.1l-.014,0-.046-.007q-.286-.046-.578-.084l-.062-.009c-.2-.027-.411-.05-.617-.073a.251.251,0,0,0-.036,0l-.5-.058c-.2-.022-.392-.045-.587-.07-.035-.006-.07-.009-.107-.014-.191-.026-.378-.053-.564-.082-.1-.016-.193-.032-.288-.05-.194-.035-.39-.076-.585-.118l-.1-.024c-.142-.032-.283-.066-.425-.1l-.011,0c-.142-.036-.281-.075-.421-.114l-.133-.04c-.1-.028-.191-.059-.285-.09-.046-.016-.092-.03-.138-.048-.1-.032-.192-.068-.286-.1-.036-.015-.072-.027-.107-.041-.12-.048-.236-.1-.348-.147a10.059,10.059,0,0,1-1.551-1.012l.114,12.935a9.885,9.885,0,0,0,1.552,1.012c.111.051.228.1.347.148a.264.264,0,0,1,.026.01l.081.029c.094.036.19.071.288.105.044.016.089.029.134.045q.144.047.293.093l.081.025.042.012c.14.041.282.08.425.116h0c.144.035.289.069.434.1l.041.009.059.012c.2.043.392.084.588.12l.241.043c.015,0,.032,0,.047.007.185.029.372.055.562.081l.113.015.576.069h.006l.38.043c.051.006.1.013.154.017.209.025.418.05.625.076.016,0,.032.006.049.007.2.026.392.054.584.086l.062.009c.185.03.365.066.542.1l.115.026c.151.034.3.071.443.113s.282.092.418.142l.115.045c.084.034.165.071.245.11l.1.051a3.209,3.209,0,0,1,.317.187,1.853,1.853,0,0,1,.937,1.53Z" transform="translate(-841.578 -403.811)" fill="#2d3a61"/>
    <path id="Trazado_835090" data-name="Trazado 835090" d="M882.79,589.09l.133-.029c.06-.013.119-.027.18-.039l.15-.026.127-.021.1,10.84,17.949,12.112-.114-12.935-14.868-10.034c.217.026.436.057.655.093.051.008.1.017.152.026.081.015.164.028.247.045.059.01.118.022.177.035l.236.048.166.037c.127.029.255.06.383.092q.053.012.107.027c.159.041.319.085.478.131l.092.027c.22.066.439.135.656.209l.033.011c.218.075.434.155.649.237l.053.021c.247.1.491.2.732.309l.036.016c.245.109.485.227.723.35l.023.011c.241.124.477.256.708.391l.012.007c.235.139.464.283.687.433,1.982,1.338,3.024,2.839,3.035,4.118q-.057-6.468-.114-12.936c-.011-1.278-1.054-2.779-3.034-4.116-.223-.151-.452-.3-.686-.433l-.013-.008c-.23-.136-.467-.266-.707-.39l-.025-.012c-.237-.122-.477-.24-.722-.351l-.036-.015q-.362-.164-.732-.31l-.014-.006-.038-.014c-.216-.085-.435-.166-.655-.241l-.025-.009c-.22-.076-.442-.145-.663-.21l-.05-.017-.033-.009c-.161-.048-.322-.091-.483-.133l-.1-.023q-.2-.051-.394-.1l-.074-.018-.082-.017-.247-.052-.17-.034c-.083-.016-.166-.03-.249-.044-.04-.008-.081-.016-.12-.022l-.031,0c-.222-.037-.443-.068-.662-.094l-.052-.007-.039,0c-.192-.02-.382-.038-.571-.052l-.046,0c-.021,0-.041,0-.062,0-.351-.022-.694-.029-1.028-.02-.019,0-.04,0-.06,0l-.051,0c-.162.005-.323.013-.48.026h-.011l-.028,0c-.164.013-.325.032-.483.054l-.051.005-.036.006c-.066.01-.129.021-.193.033l-.137.025c-.067.012-.132.028-.2.042-.034.008-.07.014-.1.023l-.015,0c-.14.034-.276.074-.408.114l-.09.03c-.133.044-.264.091-.388.142-.1.044-.192.092-.28.138l-.078.044c-.031.017-.065.034-.094.052l-.074.048-.095.062c-.049.033-.1.067-.14.1l-.079.06-.028.021c-.053.045-.1.089-.15.135a.181.181,0,0,1-.018.017c-.038.037-.075.076-.111.114-.011.011-.02.024-.03.035l-.05.058c-.034.041-.066.08-.1.122-.014.018-.029.037-.042.057l-.022.03c-.016.022-.027.043-.041.065-.027.039-.053.079-.077.12s-.037.061-.054.092-.044.079-.065.118c-.007.013-.015.027-.022.042s-.015.03-.022.045c-.034.069-.067.139-.1.208l-.021.046c-.041.093-.081.186-.122.278-.03.071-.06.143-.092.214l-.036.081c-.038.085-.078.17-.121.253-.022.045-.047.089-.071.132l-.033.062c-.037.063-.076.128-.118.19l-.083.118c-.041.057-.084.113-.129.172l-.058.072c-.06.073-.122.146-.188.219a.124.124,0,0,0-.016.018c-.07.075-.144.149-.221.224l-.068.064c-.057.052-.114.1-.174.155l-.09.075c-.06.049-.122.1-.186.144l-.088.067c-.094.065-.19.131-.291.194l-.032.017a.113.113,0,0,0-.013.009l-.041.021-.023.012-.048.024-.034.018-.052.026-.048.023c-.016.009-.035.017-.053.026l-.062.03c-.019.008-.039.019-.059.027l-.066.032c-.03.014-.062.029-.094.043-.014.007-.028.015-.043.022-.048.022-.1.044-.149.066-.338.152-.735.315-1.1.44l-17.971-12.126.113,12.937,17.971,12.125c.368-.125.765-.289,1.1-.44l.278-.127s0,0,0,0c.041-.018.079-.036.117-.054a.025.025,0,0,1,.009,0l.082-.04.033-.017.06-.029c.013-.005.027-.013.038-.019l.045-.024.038-.019.032-.016.033-.018.021-.011.02-.011.005,0c.1-.062.2-.129.293-.2.029-.02.057-.042.085-.063.064-.048.128-.1.189-.147.014-.011.031-.023.046-.035l.042-.037c.06-.052.117-.1.173-.155l.071-.065c.076-.073.15-.148.219-.224l0,0,.015-.017c.065-.073.127-.144.186-.216l.059-.075c.044-.056.086-.112.126-.169.011-.015.023-.029.034-.045l.05-.072c.043-.063.082-.127.118-.191.014-.023.025-.046.038-.069.022-.039.044-.078.063-.118,0,0,0,0,0-.005.042-.085.082-.17.121-.256.011-.027.023-.053.035-.079.03-.071.062-.141.092-.213.04-.1.081-.189.122-.284.006-.014.013-.026.019-.04.032-.073.067-.143.1-.214.014-.028.028-.055.042-.082s.043-.083.067-.122.034-.061.052-.092.051-.08.078-.12.041-.064.063-.1l.044-.058c.03-.04.062-.081.1-.12.017-.019.033-.04.051-.059.044-.05.089-.1.14-.146a.2.2,0,0,1,.018-.019c.055-.053.116-.105.179-.156.024-.021.051-.041.077-.06q.068-.052.141-.1c.03-.021.062-.041.094-.061.054-.034.11-.068.169-.1l.078-.042c.088-.048.18-.094.28-.139.124-.051.255-.1.388-.143l.09-.029c.132-.042.267-.08.407-.114" transform="translate(-698.658 -463.951)" fill="#2f3672"/>
    <path id="Trazado_835091" data-name="Trazado 835091" d="M1147.251,601.357l.114,12.935-55.617,23.4-.114-12.935Z" transform="translate(-888.982 -489.721)" fill="#3d4794"/>
    <path id="Trazado_835092" data-name="Trazado 835092" d="M857.924,467.056l23.007-9.681a11.056,11.056,0,0,1,1.8,1.365c1.076,1.417-.311,3.349,1.492,4.566,2.222,1.5,7.686,1.17,12.207-.731.126-.053.25-.106.373-.161,4.249-1.895,5.952-4.541,3.792-6-1.38-.93-3.759-.872-5.7-1.23a12.7,12.7,0,0,1-2.842-.828,10.045,10.045,0,0,1-1.551-1.012l23.036-9.692,43.387,29.276-55.617,23.4-17.95-12.112c.071-.035.146-.069.223-.1a21.636,21.636,0,0,1,2.369-.869c2.677-.588,6.3.126,8.61-.847,2.834-1.263,2.256-4.124-1.232-6.478-3.527-2.38-8.694-3.339-11.54-2.14-1.767.787-1.7,2.026-2.382,3.041a5.249,5.249,0,0,1-1.592,1.522c-.084.05-.408.214-.818.4-.338.152-.735.315-1.1.44Z" transform="translate(-698.658 -361.293)" fill="#4860a8"/>
    <path id="Trazado_835093" data-name="Trazado 835093" d="M258.1,781.27s1.9-1.234.075-3.513c-4.723-.3-10.276-2.851-10.276-2.851-6.943-2.184-16.694-12.931-21.133-17.821-4.986-5.491-12.534-.83-8.483,5.439,7.58,11.731,27.5,19.464,39.716,19.006" transform="translate(-176.822 -614.556)" fill="#f3906b"/>
    <path id="Trazado_835094" data-name="Trazado 835094" d="M94.791,978.716c2.9-13.553,3.771-44.946,3.771-44.946s-2.325-3.086-10.7-3.625c-8.4-.541-7.816,4.617-7.777,3.948a291.884,291.884,0,0,0,3.852,44.09s5.971,4.119,10.852.533" transform="translate(-65.201 -757.439)" fill="#002d58"/>
    <path id="Trazado_835095" data-name="Trazado 835095" d="M79.678,885.581c-.825-5.609.884-11.267,1.766-16.935h25.5c1.632,5.436,3.327,11.019,3.327,11.019s1.091,12.858-9.829,14.4c0,0-19.03,3.3-20.763-8.482" transform="translate(-64.708 -707.389)" fill="#006d97"/>
    <path id="Trazado_835096" data-name="Trazado 835096" d="M0,1401.25c0,10.81,19.7,19.573,43.992,19.573s43.99-8.763,43.99-19.573-19.7-19.573-43.99-19.573S0,1390.44,0,1401.25" transform="translate(0 -1125.181)" fill="#98a7d3"/>
    <path id="Trazado_835097" data-name="Trazado 835097" d="M337.847,1455.967l-1.453-.084c-.5-.077-.492.7-.558.728a15.808,15.808,0,0,1-3.44,1.091s-2.687-.349-2.976-1.164l.38-4.987c2.995-.252,6.121-.831,6.121-.831l6.583-.924c3.168-.331,3.744.815,3.744.815s1.94,2.9-8.4,5.356" transform="translate(-268.266 -1180.605)" fill="#191818"/>
    <path id="Trazado_835098" data-name="Trazado 835098" d="M333.852,1457.878a7.874,7.874,0,0,1,1.7-.554c3.247-.569,6.424-.891,9.127-2.978a2.674,2.674,0,0,0,1.174-1.9,1.18,1.18,0,0,1,.392.372s1.94,2.9-8.4,5.356l-1.453-.083c-.5-.077-.492.7-.558.728a15.811,15.811,0,0,1-3.441,1.091s-2.687-.349-2.976-1.164l.093-1.215a5.188,5.188,0,0,0,4.339.349" transform="translate(-268.266 -1182.811)" fill="#100f0f"/>
    <path id="Trazado_835099" data-name="Trazado 835099" d="M100.947,1449.312l-1.453-.084c-.5-.077-.492.7-.56.728a15.885,15.885,0,0,1-3.439,1.091s-2.687-.35-2.974-1.165l.378-4.986c3-.252,6.122-.831,6.122-.831l6.583-.926c3.168-.33,3.743.816,3.743.816s1.94,2.9-8.4,5.356" transform="translate(-75.345 -1175.185)" fill="#191818"/>
    <path id="Trazado_835100" data-name="Trazado 835100" d="M96.951,1451.228a7.926,7.926,0,0,1,1.7-.554c3.248-.569,6.424-.891,9.128-2.979a2.673,2.673,0,0,0,1.174-1.9,1.18,1.18,0,0,1,.392.372s1.94,2.9-8.4,5.356l-1.453-.084c-.5-.077-.492.7-.56.728a15.87,15.87,0,0,1-3.439,1.091s-2.687-.35-2.974-1.165l.091-1.214a5.19,5.19,0,0,0,4.338.349" transform="translate(-75.346 -1177.396)" fill="#100f0f"/>
    <path id="Trazado_835101" data-name="Trazado 835101" d="M95.6,1220.476c1.079-1.286,4.617-48.57,4.617-48.57.587-7.268-11.5-4.217-11.5-4.217-1.76,7.237-1.476,8.6-2.028,17.577-.219,3.547.346,32.92.215,35.179,0,0,5.61,3.716,8.7.03" transform="translate(-70.553 -950.401)" fill="#002d58"/>
    <path id="Trazado_835102" data-name="Trazado 835102" d="M99.815,896.8s7.257,12.356,2.791,20.434-23.282-.713-22.125-10.068c1.269-10.259,10.562-14.7,19.334-10.366" transform="translate(-65.499 -728.968)" fill="#1a3c76"/>
    <path id="Trazado_835103" data-name="Trazado 835103" d="M104.691,806.718c1.179,4.194,6.041,20.2,6.041,20.2-13.324,12.565-30.52,2.6-30.694.7-.207-2.274,2.33-10.955,2.791-20.319,0,0,4.745-7.307,21.862-.583" transform="translate(-65.17 -654.642)" fill="#f39672"/>
    <path id="Trazado_835104" data-name="Trazado 835104" d="M161.325,958.529c-1.414-13.79-11.237-48.965-11.237-48.965s-2.871-2.643-11-.578c-8.153,2.071-9.032,12.681-9.2,12.031,0,0,9.463,22.264,22.053,41.881,0,0,6.082,3.114,9.388-4.368" transform="translate(-105.771 -739.598)" fill="#1a3c76"/>
    <path id="Trazado_835105" data-name="Trazado 835105" d="M261.474,1216.444c-.239-1.662-12.5-51.068-12.5-51.068-2.887-6.093-11.176.323-11.176.323a52.509,52.509,0,0,0,3,18.287c1.127,3.37,11.552,33.881,12.278,36.023,0,0,6.161,1.953,8.4-3.565" transform="translate(-193.652 -946.895)" fill="#1a3c76"/>
    <path id="Trazado_835106" data-name="Trazado 835106" d="M40.08,635.269s-1.318,22.191-.477,31.15c0,0,0,4.071,7.17,6.112,0,0,2.608-24.706,4.732-35.736,0,0-4.235-8.18-11.425-1.525" transform="translate(-32.022 -515.213)" fill="#e28262"/>
    <path id="Trazado_835107" data-name="Trazado 835107" d="M51.171,629.246a5.8,5.8,0,0,1-7.6-3.024,5.725,5.725,0,0,1,3.057-7.533,5.806,5.806,0,0,1,7.6,3.026,5.724,5.724,0,0,1-3.057,7.532" transform="translate(-35.106 -503.458)" fill="#e28262"/>
    <path id="Trazado_835108" data-name="Trazado 835108" d="M42.393,612.879a7.606,7.606,0,0,0-5.522,7.291l-.848,21.872a20.516,20.516,0,0,0,12.018,2.885s7.825-29.21-5.648-32.049" transform="translate(-29.336 -499.103)" fill="#ffcd64"/>
    <path id="Trazado_835109" data-name="Trazado 835109" d="M132.225,538.08s.046,7.811.729,15.593l-10.305-1.707a7.626,7.626,0,0,0-.615-6.73Z" transform="translate(-99.379 -438.19)" fill="#f39672"/>
    <path id="Trazado_835110" data-name="Trazado 835110" d="M59.637,607.751c-2.588,1.891-2.885,6.414-1.961,9.238,1.061,3.245,1.482,7.385,2.545,12.077,1.439,6.358,2.415,11.255,4.019,17.569,1.328,5.222,22.312,1.014,22.312,1.014l7.522-25.7s1.294-6.709-4.784-8.942a90.848,90.848,0,0,0-11.09-5.045,20.225,20.225,0,0,0-9.888-1.272,49.136,49.136,0,0,0-8.675,1.06" transform="translate(-46.58 -493.975)" fill="#f39672"/>
    <path id="Trazado_835111" data-name="Trazado 835111" d="M156.366,892.974a15.828,15.828,0,0,1,0,15.284c-4.466,8.079-18.1,5.134-18.14-5.33-.04-10.337,9.368-14.289,18.14-9.955" transform="translate(-112.565 -725.787)" fill="#1a3c76"/>
    <path id="Trazado_835112" data-name="Trazado 835112" d="M68.457,607.168a49.138,49.138,0,0,0-8.675,1.06c-2.693,1.968-2.645,5.833-2.126,8.757.993,5.592,2,11.241,2.519,16.9.231,2.507.855,7.608,1.041,10.116.182,2.435.952,3.776,3.444,5.063,1.894.977,3.3.2,5.365.256a103.887,103.887,0,0,0,15.627-1.074c.219-.026,8.335,5.448,5.664,1.42l2.9-27.24s1.294-6.709-4.784-8.942a48.881,48.881,0,0,0-8.962-4.263s-8.152.207-12.016-2.053" transform="translate(-46.726 -494.453)" fill="#ffcd64"/>
    <path id="Trazado_835113" data-name="Trazado 835113" d="M111.761,484.9l.44-1.7s1.042-6.254,1.042-6.256a6.29,6.29,0,0,0-.2-2.575,6.35,6.35,0,0,1-.32-2.64c.6-4.48-1.912-6.707-1.912-6.707-2.921-3.837-8.995-3.3-9-3.3-3.151.477-5.9,1.78-7.469,4.654A11.717,11.717,0,0,0,93,475.077a17.615,17.615,0,0,0,5.077,7.944c1.514,1.447,3.061,1.625,5.041,2.349a20.526,20.526,0,0,0,5.484.808c.769,0,2.908-.3,3.161-1.274" transform="translate(-75.448 -375.992)" fill="#f3906b"/>
    <path id="Trazado_835114" data-name="Trazado 835114" d="M106.4,461.751l-.968,3.884a1.888,1.888,0,0,0-1.4,2.364l.35,3.208-.873.335c.073-1.284-1.709-1.3-1.709-1.3-1.3-.075-1.524,1.036-1.449,2.1.193,2.776-.817,7.183-3.144,7.959-.919.306-2.651.625-2.942-.619-.355-1.522-3.238-4.545-3.238-4.545-3.463-3.353-4.331-9.077-2.694-13.451a10.584,10.584,0,0,1,2.486-3.674,13.418,13.418,0,0,1,7.744-3.455s3.948-.482,6.167,1.077a12.835,12.835,0,0,1,2.866,2.621s.841,1.783-1.2,3.5" transform="translate(-71.284 -370.115)" fill="#351709"/>
    <path id="Trazado_835115" data-name="Trazado 835115" d="M157.473,541.88a1.6,1.6,0,0,1-1.013.381,2.35,2.35,0,0,1-2.29-2.271,2.154,2.154,0,0,1,1.886-2.472,2.032,2.032,0,0,1,1.47.561,2.924,2.924,0,0,1,.591,2.355,2.2,2.2,0,0,1-.645,1.447" transform="translate(-125.542 -437.73)" fill="#f3906b"/>
    <path id="Trazado_835116" data-name="Trazado 835116" d="M161.152,542.058c-.113-.684-1.463.062-1.228.437a2.1,2.1,0,0,0,.592.508,1.017,1.017,0,0,1,.476.724c.008.041.022.16-.016.19-.172.137-.8-.5-.944-.631a1.158,1.158,0,0,1-.239-1.091.7.7,0,0,1,.733-.565c.313,0,.634,0,.64.39,0,.008-.01.074-.015.038" transform="translate(-130.094 -441.081)" fill="#e47a5d"/>
    <path id="Trazado_835117" data-name="Trazado 835117" d="M161.949,547.607c.136-.156.282-.044.436.054a.654.654,0,0,1,.275.39,1.62,1.62,0,0,1-.1,1.16.87.87,0,0,1-.723.445c-.419.015-.568-.348-.606-.7-.01-.094-.034-.32.057-.384s.178.082.249.145a.6.6,0,0,0,.364.11.763.763,0,0,0,.607-.318.434.434,0,0,0,.055-.112c.014.232.005.284-.027.158a.581.581,0,0,0-.089-.158c-.107-.155-.278-.255-.4-.4-.056-.067-.17-.31-.1-.389" transform="translate(-131.291 -445.885)" fill="#e47a5d"/>
    <path id="Trazado_835118" data-name="Trazado 835118" d="M438.259,877.156c-.534-.79-.067-1.2-1.148-1.237-1.231-.041-2.335-.649-3.17-.625-1.456.041-6.953,1.323-3.264,4.47.859.734,3.316,4.019,5.017,3.046,2.513-1.44,1.659-.909,2.936-4.036Z" transform="translate(-349.706 -712.803)" fill="#f39672"/>
    <path id="Trazado_835119" data-name="Trazado 835119" d="M196.329,654.866a6.452,6.452,0,1,0,8.915-1.941,6.453,6.453,0,0,0-8.915,1.941" transform="translate(-159.049 -530.881)" fill="#f39672"/>
    <path id="Trazado_835120" data-name="Trazado 835120" d="M105.151,785.587c.837,8.8,1.379,30.344,1.379,30.344-3.123,8.332-32.907,1.3-33.08-.6-.208-2.274.4-18.285.863-27.648a35.908,35.908,0,0,1,30.838-2.1" transform="translate(-59.781 -637.692)" fill="#ffcd64"/>
    <path id="Trazado_835121" data-name="Trazado 835121" d="M188.351,637.258c7.845,2.208,8.82,11.7,8.82,11.7l3.542,15.592s-8.913,7.069-14.346,5.08a115.742,115.742,0,0,1-5.815-23.5s.057-8.617,7.8-8.873" transform="translate(-147.034 -518.957)" fill="#ffcd64"/>
    <path id="Trazado_835122" data-name="Trazado 835122" d="M96.084,448.6c-.886.715-2.015.245-3.028.01-1.381,1.621.272,3.24-1.821,4.026a23.182,23.182,0,0,1-3.975.733c-.981.158-1.972-.069-2.673.664-.759.793-.04,3.262-.937,3.734-1.568.828-2.8-3.464-4.8-3.124-1.7.289-2.007,2.995-1.41,4.326a2.1,2.1,0,0,0-.447-.3c-.813-2.119-1.85-2.156-2.747-3.663-1.39-2.336-1.155-1.778-1.431-4.021,0-.02.274-.982.277-.995.652-2.387,1.768-2.794,2.3-3.807a20.1,20.1,0,0,1,2.163-2.761,27.651,27.651,0,0,1,1.772-2.813,8.3,8.3,0,0,1,4.676-1.98c1.726-.227,3.368.844,5.078.544.7-.123,1.358-.76,2.062-.72.858.049,1.453.9,2.195,1.234,1.379.621,3.553.369,4.731,1.341,1.3,1.073,1.023,2.624.221,3.939-.45.737-1.362,1.161-1.767,1.926-.112.211-.417,1.689-.446,1.711" transform="translate(-59.301 -357.055)" fill="#351709"/>
    <path id="Trazado_835123" data-name="Trazado 835123" d="M1447.574,457.2a242.741,242.741,0,0,0-12.8,26.6s.1,2.682,2.08,1.853,17.916-23.406,17.932-25.462c.042-5.283-7.212-2.995-7.212-2.995" transform="translate(-1168.421 -371.925)" fill="#f39672"/>
    <path id="Trazado_835124" data-name="Trazado 835124" d="M1397.069,598.26l1.722-.586s-2.916,1.794-4.256,1.083c0,0-.312-.082-.02-.575a25.261,25.261,0,0,0,3.895-1.7,18.479,18.479,0,0,1-4.6,1.941s-.931-.268-.24-.987c-.7-.048-.3-.63-.3-.63a11.463,11.463,0,0,1,1.662-1.312,46.921,46.921,0,0,0,3.8-3.025s-2.2-.631-1.813-1.807l3.28.613,3.06.85.875,1.622-2.083,2.667a17.353,17.353,0,0,1-3.7,2.339s-4.238,1.15-1.284-.494" transform="translate(-1134.529 -481.011)" fill="#f39672"/>
    <g id="Grupo_1084030" data-name="Grupo 1084030" transform="translate(135.862 146.317)" style="isolation: isolate">
      <g id="Grupo_1084029" data-name="Grupo 1084029">
        <g id="Grupo_1084028" data-name="Grupo 1084028" clip-path="url(#clip-path-2)">
          <path id="Trazado_835125" data-name="Trazado 835125" d="M1025.545,844.073a1.823,1.823,0,0,1,.921-1.506,3.14,3.14,0,0,1,.311-.183c.034-.018.069-.034.1-.051.078-.037.156-.074.238-.108.021-.008.039-.018.06-.026s.038-.013.056-.019c.13-.05.263-.1.4-.137l.007,0s0,0,0,0c.14-.041.285-.077.433-.11.017,0,.034-.011.052-.014l.066-.012q.258-.056.526-.1l.017,0,.057-.009c.179-.028.359-.054.542-.079l.072-.009c.2-.026.4-.048.594-.071l.034,0,.135-.016.4-.045q.28-.032.556-.068l.112-.013c.184-.025.366-.051.544-.08.1-.015.19-.031.284-.048q.288-.054.578-.118l.108-.024q.208-.046.412-.1l.013,0c.139-.035.276-.073.412-.113l.126-.037c.094-.028.188-.058.28-.089l.137-.046c.093-.031.183-.065.272-.1l.113-.042c.118-.047.234-.1.344-.146a9.707,9.707,0,0,0,1.527-.995l-.111,12.726a9.672,9.672,0,0,1-1.527.995c-.111.051-.228.1-.346.147l-.026.011-.078.028c-.092.035-.185.069-.281.1l-.133.045q-.138.046-.28.088l-.086.027c-.015,0-.029.008-.044.011-.135.04-.271.077-.409.113l-.018,0c-.134.035-.271.066-.408.1l-.045.01-.067.013c-.192.042-.384.081-.575.116-.078.015-.157.028-.237.042l-.05.008c-.177.028-.356.054-.538.078l-.121.016c-.178.023-.357.044-.538.066h-.017l-.382.044-.191.021c-.2.023-.392.045-.587.071l-.07.009c-.183.024-.365.049-.544.079l-.073.011c-.181.03-.356.065-.529.1l-.113.025c-.149.034-.3.07-.436.112h0q-.209.063-.407.139l-.115.045c-.082.034-.161.069-.239.108l-.1.05c-.108.058-.213.117-.312.183a1.825,1.825,0,0,0-.921,1.506Z" transform="translate(-970.932 -830.01)" fill="#003c74"/>
          <path id="Trazado_835126" data-name="Trazado 835126" d="M758.027,870.374c-.005-.024-.01-.049-.015-.073s-.01-.044-.014-.066a.172.172,0,0,0,0-.022q-.008-.051-.012-.1c0-.026-.006-.051-.008-.076s0-.071,0-.107c0-.02,0-.039,0-.061v-.025l.112-12.727c0,.029,0,.058,0,.087s0,.071,0,.107.006.051.009.075.007.067.012.1.011.059.017.088.009.048.015.074.016.06.025.09.013.046.02.069.009.023.013.036a2.088,2.088,0,0,0,.108.257.015.015,0,0,1,0,.006,2.221,2.221,0,0,0,.14.233c.009.012.016.025.025.037a2.49,2.49,0,0,0,.172.214l.054.058.06.061.073.068.067.06.065.053c.04.032.08.062.122.092.021.016.043.032.065.046.047.033.1.064.147.095l.057.035c.045.027.092.053.14.078l.064.035c.07.035.142.07.218.1.145.061.295.115.449.165.051.016.105.028.158.044.105.03.21.061.318.087l.087.018c.122.028.245.053.371.075l.151.025c.117.019.236.036.355.051l.118.015c.155.018.312.034.472.046.1.008.2.014.3.019.085.006.169.012.254.016.1.006.207.008.31.012l.25.009c.2.006.4.009.6.011h.016c.236,0,.472.006.709.008l.451.006.223,0,.383.008.1,0,.167.006.29.011.27.015.279.018.094.007v0c.1.008.207.018.309.029l.063.006c.134.014.267.03.4.05l.046.009c.195.028.386.062.573.1l.017,0,.019,0,.026.006.04.011.033.01.053.017.041.013.067.021.043.014.079.026.049.016.088.029.052.018.1.033.056.019.1.035.065.023.094.034.078.028.092.034.083.03.1.035.084.031.1.037.085.033.1.036.084.034.095.038.082.034.1.042.073.03c.056.024.111.048.165.073.08.035.156.07.228.105l-.112,12.726-.227-.105-.166-.072-.055-.023-.117-.05-.068-.027-.109-.044-.076-.03-.1-.041-.08-.03-.1-.038-.083-.031-.1-.036-.081-.029-.1-.035-.076-.027-.092-.033-.082-.029-.078-.027-.081-.028-.073-.025-.072-.025-.07-.022-.063-.021-.064-.021-.057-.018-.054-.018-.05-.015a.322.322,0,0,0-.045-.013l-.038-.012-.037-.011-.027-.007-.036-.009c-.187-.042-.379-.075-.575-.1-.145-.021-.291-.042-.439-.058l-.075-.007q-.195-.02-.394-.035l-.276-.018-.273-.014-.285-.011-.272-.009-.372-.007-.234,0-.447,0c-.194,0-.389,0-.584-.007h-.147q-.3,0-.591-.012h-.029l-.244-.009-.292-.011c-.088,0-.175-.011-.263-.017l-.291-.018-.032,0q-.224-.019-.443-.044l-.111-.013-.22-.028v0c-.048-.007-.094-.016-.141-.024l-.149-.025c-.125-.021-.249-.048-.372-.075l-.088-.018-.025-.005c-.1-.025-.2-.054-.3-.083-.051-.014-.1-.027-.154-.043-.154-.05-.3-.1-.449-.165-.075-.034-.148-.069-.218-.1l-.072-.039c-.044-.024-.088-.048-.13-.072l-.016-.009-.046-.031c-.048-.029-.1-.06-.141-.091-.024-.016-.046-.033-.068-.049-.041-.03-.081-.06-.12-.091-.013-.01-.027-.019-.039-.03v0l-.028-.025-.065-.057c-.025-.024-.051-.046-.075-.07s-.04-.04-.06-.06l-.038-.038a.212.212,0,0,0-.015-.019,2.494,2.494,0,0,1-.173-.215s-.008-.009-.01-.014-.009-.016-.014-.022a2.4,2.4,0,0,1-.141-.233v0a.011.011,0,0,1,0-.005,2.051,2.051,0,0,1-.107-.253c0-.008-.007-.014-.009-.022v0l0-.017c-.007-.021-.013-.044-.02-.068s-.018-.06-.025-.091" transform="translate(-753.119 -844.318)" fill="#003c74"/>
          <path id="Trazado_835127" data-name="Trazado 835127" d="M731.961,943.33l-.112,12.727,54.72,23.025.111-12.727Z" transform="translate(-731.849 -914.526)" fill="#004b8f"/>
          <path id="Trazado_835128" data-name="Trazado 835128" d="M1026.722,941.007l-.111,12.727,42.686-28.8.111-12.727Z" transform="translate(-971.891 -889.178)" fill="#003c74"/>
          <path id="Trazado_835129" data-name="Trazado 835129" d="M829.858,811.2l-22.638-9.525a10.871,10.871,0,0,0-1.768,1.343c-1.058,1.393.307,3.294-1.468,4.492-2.186,1.474-7.562,1.152-12.01-.719q-.188-.079-.37-.161c-4.178-1.863-5.852-4.466-3.729-5.9,1.358-.917,3.7-.858,5.6-1.209a12.432,12.432,0,0,0,2.8-.816,9.713,9.713,0,0,0,1.527-.995l-22.663-9.537L757.459,800.1c-.366-.123-.759-.286-1.094-.435-.4-.177-.714-.337-.8-.388a5.167,5.167,0,0,1-1.568-1.5c-.673-1-.606-2.219-2.259-2.956-2.886-1.215-7.968-.272-11.439,2.069-3.431,2.315-4,5.132-1.3,6.333,2.368,1,5.929.294,8.562.874a20.873,20.873,0,0,1,2.323.851c.08.035.156.07.228.105l-17.66,11.915L787.172,840Z" transform="translate(-732.341 -788.172)" fill="#005b9c"/>
        </g>
      </g>
    </g>
    <path id="Trazado_835130" data-name="Trazado 835130" d="M1153.231,1566.34c0,7.681-13.993,13.906-31.255,13.906s-31.254-6.225-31.254-13.906,13.993-13.906,31.254-13.906,31.255,6.226,31.255,13.906" transform="translate(-888.239 -1264.238)" fill="#98a7d3"/>
    <path id="Trazado_835131" data-name="Trazado 835131" d="M1162.572,1612.223s-3.315-.606-2.382,2.1c0,0,7.74,3.324,13.146,2.574a3.385,3.385,0,0,0,3.2-4.25l.063-3.35-5.1.966.289,3.183Z" transform="translate(-944.676 -1310.545)" fill="#e28262"/>
    <path id="Trazado_835132" data-name="Trazado 835132" d="M1155.631,1623.857a2.145,2.145,0,0,1-.508,1.437c-1.334,1.538-3.957,1.584-5.8,1.466a62.407,62.407,0,0,1-8.829-1.235c-.632-.133-.807-.34-.814-.526a2.578,2.578,0,0,1,1.986-1.567l-2.822-.361a7.112,7.112,0,0,0-4.394.9c-.721,2.061,2.789,3.436,2.789,3.436a57.093,57.093,0,0,0,8.218,2.294s9.907,2.337,11.1-.711Z" transform="translate(-923.767 -1321.756)" fill="#411423"/>
    <path id="Trazado_835133" data-name="Trazado 835133" d="M1268.59,1587.418s-3.315-.606-2.382,2.1c0,0,7.74,3.324,13.146,2.575a3.385,3.385,0,0,0,3.2-4.25l.063-3.35-5.1.964.29,3.184Z" transform="translate(-1031.012 -1290.345)" fill="#e28262"/>
    <path id="Trazado_835134" data-name="Trazado 835134" d="M1261.648,1599.052a2.14,2.14,0,0,1-.508,1.436c-1.334,1.539-3.957,1.585-5.8,1.467a62.6,62.6,0,0,1-8.829-1.235c-.632-.133-.807-.34-.815-.526a2.578,2.578,0,0,1,1.987-1.567l-2.822-.36a7.109,7.109,0,0,0-4.394.9c-.721,2.06,2.789,3.434,2.789,3.434a57.133,57.133,0,0,0,8.218,2.3s9.907,2.336,11.1-.711Z" transform="translate(-1010.104 -1301.555)" fill="#411423"/>
    <path id="Trazado_835135" data-name="Trazado 835135" d="M1274.82,1076.828a9.46,9.46,0,1,0,9.461-9.461,9.462,9.462,0,0,0-9.461,9.461" transform="translate(-1038.161 -869.22)" fill="#003273"/>
    <path id="Trazado_835136" data-name="Trazado 835136" d="M1289.972,1158.194s-.131,2.379-4.4,2.437c0,0-4.044,1.379-5.79-3.887-6.881-20.739-5.062-42.382-5.062-42.382s9.715-5.411,18.763-1.71c0,0-1.463,27.223-3.506,45.542" transform="translate(-1037.898 -905.044)" fill="#003273"/>
    <path id="Trazado_835137" data-name="Trazado 835137" d="M1302.938,1355.844s3.333,44.824,3.644,46.426a5.56,5.56,0,0,0,6.125-.057c-.016-2.2,2.38-20.528,2.628-23.971.425-5.916,1.136-13.391-2.6-21.893Z" transform="translate(-1061.059 -1104.143)" fill="#003273"/>
    <path id="Trazado_835138" data-name="Trazado 835138" d="M1170.057,1154.776s-.912,2.2-4.963.839c0,0-4.273-.038-4.176-5.584.378-21.848,9.953-44.49,9.953-44.49s10.782-1.03,18.095,5.459c0,0-10.912,27.168-18.909,43.776" transform="translate(-945.403 -900.258)" fill="#003d8d"/>
    <path id="Trazado_835139" data-name="Trazado 835139" d="M1213.485,1073.685a9.461,9.461,0,1,0,12.06-5.792,9.46,9.46,0,0,0-12.06,5.792" transform="translate(-987.775 -869.211)" fill="#003d8d"/>
    <path id="Trazado_835140" data-name="Trazado 835140" d="M1243.925,1033.211c-1.143-10.52-6.421-15.4-6.421-15.4l-18.287-2.31s-5.042,8.772-5.568,17.713c2.185,5.963,9.977,7.7,9.977,7.7l5.917,1.756s13.408-2.037,14.383-9.456" transform="translate(-988.345 -826.98)" fill="#003d8d"/>
    <path id="Trazado_835141" data-name="Trazado 835141" d="M1163.876,1348.627s9.071,47.088,9.616,48.625c-.239-.116,4.287,2.08,6.291-.754-.342-2.172-.533-26.089-.8-29.531-.454-5.915-.392-11.434-5.348-19.288,0,0-12.384-8.866-9.762.948" transform="translate(-947.516 -1094.503)" fill="#003d8d"/>
    <path id="Trazado_835142" data-name="Trazado 835142" d="M1340.353,924.779s-3.331,3.923-9.957,13.394l1.145,1.941s11.349-5.716,14.969-12.134Z" transform="translate(-1083.42 -753.102)" fill="#e28262"/>
    <path id="Trazado_835143" data-name="Trazado 835143" d="M1324.173,799.916s8.542,18.641,13.673,17.932c0,0,1.77.111,2.125-1.223,0,0,3.623-3.213-11.443-26.392a4.643,4.643,0,0,0-4.488-1.46s-4.576,3.023.132,11.144" transform="translate(-1076.62 -642.275)" fill="#e28262"/>
    <rect id="Rect치ngulo_385661" data-name="Rect치ngulo 385661" width="9.235" height="9.815" transform="translate(233.738 143.05)" fill="#f5ae80"/>
    <path id="Trazado_835144" data-name="Trazado 835144" d="M1223.652,681.075l-.347-1.569s-.691-5.747-.691-5.748a5.234,5.234,0,0,1,.342-2.335,5.3,5.3,0,0,0,.47-2.388,6.733,6.733,0,0,1,2.3-6.008c3.152-3.344,9.224-2.544,9.226-2.544,3.138.6,5.828,1.924,7.241,4.622a9.794,9.794,0,0,1,.865,7.985,16.221,16.221,0,0,1-5.55,6.971c-1.6,1.24-3.167,1.323-5.2,1.881a22.7,22.7,0,0,1-5.555.453c-.772-.036-2.9-.421-3.1-1.322" transform="translate(-995.627 -537.803)" fill="#f39672"/>
    <path id="Trazado_835145" data-name="Trazado 835145" d="M1231.446,669.77c.456-.647,2.115-1.046,2.116-1.046,2,0,1.742,2.676,1.932,3.835.062.378.134.765.22,1.151.955,3.4,3.814,3.372,6.258,3.784.09-.053.186-.107.286-.162a9.779,9.779,0,0,1,1.849-3.075c3.67-3.173,4.867-8.874,3.47-13.361a10.63,10.63,0,0,0-2.29-3.831,13.5,13.5,0,0,0-7.584-3.91c-2.841-.535-13.005.843-10.232,7.016,0,0,4.182,4.825,3.975,9.6" transform="translate(-999.215 -531.817)" fill="#2c130d"/>
    <path id="Trazado_835146" data-name="Trazado 835146" d="M1250.965,737a1.923,1.923,0,0,1,2.263-1.324,1.513,1.513,0,0,1,1.106,1.632c-.015.165-.051.328-.067.493a3.475,3.475,0,0,1-2.147,2.432" transform="translate(-1018.734 -599.049)" fill="#f7ae80"/>
    <path id="Trazado_835147" data-name="Trazado 835147" d="M1255.647,739.932a1.02,1.02,0,0,0-.447-.121c-.673-.043-1.216.995-.542,1.18a.383.383,0,0,1-.009.533c-.232.252-.543.614-.474.969.043.21.276.323.488.375.17.042.2-.09.068-.154a.76.76,0,0,1-.257-.21c-.006-.012-.013-.023-.02-.036a.1.1,0,0,1-.016-.027.225.225,0,0,1-.007-.154.416.416,0,0,0,.522-.006c.128-.154.031-.394.074-.57a1.33,1.33,0,0,1,.156-.348.359.359,0,0,0-.248-.6,1.542,1.542,0,0,0-.2.015c-.282-.146.033-.57.2-.638a.542.542,0,0,1,.587.1.836.836,0,0,1,.187.595,1.961,1.961,0,0,1-.183.712c-.061.127-.139.276-.2.4-.07.144.1.208.168.062a4.213,4.213,0,0,0,.481-1.172.891.891,0,0,0-.329-.91" transform="translate(-1021.341 -602.471)" fill="#dc9471"/>
    <path id="Trazado_835148" data-name="Trazado 835148" d="M1250.965,736.185s.081-.115.212-.323a2.7,2.7,0,0,1,.279-.322,2.2,2.2,0,0,1,.426-.331,1.774,1.774,0,0,1,.575-.208,1.485,1.485,0,0,1,.657.045,1.784,1.784,0,0,1,.333.141,1.553,1.553,0,0,1,.266.2,1.27,1.27,0,0,1,.351.6,1.8,1.8,0,0,1,.01.743l-.025.2,0,.026v0c0-.012-.005.03,0-.024v.005l0,.012-.009.05-.021.1a2.231,2.231,0,0,1-.1.356,2.875,2.875,0,0,1-.313.623,3.716,3.716,0,0,1-.4.5,4.541,4.541,0,0,1-.76.631c-.2.133-.327.2-.327.2a2.346,2.346,0,0,0,.368-.121,3.817,3.817,0,0,0,.9-.513,3.063,3.063,0,0,0,.5-.493,2.649,2.649,0,0,0,.417-.686,2.557,2.557,0,0,0,.135-.4l.026-.1.012-.049,0-.013.007-.04,0-.026.03-.2a2.213,2.213,0,0,0-.009-.9,1.736,1.736,0,0,0-.495-.806,2.318,2.318,0,0,0-.182-.148l-.213-.118a1.887,1.887,0,0,0-.406-.144,1.692,1.692,0,0,0-.832.011,1.827,1.827,0,0,0-.653.327,1.864,1.864,0,0,0-.407.44,2.853,2.853,0,0,0-.228.392c-.087.228-.131.363-.131.363" transform="translate(-1018.734 -598.232)" fill="#dc9471"/>
    <path id="Trazado_835149" data-name="Trazado 835149" d="M1252.273,755.753a.56.56,0,1,1-.56-.56.56.56,0,0,1,.56.56" transform="translate(-1018.888 -614.998)" fill="#fff"/>
    <path id="Trazado_835150" data-name="Trazado 835150" d="M1251.848,756.051a.442.442,0,0,1-.442-.444.436.436,0,0,1,.308-.415.559.559,0,1,0,.56.56c0-.014,0-.027,0-.04a.437.437,0,0,1-.421.338" transform="translate(-1018.888 -614.998)" fill="#e8e8e8"/>
    <path id="Trazado_835151" data-name="Trazado 835151" d="M1230.366,837.557c-.036-.052-10.194-14.628-10.194-14.628-.475-2.15.6-6.427.6-6.427l3.258-22.416c-.386-2.569-.564-5.83-4.041-5.247a21.536,21.536,0,0,0-4.449,1.24c.443,2.082-3.15,3.419-3.15,3.419-4.942,2.135-6.085.728-6.085.728a73.323,73.323,0,0,0-6.918,3.883c-1.2.987-1.925,2.524-1.548,5.11l3.557,21.246-.626,5.277-6.5,16.475a13.969,13.969,0,0,1,6.331-.756c2.021.242,3.762,1.433,5.768,1.656,3.032.333,5.283-.761,7.571-2.211a36.515,36.515,0,0,0,8.764-3.08h.191c2.268.012,4.837-.027,6.51-1.8.352-.374,1.39-1.851.961-2.467" transform="translate(-972.564 -642.343)" fill="#411423"/>
    <path id="Trazado_835152" data-name="Trazado 835152" d="M1199.193,872.922l.059-25.809c.628-7.072,4.141-8.2,4.141-8.2,7.1-.832,6.005,12.323,6.005,12.323l-2.964,22.234" transform="translate(-976.573 -683.144)" fill="#f39672"/>
    <path id="Trazado_835153" data-name="Trazado 835153" d="M1042.484,1070.334c3.256-1.743,3.548-2.305,4.122-3.125,2.475-3.517-2.529-3.406-3.789-3.12-.723.165-.768,1.885-3.01,3.983,0,0-3.525,2.045-4.393,1.9,0,0-.9.129-.9.78,0,0,2.475,1.463,7.974-.418" transform="translate(-842.462 -866.446)" fill="#f39672"/>
    <path id="Trazado_835154" data-name="Trazado 835154" d="M1103.5,1003.756l-22.106,12.1c-.955,2.66.273,3.042.273,3.042l17.115-4.924c7.306-1.956,10.2-5.023,10.2-5.023s3.195-2.214-.883-5.509c0,0-1.857-1.469-4.6.314" transform="translate(-880.348 -816.698)" fill="#f39672"/>
    <path id="Trazado_835155" data-name="Trazado 835155" d="M1236.793,669.558c.573,4.28-.073,9.946,2.06,14.624.949,2.082,2,3.115,1.427,5.531-.466,1.977-1.4,3.843-1.908,5.89-1.12,4.519.4,8.934,5.668,7.3,2.525-.785,2.808-.772,5.107.12a6.682,6.682,0,0,0,5.667.023c2.977-1.451,2.081-3.642,3.749-5.837,1.271-1.673,3.068-1.632,4.026-3.879,1.156-2.713-.221-4.161-1.63-6.463a8.466,8.466,0,0,1-1.218-6.869c.405-2.43-.2-3.657-1-5.891-.825-2.289-.465-4.283-.856-6.578-.773-4.538-3.253-10.7-8.007-12.029-2.33-.652-5.341-1.162-7.583-.339-3.054,1.119-6.454,2.313-6.322,6.068a62.035,62.035,0,0,0,.818,8.334" transform="translate(-1006.524 -533.185)" fill="#2c130d"/>
    <path id="Trazado_835156" data-name="Trazado 835156" d="M1063.407,1057.581s.621,1.812-1.635,1.368l-2.208-1.682a.868.868,0,0,1-.443-1.022s.264-.374.969,0Z" transform="translate(-862.462 -860.026)" fill="#f39672"/>
  </g>
</svg>
