<svg xmlns="http://www.w3.org/2000/svg" xmlns:xlink="http://www.w3.org/1999/xlink" width="400" height="446.6" viewBox="0 0 400 446.6">
  <defs>
    <clipPath id="clip-path">
      <rect id="Rectángulo_385075" data-name="Rectángulo 385075" width="257.028" height="434.918" fill="none"/>
    </clipPath>
    <clipPath id="clip-path-3">
      <rect id="Rectángulo_385063" data-name="Rectángulo 385063" width="38.608" height="38.608" fill="none"/>
    </clipPath>
    <clipPath id="clip-path-4">
      <rect id="Rectángulo_385064" data-name="Rectángulo 385064" width="14.76" height="13.523" fill="none"/>
    </clipPath>
    <clipPath id="clip-path-5">
      <rect id="Rectángulo_385065" data-name="Rectángulo 385065" width="4.001" height="3.956" fill="none"/>
    </clipPath>
    <clipPath id="clip-path-6">
      <rect id="Rectángulo_385066" data-name="Rectángulo 385066" width="50.634" height="11.824" fill="none"/>
    </clipPath>
    <clipPath id="clip-path-7">
      <rect id="Rectángulo_385067" data-name="Rectángulo 385067" width="25.595" height="8.916" fill="none"/>
    </clipPath>
    <clipPath id="clip-path-8">
      <rect id="Rectángulo_385068" data-name="Rectángulo 385068" width="3.989" height="3.961" fill="none"/>
    </clipPath>
    <clipPath id="clip-path-9">
      <rect id="Rectángulo_385069" data-name="Rectángulo 385069" width="51.136" height="7.097" fill="none"/>
    </clipPath>
    <clipPath id="clip-path-10">
      <rect id="Rectángulo_385070" data-name="Rectángulo 385070" width="25.501" height="6.642" fill="none"/>
    </clipPath>
    <clipPath id="clip-path-11">
      <rect id="Rectángulo_385071" data-name="Rectángulo 385071" width="46.606" height="45.179" fill="none"/>
    </clipPath>
    <clipPath id="clip-path-12">
      <rect id="Rectángulo_385072" data-name="Rectángulo 385072" width="210.037" height="199.544" fill="none"/>
    </clipPath>
    <clipPath id="clip-path-13">
      <rect id="Rectángulo_385073" data-name="Rectángulo 385073" width="201.135" height="190.527" fill="none"/>
    </clipPath>
  </defs>
  <g id="Grupo_1083318" data-name="Grupo 1083318" transform="translate(-600 -458.4)">
    <path id="Trazado_834978" data-name="Trazado 834978" d="M20,0H380a20,20,0,0,1,20,20V362a20,20,0,0,1-20,20H20A20,20,0,0,1,0,362V20A20,20,0,0,1,20,0Z" transform="translate(600 523)" fill="#cadeb4"/>
    <g id="Grupo_1083258" data-name="Grupo 1083258" transform="translate(682 458.4)">
      <g id="Grupo_1083257" data-name="Grupo 1083257" clip-path="url(#clip-path)">
        <g id="Grupo_1083256" data-name="Grupo 1083256">
          <g id="Grupo_1083255" data-name="Grupo 1083255" clip-path="url(#clip-path)">
            <path id="Trazado_833046" data-name="Trazado 833046" d="M19.091,421.461l-.507.505c-.008-13.174-.017-27.022-.025-41.279v-.531h.532l68.824-.016h13.86l-.546.545c.005-16.181.007-32.005.012-47.346v-.535h.535l83.268.06-.475.475c.046-29.659.087-55.807.121-77.406v-.356h.353l52.3.163,13.959.093,3.6.049.914.024a1.446,1.446,0,0,1,.307.025,1.313,1.313,0,0,1-.307.026l-.914.024-3.6.049-13.959.093-52.3.161.354-.354c.034,21.6.074,47.747.121,77.406v.474h-.476l-83.268.06.533-.534c.005,15.341.008,31.165.012,47.346v.545h-14.4l-68.824-.016.53-.531c-.008,14.257-.016,28.1-.023,41.279l0,.507h-.5" transform="translate(0.904 12.445)" fill="#263238"/>
            <path id="Trazado_833047" data-name="Trazado 833047" d="M135.816,54.693l9.165-4.391a32.7,32.7,0,1,1-1.586,11.609l0,.018Z" transform="translate(6.613 1.355)" fill="#fff"/>
            <path id="Trazado_833048" data-name="Trazado 833048" d="M135.816,54.7s.145.154.46.465l1.418,1.391,5.619,5.463a.112.112,0,0,0,.159,0,.107.107,0,0,0,.029-.056l0-.018-.224-.019a32.689,32.689,0,0,0,4.56,15.417,31.943,31.943,0,0,0,2.934,4.152,35.808,35.808,0,0,0,3.839,3.872,32.584,32.584,0,0,0,10.236,6.014,32.767,32.767,0,0,0,37.85-11.7,32.238,32.238,0,0,0,5.856-14.557l.255-2.012.071-2.017.035-1.006-.057-1-.122-2c-.064-.661-.2-1.313-.292-1.967a16.359,16.359,0,0,0-.365-1.943,29.9,29.9,0,0,0-1.111-3.761,32.551,32.551,0,0,0-20.321-20.023A32.836,32.836,0,0,0,162.1,30.752a35.811,35.811,0,0,0-4.747,2.709,42.8,42.8,0,0,0-3.945,3.221,32.52,32.52,0,0,0-8.533,13.6l.059-.067-6.824,3.346-1.728.856c-.384.191-.564.29-.564.29s.22-.092.622-.278l1.778-.824,6.813-3.188a.114.114,0,0,0,.059-.066,32.536,32.536,0,0,1,8.559-13.411,42.873,42.873,0,0,1,3.92-3.165,35.713,35.713,0,0,1,4.7-2.654,32.557,32.557,0,0,1,36.173,6,32.879,32.879,0,0,1,8.033,12.482,29.4,29.4,0,0,1,1.091,3.7,16.032,16.032,0,0,1,.359,1.912c.092.644.222,1.286.285,1.936l.12,1.964.056.986-.035.989-.069,1.985-.252,1.979a31.759,31.759,0,0,1-5.756,14.324,32.13,32.13,0,0,1-11.1,9.723A32.611,32.611,0,0,1,165,90.958a32.259,32.259,0,0,1-10.125-5.9,35.8,35.8,0,0,1-3.811-3.809,31.656,31.656,0,0,1-2.924-4.091,32.7,32.7,0,0,1-4.634-15.246.114.114,0,0,0-.225-.019l0,.018.189-.058c-2.462-2.311-4.359-4.09-5.657-5.307l-1.477-1.376c-.336-.309-.52-.471-.52-.471" transform="translate(6.613 1.346)" fill="#263238"/>
            <path id="Trazado_833049" data-name="Trazado 833049" d="M194.483,61.355a19.3,19.3,0,1,1-19.3-19.3,19.3,19.3,0,0,1,19.3,19.3" transform="translate(7.59 2.048)" fill="#ff725e"/>
            <g id="Grupo_1083224" data-name="Grupo 1083224" transform="translate(163.465 44.099)" opacity="0.3">
              <g id="Grupo_1083223" data-name="Grupo 1083223">
                <g id="Grupo_1083222" data-name="Grupo 1083222" clip-path="url(#clip-path-3)">
                  <path id="Trazado_833050" data-name="Trazado 833050" d="M194.483,61.355a19.3,19.3,0,1,1-19.3-19.3,19.3,19.3,0,0,1,19.3,19.3" transform="translate(-155.875 -42.051)"/>
                </g>
              </g>
            </g>
            <path id="Trazado_833051" data-name="Trazado 833051" d="M194.483,59.322a19.3,19.3,0,1,1-19.3-19.3,19.3,19.3,0,0,1,19.3,19.3" transform="translate(7.59 1.949)" fill="#ff725e"/>
            <path id="Trazado_833052" data-name="Trazado 833052" d="M187.814,59.026a12.931,12.931,0,1,1-12.93-12.93,12.931,12.931,0,0,1,12.93,12.93" transform="translate(7.886 2.245)" fill="#fff"/>
            <path id="Trazado_833053" data-name="Trazado 833053" d="M180.9,58.72a6.328,6.328,0,1,1-6.328-6.328A6.328,6.328,0,0,1,180.9,58.72" transform="translate(8.192 2.551)" fill="#ff725e"/>
            <path id="Trazado_833054" data-name="Trazado 833054" d="M187.137,45.349l-.524-4.118,4.192-4.487.3,4.444Z" transform="translate(9.087 1.789)" fill="#455a64"/>
            <path id="Trazado_833055" data-name="Trazado 833055" d="M196.088,41.841l-4.252-.346-4.263,4.1,4.263.456Z" transform="translate(9.133 2.02)" fill="#455a64"/>
            <g id="Grupo_1083227" data-name="Grupo 1083227" transform="translate(183.615 47.655)" opacity="0.3">
              <g id="Grupo_1083226" data-name="Grupo 1083226">
                <g id="Grupo_1083225" data-name="Grupo 1083225" clip-path="url(#clip-path-4)">
                  <path id="Trazado_833056" data-name="Trazado 833056" d="M175.089,58.965,189.849,47.7A17.947,17.947,0,0,0,188,45.442L175.089,57.961Z" transform="translate(-175.089 -45.442)"/>
                </g>
              </g>
            </g>
            <path id="Trazado_833057" data-name="Trazado 833057" d="M191.9,40.4l-6.009,6.011-9.534,9.536q-1.1,1.1-2.192,2.192c-.694.694.39,1.767,1.085,1.072l6.009-6.011,9.534-9.536q1.1-1.1,2.192-2.192A.763.763,0,0,0,191.9,40.4" transform="translate(8.469 1.956)" fill="#263238"/>
            <path id="Trazado_833058" data-name="Trazado 833058" d="M85.376,70.793l4-44.4c.634-11.077,7.61-19.941,18.666-19l1.017.147a19.835,19.835,0,0,1,16.968,20.874c-.6,9.6-1.393,20.195-2.191,25.276-1.65,10.52-12.426,10.639-12.426,10.639-.023,0-.724,6.432-1.036,9.54l-1.336,7.243-5.412-2.739Z" transform="translate(4.157 0.357)" fill="#ffc09d"/>
            <path id="Trazado_833059" data-name="Trazado 833059" d="M110.845,61.614a25.724,25.724,0,0,1-13.136-6.035s2.159,8.4,12.811,8.966Z" transform="translate(4.758 2.706)" fill="#ff9b6c"/>
            <path id="Trazado_833060" data-name="Trazado 833060" d="M119.846,36.2a1.519,1.519,0,0,1-1.67,1.309,1.454,1.454,0,0,1-1.356-1.58,1.521,1.521,0,0,1,1.668-1.311,1.456,1.456,0,0,1,1.357,1.582" transform="translate(5.688 1.685)" fill="#263238"/>
            <path id="Trazado_833061" data-name="Trazado 833061" d="M121.672,31.311c-.215.169-1.233-.839-2.854-1.069-1.615-.252-2.924.41-3.071.186-.073-.1.168-.427.739-.729a4.178,4.178,0,0,1,2.494-.391,4.011,4.011,0,0,1,2.236,1.095c.443.454.56.834.455.908" transform="translate(5.635 1.425)" fill="#263238"/>
            <path id="Trazado_833062" data-name="Trazado 833062" d="M106.359,34.38a1.519,1.519,0,0,1-1.67,1.309,1.453,1.453,0,0,1-1.356-1.58A1.52,1.52,0,0,1,105,32.8a1.455,1.455,0,0,1,1.357,1.581" transform="translate(5.031 1.597)" fill="#263238"/>
            <path id="Trazado_833063" data-name="Trazado 833063" d="M106.484,29.486c-.215.169-1.235-.839-2.853-1.068-1.615-.253-2.924.409-3.071.186-.073-.1.166-.427.739-.729a4.174,4.174,0,0,1,2.493-.392,4.011,4.011,0,0,1,2.236,1.095c.442.454.56.834.456.908" transform="translate(4.896 1.336)" fill="#263238"/>
            <path id="Trazado_833064" data-name="Trazado 833064" d="M110.036,42.686a10.838,10.838,0,0,1,2.7-.1c.421.018.823-.008.933-.281a2.125,2.125,0,0,0-.1-1.265q-.367-1.586-.768-3.325c-1.052-4.729-1.749-8.592-1.559-8.633s1.2,3.76,2.251,8.487c.249,1.165.488,2.275.714,3.337a2.425,2.425,0,0,1-.02,1.654,1.05,1.05,0,0,1-.767.507,2.846,2.846,0,0,1-.717,0,10.588,10.588,0,0,1-2.666-.381" transform="translate(5.358 1.416)" fill="#263238"/>
            <path id="Trazado_833065" data-name="Trazado 833065" d="M107.748,24.741c-.281.382-1.788-.28-3.7-.6-1.9-.356-3.546-.251-3.678-.7-.055-.216.321-.541,1.043-.779a6.507,6.507,0,0,1,5.617.992c.6.47.838.906.713,1.089" transform="translate(4.887 1.091)" fill="#263238"/>
            <path id="Trazado_833066" data-name="Trazado 833066" d="M122.424,26.786c-.385.325-1.657-.229-3.244-.451-1.579-.27-2.966-.131-3.226-.557-.111-.2.148-.546.781-.819a5.146,5.146,0,0,1,2.717-.263,5.067,5.067,0,0,1,2.495,1.075c.513.451.648.855.476,1.015" transform="translate(5.645 1.199)" fill="#263238"/>
            <path id="Trazado_833067" data-name="Trazado 833067" d="M89.333,32.753c-.168-.1-6.932-3.186-7.74,4.051s6.624,6.557,6.659,6.351,1.081-10.4,1.081-10.4" transform="translate(3.97 1.559)" fill="#ffc09d"/>
            <path id="Trazado_833068" data-name="Trazado 833068" d="M86.261,40.061c-.029-.027-.136.074-.36.148a1.266,1.266,0,0,1-.945-.086,3.138,3.138,0,0,1-1.13-2.96,4.174,4.174,0,0,1,.555-1.765,1.464,1.464,0,0,1,1.056-.862.646.646,0,0,1,.706.429c.074.213.013.352.049.369.018.02.169-.1.144-.409a.806.806,0,0,0-.234-.486.952.952,0,0,0-.676-.262,1.784,1.784,0,0,0-1.443.974,4.309,4.309,0,0,0-.662,1.968c-.117,1.464.477,2.912,1.489,3.332a1.357,1.357,0,0,0,1.175-.063c.244-.154.3-.311.277-.327" transform="translate(4.056 1.664)" fill="#ff9b6c"/>
            <path id="Trazado_833069" data-name="Trazado 833069" d="M141.933,20.371a1.723,1.723,0,0,0-.691-1.093,5.3,5.3,0,0,0-2.656-.748,15.325,15.325,0,0,1-6.432-2.416,7.565,7.565,0,0,0,2.1-1.145,4.57,4.57,0,0,0,1.821-4.367,1.011,1.011,0,0,0-.489-.757c-.453-.2-.918.217-1.287.546a3.936,3.936,0,0,1-3.858,1.14,6.452,6.452,0,0,1-2.657-1.127c-.028-.036-.051-.076-.08-.111-.332-.431-.658-.843-.978-1.244l0,0v0c-2.415-3.01-4.543-5.148-6.843-6.392C116.512.832,110.67-.417,106.876.13S99.434,3.289,98.493,7c-1.867-1.981-4.97-2.32-7.6-1.594l-.06-.036c-2.915.681-4.844,3.46-6,6.223-.063.15-.121.3-.18.457a11.18,11.18,0,0,1-4.19,3.253c-.289.127-.622.284-.69.593a.91.91,0,0,0,.4.8,5.629,5.629,0,0,0,2.16,1.2,12.65,12.65,0,0,1-1.153,1.864c-.378.5-.826,1.1-.613,1.686a1.188,1.188,0,0,0,1.176.68,3.49,3.49,0,0,0,1.372-.441l-1.193,2.138a6.672,6.672,0,0,0,3.072.144c.29,2.739.175,7.739.656,9.628,1.917.253,2.408.1,3.34.529,1.2.558.475,2.722,2.177,2.278.867-.227,2.5-3.228,2.873-4.042a41.579,41.579,0,0,0,3.779-17.286,13.393,13.393,0,0,1,4.438-2.493l-.138.1c3.076-.691,6.538-1.32,9.187.388,2.054,1.326,3.078,3.73,4.5,5.719A15.248,15.248,0,0,0,126.363,25.5c.05,3.242-.422,8.48-.6,11.478l3.225-5.677v.024c.245-.326.455-.66.66-.994l.068-.1,0-.014a18.518,18.518,0,0,1,1.031-1.6l.026.028a1.874,1.874,0,0,0,3-2.18,4.193,4.193,0,0,0-.8-1.008,2.966,2.966,0,0,0,2.724,1.047,2.326,2.326,0,0,0,1.9-2.1,1.979,1.979,0,0,0-.992-1.71,6.675,6.675,0,0,0,3.871-.4c.794-.34,1.6-.956,1.459-1.923" transform="translate(3.884 0)" fill="#263238"/>
            <path id="Trazado_833070" data-name="Trazado 833070" d="M101.482,8.2a9.175,9.175,0,0,0-1.172.85,7.643,7.643,0,0,0-2.026,3.332,13.4,13.4,0,0,0-.577,2.659c-.115.975-.156,2.028-.207,3.138a28.088,28.088,0,0,1-.316,3.482,12.161,12.161,0,0,1-.448,1.8,3.827,3.827,0,0,1-.949,1.692,1.608,1.608,0,0,1-1.552.332,2.389,2.389,0,0,1-1.258-.912,5.533,5.533,0,0,1-.714-2.809l.22.052a8.931,8.931,0,0,1-1.542,2.072,3.171,3.171,0,0,1-2.188.887,2.044,2.044,0,0,1-1.07-.316,1.774,1.774,0,0,1-.66-.815,1.835,1.835,0,0,1-.117-.965,1.318,1.318,0,0,1,.434-.784l.1.113a6.871,6.871,0,0,1-2.47,1.447,6.178,6.178,0,0,1-.736.194,1.173,1.173,0,0,1-.259.034,1.246,1.246,0,0,1,.25-.074c.166-.047.41-.114.719-.23A7.084,7.084,0,0,0,87.338,21.9l.1.112a1.366,1.366,0,0,0-.25,1.566,1.593,1.593,0,0,0,.6.724,1.858,1.858,0,0,0,.971.274,2.971,2.971,0,0,0,2.033-.848,8.809,8.809,0,0,0,1.488-2.03l.191-.322.028.375a5.338,5.338,0,0,0,.68,2.683,2.155,2.155,0,0,0,1.125.817,1.357,1.357,0,0,0,1.319-.281,3.646,3.646,0,0,0,.88-1.585,12.332,12.332,0,0,0,.441-1.767,28.566,28.566,0,0,0,.326-3.451c.058-1.107.106-2.165.231-3.151a13.42,13.42,0,0,1,.616-2.692,7.547,7.547,0,0,1,2.128-3.346,4.327,4.327,0,0,1,1.237-.778" transform="translate(4.089 0.399)" fill="#455a64"/>
            <path id="Trazado_833071" data-name="Trazado 833071" d="M132.235,22.479a.39.39,0,0,1-.093.063l-.286.163a3.565,3.565,0,0,1-.481.236,5.512,5.512,0,0,1-.683.266,9.463,9.463,0,0,1-4.626.3,12.072,12.072,0,0,1-6.122-3.088,20.9,20.9,0,0,1-4.771-6.954c-.624-1.37-1.1-2.756-1.657-4.048a14.094,14.094,0,0,0-2-3.493,7.283,7.283,0,0,0-2.841-2.2,5.227,5.227,0,0,0-1.588-.368,5.756,5.756,0,0,0-1.506.115,6.175,6.175,0,0,0-3.73,2.492,7.446,7.446,0,0,0-.728,1.526.383.383,0,0,1,.021-.11c.024-.086.052-.191.087-.319a5.412,5.412,0,0,1,.539-1.149,6.017,6.017,0,0,1,1.369-1.472,6.219,6.219,0,0,1,2.4-1.139,5.875,5.875,0,0,1,1.555-.135,5.389,5.389,0,0,1,1.654.369,7.445,7.445,0,0,1,2.941,2.245A14.2,14.2,0,0,1,113.74,9.32c.562,1.3,1.04,2.686,1.66,4.043a20.915,20.915,0,0,0,4.7,6.887,12,12,0,0,0,6,3.083,9.588,9.588,0,0,0,4.565-.218,15.13,15.13,0,0,0,1.574-.636" transform="translate(4.924 0.154)" fill="#455a64"/>
            <path id="Trazado_833072" data-name="Trazado 833072" d="M132.737,17.292a1.66,1.66,0,0,1-.41.221,8.218,8.218,0,0,1-1.189.444,11.075,11.075,0,0,1-1.848.382,11.594,11.594,0,0,1-4.585-.373,11.058,11.058,0,0,1-1.762-.676,8.276,8.276,0,0,1-1.1-.63,1.7,1.7,0,0,1-.369-.284c.025-.04.576.327,1.545.754a12.5,12.5,0,0,0,1.748.615,13.7,13.7,0,0,0,2.234.39,13.609,13.609,0,0,0,2.266-.023,12.583,12.583,0,0,0,1.825-.323c1.025-.264,1.628-.538,1.646-.495" transform="translate(5.915 0.797)" fill="#455a64"/>
            <path id="Trazado_833073" data-name="Trazado 833073" d="M109.682,46.948c-.058-.271-1.835.214-3.515-.96s-2-3.12-2.256-3.065c-.118.006-.23.517-.031,1.322a4.586,4.586,0,0,0,1.783,2.586,4,4,0,0,0,2.916.691c.761-.136,1.147-.456,1.1-.575" transform="translate(5.053 2.09)" fill="#263238"/>
            <path id="Trazado_833074" data-name="Trazado 833074" d="M64.554,61.738a11.47,11.47,0,0,0-12.608,2.885C46.375,70.585,25.866,110.472,23.164,118c-4.442,12.379,5.13,22.955,13.1,23.389s39.158-9.6,39.158-9.6l-6.79-17.89-19.9,1.59,15.432-31Z" transform="translate(1.073 2.968)" fill="#cedcb3"/>
            <path id="Trazado_833075" data-name="Trazado 833075" d="M95.1,95.909s7.676,38.911,11.333,42.054,32.526,16.076,32.526,16.076l8.648-14.056L124.656,126l-.113-29.534c-.235-8.334-3.576-13.55-7.391-16.343Z" transform="translate(4.63 3.901)" fill="#cedcb3"/>
            <path id="Trazado_833076" data-name="Trazado 833076" d="M113.958,70.521l-5.2,6.722L105.53,68.91l-18.345-11.9-5.341,5.128s-20.573.4-21.9,1.405c-2.955,2.233-8.362,35.543-8.362,35.543L41.165,161.9c-.881,2.518,7.865,4.28,12.928,5.515L100.76,174.1s5.552,1.316,7.126-2.1c1.27-2.759,3.924-31.774,6.608-47.611.71-4.195,1.353-19.171,1.353-19.171l5.188-23.166-5.619-4.231Z" transform="translate(2.001 2.776)" fill="#cedcb3"/>
            <path id="Trazado_833077" data-name="Trazado 833077" d="M54.736,99.3a10.042,10.042,0,0,1-.886,2.179c-.611,1.316-1.49,3.121-2.492,5.1s-1.935,3.755-2.635,5.03a10.034,10.034,0,0,1-1.232,2.007,10.121,10.121,0,0,1,.889-2.184c.611-1.317,1.489-3.119,2.489-5.095s1.932-3.748,2.632-5.021A10.234,10.234,0,0,1,54.736,99.3" transform="translate(2.312 4.835)" fill="#263238"/>
            <path id="Trazado_833078" data-name="Trazado 833078" d="M102.562,68.9a17.682,17.682,0,0,1-1.837,2.072c-1.2,1.268-2.909,3.039-4.927,5.1l-.157.16-.18-.138c-1.3-.992-2.7-2.107-4.141-3.308C88.1,70.1,85.332,67.5,83.4,65.555c-.97-.971-1.731-1.78-2.247-2.348a5,5,0,0,1-.757-.924,4.994,4.994,0,0,1,.908.775l2.365,2.219c2,1.872,4.8,4.415,8,7.089,1.43,1.2,2.822,2.317,4.1,3.322l-.338.022c2.045-2.03,3.807-3.753,5.066-4.958a17.715,17.715,0,0,1,2.061-1.851" transform="translate(3.914 3.033)" fill="#263238"/>
            <path id="Trazado_833079" data-name="Trazado 833079" d="M115.162,89.7a67.446,67.446,0,0,1-.632,8.549,67.425,67.425,0,0,1-1.176,8.492,67.494,67.494,0,0,1,.632-8.55,67.471,67.471,0,0,1,1.176-8.491" transform="translate(5.518 4.368)" fill="#263238"/>
            <path id="Trazado_833080" data-name="Trazado 833080" d="M135.083,133.135s5.728-9.639,6.936-9.258,1.824,2.881,1.1,4.724-2.747,9.252-2.747,9.252Z" transform="translate(6.578 6.031)" fill="#ffc09d"/>
            <path id="Trazado_833081" data-name="Trazado 833081" d="M138.407,292.857,132.721,318.5s24.471,12.508,23.882,17.349l-50.431-7.356,7.22-40.317Z" transform="translate(5.17 14.032)" fill="#455a64"/>
            <g id="Grupo_1083230" data-name="Grupo 1083230" transform="translate(120.947 327.472)" opacity="0.6">
              <g id="Grupo_1083229" data-name="Grupo 1083229">
                <g id="Grupo_1083228" data-name="Grupo 1083228" clip-path="url(#clip-path-5)">
                  <path id="Trazado_833082" data-name="Trazado 833082" d="M117.179,312.3a2.081,2.081,0,0,0-1.846,2.074,2,2,0,0,0,2.041,1.848,2.194,2.194,0,0,0,1.942-2.208,2.074,2.074,0,0,0-2.334-1.686" transform="translate(-115.331 -312.267)" fill="#fff"/>
                </g>
              </g>
            </g>
            <g id="Grupo_1083233" data-name="Grupo 1083233" transform="translate(111.341 338.46)" opacity="0.6">
              <g id="Grupo_1083232" data-name="Grupo 1083232">
                <g id="Grupo_1083231" data-name="Grupo 1083231" clip-path="url(#clip-path-6)">
                  <path id="Trazado_833083" data-name="Trazado 833083" d="M106.171,326.809l.728-4.064,48.449,8.8a3.523,3.523,0,0,1,1.456,3.024Z" transform="translate(-106.171 -322.744)" fill="#fff"/>
                </g>
              </g>
            </g>
            <path id="Trazado_833084" data-name="Trazado 833084" d="M132.543,317.011c-.053.243-1.3.129-2.646.693-1.364.53-2.18,1.475-2.388,1.337-.217-.089.417-1.485,2.064-2.14s3.064-.1,2.97.11" transform="translate(6.207 15.415)" fill="#263238"/>
            <path id="Trazado_833085" data-name="Trazado 833085" d="M137.121,320c.013.247-1.124.468-2.147,1.35-1.048.852-1.464,1.933-1.705,1.877-.237,0-.143-1.469,1.149-2.541s2.74-.92,2.7-.686" transform="translate(6.484 15.573)" fill="#263238"/>
            <path id="Trazado_833086" data-name="Trazado 833086" d="M138.686,326.691c-.232.012-.347-1.273.529-2.5s2.118-1.546,2.184-1.323c.1.228-.775.81-1.478,1.825-.728,1-.988,2.019-1.235,2" transform="translate(6.745 15.718)" fill="#263238"/>
            <path id="Trazado_833087" data-name="Trazado 833087" d="M133.168,311.346c-.144.2-1.2-.341-2.6-.5-1.4-.19-2.559.076-2.647-.157-.109-.2,1.108-.915,2.755-.7s2.653,1.191,2.5,1.361" transform="translate(6.228 15.092)" fill="#263238"/>
            <g id="Grupo_1083236" data-name="Grupo 1083236" transform="translate(116.848 307.621)" opacity="0.3">
              <g id="Grupo_1083235" data-name="Grupo 1083235">
                <g id="Grupo_1083234" data-name="Grupo 1083234" clip-path="url(#clip-path-7)">
                  <path id="Trazado_833088" data-name="Trazado 833088" d="M137.019,297.683l-1.008,4.571-24.588-4.765.733-4.151Z" transform="translate(-111.423 -293.338)"/>
                </g>
              </g>
            </g>
            <path id="Trazado_833089" data-name="Trazado 833089" d="M61.778,336.979l-3.259,26.062s25.536,10.16,25.4,15.035l-50.9-2.6,3.411-40.816Z" transform="translate(1.608 16.295)" fill="#455a64"/>
            <g id="Grupo_1083239" data-name="Grupo 1083239" transform="translate(42.967 375.69)" opacity="0.6">
              <g id="Grupo_1083238" data-name="Grupo 1083238">
                <g id="Grupo_1083237" data-name="Grupo 1083237" clip-path="url(#clip-path-8)">
                  <path id="Trazado_833090" data-name="Trazado 833090" d="M42.632,358.3a2.082,2.082,0,0,0-1.643,2.238,2,2,0,0,0,2.2,1.649,2.194,2.194,0,0,0,1.728-2.379,2.075,2.075,0,0,0-2.483-1.46" transform="translate(-40.972 -358.246)" fill="#fff"/>
                </g>
              </g>
            </g>
            <g id="Grupo_1083242" data-name="Grupo 1083242" transform="translate(34.631 387.657)" opacity="0.6">
              <g id="Grupo_1083241" data-name="Grupo 1083241">
                <g id="Grupo_1083240" data-name="Grupo 1083240" clip-path="url(#clip-path-9)">
                  <path id="Trazado_833091" data-name="Trazado 833091" d="M33.023,373.772l.344-4.114,49.06,4.223a3.522,3.522,0,0,1,1.732,2.873Z" transform="translate(-33.023 -369.658)" fill="#fff"/>
                </g>
              </g>
            </g>
            <path id="Trazado_833092" data-name="Trazado 833092" d="M58.368,361.561c-.03.247-1.279.25-2.569.939-1.309.654-2.032,1.673-2.253,1.554-.223-.068.277-1.517,1.854-2.324s3.042-.391,2.968-.169" transform="translate(2.605 17.59)" fill="#263238"/>
            <path id="Trazado_833093" data-name="Trazado 833093" d="M63.2,364.1c.036.245-1.075.572-2.01,1.545-.964.946-1.276,2.062-1.522,2.028-.237.019-.28-1.448.906-2.636s2.642-1.173,2.626-.936" transform="translate(2.899 17.723)" fill="#263238"/>
            <path id="Trazado_833094" data-name="Trazado 833094" d="M65.386,370.619c-.23.033-.465-1.236.293-2.537s1.963-1.739,2.05-1.523c.122.216-.7.878-1.3,1.955-.63,1.063-.794,2.1-1.042,2.1" transform="translate(3.173 17.846)" fill="#263238"/>
            <path id="Trazado_833095" data-name="Trazado 833095" d="M58.468,355.856c-.124.217-1.23-.227-2.641-.256-1.408-.058-2.541.316-2.651.092-.127-.192,1.018-1.015,2.677-.957s2.753.938,2.614,1.121" transform="translate(2.589 17.273)" fill="#263238"/>
            <g id="Grupo_1083245" data-name="Grupo 1083245" transform="translate(37.233 356.438)" opacity="0.3">
              <g id="Grupo_1083244" data-name="Grupo 1083244">
                <g id="Grupo_1083243" data-name="Grupo 1083243" clip-path="url(#clip-path-10)">
                  <path id="Trazado_833096" data-name="Trazado 833096" d="M61.006,341.885l-.575,4.646L35.5,344.089l.341-4.2Z" transform="translate(-35.504 -339.888)"/>
                </g>
              </g>
            </g>
            <path id="Trazado_833097" data-name="Trazado 833097" d="M38.8,41.943a19.41,19.41,0,1,1-20.374-18.4A19.409,19.409,0,0,1,38.8,41.943" transform="translate(0 1.145)" fill="#ff725e"/>
            <path id="Trazado_833098" data-name="Trazado 833098" d="M255.109,266.757l-19.377-44.971L37.335,33.348,11.151,62.285,208.5,249.3Z" transform="translate(0.543 1.624)" fill="#ff725e"/>
            <g id="Grupo_1083248" data-name="Grupo 1083248" transform="translate(209.045 223.202)" opacity="0.7">
              <g id="Grupo_1083247" data-name="Grupo 1083247">
                <g id="Grupo_1083246" data-name="Grupo 1083246" clip-path="url(#clip-path-11)">
                  <path id="Trazado_833099" data-name="Trazado 833099" d="M199.339,240.56c.3-1.924,1.975-3.265,3.8-2.58A8.714,8.714,0,0,1,213.4,225.046a10.166,10.166,0,0,1,13.31-11.663l19.233,44.633Z" transform="translate(-199.339 -212.838)" fill="#fff"/>
                </g>
              </g>
            </g>
            <path id="Trazado_833100" data-name="Trazado 833100" d="M236.876,238.68s-9.138-2.11-11.3,10.934l19.095,7.151Z" transform="translate(10.984 11.616)" fill="#263238"/>
            <g id="Grupo_1083251" data-name="Grupo 1083251" transform="translate(26.381 35.865)" opacity="0.3">
              <g id="Grupo_1083250" data-name="Grupo 1083250">
                <g id="Grupo_1083249" data-name="Grupo 1083249" clip-path="url(#clip-path-12)">
                  <path id="Trazado_833101" data-name="Trazado 833101" d="M221.883,233.744,25.157,48.576,37.533,34.2,235.051,221.744l.143.339a9.77,9.77,0,0,0-4.442-.5,10.555,10.555,0,0,0-5.388,2.266,10.036,10.036,0,0,0-3.547,6.095,10.234,10.234,0,0,0,.067,3.8" transform="translate(-25.156 -34.2)"/>
                </g>
              </g>
            </g>
            <g id="Grupo_1083254" data-name="Grupo 1083254" transform="translate(11.709 60.396)" opacity="0.3">
              <g id="Grupo_1083253" data-name="Grupo 1083253">
                <g id="Grupo_1083252" data-name="Grupo 1083252" clip-path="url(#clip-path-13)">
                  <path id="Trazado_833102" data-name="Trazado 833102" d="M212.3,245.54,14.446,57.592l-3.281,3.8L208.5,248.12a3.081,3.081,0,0,1,3.095-2.759,3.419,3.419,0,0,1,.7.179" transform="translate(-11.165 -57.592)"/>
                </g>
              </g>
            </g>
            <path id="Trazado_833103" data-name="Trazado 833103" d="M222.883,227.414a.781.781,0,0,0-.424-.328,1.061,1.061,0,0,0-1.271.631,4.078,4.078,0,0,0-.033,2.465,2.506,2.506,0,0,0,.8,1.293,1.671,1.671,0,0,0,1.581.36,2.25,2.25,0,0,0,1.253-1.329,7.282,7.282,0,0,0,.478-2.037,11.207,11.207,0,0,0-.388-4.6,2.867,2.867,0,0,0-1.5-1.823,2.544,2.544,0,0,0-2.385.393c-1.4,1.073-1.959,3.03-2.124,4.865a9.7,9.7,0,0,0,4.53,9.014,2.518,2.518,0,0,0,2.232.074,4.646,4.646,0,0,0,1.681-1.426,13.574,13.574,0,0,0,1.889-3.58,14.868,14.868,0,0,0,.814-5.807c-.051-.7-.124-1.234-.187-1.6s-.086-.556-.086-.556a10.82,10.82,0,0,1,.379,2.146,14.562,14.562,0,0,1-.738,5.877,13.6,13.6,0,0,1-1.892,3.656,4.856,4.856,0,0,1-1.761,1.506,2.766,2.766,0,0,1-2.439-.066,9.918,9.918,0,0,1-4.693-9.26,9.724,9.724,0,0,1,.621-2.793,4.993,4.993,0,0,1,1.618-2.269,2.809,2.809,0,0,1,2.639-.418,3.122,3.122,0,0,1,1.638,1.982,11.361,11.361,0,0,1,.376,4.708,7.452,7.452,0,0,1-.511,2.1,2.434,2.434,0,0,1-1.385,1.426,1.846,1.846,0,0,1-1.751-.409,2.658,2.658,0,0,1-.835-1.385,4.129,4.129,0,0,1,.084-2.552,1.129,1.129,0,0,1,1.383-.638.6.6,0,0,1,.407.381" transform="translate(10.643 10.792)" fill="#fff"/>
            <path id="Trazado_833104" data-name="Trazado 833104" d="M218,247.3c-.03-.013.24-.5.486-1.469a10.593,10.593,0,0,0,.106-4.179,26.787,26.787,0,0,0-1.849-5.966,23.429,23.429,0,0,1-2.036-7.428,13.3,13.3,0,0,1,1.888-7.429,12.955,12.955,0,0,1,8.424-5.943,8.7,8.7,0,0,1,1.545-.2,2.257,2.257,0,0,1-.4.077c-.26.037-.642.107-1.126.222a13.462,13.462,0,0,0-3.881,1.6,12.841,12.841,0,0,0-4.351,4.374,13.164,13.164,0,0,0-1.831,7.285,23.587,23.587,0,0,0,2,7.35,26.184,26.184,0,0,1,1.806,6.03,10.3,10.3,0,0,1-.2,4.234A5.865,5.865,0,0,1,218,247.3" transform="translate(10.454 10.454)" fill="#fff"/>
            <path id="Trazado_833105" data-name="Trazado 833105" d="M207.54,243.406a4.048,4.048,0,0,0,1.917-2.125,22.811,22.811,0,0,0,1.01-7.02,39.044,39.044,0,0,0-.487-7.121c-.142-.9-.29-1.631-.389-2.133a4.528,4.528,0,0,1-.139-.787,4.382,4.382,0,0,1,.242.762c.131.5.309,1.22.476,2.125a35.012,35.012,0,0,1,.252,11.106,11.461,11.461,0,0,1-.789,3.145,4,4,0,0,1-1.365,1.707,2.444,2.444,0,0,1-.728.34" transform="translate(10.106 10.918)" fill="#fff"/>
            <path id="Trazado_833106" data-name="Trazado 833106" d="M204.6,226.079a7.371,7.371,0,0,1,.616,1.494,8.873,8.873,0,0,1,.519,3.873,4.514,4.514,0,0,1-1.949,3.335,3.222,3.222,0,0,1-1.11.454,1.01,1.01,0,0,1-.437.026,4.9,4.9,0,0,0,1.439-.64,4.5,4.5,0,0,0,1.787-3.209,9.653,9.653,0,0,0-.432-3.783,12.993,12.993,0,0,1-.432-1.551" transform="translate(9.847 11.008)" fill="#fff"/>
            <path id="Trazado_833107" data-name="Trazado 833107" d="M223.764,249.474a.745.745,0,0,1-.092-.215c-.051-.144-.128-.355-.211-.635a2.912,2.912,0,0,1-.139-1.063,3.139,3.139,0,0,1,.487-1.337,36.272,36.272,0,0,1,2.118-2.966,25.892,25.892,0,0,0,2.246-3.814,50.885,50.885,0,0,0,2.8-7.562c.256-.86.487-1.638.7-2.35a5.719,5.719,0,0,1,.285-.855,5.782,5.782,0,0,1-.184.882c-.136.563-.341,1.376-.617,2.376a44.888,44.888,0,0,1-2.742,7.627,24.762,24.762,0,0,1-2.288,3.842c-.816,1.111-1.636,2.03-2.156,2.917a2.609,2.609,0,0,0-.41,2.275,6.728,6.728,0,0,1,.2.878" transform="translate(10.874 11.135)" fill="#fff"/>
            <path id="Trazado_833108" data-name="Trazado 833108" d="M39.774,35.509l-27.6,27.756a1,1,0,0,1-1.415,0l-8.552-8.5a1,1,0,0,1,0-1.415L29.8,25.6a1,1,0,0,1,1.415,0l8.552,8.5a1,1,0,0,1,0,1.415" transform="translate(0.093 1.232)" fill="#e0e0e0"/>
            <path id="Trazado_833109" data-name="Trazado 833109" d="M39.786,35.518c-.009-.008.061-.077.143-.238a.989.989,0,0,0,.044-.766c-.1-.328-.5-.586-.867-.969l-1.313-1.27-3.587-3.5-2.233-2.191-.6-.59a1.526,1.526,0,0,0-.61-.466.822.822,0,0,0-.691.107c-.179.138-.414.409-.623.611L2.415,53.55a.732.732,0,0,0-.079.935c.249.279.638.642.947.957q.986.98,1.957,1.947L9.065,61.2l1.861,1.855a.742.742,0,0,0,.884.174A.8.8,0,0,0,12,63.09l.225-.227.452-.453,3.527-3.535,12.22-12.208,8.272-8.2,2.269-2.21.6-.564a1.127,1.127,0,0,1,.218-.179,1.088,1.088,0,0,1-.178.218l-.561.6-2.2,2.282L28.7,46.94,16.565,59.231l-3.514,3.547-.451.455-.227.229a1.333,1.333,0,0,1-.328.236,1.275,1.275,0,0,1-1.491-.268L8.687,61.577l-3.83-3.8Q3.885,56.809,2.9,55.83c-.337-.347-.64-.608-1.008-1.028a1.279,1.279,0,0,1,.136-1.637l27.146-27.19a8.869,8.869,0,0,1,.686-.651,1.194,1.194,0,0,1,1.009-.146,1.845,1.845,0,0,1,.755.563c.2.2.4.4.594.6l2.2,2.22,3.52,3.566,1.277,1.307c.344.391.744.659.857,1.049a1.016,1.016,0,0,1-.1.827.647.647,0,0,1-.192.211" transform="translate(0.081 1.223)" fill="#263238"/>
            <path id="Trazado_833110" data-name="Trazado 833110" d="M5.36,49.241A43.339,43.339,0,0,1,10.5,53.775,43.212,43.212,0,0,1,15.27,58.7a43.223,43.223,0,0,1-5.144-4.533A43.323,43.323,0,0,1,5.36,49.241" transform="translate(0.261 2.397)" fill="#263238"/>
            <path id="Trazado_833111" data-name="Trazado 833111" d="M15.072,38.835a60.672,60.672,0,0,1,5.449,4.544,61.138,61.138,0,0,1,5.267,4.756,37.412,37.412,0,0,1-5.624-4.344,37.434,37.434,0,0,1-5.091-4.956" transform="translate(0.734 1.891)" fill="#263238"/>
            <path id="Trazado_833112" data-name="Trazado 833112" d="M37,36.86a44.6,44.6,0,0,1-5.274-4.532,44.492,44.492,0,0,1-4.9-4.932A44.347,44.347,0,0,1,32.1,31.928,44.441,44.441,0,0,1,37,36.86" transform="translate(1.306 1.334)" fill="#263238"/>
            <path id="Trazado_833113" data-name="Trazado 833113" d="M98.439,94S89.094,95,86.3,95.4s-6.572,1.167-7.881,3.385c-.533.9-8.725,12.886-8.725,12.886l-3.129.886,5,13.758,8.46-4.207s2.876-3.225,5.167-6.27,2.993-4.155,2.993-4.155,8.379.392,10.074-1.06a2.094,2.094,0,0,0,.365-2.216l-9.132-.8s9.926-.027,11.572-1.122a2.418,2.418,0,0,0,.385-.313,1.554,1.554,0,0,0-1.14-2.613l-10.685-.071s12.27-1.114,12.546-2.484a4.844,4.844,0,0,0,.088-.671,1.492,1.492,0,0,0-1.537-1.584L90.7,99.058s9.686-1.548,9.778-2.9C100.657,93.586,98.439,94,98.439,94" transform="translate(3.241 4.576)" fill="#ffc09d"/>
            <path id="Trazado_833114" data-name="Trazado 833114" d="M36.582,119.755a15.537,15.537,0,0,1,11.44-6.694C48.462,113.02,68.4,110.9,68.4,110.9l6.1,19.081L45.226,137.6" transform="translate(1.781 5.4)" fill="#cedcb3"/>
            <path id="Trazado_833115" data-name="Trazado 833115" d="M45.226,137.608a3.022,3.022,0,0,1,.551-.19c.412-.117.948-.272,1.616-.466,1.468-.4,3.518-.961,6.07-1.657,5.243-1.39,12.537-3.324,20.977-5.559l-.184.332c-1.144-3.563-2.381-7.418-3.662-11.41l-2.448-7.669.283.184-13.492,1.4-5.789.588a18.821,18.821,0,0,0-4.872.925,15.7,15.7,0,0,0-6,3.718c-1.17,1.2-1.649,1.994-1.693,1.962a3.516,3.516,0,0,1,.345-.577,13.486,13.486,0,0,1,1.211-1.517,15.386,15.386,0,0,1,6.022-3.915,18.923,18.923,0,0,1,4.949-1.009l5.782-.642,13.482-1.468.217-.023.067.209c.793,2.474,1.616,5.041,2.457,7.667l3.64,11.416.085.265-.268.068-21.025,5.371-6.108,1.51-1.638.382a2.733,2.733,0,0,1-.574.1" transform="translate(1.781 5.386)" fill="#263238"/>
            <path id="Trazado_833116" data-name="Trazado 833116" d="M141,132.451s5.872-2,7.421-.946a5.788,5.788,0,0,1,2.077,2.774s3.582.035,2.514,3.774c0,0,3.144.631,2.193,4.3,0,0,2.308-.062,1.2,2.972s-5.812,9.087-6.886,9.9c-2.241,1.688-2.861-.991-2.313-2.06s3.63-6.952,3.63-6.952-5.336,8.4-7.143,7c-1.029-.8-.8-2.037.559-4.5.946-1.711,2.676-5.084,2.676-5.084l-4.2,5.178a1.465,1.465,0,0,1-2.581-.643,2.946,2.946,0,0,1,.208-1.574,34.613,34.613,0,0,1,3.109-5.66l-3.407,3.343a1.81,1.81,0,0,1-2.694-.161,1.765,1.765,0,0,1-.263-1.967c.934-1.877,6.13-7.342,6.13-7.342Z" transform="translate(6.667 6.388)" fill="#ffc09d"/>
            <path id="Trazado_833117" data-name="Trazado 833117" d="M44.611,158.648s-4.868,24.432.082,35.084S62.628,209.5,76.134,213.638c18.044,5.534,49.231,22.7,49.231,22.7s-4.033,17.792-6.7,28.445c-2.559,10.224-9.706,47.446-9.706,47.446l32.808,4.521,23.4-84.194s6.534-17.292-7.665-25.869c-12.163-7.346-55.188-36.388-55.188-36.388l-3.33-7.713Z" transform="translate(2.068 7.725)" fill="#263238"/>
            <path id="Trazado_833118" data-name="Trazado 833118" d="M45.813,186.9l6.109,14L43.613,267.38s-7.112,21.857-8.686,33.392-5.035,57.991-5.035,57.991H62.055s4.985-56.525,14.641-73.5c7.6-13.371,12.769-36.641,13.083-38.16s11.526-38.76,11.526-38.76L85.6,176.007Z" transform="translate(1.456 8.57)" fill="#263238"/>
            <path id="Trazado_833119" data-name="Trazado 833119" d="M132.863,225.31a62.423,62.423,0,0,0-6.042,3.393,62.211,62.211,0,0,0-5.28,4.485,6.075,6.075,0,0,1,1.229-1.654,22.218,22.218,0,0,1,8.115-5.646,6.12,6.12,0,0,1,1.978-.578" transform="translate(5.918 10.97)" fill="#455a64"/>
            <path id="Trazado_833120" data-name="Trazado 833120" d="M141.775,316.747s-.2-.008-.578-.052l-1.693-.207-6.511-.846-24.053-3.229-.2-.026.037-.2c1.856-9.722,4.085-21.291,6.725-34.148.663-3.214,1.352-6.508,2.107-9.867q1.178-5.026,2.406-10.265c1.639-6.974,3.34-14.208,5.086-21.637l.134.3c-2.408-1.315-5-2.692-7.624-4.065-7.307-3.812-14.518-7.389-21.577-10.635a175.761,175.761,0,0,0-20.792-8.251c-6.816-2.13-13.266-4.452-18.787-7.682a34.935,34.935,0,0,1-7.335-5.59,22.956,22.956,0,0,1-4.785-7.025,26.372,26.372,0,0,1-1.728-7.537c-.119-1.216-.217-2.4-.234-3.548-.06-1.148-.045-2.261-.035-3.336a104.727,104.727,0,0,1,.779-10.991c.363-3,.738-5.32,1.015-6.888.147-.767.259-1.357.34-1.778.082-.4.142-.6.142-.6s-.023.209-.087.611c-.067.423-.163,1.015-.285,1.786-.242,1.571-.583,3.892-.913,6.893a109.018,109.018,0,0,0-.685,10.969c0,1.072-.01,2.179.056,3.321.024,1.144.129,2.318.254,3.524a26.085,26.085,0,0,0,1.738,7.422,22.575,22.575,0,0,0,4.731,6.883,34.554,34.554,0,0,0,7.262,5.493c5.478,3.183,11.9,5.48,18.708,7.593a174.8,174.8,0,0,1,20.867,8.245c7.072,3.245,14.293,6.822,21.607,10.638,2.625,1.374,5.218,2.752,7.632,4.071l.182.1-.047.2c-1.753,7.431-3.461,14.666-5.106,21.642q-1.233,5.227-2.417,10.252c-.759,3.352-1.455,6.643-2.125,9.854-2.668,12.846-4.935,24.407-6.837,34.119l-.158-.222,24.028,3.4,6.5.946,1.685.259c.379.061.57.106.57.106" transform="translate(2.061 7.725)" fill="#455a64"/>
          </g>
        </g>
      </g>
    </g>
  </g>
</svg>
