<svg xmlns="http://www.w3.org/2000/svg" xmlns:xlink="http://www.w3.org/1999/xlink" width="400" height="449.57" viewBox="0 0 400 449.57">
  <defs>
    <clipPath id="clip-path">
      <rect id="Rectángulo_385105" data-name="Rectángulo 385105" width="251.972" height="429.772" fill="none"/>
    </clipPath>
    <clipPath id="clip-path-2">
      <rect id="Rectángulo_385076" data-name="Rectángulo 385076" width="251.972" height="429.771" fill="none"/>
    </clipPath>
    <clipPath id="clip-path-5">
      <rect id="Rectángulo_385079" data-name="Rectángulo 385079" width="6.471" height="2.723" fill="none"/>
    </clipPath>
    <clipPath id="clip-path-6">
      <rect id="Rectángulo_385080" data-name="Rectángulo 385080" width="10.956" height="3.786" fill="none"/>
    </clipPath>
    <clipPath id="clip-path-7">
      <rect id="Rectángulo_385081" data-name="Rectángulo 385081" width="5.243" height="9.97" fill="none"/>
    </clipPath>
    <clipPath id="clip-path-8">
      <rect id="Rectángulo_385082" data-name="Rectángulo 385082" width="21.35" height="26.171" fill="none"/>
    </clipPath>
    <clipPath id="clip-path-9">
      <rect id="Rectángulo_385083" data-name="Rectángulo 385083" width="7.946" height="5.943" fill="none"/>
    </clipPath>
    <clipPath id="clip-path-11">
      <rect id="Rectángulo_385096" data-name="Rectángulo 385096" width="19.928" height="18.189" fill="none"/>
    </clipPath>
    <clipPath id="clip-path-13">
      <rect id="Rectángulo_385098" data-name="Rectángulo 385098" width="50.84" height="53.806" fill="none"/>
    </clipPath>
    <clipPath id="clip-path-14">
      <rect id="Rectángulo_385099" data-name="Rectángulo 385099" width="23.266" height="9.396" fill="none"/>
    </clipPath>
    <clipPath id="clip-path-15">
      <rect id="Rectángulo_385100" data-name="Rectángulo 385100" width="11.946" height="3.144" fill="none"/>
    </clipPath>
    <clipPath id="clip-path-16">
      <rect id="Rectángulo_385101" data-name="Rectángulo 385101" width="18.7" height="39.482" fill="none"/>
    </clipPath>
    <clipPath id="clip-path-17">
      <rect id="Rectángulo_385102" data-name="Rectángulo 385102" width="17.803" height="54.036" fill="none"/>
    </clipPath>
    <clipPath id="clip-path-18">
      <rect id="Rectángulo_385103" data-name="Rectángulo 385103" width="78.089" height="14.48" fill="none"/>
    </clipPath>
  </defs>
  <g id="Grupo_1083319" data-name="Grupo 1083319" transform="translate(-1020 -455.43)">
    <rect id="Rectángulo_385117" data-name="Rectángulo 385117" width="400" height="382" rx="20" transform="translate(1020 523)" fill="#cadeb4"/>
    <g id="Grupo_1083306" data-name="Grupo 1083306" transform="translate(1084.029 455.429)">
      <g id="Grupo_1083305" data-name="Grupo 1083305" clip-path="url(#clip-path)">
        <g id="Grupo_1083260" data-name="Grupo 1083260" transform="translate(0 0.001)">
          <g id="Grupo_1083259" data-name="Grupo 1083259" clip-path="url(#clip-path-2)">
            <path id="Trazado_833121" data-name="Trazado 833121" d="M216.717,178.566a8.638,8.638,0,0,0-4.17-2.784c-1.6-.566-3.276-.882-4.889-1.408-.771-.251-1.642-.691-1.746-1.493a1.664,1.664,0,0,1,.693-1.426,11.258,11.258,0,0,1,1.421-.844,5.809,5.809,0,0,0-5.269-10.328,1.143,1.143,0,0,0-.6.469.94.94,0,0,0,.35,1.082c.316.262.715.4,1.055.631,1.376.932,1.321,3.126.293,4.432a8,8,0,0,1-4.291,2.371,13.011,13.011,0,0,0-4.593,1.852c-1.314,1.02-2.129,2.916-1.35,4.384a4.365,4.365,0,0,0,2.644,1.864,14.75,14.75,0,0,1,3.117,1.113,2.793,2.793,0,0,1,1.51,2.724c-.277,1.436-1.95,2.045-3.351,2.464a46.112,46.112,0,0,0-4.764,1.718,6.408,6.408,0,0,0-2.769,1.854,2.417,2.417,0,0,0,.014,3.086l19.127.57c-.718-.178-1.715-2.842-1.318-3.466a2.939,2.939,0,0,1,1.871-1.09c1.358-.331,2.769-.4,4.122-.748a5.325,5.325,0,0,0,3.4-2.247,4.49,4.49,0,0,0-.509-4.78m-17.7-3.906a1.344,1.344,0,0,1-.975.768,2.112,2.112,0,0,1-1.26-.169,2.06,2.06,0,0,1-1.2-1.272,2.184,2.184,0,0,1,.441-1.594h0l0,0a1.321,1.321,0,0,1,.231-.242,1.435,1.435,0,0,1,.941-.377,1.685,1.685,0,0,1,1.249.59,2.788,2.788,0,0,1,.6,1.273,1.771,1.771,0,0,1-.028,1.027" transform="translate(18.291 15.431)" fill="#f5f5f5"/>
            <path id="Trazado_833122" data-name="Trazado 833122" d="M200.347,161.008a.791.791,0,1,1-.792-.792.791.791,0,0,1,.792.792" transform="translate(19.19 15.467)" fill="#f5f5f5"/>
            <path id="Trazado_833123" data-name="Trazado 833123" d="M187.325,188.06h23.148l-1.731,12.731s-1.511,6.27-5.03,6.27H193.679A10.741,10.741,0,0,1,188.8,200.2Z" transform="translate(18.085 18.155)" fill="#e0e0e0"/>
            <path id="Trazado_833124" data-name="Trazado 833124" d="M207.077,194.3c.113-.031.226-.056.339-.082.026-.005.22-.042.044-.012s.056,0,.1-.007a7.178,7.178,0,0,1,.752.011c-.246-.008-.036-.006.089.019s.264.06.395.1c.112.033.219.078.331.111.15.044-.044-.022-.064-.031.07.033.14.065.211.1a5.934,5.934,0,0,1,.644.394c.13.088-.039-.027-.054-.041.043.039.089.075.132.114.1.09.2.185.288.284.07.076.215.27.078.076.079.112.156.223.225.34s.107.213.167.315c.079.134-.013-.039-.022-.062.027.075.056.148.081.223.043.132.08.264.111.4.012.053.071.385.048.221s.011.172.013.228c.007.138.008.277,0,.416,0,.079-.01.158-.016.237,0,.027-.033.22,0,.05s-.038.17-.05.223c-.027.116-.058.23-.093.344-.029.09-.16.406-.048.164a4.605,4.605,0,0,1-.373.671c-.033.049-.067.1-.1.145.016-.022.144-.155.033-.052s-.211.231-.326.338c-.042.038-.291.231-.171.149s-.149.093-.194.121c-.1.06-.2.117-.3.17-.052.026-.1.05-.157.077.173-.088.086-.032-.042.014-.259.093-.522.143-.786.209-.156.039.064-.005.083-.007-.078.007-.155.015-.232.021-.155.01-.309.012-.465.008-.058,0-.116-.006-.173-.01-.034,0-.285-.03-.1-.005s-.016,0-.044-.01c-.076-.016-.152-.031-.227-.049-.151-.036-.3-.083-.444-.133-.023-.008-.2-.083-.048-.016.174.077-.149-.078-.149-.078a1.4,1.4,0,1,0-1.409,2.409,5.981,5.981,0,0,0,7.828-2.142,6.187,6.187,0,0,0,.658-4.4,5.678,5.678,0,0,0-2.542-3.536,6.018,6.018,0,0,0-4.753-.718,1.4,1.4,0,1,0,.741,2.691" transform="translate(19.74 18.478)" fill="#e0e0e0"/>
            <path id="Trazado_833125" data-name="Trazado 833125" d="M208.174,189.106c0,.048-4.468.087-9.981.087s-9.981-.038-9.981-.087,4.468-.087,9.981-.087,9.981.038,9.981.087" transform="translate(18.171 18.248)" fill="#f5f5f5"/>
          </g>
        </g>
        <g id="Grupo_1083262" data-name="Grupo 1083262" transform="translate(0 0.001)">
          <g id="Grupo_1083261" data-name="Grupo 1083261" clip-path="url(#clip-path-2)">
            <path id="Trazado_833126" data-name="Trazado 833126" d="M251.972,317.117c0,.158-56.411.285-125.98.285C56.4,317.4,0,317.275,0,317.117s56.4-.285,125.992-.285c69.569,0,125.98.127,125.98.285" transform="translate(0 30.587)" fill="#263238"/>
          </g>
        </g>
        <rect id="Rectángulo_385078" data-name="Rectángulo 385078" width="42.889" height="5.358" transform="translate(44.003 157.975)" fill="#ff725e"/>
        <path id="Trazado_833127" data-name="Trazado 833127" d="M43.825,147.925l.28,1.149,6.247,25.719H74.944l5.733-27.107Z" transform="translate(4.231 14.258)" fill="#ff725e"/>
        <g id="Grupo_1083279" data-name="Grupo 1083279" transform="translate(0 0.001)">
          <g id="Grupo_1083278" data-name="Grupo 1083278" clip-path="url(#clip-path-2)">
            <path id="Trazado_833128" data-name="Trazado 833128" d="M43.637,148.917c0-.105,8.659-.192,19.34-.192s19.341.087,19.341.192-8.657.192-19.341.192-19.34-.087-19.34-.192" transform="translate(4.213 14.357)" fill="#263238"/>
            <path id="Trazado_833129" data-name="Trazado 833129" d="M34.12,136.119c-2.562,3.059-5.278,6.233-8.982,7.717-.9.361-2.043.569-2.74-.1-.815-.784-.431-2.145.064-3.162,2.083-4.282,5.413-8.205,9.905-9.782a2.957,2.957,0,0,1,2.772.088,2.516,2.516,0,0,1,.309,3.063c-.5.993-1.33,1.792-1.832,2.784" transform="translate(2.117 12.597)" fill="#455a64"/>
            <g id="Grupo_1083265" data-name="Grupo 1083265" transform="translate(31.513 143.318)" opacity="0.3">
              <g id="Grupo_1083264" data-name="Grupo 1083264">
                <g id="Grupo_1083263" data-name="Grupo 1083263" clip-path="url(#clip-path-5)">
                  <path id="Trazado_833130" data-name="Trazado 833130" d="M28.738,132.241s1.054,2.46,6.415.287c0,0,.345-1.541-.672-1.672a6.61,6.61,0,0,0-5.743,1.385" transform="translate(-28.738 -130.701)"/>
                </g>
              </g>
            </g>
            <path id="Trazado_833131" data-name="Trazado 833131" d="M55.678,149.126a31.955,31.955,0,0,0-1.772-3.861,19.173,19.173,0,0,0-16.877-9.736,32.151,32.151,0,0,0-4.229.4.9.9,0,0,1,.281-.1c.189-.049.463-.139.827-.207a17.139,17.139,0,0,1,3.117-.361,18.774,18.774,0,0,1,17.118,9.875,17.041,17.041,0,0,1,1.248,2.88c.123.349.183.632.235.819a.863.863,0,0,1,.053.294" transform="translate(3.167 13.056)" fill="#263238"/>
            <path id="Trazado_833132" data-name="Trazado 833132" d="M22.055,140.309a4.6,4.6,0,0,1,1.1-1,18.342,18.342,0,0,1,6.419-3.09,4.615,4.615,0,0,1,1.465-.238c.027.116-2.178.607-4.659,1.814-2.49,1.188-4.249,2.6-4.323,2.51" transform="translate(2.129 13.126)" fill="#263238"/>
            <path id="Trazado_833133" data-name="Trazado 833133" d="M58.467,107.934A4.984,4.984,0,0,0,60.72,102.4a7.334,7.334,0,0,0-2.442-3.417A14.919,14.919,0,0,0,44.4,96.152a8.036,8.036,0,0,0-3.773,2.263,6.713,6.713,0,0,0-.383,7.544,10.785,10.785,0,0,0,6.363,4.62c4.108,1.227,8.451-.045,11.857-2.646" transform="translate(3.792 9.22)" fill="#455a64"/>
            <g id="Grupo_1083268" data-name="Grupo 1083268" transform="translate(51.989 116.364)" opacity="0.3">
              <g id="Grupo_1083267" data-name="Grupo 1083267">
                <g id="Grupo_1083266" data-name="Grupo 1083266" clip-path="url(#clip-path-6)">
                  <path id="Trazado_833134" data-name="Trazado 833134" d="M47.412,109.906s1.546-2.8,6-3.482,4.955,0,4.955,0a16.21,16.21,0,0,1-4.764,2.907,28.544,28.544,0,0,1-6.192.575" transform="translate(-47.412 -106.12)"/>
                </g>
              </g>
            </g>
            <path id="Trazado_833135" data-name="Trazado 833135" d="M94.652,154.9a7,7,0,0,0-4.1-5.064l-1.228-.469a11.419,11.419,0,0,0-12.883,14.649,8.945,8.945,0,0,0,6.129,6.178,8.675,8.675,0,0,0,7.36-2.007,14.324,14.324,0,0,0,4.17-6.6,12.627,12.627,0,0,0,.557-6.686" transform="translate(7.331 14.403)" fill="#455a64"/>
            <path id="Trazado_833136" data-name="Trazado 833136" d="M94.572,109.894A16.056,16.056,0,0,0,82.7,113.118a10.661,10.661,0,0,0-2.88,3.255,6.469,6.469,0,0,0-.757,4.226,6.765,6.765,0,0,0,2.322,3.77,13.6,13.6,0,0,0,3.906,2.217,28.028,28.028,0,0,0,13.347,1.807,14.5,14.5,0,0,0,4.692-1.2,7.425,7.425,0,0,0,3.5-3.252,7.211,7.211,0,0,0-.249-6.431,11.3,11.3,0,0,0-4.309-4.763c-1.922-1.123-2.575-2.149-7.7-2.852" transform="translate(7.624 10.595)" fill="#455a64"/>
            <path id="Trazado_833137" data-name="Trazado 833137" d="M59.765,147.344a41.365,41.365,0,0,0-1.479-3.9,18.407,18.407,0,0,0-1-1.851,23.282,23.282,0,0,0-1.336-2.013,36.361,36.361,0,0,0-3.634-4.181,88.355,88.355,0,0,0-7.662-6.586c-1.015-.8-1.84-1.453-2.4-1.916a6.388,6.388,0,0,1-.845-.748,6.257,6.257,0,0,1,.936.629l2.474,1.819a72.789,72.789,0,0,1,7.767,6.529,34.422,34.422,0,0,1,3.649,4.246,22.24,22.24,0,0,1,1.324,2.059,17.324,17.324,0,0,1,.975,1.9,14.3,14.3,0,0,1,.643,1.637,8.1,8.1,0,0,1,.372,1.273,6.473,6.473,0,0,1,.219,1.108" transform="translate(3.998 12.177)" fill="#263238"/>
            <path id="Trazado_833138" data-name="Trazado 833138" d="M83.362,152.314a4.546,4.546,0,0,1-.786-.53c-.485-.365-1.205-.871-2.11-1.466a39.391,39.391,0,0,0-15.677-6.042c-1.071-.166-1.944-.274-2.548-.329a4.518,4.518,0,0,1-.939-.135,4.459,4.459,0,0,1,.949-.014c.611.01,1.492.078,2.577.209a35.4,35.4,0,0,1,15.79,6.086c.893.629,1.592,1.171,2.051,1.574a4.561,4.561,0,0,1,.694.647" transform="translate(5.918 13.881)" fill="#263238"/>
            <path id="Trazado_833139" data-name="Trazado 833139" d="M90.5,139.294a6.2,6.2,0,0,1-1.1.167l-3,.355c-2.533.313-6.023.82-9.843,1.577s-7.239,1.626-9.7,2.306l-2.911.819a6.153,6.153,0,0,1-1.079.268,6.054,6.054,0,0,1,1.034-.409c.673-.242,1.657-.565,2.881-.938,2.447-.748,5.868-1.659,9.7-2.422s7.34-1.226,9.888-1.47c1.273-.123,2.306-.2,3.021-.235a6.2,6.2,0,0,1,1.112-.018" transform="translate(6.069 13.445)" fill="#263238"/>
            <path id="Trazado_833140" data-name="Trazado 833140" d="M83.352,123.329a7.1,7.1,0,0,1-.8.893c-.532.556-1.294,1.366-2.221,2.382-1.861,2.023-4.346,4.895-7.083,8.079s-5.26,6.035-7.176,8.016c-.954.993-1.748,1.777-2.313,2.3a6.945,6.945,0,0,1-.9.786,7.2,7.2,0,0,1,.8-.893c.532-.555,1.294-1.365,2.219-2.381,1.861-2.023,4.347-4.9,7.085-8.08s5.259-6.034,7.175-8.015c.954-.995,1.748-1.777,2.313-2.3a7.139,7.139,0,0,1,.9-.787" transform="translate(6.069 11.906)" fill="#263238"/>
            <path id="Trazado_833141" data-name="Trazado 833141" d="M55.884,107.056h0Z" transform="translate(5.395 10.335)" fill="#455a64"/>
            <path id="Trazado_833142" data-name="Trazado 833142" d="M72.322,114.734c-.578-3.058-3.2-5.413-6.114-6.516a25.58,25.58,0,0,0-9.1-1.162,16.157,16.157,0,0,0-9.236,4.088,9.916,9.916,0,0,0-3.487,6.476c-.168,2.642,1.112,5.154,2.559,7.37a14.014,14.014,0,0,0,4.4,4.649,10.589,10.589,0,0,0,8.834.468A21.438,21.438,0,0,0,67.662,125a18.9,18.9,0,0,0,3.634-4.589,8.834,8.834,0,0,0,1.026-5.675" transform="translate(4.283 10.335)" fill="#455a64"/>
            <path id="Trazado_833143" data-name="Trazado 833143" d="M59.962,146.417c-.105.005-.4-4.182-.665-9.352s-.386-9.368-.281-9.372.4,4.181.663,9.352.387,9.367.282,9.372" transform="translate(5.694 12.327)" fill="#263238"/>
            <path id="Trazado_833144" data-name="Trazado 833144" d="M80.021,106.4a2.083,2.083,0,0,1-.186.43l-.6,1.2c-.524,1.036-1.283,2.536-2.184,4.406-1.821,3.732-4.221,8.942-6.823,14.721s-4.956,11.017-6.732,14.775c-.883,1.881-1.621,3.393-2.144,4.43-.25.488-.453.883-.612,1.191a2.163,2.163,0,0,1-.237.4,2.1,2.1,0,0,1,.168-.438c.141-.316.322-.72.547-1.22.5-1.1,1.189-2.622,2.032-4.479l6.629-14.819c2.6-5.781,5.043-10.98,6.929-14.685.933-1.856,1.729-3.339,2.294-4.355.272-.476.491-.862.663-1.163a2.1,2.1,0,0,1,.253-.393" transform="translate(5.841 10.271)" fill="#263238"/>
            <path id="Trazado_833145" data-name="Trazado 833145" d="M31.623,132.867a13.823,13.823,0,0,0,6.317-1.7c3.142-2.013,6.411-3.641,8.15-6.942a2.891,2.891,0,0,0,.326-2.591c-.543-1.053-1.972-1.194-3.154-1.123-4.78.288-9.689,1.966-12.821,5.589a5.858,5.858,0,0,0-1.7,4.017c.091,1.488,1.4,2.955,2.878,2.752" transform="translate(2.774 11.632)" fill="#455a64"/>
            <path id="Trazado_833146" data-name="Trazado 833146" d="M42.6,124.481c-.005.063-.8.007-2.082.042A23.115,23.115,0,0,0,30.9,126.9c-1.15.564-1.828.984-1.863.931a7.68,7.68,0,0,1,1.738-1.171,19.465,19.465,0,0,1,9.747-2.4,7.646,7.646,0,0,1,2.083.229" transform="translate(2.803 11.994)" fill="#263238"/>
            <g id="Grupo_1083271" data-name="Grupo 1083271" transform="translate(46.859 157.992)" opacity="0.3">
              <g id="Grupo_1083270" data-name="Grupo 1083270">
                <g id="Grupo_1083269" data-name="Grupo 1083269" clip-path="url(#clip-path-7)">
                  <path id="Trazado_833147" data-name="Trazado 833147" d="M45.335,154.053a8.015,8.015,0,0,0,1.529-9.97l-4.13.014Z" transform="translate(-42.734 -144.083)"/>
                </g>
              </g>
            </g>
            <path id="Trazado_833148" data-name="Trazado 833148" d="M47.435,146.812a5.4,5.4,0,0,0-2.825-3.993l-2.2-1.209a11.014,11.014,0,0,0-8.094.052A13.244,13.244,0,0,0,27.93,146.1a8.512,8.512,0,0,0-1.441,7.473,8.27,8.27,0,0,0,5.559,5.173,11.636,11.636,0,0,0,7.725-.614,13.191,13.191,0,0,0,6.834-6.387,8.448,8.448,0,0,0,.828-4.937" transform="translate(2.525 13.598)" fill="#455a64"/>
            <path id="Trazado_833149" data-name="Trazado 833149" d="M37.716,146.353A14.207,14.207,0,0,1,36.608,148a38.952,38.952,0,0,0-4.437,8.43,14.092,14.092,0,0,1-.735,1.849,8.1,8.1,0,0,1,.479-1.939,28.442,28.442,0,0,1,4.473-8.5,8.052,8.052,0,0,1,1.327-1.492" transform="translate(3.034 14.128)" fill="#263238"/>
            <g id="Grupo_1083274" data-name="Grupo 1083274" transform="translate(57.13 158.836)" opacity="0.3">
              <g id="Grupo_1083273" data-name="Grupo 1083273">
                <g id="Grupo_1083272" data-name="Grupo 1083272" clip-path="url(#clip-path-8)">
                  <path id="Trazado_833150" data-name="Trazado 833150" d="M64.961,145.369c-3.684-1.49-8.134.4-10.431,3.644s-2.753,7.487-2.239,11.428a15.978,15.978,0,0,0,2,6.255,8.923,8.923,0,0,0,5.033,4.053,8.805,8.805,0,0,0,6.909-1.172,14.747,14.747,0,0,0,4.826-5.266c1.907-3.3,2.952-7.258,2.07-10.965s-4.377-7.637-8.173-7.976" transform="translate(-52.1 -144.852)"/>
                </g>
              </g>
            </g>
            <path id="Trazado_833151" data-name="Trazado 833151" d="M63.27,143.177c-3.684-1.49-8.134.4-10.431,3.644s-2.753,7.487-2.239,11.428a15.978,15.978,0,0,0,2,6.255,8.924,8.924,0,0,0,5.033,4.053,8.805,8.805,0,0,0,6.909-1.172,14.747,14.747,0,0,0,4.826-5.266c1.907-3.3,2.952-7.258,2.07-10.965s-4.377-7.637-8.173-7.976" transform="translate(4.867 13.772)" fill="#455a64"/>
            <path id="Trazado_833152" data-name="Trazado 833152" d="M60.219,167.9a2.573,2.573,0,0,1-.135-.7c-.062-.451-.134-1.105-.205-1.916-.143-1.621-.266-3.868-.276-6.351s.1-4.732.234-6.353c.066-.811.132-1.466.192-1.917a2.532,2.532,0,0,1,.13-.7,21.213,21.213,0,0,1-.052,2.63c-.063,1.622-.128,3.862-.121,6.337s.09,4.713.163,6.334a21.2,21.2,0,0,1,.069,2.631" transform="translate(5.754 14.478)" fill="#263238"/>
            <path id="Trazado_833153" data-name="Trazado 833153" d="M87.827,168.255c-.064-.031.317-.681.543-1.841a9.581,9.581,0,0,0-.295-4.541,18.436,18.436,0,0,0-1.98-4.175,12.837,12.837,0,0,1-.988-1.67,7.9,7.9,0,0,1,1.216,1.522,15.474,15.474,0,0,1,2.119,4.213,8.948,8.948,0,0,1,.194,4.71,5.868,5.868,0,0,1-.511,1.347c-.162.3-.279.447-.3.435" transform="translate(8.216 15.062)" fill="#263238"/>
            <g id="Grupo_1083277" data-name="Grupo 1083277" transform="translate(94.037 163.574)" opacity="0.3">
              <g id="Grupo_1083276" data-name="Grupo 1083276">
                <g id="Grupo_1083275" data-name="Grupo 1083275" clip-path="url(#clip-path-9)">
                  <path id="Trazado_833154" data-name="Trazado 833154" d="M85.758,149.229s1.421,7.211,7.946,5.674c0,0,.236-6.388-7.946-5.674" transform="translate(-85.758 -149.173)"/>
                </g>
              </g>
            </g>
            <path id="Trazado_833155" data-name="Trazado 833155" d="M92.242,134.163a10.538,10.538,0,0,0-3.218-.657,3.562,3.562,0,0,0-2.893,1.317,4.861,4.861,0,0,0-.691,2.471,29.683,29.683,0,0,0,1.3,11.289,10.812,10.812,0,0,0,1.724,3.546,4.816,4.816,0,0,0,3.347,1.906c1.994.122,3.745-1.365,4.848-3.031a12.1,12.1,0,0,0,1.772-9.1,11.167,11.167,0,0,0-5.5-7.41" transform="translate(8.24 12.888)" fill="#455a64"/>
            <path id="Trazado_833156" data-name="Trazado 833156" d="M104.827,116.274a13.6,13.6,0,0,1-2.092.183c-1.291.082-3.07.219-5.028.454s-3.721.526-4.995.753a13.67,13.67,0,0,1-2.075.319,9.828,9.828,0,0,1,2.021-.586,48.931,48.931,0,0,1,10.066-1.212,9.894,9.894,0,0,1,2.1.088" transform="translate(8.751 11.216)" fill="#263238"/>
            <path id="Trazado_833157" data-name="Trazado 833157" d="M53.344,129.909a11.045,11.045,0,0,1-.236-2.281,26.34,26.34,0,0,1,.287-5.534,18.444,18.444,0,0,1,.771-2.967,14.115,14.115,0,0,1,1.058-2.27,10.185,10.185,0,0,1,.949-1.392c.252-.307.4-.468.422-.452.056.042-.484.735-1.134,1.974a16.434,16.434,0,0,0-.962,2.256,20.519,20.519,0,0,0-.726,2.916,33.5,33.5,0,0,0-.395,5.464,17.261,17.261,0,0,1-.035,2.286" transform="translate(5.124 11.103)" fill="#263238"/>
            <path id="Trazado_833158" data-name="Trazado 833158" d="M51.649,102.448c-.083.087-1.8-1.631-4.292-3.236-2.484-1.623-4.749-2.488-4.705-2.6a5.322,5.322,0,0,1,1.517.485,21.417,21.417,0,0,1,6.419,4.164,5.355,5.355,0,0,1,1.061,1.186" transform="translate(4.118 9.326)" fill="#263238"/>
            <path id="Trazado_833159" data-name="Trazado 833159" d="M97.813,102.386a4.708,4.708,0,0,0-1.835-.813,31.712,31.712,0,0,0-19.8,1.194,4.027,4.027,0,0,0-1.527.91,1.5,1.5,0,0,0-.329,1.65l.122.1c.719,1.115,3.236,1.9,5.121,2.047,5.824.453,11.849.3,17.259-1.9a2.557,2.557,0,0,0,1.665-1.4,1.784,1.784,0,0,0-.67-1.79" transform="translate(7.162 9.704)" fill="#455a64"/>
          </g>
        </g>
        <rect id="Rectángulo_385085" data-name="Rectángulo 385085" width="8.381" height="159.916" transform="translate(227.615 233.328)" fill="#263238"/>
        <rect id="Rectángulo_385086" data-name="Rectángulo 385086" width="8.381" height="159.013" transform="translate(35.277 231.284)" fill="#263238"/>
        <rect id="Rectángulo_385087" data-name="Rectángulo 385087" width="222.575" height="18.189" transform="translate(23.518 224.826)" fill="#ae7461"/>
        <rect id="Rectángulo_385088" data-name="Rectángulo 385088" width="20.971" height="7.357" transform="translate(78.424 207.017)" fill="#ebebeb"/>
        <rect id="Rectángulo_385089" data-name="Rectángulo 385089" width="65.863" height="1.541" transform="translate(34.407 205.755)" fill="#455a64"/>
        <rect id="Rectángulo_385090" data-name="Rectángulo 385090" width="65.557" height="1.541" transform="translate(34.407 214.045)" fill="#455a64"/>
        <path id="Trazado_833160" data-name="Trazado 833160" d="M75.395,187.973l-.1,9.172H31.377v-9.172Z" transform="translate(3.029 18.148)" fill="#455a64"/>
        <g id="Grupo_1083284" data-name="Grupo 1083284" transform="translate(0 0.001)">
          <g id="Grupo_1083283" data-name="Grupo 1083283" clip-path="url(#clip-path-2)">
            <path id="Trazado_833161" data-name="Trazado 833161" d="M61.785,192.348a2.376,2.376,0,1,0,2.374-2.282,2.329,2.329,0,0,0-2.374,2.282" transform="translate(5.965 18.349)" fill="#263238"/>
            <path id="Trazado_833162" data-name="Trazado 833162" d="M61.449,192.377a2.746,2.746,0,1,1,2.742,2.611,2.682,2.682,0,0,1-2.742-2.611m.737,0a2.006,2.006,0,1,0,2.006-1.954,1.984,1.984,0,0,0-2.006,1.954" transform="translate(5.933 18.32)" fill="#e0e0e0"/>
            <path id="Trazado_833163" data-name="Trazado 833163" d="M72.957,193.87c0,.094,4.309.171,9.623.171s9.624-.077,9.624-.171S87.9,193.7,82.58,193.7s-9.623.077-9.623.171" transform="translate(7.044 18.699)" fill="#263238"/>
            <path id="Trazado_833164" data-name="Trazado 833164" d="M72.957,192.7c0,.094,4.309.171,9.623.171S92.2,192.8,92.2,192.7s-4.308-.171-9.624-.171-9.623.077-9.623.171" transform="translate(7.044 18.587)" fill="#263238"/>
            <path id="Trazado_833165" data-name="Trazado 833165" d="M72.957,191.532c0,.094,4.309.171,9.623.171s9.624-.077,9.624-.171-4.308-.171-9.624-.171-9.623.077-9.623.171" transform="translate(7.044 18.474)" fill="#263238"/>
            <path id="Trazado_833166" data-name="Trazado 833166" d="M72.957,190.364c0,.094,4.309.171,9.623.171s9.624-.077,9.624-.171-4.308-.171-9.624-.171-9.623.077-9.623.171" transform="translate(7.044 18.361)" fill="#263238"/>
            <rect id="Rectángulo_385091" data-name="Rectángulo 385091" width="19.792" height="4.908" transform="translate(39.277 208.07)" fill="#fff"/>
            <path id="Trazado_833167" data-name="Trazado 833167" d="M51.073,194.118a10.062,10.062,0,0,0,0-3.911,10.062,10.062,0,0,0,0,3.911" transform="translate(4.912 18.362)" fill="#e0e0e0"/>
            <path id="Trazado_833168" data-name="Trazado 833168" d="M48.687,194.118a10.062,10.062,0,0,0,0-3.911,10.062,10.062,0,0,0,0,3.911" transform="translate(4.682 18.362)" fill="#e0e0e0"/>
            <path id="Trazado_833169" data-name="Trazado 833169" d="M46.3,194.118a10.062,10.062,0,0,0,0-3.911,10.061,10.061,0,0,0,0,3.911" transform="translate(4.451 18.362)" fill="#e0e0e0"/>
            <path id="Trazado_833170" data-name="Trazado 833170" d="M43.914,194.118a10.061,10.061,0,0,0,0-3.911,10.062,10.062,0,0,0,0,3.911" transform="translate(4.221 18.362)" fill="#e0e0e0"/>
            <path id="Trazado_833171" data-name="Trazado 833171" d="M41.527,194.118a10.062,10.062,0,0,0,0-3.911,10.061,10.061,0,0,0,0,3.911" transform="translate(3.991 18.362)" fill="#e0e0e0"/>
            <path id="Trazado_833172" data-name="Trazado 833172" d="M39.141,194.118a10.061,10.061,0,0,0,0-3.911,10.062,10.062,0,0,0,0,3.911" transform="translate(3.76 18.362)" fill="#e0e0e0"/>
            <path id="Trazado_833173" data-name="Trazado 833173" d="M71.265,197.445a31.014,31.014,0,0,0,.192-4.87,31.012,31.012,0,0,0-.192-4.871,31.013,31.013,0,0,0-.192,4.871,31.016,31.016,0,0,0,.192,4.87" transform="translate(6.862 18.121)" fill="#263238"/>
            <path id="Trazado_833174" data-name="Trazado 833174" d="M33.809,174.8v-2.395l56.291.1h3.252v2.326H90.1V189.18H29.306V174.8Z" transform="translate(2.829 16.644)" fill="#f5f5f5"/>
            <path id="Trazado_833175" data-name="Trazado 833175" d="M47.611,189.18V172.406h-13.8v2.4h-4.5V189.18Z" transform="translate(2.829 16.644)" fill="#ebebeb"/>
            <path id="Trazado_833176" data-name="Trazado 833176" d="M33.413,172.422c0,.094,13.216.171,29.516.171s29.518-.077,29.518-.171-13.213-.171-29.518-.171-29.516.077-29.516.171" transform="translate(3.226 16.629)" fill="#e0e0e0"/>
            <path id="Trazado_833177" data-name="Trazado 833177" d="M29.717,179.293c0,.094,13.459.171,30.057.171s30.06-.077,30.06-.171-13.456-.171-30.06-.171-30.057.077-30.057.171" transform="translate(2.869 17.292)" fill="#e0e0e0"/>
            <path id="Trazado_833178" data-name="Trazado 833178" d="M29.306,183.979c0,.094,13.56.171,30.282.171s30.287-.077,30.287-.171-13.558-.171-30.287-.171-30.282.077-30.282.171" transform="translate(2.829 17.745)" fill="#e0e0e0"/>
            <path id="Trazado_833179" data-name="Trazado 833179" d="M92.447,174.606c0-.094-13.216-.171-29.516-.171s-29.518.077-29.518.171,13.213.171,29.518.171,29.516-.077,29.516-.171" transform="translate(3.226 16.84)" fill="#e0e0e0"/>
            <rect id="Rectángulo_385092" data-name="Rectángulo 385092" width="20.971" height="7.357" transform="translate(75.639 216.577)" fill="#ebebeb"/>
            <rect id="Rectángulo_385093" data-name="Rectángulo 385093" width="65.863" height="1.541" transform="translate(31.621 215.314)" fill="#ff725e"/>
            <rect id="Rectángulo_385094" data-name="Rectángulo 385094" width="65.557" height="1.541" transform="translate(31.621 223.606)" fill="#ff725e"/>
            <path id="Trazado_833180" data-name="Trazado 833180" d="M72.854,196.693l-.1,9.172H28.837v-9.172Z" transform="translate(2.784 18.988)" fill="#ff725e"/>
            <path id="Trazado_833181" data-name="Trazado 833181" d="M59.244,201.067a2.376,2.376,0,1,0,2.374-2.282,2.33,2.33,0,0,0-2.374,2.282" transform="translate(5.72 19.19)" fill="#263238"/>
            <path id="Trazado_833182" data-name="Trazado 833182" d="M58.908,201.1a2.746,2.746,0,1,1,2.742,2.611,2.681,2.681,0,0,1-2.742-2.611m.737,0a2.006,2.006,0,1,0,2.006-1.954,1.984,1.984,0,0,0-2.006,1.954" transform="translate(5.687 19.162)" fill="#e0e0e0"/>
            <path id="Trazado_833183" data-name="Trazado 833183" d="M70.416,202.589c0,.094,4.309.171,9.623.171s9.624-.077,9.624-.171-4.308-.171-9.624-.171-9.623.077-9.623.171" transform="translate(6.798 19.541)" fill="#263238"/>
            <path id="Trazado_833184" data-name="Trazado 833184" d="M70.416,201.421c0,.094,4.309.171,9.623.171s9.624-.077,9.624-.171-4.308-.171-9.624-.171-9.623.077-9.623.171" transform="translate(6.798 19.428)" fill="#263238"/>
            <path id="Trazado_833185" data-name="Trazado 833185" d="M70.416,200.252c0,.094,4.309.171,9.623.171s9.624-.077,9.624-.171-4.308-.171-9.624-.171-9.623.077-9.623.171" transform="translate(6.798 19.316)" fill="#263238"/>
            <path id="Trazado_833186" data-name="Trazado 833186" d="M70.416,199.083c0,.094,4.309.171,9.623.171s9.624-.077,9.624-.171-4.308-.171-9.624-.171-9.623.077-9.623.171" transform="translate(6.798 19.203)" fill="#263238"/>
            <rect id="Rectángulo_385095" data-name="Rectángulo 385095" width="19.792" height="4.909" transform="translate(36.491 217.631)" fill="#fff"/>
            <path id="Trazado_833187" data-name="Trazado 833187" d="M48.532,202.837a10.062,10.062,0,0,0,0-3.911,10.061,10.061,0,0,0,0,3.911" transform="translate(4.667 19.204)" fill="#e0e0e0"/>
            <path id="Trazado_833188" data-name="Trazado 833188" d="M46.146,202.837a10.062,10.062,0,0,0,0-3.911,10.061,10.061,0,0,0,0,3.911" transform="translate(4.437 19.204)" fill="#e0e0e0"/>
            <path id="Trazado_833189" data-name="Trazado 833189" d="M43.759,202.837a10.062,10.062,0,0,0,0-3.911,10.061,10.061,0,0,0,0,3.911" transform="translate(4.206 19.204)" fill="#e0e0e0"/>
            <path id="Trazado_833190" data-name="Trazado 833190" d="M41.373,202.837a10.061,10.061,0,0,0,0-3.911,10.062,10.062,0,0,0,0,3.911" transform="translate(3.976 19.204)" fill="#e0e0e0"/>
            <path id="Trazado_833191" data-name="Trazado 833191" d="M38.986,202.837a10.062,10.062,0,0,0,0-3.911,10.061,10.061,0,0,0,0,3.911" transform="translate(3.745 19.204)" fill="#e0e0e0"/>
            <path id="Trazado_833192" data-name="Trazado 833192" d="M36.6,202.837a10.062,10.062,0,0,0,0-3.911,10.062,10.062,0,0,0,0,3.911" transform="translate(3.515 19.204)" fill="#e0e0e0"/>
            <path id="Trazado_833193" data-name="Trazado 833193" d="M68.724,206.164a31.013,31.013,0,0,0,.192-4.87,31.01,31.01,0,0,0-.192-4.871,31.173,31.173,0,0,0-.192,4.871,31.175,31.175,0,0,0,.192,4.87" transform="translate(6.616 18.962)" fill="#263238"/>
            <g id="Grupo_1083282" data-name="Grupo 1083282" transform="translate(169.868 224.825)" opacity="0.2">
              <g id="Grupo_1083281" data-name="Grupo 1083281">
                <g id="Grupo_1083280" data-name="Grupo 1083280" clip-path="url(#clip-path-11)">
                  <path id="Trazado_833194" data-name="Trazado 833194" d="M154.912,223.22s27.563-18.189,17.855-18.189H159.218Z" transform="translate(-154.912 -205.031)"/>
                </g>
              </g>
            </g>
          </g>
        </g>
        <g id="Grupo_1083304" data-name="Grupo 1083304" transform="translate(0 0.001)">
          <g id="Grupo_1083303" data-name="Grupo 1083303" clip-path="url(#clip-path-2)">
            <path id="Trazado_833195" data-name="Trazado 833195" d="M84.609,342.37,70.958,371.146,53.776,390.677a3.354,3.354,0,0,0,.4,4.786,3.109,3.109,0,0,0,2.869.581c6.315-1.9,29.509-9.021,30.393-11.186,1.024-2.506,16.359-29.361,16.359-29.361Z" transform="translate(5.112 33.053)" fill="#263238"/>
            <g id="Grupo_1083287" data-name="Grupo 1083287" transform="translate(58.067 375.423)" opacity="0.3">
              <g id="Grupo_1083286" data-name="Grupo 1083286">
                <g id="Grupo_1083285" data-name="Grupo 1083285" clip-path="url(#clip-path-13)">
                  <path id="Trazado_833196" data-name="Trazado 833196" d="M84.609,342.37,70.958,371.146,53.776,390.677a3.354,3.354,0,0,0,.4,4.786,3.109,3.109,0,0,0,2.869.581c6.315-1.9,29.509-9.021,30.393-11.186,1.024-2.506,16.359-29.361,16.359-29.361Z" transform="translate(-52.954 -342.37)"/>
                </g>
              </g>
            </g>
            <path id="Trazado_833197" data-name="Trazado 833197" d="M54.066,391.892l34.225-12.524-.605,1.206c-.523,1.041-.515,1.378-1.571,1.82A291.48,291.48,0,0,1,56.16,393.1c-1.02.313-2.094-1.212-2.094-1.212" transform="translate(5.22 36.625)" fill="#455a64"/>
            <path id="Trazado_833198" data-name="Trazado 833198" d="M88.312,332.855s6.6-17.983,7.147-23.419,3.184-17.7,5.325-28.955,9.744-40.743,9.744-40.743l9.257-71.623,51.367-1.342s-.043,33.206-5.765,52.027c-4.835,15.9-33.439,73.549-36.189,90.606S92.924,393.3,92.924,393.3l-24.3-12.2Z" transform="translate(6.626 16.1)" fill="#263238"/>
            <path id="Trazado_833199" data-name="Trazado 833199" d="M73.172,343.833,82.139,368.8S59.806,385.445,60.8,390.258l48.122-13.811L96.475,337.989Z" transform="translate(5.867 32.63)" fill="#263238"/>
            <path id="Trazado_833200" data-name="Trazado 833200" d="M73.195,343.853a2.777,2.777,0,0,1,.382-.115l1.17-.315,4.574-1.2,17.129-4.408.179-.046.057.177c3.317,10.179,7.648,23.47,12.524,38.433l.088.272-.275.079-20.612,5.926L60.9,390.538l-.294.084-.044-.29a3.623,3.623,0,0,1,.541-2.247,13.046,13.046,0,0,1,1.189-1.831,35.99,35.99,0,0,1,2.776-3.18c1.928-1.984,3.909-3.783,5.853-5.478,3.9-3.377,7.652-6.341,11.118-8.943l-.07.235c-2.727-7.733-4.937-14-6.476-18.367-.742-2.131-1.322-3.8-1.728-4.961-.184-.542-.329-.966-.436-1.28a3.57,3.57,0,0,1-.132-.427,4.886,4.886,0,0,1,.184.454c.121.319.284.751.491,1.3l1.84,4.973c1.579,4.318,3.847,10.517,6.645,18.165l.052.143-.123.093c-3.439,2.615-7.171,5.6-11.046,8.979-1.93,1.7-3.9,3.5-5.8,5.47a35.8,35.8,0,0,0-2.726,3.139,12.71,12.71,0,0,0-1.137,1.76,3.174,3.174,0,0,0-.486,1.893l-.338-.2,27.5-7.91,20.616-5.908-.186.351c-4.816-14.981-9.1-28.289-12.372-38.481l.236.13-17.061,4.165-4.642,1.114-1.217.285a4.143,4.143,0,0,1-.431.088" transform="translate(5.844 32.609)" fill="#455a64"/>
            <path id="Trazado_833201" data-name="Trazado 833201" d="M108.932,373.411l-1.215-3.977-45.684,14.73s-1.883,1.575-1.222,3.058Z" transform="translate(5.857 35.666)" fill="#455a64"/>
            <path id="Trazado_833202" data-name="Trazado 833202" d="M79.439,204.947c-.6,1.444-25.494,65.245-24.928,74.717S77.142,383.4,77.142,383.4l28.863-9.4s-3.7-26.741-8.223-49.985c-4.261-21.913-3.5-26.838-3.5-26.838s-6.013-7.565-4.971-7.276,3.406-.2,3.3-1.957a22.007,22.007,0,0,0-1.315-4.85L111.917,242.1l17.118-74.611-38.9,1.94Z" transform="translate(5.262 16.169)" fill="#263238"/>
            <path id="Trazado_833203" data-name="Trazado 833203" d="M117.073,199.458a2.606,2.606,0,0,1-.076.633c-.07.411-.169,1.021-.343,1.792-.328,1.549-.851,3.781-1.532,6.527-1.358,5.495-3.333,13.057-5.555,21.4-4.272,16.013-7.279,27.28-8.058,30.205a2.621,2.621,0,0,1,.075-.633c.071-.411.169-1.021.343-1.792.329-1.549.851-3.78,1.532-6.527,1.358-5.494,3.335-13.058,5.557-21.4,4.27-16.007,7.278-27.279,8.057-30.2" transform="translate(9.799 19.255)" fill="#455a64"/>
            <path id="Trazado_833204" data-name="Trazado 833204" d="M113.853,211.733a52.39,52.39,0,0,1-6.055-4.79,52.164,52.164,0,0,1-5.684-5.224,52.5,52.5,0,0,1,6.055,4.79,52.416,52.416,0,0,1,5.684,5.224" transform="translate(9.858 19.473)" fill="#455a64"/>
            <path id="Trazado_833205" data-name="Trazado 833205" d="M91.291,273.22a1.584,1.584,0,0,1,.129.283c.081.212.189.495.327.86a17.586,17.586,0,0,1,.92,3.476,1.814,1.814,0,0,1-.236,1.254,2.264,2.264,0,0,1-1.126.861,3.766,3.766,0,0,1-1.529.256,2.591,2.591,0,0,1-.414-.055c-.075-.027-.145,0-.066-.045,0-.021.008.049.03.1a4.684,4.684,0,0,0,.386.716c1.237,1.9,2.865,3.973,4.684,6.279l.036.046,0,.074a43.8,43.8,0,0,0,.339,6.819c.261,2.438.628,5.027,1.057,7.756.837,5.462,2.049,11.456,3.279,17.957,2.419,13.007,4.87,28.009,7.179,44.228l.034.232-.225.073L86.93,370.641l-9.7,3.159-.295.1-.07-.3c-6.76-29.028-12.614-54.926-16.626-73.6-2-9.339-3.553-16.869-4.514-22.082-.468-2.61-.827-4.633-1-6.015-.075-.675-.132-1.2-.173-1.572-.036-.354-.041-.536-.041-.536s.042.18.1.532c.055.374.129.892.227,1.563.206,1.372.6,3.388,1.1,5.989,1.024,5.2,2.636,12.713,4.684,22.039,4.111,18.65,10.03,44.532,16.8,73.553l-.365-.205,9.7-3.161,19.163-6.238-.192.306c-2.294-16.21-4.713-31.214-7.088-44.219-1.206-6.5-2.4-12.509-3.206-17.983-.416-2.735-.769-5.331-1.016-7.78a43.1,43.1,0,0,1-.288-6.9l.031.118c-1.808-2.327-3.414-4.4-4.646-6.346a4.735,4.735,0,0,1-.4-.765A.379.379,0,0,1,89.1,280a.181.181,0,0,1,.2-.08.917.917,0,0,1,.109.021,2.271,2.271,0,0,0,.376.054,3.567,3.567,0,0,0,1.444-.224,2.087,2.087,0,0,0,1.046-.772,1.64,1.64,0,0,0,.226-1.139,18.927,18.927,0,0,0-.837-3.466c-.122-.37-.216-.657-.287-.872a1.965,1.965,0,0,1-.09-.3" transform="translate(5.263 26.045)" fill="#455a64"/>
            <g id="Grupo_1083290" data-name="Grupo 1083290" transform="translate(86.823 390.941)" opacity="0.3">
              <g id="Grupo_1083289" data-name="Grupo 1083289">
                <g id="Grupo_1083288" data-name="Grupo 1083288" clip-path="url(#clip-path-14)">
                  <path id="Trazado_833206" data-name="Trazado 833206" d="M79.179,363.716l.791,2.2,22.475-5.784-1.182-3.612Z" transform="translate(-79.179 -356.522)"/>
                </g>
              </g>
            </g>
            <g id="Grupo_1083293" data-name="Grupo 1083293" transform="translate(81.941 302.676)" opacity="0.3">
              <g id="Grupo_1083292" data-name="Grupo 1083292">
                <g id="Grupo_1083291" data-name="Grupo 1083291" clip-path="url(#clip-path-15)">
                  <path id="Trazado_833207" data-name="Trazado 833207" d="M86.479,279.107a17.419,17.419,0,0,0-10.138-3.077,2.357,2.357,0,0,0-1.114.216.881.881,0,0,0-.476.951c.14.487.748.631,1.25.691l10.67,1.283" transform="translate(-74.726 -276.028)"/>
                </g>
              </g>
            </g>
            <path id="Trazado_833208" data-name="Trazado 833208" d="M87.206,78.127l21.1-8.026,5.637-6.586,26.414-2.565,11,9.706S172.9,75.8,173.9,78.285s-10.077,69.41-10.077,69.41-.6,36.9-3.823,38.386-46.293,17.334-64.683-1.349c-.348-.354-5.614-83.864-5.863-84.608s-2.245-22-2.245-22" transform="translate(8.419 5.883)" fill="#fff"/>
            <g id="Grupo_1083296" data-name="Grupo 1083296" transform="translate(116.221 155.737)" opacity="0.3">
              <g id="Grupo_1083295" data-name="Grupo 1083295">
                <g id="Grupo_1083294" data-name="Grupo 1083294" clip-path="url(#clip-path-16)">
                  <path id="Trazado_833209" data-name="Trazado 833209" d="M105.988,168.556l8.061,12.952,10.64-12.952-.933-26.531-.881,5.454Z" transform="translate(-105.988 -142.026)"/>
                </g>
              </g>
            </g>
            <path id="Trazado_833210" data-name="Trazado 833210" d="M118.952,83.822l-13.927,88.916,8.021,10.924,10.428-10.433,1.308-89.407Z" transform="translate(10.139 8.091)" fill="#263238"/>
            <path id="Trazado_833211" data-name="Trazado 833211" d="M115.69,80.249l2.231,4.341h5.83l1.9-4.168-3.533-4.551h-2.933l-3.258,4.36" transform="translate(11.169 7.324)" fill="#263238"/>
            <path id="Trazado_833212" data-name="Trazado 833212" d="M136.417,75.587a3.2,3.2,0,0,1-.568.6l-1.7,1.571-6.1,5.437-.217.193-.164-.246a80.172,80.172,0,0,0-5.357-7.1q-.683-.785-1.344-1.548l.433-.012-6.344,7.859-.151.188-.177-.158a25.971,25.971,0,0,1-3.949-4.411c-.406-.578-.7-1.046-.884-1.37a1.859,1.859,0,0,1-.252-.516c.045-.029.48.631,1.343,1.731a29.7,29.7,0,0,0,4.041,4.223l-.328.03,6.256-7.929.212-.268.223.256,1.356,1.558a71.745,71.745,0,0,1,5.349,7.189l-.382-.053,6.239-5.28,1.793-1.463a3.227,3.227,0,0,1,.674-.478" transform="translate(10.585 7.129)" fill="#263238"/>
            <path id="Trazado_833213" data-name="Trazado 833213" d="M138.139,61.722s-11.128,57.938-10.071,68.329,4.437,37.565,6.35,50.361c1.733,11.588,5.687,29.276,7.666,37.859.61,2.644,3.727,7.734,6.27,6.977,12.882-3.831,25.712-11.29,28.288-12.72,0,0-2.846-27.9-10.572-46.432-.9-2.162-5.46-13.765-5.46-13.765l4.518-78.592-10.153-2.832-7.987-1.941Z" transform="translate(12.357 5.958)" fill="#c2cbf2"/>
            <path id="Trazado_833214" data-name="Trazado 833214" d="M128.749,138.548a4.6,4.6,0,0,1,.126-.833c.079-.553.326-1.328.594-2.343.588-2.012,1.509-4.9,2.728-8.446,2.418-7.092,5.95-16.82,9.949-27.527,2.052-5.428,4-10.593,5.777-15.286l1.309-3.415a10.809,10.809,0,0,0,.553-1.6,2.7,2.7,0,0,0-1.159-2.651,12.738,12.738,0,0,0-1.378-.664l-2.684-1.207-.389-.174.38-.186,2.342-1.148a2.155,2.155,0,0,0,1.215-1.672,2.378,2.378,0,0,0-.538-1.781,8.774,8.774,0,0,0-1.083-1.271,19.9,19.9,0,0,0-1.783-1.5c-.433-.315-.611-.567-.57-.584.014,0,.038.058.145.143s.27.2.492.351a15.58,15.58,0,0,1,1.866,1.432,8.711,8.711,0,0,1,1.152,1.274,2.665,2.665,0,0,1,.632,1.973,2.486,2.486,0,0,1-1.367,1.956q-1.1.563-2.324,1.185l-.009-.361,2.7,1.172a12.394,12.394,0,0,1,1.453.684,3.161,3.161,0,0,1,1.387,3.105,10.642,10.642,0,0,1-.565,1.705L148.415,84.3c-1.761,4.7-3.7,9.867-5.733,15.3-4,10.7-7.589,20.407-10.1,27.46-1.267,3.523-2.245,6.39-2.9,8.378-.3,1-.581,1.768-.7,2.3a4.772,4.772,0,0,1-.238.809" transform="translate(12.43 6.396)" fill="#263238"/>
            <g id="Grupo_1083299" data-name="Grupo 1083299" transform="translate(93.357 165.632)" opacity="0.3">
              <g id="Grupo_1083298" data-name="Grupo 1083298">
                <g id="Grupo_1083297" data-name="Grupo 1083297" clip-path="url(#clip-path-17)">
                  <path id="Trazado_833215" data-name="Trazado 833215" d="M85.137,205.086a9.468,9.468,0,0,0,5.106-5.018c1.95-4.045,12.7-49.018,12.7-49.018Z" transform="translate(-85.137 -151.05)"/>
                </g>
              </g>
            </g>
            <path id="Trazado_833216" data-name="Trazado 833216" d="M71.96,208.939s6.89,8.03,11.989,6.37,7.151-14.3,10.578-24.1,9.644-31.016,12.694-42.974a157.877,157.877,0,0,0,5.045-30.055c.665-9.561.773-42.84,1.419-48.6.193-1.717.629-5.133.629-5.133l-5.332,5.618L88.168,75.344l3.941,74.808Z" transform="translate(6.947 6.221)" fill="#c2cbf2"/>
            <path id="Trazado_833217" data-name="Trazado 833217" d="M106.056,69.8a5.448,5.448,0,0,1-.512.694c-.345.446-.862,1.1-1.49,1.964-.315.432-.655.92-1,1.465a5.66,5.66,0,0,0-.859,1.843,3.283,3.283,0,0,0,1.043,1.986,16.65,16.65,0,0,0,1.955,1.856l.7.573L105,79.973a6.4,6.4,0,0,0-2.619-.136,2.686,2.686,0,0,0-1.214.532,2.618,2.618,0,0,0-.236.232c-.058.048-.034.061-.048.072l-.027.147a6.191,6.191,0,0,0-.022.723c.07,2.014.349,4.181.621,6.443.572,4.528,1.3,9.477,2.075,14.66,1.671,10.732,3.184,20.443,4.291,27.548.539,3.478.98,6.315,1.3,8.349.136.943.246,1.7.328,2.274a4.292,4.292,0,0,1,.078.8,4.1,4.1,0,0,1-.191-.78c-.11-.571-.254-1.321-.434-2.257-.36-2.028-.861-4.854-1.476-8.322-1.207-7.032-2.83-16.757-4.456-27.529-.779-5.186-1.489-10.14-2.035-14.681-.26-2.273-.523-4.431-.576-6.5a6.308,6.308,0,0,1,.034-.794c.014-.075.024-.141.045-.222a.622.622,0,0,1,.145-.241,3.019,3.019,0,0,1,.3-.285,3.126,3.126,0,0,1,1.425-.613,6.79,6.79,0,0,1,2.815.178l-.188.362A16.748,16.748,0,0,1,102.952,78a6.839,6.839,0,0,1-.754-1.046,2.056,2.056,0,0,1-.333-1.217,5.689,5.689,0,0,1,.951-1.963c.368-.545.725-1.026,1.055-1.451.66-.849,1.207-1.479,1.583-1.9a4.228,4.228,0,0,1,.6-.618" transform="translate(9.689 6.738)" fill="#263238"/>
            <g id="Grupo_1083302" data-name="Grupo 1083302" transform="translate(97.312 155.737)" opacity="0.3">
              <g id="Grupo_1083301" data-name="Grupo 1083301">
                <g id="Grupo_1083300" data-name="Grupo 1083300" clip-path="url(#clip-path-18)">
                  <path id="Trazado_833218" data-name="Trazado 833218" d="M88.744,149.784s14.3,1.91,21.613-1.769c0,0,30.582,8.489,39.853,8.491,10.193,0,14.423-3.714,16.622-9.568l-48.211-4.911Z" transform="translate(-88.745 -142.026)"/>
                </g>
              </g>
            </g>
            <path id="Trazado_833219" data-name="Trazado 833219" d="M156.449,99.852c-.541,1.1-10.075,35.773-10.075,35.773L103.8,129.762l-8.11,16.568c.661.386,42.488,13.08,59.182,13.159,12.956.06,19.481-14.8,22.559-31.134,3.155-16.745,3.808-24.29,4-30.068.773-23.735-3.191-22.648-13.185-25.6" transform="translate(9.239 7.016)" fill="#c2cbf2"/>
            <path id="Trazado_833220" data-name="Trazado 833220" d="M168.281,72.682s.228.045.665.159l1.935.515c.849.235,1.909.495,3.131.918a10.351,10.351,0,0,1,3.907,2.133,10.016,10.016,0,0,1,2.683,4.86,32.629,32.629,0,0,1,.972,6.568c.136,2.377.182,4.923.135,7.62s-.115,5.55-.377,8.534c-.5,5.973-1.493,12.46-2.711,19.389-1.2,6.909-2.592,14.4-5.8,21.694a30.835,30.835,0,0,1-6.758,10.118l-.566.548c-.2.172-.416.322-.624.486l-1.267.958a17.307,17.307,0,0,1-2.851,1.454,11.248,11.248,0,0,1-1.522.537l-1.587.353a10.767,10.767,0,0,1-1.62.163,11.1,11.1,0,0,1-1.628.053,87.222,87.222,0,0,1-13.066-1.533c-4.387-.757-8.8-1.73-13.246-2.748-5.665-1.311-11.208-2.751-16.625-4.226q-4.061-1.105-8.022-2.256c-2.658-.792-5.2-1.492-7.848-2.412l-.245-.086.136-.275,8.122-16.562.084-.171.188.026,42.561,5.928-.217.144c3.087-11.117,5.6-20.061,7.374-26.219.887-3.079,1.582-5.462,2.076-7.071.249-.788.441-1.394.577-1.824.148-.407.239-.606.239-.606s-.056.216-.185.623c-.123.434-.3,1.044-.523,1.839l-1.974,7.1c-1.7,6.2-4.155,15.154-7.2,26.266l-.046.168-.172-.024-42.579-5.8.271-.145-8.1,16.574-.2-.2c.113-.189.1-.161.1-.156l.007,0,.013.005.027.009.055.019.107.036.216.076.467.152.961.3,1.939.59,3.927,1.157q3.957,1.142,8.016,2.248c5.411,1.47,10.949,2.906,16.6,4.215,4.443,1.016,8.844,1.99,13.216,2.746a87.171,87.171,0,0,0,12.977,1.533,10.587,10.587,0,0,0,1.584-.05,10.3,10.3,0,0,0,1.563-.156l1.529-.338a10.935,10.935,0,0,0,1.467-.516,16.8,16.8,0,0,0,2.755-1.4l1.228-.928c.2-.158.413-.3.605-.47l.552-.533a30.336,30.336,0,0,0,6.649-9.935c3.192-7.22,4.6-14.653,5.816-21.562,1.238-6.917,2.253-13.391,2.775-19.34.274-2.973.365-5.815.416-8.507s.031-5.227-.09-7.595a32.433,32.433,0,0,0-.916-6.513,9.808,9.808,0,0,0-2.571-4.771,10.244,10.244,0,0,0-3.812-2.135c-1.206-.436-2.262-.715-3.105-.966l-1.921-.571c-.431-.133-.648-.215-.648-.215" transform="translate(9.205 7.016)" fill="#263238"/>
            <path id="Trazado_833221" data-name="Trazado 833221" d="M147,136.9c-.152.07-1.023-1.612-2.4-3.472s-2.718-3.2-2.606-3.321A13.115,13.115,0,0,1,147,136.9" transform="translate(13.708 12.559)" fill="#263238"/>
            <path id="Trazado_833222" data-name="Trazado 833222" d="M157.348,77.266c.156.079-1.356,3.111-2.58,7.081-1.245,3.966-1.719,7.321-1.892,7.3a7.464,7.464,0,0,1,.146-2.225,35.245,35.245,0,0,1,3.184-10.238,7.416,7.416,0,0,1,1.142-1.916" transform="translate(14.756 7.458)" fill="#263238"/>
            <path id="Trazado_833223" data-name="Trazado 833223" d="M141.588,118.675c-3.15-.945-12.148,1.992-12.148,1.992v.651L131,133.505l6.19-2.555,5.729-.021,2.786-9.787s-.975-1.523-4.123-2.468" transform="translate(12.497 11.438)" fill="#ffc09d"/>
            <path id="Trazado_833224" data-name="Trazado 833224" d="M129.794,120.219l-4.233.23,1.4,17.319,4.759-1.169Z" transform="translate(12.122 11.605)" fill="#e0e0e0"/>
            <path id="Trazado_833225" data-name="Trazado 833225" d="M88.774,74.386c-2.567.8-4.063,3.456-7.762,16.766-1.979,7.118-6.482,18.924-8.33,24.681-1.092,3.4-8.606,24.211-6.689,29.962s10.608,12.857,27.8,9.906c16.991-2.915,39.235-11.071,39.235-11.071l-1.621-19.987-40.367,3.545.4-8.512Z" transform="translate(6.341 7.18)" fill="#c2cbf2"/>
            <path id="Trazado_833226" data-name="Trazado 833226" d="M89.649,126.9c-.158.007-.656-8.75-1.113-19.556s-.7-19.576-.543-19.582.656,8.748,1.113,19.558.7,19.573.543,19.58" transform="translate(8.491 8.472)" fill="#263238"/>
            <path id="Trazado_833227" data-name="Trazado 833227" d="M88.186,123.453a34.516,34.516,0,0,1-3.628,3.575,34.635,34.635,0,0,1-3.752,3.445,17.245,17.245,0,0,1,3.359-3.859,17.288,17.288,0,0,1,4.022-3.161" transform="translate(7.801 11.917)" fill="#263238"/>
            <path id="Trazado_833228" data-name="Trazado 833228" d="M86.027,151.916a.8.8,0,0,1,.23-.05l.681-.1c.6-.089,1.489-.163,2.628-.343,2.279-.357,5.579-.938,9.642-1.9a326.276,326.276,0,0,0,31.76-9.559l-.186.288c-.2-2.449-.409-5.022-.622-7.64-.343-4.266-.678-8.415-.993-12.347l.3.254-29.874,2.437c-3.69.279-6.655.5-8.747.66l-2.348.151a4.925,4.925,0,0,1-.816.02,5.1,5.1,0,0,1,.807-.118l2.34-.246,8.733-.824,29.858-2.634.279-.024.022.279c.321,3.931.66,8.082,1.009,12.346.211,2.617.419,5.191.616,7.641l.018.217-.2.071a298.029,298.029,0,0,1-31.867,9.393c-4.084.918-7.406,1.443-9.7,1.739-1.147.148-2.044.19-2.646.245l-.686.045a.8.8,0,0,1-.235,0" transform="translate(8.305 11.579)" fill="#263238"/>
            <path id="Trazado_833229" data-name="Trazado 833229" d="M122.138,7.341l-1.1.045a21.287,21.287,0,0,0-20.4,20.432c-.4,10.313-.719,21.713-.423,27.224.613,11.41,12.1,12.713,12.1,12.713.026,0,.027,3.165.027,3.165l10.161,9.139L139.085,67.3l.9-37.637c.533-11.9-5.947-22.121-17.852-22.323" transform="translate(9.664 0.708)" fill="#ffc09d"/>
            <path id="Trazado_833230" data-name="Trazado 833230" d="M111.246,62.877a27.6,27.6,0,0,0,14.683-5.008s-3.222,8.73-14.655,8.173Z" transform="translate(10.74 5.586)" fill="#ff9b6c"/>
            <path id="Trazado_833231" data-name="Trazado 833231" d="M135.947,35.484c.191-.092,7.748-2.644,7.821,5.171s-7.788,6.276-7.8,6.052-.018-11.223-.018-11.223" transform="translate(13.125 3.379)" fill="#ffc09d"/>
            <path id="Trazado_833232" data-name="Trazado 833232" d="M138.116,43.5c.033-.025.137.094.368.2a1.354,1.354,0,0,0,1.017.011c.822-.31,1.506-1.627,1.531-3.036a4.485,4.485,0,0,0-.4-1.945,1.574,1.574,0,0,0-1.034-1.036.694.694,0,0,0-.8.382c-.1.218-.052.374-.093.388-.021.02-.169-.129-.109-.453a.865.865,0,0,1,.3-.492,1.028,1.028,0,0,1,.751-.206,1.917,1.917,0,0,1,1.434,1.2,4.617,4.617,0,0,1,.491,2.173c-.035,1.576-.827,3.057-1.954,3.394a1.456,1.456,0,0,1-1.246-.2c-.246-.191-.288-.365-.26-.379" transform="translate(13.334 3.601)" fill="#ff9b6c"/>
            <path id="Trazado_833233" data-name="Trazado 833233" d="M96.895,25.026c4.9.756,9.927.393,13.841-2.651a23.176,23.176,0,0,0,3.136-2.964c1.736-1.967,3.09-4.422,5.429-5.613,3.014-1.534,6.641-.484,9.849.59l-.137-.121a14.354,14.354,0,0,1,4.466,3.146,44.488,44.488,0,0,0,3.441,22.2,2.379,2.379,0,0,0,1.281,1.271c1.83.725,1.263-1.705,2.624-2.173,1.043-.36,1.549-.139,3.623-.2.72-1.964,1.143-7.314,1.753-10.208a13.424,13.424,0,0,0,3.359-7.8,17.344,17.344,0,0,0-1.395-5.971c-1.983-3.76-3.131-5.68-6.169-6.724l-.068.031c-2.729-1.061-6.079-1.04-8.289.872-.6-4.069-4.209-7.256-8.2-8.255s-10.363-.3-14.161,1.276c-2.591,1.077-5.1,3.126-8,6.076v0l0,0c-.387.393-.779.8-1.18,1.222-.035.035-.065.075-.1.11a6.915,6.915,0,0,1-2.961.912,4.223,4.223,0,0,1-3.995-1.638c-.357-.391-.808-.885-1.314-.723a1.085,1.085,0,0,0-.6.754,4.9,4.9,0,0,0,1.466,4.861,8.159,8.159,0,0,0,2.12,1.452,5.5,5.5,0,0,1-3.148,1.754,3.973,3.973,0,0,0-2.64,1.689,2.725,2.725,0,0,0-.507,1.526c0,3.294,3.287,4.8,6.481,5.289" transform="translate(8.729 -0.001)" fill="#263238"/>
            <path id="Trazado_833234" data-name="Trazado 833234" d="M94.414,21.277a.454.454,0,0,0,.092.078l.288.2a3.9,3.9,0,0,0,.488.306,6.306,6.306,0,0,0,.7.359,10.158,10.158,0,0,0,4.906.825,12.965,12.965,0,0,0,6.874-2.627,22.443,22.443,0,0,0,5.851-6.9c.817-1.394,1.478-2.821,2.211-4.142a15.143,15.143,0,0,1,2.517-3.51,7.812,7.812,0,0,1,3.272-2.038,5.563,5.563,0,0,1,1.736-.219,6.141,6.141,0,0,1,1.594.287,6.619,6.619,0,0,1,3.712,3.068,7.976,7.976,0,0,1,.61,1.707.4.4,0,0,0-.011-.12c-.015-.094-.035-.209-.058-.35a5.748,5.748,0,0,0-.448-1.286,6.522,6.522,0,0,0-1.3-1.722A6.693,6.693,0,0,0,125,3.716a6.3,6.3,0,0,0-1.646-.314,5.754,5.754,0,0,0-1.8.213,7.986,7.986,0,0,0-3.385,2.076A15.268,15.268,0,0,0,115.6,9.249c-.742,1.329-1.4,2.753-2.214,4.135a22.437,22.437,0,0,1-5.768,6.838,12.875,12.875,0,0,1-6.74,2.637,10.286,10.286,0,0,1-4.849-.732,16.244,16.244,0,0,1-1.611-.85" transform="translate(9.115 0.327)" fill="#455a64"/>
            <path id="Trazado_833235" data-name="Trazado 833235" d="M93.412,15.13a1.785,1.785,0,0,0,.413.281,8.823,8.823,0,0,0,1.222.6,11.787,11.787,0,0,0,1.931.61,13.459,13.459,0,0,0,2.463.3,13.571,13.571,0,0,0,2.473-.2,11.919,11.919,0,0,0,1.954-.529,9.029,9.029,0,0,0,1.246-.553,1.846,1.846,0,0,0,.424-.263c-.023-.046-.65.286-1.731.636a13.441,13.441,0,0,1-1.934.465,14.542,14.542,0,0,1-2.427.172,14.822,14.822,0,0,1-2.417-.271,13.729,13.729,0,0,1-1.913-.545c-1.065-.395-1.679-.752-1.7-.708" transform="translate(9.018 1.459)" fill="#455a64"/>
            <path id="Trazado_833236" data-name="Trazado 833236" d="M133.3,20.555a2.092,2.092,0,0,0-.106.736,13.673,13.673,0,0,0,.041,2.042,7.1,7.1,0,0,0,.238,1.443.821.821,0,0,0,.782.572,1.49,1.49,0,0,0,.87-.43l2.793-2.587-.411-.238c-.129.539-.265,1.1-.4,1.678-.368,1.576-.718,3.074-1.04,4.446l-.174.745.554-.523a18.453,18.453,0,0,0,3.1-3.818,6.459,6.459,0,0,0,.839-1.705,28.664,28.664,0,0,1-4.252,5.186l.379.223c.333-1.37.7-2.864,1.081-4.437.136-.575.27-1.139.4-1.679l.193-.816-.6.578c-.974.93-1.9,1.809-2.745,2.621a1.127,1.127,0,0,1-.6.342.418.418,0,0,1-.4-.307,7.619,7.619,0,0,1-.271-1.332c-.234-1.692-.185-2.737-.26-2.739" transform="translate(12.857 1.983)" fill="#455a64"/>
            <path id="Trazado_833237" data-name="Trazado 833237" d="M113.862,44.064a11.663,11.663,0,0,0-2.871-.4c-.45-.027-.877-.1-.965-.4a2.278,2.278,0,0,1,.243-1.34q.564-1.653,1.184-3.466c1.639-4.932,2.806-8.981,2.606-9.045s-1.69,3.882-3.328,8.814c-.394,1.217-.77,2.375-1.128,3.485a2.6,2.6,0,0,0-.159,1.768,1.121,1.121,0,0,0,.763.624,3.059,3.059,0,0,0,.765.075,11.466,11.466,0,0,0,2.888-.115" transform="translate(10.556 2.839)" fill="#263238"/>
            <path id="Trazado_833238" data-name="Trazado 833238" d="M105.834,35.134a1.658,1.658,0,0,0,1.656,1.616,1.585,1.585,0,0,0,1.635-1.575,1.657,1.657,0,0,0-1.654-1.617,1.586,1.586,0,0,0-1.637,1.576" transform="translate(10.218 3.239)" fill="#263238"/>
            <path id="Trazado_833239" data-name="Trazado 833239" d="M103.693,30.676c.213.209,1.421-.779,3.193-.848,1.769-.1,3.107.773,3.29.546.09-.1-.134-.486-.717-.879a4.476,4.476,0,0,0-2.644-.706,4.315,4.315,0,0,0-2.531.946c-.527.446-.7.848-.591.941" transform="translate(10.008 2.778)" fill="#263238"/>
            <path id="Trazado_833240" data-name="Trazado 833240" d="M120.3,35.135a1.657,1.657,0,0,0,1.656,1.615,1.583,1.583,0,0,0,1.635-1.574,1.658,1.658,0,0,0-1.654-1.617,1.586,1.586,0,0,0-1.637,1.576" transform="translate(11.614 3.239)" fill="#263238"/>
            <path id="Trazado_833241" data-name="Trazado 833241" d="M119.543,30.392c.213.208,1.423-.777,3.194-.848,1.768-.094,3.105.774,3.29.546.089-.1-.133-.485-.717-.878a4.48,4.48,0,0,0-2.645-.706,4.315,4.315,0,0,0-2.531.945c-.525.447-.7.848-.591.941" transform="translate(11.538 2.751)" fill="#263238"/>
            <path id="Trazado_833242" data-name="Trazado 833242" d="M118.811,25.312c.26.448,1.958-.105,4.048-.239,2.089-.175,3.849.122,4.042-.359.083-.229-.286-.627-1.038-.967a6.976,6.976,0,0,0-6.164.455c-.7.447-1,.9-.888,1.11" transform="translate(11.468 2.242)" fill="#263238"/>
            <path id="Trazado_833243" data-name="Trazado 833243" d="M103.425,25.874c.379.4,1.81-.065,3.546-.13,1.731-.118,3.211.189,3.537-.248.144-.209-.1-.613-.75-.981a5.535,5.535,0,0,0-2.9-.591,5.459,5.459,0,0,0-2.807.895c-.6.436-.793.862-.625,1.056" transform="translate(9.979 2.308)" fill="#263238"/>
            <path id="Trazado_833244" data-name="Trazado 833244" d="M119.635,43.973c-.274,0-.177,1.824-1.668,3.205s-3.445,1.29-3.446,1.545c-.019.115.454.33,1.276.307a4.557,4.557,0,0,0,2.882-1.186,3.958,3.958,0,0,0,1.282-2.681c.027-.766-.2-1.207-.326-1.19" transform="translate(11.056 4.244)" fill="#263238"/>
            <path id="Trazado_833245" data-name="Trazado 833245" d="M100.18,116.931s-.874-4.286-1.689-5.352-8.215-8.4-8.215-8.4a1.9,1.9,0,0,0-1.128,2.57c.815,1.819,1.442,2.948,1.442,2.948s-6.4-4.65-7.212-4.3a2.111,2.111,0,0,0-.6,2.684,4.386,4.386,0,0,1,.648,1.178,8.357,8.357,0,0,0-2.682-.565,1.62,1.62,0,0,0-.69,2.363c.69.647,3.073,2.4,3.073,2.4s-1.567-.877-2.007.377a3.209,3.209,0,0,0,.19,2.734c.313.59,5.894,5.481,6.458,6.359a14.222,14.222,0,0,1,1.015,3.484c1.531-.07,12.287-1.3,12.287-1.3,0-.189-.889-7.179-.889-7.179" transform="translate(7.701 9.96)" fill="#ffc09d"/>
            <path id="Trazado_833246" data-name="Trazado 833246" d="M96.3,115.852c-.07.036-.4-.453-.9-1.258-.508-.787-1.154-1.967-1.994-3.056a27.04,27.04,0,0,0-2.785-2.336c-.748-.58-1.2-.954-1.16-1.021s.577.19,1.389.69a15.436,15.436,0,0,1,2.989,2.294,18.781,18.781,0,0,1,1.915,3.235,3.989,3.989,0,0,1,.545,1.452" transform="translate(8.637 10.442)" fill="#ff9b6c"/>
            <path id="Trazado_833247" data-name="Trazado 833247" d="M93.488,116.3a2.926,2.926,0,0,1-.321-.417l-.85-1.19a16.427,16.427,0,0,0-1.327-1.663c-.572-.446-1.395-.933-2.174-1.431a47.61,47.61,0,0,1-5.712-3.786,36.51,36.51,0,0,1,6.015,3.3,21.188,21.188,0,0,1,2.246,1.545,12.26,12.26,0,0,1,1.29,1.811c.637,1.061.97,1.8.834,1.829" transform="translate(8.023 10.406)" fill="#ff9b6c"/>
            <path id="Trazado_833248" data-name="Trazado 833248" d="M91.929,119.406a6.943,6.943,0,0,1-1.1-1.663c-.164-.287-.33-.578-.5-.875l-.128-.137-.207-.17c-.135-.116-.3-.226-.459-.345-.65-.462-1.393-.95-2.169-1.462a49.016,49.016,0,0,1-5.57-3.835,34.074,34.074,0,0,1,5.884,3.358c.782.515,1.519,1.019,2.17,1.518.161.132.32.243.47.384l.22.2a2.04,2.04,0,0,1,.217.287l.433.9a6.971,6.971,0,0,1,.741,1.843" transform="translate(7.896 10.707)" fill="#ff9b6c"/>
          </g>
        </g>
      </g>
    </g>
  </g>
</svg>
